<?xml version="1.0" encoding="UTF-8" standalone="no"?>
<!DOCTYPE svg PUBLIC "-//W3C//DTD SVG 1.1//EN" "http://www.w3.org/Graphics/SVG/1.1/DTD/svg11.dtd">
<svg width="29.28" height="62.64" viewBox="0.00 0.00 122.00 261.00" xmlns="http://www.w3.org/2000/svg" xmlns:xlink="http://www.w3.org/1999/xlink">
<g stroke-linecap="round" transform="translate(-2339.00, -750.00)" id="Layer_81">
<path d="M2397.88,763.79 C2396.89,764.47 2392.53,764.86 2390.15,765.02 C2387.60,765.31 2380.56,768.75 2380.14,769.11 C2377.39,771.50 2367.17,783.14 2366.30,784.96 C2365.27,787.20 2364.63,795.11 2365.01,798.95 C2365.26,801.21 2367.56,807.25 2368.67,809.15 C2369.96,811.31 2374.00,815.53 2375.32,816.30 C2376.92,817.21 2378.61,817.65 2379.68,817.53" fill="none" stroke="rgb(65, 65, 65)" stroke-width="26.00" stroke-opacity="1.00" stroke-linejoin="round"/>
<path d="M2370.10,782.01 C2368.40,781.92 2367.37,782.27 2366.24,783.57 C2363.81,786.43 2361.68,791.37 2361.26,794.54 C2360.89,797.75 2361.37,803.82 2362.35,807.08 C2363.35,810.30 2366.46,816.64 2368.01,819.06 C2369.31,821.06 2371.50,822.39 2372.00,822.16 C2372.28,822.02 2372.94,821.51 2374.00,820.63" fill="none" stroke="rgb(65, 65, 65)" stroke-width="26.00" stroke-opacity="1.00" stroke-linejoin="round"/>
<path d="M2364.66,798.26 C2363.27,800.02 2362.65,801.30 2362.25,803.54 C2361.62,807.29 2361.84,812.12 2362.94,818.34 C2363.43,820.98 2363.83,822.66 2364.26,823.33 C2365.04,824.48 2373.05,829.76 2374.65,830.67 C2375.53,831.15 2377.85,831.86 2378.89,831.93 C2379.29,831.95 2379.85,831.88 2380.56,831.71" fill="none" stroke="rgb(65, 65, 65)" stroke-width="26.00" stroke-opacity="1.00" stroke-linejoin="round"/>
<path d="M2362.09,786.01 C2362.39,783.80 2362.91,782.50 2364.22,781.13 C2366.58,778.68 2371.45,773.73 2373.77,772.39 C2374.98,771.71 2375.97,771.45 2377.00,771.44 C2377.24,771.44 2377.49,771.44 2377.75,771.44" fill="none" stroke="rgb(65, 65, 65)" stroke-width="26.00" stroke-opacity="1.00" stroke-linejoin="round"/>
<path d="M2393.34,765.90 C2394.61,764.80 2396.59,764.14 2398.43,764.62 C2399.23,764.84 2405.12,767.36 2409.89,768.62 C2414.05,769.73 2417.32,771.81 2419.41,773.50 C2423.15,776.61 2426.29,784.52 2426.35,784.78 C2426.37,784.86 2426.37,785.03 2426.33,785.29" fill="none" stroke="rgb(65, 65, 65)" stroke-width="26.00" stroke-opacity="1.00" stroke-linejoin="round"/>
<path d="M2416.90,773.26 C2416.90,773.26 2419.63,772.46 2419.63,772.46 C2420.40,772.98 2426.31,780.94 2426.74,781.53 C2429.29,784.97 2433.40,788.03 2433.54,788.20 C2434.99,789.99 2434.85,801.12 2434.83,802.30 C2434.83,802.30 2433.93,800.81 2433.93,800.81" fill="none" stroke="rgb(65, 65, 65)" stroke-width="26.00" stroke-opacity="1.00" stroke-linejoin="round"/>
<path d="M2426.04,777.34 C2427.30,778.91 2431.93,782.12 2433.23,784.81 C2434.12,786.72 2435.89,793.89 2436.22,797.38 C2436.53,800.81 2436.39,806.51 2435.91,807.95 C2435.12,810.26 2434.22,812.86 2433.58,813.82" fill="none" stroke="rgb(65, 65, 65)" stroke-width="26.00" stroke-opacity="1.00" stroke-linejoin="round"/>
<path d="M2435.36,802.48 C2436.32,805.02 2436.76,811.34 2437.11,814.80 C2437.46,818.46 2435.84,825.04 2435.82,825.11 C2435.42,826.32 2430.67,831.50 2428.49,832.55 C2427.95,832.79 2424.98,834.66 2424.97,834.66 C2424.02,835.22 2420.02,836.21 2417.42,837.36 C2420.62,832.59 2425.61,831.01 2425.99,831.27 C2423.83,833.81 2419.24,836.99 2416.43,838.14 C2413.54,839.29 2405.67,840.10 2403.58,839.80 C2401.06,839.39 2395.97,836.68 2394.42,834.88 C2393.80,834.10 2393.20,832.34 2393.36,831.56 C2393.86,829.59 2398.53,825.28 2401.23,823.99 C2403.67,822.86 2409.47,820.97 2411.50,821.03 C2412.49,821.09 2414.30,822.39 2414.68,823.26 C2415.06,824.27 2414.45,826.90 2413.49,828.39 C2411.72,831.03 2406.93,835.02 2404.56,836.52 C2402.07,838.08 2396.49,840.65 2393.69,841.07 C2392.62,841.20 2389.93,840.83 2389.15,840.24 C2387.99,839.30 2386.50,836.65 2386.04,834.91 C2385.24,831.61 2384.83,825.53 2385.02,822.39 C2385.23,819.37 2386.58,813.08 2387.63,810.09 C2388.71,807.06 2391.38,802.27 2392.97,800.24 C2393.72,799.34 2395.44,797.95 2396.67,797.38 C2398.36,796.64 2401.62,796.55 2403.28,797.16 C2404.84,797.80 2407.71,802.91 2408.36,806.35 C2408.91,809.55 2408.31,815.19 2407.24,817.90 C2406.24,820.34 2403.47,824.95 2402.01,826.64 C2400.51,828.34 2396.54,830.81 2394.17,831.45 C2391.49,832.13 2386.21,831.76 2383.93,830.11 C2382.28,828.85 2379.30,824.51 2378.26,821.25 C2377.30,818.07 2377.02,810.79 2377.68,807.62 C2378.37,804.49 2381.18,798.24 2383.04,795.56 C2386.87,790.17 2393.93,785.59 2395.71,785.18 C2397.88,784.73 2400.60,785.07 2401.85,786.01 C2403.08,787.01 2405.65,792.23 2406.70,795.69 C2407.55,798.58 2408.27,804.48 2408.26,806.86 C2408.21,810.77 2406.88,816.86 2405.53,819.83 C2404.25,822.56 2400.57,827.58 2398.72,829.12 C2398.15,829.58 2395.67,831.12 2394.97,831.34 C2393.41,831.79 2390.98,831.74 2389.81,831.02 C2387.18,829.32 2383.08,823.81 2381.75,820.99 C2380.32,817.86 2379.06,811.87 2379.05,808.92 C2379.07,806.00 2380.49,800.33 2381.88,797.76 C2383.31,795.20 2387.63,790.53 2390.00,788.78 C2392.28,787.13 2398.26,784.96 2400.67,784.99 C2403.47,785.09 2408.52,787.71 2410.84,790.45 C2413.45,793.61 2416.14,798.83 2417.22,801.54 C2419.50,807.37 2422.08,820.34 2421.50,824.97 C2421.13,827.61 2418.83,832.52 2416.87,833.49 C2415.70,834.03 2413.99,834.07 2413.49,833.53 C2412.28,832.09 2411.21,826.99 2410.97,822.53 C2410.81,819.26 2411.33,811.94 2411.83,809.08 C2413.12,802.01 2415.48,800.03 2416.56,799.46 C2417.70,799.97 2418.34,800.63 2418.78,801.97 C2419.59,804.50 2420.59,811.34 2420.61,814.71 C2420.61,818.02 2419.76,822.70 2418.37,826.16 C2416.99,829.54 2414.59,832.71 2414.15,832.95 C2413.94,833.05 2413.52,833.13 2412.90,833.17" fill="none" stroke="rgb(65, 65, 65)" stroke-width="26.00" stroke-opacity="1.00" stroke-linejoin="round"/>
<path d="M2379.22,837.17 C2377.60,837.86 2376.78,839.37 2376.06,843.66 C2373.84,859.45 2372.37,891.99 2371.52,898.72 C2371.05,902.33 2369.86,909.27 2369.37,912.06 C2369.37,912.06 2371.17,910.27 2371.17,910.27" fill="none" stroke="rgb(65, 65, 65)" stroke-width="26.00" stroke-opacity="1.00" stroke-linejoin="round"/>
<path d="M2374.40,861.01 C2372.83,863.91 2371.45,869.93 2370.62,873.49 C2368.54,883.09 2367.67,888.93 2366.77,899.62 C2364.75,926.19 2364.48,939.31 2364.62,943.31 C2364.76,947.08 2365.21,951.11 2365.64,952.98" fill="none" stroke="rgb(65, 65, 65)" stroke-width="26.00" stroke-opacity="1.00" stroke-linejoin="round"/>
<path d="M2368.63,898.47 C2367.05,902.64 2363.28,917.21 2362.46,923.46 C2361.54,931.10 2358.71,949.87 2358.52,951.89 C2358.27,954.63 2358.92,969.72 2358.48,974.57 C2358.35,976.00 2357.11,981.32 2356.57,985.92 C2356.57,985.92 2358.26,982.35 2358.26,982.35" fill="none" stroke="rgb(65, 65, 65)" stroke-width="26.00" stroke-opacity="1.00" stroke-linejoin="round"/>
<path d="M2421.76,842.42 C2422.87,845.23 2423.37,847.36 2423.61,848.62 C2423.81,849.28 2426.46,854.82 2427.09,858.49 C2427.78,862.53 2430.43,874.34 2431.51,883.79 C2433.60,906.26 2435.11,916.80 2435.27,917.38 C2437.24,924.65 2440.47,936.91 2441.20,942.37 C2441.59,946.57 2442.73,956.90 2443.47,963.04 C2444.07,967.51 2447.70,990.03 2448.30,992.77 C2448.30,992.77 2447.88,994.30 2447.88,994.30" fill="none" stroke="rgb(65, 65, 65)" stroke-width="26.00" stroke-opacity="1.00" stroke-linejoin="round"/>
<path d="M2392.16,846.58 C2389.63,856.15 2388.18,863.99 2388.19,872.45 C2388.25,876.96 2386.59,892.52 2385.71,900.54 C2385.03,907.91 2381.77,924.39 2381.30,927.62 C2380.39,933.89 2377.30,971.49 2377.29,975.97 C2377.17,985.54 2376.96,988.08 2376.68,990.47 C2377.02,988.67 2378.92,985.72 2379.51,984.79 C2379.65,984.59 2379.81,984.36 2379.99,984.10" fill="none" stroke="rgb(65, 65, 65)" stroke-width="26.00" stroke-opacity="1.00" stroke-linejoin="round"/>
<path d="M2400.76,848.18 C2400.23,850.41 2399.82,852.78 2399.21,857.19 C2398.25,865.01 2396.39,882.81 2395.51,891.55 C2394.30,904.25 2393.75,911.71 2393.88,920.55 C2394.04,927.52 2395.21,940.42 2394.94,945.17 C2394.38,954.88 2395.71,965.36 2396.54,970.72 C2397.74,990.11 2398.71,994.29 2398.96,994.41 C2399.33,992.64 2400.00,989.32 2400.29,987.77 C2400.45,986.93 2400.61,986.10 2400.76,985.26" fill="none" stroke="rgb(65, 65, 65)" stroke-width="26.00" stroke-opacity="1.00" stroke-linejoin="round"/>
<path d="M2410.99,856.05 C2409.11,857.98 2408.29,859.26 2408.06,860.91 C2407.22,867.42 2407.89,880.53 2408.27,887.66 C2408.53,895.72 2409.06,914.82 2409.23,918.09 C2409.74,925.52 2409.82,932.39 2409.02,940.44 C2408.45,947.07 2409.57,961.67 2409.65,965.13 C2409.70,971.01 2409.78,978.23 2411.72,991.34 C2412.11,993.91 2411.89,996.65 2412.24,996.20 C2412.51,995.77 2413.22,993.01 2413.19,992.70" fill="none" stroke="rgb(65, 65, 65)" stroke-width="26.00" stroke-opacity="1.00" stroke-linejoin="round"/>
<path d="M2419.59,881.05 C2419.73,883.50 2419.81,890.12 2419.84,892.88 C2419.94,910.50 2422.84,939.35 2423.91,952.25 C2424.66,959.40 2427.00,971.19 2427.90,978.03 C2429.02,986.69 2428.96,995.83 2428.43,998.31 C2428.43,998.31 2428.71,995.90 2428.71,995.90" fill="none" stroke="rgb(65, 65, 65)" stroke-width="26.00" stroke-opacity="1.00" stroke-linejoin="round"/>
<path d="M2352.24,991.90 C2354.64,992.91 2356.02,993.19 2357.89,992.92 C2360.50,992.55 2378.17,994.11 2379.28,994.12 C2382.37,994.16 2395.29,994.11 2395.86,994.15 C2396.33,994.19 2400.37,994.88 2401.19,994.92 C2402.27,994.98 2405.60,994.63 2406.17,994.74 C2407.41,994.97 2411.62,996.29 2413.71,996.49 C2423.07,997.37 2433.40,997.55 2434.20,997.43 C2435.29,997.28 2436.31,996.72 2437.40,996.71 C2438.04,996.69 2439.73,997.67 2441.04,997.73 C2441.52,997.75 2444.26,997.73 2445.25,997.73 C2445.25,997.73 2444.86,997.98 2444.86,997.98" fill="none" stroke="rgb(65, 65, 65)" stroke-width="26.00" stroke-opacity="1.00" stroke-linejoin="round"/>
</g>
<g stroke-linecap="round" transform="translate(-2339.00, -750.00)" id="Layer_78">
<path d="M2349.96,795.59 C2349.69,796.69 2348.48,803.29 2347.79,807.08 C2347.09,811.21 2347.30,814.98 2348.46,818.20 C2349.49,820.96 2353.09,825.96 2354.76,827.67 C2358.82,831.75 2371.37,839.90 2377.09,842.71 C2379.62,843.93 2384.71,845.96 2388.72,846.63 C2391.83,847.13 2410.41,848.62 2415.40,847.88 C2419.01,847.28 2423.66,845.53 2428.80,843.10 C2433.68,840.70 2437.45,838.58 2438.92,837.11 C2441.32,834.64 2443.82,831.03 2444.94,828.21 C2445.72,826.19 2447.38,819.62 2447.71,815.78 C2448.22,809.36 2447.58,794.01 2446.27,788.35 C2445.37,784.56 2442.43,777.05 2440.69,774.15 C2438.81,771.11 2434.40,767.18 2430.92,765.04 C2425.03,761.48 2416.81,758.52 2415.73,758.13" fill="none" stroke="rgb(0, 0, 0)" stroke-width="6.00" stroke-opacity="1.00" stroke-linejoin="round"/>
<path d="M2383.69,753.95 C2378.78,756.06 2373.94,758.54 2370.16,761.12 C2367.15,763.20 2361.79,767.65 2360.22,769.24 C2358.33,771.16 2355.94,774.50 2353.42,778.20" fill="none" stroke="rgb(0, 0, 0)" stroke-width="6.00" stroke-opacity="1.00" stroke-linejoin="round"/>
<path d="M2352.96,779.07 C2352.96,779.07 2352.17,780.74 2352.17,780.74" fill="none" stroke="rgb(0, 0, 0)" stroke-width="6.00" stroke-opacity="1.00" stroke-linejoin="round"/>
<path d="M2351.46,782.48 C2349.88,786.25 2348.31,802.64 2349.18,809.54 C2349.67,813.27 2351.27,820.19 2352.71,821.95 C2353.40,822.80 2355.27,824.34 2356.59,825.32" fill="none" stroke="rgb(0, 0, 0)" stroke-width="6.00" stroke-opacity="1.00" stroke-linejoin="round"/>
<path d="M2369.19,844.60 C2365.57,851.50 2362.53,859.87 2359.15,871.84 C2356.50,881.49 2355.36,887.67 2354.05,897.02 C2351.76,913.40 2347.06,947.34 2344.65,964.90 C2343.31,974.98 2342.37,985.22 2342.51,989.07" fill="none" stroke="rgb(0, 0, 0)" stroke-width="6.00" stroke-opacity="1.00" stroke-linejoin="round"/>
<path d="M2435.01,842.70 C2437.08,863.45 2447.58,934.02 2452.26,966.01 C2452.64,968.74 2453.51,974.93 2453.88,977.15 C2454.68,981.37 2455.04,982.14 2455.82,983.09 C2455.82,983.09 2456.09,981.23 2456.09,981.23" fill="none" stroke="rgb(0, 0, 0)" stroke-width="6.00" stroke-opacity="1.00" stroke-linejoin="round"/>
<path d="M2454.44,967.80 C2454.44,967.80 2456.15,994.03 2456.15,994.03 C2456.45,993.65 2456.67,993.30 2456.80,992.97 C2456.92,992.65 2457.14,991.89 2457.45,990.70" fill="none" stroke="rgb(0, 0, 0)" stroke-width="6.00" stroke-opacity="1.00" stroke-linejoin="round"/>
<path d="M2367.71,838.86 C2365.34,846.46 2362.34,858.07 2361.21,864.38 C2360.75,867.01 2360.03,872.65 2360.13,874.37 C2360.15,874.65 2360.22,874.92 2360.34,875.19" fill="none" stroke="rgb(0, 0, 0)" stroke-width="6.00" stroke-opacity="1.00" stroke-linejoin="round"/>
<path d="M2442.48,774.26 C2442.48,774.26 2441.36,774.50 2441.36,774.50 C2439.02,771.78 2434.56,767.44 2433.78,766.77 C2430.97,764.36 2419.60,758.53 2413.24,756.38 C2406.62,754.20 2395.20,752.51 2390.75,752.37 C2385.51,752.24 2377.34,755.31 2376.12,755.79 C2375.78,755.93 2375.25,756.15 2374.52,756.46" fill="none" stroke="rgb(0, 0, 0)" stroke-width="6.00" stroke-opacity="1.00" stroke-linejoin="round"/>
<path d="M2383.15,753.70 C2383.15,753.70 2383.24,754.20 2383.24,754.20 C2383.61,754.87 2387.26,754.83 2393.25,754.18 C2397.79,753.70 2403.07,753.86 2406.11,754.77 C2408.41,755.48 2413.82,756.52 2414.95,757.44 C2415.12,757.58 2415.27,757.79 2415.42,758.07" fill="none" stroke="rgb(0, 0, 0)" stroke-width="6.00" stroke-opacity="1.00" stroke-linejoin="round"/>
<path d="M2425.30,761.08 C2426.40,762.65 2427.15,763.66 2427.55,764.14 C2427.94,764.59 2428.59,765.20 2429.52,765.97 C2429.70,766.13 2429.81,766.23 2429.84,766.26" fill="none" stroke="rgb(0, 0, 0)" stroke-width="6.00" stroke-opacity="1.00" stroke-linejoin="round"/>
</g>
</svg>
