<?xml version="1.0" encoding="UTF-8" standalone="no"?>
<!DOCTYPE svg PUBLIC "-//W3C//DTD SVG 1.1//EN" "http://www.w3.org/Graphics/SVG/1.1/DTD/svg11.dtd">
<svg width="26.40" height="45.12" viewBox="0.00 0.00 110.00 188.00" xmlns="http://www.w3.org/2000/svg" xmlns:xlink="http://www.w3.org/1999/xlink">
<g stroke-linecap="round" transform="translate(-1926.00, -823.00)" id="Layer_79_Copy">
<path d="M1975.22,837.42 C1974.62,838.33 1973.61,838.84 1970.28,839.86 C1969.55,840.09 1960.88,843.22 1959.60,844.09 C1957.29,845.78 1954.38,847.93 1949.56,852.24 C1946.65,854.93 1945.32,857.30 1943.82,861.43 C1943.72,861.74 1943.67,861.94 1943.68,862.05" fill="none" stroke="rgb(65, 65, 65)" stroke-width="26.00" stroke-opacity="1.00" stroke-linejoin="round"/>
<path d="M1947.87,852.22 C1946.01,852.78 1945.53,853.35 1945.37,853.56 C1944.60,854.60 1941.92,857.58 1941.49,858.56 C1940.41,861.02 1939.69,868.03 1939.46,870.99 C1939.27,873.47 1941.62,880.96 1942.21,881.95 C1943.15,883.50 1946.00,886.60 1950.11,889.83 C1955.13,893.78 1959.91,897.67 1961.32,898.27 C1960.17,896.81 1959.40,895.82 1958.99,895.32 C1958.58,894.82 1957.98,894.11 1957.17,893.17" fill="none" stroke="rgb(65, 65, 65)" stroke-width="26.00" stroke-opacity="1.00" stroke-linejoin="round"/>
<path d="M1951.62,889.16 C1951.62,889.16 1948.86,889.24 1948.86,889.24 C1950.55,892.08 1954.76,896.81 1956.42,898.31 C1958.38,900.08 1964.02,904.09 1965.39,905.82 C1965.74,906.27 1966.25,907.11 1966.93,908.33 C1966.93,908.33 1967.28,905.78 1967.28,905.78 C1966.44,904.75 1963.35,899.52 1962.77,897.45 C1961.17,891.52 1958.93,875.09 1959.22,868.95 C1959.39,865.74 1960.00,861.68 1960.72,859.61 C1962.43,854.81 1968.27,846.81 1969.34,846.20 C1970.67,845.47 1973.72,844.79 1974.50,845.00 C1976.37,845.60 1977.93,847.95 1978.08,850.21 C1978.20,852.69 1975.65,860.99 1973.79,863.58 C1972.55,865.25 1970.34,867.05 1968.93,867.56 C1967.67,867.96 1965.84,867.59 1965.15,866.75 C1963.91,865.11 1963.49,857.04 1964.45,854.11 C1965.41,851.33 1969.31,846.72 1971.63,845.20 C1972.92,844.37 1975.92,843.17 1977.72,842.70 C1978.14,842.60 1978.48,842.58 1978.75,842.63" fill="none" stroke="rgb(65, 65, 65)" stroke-width="26.00" stroke-opacity="1.00" stroke-linejoin="round"/>
<path d="M1978.05,838.08 C1979.63,838.60 1981.50,839.95 1982.28,840.23 C1983.19,840.55 1988.73,840.57 1989.10,840.63 C1992.44,841.19 2002.50,851.02 2002.87,851.49 C2002.87,851.49 2000.81,851.19 2000.81,851.19" fill="none" stroke="rgb(65, 65, 65)" stroke-width="26.00" stroke-opacity="1.00" stroke-linejoin="round"/>
<path d="M1980.44,838.66 C1980.44,838.66 1981.38,837.09 1981.38,837.09 C1983.13,836.68 1991.28,837.65 1992.08,838.19 C1993.04,838.84 1995.31,841.07 1996.12,841.17 C1996.51,841.22 1997.48,841.22 1997.67,841.36" fill="none" stroke="rgb(65, 65, 65)" stroke-width="26.00" stroke-opacity="1.00" stroke-linejoin="round"/>
<path d="M1993.93,840.41 C1996.41,841.06 2008.62,849.03 2009.93,851.96 C2010.73,853.88 2010.08,856.16 2009.67,856.62" fill="none" stroke="rgb(65, 65, 65)" stroke-width="26.00" stroke-opacity="1.00" stroke-linejoin="round"/>
<path d="M2004.23,847.33 C2005.89,847.78 2008.32,848.61 2009.26,849.23 C2010.63,850.14 2014.60,856.53 2016.13,859.01 C2018.02,862.07 2018.82,865.49 2018.09,867.81 C2017.80,868.68 2017.29,869.86 2016.54,871.35 C2016.50,871.43 2016.33,871.62 2016.34,871.53" fill="none" stroke="rgb(65, 65, 65)" stroke-width="26.00" stroke-opacity="1.00" stroke-linejoin="round"/>
<path d="M2016.43,859.50 C2017.25,859.68 2017.71,860.33 2018.06,862.16 C2018.54,864.72 2019.49,873.47 2019.23,874.26 C2018.92,875.14 2017.44,877.68 2017.41,877.65 C2017.41,877.65 2019.67,860.60 2019.67,860.60 C2019.57,860.64 2019.19,860.65 2019.06,860.52 C2018.85,860.32 2020.55,867.77 2020.74,869.20 C2021.09,872.16 2020.65,876.42 2019.74,878.52 C2017.45,883.68 2012.85,891.07 2012.87,891.02 C2012.87,891.02 2016.86,884.39 2016.86,884.39 C2017.03,884.57 2013.37,890.73 2011.82,892.30 C2011.79,892.33 2004.66,897.57 2002.35,899.77 C2002.35,899.77 2009.87,893.32 2009.87,893.32 C2009.56,894.54 2005.79,898.19 2003.66,899.44 C1998.60,902.32 1993.25,903.55 1990.44,904.03 C1994.14,900.33 2000.93,896.61 2003.13,895.65 C2002.76,897.11 1999.13,900.70 1996.28,902.29 C1990.44,905.48 1979.44,907.44 1978.09,907.09 C1977.29,906.85 1976.50,905.76 1976.47,904.83 C1976.48,902.87 1979.75,896.25 1981.51,893.74 C1983.89,890.38 1987.02,887.06 1989.28,885.63 C1992.05,883.95 1994.93,883.02 1996.99,883.95 C1997.95,885.98 1997.40,890.10 1996.14,893.25 C1995.77,894.15 1990.85,905.29 1990.37,906.25 C1988.79,909.33 1985.48,912.97 1983.53,913.51 C1981.92,913.90 1980.13,913.30 1979.28,912.08 C1978.61,911.05 1977.69,904.64 1977.68,900.86 C1977.70,896.96 1978.73,890.01 1979.82,886.65 C1980.87,883.47 1983.82,877.88 1985.77,875.28 C1987.67,872.79 1991.96,868.72 1993.77,867.56 C1997.12,865.46 1998.77,865.67 1999.80,866.06 C2000.45,868.85 1999.34,874.14 1998.16,877.09 C1995.84,882.75 1989.72,890.83 1988.09,892.12 C1987.11,892.88 1985.61,893.25 1984.17,893.32 C1982.84,892.23 1982.91,886.98 1983.60,882.61 C1984.87,874.88 1987.36,866.01 1988.88,864.35 C1989.59,863.61 1992.66,861.41 1993.53,861.11 C1995.10,860.60 1997.90,860.99 1999.45,861.84 C2000.98,862.75 2002.87,867.61 2002.70,871.13 C2002.49,874.50 2000.23,881.14 1998.07,885.52 C1995.88,889.89 1992.56,895.49 1991.14,897.22 C1989.90,898.68 1987.64,900.64 1986.31,901.30 C1984.71,902.04 1982.14,902.28 1981.25,901.63 C1980.46,901.00 1979.18,898.13 1978.84,896.60 C1978.70,895.90 1978.47,893.79 1978.46,893.68" fill="none" stroke="rgb(65, 65, 65)" stroke-width="26.00" stroke-opacity="1.00" stroke-linejoin="round"/>
<path d="M1965.37,915.69 C1963.30,920.94 1962.12,932.85 1962.06,942.44 C1962.22,954.43 1961.69,964.15 1961.03,966.38 C1960.90,966.79 1960.68,967.19 1960.37,967.58" fill="none" stroke="rgb(65, 65, 65)" stroke-width="26.00" stroke-opacity="1.00" stroke-linejoin="round"/>
<path d="M1963.71,930.05 C1960.86,935.31 1958.34,943.69 1957.46,949.76 C1954.73,969.22 1955.41,977.94 1955.74,979.28" fill="none" stroke="rgb(65, 65, 65)" stroke-width="26.00" stroke-opacity="1.00" stroke-linejoin="round"/>
<path d="M1957.46,954.17 C1957.05,956.45 1955.88,980.56 1955.85,982.45 C1955.80,985.68 1956.19,991.45 1956.19,991.49" fill="none" stroke="rgb(65, 65, 65)" stroke-width="26.00" stroke-opacity="1.00" stroke-linejoin="round"/>
<path d="M1993.71,908.11 C1996.16,911.99 1998.33,921.61 1999.87,932.04 C2000.61,937.08 2001.83,943.09 2002.06,945.21 C2002.19,946.39 2002.57,955.37 2002.68,958.58 C2002.77,960.64 2002.53,962.25 2001.88,964.63 C2001.88,964.63 2001.91,960.59 2001.91,960.59" fill="none" stroke="rgb(65, 65, 65)" stroke-width="26.00" stroke-opacity="1.00" stroke-linejoin="round"/>
<path d="M2003.01,946.88 C2006.06,955.57 2009.89,969.71 2010.07,973.41 C2010.14,974.87 2011.24,980.82 2011.29,987.37 C2011.30,988.98 2011.41,994.54 2011.88,997.17 C2011.88,997.17 2012.17,995.49 2012.17,995.49" fill="none" stroke="rgb(65, 65, 65)" stroke-width="26.00" stroke-opacity="1.00" stroke-linejoin="round"/>
<path d="M2005.99,944.99 C2006.54,945.43 2006.81,946.08 2007.22,948.22 C2008.76,955.04 2011.62,968.96 2011.51,971.81" fill="none" stroke="rgb(65, 65, 65)" stroke-width="26.00" stroke-opacity="1.00" stroke-linejoin="round"/>
<path d="M1987.76,914.23 C1986.82,917.64 1985.67,934.66 1985.14,943.08 C1984.26,955.66 1983.19,961.46 1981.95,962.66 C1981.23,962.63 1979.72,957.82 1979.10,954.35 C1978.03,948.27 1976.74,933.01 1977.08,927.75 C1977.62,919.84 1979.26,916.39 1979.69,915.76 C1980.72,918.04 1980.82,925.29 1980.78,927.98 C1980.59,938.40 1976.62,964.95 1976.07,965.72 C1974.80,950.69 1974.93,932.78 1975.66,928.26 C1975.81,930.92 1973.90,954.85 1973.77,959.01 C1973.73,962.33 1973.59,969.87 1973.35,973.47 C1973.09,977.10 1968.81,991.24 1968.40,993.02" fill="none" stroke="rgb(65, 65, 65)" stroke-width="26.00" stroke-opacity="1.00" stroke-linejoin="round"/>
<path d="M1954.74,991.34 C1955.84,992.97 1957.11,993.98 1959.03,994.36 C1961.51,994.85 1982.83,995.68 1986.03,996.59 C1989.19,997.48 1992.41,997.69 1995.70,997.21 C1999.21,996.69 2003.52,998.29 2003.99,997.90 C2003.99,997.90 2005.07,996.30 2005.07,996.30" fill="none" stroke="rgb(65, 65, 65)" stroke-width="26.00" stroke-opacity="1.00" stroke-linejoin="round"/>
<path d="M2002.43,993.89 C2000.36,993.84 1998.89,993.31 1997.50,992.00 C1996.00,990.56 1992.71,985.85 1991.14,982.63 C1989.81,979.87 1988.10,974.57 1987.76,972.10 C1987.18,967.36 1987.75,965.90 1989.04,964.52 C1990.44,964.96 1992.98,969.18 1993.60,971.77 C1994.62,976.28 1994.24,982.29 1992.96,984.27 C1992.79,984.52 1992.41,984.99 1991.82,985.69 C1991.82,985.69 1990.66,985.76 1990.66,985.76 C1988.91,983.81 1986.75,973.95 1986.65,973.19 C1986.59,972.66 1986.49,971.47 1986.36,969.62" fill="none" stroke="rgb(65, 65, 65)" stroke-width="26.00" stroke-opacity="1.00" stroke-linejoin="round"/>
</g>
<g stroke-linecap="round" transform="translate(-1977.00, -829.00)" id="Layer_76">
<path d="M2023.86,832.50 C2022.14,832.33 2018.27,833.06 2012.38,834.77 C2007.68,836.19 2005.16,837.44 2001.91,840.10 C1993.21,847.42 1985.56,854.80 1982.35,860.61 C1981.07,863.00 1980.39,867.54 1980.15,870.67 C1979.99,873.12 1980.87,877.90 1982.29,883.47 C1983.81,889.11 1985.44,894.02 1987.15,897.16 C1989.30,900.97 1991.82,904.97 1994.00,907.38 C1996.40,910.00 2001.02,913.77 2004.43,915.90 C2007.41,917.74 2014.10,920.93 2016.86,921.94 C2019.96,923.06 2026.13,924.44 2029.25,924.51 C2035.04,924.58 2047.44,921.47 2053.39,918.91 C2057.41,917.15 2063.77,913.65 2066.14,911.90 C2068.65,910.00 2072.63,905.73 2074.46,902.95 C2076.36,900.01 2079.19,894.13 2080.31,890.79 C2081.37,887.53 2082.90,880.04 2083.14,876.53 C2083.37,872.60 2082.34,865.17 2081.10,862.01 C2079.87,859.01 2075.67,853.05 2072.09,850.03 C2068.94,847.42 2053.84,837.66 2048.74,835.22 C2045.50,833.70 2040.02,831.81 2037.61,831.46 C2034.75,831.07 2028.20,831.36 2024.04,831.78 C2022.03,831.99 2018.57,832.64 2016.21,833.24 C2015.55,833.41 2014.63,833.68 2013.44,834.06" fill="none" stroke="rgb(0, 0, 0)" stroke-width="6.00" stroke-opacity="1.00" stroke-linejoin="round"/>
<path d="M2005.03,927.49 C2001.33,937.32 1999.05,945.29 1997.75,954.31 C1996.63,962.67 1995.65,995.93 1996.11,1000.02 C1996.11,1000.02 1996.78,999.01 1996.78,999.01" fill="none" stroke="rgb(0, 0, 0)" stroke-width="6.00" stroke-opacity="1.00" stroke-linejoin="round"/>
<path d="M2061.84,922.19 C2062.25,925.20 2065.22,937.94 2067.28,949.90 C2072.25,979.52 2073.52,985.79 2075.07,988.34 C2075.07,988.34 2075.66,985.66 2075.66,985.66" fill="none" stroke="rgb(0, 0, 0)" stroke-width="6.00" stroke-opacity="1.00" stroke-linejoin="round"/>
<path d="M2070.66,966.91 C2070.66,966.91 2074.86,992.35 2074.86,992.35 C2074.86,992.35 2075.13,991.27 2075.13,991.27" fill="none" stroke="rgb(0, 0, 0)" stroke-width="6.00" stroke-opacity="1.00" stroke-linejoin="round"/>
<path d="M2073.71,974.30 C2073.31,976.58 2073.39,982.44 2073.88,989.13 C2074.50,996.06 2075.33,999.99 2075.25,1000.44 C2075.25,1000.44 2075.86,998.08 2075.86,998.08" fill="none" stroke="rgb(0, 0, 0)" stroke-width="6.00" stroke-opacity="1.00" stroke-linejoin="round"/>
<path d="M2009.07,918.25 C2009.07,918.25 2002.43,937.91 2002.43,937.91 C2002.43,937.91 2004.12,938.47 2004.12,938.47" fill="none" stroke="rgb(0, 0, 0)" stroke-width="6.00" stroke-opacity="1.00" stroke-linejoin="round"/>
<path d="M2060.22,917.02 C2061.49,924.24 2065.07,940.95 2065.49,942.07 C2065.65,942.47 2066.03,943.29 2066.65,944.54" fill="none" stroke="rgb(0, 0, 0)" stroke-width="6.00" stroke-opacity="1.00" stroke-linejoin="round"/>
</g>
</svg>
