<?xml version="1.0" encoding="UTF-8" standalone="no"?>
<!DOCTYPE svg PUBLIC "-//W3C//DTD SVG 1.1//EN" "http://www.w3.org/Graphics/SVG/1.1/DTD/svg11.dtd">
<svg width="35.28" height="51.84" viewBox="0.00 0.00 147.00 216.00" xmlns="http://www.w3.org/2000/svg" xmlns:xlink="http://www.w3.org/1999/xlink">
<g stroke-linecap="round" transform="translate(-1672.00, -786.00)" id="Layer_79">
<path d="M1717.17,858.47 C1717.17,858.47 1716.64,859.93 1716.64,859.93 C1715.61,854.35 1714.98,849.99 1715.22,848.00 C1715.56,845.49 1717.38,841.15 1718.51,840.05 C1719.96,838.74 1722.91,837.77 1724.66,838.33 C1726.21,838.87 1728.75,840.97 1729.37,842.11 C1730.61,844.64 1731.09,851.39 1729.99,854.56 C1729.38,856.20 1727.41,859.41 1726.24,860.62 C1725.04,861.83 1722.16,863.59 1720.83,863.94 C1719.57,864.22 1717.14,863.81 1716.22,863.14 C1714.13,861.50 1711.88,855.23 1711.75,852.17 C1711.68,849.68 1712.25,845.38 1713.19,843.43 C1713.74,842.36 1715.64,839.85 1716.69,838.86 C1717.96,837.70 1720.70,836.26 1722.30,835.91 C1723.87,835.62 1727.13,835.86 1728.57,836.38 C1729.99,836.93 1732.36,838.81 1733.11,839.95 C1733.78,841.05 1734.39,843.79 1734.30,845.15 C1734.16,846.57 1733.06,849.19 1732.06,850.49 C1730.18,852.83 1724.14,855.85 1720.86,856.78 C1719.87,857.05 1716.14,857.66 1715.40,857.61 C1714.20,857.49 1712.08,856.34 1711.30,855.36 C1709.83,853.34 1709.25,847.28 1709.80,843.76 C1710.26,841.03 1713.55,833.14 1714.60,831.87 C1715.94,830.27 1717.77,829.10 1718.46,829.19" fill="none" stroke="rgb(65, 65, 65)" stroke-width="26.00" stroke-opacity="1.00" stroke-linejoin="round"/>
<path d="M1712.32,844.09 C1710.64,844.20 1709.48,843.98 1708.93,843.20 C1707.76,841.43 1708.77,835.50 1710.62,831.01 C1712.62,826.28 1719.64,815.33 1723.55,811.17 C1725.83,808.77 1730.10,805.57 1731.79,804.81 C1733.24,804.19 1735.38,803.70 1736.35,803.91 C1737.70,804.24 1740.05,805.83 1741.18,807.16 C1741.62,807.68 1742.73,809.68 1743.27,810.64" fill="none" stroke="rgb(65, 65, 65)" stroke-width="26.00" stroke-opacity="1.00" stroke-linejoin="round"/>
<path d="M1719.28,821.90 C1719.28,821.90 1715.73,821.93 1715.73,821.93 C1718.08,817.34 1725.18,810.04 1726.44,809.11 C1726.42,809.37 1724.31,810.59 1722.70,811.50 C1721.38,812.34 1715.44,820.14 1714.54,821.95 C1713.58,823.97 1711.90,830.81 1711.87,833.82 C1711.87,835.59 1712.26,837.98 1712.79,839.61 C1713.24,840.97 1713.79,842.06 1714.36,842.90" fill="none" stroke="rgb(65, 65, 65)" stroke-width="26.00" stroke-opacity="1.00" stroke-linejoin="round"/>
<path d="M1718.67,816.20 C1715.05,818.63 1712.80,821.26 1711.46,823.65 C1710.10,826.12 1708.93,829.51 1708.42,832.62 C1707.86,836.16 1707.81,842.61 1708.42,845.36 C1708.73,846.66 1709.72,848.87 1710.42,849.82 C1710.93,850.51 1712.22,850.93 1714.31,851.38" fill="none" stroke="rgb(65, 65, 65)" stroke-width="26.00" stroke-opacity="1.00" stroke-linejoin="round"/>
<path d="M1715.73,821.90 C1713.93,822.08 1710.72,823.49 1709.50,825.44 C1708.29,827.47 1707.05,832.83 1706.73,835.62 C1706.04,841.99 1707.04,856.25 1708.32,861.85 C1708.93,864.42 1710.90,868.31 1712.64,869.07 C1713.58,869.46 1715.37,869.17 1716.47,868.64 C1716.65,868.54 1716.83,868.42 1717.00,868.28" fill="none" stroke="rgb(65, 65, 65)" stroke-width="26.00" stroke-opacity="1.00" stroke-linejoin="round"/>
<path d="M1708.21,835.28 C1705.62,837.24 1703.61,840.86 1703.04,843.26 C1702.50,845.68 1702.98,850.00 1704.08,853.03 C1705.68,857.27 1708.27,861.59 1710.95,863.84 C1712.03,864.73 1714.64,866.56 1715.70,867.28 C1715.96,867.47 1716.31,867.73 1716.74,868.08" fill="none" stroke="rgb(65, 65, 65)" stroke-width="26.00" stroke-opacity="1.00" stroke-linejoin="round"/>
<path d="M1706.94,845.82 C1706.47,848.08 1706.38,849.57 1706.77,851.24 C1708.08,856.84 1714.39,872.23 1717.59,876.48 C1718.61,877.78 1719.97,879.09 1720.85,879.34 C1722.46,879.74 1725.45,879.23 1726.01,878.25 C1726.20,877.90 1726.37,877.07 1726.50,875.76" fill="none" stroke="rgb(65, 65, 65)" stroke-width="26.00" stroke-opacity="1.00" stroke-linejoin="round"/>
<path d="M1712.59,865.82 C1712.80,868.00 1716.68,872.96 1718.22,874.97 C1720.03,877.19 1723.70,880.82 1724.92,881.66 C1733.15,887.18 1737.70,886.78 1738.43,886.30 C1738.43,886.30 1737.86,884.38 1737.86,884.38" fill="none" stroke="rgb(65, 65, 65)" stroke-width="26.00" stroke-opacity="1.00" stroke-linejoin="round"/>
<path d="M1724.06,876.23 C1725.00,878.18 1725.67,879.23 1726.58,879.83 C1728.61,881.17 1737.80,885.73 1738.19,885.97 C1738.54,886.17 1739.10,886.54 1739.88,887.09" fill="none" stroke="rgb(65, 65, 65)" stroke-width="26.00" stroke-opacity="1.00" stroke-linejoin="round"/>
<path d="M1741.67,887.36 C1738.87,890.50 1736.11,893.51 1733.52,896.06 C1727.73,901.71 1719.41,911.06 1715.50,917.17 C1710.07,925.71 1709.38,929.70 1709.55,929.99" fill="none" stroke="rgb(65, 65, 65)" stroke-width="26.00" stroke-opacity="1.00" stroke-linejoin="round"/>
<path d="M1731.98,900.87 C1727.59,905.74 1719.18,915.23 1715.92,919.92 C1712.71,924.56 1705.51,937.29 1703.47,942.02 C1701.51,946.56 1695.10,964.07 1694.63,968.35 C1694.44,970.31 1694.60,973.65 1694.99,974.78 C1695.12,975.12 1695.42,975.79 1695.91,976.80" fill="none" stroke="rgb(65, 65, 65)" stroke-width="26.00" stroke-opacity="1.00" stroke-linejoin="round"/>
<path d="M1707.71,930.55 C1705.49,932.81 1703.12,936.34 1701.00,940.73 C1700.12,942.57 1696.04,950.38 1694.87,953.53 C1692.85,959.07 1691.41,962.70 1690.98,965.90 C1690.67,968.25 1689.74,970.85 1689.00,974.68 C1688.87,975.32 1688.37,977.13 1688.28,979.12 C1688.28,979.12 1686.52,983.42 1686.52,983.42 C1686.52,983.42 1687.69,982.69 1687.69,982.69" fill="none" stroke="rgb(65, 65, 65)" stroke-width="26.00" stroke-opacity="1.00" stroke-linejoin="round"/>
<path d="M1736.89,802.55 C1739.90,802.65 1742.43,802.56 1743.98,802.12 C1745.76,801.56 1749.22,800.56 1750.43,800.63 C1751.58,800.72 1757.09,803.76 1757.08,803.75" fill="none" stroke="rgb(65, 65, 65)" stroke-width="26.00" stroke-opacity="1.00" stroke-linejoin="round"/>
<path d="M1734.15,800.96 C1733.94,800.27 1734.65,799.66 1736.61,799.21 C1738.18,798.86 1741.96,798.44 1743.27,798.51 C1744.05,798.55 1749.11,799.30 1749.87,799.17 C1750.33,799.10 1751.04,798.77 1752.00,798.18" fill="none" stroke="rgb(65, 65, 65)" stroke-width="26.00" stroke-opacity="1.00" stroke-linejoin="round"/>
<path d="M1752.33,799.31 C1754.22,801.09 1755.94,802.56 1756.84,803.02 C1757.80,803.50 1764.82,805.63 1767.24,806.89 C1768.27,807.43 1772.54,810.85 1772.94,811.10 C1773.73,811.63 1777.21,813.43 1777.68,813.89 C1778.86,815.10 1783.83,825.76 1783.85,825.64 C1783.85,825.64 1783.85,824.68 1783.85,824.68" fill="none" stroke="rgb(65, 65, 65)" stroke-width="26.00" stroke-opacity="1.00" stroke-linejoin="round"/>
<path d="M1781.01,815.47 C1783.81,817.56 1786.26,820.31 1788.21,823.89 C1790.33,827.85 1792.98,831.91 1793.61,833.32 C1794.71,835.86 1795.36,841.25 1795.16,844.62 C1795.13,845.11 1794.57,852.83 1794.21,854.10 C1793.72,855.34 1792.51,859.92 1791.64,861.65 C1790.86,863.17 1788.88,866.01 1787.04,867.69 C1785.14,869.43 1783.05,873.13 1781.61,874.50 C1779.37,876.57 1774.72,878.88 1771.71,880.75 C1766.40,884.02 1764.33,885.08 1760.69,885.40 C1760.16,885.44 1757.03,886.41 1756.27,886.46 C1755.06,886.55 1752.36,886.66 1749.87,888.02 C1748.76,888.64 1747.43,888.75 1746.18,888.55 C1745.79,887.94 1745.89,886.42 1746.75,884.97 C1747.66,883.47 1750.03,880.98 1751.18,880.30 C1752.53,879.55 1754.78,878.91 1756.02,878.94 C1757.21,879.01 1759.22,879.89 1759.92,880.63 C1760.52,881.32 1761.14,883.15 1761.15,884.18 C1761.13,885.29 1760.45,887.19 1759.70,888.15 C1758.12,890.09 1753.17,892.07 1750.17,892.19 C1748.61,892.21 1746.45,891.66 1745.36,890.84 C1743.29,889.20 1740.78,884.29 1740.13,882.04 C1738.99,878.03 1739.21,866.88 1740.70,860.46 C1742.31,853.67 1746.07,844.66 1747.62,842.47 C1748.28,841.56 1749.71,840.84 1750.49,840.78 C1751.29,840.79 1752.25,843.41 1752.51,846.28 C1752.77,849.35 1752.16,855.07 1751.31,857.38 C1750.55,859.34 1747.69,863.77 1745.51,865.13 C1743.66,866.24 1738.18,868.33 1735.85,868.21 C1734.05,868.07 1731.76,866.73 1730.34,865.00 C1729.13,863.46 1726.73,856.93 1726.33,853.80 C1725.99,850.92 1726.51,844.39 1727.25,840.91 C1728.01,837.43 1730.19,831.30 1731.58,828.72 C1733.02,826.13 1736.22,822.76 1738.71,822.23 C1740.64,821.87 1742.94,822.60 1744.36,824.02 C1745.69,825.42 1747.82,831.84 1748.00,835.32 C1748.12,838.29 1746.78,843.97 1745.45,847.04 C1743.91,850.47 1740.47,855.70 1738.21,856.81 C1736.75,857.47 1733.69,858.05 1732.85,857.51 C1731.82,856.80 1730.62,854.04 1730.34,852.18 C1729.85,848.37 1730.07,841.84 1730.94,838.72 C1731.76,835.87 1734.72,829.99 1736.46,827.59 C1738.23,825.18 1742.13,821.85 1744.26,820.87 C1746.34,819.95 1750.52,819.36 1752.55,819.86 C1754.71,820.43 1758.81,823.44 1760.64,825.87 C1762.50,828.39 1765.47,834.87 1766.31,838.40 C1767.09,841.85 1767.31,848.27 1766.86,851.25 C1766.48,853.66 1764.90,858.16 1763.71,859.60 C1763.17,860.23 1761.13,861.49 1760.37,861.68 C1759.45,861.86 1757.87,861.02 1757.38,859.93 C1756.44,857.73 1755.86,849.93 1755.96,847.36 C1756.09,844.38 1757.64,839.03 1759.13,836.71 C1759.88,835.59 1762.51,833.93 1764.18,833.39 C1766.01,832.85 1771.95,833.77 1773.17,834.79 C1774.53,835.98 1776.13,838.32 1776.61,839.83 C1777.48,842.77 1777.51,848.00 1776.78,850.86 C1775.42,855.95 1770.93,864.41 1769.26,865.92 C1768.62,866.48 1766.26,866.89 1765.58,866.59 C1764.60,866.09 1763.42,864.33 1763.14,863.09 C1762.64,860.55 1762.96,855.67 1763.98,853.25 C1764.64,851.72 1767.42,847.23 1770.04,844.92 C1771.64,843.55 1777.44,840.97 1778.92,841.68 C1780.10,842.31 1781.45,844.38 1781.81,846.21 C1782.90,852.36 1779.16,857.70 1777.66,859.17 C1776.54,858.81 1775.87,858.12 1775.23,856.44 C1774.80,855.33 1774.55,854.66 1774.47,854.43 C1774.41,854.21 1774.38,854.00 1774.37,853.80" fill="none" stroke="rgb(65, 65, 65)" stroke-width="26.00" stroke-opacity="1.00" stroke-linejoin="round"/>
<path d="M1759.05,899.08 C1759.06,900.63 1759.25,901.58 1760.05,903.50 C1764.72,914.86 1777.59,942.55 1779.02,945.99 C1779.02,945.99 1777.30,942.61 1777.30,942.61" fill="none" stroke="rgb(65, 65, 65)" stroke-width="26.00" stroke-opacity="1.00" stroke-linejoin="round"/>
<path d="M1767.77,920.95 C1769.22,923.38 1771.22,925.59 1774.64,928.47 C1779.52,932.73 1788.68,951.20 1789.50,953.74 C1788.96,952.93 1788.43,952.11 1787.89,951.29 C1787.82,951.18 1787.61,950.86 1787.69,950.96" fill="none" stroke="rgb(65, 65, 65)" stroke-width="26.00" stroke-opacity="1.00" stroke-linejoin="round"/>
<path d="M1771.28,919.36 C1771.27,921.05 1771.73,922.52 1773.04,924.33 C1776.76,929.18 1792.50,949.99 1793.81,952.85 C1795.00,955.50 1799.27,969.85 1799.63,974.01 C1799.79,976.08 1800.09,982.31 1799.96,984.82 C1799.96,984.82 1800.43,986.60 1800.43,986.60 C1800.43,986.60 1800.43,986.60 1800.43,986.60" fill="none" stroke="rgb(65, 65, 65)" stroke-width="26.00" stroke-opacity="1.00" stroke-linejoin="round"/>
<path d="M1802.16,986.01 C1799.93,986.05 1795.47,986.65 1792.26,986.88 C1790.15,987.03 1781.82,987.60 1781.02,987.73 C1776.72,988.72 1770.99,988.36 1767.71,988.16 C1765.08,988.00 1760.48,989.89 1757.51,989.85 C1757.21,989.85 1746.44,989.62 1740.11,989.55 C1737.51,989.70 1733.84,989.84 1729.80,988.83 C1727.08,988.15 1723.33,988.23 1719.91,987.83 C1718.59,987.68 1714.09,988.59 1712.44,988.03 C1709.62,987.06 1698.99,985.81 1697.65,986.01" fill="none" stroke="rgb(65, 65, 65)" stroke-width="26.00" stroke-opacity="1.00" stroke-linejoin="round"/>
<path d="M1701.96,976.00 C1703.91,972.86 1715.27,958.59 1718.88,956.11 C1721.37,954.46 1726.11,953.08 1728.75,953.14 C1730.09,953.20 1732.56,953.93 1733.78,954.67 C1734.59,955.19 1736.43,957.76 1736.86,958.84 C1737.35,960.20 1737.66,963.65 1737.41,965.14 C1737.10,966.73 1735.74,969.42 1734.68,970.57 C1732.87,972.45 1726.78,975.16 1724.81,974.91 C1723.60,974.73 1721.64,973.68 1720.90,972.88 C1719.26,970.98 1716.92,965.36 1716.35,962.46 C1715.34,957.00 1715.61,945.01 1716.82,939.27 C1717.41,936.53 1719.33,930.69 1720.53,928.22 C1721.96,925.37 1725.46,920.34 1727.63,918.43 C1730.04,916.37 1734.90,914.61 1735.69,915.38 C1736.86,916.70 1738.58,921.98 1738.79,925.92 C1739.03,930.90 1736.84,942.01 1734.82,947.96 C1731.23,958.43 1722.27,972.35 1720.43,973.85 C1719.74,974.38 1718.45,974.39 1718.06,974.08 C1716.88,972.93 1715.75,968.03 1715.65,964.59 C1715.47,957.48 1717.23,945.96 1719.33,938.87 C1721.35,932.07 1726.70,919.20 1729.72,913.84 C1731.39,910.91 1735.65,905.45 1737.89,903.55 C1738.97,902.64 1740.03,902.27 1741.64,902.07 C1742.82,902.95 1744.20,906.69 1745.06,911.24 C1745.58,914.11 1745.69,931.26 1745.70,938.81 C1745.59,948.86 1744.94,959.45 1744.12,964.77 C1743.45,968.97 1742.69,970.69 1742.14,971.03 C1740.84,968.13 1740.08,953.61 1740.22,948.80 C1740.42,942.78 1742.77,929.98 1745.06,924.40 C1746.26,921.52 1749.98,915.76 1751.83,915.22 C1752.86,914.95 1755.34,915.53 1756.21,916.14 C1758.15,917.62 1761.02,922.98 1761.74,925.26 C1763.04,929.53 1765.09,949.84 1765.37,955.19 C1765.77,962.87 1765.00,972.71 1764.13,973.49 C1763.59,973.56 1762.98,972.85 1762.01,970.84 C1757.37,960.92 1755.75,956.79 1755.44,953.54 C1755.35,952.31 1755.92,950.17 1756.66,949.30 C1757.81,948.03 1759.94,946.79 1761.40,946.52 C1764.26,946.08 1769.16,946.70 1771.71,947.90 C1774.59,949.33 1778.19,952.80 1778.93,955.29 C1779.62,957.91 1779.54,962.92 1778.61,965.70 C1778.12,967.01 1776.45,969.79 1775.39,970.74 C1774.33,971.65 1770.18,973.50 1768.82,973.82 C1767.82,974.02 1765.42,973.51 1764.40,972.99 C1763.11,972.27 1761.59,970.42 1761.35,969.21 C1761.15,967.94 1762.14,965.76 1763.38,964.48 C1764.58,963.29 1770.15,960.67 1772.38,960.24 C1774.10,959.92 1777.56,959.71 1778.17,960.00 C1778.91,960.42 1779.95,962.42 1780.10,963.75 C1780.24,965.27 1779.63,968.35 1778.88,969.94 C1778.17,971.38 1776.28,973.54 1775.21,974.05 C1773.32,974.88 1768.10,974.49 1765.53,973.82 C1763.10,973.18 1756.88,970.86 1754.82,969.38 C1754.02,968.78 1752.49,966.67 1752.20,965.87 C1751.89,964.84 1752.48,962.93 1753.57,962.39 C1756.07,961.22 1763.44,961.08 1765.95,961.43 C1768.21,961.77 1773.98,963.42 1775.79,964.51 C1776.84,965.17 1777.62,967.43 1777.53,969.11 C1777.36,971.08 1773.24,976.32 1770.65,977.92 C1768.56,979.16 1762.13,980.61 1759.61,980.58 C1756.87,980.53 1751.98,979.24 1749.58,978.04 C1748.50,977.44 1746.63,975.93 1746.18,974.94 C1745.67,973.77 1745.46,970.34 1745.70,969.05 C1746.29,966.30 1749.27,962.13 1751.58,960.10 C1753.65,958.33 1759.13,955.71 1762.02,955.03 C1767.96,953.72 1776.35,955.12 1778.05,955.86 C1778.37,956.01 1779.00,956.34 1779.94,956.86" fill="none" stroke="rgb(65, 65, 65)" stroke-width="26.00" stroke-opacity="1.00" stroke-linejoin="round"/>
</g>
<g stroke-linecap="round" transform="translate(-1707.00, -796.00)" id="Layer_75">
<path d="M1756.82,805.64 C1756.82,805.64 1756.30,805.92 1756.30,805.92 C1752.12,808.60 1748.27,811.22 1745.68,813.57 C1743.06,815.97 1739.06,820.75 1737.18,823.73 C1733.83,829.13 1729.16,841.81 1728.10,848.07 C1727.56,851.42 1726.92,857.86 1727.24,861.41 C1727.50,864.14 1729.18,871.62 1731.12,874.25 C1731.79,875.13 1732.45,875.67 1733.10,875.89 C1733.54,876.02 1734.56,876.13 1736.18,876.22" fill="none" stroke="rgb(0, 0, 0)" stroke-width="6.00" stroke-opacity="1.00" stroke-linejoin="round"/>
<path d="M1776.51,798.83 C1779.55,798.37 1783.38,798.06 1785.79,798.40 C1791.62,799.29 1800.29,803.44 1809.39,808.67 C1818.40,813.97 1827.29,820.46 1831.53,825.30 C1833.61,827.71 1836.97,833.32 1838.35,836.43 C1839.70,839.56 1840.72,844.82 1840.88,849.70 C1840.93,851.25 1840.90,860.37 1840.88,863.44" fill="none" stroke="rgb(0, 0, 0)" stroke-width="6.00" stroke-opacity="1.00" stroke-linejoin="round"/>
<path d="M1843.82,849.75 C1843.82,849.75 1839.38,870.41 1839.38,870.41" fill="none" stroke="rgb(0, 0, 0)" stroke-width="6.00" stroke-opacity="1.00" stroke-linejoin="round"/>
<path d="M1821.57,895.46 C1819.00,897.12 1817.32,898.06 1815.28,898.92 C1813.23,899.78 1811.99,899.80 1810.52,899.19 C1810.52,899.19 1811.83,896.47 1811.83,896.47" fill="none" stroke="rgb(0, 0, 0)" stroke-width="6.00" stroke-opacity="1.00" stroke-linejoin="round"/>
<path d="M1730.83,867.86 C1731.41,872.82 1732.58,877.94 1734.07,881.22 C1735.34,883.94 1739.29,890.13 1741.38,892.37 C1743.42,894.54 1750.23,899.84 1753.44,901.89 C1757.26,904.30 1763.45,907.49 1767.26,908.99 C1770.88,910.39 1778.47,911.77 1781.77,911.75 C1788.55,911.62 1799.56,907.26 1808.65,903.10 C1812.57,901.22 1819.29,897.99 1822.08,896.63" fill="none" stroke="rgb(0, 0, 0)" stroke-width="6.00" stroke-opacity="1.00" stroke-linejoin="round"/>
<path d="M1752.63,912.58 C1752.63,912.58 1751.30,913.03 1751.30,913.03" fill="none" stroke="rgb(0, 0, 0)" stroke-width="6.00" stroke-opacity="1.00" stroke-linejoin="round"/>
<path d="M1749.92,914.03 C1746.01,917.44 1738.02,927.40 1734.07,933.23 C1730.13,939.07 1724.06,949.69 1721.31,955.56 C1718.60,961.38 1713.92,973.94 1712.35,980.46 C1710.53,988.11 1709.88,997.59 1710.14,999.10 C1710.23,999.58 1710.49,1000.68 1710.92,1002.40" fill="none" stroke="rgb(0, 0, 0)" stroke-width="6.00" stroke-opacity="1.00" stroke-linejoin="round"/>
<path d="M1804.97,907.65 C1805.69,911.12 1806.90,913.84 1810.20,917.91 C1815.31,924.30 1825.57,938.11 1827.93,941.56 C1832.60,948.44 1839.61,961.68 1842.16,968.01 C1847.75,982.01 1850.21,1001.54 1850.26,1001.78 C1850.31,1002.03 1850.43,1002.37 1850.62,1002.81" fill="none" stroke="rgb(0, 0, 0)" stroke-width="6.00" stroke-opacity="1.00" stroke-linejoin="round"/>
<path d="M1818.36,898.44 C1822.80,895.03 1832.30,884.69 1834.53,880.87 C1835.65,878.88 1838.68,870.21 1838.83,869.67 C1838.92,869.34 1839.04,868.79 1839.20,868.02" fill="none" stroke="rgb(0, 0, 0)" stroke-width="6.00" stroke-opacity="1.00" stroke-linejoin="round"/>
<path d="M1779.33,796.81 C1778.20,796.97 1770.84,798.89 1769.45,799.50 C1767.57,800.34 1762.34,802.16 1761.46,802.58 C1759.77,803.39 1755.39,806.59 1754.24,807.45" fill="none" stroke="rgb(0, 0, 0)" stroke-width="6.00" stroke-opacity="1.00" stroke-linejoin="round"/>
<path d="M1755.29,904.67 C1753.08,906.70 1749.66,910.76 1746.49,915.08 C1741.29,922.43 1739.62,927.41 1739.52,928.06 C1739.47,928.42 1739.55,928.78 1739.76,929.13" fill="none" stroke="rgb(0, 0, 0)" stroke-width="6.00" stroke-opacity="1.00" stroke-linejoin="round"/>
</g>
</svg>
