<?xml version="1.0" encoding="UTF-8" standalone="no"?>
<!DOCTYPE svg PUBLIC "-//W3C//DTD SVG 1.1//EN" "http://www.w3.org/Graphics/SVG/1.1/DTD/svg11.dtd">
<svg width="38.64" height="36.72" viewBox="0.00 0.00 161.00 153.00" xmlns="http://www.w3.org/2000/svg" xmlns:xlink="http://www.w3.org/1999/xlink">
<g stroke-linecap="round" transform="translate(-144.00, -1230.00)" id="Layer_87">
<path d="M172.37,1256.56" fill="none" stroke="rgb(240, 232, 197)" stroke-width="46.00" stroke-opacity="1.00" stroke-linejoin="round"/>
<path d="M171.93,1257.29 L172.77,1352.47" fill="none" stroke="rgb(240, 232, 197)" stroke-width="46.00" stroke-opacity="1.00" stroke-linejoin="round"/>
<path d="M172.77,1352.47" fill="none" stroke="rgb(240, 232, 197)" stroke-width="46.00" stroke-opacity="1.00" stroke-linejoin="round"/>
<path d="M172.55,1352.25 L275.38,1351.45" fill="none" stroke="rgb(240, 232, 197)" stroke-width="46.00" stroke-opacity="1.00" stroke-linejoin="round"/>
<path d="M275.38,1351.45" fill="none" stroke="rgb(240, 232, 197)" stroke-width="46.00" stroke-opacity="1.00" stroke-linejoin="round"/>
<path d="M274.32,1352.40 L276.67,1259.04" fill="none" stroke="rgb(240, 232, 197)" stroke-width="46.00" stroke-opacity="1.00" stroke-linejoin="round"/>
<path d="M276.67,1259.04" fill="none" stroke="rgb(240, 232, 197)" stroke-width="46.00" stroke-opacity="1.00" stroke-linejoin="round"/>
<path d="M276.86,1258.09 L193.00,1260.35" fill="none" stroke="rgb(240, 232, 197)" stroke-width="46.00" stroke-opacity="1.00" stroke-linejoin="round"/>
<path d="M193.00,1260.35" fill="none" stroke="rgb(240, 232, 197)" stroke-width="46.00" stroke-opacity="1.00" stroke-linejoin="round"/>
<path d="M225.16,1300.58 C225.16,1300.58 223.44,1297.85 223.44,1297.85 C224.66,1295.46 225.73,1293.90 227.09,1292.89 C230.17,1290.66 237.40,1288.31 241.23,1288.41 C244.47,1288.55 250.25,1291.45 251.97,1293.58 C253.56,1295.66 254.61,1300.53 253.90,1302.62 C253.13,1304.67 249.22,1309.37 245.73,1311.95 C241.31,1315.16 230.68,1319.38 224.85,1320.44 C222.25,1320.90 213.51,1321.27 210.55,1320.69 C208.86,1320.34 205.65,1319.05 204.39,1318.22 C203.09,1317.31 201.14,1315.00 200.48,1313.59 C199.22,1310.75 199.33,1304.13 200.77,1300.73 C202.16,1297.57 206.72,1291.95 209.80,1289.76 C213.10,1287.47 220.00,1285.22 223.60,1285.31 C225.46,1285.40 228.54,1286.29 229.93,1287.17 C231.23,1288.05 233.30,1290.49 233.93,1291.91 C234.51,1293.29 235.04,1296.77 234.94,1298.47 C234.70,1301.61 231.04,1309.40 229.47,1311.51 C227.51,1314.07 222.67,1318.91 220.22,1320.33 C219.31,1320.84 215.95,1322.08 214.96,1322.19 C212.66,1322.39 210.46,1321.59 209.34,1320.15 C208.01,1318.31 207.08,1311.68 207.39,1308.95 C207.69,1306.57 208.73,1303.20 209.87,1300.77 C211.11,1298.23 215.07,1293.13 218.23,1290.63 C219.50,1289.65 222.75,1287.81 224.26,1287.13 C225.36,1286.66 227.15,1286.01 228.29,1285.64" fill="none" stroke="rgb(240, 232, 197)" stroke-width="46.00" stroke-opacity="1.00" stroke-linejoin="round"/>
<path d="M154.17,1254.59 C152.80,1252.54 152.44,1251.07 152.74,1248.00 C152.83,1247.02 153.11,1240.91 153.22,1240.46 C153.22,1240.46 153.82,1244.75 153.82,1244.75 C152.56,1243.14 153.67,1240.68 154.26,1240.05 C157.92,1240.56 161.36,1242.56 161.86,1242.82 C162.04,1242.92 162.30,1242.98 162.65,1243.01" fill="none" stroke="rgb(240, 232, 197)" stroke-width="6.00" stroke-opacity="1.00" stroke-linejoin="round"/>
<path d="M153.25,1239.80 C155.45,1238.72 159.43,1237.85 163.62,1237.65 C169.96,1237.42 177.70,1239.13 178.84,1239.40 C179.39,1239.53 179.94,1239.67 180.50,1239.80" fill="none" stroke="rgb(240, 232, 197)" stroke-width="6.00" stroke-opacity="1.00" stroke-linejoin="round"/>
<path d="M182.30,1237.54 C182.30,1237.54 182.88,1238.85 182.88,1238.85 C184.28,1239.36 190.58,1239.94 194.27,1240.30 C198.22,1240.73 205.09,1242.32 205.84,1242.46 C210.33,1243.26 211.75,1242.85 212.52,1242.42" fill="none" stroke="rgb(240, 232, 197)" stroke-width="6.00" stroke-opacity="1.00" stroke-linejoin="round"/>
<path d="M184.69,1239.29 C187.82,1238.55 194.19,1237.68 197.24,1237.67 C201.11,1237.67 207.38,1239.46 209.59,1240.95 C210.16,1241.34 210.61,1241.69 210.94,1241.99 C211.06,1242.11 211.21,1242.28 211.38,1242.50" fill="none" stroke="rgb(240, 232, 197)" stroke-width="6.00" stroke-opacity="1.00" stroke-linejoin="round"/>
<path d="M284.47,1243.22 C284.47,1243.22 284.98,1242.28 284.98,1242.28 C284.98,1242.28 292.43,1242.28 292.43,1242.28 C292.43,1242.28 292.88,1240.42 292.88,1240.42 C292.88,1240.42 290.05,1239.73 290.05,1239.73 C291.15,1240.38 296.07,1240.48 296.47,1240.31 C296.66,1240.21 296.04,1240.35 295.83,1240.38" fill="none" stroke="rgb(240, 232, 197)" stroke-width="6.00" stroke-opacity="1.00" stroke-linejoin="round"/>
<path d="M287.55,1239.43 C289.12,1239.41 290.18,1239.43 290.75,1239.51 C291.29,1239.58 292.19,1239.81 293.45,1240.20 C293.70,1240.28 293.83,1240.31 293.84,1240.31" fill="none" stroke="rgb(240, 232, 197)" stroke-width="6.00" stroke-opacity="1.00" stroke-linejoin="round"/>
<path d="M295.46,1239.36 C296.86,1246.12 296.04,1254.14 295.27,1257.07 C295.27,1257.07 296.32,1243.30 296.32,1243.30 C295.55,1247.85 294.96,1252.99 294.94,1256.38 C294.94,1258.63 295.13,1260.71 295.16,1260.86" fill="none" stroke="rgb(240, 232, 197)" stroke-width="6.00" stroke-opacity="1.00" stroke-linejoin="round"/>
<path d="M293.69,1353.56 C293.69,1353.56 292.81,1367.19 292.81,1367.19 C292.83,1369.44 293.22,1370.63 293.00,1370.76 C292.47,1371.06 290.82,1371.84 289.50,1373.20 C289.88,1369.63 290.40,1365.75 291.75,1363.84 C292.65,1362.58 293.99,1361.86 294.59,1362.02 C295.65,1365.65 289.96,1369.29 288.60,1369.78 C288.10,1368.30 288.40,1366.62 289.67,1365.33 C290.69,1364.30 292.16,1363.90 293.29,1364.06 C293.73,1365.22 293.71,1366.83 292.96,1368.14 C292.17,1369.46 289.61,1371.28 287.94,1371.71 C286.22,1372.12 284.63,1371.60 283.60,1370.62 C283.60,1370.62 283.53,1368.87 283.53,1368.87 C284.36,1367.83 285.62,1367.32 288.27,1367.15 C291.13,1366.97 292.73,1367.11 293.82,1367.52 C293.82,1367.52 293.68,1368.87 293.68,1368.87 C291.01,1371.06 285.98,1372.65 283.45,1372.90 C280.43,1373.14 274.71,1371.56 272.34,1370.38 C271.25,1369.83 270.66,1369.21 270.09,1368.21 C271.17,1367.33 272.64,1366.65 275.04,1365.95 C275.34,1365.86 275.60,1365.79 275.83,1365.73" fill="none" stroke="rgb(240, 232, 197)" stroke-width="6.00" stroke-opacity="1.00" stroke-linejoin="round"/>
<path d="M284.36,1371.78 C280.35,1372.50 275.84,1372.51 271.60,1372.69 C264.40,1373.07 250.83,1373.84 250.18,1372.47 C250.18,1372.47 250.79,1372.15 250.79,1372.15" fill="none" stroke="rgb(240, 232, 197)" stroke-width="6.00" stroke-opacity="1.00" stroke-linejoin="round"/>
<path d="M291.45,1369.67 C289.01,1370.62 287.36,1371.01 285.43,1370.94 C282.07,1370.81 275.42,1370.14 273.40,1370.18 C271.72,1370.21 265.09,1371.06 261.91,1370.84 C259.26,1370.65 248.35,1371.54 247.98,1371.60 C247.90,1371.61 242.94,1372.72 239.39,1372.40 C236.69,1372.22 233.16,1372.80 231.78,1372.44 C225.73,1371.24 216.88,1371.02 211.53,1370.85 C209.39,1370.84 208.02,1370.76 206.34,1370.54 C207.90,1370.45 214.65,1372.17 216.22,1372.28 C219.20,1372.44 222.19,1371.37 223.62,1370.47 C223.62,1370.47 205.61,1371.89 205.61,1371.89 C208.12,1371.08 214.35,1369.94 217.97,1369.27 C220.06,1368.90 221.66,1368.49 223.29,1367.96 C223.56,1367.87 223.78,1367.78 223.95,1367.70" fill="none" stroke="rgb(240, 232, 197)" stroke-width="6.00" stroke-opacity="1.00" stroke-linejoin="round"/>
<path d="M202.33,1368.79 C202.57,1368.59 199.47,1370.45 196.85,1370.47 C193.68,1370.51 187.24,1370.56 185.73,1370.14 C184.50,1369.80 179.37,1368.18 178.09,1367.99 C176.74,1367.79 174.46,1368.02 173.11,1368.28 C173.11,1368.28 180.29,1368.36 180.29,1368.36 C177.17,1370.10 171.76,1371.32 169.91,1371.20 C168.12,1371.06 163.06,1369.96 162.13,1370.03 C162.13,1370.03 170.92,1368.17 170.92,1368.17 C170.92,1368.17 171.06,1369.41 171.06,1369.41 C170.17,1370.49 168.98,1371.18 166.29,1372.04 C161.70,1373.48 158.74,1373.73 157.46,1373.64 C157.49,1372.82 158.12,1372.34 160.03,1371.90 C161.92,1371.47 163.11,1371.24 164.61,1370.98 C162.86,1372.23 161.48,1372.72 159.41,1372.66 C157.34,1372.60 156.02,1372.42 154.36,1372.04 C154.36,1372.04 156.14,1371.93 156.14,1371.93 C155.08,1371.08 154.08,1367.49 153.96,1364.06 C153.89,1361.22 154.06,1356.11 154.56,1353.49 C155.71,1355.55 156.25,1356.96 156.36,1358.48 C156.88,1366.04 153.95,1370.32 153.16,1370.54 C152.12,1369.39 151.77,1365.19 151.96,1362.47 C152.53,1354.86 155.30,1349.69 155.59,1349.81 C156.15,1353.10 156.23,1359.08 156.10,1361.44 C155.76,1367.09 153.60,1371.85 153.44,1371.78 C153.12,1370.85 152.84,1364.96 153.16,1362.20 C153.45,1359.76 156.04,1348.37 156.82,1347.19 C157.11,1346.75 157.63,1346.39 158.38,1346.09 C158.53,1346.04 158.62,1346.03 158.66,1346.06" fill="none" stroke="rgb(240, 232, 197)" stroke-width="6.00" stroke-opacity="1.00" stroke-linejoin="round"/>
</g>
<g stroke-linecap="round" transform="translate(-144.00, -1230.00)" id="Layer_86">
<path d="M150.65,1234.15 C150.65,1234.15 147.46,1234.61 147.46,1234.61 C147.46,1234.61 147.20,1235.30 147.20,1235.30" fill="none" stroke="rgb(0, 0, 0)" stroke-width="6.00" stroke-opacity="1.00" stroke-linejoin="round"/>
<path d="M147.20,1235.30 L147.13,1377.08" fill="none" stroke="rgb(0, 0, 0)" stroke-width="6.00" stroke-opacity="1.00" stroke-linejoin="round"/>
<path d="M147.13,1377.08 C147.13,1377.08 147.24,1377.19 147.24,1377.19" fill="none" stroke="rgb(0, 0, 0)" stroke-width="6.00" stroke-opacity="1.00" stroke-linejoin="round"/>
<path d="M147.24,1377.19 L298.15,1377.08" fill="none" stroke="rgb(0, 0, 0)" stroke-width="6.00" stroke-opacity="1.00" stroke-linejoin="round"/>
<path d="M298.15,1377.08 C298.15,1377.08 298.27,1376.98 298.27,1376.98" fill="none" stroke="rgb(0, 0, 0)" stroke-width="6.00" stroke-opacity="1.00" stroke-linejoin="round"/>
<path d="M298.27,1376.98 L301.36,1235.27" fill="none" stroke="rgb(0, 0, 0)" stroke-width="6.00" stroke-opacity="1.00" stroke-linejoin="round"/>
<path d="M301.36,1235.27 C301.20,1235.50 301.10,1235.67 301.04,1235.77 C300.98,1235.88 300.90,1236.05 300.79,1236.29" fill="none" stroke="rgb(0, 0, 0)" stroke-width="6.00" stroke-opacity="1.00" stroke-linejoin="round"/>
<path d="M300.79,1236.29 L149.80,1234.04" fill="none" stroke="rgb(0, 0, 0)" stroke-width="6.00" stroke-opacity="1.00" stroke-linejoin="round"/>
<path d="M149.80,1234.04 C149.80,1234.04 148.79,1234.04 148.79,1234.04 C148.79,1234.04 148.84,1234.15 148.84,1234.15" fill="none" stroke="rgb(0, 0, 0)" stroke-width="6.00" stroke-opacity="1.00" stroke-linejoin="round"/>
</g>
<g stroke-linecap="round" transform="translate(-144.00, -1230.00)" id="Layer_90">
<path d="M165.16,1243.04 C165.16,1243.04 164.71,1243.46 164.71,1243.46" fill="none" stroke="rgb(167, 161, 134)" stroke-width="6.00" stroke-opacity="1.00" stroke-linejoin="round"/>
<path d="M164.71,1243.46 L164.88,1369.70" fill="none" stroke="rgb(167, 161, 134)" stroke-width="6.00" stroke-opacity="1.00" stroke-linejoin="round"/>
<path d="M164.88,1369.70 C164.88,1369.70 164.67,1369.82 164.67,1369.82" fill="none" stroke="rgb(167, 161, 134)" stroke-width="6.00" stroke-opacity="1.00" stroke-linejoin="round"/>
<path d="M285.75,1247.19 C285.75,1247.19 284.72,1247.17 284.72,1247.17 C284.88,1247.12 284.98,1247.09 285.03,1247.07 C285.08,1247.06 285.14,1247.06 285.22,1247.06" fill="none" stroke="rgb(167, 161, 134)" stroke-width="6.00" stroke-opacity="1.00" stroke-linejoin="round"/>
<path d="M285.22,1247.06 L283.36,1367.80" fill="none" stroke="rgb(167, 161, 134)" stroke-width="6.00" stroke-opacity="1.00" stroke-linejoin="round"/>
<path d="M283.36,1367.80 C283.36,1367.80 283.03,1367.73 283.03,1367.73" fill="none" stroke="rgb(167, 161, 134)" stroke-width="6.00" stroke-opacity="1.00" stroke-linejoin="round"/>
</g>
<g stroke-linecap="round" transform="translate(-144.00, -1230.00)" id="Layer_91_Copy">
<path d="M184.18,1232.34 C184.71,1232.52 185.26,1232.55 186.76,1232.46 C189.40,1232.30 225.36,1232.49 235.75,1232.16 C239.42,1232.06 256.73,1231.47 257.48,1231.51" fill="none" stroke="rgb(0, 0, 0)" stroke-width="6.00" stroke-opacity="1.00" stroke-linejoin="round"/>
<path d="M233.61,1232.55 C237.35,1232.34 243.55,1231.87 244.87,1231.97 C245.67,1232.04 252.24,1233.30 255.98,1233.44 C261.63,1233.52 267.79,1233.60 269.18,1233.66" fill="none" stroke="rgb(0, 0, 0)" stroke-width="6.00" stroke-opacity="1.00" stroke-linejoin="round"/>
<path d="M240.93,1234.04 C244.90,1233.68 252.56,1233.71 253.08,1233.69 C254.57,1233.64 255.69,1233.55 256.46,1233.44 C256.94,1233.37 257.63,1233.19 258.54,1232.91" fill="none" stroke="rgb(0, 0, 0)" stroke-width="6.00" stroke-opacity="1.00" stroke-linejoin="round"/>
<path d="M178.22,1380.25 C179.03,1380.05 180.09,1379.95 182.31,1379.91 C191.56,1379.84 198.89,1378.95 206.48,1379.17 C214.24,1379.45 229.21,1379.91 235.63,1379.57 C254.65,1378.48 258.70,1379.08 260.06,1379.39" fill="none" stroke="rgb(0, 0, 0)" stroke-width="6.00" stroke-opacity="1.00" stroke-linejoin="round"/>
<path d="M265.70,1379.73 C261.78,1379.69 257.75,1379.80 255.11,1380.01 C247.40,1380.71 237.15,1380.92 229.78,1380.34 C209.36,1378.71 202.88,1377.26 202.07,1376.92 C201.59,1376.72 200.66,1376.23 199.28,1375.45" fill="none" stroke="rgb(0, 0, 0)" stroke-width="6.00" stroke-opacity="1.00" stroke-linejoin="round"/>
</g>
</svg>
