<?xml version="1.0" encoding="UTF-8" standalone="no"?>
<!DOCTYPE svg PUBLIC "-//W3C//DTD SVG 1.1//EN" "http://www.w3.org/Graphics/SVG/1.1/DTD/svg11.dtd">
<svg width="28.80" height="43.92" viewBox="0.00 0.00 120.00 183.00" xmlns="http://www.w3.org/2000/svg" xmlns:xlink="http://www.w3.org/1999/xlink">
<g stroke-linecap="round" transform="translate(-715.00, -1215.00)" id="Layer_89">
<path d="M739.66,1236.44" fill="none" stroke="rgb(242, 236, 205)" stroke-width="36.00" stroke-opacity="1.00" stroke-linejoin="round"/>
<path d="M739.91,1236.22 L739.46,1374.75" fill="none" stroke="rgb(242, 236, 205)" stroke-width="36.00" stroke-opacity="1.00" stroke-linejoin="round"/>
<path d="M739.49,1374.75" fill="none" stroke="rgb(242, 236, 205)" stroke-width="36.00" stroke-opacity="1.00" stroke-linejoin="round"/>
<path d="M739.49,1374.75 L816.36,1373.49" fill="none" stroke="rgb(242, 236, 205)" stroke-width="36.00" stroke-opacity="1.00" stroke-linejoin="round"/>
<path d="M816.36,1373.49" fill="none" stroke="rgb(242, 236, 205)" stroke-width="36.00" stroke-opacity="1.00" stroke-linejoin="round"/>
<path d="M810.20,1372.45" fill="none" stroke="rgb(242, 236, 205)" stroke-width="36.00" stroke-opacity="1.00" stroke-linejoin="round"/>
<path d="M810.17,1372.47 L811.83,1236.60" fill="none" stroke="rgb(242, 236, 205)" stroke-width="36.00" stroke-opacity="1.00" stroke-linejoin="round"/>
<path d="M811.78,1236.65" fill="none" stroke="rgb(242, 236, 205)" stroke-width="36.00" stroke-opacity="1.00" stroke-linejoin="round"/>
<path d="M811.78,1236.65 L739.55,1237.64" fill="none" stroke="rgb(242, 236, 205)" stroke-width="36.00" stroke-opacity="1.00" stroke-linejoin="round"/>
<path d="M739.55,1237.64" fill="none" stroke="rgb(242, 236, 205)" stroke-width="36.00" stroke-opacity="1.00" stroke-linejoin="round"/>
<path d="M767.28,1250.46 C769.54,1252.18 771.14,1253.93 772.25,1256.10 C773.42,1258.41 775.22,1264.18 775.63,1267.35 C775.99,1270.29 775.69,1275.68 775.22,1277.42 C774.45,1280.17 771.33,1285.06 770.15,1286.07 C769.31,1286.77 767.70,1287.24 766.89,1287.03 C765.24,1286.51 764.02,1282.03 764.21,1278.96 C764.43,1276.16 765.91,1271.01 767.17,1268.74 C768.39,1266.60 771.52,1262.98 773.30,1261.60 C775.37,1260.06 781.32,1257.91 783.71,1259.00 C785.05,1259.64 787.18,1261.93 787.90,1263.26 C789.32,1266.15 790.71,1272.19 790.92,1275.27 C791.28,1281.05 790.14,1293.20 788.59,1299.11 C786.99,1305.10 781.22,1316.52 777.37,1320.82 C774.69,1323.77 770.44,1326.70 768.16,1326.81 C767.08,1326.83 765.16,1326.19 764.27,1325.50 C762.46,1324.00 760.01,1318.54 759.30,1314.11 C758.65,1309.82 759.79,1297.98 761.62,1292.14 C763.18,1287.23 768.50,1276.71 772.69,1271.10 C774.63,1268.54 779.35,1263.43 781.66,1261.47 C783.70,1259.75 788.04,1257.74 789.50,1257.77 C790.00,1257.80 791.74,1258.23 792.11,1258.67 C793.24,1260.09 794.38,1262.79 794.84,1265.22 C796.13,1272.40 795.40,1287.04 794.36,1294.62 C793.33,1301.04 790.71,1314.19 788.39,1321.17 C787.09,1325.02 784.62,1330.33 782.26,1334.03 C780.22,1337.18 775.58,1342.37 773.41,1343.07 C773.02,1343.20 772.48,1343.17 771.81,1342.99 C769.92,1340.79 767.97,1335.22 767.36,1331.86 C766.76,1328.41 766.76,1320.10 767.39,1317.15 C768.14,1313.84 771.05,1308.50 772.98,1306.72 C774.84,1305.07 779.12,1303.75 781.41,1304.03 C783.77,1304.38 788.46,1307.49 790.51,1310.03 C792.79,1312.94 795.18,1318.94 795.84,1322.02 C796.41,1324.99 796.72,1331.95 795.91,1335.24 C795.11,1338.31 791.77,1343.77 789.11,1347.04 C786.63,1350.05 781.30,1354.52 779.13,1355.67 C776.81,1356.84 772.22,1356.88 770.55,1355.64 C768.79,1354.24 765.85,1348.43 765.03,1344.80 C764.22,1341.04 764.66,1334.96 765.79,1332.89 C766.80,1331.14 770.05,1329.28 772.43,1328.90 C774.99,1328.52 778.59,1329.06 781.24,1329.91 C782.55,1330.36 785.07,1331.86 786.30,1332.94 C787.34,1333.90 788.35,1338.60 788.04,1340.64 C787.70,1342.63 785.39,1347.03 783.20,1349.45 C781.27,1351.55 776.00,1356.13 773.69,1357.64 C770.92,1359.41 766.62,1360.63 764.64,1360.51 C763.83,1360.44 762.55,1359.81 762.06,1359.20 C760.97,1357.72 759.78,1350.75 760.25,1347.56 C760.53,1345.86 761.75,1343.03 762.72,1341.76 C764.59,1339.43 769.70,1337.16 772.76,1337.21 C775.73,1337.32 782.52,1339.92 785.59,1341.95 C788.78,1344.11 793.46,1349.45 794.79,1352.49 C795.36,1353.83 795.85,1355.77 795.95,1356.82 C795.97,1357.02 795.98,1357.33 795.98,1357.72" fill="none" stroke="rgb(242, 236, 205)" stroke-width="36.00" stroke-opacity="1.00" stroke-linejoin="round"/>
<path d="M734.66,1220.94 C734.66,1220.94 724.52,1222.81 724.52,1222.81 C724.52,1222.81 729.16,1223.85 729.16,1223.85 C729.22,1223.83 728.01,1223.69 726.76,1228.99 C725.86,1228.07 725.33,1226.58 725.61,1225.02 C725.84,1223.73 726.63,1222.25 727.02,1221.98 C727.02,1221.98 725.68,1229.43 725.68,1229.43 C725.68,1229.43 724.74,1224.04 724.74,1224.04 C725.26,1223.75 725.60,1223.57 725.76,1223.52 C725.93,1223.46 726.14,1223.44 726.40,1223.46" fill="none" stroke="rgb(242, 236, 205)" stroke-width="6.00" stroke-opacity="1.00" stroke-linejoin="round"/>
<path d="M812.55,1223.02 C818.68,1221.53 823.45,1221.69 827.62,1222.56 C827.62,1222.56 820.60,1223.22 820.60,1223.22 C820.60,1223.22 826.47,1222.18 826.47,1222.18 C826.47,1222.18 825.09,1229.73 825.09,1229.73 C825.09,1229.73 826.03,1223.24 826.03,1223.24 C826.03,1223.24 825.04,1230.42 825.04,1230.42 C825.04,1230.42 826.42,1223.57 826.42,1223.57 C826.01,1225.69 825.71,1227.13 825.29,1228.88 C824.87,1230.65 824.47,1232.52 824.21,1233.76 C824.15,1234.01 824.10,1234.27 824.04,1234.52" fill="none" stroke="rgb(242, 236, 205)" stroke-width="6.00" stroke-opacity="1.00" stroke-linejoin="round"/>
<path d="M726.37,1377.16 C726.37,1377.16 726.27,1375.46 726.27,1375.46 C726.27,1375.46 725.64,1375.24 725.64,1375.24 C725.64,1375.24 723.95,1386.99 723.95,1386.99 C723.95,1386.99 724.27,1375.71 724.27,1375.71 C724.27,1375.71 723.47,1387.48 723.47,1387.48 C723.47,1387.48 725.68,1379.18 725.68,1379.18 C725.79,1383.95 725.00,1386.11 724.05,1386.52 C723.92,1386.57 723.69,1386.63 723.36,1386.69 C723.85,1386.83 729.93,1385.23 731.26,1385.51 C731.58,1385.58 731.99,1385.83 732.48,1386.25 C732.48,1386.25 732.35,1387.40 732.35,1387.40 C731.12,1388.37 729.17,1389.33 727.45,1389.64 C725.86,1389.93 724.55,1389.58 724.00,1388.99 C725.80,1388.09 727.50,1387.79 730.46,1387.98 C733.42,1388.17 734.64,1388.32 735.29,1388.55 C733.94,1390.15 723.12,1390.42 722.70,1390.46 C726.82,1389.93 735.27,1389.38 738.55,1388.74 C739.05,1388.64 739.62,1388.50 740.26,1388.33" fill="none" stroke="rgb(242, 236, 205)" stroke-width="6.00" stroke-opacity="1.00" stroke-linejoin="round"/>
<path d="M814.62,1389.70 C815.52,1390.16 822.43,1387.88 824.69,1387.64 C825.15,1387.60 825.93,1387.56 827.04,1387.53 C827.04,1387.53 818.67,1388.82 818.67,1388.82 C821.89,1387.33 826.14,1386.76 826.97,1387.32 C827.32,1387.58 827.43,1388.13 827.38,1388.74 C826.52,1389.73 825.51,1390.23 823.95,1390.19 C820.86,1390.11 818.89,1389.43 818.82,1389.23 C818.82,1389.23 824.62,1386.90 824.62,1386.90 C825.04,1387.28 821.41,1388.88 817.47,1389.72 C811.43,1390.93 802.77,1390.75 801.12,1389.86 C802.02,1388.38 803.39,1387.80 805.84,1388.05 C807.88,1388.33 814.41,1389.07 815.31,1388.66 C815.46,1388.59 815.61,1388.41 815.77,1388.14" fill="none" stroke="rgb(242, 236, 205)" stroke-width="6.00" stroke-opacity="1.00" stroke-linejoin="round"/>
</g>
<g stroke-linecap="round" transform="translate(-715.00, -1215.00)" id="Layer_86_Copy_2">
<path d="M721.38,1222.82 C721.38,1222.82 720.27,1221.89 720.27,1221.89 C720.27,1221.89 720.57,1224.33 720.57,1224.33" fill="none" stroke="rgb(0, 0, 0)" stroke-width="6.00" stroke-opacity="1.00" stroke-linejoin="round"/>
<path d="M720.57,1224.33 L718.49,1393.29" fill="none" stroke="rgb(0, 0, 0)" stroke-width="6.00" stroke-opacity="1.00" stroke-linejoin="round"/>
<path d="M718.29,1393.23 C718.29,1393.23 718.07,1393.27 718.07,1393.27" fill="none" stroke="rgb(0, 0, 0)" stroke-width="6.00" stroke-opacity="1.00" stroke-linejoin="round"/>
<path d="M718.07,1393.27 L829.31,1393.02" fill="none" stroke="rgb(0, 0, 0)" stroke-width="6.00" stroke-opacity="1.00" stroke-linejoin="round"/>
<path d="M829.72,1393.14 C829.72,1393.14 829.66,1393.18 829.66,1393.18" fill="none" stroke="rgb(0, 0, 0)" stroke-width="6.00" stroke-opacity="1.00" stroke-linejoin="round"/>
<path d="M829.66,1393.18 L830.80,1218.41" fill="none" stroke="rgb(0, 0, 0)" stroke-width="6.00" stroke-opacity="1.00" stroke-linejoin="round"/>
<path d="M830.80,1218.41 C830.80,1218.41 830.46,1218.60 830.46,1218.60" fill="none" stroke="rgb(0, 0, 0)" stroke-width="6.00" stroke-opacity="1.00" stroke-linejoin="round"/>
<path d="M830.46,1218.60 L721.69,1218.58" fill="none" stroke="rgb(0, 0, 0)" stroke-width="6.00" stroke-opacity="1.00" stroke-linejoin="round"/>
<path d="M721.69,1218.58 C721.69,1218.58 721.42,1218.75 721.42,1218.75" fill="none" stroke="rgb(0, 0, 0)" stroke-width="6.00" stroke-opacity="1.00" stroke-linejoin="round"/>
</g>
<g stroke-linecap="round" transform="translate(-715.00, -1215.00)" id="Layer_92">
<path d="M739.89,1384.22 C739.89,1384.22 737.82,1384.88 737.82,1384.88 C737.82,1384.88 738.93,1384.19 738.93,1384.19" fill="none" stroke="rgb(190, 183, 152)" stroke-width="6.00" stroke-opacity="1.00" stroke-linejoin="round"/>
<path d="M738.93,1384.19 L817.25,1384.75" fill="none" stroke="rgb(190, 183, 152)" stroke-width="6.00" stroke-opacity="1.00" stroke-linejoin="round"/>
<path d="M817.25,1384.75 C817.25,1384.75 817.07,1384.75 817.07,1384.75" fill="none" stroke="rgb(190, 183, 152)" stroke-width="6.00" stroke-opacity="1.00" stroke-linejoin="round"/>
<path d="M741.17,1230.79 C741.17,1230.79 741.20,1230.27 741.20,1230.27" fill="none" stroke="rgb(190, 183, 152)" stroke-width="6.00" stroke-opacity="1.00" stroke-linejoin="round"/>
<path d="M741.20,1230.27 L815.18,1229.22" fill="none" stroke="rgb(190, 183, 152)" stroke-width="6.00" stroke-opacity="1.00" stroke-linejoin="round"/>
<path d="M815.18,1229.22 C815.38,1228.94 815.50,1228.77 815.54,1228.71 C815.59,1228.65 815.62,1228.61 815.65,1228.58" fill="none" stroke="rgb(190, 183, 152)" stroke-width="6.00" stroke-opacity="1.00" stroke-linejoin="round"/>
<path d="M734.20,1289.85 C734.20,1289.85 733.53,1289.46 733.53,1289.46" fill="none" stroke="rgb(190, 183, 152)" stroke-width="6.00" stroke-opacity="1.00" stroke-linejoin="round"/>
<path d="M747.47,1216.62 C747.17,1217.65 764.24,1216.60 767.75,1216.83 C780.84,1217.74 796.45,1217.08 799.49,1217.20" fill="none" stroke="rgb(0, 0, 0)" stroke-width="6.00" stroke-opacity="1.00" stroke-linejoin="round"/>
<path d="M748.74,1395.70 C751.87,1395.04 757.24,1395.35 760.79,1395.22 C764.37,1395.10 775.52,1395.69 786.53,1395.08 C799.48,1394.37 802.47,1394.02 804.37,1393.83" fill="none" stroke="rgb(0, 0, 0)" stroke-width="6.00" stroke-opacity="1.00" stroke-linejoin="round"/>
<path d="M804.68,1395.74 C802.88,1395.89 798.36,1395.30 794.82,1394.77 C790.47,1394.11 784.89,1393.73 784.73,1393.59" fill="none" stroke="rgb(0, 0, 0)" stroke-width="6.00" stroke-opacity="1.00" stroke-linejoin="round"/>
</g>
</svg>
