<?xml version="1.0" encoding="UTF-8" standalone="no"?>
<!DOCTYPE svg PUBLIC "-//W3C//DTD SVG 1.1//EN" "http://www.w3.org/Graphics/SVG/1.1/DTD/svg11.dtd">
<svg width="63.12" height="25.20" viewBox="0.00 0.00 263.00 105.00" xmlns="http://www.w3.org/2000/svg" xmlns:xlink="http://www.w3.org/1999/xlink">
<g stroke-linecap="round" transform="translate(-381.00, -1251.00)" id="Layer_88">
<path d="M407.85,1274.42 C407.85,1274.42 406.63,1274.56 406.63,1274.56" fill="none" stroke="rgb(233, 224, 181)" stroke-width="36.00" stroke-opacity="1.00" stroke-linejoin="round"/>
<path d="M407.26,1275.22 L617.74,1277.48" fill="none" stroke="rgb(233, 224, 181)" stroke-width="36.00" stroke-opacity="1.00" stroke-linejoin="round"/>
<path d="M617.83,1277.26" fill="none" stroke="rgb(233, 224, 181)" stroke-width="36.00" stroke-opacity="1.00" stroke-linejoin="round"/>
<path d="M618.08,1277.14 L615.61,1334.54" fill="none" stroke="rgb(233, 224, 181)" stroke-width="36.00" stroke-opacity="1.00" stroke-linejoin="round"/>
<path d="M615.61,1334.54" fill="none" stroke="rgb(233, 224, 181)" stroke-width="36.00" stroke-opacity="1.00" stroke-linejoin="round"/>
<path d="M615.38,1334.61 L404.10,1332.14" fill="none" stroke="rgb(233, 224, 181)" stroke-width="36.00" stroke-opacity="1.00" stroke-linejoin="round"/>
<path d="M404.10,1332.14 C404.10,1332.14 403.07,1332.72 403.07,1332.72" fill="none" stroke="rgb(233, 224, 181)" stroke-width="36.00" stroke-opacity="1.00" stroke-linejoin="round"/>
<path d="M403.55,1332.35 L407.37,1284.98" fill="none" stroke="rgb(233, 224, 181)" stroke-width="36.00" stroke-opacity="1.00" stroke-linejoin="round"/>
<path d="M407.37,1284.98" fill="none" stroke="rgb(233, 224, 181)" stroke-width="36.00" stroke-opacity="1.00" stroke-linejoin="round"/>
<path d="M421.86,1303.20 C425.64,1302.04 434.76,1300.87 436.38,1300.73 C440.03,1300.43 446.64,1300.80 449.59,1301.27 C453.91,1301.99 468.49,1308.16 469.32,1309.14 C469.77,1309.71 470.24,1311.57 470.20,1312.09 C470.02,1313.28 466.74,1315.63 463.32,1316.62 C455.84,1318.72 442.81,1319.25 442.26,1319.20 C440.88,1319.04 439.61,1317.92 439.34,1316.69 C439.05,1314.92 442.26,1309.84 445.04,1307.27 C448.71,1303.96 452.77,1301.01 456.40,1299.08 C462.81,1295.70 476.78,1290.68 482.19,1289.57 C488.04,1288.40 500.36,1287.52 506.25,1288.41 C511.87,1289.28 522.69,1293.72 529.80,1298.00 C533.51,1300.29 541.92,1305.52 542.68,1306.23 C543.33,1306.84 543.41,1307.79 543.25,1308.30 C541.21,1309.70 539.55,1310.46 537.03,1310.97 C530.06,1312.36 515.98,1314.07 510.92,1314.17 C509.19,1314.19 507.87,1313.95 506.18,1313.41 C505.96,1311.89 506.10,1310.73 506.91,1309.65 C508.38,1307.71 513.95,1302.90 515.40,1301.89 C517.34,1300.56 522.96,1297.80 526.07,1296.87 C529.29,1295.94 536.79,1295.41 540.55,1295.82 C544.10,1296.24 550.58,1297.84 552.35,1298.50 C556.18,1299.96 562.06,1303.28 563.60,1304.59 C564.85,1305.68 565.68,1306.97 565.75,1307.90 C565.77,1308.93 563.58,1311.00 559.83,1312.21 C554.64,1313.86 537.50,1315.62 530.01,1316.34 C518.81,1317.33 509.23,1317.86 504.07,1317.20 C499.31,1316.50 495.79,1315.60 495.04,1314.35 C494.65,1313.62 494.77,1311.66 495.27,1310.42 C496.55,1307.50 501.25,1303.08 504.13,1301.52 C509.98,1298.39 522.45,1294.45 529.43,1293.40 C535.52,1292.51 547.91,1292.13 554.15,1293.33 C556.97,1293.89 562.94,1295.96 565.42,1297.23 C570.59,1299.91 577.42,1306.41 579.02,1308.45 C580.60,1310.52 581.19,1312.73 580.48,1313.99 C579.76,1315.14 574.64,1318.56 572.39,1319.46 C569.72,1320.48 563.51,1321.98 559.80,1322.27 C553.52,1322.72 535.65,1321.77 527.80,1321.18 C518.99,1320.47 514.24,1318.75 511.89,1317.52 C511.63,1315.33 512.04,1313.69 513.42,1311.99 C516.28,1308.46 525.20,1302.58 530.07,1300.91 C537.29,1298.46 551.74,1296.37 559.89,1296.60 C567.86,1296.87 577.96,1299.67 588.40,1303.25 C594.39,1305.35 603.88,1308.87 604.39,1309.65 C583.47,1310.20 578.87,1312.28 578.55,1312.53 C580.63,1311.66 586.86,1307.25 590.54,1304.65 C596.13,1300.65 597.75,1299.33 599.02,1298.10 C599.28,1297.85 599.46,1297.63 599.58,1297.45" fill="none" stroke="rgb(233, 224, 181)" stroke-width="36.00" stroke-opacity="1.00" stroke-linejoin="round"/>
<path d="M394.00,1271.00 C394.00,1271.00 392.74,1271.95 392.74,1271.95 C390.70,1269.49 393.44,1259.79 394.26,1259.62 C394.96,1261.45 394.72,1266.58 393.51,1267.75 C392.03,1267.31 392.33,1260.09 392.44,1259.53 C392.44,1259.53 392.99,1263.34 392.99,1263.34 C392.99,1263.34 393.13,1257.47 393.13,1257.47 C393.13,1257.47 394.17,1258.40 394.17,1258.40 C394.63,1258.13 395.49,1257.64 395.30,1257.67 C395.29,1257.67 395.16,1257.77 394.89,1257.95" fill="none" stroke="rgb(233, 224, 181)" stroke-width="6.00" stroke-opacity="1.00" stroke-linejoin="round"/>
<path d="M394.89,1257.95 L631.79,1260.65" fill="none" stroke="rgb(233, 224, 181)" stroke-width="6.00" stroke-opacity="1.00" stroke-linejoin="round"/>
<path d="M631.79,1260.65" fill="none" stroke="rgb(233, 224, 181)" stroke-width="6.00" stroke-opacity="1.00" stroke-linejoin="round"/>
<path d="M631.65,1260.29 L630.36,1349.10" fill="none" stroke="rgb(233, 224, 181)" stroke-width="6.00" stroke-opacity="1.00" stroke-linejoin="round"/>
<path d="M630.36,1349.10 C630.36,1349.10 630.33,1348.74 630.33,1348.74" fill="none" stroke="rgb(233, 224, 181)" stroke-width="6.00" stroke-opacity="1.00" stroke-linejoin="round"/>
<path d="M630.37,1348.85 L392.27,1348.33" fill="none" stroke="rgb(233, 224, 181)" stroke-width="6.00" stroke-opacity="1.00" stroke-linejoin="round"/>
<path d="M392.27,1348.33 C392.13,1348.31 392.06,1348.28 392.05,1348.24 C392.04,1348.21 392.08,1348.14 392.17,1348.02" fill="none" stroke="rgb(233, 224, 181)" stroke-width="6.00" stroke-opacity="1.00" stroke-linejoin="round"/>
<path d="M394.48,1346.08 C393.34,1346.17 391.99,1345.82 391.60,1345.01 C390.90,1343.46 392.69,1338.42 393.93,1336.59 C394.50,1338.22 394.72,1339.22 394.48,1340.16 C394.04,1341.86 393.43,1343.29 392.92,1343.98 C392.07,1342.87 393.16,1340.19 394.16,1338.94 C394.40,1338.64 394.82,1338.21 395.41,1337.67" fill="none" stroke="rgb(233, 224, 181)" stroke-width="6.00" stroke-opacity="1.00" stroke-linejoin="round"/>
</g>
<g stroke-linecap="round" transform="translate(-381.00, -1251.00)" id="Layer_86_Copy">
<path d="M388.33,1251.68 C387.99,1251.79 387.51,1252.84 387.31,1254.05 C387.26,1254.33 387.25,1254.69 387.28,1255.11" fill="none" stroke="rgb(0, 0, 0)" stroke-width="6.00" stroke-opacity="1.00" stroke-linejoin="round"/>
<path d="M387.28,1255.11 L386.81,1352.69" fill="none" stroke="rgb(0, 0, 0)" stroke-width="6.00" stroke-opacity="1.00" stroke-linejoin="round"/>
<path d="M386.81,1352.69 C386.81,1352.69 387.04,1352.69 387.04,1352.69" fill="none" stroke="rgb(0, 0, 0)" stroke-width="6.00" stroke-opacity="1.00" stroke-linejoin="round"/>
<path d="M387.04,1352.69 L636.62,1352.25" fill="none" stroke="rgb(0, 0, 0)" stroke-width="6.00" stroke-opacity="1.00" stroke-linejoin="round"/>
<path d="M636.62,1352.25 C636.62,1352.25 635.32,1352.76 635.32,1352.76 C635.32,1352.76 635.50,1352.70 635.50,1352.70" fill="none" stroke="rgb(0, 0, 0)" stroke-width="6.00" stroke-opacity="1.00" stroke-linejoin="round"/>
<path d="M635.50,1352.70 L636.39,1256.60" fill="none" stroke="rgb(0, 0, 0)" stroke-width="6.00" stroke-opacity="1.00" stroke-linejoin="round"/>
<path d="M636.39,1256.60 C636.39,1256.60 636.33,1256.89 636.33,1256.89" fill="none" stroke="rgb(0, 0, 0)" stroke-width="6.00" stroke-opacity="1.00" stroke-linejoin="round"/>
<path d="M636.33,1256.89 L389.00,1253.65" fill="none" stroke="rgb(0, 0, 0)" stroke-width="6.00" stroke-opacity="1.00" stroke-linejoin="round"/>
<path d="M389.00,1253.65 C389.00,1253.65 388.51,1254.26 388.51,1254.26" fill="none" stroke="rgb(0, 0, 0)" stroke-width="6.00" stroke-opacity="1.00" stroke-linejoin="round"/>
</g>
<g stroke-linecap="round" transform="translate(-381.00, -1251.00)" id="Layer_91">
<path d="M404.36,1267.17 C404.36,1267.17 404.60,1267.37 404.60,1267.37" fill="none" stroke="rgb(140, 135, 112)" stroke-width="6.00" stroke-opacity="1.00" stroke-linejoin="round"/>
<path d="M404.60,1267.37 L624.21,1269.36" fill="none" stroke="rgb(140, 135, 112)" stroke-width="6.00" stroke-opacity="1.00" stroke-linejoin="round"/>
<path d="M624.21,1269.36 C624.21,1269.36 623.94,1269.18 623.94,1269.18 C623.94,1269.18 623.99,1269.13 623.99,1269.13" fill="none" stroke="rgb(140, 135, 112)" stroke-width="6.00" stroke-opacity="1.00" stroke-linejoin="round"/>
<path d="M401.08,1343.87 C401.30,1343.68 401.51,1343.48 401.73,1343.29 C401.81,1343.22 401.85,1343.18 401.86,1343.16" fill="none" stroke="rgb(140, 135, 112)" stroke-width="6.00" stroke-opacity="1.00" stroke-linejoin="round"/>
<path d="M401.86,1343.16 L621.15,1342.54" fill="none" stroke="rgb(140, 135, 112)" stroke-width="6.00" stroke-opacity="1.00" stroke-linejoin="round"/>
<path d="M621.15,1342.60" fill="none" stroke="rgb(140, 135, 112)" stroke-width="6.00" stroke-opacity="1.00" stroke-linejoin="round"/>
<path d="M640.20,1283.82 C640.20,1283.82 640.37,1282.91 640.37,1282.91 C640.37,1282.91 639.69,1330.53 639.69,1330.53 C639.69,1330.53 640.55,1329.76 640.55,1329.76" fill="none" stroke="rgb(0, 0, 0)" stroke-width="6.00" stroke-opacity="1.00" stroke-linejoin="round"/>
<path d="M385.42,1280.44 C385.08,1284.17 384.14,1295.31 384.20,1305.47 C384.20,1306.12 384.69,1326.12 385.11,1328.82 C385.11,1328.82 385.15,1328.55 385.15,1328.55" fill="none" stroke="rgb(0, 0, 0)" stroke-width="6.00" stroke-opacity="1.00" stroke-linejoin="round"/>
</g>
</svg>
