<?xml version="1.0" encoding="UTF-8" standalone="no"?>
<!DOCTYPE svg PUBLIC "-//W3C//DTD SVG 1.1//EN" "http://www.w3.org/Graphics/SVG/1.1/DTD/svg11.dtd">
<svg width="111.36" height="63.12" viewBox="0.00 0.00 464.00 263.00" xmlns="http://www.w3.org/2000/svg" xmlns:xlink="http://www.w3.org/1999/xlink">
<g stroke-linecap="round" transform="translate(-502.00, -333.00)" id="Layer_14_Copy">
<path d="M816.26,386.13 C815.69,387.23 812.07,388.54 810.14,389.42 C809.44,389.74 801.53,393.69 798.07,395.03 C784.75,400.14 766.85,403.43 763.33,404.28 C763.15,404.33 762.91,404.38 762.63,404.45" fill="none" stroke="rgb(213, 191, 163)" stroke-width="26.00" stroke-opacity="1.00" stroke-linejoin="round"/>
<path d="M819.60,383.09 C818.39,383.70 810.59,385.12 809.80,385.19 C808.10,385.34 801.93,385.16 799.66,385.65 C797.71,386.10 782.02,390.55 778.63,391.94 C774.94,393.49 771.11,395.87 769.61,396.44 C768.12,397.00 762.03,398.64 760.40,398.95 C759.20,399.17 749.22,403.15 748.07,403.57 C744.49,404.84 738.39,406.01 737.77,406.13 C736.39,406.41 732.37,408.26 729.98,408.42 C727.54,408.57 724.95,410.14 724.48,410.38" fill="none" stroke="rgb(213, 191, 163)" stroke-width="26.00" stroke-opacity="1.00" stroke-linejoin="round"/>
<path d="M720.64,407.94 C720.47,408.23 715.70,413.64 714.14,416.72 C713.60,417.86 712.90,419.35 712.73,419.60" fill="none" stroke="rgb(213, 191, 163)" stroke-width="26.00" stroke-opacity="1.00" stroke-linejoin="round"/>
<path d="M713.55,414.06 C714.20,415.79 714.72,417.78 715.05,420.07 C715.38,422.34 715.44,423.94 715.30,424.67" fill="none" stroke="rgb(213, 191, 163)" stroke-width="26.00" stroke-opacity="1.00" stroke-linejoin="round"/>
<path d="M713.30,426.99" fill="none" stroke="rgb(213, 191, 163)" stroke-width="26.00" stroke-opacity="1.00" stroke-linejoin="round"/>
<path d="M711.62,418.90 C712.30,420.73 712.67,425.53 712.65,428.19 C712.63,429.50 712.56,430.99 712.44,432.66" fill="none" stroke="rgb(213, 191, 163)" stroke-width="26.00" stroke-opacity="1.00" stroke-linejoin="round"/>
<path d="M713.82,427.44 C714.88,432.46 713.79,444.56 712.84,450.16 C712.18,454.04 708.64,469.52 707.29,471.61" fill="none" stroke="rgb(213, 191, 163)" stroke-width="26.00" stroke-opacity="1.00" stroke-linejoin="round"/>
<path d="M719.23,407.04 C717.11,407.47 701.38,413.19 693.75,415.25 C685.47,417.56 679.09,420.23 670.13,424.94 C660.92,429.91 653.47,434.32 648.86,438.31 C648.66,438.48 648.42,438.68 648.15,438.90" fill="none" stroke="rgb(213, 191, 163)" stroke-width="26.00" stroke-opacity="1.00" stroke-linejoin="round"/>
<path d="M668.64,420.14 C662.87,422.16 648.59,427.05 644.11,429.23 C641.11,430.76 635.33,433.60 633.99,433.85 C632.27,434.16 630.91,434.19 630.32,433.97" fill="none" stroke="rgb(213, 191, 163)" stroke-width="26.00" stroke-opacity="1.00" stroke-linejoin="round"/>
<path d="M658.11,424.20 C660.69,423.93 676.19,420.08 681.78,419.71 C685.44,419.49 692.57,419.41 696.70,419.84 C700.67,420.28 707.13,421.74 709.84,423.26 C712.47,424.77 715.59,428.17 716.60,429.50 C716.60,429.50 713.01,428.23 713.01,428.23" fill="none" stroke="rgb(213, 191, 163)" stroke-width="26.00" stroke-opacity="1.00" stroke-linejoin="round"/>
<path d="M589.29,444.45 C588.12,445.08 583.23,448.38 580.03,448.94 C575.75,449.70 569.44,453.12 568.06,453.71 C567.59,453.91 560.61,456.45 557.61,457.86" fill="none" stroke="rgb(213, 191, 163)" stroke-width="26.00" stroke-opacity="1.00" stroke-linejoin="round"/>
<path d="M540.86,474.79 C540.86,474.79 542.86,474.25 542.86,474.25" fill="none" stroke="rgb(213, 191, 163)" stroke-width="26.00" stroke-opacity="1.00" stroke-linejoin="round"/>
<path d="M519.71,481.53 C519.71,481.53 521.92,479.11 521.92,479.11" fill="none" stroke="rgb(213, 191, 163)" stroke-width="26.00" stroke-opacity="1.00" stroke-linejoin="round"/>
<path d="M521.82,471.51" fill="none" stroke="rgb(213, 191, 163)" stroke-width="26.00" stroke-opacity="1.00" stroke-linejoin="round"/>
<path d="M521.09,472.49 C521.09,472.49 521.14,472.58 521.14,472.58" fill="none" stroke="rgb(213, 191, 163)" stroke-width="26.00" stroke-opacity="1.00" stroke-linejoin="round"/>
<path d="M826.64,378.29 C825.67,379.04 814.33,383.13 811.15,383.81 C809.40,384.17 808.50,384.61 807.44,385.52" fill="none" stroke="rgb(213, 191, 163)" stroke-width="26.00" stroke-opacity="1.00" stroke-linejoin="round"/>
<path d="M822.15,382.56 C820.27,384.88 810.15,391.52 805.76,393.50 C805.53,393.61 796.23,397.89 794.57,398.45 C793.36,398.86 785.99,400.53 782.29,402.13 C779.05,403.54 776.64,404.74 774.51,405.49 C771.38,406.55 767.12,407.08 764.91,407.51 C763.54,407.71 757.50,408.06 755.68,408.47 C753.09,409.07 746.46,411.06 745.29,411.45 C744.82,411.60 744.31,411.89 743.74,412.29" fill="none" stroke="rgb(213, 191, 163)" stroke-width="26.00" stroke-opacity="1.00" stroke-linejoin="round"/>
<path d="M806.51,388.43 C808.59,389.12 812.36,388.77 815.66,387.24 C816.57,386.82 822.17,383.82 824.32,383.53 C825.21,383.41 829.35,382.69 830.11,382.33 C830.79,382.02 832.27,380.51 833.24,380.42 C833.42,380.41 833.76,380.41 834.29,380.42" fill="none" stroke="rgb(213, 191, 163)" stroke-width="26.00" stroke-opacity="1.00" stroke-linejoin="round"/>
<path d="M865.40,373.36 C860.00,375.26 854.87,376.84 851.63,377.82 C848.78,378.75 842.66,381.63 840.30,382.01 C839.89,382.07 836.41,382.16 835.24,382.27 C835.24,382.27 836.68,380.67 836.68,380.67" fill="none" stroke="rgb(213, 191, 163)" stroke-width="6.00" stroke-opacity="1.00" stroke-linejoin="round"/>
<path d="M864.20,369.67 C862.79,370.50 855.81,370.43 854.19,370.61 C852.19,370.84 845.74,372.68 843.74,373.07 C841.49,373.50 834.73,373.49 832.88,374.02 C833.10,373.90 850.61,371.97 858.87,371.39 C859.21,371.37 859.48,371.28 859.68,371.12 C859.30,370.57 856.38,369.63 852.75,370.59 C852.11,370.77 843.50,374.27 840.60,375.13 C840.03,375.30 835.27,376.46 833.89,376.85 C833.89,376.85 858.03,371.31 858.03,371.31 C852.85,371.28 836.80,377.74 836.10,378.84 C837.70,379.40 841.63,378.48 847.95,376.79 C854.17,375.13 856.36,374.61 856.47,374.68 C853.19,374.88 842.20,379.82 838.24,382.30 C836.54,383.38 835.08,385.63 835.16,385.89 C835.90,386.47 850.81,379.84 852.65,378.60 C853.89,377.75 854.82,376.94 854.84,376.73 C854.08,376.37 848.60,378.92 847.15,379.54 C845.68,380.17 839.10,382.97 838.11,384.57 C839.23,385.50 844.72,384.18 846.43,383.26 C848.30,382.22 854.04,378.52 856.78,376.75 C853.17,376.74 836.97,380.58 835.89,381.06 C835.75,381.13 835.66,381.19 835.63,381.27 C837.57,381.27 842.54,379.32 844.74,378.23 C847.88,376.63 850.25,374.20 850.21,373.20 C849.44,372.45 843.47,372.32 841.93,372.27 C840.44,372.23 834.78,371.94 834.07,372.21 C833.07,372.64 832.74,373.35 832.61,373.96 C832.61,373.96 847.41,370.57 847.41,370.57 C846.68,369.84 846.07,369.64 845.06,370.12 C843.59,370.81 834.72,375.85 833.61,376.63 C832.58,377.36 831.87,379.46 832.54,380.18 C834.72,382.30 842.57,380.77 842.74,380.79 C842.36,381.76 839.46,383.76 835.86,385.61 C831.68,387.77 825.13,391.59 824.58,391.98 C822.10,393.81 819.36,397.16 818.72,397.96 C818.72,397.96 830.81,393.13 830.81,393.13 C830.98,393.17 829.11,394.74 827.75,395.52 C826.90,396.00 817.88,399.47 816.06,401.10 C815.85,401.29 815.62,401.56 815.37,401.90 C815.37,401.90 819.41,396.32 819.41,396.32 C818.84,396.06 817.74,396.76 817.18,397.28 C817.08,397.38 816.98,397.49 816.86,397.63" fill="none" stroke="rgb(213, 191, 163)" stroke-width="6.00" stroke-opacity="1.00" stroke-linejoin="round"/>
<path d="M573.78,445.80 C573.78,445.80 574.63,447.01 574.63,447.01 C574.09,448.28 571.65,449.28 566.88,450.06 C562.69,450.74 560.01,451.77 557.85,453.41 C557.60,453.60 557.14,453.96 556.46,454.51 C557.13,453.43 561.35,449.68 564.64,448.72 C567.16,448.02 572.19,448.67 573.90,448.88 C572.75,448.88 569.59,448.89 568.96,448.88 C568.55,448.87 567.88,448.85 566.94,448.80" fill="none" stroke="rgb(213, 191, 163)" stroke-width="6.00" stroke-opacity="1.00" stroke-linejoin="round"/>
<path d="M572.66,445.70 C570.22,447.18 564.39,449.28 561.88,449.98 C556.79,451.39 551.25,452.46 551.17,452.47 C551.17,452.47 548.23,456.77 548.23,456.77" fill="none" stroke="rgb(213, 191, 163)" stroke-width="16.00" stroke-opacity="1.00" stroke-linejoin="round"/>
<path d="M561.27,447.19 C561.27,447.19 551.49,451.60 551.49,451.60 C551.49,451.60 547.88,457.76 547.88,457.76" fill="none" stroke="rgb(213, 191, 163)" stroke-width="16.00" stroke-opacity="1.00" stroke-linejoin="round"/>
<path d="M520.16,462.66 C518.22,463.67 516.66,464.71 516.13,464.98 C515.97,465.06 512.93,465.58 511.79,465.96 C511.62,469.72 515.85,474.75 517.33,476.05 C517.33,476.05 516.40,474.29 516.40,474.29 C516.40,474.29 515.89,479.10 515.89,479.10 C516.28,478.68 516.94,477.62 517.18,476.91 C517.26,476.66 517.33,476.28 517.39,475.75" fill="none" stroke="rgb(213, 191, 163)" stroke-width="16.00" stroke-opacity="1.00" stroke-linejoin="round"/>
<path d="M555.95,451.88 C552.70,455.01 541.50,460.26 532.48,463.48 C522.85,466.91 520.19,468.46 519.42,469.05" fill="none" stroke="rgb(213, 191, 163)" stroke-width="16.00" stroke-opacity="1.00" stroke-linejoin="round"/>
<path d="M549.60,452.03 C547.05,454.18 532.12,460.28 526.38,462.22 C523.83,463.09 521.10,464.21 520.17,464.62" fill="none" stroke="rgb(213, 191, 163)" stroke-width="16.00" stroke-opacity="1.00" stroke-linejoin="round"/>
<path d="M565.71,446.62 C565.71,446.62 571.88,445.17 571.88,445.17" fill="none" stroke="rgb(213, 191, 163)" stroke-width="16.00" stroke-opacity="1.00" stroke-linejoin="round"/>
<path d="M642.23,419.31 C642.29,419.31 660.94,414.75 664.76,413.68 C668.46,412.63 685.30,407.10 690.80,406.03 C691.53,405.89 692.07,405.81 692.41,405.78 C692.63,405.77 693.04,405.76 693.65,405.77" fill="none" stroke="rgb(213, 191, 163)" stroke-width="16.00" stroke-opacity="1.00" stroke-linejoin="round"/>
<path d="M687.87,406.56 C690.21,407.05 693.60,406.81 697.17,406.29 C708.37,404.64 730.43,398.20 737.95,395.75 C741.34,394.66 745.06,393.91 746.38,393.72 C746.59,393.69 746.80,393.66 747.01,393.63" fill="none" stroke="rgb(213, 191, 163)" stroke-width="16.00" stroke-opacity="1.00" stroke-linejoin="round"/>
<path d="M766.26,389.66 C753.85,394.63 733.81,400.19 724.23,402.25 C719.36,403.22 718.06,403.42 715.75,403.69" fill="none" stroke="rgb(213, 191, 163)" stroke-width="16.00" stroke-opacity="1.00" stroke-linejoin="round"/>
</g>
<g stroke-linecap="round" transform="translate(-502.00, -333.00)" id="Layer_15_Copy">
<path d="M958.44,345.83 C958.44,345.83 909.90,362.58 909.90,362.58 C910.61,362.55 911.05,362.53 911.22,362.52 C911.39,362.51 911.55,362.49 911.68,362.47" fill="none" stroke="rgb(208, 208, 208)" stroke-width="6.00" stroke-opacity="1.00" stroke-linejoin="round"/>
<path d="M954.02,348.12 C953.53,348.09 938.90,352.56 932.12,353.87 C919.62,356.20 912.93,357.67 907.02,359.71 C899.06,362.50 897.84,364.03 897.76,364.44 C899.23,365.69 912.89,362.47 920.40,359.76 C927.49,357.19 934.06,354.02 936.49,352.39 C928.28,357.42 918.74,361.78 914.08,363.31 C911.06,364.29 892.20,369.50 889.83,370.32 C889.83,370.32 926.84,354.86 926.84,354.86 C919.30,358.77 914.25,361.00 905.15,364.30 C891.58,369.22 879.26,375.71 879.38,375.73 C879.33,376.05 893.75,369.78 898.06,367.24 C898.49,366.98 899.45,366.39 900.93,365.45 C900.67,365.44 889.20,369.36 879.78,371.41 C872.46,372.94 868.95,374.39 868.47,374.64 C868.47,374.64 886.21,369.40 886.21,369.40 C884.97,370.37 866.16,377.73 865.09,378.33 C864.69,378.55 864.36,378.79 864.09,379.05 C865.61,379.26 874.66,373.51 877.02,371.40 C878.59,369.98 879.00,369.58 879.46,369.06" fill="none" stroke="rgb(208, 208, 208)" stroke-width="6.00" stroke-opacity="1.00" stroke-linejoin="round"/>
<path d="M905.14,359.43 C903.80,360.46 898.38,362.26 895.43,362.96 C888.92,364.49 861.64,364.71 857.62,365.37 C857.59,365.74 861.61,366.51 864.51,366.66 C867.86,366.79 881.08,364.13 881.81,364.31 C881.49,364.73 876.45,366.22 873.52,366.55 C871.29,366.78 864.37,366.61 861.04,366.69 C862.85,367.69 876.02,369.65 879.89,369.36 C880.79,369.29 882.09,369.17 882.49,369.14 C882.49,369.14 872.10,368.64 872.10,368.64 C872.10,368.64 871.80,369.69 871.80,369.69 C871.80,369.69 878.69,367.80 878.69,367.80 C877.68,366.84 869.98,365.20 867.97,364.87 C862.07,363.96 856.12,365.29 855.57,365.50 C855.57,365.50 864.38,363.74 864.38,363.74 C864.38,363.74 851.03,367.58 851.03,367.58 C851.03,367.58 853.20,366.80 853.20,366.80 C855.19,366.88 873.87,366.56 877.91,366.03 C891.26,364.18 907.04,358.95 910.10,357.65 C909.72,357.67 875.00,363.86 873.25,365.28 C873.73,366.16 879.97,366.54 882.88,366.36 C888.04,366.01 899.95,363.41 906.07,361.09 C913.85,358.10 918.45,355.12 918.41,354.72 C917.46,354.31 899.28,359.14 890.71,361.43 C882.13,363.75 877.14,365.69 876.39,366.40 C876.78,367.33 883.37,367.31 886.53,366.95 C900.42,365.27 917.80,357.62 920.07,356.31 C920.07,356.31 881.90,363.74 881.90,363.74 C892.74,362.60 903.28,360.93 908.94,359.16 C916.40,356.80 923.11,352.98 923.51,352.36 C922.48,352.16 908.13,356.02 900.91,357.34 C893.53,358.62 874.25,360.46 870.60,361.11 C870.18,361.72 883.12,361.93 889.52,360.80 C896.57,359.53 907.89,355.39 914.08,352.75 C909.10,355.00 897.95,358.35 892.48,359.00 C886.46,359.69 881.41,359.16 881.12,359.04 C881.38,358.62 903.07,356.14 907.08,355.47 C920.07,353.19 934.87,347.76 941.98,344.73 C941.98,344.73 923.83,351.44 923.83,351.44 C926.16,351.65 931.18,351.40 934.45,350.71 C939.51,349.61 949.93,345.26 951.11,344.76 C947.35,346.58 942.08,348.18 936.20,349.20 C929.15,350.39 928.12,351.50 927.98,351.83 C931.18,355.20 948.11,346.84 949.61,345.64 C949.38,345.35 933.61,344.87 930.50,345.60 C928.82,346.01 923.61,347.99 923.11,347.96 C922.93,347.94 922.66,347.83 922.32,347.62 C922.32,347.62 937.85,343.41 937.85,343.41 C929.34,345.43 921.63,346.88 915.92,347.14 C913.68,347.24 905.86,347.03 903.73,346.82 C911.85,347.45 919.20,347.66 923.26,345.58 C924.80,344.77 925.11,343.87 925.18,343.39 C923.55,342.50 919.71,343.33 914.27,344.73 C909.89,345.85 899.99,348.07 899.57,348.14 C899.57,348.14 917.40,342.76 917.40,342.76 C917.40,342.76 898.35,345.03 898.35,345.03 C898.70,345.35 915.35,345.22 918.89,344.34 C921.09,343.77 922.09,342.90 922.24,342.66 C920.24,341.55 906.06,341.97 901.77,342.66 C901.77,342.66 911.42,339.32 911.42,339.32 C911.42,339.32 890.47,347.87 890.47,347.87 C890.47,347.87 905.88,343.55 905.88,343.55 C896.63,348.59 872.31,355.59 870.37,356.32 C872.20,356.79 881.80,354.36 890.21,350.68 C895.50,348.36 896.56,347.97 898.65,347.40 C897.78,348.74 894.83,350.16 891.07,351.83 C883.39,355.20 865.42,361.12 865.26,361.35 C866.77,362.00 884.98,358.96 893.43,357.53 C909.77,354.63 918.61,350.17 919.06,349.83 C918.34,349.69 899.65,353.56 890.77,355.41 C881.25,357.45 876.38,359.02 875.15,359.76 C876.58,360.82 881.06,360.90 882.80,360.81 C885.13,360.66 891.83,359.62 894.98,358.71 C898.31,357.72 904.49,354.80 906.67,353.45 C909.19,351.86 911.46,349.66 911.67,349.12 C910.93,348.41 889.66,354.86 885.39,355.83 C873.23,358.57 870.40,359.37 867.54,360.60 C870.39,361.61 881.32,358.64 885.64,356.62 C887.89,355.55 891.37,353.32 891.47,352.53 C889.99,352.77 874.07,358.91 865.62,361.12 C862.66,361.87 857.64,363.15 854.46,363.67 C855.44,363.07 871.82,358.44 875.39,357.07 C876.67,356.57 877.76,356.09 879.08,355.46 C879.09,355.45 872.76,358.34 869.59,359.43 C865.03,360.93 856.98,363.30 856.26,363.72 C856.57,363.89 862.25,362.66 863.99,362.07 C865.85,361.43 873.04,358.27 873.54,358.07 C874.01,357.88 874.71,357.63 875.62,357.32" fill="none" stroke="rgb(208, 208, 208)" stroke-width="6.00" stroke-opacity="1.00" stroke-linejoin="round"/>
</g>
<g stroke-linecap="round" transform="translate(-502.00, -333.00)" id="Layer_13_Copy">
<path d="M780.90,493.79 C776.69,493.89 762.22,492.57 753.59,492.41 C737.40,492.43 712.83,492.36 695.22,490.93 C681.41,489.77 654.79,487.95 641.35,487.94 C634.27,488.03 620.98,489.66 614.34,491.64 C612.35,492.26 608.61,493.41 606.87,493.95 C604.91,494.55 601.80,495.49 600.65,495.82" fill="none" stroke="rgb(255, 255, 255)" stroke-width="26.00" stroke-opacity="1.00" stroke-linejoin="round"/>
<path d="M759.44,430.10 C759.44,430.10 761.12,429.31 761.12,429.31 C762.62,430.87 765.16,436.28 765.86,439.20 C766.47,441.82 767.02,449.07 766.89,452.59 C766.73,456.35 765.51,462.90 764.52,465.40 C763.52,467.82 760.79,471.25 759.56,471.21 C759.32,471.19 758.68,471.10 757.63,470.93" fill="none" stroke="rgb(255, 255, 255)" stroke-width="26.00" stroke-opacity="1.00" stroke-linejoin="round"/>
<path d="M755.45,430.55 C754.93,429.79 752.47,427.69 748.97,427.30 C746.64,427.06 741.20,428.29 740.24,428.18" fill="none" stroke="rgb(255, 255, 255)" stroke-width="26.00" stroke-opacity="1.00" stroke-linejoin="round"/>
<path d="M739.48,427.34 C739.52,429.37 738.32,432.26 736.49,436.14 C733.92,441.61 731.47,450.74 731.20,455.90 C731.10,458.01 731.13,459.37 731.26,460.61" fill="none" stroke="rgb(255, 255, 255)" stroke-width="26.00" stroke-opacity="1.00" stroke-linejoin="round"/>
<path d="M746.15,436.02 C747.82,438.36 749.41,442.36 750.23,445.32 C751.78,451.01 752.99,462.69 752.90,467.33 C752.77,472.48 752.44,476.70 751.87,479.54 C750.97,483.82 749.72,487.95 749.02,488.82 C748.94,488.93 748.75,489.11 748.45,489.37" fill="none" stroke="rgb(255, 255, 255)" stroke-width="26.00" stroke-opacity="1.00" stroke-linejoin="round"/>
<path d="M745.95,443.74 C745.49,447.95 744.92,464.66 744.19,469.61 C743.19,476.28 741.04,482.42 739.78,484.13" fill="none" stroke="rgb(255, 255, 255)" stroke-width="26.00" stroke-opacity="1.00" stroke-linejoin="round"/>
<path d="M728.38,475.23 C726.11,473.68 722.48,471.82 719.10,470.75 C713.42,469.01 702.30,468.70 690.62,468.82 C679.09,469.04 673.32,469.60 663.51,471.46 C662.23,471.71 659.60,472.20 658.26,472.44 C656.90,472.67 653.38,472.85 653.29,472.83" fill="none" stroke="rgb(255, 255, 255)" stroke-width="26.00" stroke-opacity="1.00" stroke-linejoin="round"/>
<path d="M718.78,459.87 C715.61,455.49 705.02,446.07 700.04,443.16 C697.36,441.61 691.80,439.24 689.88,438.67 C687.84,438.10 683.88,438.01 683.23,438.05 C683.05,438.06 682.89,438.09 682.76,438.14" fill="none" stroke="rgb(255, 255, 255)" stroke-width="26.00" stroke-opacity="1.00" stroke-linejoin="round"/>
<path d="M703.58,444.83 C701.64,441.79 692.60,431.51 690.56,430.26 C690.22,430.05 689.77,429.92 689.20,429.87" fill="none" stroke="rgb(255, 255, 255)" stroke-width="26.00" stroke-opacity="1.00" stroke-linejoin="round"/>
<path d="M685.74,430.78 C683.52,431.19 682.25,431.67 681.20,432.67 C679.16,434.62 670.02,445.52 665.39,449.17 C664.57,449.81 662.77,451.23 661.69,452.12 C661.48,452.30 661.33,452.42 661.24,452.50" fill="none" stroke="rgb(255, 255, 255)" stroke-width="26.00" stroke-opacity="1.00" stroke-linejoin="round"/>
<path d="M666.03,445.77 C663.30,447.03 661.85,447.80 660.21,448.90 C654.39,452.85 642.66,462.36 639.94,465.10 C636.17,468.92 633.70,473.92 632.47,477.24 C632.31,477.70 632.15,478.15 631.98,478.61" fill="none" stroke="rgb(255, 255, 255)" stroke-width="26.00" stroke-opacity="1.00" stroke-linejoin="round"/>
<path d="M656.05,451.28 C654.93,453.22 652.19,455.99 649.20,458.51 C641.83,464.49 634.00,471.68 630.63,476.02 C627.89,479.58 627.36,482.18 627.45,483.11" fill="none" stroke="rgb(255, 255, 255)" stroke-width="26.00" stroke-opacity="1.00" stroke-linejoin="round"/>
<path d="M631.12,470.21 C630.62,472.08 627.61,477.21 625.80,479.51 C623.92,481.88 616.26,489.01 616.53,489.41 C618.81,489.39 634.06,483.42 638.35,482.11 C641.81,481.07 662.29,475.92 664.83,475.40 C674.81,473.38 696.91,472.99 699.61,471.68 C701.20,470.85 702.55,467.88 702.40,465.76 C702.21,463.72 699.94,459.42 698.37,457.59 C696.72,455.72 693.01,453.38 691.03,452.91 C689.14,452.50 685.21,452.85 683.34,453.70 C681.40,454.62 678.35,457.34 676.79,459.37 C675.09,461.65 673.56,466.85 674.23,468.43 C675.08,470.26 677.71,472.45 679.84,473.28 C683.39,474.63 695.31,474.35 699.13,473.13 C701.30,472.41 703.51,471.38 704.02,470.80 C705.05,469.52 705.32,466.58 704.66,465.04 C704.07,463.75 700.85,460.20 699.29,459.07 C697.73,457.96 693.22,455.90 689.44,455.78 C688.59,455.77 687.18,456.47 686.85,456.84 C685.97,457.99 686.79,462.12 688.51,464.59 C694.77,473.38 711.39,484.79 714.04,485.71 C713.51,484.10 712.89,483.13 711.59,482.10 C709.63,480.58 707.01,478.56 706.36,478.07" fill="none" stroke="rgb(255, 255, 255)" stroke-width="26.00" stroke-opacity="1.00" stroke-linejoin="round"/>
<path d="M619.88,473.78 C616.17,469.00 608.24,463.64 605.13,462.35" fill="none" stroke="rgb(255, 255, 255)" stroke-width="26.00" stroke-opacity="1.00" stroke-linejoin="round"/>
<path d="M553.89,460.11 C554.04,460.91 554.20,461.72 554.35,462.52 C554.59,463.75 554.83,464.97 555.06,466.20 C555.30,467.42 555.53,468.65 555.77,469.88 C555.93,470.68 556.08,471.49 556.24,472.29" fill="none" stroke="rgb(255, 255, 255)" stroke-width="26.00" stroke-opacity="1.00" stroke-linejoin="round"/>
<path d="M558.38,471.16 C556.54,471.68 553.65,473.16 549.77,475.01 C546.41,476.60 539.86,479.69 538.21,481.08 C537.68,481.53 534.82,484.34 534.47,484.44 C537.77,488.38 548.36,500.45 550.89,503.59 C553.51,506.87 559.60,515.55 560.45,516.58" fill="none" stroke="rgb(255, 255, 255)" stroke-width="26.00" stroke-opacity="1.00" stroke-linejoin="round"/>
<path d="M546.78,500.84 C547.95,502.48 550.99,510.35 552.29,512.52 C553.48,514.46 559.24,519.28 559.71,519.79 C560.09,520.20 563.34,524.41 564.87,524.64 C564.77,524.61 570.97,526.62 574.84,526.95 C576.35,527.07 583.94,527.07 586.33,526.97" fill="none" stroke="rgb(255, 255, 255)" stroke-width="26.00" stroke-opacity="1.00" stroke-linejoin="round"/>
<path d="M576.36,528.01 C576.61,528.17 579.38,528.66 580.73,528.71 C581.62,528.73 584.15,526.69 588.03,525.01 C589.76,524.27 595.13,524.04 596.31,523.70 C598.33,523.00 603.95,521.36 604.51,521.12 C605.04,520.90 607.75,519.45 607.65,519.54 C607.65,519.54 597.05,523.83 597.05,523.83 C598.68,524.20 603.53,523.22 606.58,522.18 C612.05,520.26 615.03,517.83 615.43,517.21 C614.88,515.90 614.55,515.38 613.86,515.27 C612.14,515.05 610.55,515.53 608.60,516.92 C607.78,517.52 604.36,519.90 604.32,520.17 C606.14,521.17 610.90,520.91 613.88,519.81 C616.24,518.90 621.10,516.26 622.11,515.32 C623.60,513.90 624.78,511.89 625.44,509.90 C625.44,509.90 614.89,516.33 614.89,516.33 C615.41,516.47 622.38,516.67 624.66,516.40 C626.83,516.13 632.57,513.83 634.55,511.82 C635.72,510.61 636.40,509.36 636.42,508.72 C635.84,508.40 634.16,508.24 633.49,508.18 C631.61,508.02 629.66,507.69 628.82,507.43" fill="none" stroke="rgb(255, 255, 255)" stroke-width="26.00" stroke-opacity="1.00" stroke-linejoin="round"/>
<path d="M768.58,460.05 C771.46,460.02 774.36,460.12 775.86,460.39 C778.83,460.95 785.78,464.37 788.98,466.67 C791.60,468.68 796.51,472.30 798.72,473.10 C798.72,473.10 797.45,471.79 797.45,471.79" fill="none" stroke="rgb(255, 255, 255)" stroke-width="26.00" stroke-opacity="1.00" stroke-linejoin="round"/>
<path d="M779.08,459.60 C784.60,461.49 792.09,465.88 795.42,468.59 C799.08,471.59 805.86,479.95 808.06,484.31 C809.08,486.36 809.53,488.02 809.25,488.39" fill="none" stroke="rgb(255, 255, 255)" stroke-width="26.00" stroke-opacity="1.00" stroke-linejoin="round"/>
<path d="M780.47,457.16 C782.51,457.86 786.27,460.58 791.00,464.68 C799.23,472.16 804.29,477.84 804.58,479.77" fill="none" stroke="rgb(255, 255, 255)" stroke-width="26.00" stroke-opacity="1.00" stroke-linejoin="round"/>
<path d="M797.61,471.43 C803.38,474.03 813.34,481.16 815.44,484.33 C816.81,486.46 817.52,491.67 816.74,492.57 C816.43,492.92 815.48,493.71 813.89,494.94" fill="none" stroke="rgb(255, 255, 255)" stroke-width="26.00" stroke-opacity="1.00" stroke-linejoin="round"/>
<path d="M811.71,481.60 C814.02,482.95 817.20,485.83 818.03,487.35 C818.47,488.22 818.88,489.90 818.78,490.58 C818.49,492.04 814.56,495.24 811.79,496.77 C809.29,498.14 803.31,501.35 802.43,501.79 C800.55,502.70 799.22,503.06 797.86,503.07" fill="none" stroke="rgb(255, 255, 255)" stroke-width="26.00" stroke-opacity="1.00" stroke-linejoin="round"/>
<path d="M811.30,497.95 C811.30,497.95 811.87,499.60 811.87,499.60 C810.27,501.26 795.25,508.83 793.51,509.78 C788.77,512.36 779.41,519.27 777.52,519.52 C777.13,519.56 776.57,519.46 775.83,519.20" fill="none" stroke="rgb(255, 255, 255)" stroke-width="26.00" stroke-opacity="1.00" stroke-linejoin="round"/>
<path d="M798.11,507.03 C797.92,508.39 797.55,509.17 796.47,509.97 C794.19,511.63 774.16,524.83 770.87,526.18 C768.15,527.26 764.74,527.43 764.19,527.29 C764.07,527.25 763.79,527.15 763.36,526.97" fill="none" stroke="rgb(255, 255, 255)" stroke-width="26.00" stroke-opacity="1.00" stroke-linejoin="round"/>
<path d="M766.09,525.28 C764.42,526.51 763.30,527.10 761.71,527.47 C757.88,528.32 752.32,528.44 749.73,527.38 C748.71,526.93 746.17,524.81 745.22,524.03 C744.76,523.65 744.06,523.12 743.12,522.43" fill="none" stroke="rgb(255, 255, 255)" stroke-width="26.00" stroke-opacity="1.00" stroke-linejoin="round"/>
<path d="M747.43,526.77 C745.69,527.35 743.92,527.54 742.27,527.13 C739.01,526.29 736.02,523.78 734.05,521.53 C733.83,521.27 733.46,520.81 732.95,520.15" fill="none" stroke="rgb(255, 255, 255)" stroke-width="26.00" stroke-opacity="1.00" stroke-linejoin="round"/>
<path d="M763.84,513.22 C765.68,512.65 767.28,511.51 767.99,510.01 C768.48,508.96 769.03,503.44 768.60,501.43 C768.15,499.50 765.98,494.85 764.27,492.50 C762.52,490.16 758.67,486.50 756.45,485.16 C753.99,483.73 749.16,482.87 746.56,483.13 C744.01,483.43 738.51,485.92 736.11,487.63 C733.98,489.17 730.06,493.14 729.36,494.72 C728.61,496.47 727.97,499.00 728.04,499.98 C728.24,501.99 729.90,505.48 731.42,507.03 C733.15,508.73 737.81,510.86 741.21,511.55 C747.76,512.84 760.06,512.20 765.93,511.19 C769.95,510.48 776.21,508.41 778.81,506.62 C781.36,504.79 784.35,499.71 784.85,496.64 C785.26,493.82 784.57,487.55 783.48,484.60 C782.35,481.66 778.75,476.06 776.53,473.98 C774.16,471.84 768.90,469.70 766.13,469.72 C763.40,469.78 758.14,472.08 755.35,474.21 C752.78,476.21 748.82,480.79 747.45,483.18 C746.09,485.61 745.20,489.94 745.59,492.01 C746.04,494.09 748.80,497.67 751.01,498.94 C753.23,500.17 758.73,501.39 762.12,501.52 C765.97,501.63 772.05,500.69 774.96,499.67 C777.54,498.74 782.64,495.40 783.83,493.84 C785.09,492.11 785.85,487.53 785.36,485.16 C784.80,482.71 782.07,477.53 779.50,474.35 C776.62,470.84 772.76,467.33 769.77,465.29 C767.18,463.53 763.74,461.87 761.68,461.17 C760.00,460.61 754.94,459.59 751.79,459.62 C748.28,459.68 741.12,462.01 738.29,463.55 C738.02,463.70 737.62,463.93 737.08,464.25" fill="none" stroke="rgb(255, 255, 255)" stroke-width="26.00" stroke-opacity="1.00" stroke-linejoin="round"/>
<path d="M750.48,493.07 C754.66,494.24 760.23,494.72 761.38,494.59 C763.09,494.40 770.41,492.74 774.02,491.91 C779.25,490.63 783.91,489.12 785.48,487.90 C787.61,486.19 789.14,484.74 789.45,483.99 C789.76,483.16 789.76,481.78 789.45,481.21 C788.57,479.79 784.81,477.41 782.43,477.06 C779.82,476.72 775.43,478.24 772.30,480.10 C770.68,481.09 756.92,492.28 756.60,492.59 C756.36,492.84 756.07,493.21 755.75,493.70" fill="none" stroke="rgb(255, 255, 255)" stroke-width="26.00" stroke-opacity="1.00" stroke-linejoin="round"/>
<path d="M731.75,499.85 C731.48,500.18 717.59,509.62 716.07,510.67 C713.50,512.41 708.96,514.50 706.49,514.86 C704.02,515.18 700.10,514.94 695.74,513.82 C692.59,513.01 689.72,512.38 688.26,512.22 C687.86,512.18 687.46,512.20 687.06,512.27" fill="none" stroke="rgb(255, 255, 255)" stroke-width="26.00" stroke-opacity="1.00" stroke-linejoin="round"/>
<path d="M713.18,508.65 C713.52,509.88 713.40,510.96 712.41,511.82 C710.23,513.68 705.39,516.00 702.49,517.11 C697.70,518.90 685.48,523.54 684.82,523.63 C684.70,523.64 684.37,523.67 683.85,523.70" fill="none" stroke="rgb(255, 255, 255)" stroke-width="26.00" stroke-opacity="1.00" stroke-linejoin="round"/>
<path d="M707.50,511.36 C707.50,511.36 708.14,512.81 708.14,512.81 C707.52,514.66 704.26,519.97 702.66,521.89 C701.06,523.77 697.70,526.33 695.51,527.45 C693.72,528.33 690.78,529.26 687.66,530.11 C687.48,530.16 687.32,530.21 687.20,530.25" fill="none" stroke="rgb(255, 255, 255)" stroke-width="26.00" stroke-opacity="1.00" stroke-linejoin="round"/>
<path d="M688.00,514.39 C687.49,517.33 686.51,523.24 686.04,526.22 C684.85,534.02 682.43,550.38 682.21,556.56 C681.99,563.41 682.55,569.51 682.88,571.47 C682.91,571.64 682.95,571.82 683.01,572.01" fill="none" stroke="rgb(255, 255, 255)" stroke-width="26.00" stroke-opacity="1.00" stroke-linejoin="round"/>
<path d="M676.33,523.88 C675.31,526.74 674.79,541.79 675.43,550.08 C676.08,558.20 677.95,570.05 678.07,571.56 C678.09,571.75 678.09,571.90 678.08,572.01" fill="none" stroke="rgb(255, 255, 255)" stroke-width="26.00" stroke-opacity="1.00" stroke-linejoin="round"/>
<path d="M673.46,557.44 C673.46,557.44 679.16,580.39 679.16,580.39 C680.62,580.46 682.09,579.86 683.46,578.45 C684.99,576.84 686.74,572.59 686.81,569.16 C686.82,568.47 686.68,564.23 686.64,563.79 C686.61,563.38 686.52,562.67 686.39,561.66" fill="none" stroke="rgb(255, 255, 255)" stroke-width="26.00" stroke-opacity="1.00" stroke-linejoin="round"/>
<path d="M684.65,571.08 C685.30,564.45 685.27,550.40 685.20,542.79 C684.93,533.84 683.95,520.77 683.51,517.91 C683.46,517.62 683.36,517.11 683.21,516.38" fill="none" stroke="rgb(255, 255, 255)" stroke-width="26.00" stroke-opacity="1.00" stroke-linejoin="round"/>
<path d="M680.27,519.95 C680.27,519.95 682.32,519.36 682.32,519.36 C683.14,518.19 683.71,514.70 683.35,511.76 C682.91,508.42 680.96,503.12 679.31,500.02 C677.72,497.09 674.21,492.25 672.10,490.13 C669.73,487.84 666.42,487.06 665.13,487.26 C664.05,488.40 663.47,489.38 663.22,490.80 C662.76,493.59 663.25,500.46 664.28,504.22 C667.75,516.46 677.84,531.91 679.11,533.66 C678.58,530.91 672.40,518.01 669.87,513.49 C666.41,507.35 659.31,497.51 655.50,494.61 C653.85,493.35 651.85,492.15 650.72,491.65" fill="none" stroke="rgb(255, 255, 255)" stroke-width="26.00" stroke-opacity="1.00" stroke-linejoin="round"/>
<path d="M650.78,509.11 C650.78,509.11 669.44,528.94 669.44,528.94 C669.44,528.94 647.34,498.76 647.34,498.76" fill="none" stroke="rgb(255, 255, 255)" stroke-width="26.00" stroke-opacity="1.00" stroke-linejoin="round"/>
<path d="M690.80,507.71 C693.57,507.90 695.30,507.98 695.94,507.89 C696.81,507.73 697.75,507.05 698.10,506.30 C698.70,504.89 698.58,500.15 697.56,497.27 C695.52,491.71 687.65,481.13 684.27,478.23 C680.77,475.29 675.42,472.55 672.14,472.06 C670.76,471.88 668.71,471.90 667.50,472.04 C667.28,472.07 666.95,472.12 666.51,472.20" fill="none" stroke="rgb(255, 255, 255)" stroke-width="26.00" stroke-opacity="1.00" stroke-linejoin="round"/>
<path d="M638.00,508.38 C635.10,510.08 631.36,510.53 628.87,510.84 C623.62,511.54 613.31,513.71 611.27,513.80 C611.12,513.81 610.94,513.81 610.72,513.80" fill="none" stroke="rgb(255, 255, 255)" stroke-width="26.00" stroke-opacity="1.00" stroke-linejoin="round"/>
<path d="M613.64,507.12 C613.64,507.12 615.14,507.30 615.14,507.30 C615.69,505.30 614.97,500.46 613.97,497.30 C612.93,494.07 609.87,487.07 608.04,483.61 C604.06,476.18 597.20,468.25 595.92,467.11" fill="none" stroke="rgb(255, 255, 255)" stroke-width="26.00" stroke-opacity="1.00" stroke-linejoin="round"/>
<path d="M581.19,485.86 C581.11,488.69 581.69,494.44 582.69,497.23 C583.60,499.62 586.40,503.43 588.04,504.68 C589.72,505.91 593.05,506.68 594.79,506.15 C596.50,505.59 600.09,502.70 601.44,500.84 C602.85,498.82 604.22,494.10 604.16,491.40 C604.06,488.57 601.95,482.25 600.14,479.54 C598.30,476.86 593.35,472.74 590.70,471.66 C588.13,470.65 582.50,470.46 580.02,471.32 C577.46,472.26 572.85,476.14 571.25,478.84 C569.61,481.71 568.46,487.92 568.91,490.99 C569.32,493.54 572.57,499.78 574.58,502.42 C576.77,505.27 581.83,510.92 584.86,513.48 C587.66,515.79 591.66,517.34 593.10,516.88 C594.42,516.36 595.34,511.99 594.87,508.63 C594.41,505.50 591.90,498.52 591.03,496.83 C590.23,495.30 587.30,490.92 586.27,489.68 C585.03,488.21 579.50,483.55 576.54,482.02 C573.32,480.41 566.92,479.08 564.20,479.31 C561.67,479.57 558.01,481.46 557.35,483.04 C556.71,484.78 558.04,489.29 560.06,491.94 C563.47,496.33 576.35,508.43 580.18,510.55 C581.92,511.51 583.99,512.18 584.23,512.00 C584.66,511.47 584.06,508.15 582.63,505.22 C580.86,501.70 576.15,496.17 573.07,493.97 C568.22,490.60 560.31,487.64 558.28,486.90 C557.64,486.67 557.01,486.44 556.37,486.20" fill="none" stroke="rgb(255, 255, 255)" stroke-width="26.00" stroke-opacity="1.00" stroke-linejoin="round"/>
<path d="M621.91,455.80 C621.91,455.80 628.90,443.21 628.90,443.21" fill="none" stroke="rgb(255, 255, 255)" stroke-width="26.00" stroke-opacity="1.00" stroke-linejoin="round"/>
<path d="M613.04,431.19 C613.04,431.19 608.80,438.37 608.80,438.37" fill="none" stroke="rgb(255, 255, 255)" stroke-width="26.00" stroke-opacity="1.00" stroke-linejoin="round"/>
<path d="M612.64,428.89 C612.64,428.89 612.55,428.92 612.55,428.92" fill="none" stroke="rgb(255, 255, 255)" stroke-width="26.00" stroke-opacity="1.00" stroke-linejoin="round"/>
<path d="M607.40,440.14 C607.40,440.14 603.61,448.39 603.61,448.39" fill="none" stroke="rgb(255, 255, 255)" stroke-width="26.00" stroke-opacity="1.00" stroke-linejoin="round"/>
<path d="M610.44,431.47 C610.44,431.47 609.44,434.38 609.44,434.38" fill="none" stroke="rgb(255, 255, 255)" stroke-width="26.00" stroke-opacity="1.00" stroke-linejoin="round"/>
<path d="M622.91,438.86 C622.91,438.86 623.95,438.77 623.95,438.77 C623.95,438.77 622.82,435.97 622.82,435.97" fill="none" stroke="rgb(255, 255, 255)" stroke-width="26.00" stroke-opacity="1.00" stroke-linejoin="round"/>
<path d="M609.72,451.19 C609.84,455.65 609.69,459.41 609.43,463.09 C609.29,464.99 609.12,466.36 608.84,468.00" fill="none" stroke="rgb(255, 255, 255)" stroke-width="26.00" stroke-opacity="1.00" stroke-linejoin="round"/>
<path d="M627.22,433.88 C628.27,433.51 628.46,432.63 627.45,431.64 C627.23,431.43 626.83,431.16 626.24,430.84" fill="none" stroke="rgb(255, 255, 255)" stroke-width="26.00" stroke-opacity="1.00" stroke-linejoin="round"/>
<path d="M625.83,433.06 C625.83,433.06 626.52,431.75 626.52,431.75 C625.54,430.48 622.97,428.78 621.21,428.60 C620.24,428.52 619.36,428.76 618.56,429.22" fill="none" stroke="rgb(255, 255, 255)" stroke-width="26.00" stroke-opacity="1.00" stroke-linejoin="round"/>
<path d="M622.14,428.50 C622.14,428.50 619.21,428.38 619.21,428.38" fill="none" stroke="rgb(255, 255, 255)" stroke-width="26.00" stroke-opacity="1.00" stroke-linejoin="round"/>
<path d="M606.63,426.61 C606.63,426.61 587.67,442.09 587.67,442.09 C599.55,429.68 605.23,425.77 605.37,425.80 C600.30,431.35 590.47,442.20 589.76,443.56 C589.65,443.79 589.55,444.11 589.46,444.53" fill="none" stroke="rgb(255, 255, 255)" stroke-width="16.00" stroke-opacity="1.00" stroke-linejoin="round"/>
<path d="M601.56,432.89 C599.47,434.18 591.87,443.64 587.30,450.09 C585.25,452.95 578.83,461.08 578.16,461.92 C583.40,456.38 589.80,451.11 596.65,446.33 C599.23,444.56 604.35,441.51 605.64,441.05 C605.64,441.05 580.05,466.00 580.05,466.00 C579.85,464.88 589.95,454.01 594.14,450.38 C596.56,448.29 603.16,443.49 605.46,442.20 C605.46,442.20 563.48,468.68 563.48,468.68 C563.48,468.68 564.98,468.04 564.98,468.04" fill="none" stroke="rgb(255, 255, 255)" stroke-width="16.00" stroke-opacity="1.00" stroke-linejoin="round"/>
<path d="M582.02,452.75 C580.82,453.18 579.52,453.73 577.37,454.72 C572.25,457.11 564.90,462.07 560.86,466.04 C556.99,469.89 552.64,476.36 552.89,476.61 C553.02,476.71 553.55,476.81 554.49,476.90" fill="none" stroke="rgb(255, 255, 255)" stroke-width="16.00" stroke-opacity="1.00" stroke-linejoin="round"/>
<path d="M581.64,455.22 C580.51,454.54 576.71,454.99 574.44,455.95 C570.33,457.76 559.19,467.51 554.80,472.79 C552.09,476.09 548.13,481.77 547.60,484.04 C547.43,484.85 547.90,486.68 549.26,488.19" fill="none" stroke="rgb(255, 255, 255)" stroke-width="16.00" stroke-opacity="1.00" stroke-linejoin="round"/>
<path d="M568.93,457.80 C566.10,458.20 561.33,460.51 559.08,462.34 C557.00,464.09 553.32,468.22 551.67,470.81 C550.12,473.28 547.92,478.38 547.16,481.21 C546.34,484.42 546.33,488.70 546.55,490.66 C546.58,490.96 546.62,491.13 546.66,491.18" fill="none" stroke="rgb(255, 255, 255)" stroke-width="16.00" stroke-opacity="1.00" stroke-linejoin="round"/>
<path d="M565.95,458.95 C561.01,461.70 551.94,469.67 549.08,474.16 C547.63,476.46 545.18,481.54 544.43,485.05 C543.46,489.68 545.25,493.51 545.95,494.68 C546.07,494.89 546.17,495.02 546.24,495.08" fill="none" stroke="rgb(255, 255, 255)" stroke-width="16.00" stroke-opacity="1.00" stroke-linejoin="round"/>
<path d="M656.97,444.50 C657.60,443.21 661.28,439.51 663.12,438.07 C665.42,436.30 671.51,432.76 673.70,431.77 C674.72,431.32 676.18,430.80 676.94,430.58" fill="none" stroke="rgb(255, 255, 255)" stroke-width="16.00" stroke-opacity="1.00" stroke-linejoin="round"/>
<path d="M706.04,436.09 C706.79,436.69 708.55,438.10 709.57,438.91 C713.02,441.64 721.29,449.54 721.56,449.82 C721.75,450.02 722.12,450.46 722.68,451.14" fill="none" stroke="rgb(255, 255, 255)" stroke-width="16.00" stroke-opacity="1.00" stroke-linejoin="round"/>
</g>
<g stroke-linecap="round" transform="translate(-502.00, -333.00)" id="Layer_16_Copy">
<path d="M703.36,466.84 C702.12,466.09 689.35,466.35 682.11,467.94 C679.97,468.41 677.89,468.23 677.52,467.78 C680.03,466.77 686.00,466.48 689.23,466.32 C692.82,466.20 702.38,467.84 703.53,467.86 C703.53,467.86 689.10,466.19 689.10,466.19 C690.41,466.28 711.06,467.64 712.24,467.47 C713.19,467.34 713.99,466.84 714.27,466.44 C714.27,466.44 706.15,463.97 706.15,463.97 C706.26,464.78 708.66,466.15 710.61,466.63 C712.73,467.13 715.42,467.37 718.00,467.37 C718.00,467.37 711.17,464.99 711.17,464.99 C711.17,464.99 719.37,466.33 719.37,466.33 C719.37,466.33 718.39,466.01 718.39,466.01 C718.66,466.16 720.14,470.17 720.02,470.90 C720.02,470.93 720.29,471.16 721.31,472.16 C720.86,471.54 720.20,471.38 719.98,471.24 C717.96,470.08 711.32,469.26 709.80,469.02 C709.09,468.90 701.00,466.93 699.48,467.04 C699.11,467.07 693.52,467.53 693.03,467.04 C693.10,466.17 695.31,465.54 697.21,465.50 C699.67,465.48 704.80,467.07 705.93,467.64 C705.93,467.64 683.64,467.57 683.64,467.57 C683.64,467.57 690.65,466.35 690.65,466.35 C687.30,468.57 686.29,472.59 685.67,476.87 C685.67,476.87 685.52,471.48 685.52,471.48 C685.52,471.48 685.21,487.05 685.21,487.05 C685.21,487.05 685.90,488.35 685.90,488.35 C685.37,486.67 682.82,483.38 681.63,483.53 C677.74,484.24 678.02,488.98 678.20,489.46 C678.20,489.46 678.04,486.62 678.04,486.62 C678.04,486.62 677.90,487.65 677.90,487.65 C677.90,487.65 678.93,488.10 678.93,488.10 C678.93,488.10 681.14,462.92 681.14,462.92 C681.14,462.92 680.32,478.57 680.32,478.57 C680.32,478.57 682.43,456.14 682.43,456.14 C682.43,456.14 685.00,461.09 685.00,461.09 C686.00,460.13 684.52,447.63 684.72,447.22 C684.72,447.22 686.36,454.68 686.36,454.68 C689.03,454.51 686.36,445.27 686.03,445.34 C686.03,445.34 686.28,451.94 686.28,451.94 C686.28,451.94 684.03,447.14 684.03,447.14 C683.15,446.73 684.28,457.46 685.52,457.80 C685.52,457.80 685.80,456.66 685.80,456.66 C685.46,456.75 683.91,462.56 681.80,466.69 C681.54,467.17 681.23,467.72 681.22,467.83 C681.22,467.83 681.49,466.64 681.49,466.64 C680.00,464.89 677.68,463.77 675.48,463.65 C670.42,463.56 659.96,462.27 656.71,463.39 C656.17,463.58 654.79,464.19 654.09,464.34 C657.30,463.06 665.42,463.87 668.20,463.97 C668.20,463.97 643.78,463.76 643.78,463.76 C644.52,465.04 647.33,464.35 647.90,463.66 C647.90,463.66 643.63,464.03 643.63,464.03 C643.63,464.03 643.23,469.65 643.23,469.65 C647.31,469.08 656.14,467.86 658.66,467.83 C661.15,467.82 671.54,470.19 672.35,470.19 C671.69,469.12 666.23,466.69 662.74,466.12 C657.52,465.30 652.75,465.67 652.36,465.96 C653.04,467.59 679.41,469.72 679.59,469.59 C678.73,467.59 669.28,465.64 667.17,465.82 C669.55,468.63 679.35,470.28 680.95,470.17 C681.53,469.11 681.51,468.15 680.71,466.89 C680.58,466.68 680.26,466.19 679.73,465.42" fill="none" stroke="rgb(233, 233, 233)" stroke-width="16.00" stroke-opacity="1.00" stroke-linejoin="round"/>
</g>
<g stroke-linecap="round" transform="translate(-502.00, -333.00)" id="Layer_11_Copy_3">
<path d="M753.44,496.04 C747.39,502.08 737.22,510.95 732.78,514.54 C726.45,519.47 709.76,531.94 707.78,533.55 C704.97,535.86 702.16,538.93 701.88,539.34 C701.66,539.65 701.18,540.41 700.44,541.61" fill="none" stroke="rgb(0, 0, 0)" stroke-width="6.38" stroke-opacity="1.00" stroke-linejoin="round"/>
<path d="M665.64,539.10 C660.46,535.76 653.83,529.73 647.19,521.82 C637.15,509.38 623.06,491.12 618.88,485.57 C617.45,483.64 614.64,479.72 613.98,478.79" fill="none" stroke="rgb(0, 0, 0)" stroke-width="6.38" stroke-opacity="1.00" stroke-linejoin="round"/>
<path d="M701.88,537.08 C701.71,538.15 701.61,538.79 701.57,539.00 C701.54,539.21 701.51,539.30 701.50,539.25" fill="none" stroke="rgb(0, 0, 0)" stroke-width="6.38" stroke-opacity="1.00" stroke-linejoin="round"/>
<path d="M699.54,534.25 C699.77,540.31 700.01,551.67 700.54,561.72 C701.68,578.00 702.02,582.32 701.20,584.49 C700.75,585.58 690.97,590.47 688.91,591.17 C686.55,591.96 680.01,592.88 676.80,593.71 C675.44,594.04 674.22,593.88 673.34,593.17 C671.93,591.96 667.88,586.02 666.49,582.89 C665.40,580.41 662.39,571.07 661.79,568.52 C661.00,565.17 660.63,559.44 660.62,556.51 C660.64,551.73 663.37,539.09 664.07,535.99" fill="none" stroke="rgb(0, 0, 0)" stroke-width="6.38" stroke-opacity="1.00" stroke-linejoin="round"/>
<path d="M613.16,479.33 C613.16,479.33 618.53,488.32 618.53,488.32" fill="none" stroke="rgb(0, 0, 0)" stroke-width="7.00" stroke-opacity="0.90" stroke-linejoin="round"/>
<path d="M698.76,523.16 C698.76,523.16 699.54,541.25 699.54,541.25" fill="none" stroke="rgb(0, 0, 0)" stroke-width="6.38" stroke-opacity="1.00" stroke-linejoin="round"/>
<path d="M664.07,542.99 C665.94,534.33 666.39,525.71 667.35,523.23 C667.99,521.69 670.38,519.21 671.79,518.67 C674.21,517.83 685.11,518.63 686.11,518.73 C688.82,519.00 694.03,519.08 697.07,519.13" fill="none" stroke="rgb(0, 0, 0)" stroke-width="6.38" stroke-opacity="1.00" stroke-linejoin="round"/>
<path d="M703.27,426.36 C711.27,431.94 721.69,441.37 726.16,446.31 C731.96,452.77 755.45,487.21 756.12,488.46 C756.70,489.60 756.62,491.53 755.96,493.03 C755.45,494.13 754.38,495.41 753.60,496.10" fill="none" stroke="rgb(0, 0, 0)" stroke-width="6.38" stroke-opacity="1.00" stroke-linejoin="round"/>
<path d="M615.49,479.46 C615.49,479.46 614.27,477.55 614.27,477.55" fill="none" stroke="rgb(0, 0, 0)" stroke-width="6.38" stroke-opacity="1.00" stroke-linejoin="round"/>
<path d="M682.33,418.15 C679.78,420.43 665.27,429.28 658.64,433.31 C652.71,437.07 641.53,446.75 636.35,451.32 C623.26,463.21 611.69,475.47 610.34,477.14" fill="none" stroke="rgb(0, 0, 0)" stroke-width="6.38" stroke-opacity="1.00" stroke-linejoin="round"/>
<path d="M731.12,455.84 C731.12,455.84 727.71,454.90 727.71,454.90" fill="none" stroke="rgb(0, 0, 0)" stroke-width="6.38" stroke-opacity="1.00" stroke-linejoin="round"/>
<path d="M611.20,474.32 C611.20,474.32 614.63,479.98 614.63,479.98" fill="none" stroke="rgb(0, 0, 0)" stroke-width="7.00" stroke-opacity="0.90" stroke-linejoin="round"/>
<path d="M706.82,429.62 C704.80,428.20 691.90,417.79 689.44,417.09 C689.20,417.03 688.84,416.93 688.35,416.78" fill="none" stroke="rgb(0, 0, 0)" stroke-width="7.00" stroke-opacity="0.90" stroke-linejoin="round"/>
<path d="M690.16,416.62 C686.37,417.95 681.24,420.35 678.59,421.76 C676.63,422.82 671.94,426.44 671.62,426.63 C671.46,426.73 671.34,426.75 671.25,426.68" fill="none" stroke="rgb(0, 0, 0)" stroke-width="7.00" stroke-opacity="0.90" stroke-linejoin="round"/>
<path d="M693.69,475.66 C693.69,475.66 693.57,496.37 693.57,496.37 C692.42,495.87 685.67,494.92 682.18,494.44 C677.68,493.86 672.76,493.96 672.28,494.74 C672.55,491.65 673.37,482.61 673.53,481.30 C673.83,478.81 674.24,476.09 674.48,474.86" fill="none" stroke="rgb(0, 0, 0)" stroke-width="6.00" stroke-opacity="1.00" stroke-linejoin="round"/>
<path d="M692.12,476.19 C695.76,475.39 699.18,475.51 702.49,475.75 C707.79,476.18 719.42,477.96 722.79,478.28 C724.62,478.46 725.48,478.35 725.95,478.03" fill="none" stroke="rgb(0, 0, 0)" stroke-width="6.00" stroke-opacity="1.00" stroke-linejoin="round"/>
<path d="M729.96,480.23 C730.30,477.42 728.88,468.44 728.77,466.75 C728.76,466.49 728.76,466.21 728.78,465.91" fill="none" stroke="rgb(0, 0, 0)" stroke-width="6.00" stroke-opacity="1.00" stroke-linejoin="round"/>
<path d="M723.19,459.49 C723.19,459.49 694.89,458.79 694.89,458.79" fill="none" stroke="rgb(0, 0, 0)" stroke-width="6.00" stroke-opacity="1.00" stroke-linejoin="round"/>
<path d="M671.90,475.40 C669.04,475.41 661.92,475.46 657.66,475.50 C653.40,475.54 643.08,475.63 642.76,475.62 C641.12,475.54 638.91,475.05 638.39,474.95 C638.24,474.92 638.08,474.92 637.90,474.97" fill="none" stroke="rgb(0, 0, 0)" stroke-width="6.00" stroke-opacity="1.00" stroke-linejoin="round"/>
<path d="M637.94,475.53 C637.94,475.53 638.84,459.63 638.84,459.63 C638.81,459.04 640.86,458.64 647.64,457.72 C651.51,457.22 659.64,456.17 662.51,456.26 C664.51,456.33 673.03,456.84 673.66,456.84 C674.07,456.83 674.72,456.79 675.60,456.70" fill="none" stroke="rgb(0, 0, 0)" stroke-width="6.00" stroke-opacity="1.00" stroke-linejoin="round"/>
<path d="M675.58,456.98 C676.77,451.31 677.70,439.86 677.72,439.69 C677.84,439.07 678.85,439.26 679.21,439.33 C683.32,440.15 693.93,439.48 694.07,439.66 C694.35,439.98 693.54,449.92 693.40,451.08 C693.33,451.68 693.19,452.76 692.96,454.33" fill="none" stroke="rgb(0, 0, 0)" stroke-width="6.00" stroke-opacity="1.00" stroke-linejoin="round"/>
<path d="M619.49,456.31 C617.07,455.05 612.17,453.32 607.67,452.37 C605.95,452.01 596.84,450.45 594.73,449.78 C593.52,449.38 587.36,446.83 584.83,446.17 C582.51,445.62 578.96,447.01 574.63,449.61 C571.76,451.31 567.27,452.32 564.92,452.77 C555.88,455.01 540.92,467.08 540.39,467.42 C540.05,467.64 539.36,467.99 538.34,468.50" fill="none" stroke="rgb(0, 0, 0)" stroke-width="6.00" stroke-opacity="1.00" stroke-linejoin="round"/>
<path d="M603.64,535.31 C599.78,537.84 595.86,539.45 592.81,540.19 C587.54,541.41 582.43,542.68 580.66,542.61 C577.41,542.45 573.00,540.79 570.18,539.23 C563.29,535.22 551.70,528.50 551.52,528.39 C551.16,528.16 550.50,527.72 549.54,527.07" fill="none" stroke="rgb(0, 0, 0)" stroke-width="6.00" stroke-opacity="1.00" stroke-linejoin="round"/>
<path d="M550.51,528.39 C549.41,525.11 547.46,521.56 545.18,518.46 C531.36,499.91 524.54,488.94 524.40,488.23 C523.61,483.64 525.63,478.11 526.20,476.91" fill="none" stroke="rgb(0, 0, 0)" stroke-width="6.00" stroke-opacity="1.00" stroke-linejoin="round"/>
<path d="M534.13,467.92 C534.13,467.92 534.99,467.32 534.99,467.32" fill="none" stroke="rgb(0, 0, 0)" stroke-width="6.00" stroke-opacity="1.00" stroke-linejoin="round"/>
<path d="M719.89,527.23 C719.22,526.65 718.73,526.20 718.41,525.88 C718.10,525.56 717.52,524.94 716.67,524.01" fill="none" stroke="rgb(0, 0, 0)" stroke-width="6.00" stroke-opacity="1.00" stroke-linejoin="round"/>
<path d="M633.74,509.56 C633.74,509.56 633.36,511.18 633.36,511.18" fill="none" stroke="rgb(0, 0, 0)" stroke-width="6.00" stroke-opacity="1.00" stroke-linejoin="round"/>
<path d="M643.57,520.57 C640.74,523.51 637.23,526.21 634.32,527.69 C630.65,529.54 599.33,540.35 595.76,540.52 C595.36,540.53 594.48,540.53 593.12,540.51" fill="none" stroke="rgb(0, 0, 0)" stroke-width="6.00" stroke-opacity="1.00" stroke-linejoin="round"/>
<path d="M539.76,465.85 C539.12,466.66 533.86,471.24 532.84,472.10 C532.26,472.58 526.20,477.59 525.43,479.53 C525.00,480.61 524.79,483.54 524.70,484.23 C524.68,484.43 524.62,484.56 524.50,484.64" fill="none" stroke="rgb(0, 0, 0)" stroke-width="6.00" stroke-opacity="1.00" stroke-linejoin="round"/>
<path d="M616.01,454.01 C617.14,453.69 618.50,453.84 620.03,454.73 C622.98,456.43 625.47,458.93 625.85,459.47" fill="none" stroke="rgb(0, 0, 0)" stroke-width="6.00" stroke-opacity="1.00" stroke-linejoin="round"/>
<path d="M733.14,455.13 C733.14,455.13 733.18,454.99 733.18,454.99 C733.18,454.99 736.16,454.40 736.16,454.40" fill="none" stroke="rgb(0, 0, 0)" stroke-width="6.00" stroke-opacity="1.00" stroke-linejoin="round"/>
<path d="M742.71,449.99 C748.70,448.44 756.07,447.61 768.46,446.78 C771.82,446.55 779.29,446.00 780.30,446.05 C785.61,446.31 788.82,446.94 791.67,448.93 C792.01,449.18 818.33,467.28 819.25,467.92 C819.50,468.09 819.75,468.27 820.00,468.45" fill="none" stroke="rgb(0, 0, 0)" stroke-width="6.20" stroke-opacity="1.00" stroke-linejoin="round"/>
<path d="M818.95,465.53 C820.78,467.38 824.10,471.43 826.31,474.66 C828.16,477.42 829.13,482.23 829.49,484.47 C830.00,486.75 832.86,495.13 832.87,495.35 C832.91,496.44 831.61,497.76 829.70,499.13 C829.56,499.23 815.68,509.22 814.65,509.96 C814.65,509.96 814.01,510.41 814.01,510.41" fill="none" stroke="rgb(0, 0, 0)" stroke-width="6.20" stroke-opacity="1.00" stroke-linejoin="round"/>
<path d="M792.87,529.47 C789.19,532.27 776.44,537.06 769.47,539.00 C764.60,540.33 753.89,540.43 742.76,539.45 C741.38,539.32 737.18,538.88 736.13,538.51 C733.48,537.57 729.00,532.09 727.29,531.20 C726.80,530.95 725.94,530.77 724.71,530.67" fill="none" stroke="rgb(0, 0, 0)" stroke-width="6.20" stroke-opacity="1.00" stroke-linejoin="round"/>
<path d="M732.09,537.05 C730.21,535.38 725.39,531.08 722.46,528.47 C721.65,527.75 720.83,527.03 720.02,526.30" fill="none" stroke="rgb(0, 0, 0)" stroke-width="6.20" stroke-opacity="1.00" stroke-linejoin="round"/>
<path d="M736.83,451.03 C739.69,450.38 745.59,449.07 748.63,448.41 C748.99,448.33 749.28,448.26 749.50,448.20" fill="none" stroke="rgb(0, 0, 0)" stroke-width="6.20" stroke-opacity="1.00" stroke-linejoin="round"/>
<path d="M789.96,531.08 C791.49,530.44 796.85,527.40 799.44,525.51 C804.06,522.11 810.51,515.18 810.90,514.81 C811.20,514.53 811.65,514.18 812.25,513.76" fill="none" stroke="rgb(0, 0, 0)" stroke-width="6.20" stroke-opacity="1.00" stroke-linejoin="round"/>
<path d="M805.92,518.65 C808.85,517.47 812.16,515.63 815.21,513.32 C817.67,511.42 820.13,509.02 821.46,507.70 C821.75,507.41 821.95,507.22 822.07,507.13" fill="none" stroke="rgb(0, 0, 0)" stroke-width="6.20" stroke-opacity="1.00" stroke-linejoin="round"/>
<path d="M737.99,450.16 C737.99,450.16 730.83,451.80 730.83,451.80" fill="none" stroke="rgb(0, 0, 0)" stroke-width="6.00" stroke-opacity="1.00" stroke-linejoin="round"/>
<path d="M728.42,468.41 C728.95,467.08 728.52,462.74 728.48,460.99 C728.47,460.63 728.46,460.30 728.44,460.00 C728.44,459.91 728.43,459.81 728.42,459.70" fill="none" stroke="rgb(0, 0, 0)" stroke-width="6.00" stroke-opacity="1.00" stroke-linejoin="round"/>
<path d="M728.14,460.61 C727.34,460.03 726.08,459.63 723.62,459.27 C721.98,459.04 720.77,458.88 720.01,458.81 C719.57,458.77 719.02,458.75 718.34,458.76 C718.21,458.76 718.13,458.76 718.11,458.76" fill="none" stroke="rgb(0, 0, 0)" stroke-width="6.00" stroke-opacity="1.00" stroke-linejoin="round"/>
<path d="M728.73,478.81 C727.71,478.46 726.28,478.30 723.87,478.34 C722.60,478.36 718.48,478.41 717.65,478.24 C717.34,478.17 716.75,477.99 715.89,477.68" fill="none" stroke="rgb(0, 0, 0)" stroke-width="6.00" stroke-opacity="1.00" stroke-linejoin="round"/>
<path d="M694.29,458.67 C694.60,457.74 693.76,452.05 693.68,449.43 C693.67,449.06 693.68,448.89 693.70,448.91" fill="none" stroke="rgb(0, 0, 0)" stroke-width="6.00" stroke-opacity="1.00" stroke-linejoin="round"/>
</g>
<g stroke-linecap="round" transform="translate(-502.00, -333.00)" id="Layer_12_Copy_2">
<path d="M776.96,448.46 C778.30,447.45 779.21,446.45 779.50,445.31 C780.04,443.13 780.09,438.23 779.60,434.66 C779.00,430.45 777.86,427.30 775.97,424.85 C775.75,424.56 775.31,424.02 774.66,423.21 C774.66,423.21 774.33,422.93 774.33,422.93" fill="none" stroke="rgb(0, 0, 0)" stroke-width="5.64" stroke-opacity="1.00" stroke-linejoin="round"/>
<path d="M771.99,421.32 C769.31,419.97 762.49,417.90 761.08,417.59 C758.97,417.13 753.43,416.35 749.05,415.58 C745.20,414.96 740.62,415.17 737.61,416.36 C734.44,417.68 729.62,421.83 727.31,425.53 C725.40,428.67 721.65,439.47 720.35,442.23" fill="none" stroke="rgb(0, 0, 0)" stroke-width="5.64" stroke-opacity="1.00" stroke-linejoin="round"/>
<path d="M521.35,480.72 C521.35,480.72 539.44,474.50 539.44,474.50" fill="none" stroke="rgb(0, 0, 0)" stroke-width="5.64" stroke-opacity="1.00" stroke-linejoin="round"/>
<path d="M636.26,448.13 C636.26,448.13 635.54,448.59 635.54,448.59" fill="none" stroke="rgb(0, 0, 0)" stroke-width="6.00" stroke-opacity="1.00" stroke-linejoin="round"/>
<path d="M581.07,444.28 C581.07,444.28 580.54,444.97 580.54,444.97" fill="none" stroke="rgb(0, 0, 0)" stroke-width="5.64" stroke-opacity="1.00" stroke-linejoin="round"/>
<path d="M641.67,441.07 C641.67,441.07 636.38,448.42 636.38,448.42" fill="none" stroke="rgb(0, 0, 0)" stroke-width="6.00" stroke-opacity="1.00" stroke-linejoin="round"/>
<path d="M581.80,433.82 C581.80,433.82 579.70,434.82 579.70,434.82" fill="none" stroke="rgb(0, 0, 0)" stroke-width="5.64" stroke-opacity="1.00" stroke-linejoin="round"/>
<path d="M522.15,490.83 C522.15,490.83 528.22,487.81 528.22,487.81" fill="none" stroke="rgb(0, 0, 0)" stroke-width="5.64" stroke-opacity="1.00" stroke-linejoin="round"/>
<path d="M768.89,418.71 C768.89,418.71 767.06,419.20 767.06,419.20 C766.97,418.98 766.93,418.83 766.92,418.74 C766.91,418.66 766.94,418.50 766.99,418.29" fill="none" stroke="rgb(0, 0, 0)" stroke-width="7.00" stroke-opacity="0.90" stroke-linejoin="round"/>
<path d="M641.46,435.41 C641.69,433.11 641.56,431.47 640.84,428.78 C640.11,426.16 639.03,423.16 638.27,422.05 C637.35,420.75 635.29,419.39 633.52,418.71 C630.29,417.55 626.59,416.80 623.83,416.55 C620.90,416.31 615.21,416.72 612.28,417.38 C609.24,418.09 603.16,420.52 600.22,422.20 C597.58,423.73 593.53,426.61 590.67,429.18 C587.36,432.20 585.73,434.32 584.23,437.43 C581.92,442.26 581.41,443.22 580.47,444.79" fill="none" stroke="rgb(0, 0, 0)" stroke-width="5.64" stroke-opacity="1.00" stroke-linejoin="round"/>
<path d="M634.03,418.96 C633.37,419.08 632.87,419.16 632.54,419.20 C632.21,419.24 631.58,419.31 630.66,419.39" fill="none" stroke="rgb(0, 0, 0)" stroke-width="5.64" stroke-opacity="1.00" stroke-linejoin="round"/>
<path d="M640.38,431.10 C641.93,433.26 641.29,439.96 640.73,441.87" fill="none" stroke="rgb(0, 0, 0)" stroke-width="6.00" stroke-opacity="1.00" stroke-linejoin="round"/>
<path d="M629.47,416.38 C627.82,416.77 626.80,417.01 626.41,417.11 C626.01,417.22 625.69,417.33 625.44,417.44" fill="none" stroke="rgb(0, 0, 0)" stroke-width="7.00" stroke-opacity="0.90" stroke-linejoin="round"/>
<path d="M593.60,424.03 C593.60,424.03 590.47,424.11 590.47,424.11" fill="none" stroke="rgb(0, 0, 0)" stroke-width="7.00" stroke-opacity="0.90" stroke-linejoin="round"/>
<path d="M590.60,431.76 C590.60,431.76 580.10,435.27 580.10,435.27" fill="none" stroke="rgb(0, 0, 0)" stroke-width="5.64" stroke-opacity="1.00" stroke-linejoin="round"/>
<path d="M637.67,421.12 C636.92,421.40 636.44,421.56 636.23,421.62 C636.02,421.68 635.79,421.73 635.53,421.75" fill="none" stroke="rgb(0, 0, 0)" stroke-width="7.00" stroke-opacity="0.90" stroke-linejoin="round"/>
<path d="M867.50,381.52 C873.97,378.95 903.36,368.94 915.87,365.65 C919.97,364.56 926.39,362.41 929.90,360.75 C933.08,359.23 935.59,357.66 938.98,355.07 C939.63,354.57 940.29,354.07 940.94,353.57" fill="none" stroke="rgb(0, 0, 0)" stroke-width="6.00" stroke-opacity="1.00" stroke-linejoin="round"/>
<path d="M851.59,364.63 C851.59,364.63 852.41,364.40 852.41,364.40 C862.65,361.36 872.64,358.64 880.99,357.15 C883.24,356.75 904.06,353.48 910.57,352.17 C917.87,350.62 932.57,347.47 939.96,345.88 C946.88,344.46 950.58,343.79 951.60,343.60" fill="none" stroke="rgb(0, 0, 0)" stroke-width="6.00" stroke-opacity="1.00" stroke-linejoin="round"/>
<path d="M932.39,359.90 C935.14,358.93 941.34,356.71 944.55,355.37 C951.97,352.27 960.10,347.38 962.67,345.79 C962.98,345.59 963.50,345.29 964.22,344.88" fill="none" stroke="rgb(0, 0, 0)" stroke-width="6.00" stroke-opacity="1.00" stroke-linejoin="round"/>
<path d="M957.40,343.50 C954.40,343.27 932.59,348.84 928.81,349.53 C928.41,349.60 927.67,349.70 926.58,349.83 C926.30,349.86 925.90,349.92 925.36,350.00" fill="none" stroke="rgb(0, 0, 0)" stroke-width="6.00" stroke-opacity="1.00" stroke-linejoin="round"/>
<path d="M951.34,340.80 C948.31,340.72 941.32,340.49 940.05,340.40 C936.48,340.15 918.98,337.98 911.70,336.35 C908.89,335.97 902.80,338.19 899.17,340.01 C891.75,343.80 876.56,351.51 871.49,353.54 C867.82,354.99 853.80,360.06 853.41,360.22 C853.08,360.34 852.59,360.56 851.93,360.86" fill="none" stroke="rgb(0, 0, 0)" stroke-width="6.00" stroke-opacity="1.00" stroke-linejoin="round"/>
<path d="M776.30,412.03 C781.35,411.55 791.74,408.80 800.46,405.60 C807.18,403.04 826.01,395.84 826.95,395.55" fill="none" stroke="rgb(0, 0, 0)" stroke-width="5.64" stroke-opacity="1.00" stroke-linejoin="round"/>
<path d="M839.89,387.12 C855.12,380.52 869.41,372.45 871.14,370.91 C870.67,369.77 866.96,369.36 863.90,369.35 C856.63,369.32 843.67,369.16 832.96,368.24 C829.56,367.98 826.16,368.92 825.31,369.41 C825.13,369.51 824.82,369.73 824.40,370.04" fill="none" stroke="rgb(0, 0, 0)" stroke-width="5.64" stroke-opacity="1.00" stroke-linejoin="round"/>
<path d="M825.62,367.15 C822.57,368.66 803.16,373.88 786.94,377.02 C770.58,380.65 756.57,384.98 733.00,389.91 C720.87,392.54 705.06,394.84 683.97,399.62 C674.60,401.99 656.00,408.11 654.50,408.54" fill="none" stroke="rgb(0, 0, 0)" stroke-width="5.64" stroke-opacity="1.00" stroke-linejoin="round"/>
<path d="M788.54,411.22 C788.54,411.22 786.41,408.99 786.41,408.99" fill="none" stroke="rgb(0, 0, 0)" stroke-width="5.64" stroke-opacity="1.00" stroke-linejoin="round"/>
<path d="M841.97,387.14 C839.02,388.86 832.49,392.60 829.86,393.82 C829.67,393.91 820.59,397.89 818.99,398.67 C817.93,399.20 815.46,400.54 814.89,400.83 C814.71,400.92 814.49,401.02 814.23,401.11" fill="none" stroke="rgb(0, 0, 0)" stroke-width="6.00" stroke-opacity="1.00" stroke-linejoin="round"/>
<path d="M656.77,406.54 C656.77,406.54 637.40,413.30 637.40,413.30" fill="none" stroke="rgb(0, 0, 0)" stroke-width="7.00" stroke-opacity="0.90" stroke-linejoin="round"/>
<path d="M800.54,408.17 C800.54,408.17 790.11,409.28 790.11,409.28 C790.42,409.29 790.63,409.29 790.74,409.29 C790.84,409.29 790.99,409.28 791.18,409.27" fill="none" stroke="rgb(0, 0, 0)" stroke-width="7.00" stroke-opacity="0.90" stroke-linejoin="round"/>
<path d="M855.95,381.90 C857.74,380.13 861.04,378.29 863.58,377.32 C863.87,377.21 864.39,377.04 865.13,376.80" fill="none" stroke="rgb(0, 0, 0)" stroke-width="7.00" stroke-opacity="0.90" stroke-linejoin="round"/>
<path d="M788.00,411.48 C788.00,411.48 787.54,411.41 787.54,411.41 C786.31,411.35 785.56,411.33 785.30,411.34 C785.03,411.35 784.88,411.42 784.84,411.54" fill="none" stroke="rgb(0, 0, 0)" stroke-width="7.00" stroke-opacity="0.90" stroke-linejoin="round"/>
<path d="M863.39,380.10 C863.76,378.35 864.55,376.05 865.34,374.77 C865.57,374.40 865.97,373.90 866.54,373.26" fill="none" stroke="rgb(0, 0, 0)" stroke-width="7.00" stroke-opacity="0.90" stroke-linejoin="round"/>
<path d="M858.91,381.99 C858.91,381.99 862.76,381.32 862.76,381.32" fill="none" stroke="rgb(0, 0, 0)" stroke-width="6.00" stroke-opacity="1.00" stroke-linejoin="round"/>
<path d="M841.47,367.03 C841.47,367.03 849.48,365.99 849.48,365.99" fill="none" stroke="rgb(0, 0, 0)" stroke-width="6.00" stroke-opacity="1.00" stroke-linejoin="round"/>
<path d="M643.66,410.79 C642.02,412.11 636.81,414.05 634.52,414.73 C632.73,415.26 629.45,415.87 628.95,415.94 C628.80,415.97 628.68,415.98 628.57,415.98" fill="none" stroke="rgb(0, 0, 0)" stroke-width="6.00" stroke-opacity="1.00" stroke-linejoin="round"/>
<path d="M576.18,434.96 C570.05,437.60 555.62,443.72 549.10,445.59 C545.59,446.57 538.22,448.65 534.37,449.76 C525.97,452.28 519.87,457.01 517.16,457.97 C516.64,458.15 507.13,460.26 506.16,460.95 C504.99,461.85 504.18,463.81 504.46,465.38 C505.28,469.63 510.21,482.77 510.32,483.09 C510.90,484.68 511.40,485.41 512.16,485.46 C512.89,485.49 514.57,485.03 515.54,484.64" fill="none" stroke="rgb(0, 0, 0)" stroke-width="5.64" stroke-opacity="1.00" stroke-linejoin="round"/>
<path d="M524.41,481.11 C522.56,482.05 518.26,483.93 515.05,484.79 C514.04,485.06 513.24,485.12 512.68,485.08" fill="none" stroke="rgb(0, 0, 0)" stroke-width="6.00" stroke-opacity="1.00" stroke-linejoin="round"/>
<path d="M586.62,431.86 C584.63,433.11 579.72,435.10 576.83,435.95 C574.10,436.73 569.91,437.57 568.87,437.77 C568.59,437.81 568.32,437.86 568.05,437.91" fill="none" stroke="rgb(0, 0, 0)" stroke-width="6.00" stroke-opacity="1.00" stroke-linejoin="round"/>
<path d="M790.84,407.34 C789.77,408.00 779.59,411.78 770.24,414.39 C766.64,415.36 760.49,417.00 756.93,417.89" fill="none" stroke="rgb(0, 0, 0)" stroke-width="6.00" stroke-opacity="1.00" stroke-linejoin="round"/>
<path d="M873.49,377.55 C872.71,378.14 868.30,379.39 864.50,380.24 C857.31,381.75 848.29,384.08 847.74,384.20 C847.38,384.28 846.76,384.41 845.89,384.57" fill="none" stroke="rgb(0, 0, 0)" stroke-width="6.00" stroke-opacity="1.00" stroke-linejoin="round"/>
<path d="M958.23,347.59 C958.23,347.59 963.51,343.93 963.51,343.93 C962.56,343.26 961.20,342.60 957.99,343.15 C957.47,343.24 950.11,344.88 949.45,344.99 C949.00,345.06 948.08,345.18 946.68,345.35" fill="none" stroke="rgb(0, 0, 0)" stroke-width="6.00" stroke-opacity="1.00" stroke-linejoin="round"/>
<path d="M860.70,361.07 C859.30,362.27 854.53,364.63 850.85,365.69 C848.37,366.37 838.85,367.92 837.51,368.09 C837.17,368.14 836.79,368.17 836.39,368.20" fill="none" stroke="rgb(0, 0, 0)" stroke-width="6.00" stroke-opacity="1.00" stroke-linejoin="round"/>
</g>
</svg>
