<?xml version="1.0" encoding="UTF-8" standalone="no"?>
<!DOCTYPE svg PUBLIC "-//W3C//DTD SVG 1.1//EN" "http://www.w3.org/Graphics/SVG/1.1/DTD/svg11.dtd">
<svg width="111.36" height="63.36" viewBox="0.00 0.00 464.00 264.00" xmlns="http://www.w3.org/2000/svg" xmlns:xlink="http://www.w3.org/1999/xlink">
<g stroke-linecap="round" transform="translate(-386.00, -333.00)" id="Layer_14">
<path d="M534.74,386.13 C535.31,387.23 538.93,388.54 540.86,389.42 C541.56,389.74 549.47,393.69 552.93,395.03 C566.25,400.14 584.15,403.43 587.67,404.28 C587.85,404.33 588.09,404.38 588.37,404.45" fill="none" stroke="rgb(213, 191, 163)" stroke-width="26.00" stroke-opacity="1.00" stroke-linejoin="round"/>
<path d="M531.40,383.09 C532.61,383.70 540.41,385.12 541.20,385.19 C542.90,385.34 549.07,385.16 551.34,385.65 C553.29,386.10 568.98,390.55 572.37,391.94 C576.06,393.49 579.89,395.87 581.39,396.44 C582.88,397.00 588.97,398.64 590.60,398.95 C591.80,399.17 601.78,403.15 602.93,403.57 C606.51,404.84 612.61,406.01 613.23,406.13 C614.61,406.41 618.63,408.26 621.02,408.42 C623.46,408.57 626.05,410.14 626.52,410.38" fill="none" stroke="rgb(213, 191, 163)" stroke-width="26.00" stroke-opacity="1.00" stroke-linejoin="round"/>
<path d="M630.36,407.94 C630.53,408.23 635.30,413.64 636.86,416.72 C637.40,417.86 638.10,419.35 638.27,419.60" fill="none" stroke="rgb(213, 191, 163)" stroke-width="26.00" stroke-opacity="1.00" stroke-linejoin="round"/>
<path d="M637.45,414.06 C636.80,415.79 636.28,417.78 635.95,420.07 C635.62,422.34 635.56,423.94 635.70,424.67" fill="none" stroke="rgb(213, 191, 163)" stroke-width="26.00" stroke-opacity="1.00" stroke-linejoin="round"/>
<path d="M637.70,426.99" fill="none" stroke="rgb(213, 191, 163)" stroke-width="26.00" stroke-opacity="1.00" stroke-linejoin="round"/>
<path d="M639.38,418.90 C638.70,420.73 638.33,425.53 638.35,428.19 C638.37,429.50 638.44,430.99 638.56,432.66" fill="none" stroke="rgb(213, 191, 163)" stroke-width="26.00" stroke-opacity="1.00" stroke-linejoin="round"/>
<path d="M637.18,427.44 C636.12,432.46 637.21,444.56 638.16,450.16 C638.82,454.04 642.36,469.52 643.71,471.61" fill="none" stroke="rgb(213, 191, 163)" stroke-width="26.00" stroke-opacity="1.00" stroke-linejoin="round"/>
<path d="M631.77,407.04 C633.89,407.47 649.62,413.19 657.25,415.25 C665.53,417.56 671.91,420.23 680.87,424.94 C690.08,429.91 697.53,434.32 702.14,438.31 C702.34,438.48 702.58,438.68 702.85,438.90" fill="none" stroke="rgb(213, 191, 163)" stroke-width="26.00" stroke-opacity="1.00" stroke-linejoin="round"/>
<path d="M682.36,420.14 C688.13,422.16 702.41,427.05 706.89,429.23 C709.89,430.76 715.67,433.60 717.01,433.85 C718.73,434.16 720.09,434.19 720.68,433.97" fill="none" stroke="rgb(213, 191, 163)" stroke-width="26.00" stroke-opacity="1.00" stroke-linejoin="round"/>
<path d="M692.89,424.20 C690.31,423.93 674.81,420.08 669.22,419.71 C665.56,419.49 658.43,419.41 654.30,419.84 C650.33,420.28 643.87,421.74 641.16,423.26 C638.53,424.77 635.41,428.17 634.40,429.50 C634.40,429.50 637.99,428.23 637.99,428.23" fill="none" stroke="rgb(213, 191, 163)" stroke-width="26.00" stroke-opacity="1.00" stroke-linejoin="round"/>
<path d="M761.71,444.45 C762.88,445.08 767.77,448.38 770.97,448.94 C775.25,449.70 781.56,453.12 782.94,453.71 C783.41,453.91 790.39,456.45 793.39,457.86" fill="none" stroke="rgb(213, 191, 163)" stroke-width="26.00" stroke-opacity="1.00" stroke-linejoin="round"/>
<path d="M810.14,474.79 C810.14,474.79 808.14,474.25 808.14,474.25" fill="none" stroke="rgb(213, 191, 163)" stroke-width="26.00" stroke-opacity="1.00" stroke-linejoin="round"/>
<path d="M831.29,481.53 C831.29,481.53 829.08,479.11 829.08,479.11" fill="none" stroke="rgb(213, 191, 163)" stroke-width="26.00" stroke-opacity="1.00" stroke-linejoin="round"/>
<path d="M829.18,471.51" fill="none" stroke="rgb(213, 191, 163)" stroke-width="26.00" stroke-opacity="1.00" stroke-linejoin="round"/>
<path d="M829.91,472.49 C829.91,472.49 829.86,472.58 829.86,472.58" fill="none" stroke="rgb(213, 191, 163)" stroke-width="26.00" stroke-opacity="1.00" stroke-linejoin="round"/>
<path d="M524.36,378.29 C525.33,379.04 536.67,383.13 539.85,383.81 C541.60,384.17 542.50,384.61 543.56,385.52" fill="none" stroke="rgb(213, 191, 163)" stroke-width="26.00" stroke-opacity="1.00" stroke-linejoin="round"/>
<path d="M528.85,382.56 C530.73,384.88 540.85,391.52 545.24,393.50 C545.47,393.61 554.77,397.89 556.43,398.45 C557.64,398.86 565.01,400.53 568.71,402.13 C571.95,403.54 574.36,404.74 576.49,405.49 C579.62,406.55 583.88,407.08 586.09,407.51 C587.46,407.71 593.50,408.06 595.32,408.47 C597.91,409.07 604.54,411.06 605.71,411.45 C606.18,411.60 606.69,411.89 607.26,412.29" fill="none" stroke="rgb(213, 191, 163)" stroke-width="26.00" stroke-opacity="1.00" stroke-linejoin="round"/>
<path d="M544.49,388.43 C542.41,389.12 538.64,388.77 535.34,387.24 C534.43,386.82 528.83,383.82 526.68,383.53 C525.79,383.41 521.65,382.69 520.89,382.33 C520.21,382.02 518.73,380.51 517.76,380.42 C517.58,380.41 517.24,380.41 516.71,380.42" fill="none" stroke="rgb(213, 191, 163)" stroke-width="26.00" stroke-opacity="1.00" stroke-linejoin="round"/>
<path d="M485.60,373.36 C491.00,375.26 496.13,376.84 499.37,377.82 C502.22,378.75 508.34,381.63 510.70,382.01 C511.11,382.07 514.59,382.16 515.76,382.27 C515.76,382.27 514.32,380.67 514.32,380.67" fill="none" stroke="rgb(213, 191, 163)" stroke-width="6.00" stroke-opacity="1.00" stroke-linejoin="round"/>
<path d="M486.80,369.67 C488.21,370.50 495.19,370.43 496.81,370.61 C498.81,370.84 505.26,372.68 507.26,373.07 C509.51,373.50 516.27,373.49 518.12,374.02 C517.90,373.90 500.39,371.97 492.13,371.39 C491.79,371.37 491.52,371.28 491.32,371.12 C491.70,370.57 494.62,369.63 498.25,370.59 C498.89,370.77 507.50,374.27 510.40,375.13 C510.97,375.30 515.73,376.46 517.11,376.85 C517.11,376.85 492.97,371.31 492.97,371.31 C498.15,371.28 514.20,377.74 514.90,378.84 C513.30,379.40 509.37,378.48 503.05,376.79 C496.83,375.13 494.64,374.61 494.53,374.68 C497.81,374.88 508.80,379.82 512.76,382.30 C514.46,383.38 515.92,385.63 515.84,385.89 C515.10,386.47 500.19,379.84 498.35,378.60 C497.11,377.75 496.18,376.94 496.16,376.73 C496.92,376.37 502.40,378.92 503.85,379.54 C505.32,380.17 511.90,382.97 512.89,384.57 C511.77,385.50 506.28,384.18 504.57,383.26 C502.70,382.22 496.96,378.52 494.22,376.75 C497.83,376.74 514.03,380.58 515.11,381.06 C515.25,381.13 515.34,381.19 515.37,381.27 C513.43,381.27 508.46,379.32 506.26,378.23 C503.12,376.63 500.75,374.20 500.79,373.20 C501.56,372.45 507.53,372.32 509.07,372.27 C510.56,372.23 516.22,371.94 516.93,372.21 C517.93,372.64 518.26,373.35 518.39,373.96 C518.39,373.96 503.59,370.57 503.59,370.57 C504.32,369.84 504.93,369.64 505.94,370.12 C507.41,370.81 516.28,375.85 517.39,376.63 C518.42,377.36 519.13,379.46 518.46,380.18 C516.28,382.30 508.43,380.77 508.26,380.79 C508.64,381.76 511.54,383.76 515.14,385.61 C519.32,387.77 525.87,391.59 526.42,391.98 C528.90,393.81 531.64,397.16 532.28,397.96 C532.28,397.96 520.19,393.13 520.19,393.13 C520.02,393.17 521.89,394.74 523.25,395.52 C524.10,396.00 533.12,399.47 534.94,401.10 C535.15,401.29 535.38,401.56 535.63,401.90 C535.63,401.90 531.59,396.32 531.59,396.32 C532.16,396.06 533.26,396.76 533.82,397.28 C533.92,397.38 534.02,397.49 534.14,397.63" fill="none" stroke="rgb(213, 191, 163)" stroke-width="6.00" stroke-opacity="1.00" stroke-linejoin="round"/>
<path d="M777.22,445.80 C777.22,445.80 776.37,447.01 776.37,447.01 C776.91,448.28 779.35,449.28 784.12,450.06 C788.31,450.74 790.99,451.77 793.15,453.41 C793.40,453.60 793.86,453.96 794.54,454.51 C793.87,453.43 789.65,449.68 786.36,448.72 C783.84,448.02 778.81,448.67 777.10,448.88 C778.25,448.88 781.41,448.89 782.04,448.88 C782.45,448.87 783.12,448.85 784.06,448.80" fill="none" stroke="rgb(213, 191, 163)" stroke-width="6.00" stroke-opacity="1.00" stroke-linejoin="round"/>
<path d="M778.34,445.70 C780.78,447.18 786.61,449.28 789.12,449.98 C794.21,451.39 799.75,452.46 799.83,452.47 C799.83,452.47 802.77,456.77 802.77,456.77" fill="none" stroke="rgb(213, 191, 163)" stroke-width="16.00" stroke-opacity="1.00" stroke-linejoin="round"/>
<path d="M789.73,447.19 C789.73,447.19 799.51,451.60 799.51,451.60 C799.51,451.60 803.12,457.76 803.12,457.76" fill="none" stroke="rgb(213, 191, 163)" stroke-width="16.00" stroke-opacity="1.00" stroke-linejoin="round"/>
<path d="M830.84,462.66 C832.78,463.67 834.34,464.71 834.87,464.98 C835.03,465.06 838.07,465.58 839.21,465.96 C839.38,469.72 835.15,474.75 833.67,476.05 C833.67,476.05 834.60,474.29 834.60,474.29 C834.60,474.29 835.11,479.10 835.11,479.10 C834.72,478.68 834.06,477.62 833.82,476.91 C833.74,476.66 833.67,476.28 833.61,475.75" fill="none" stroke="rgb(213, 191, 163)" stroke-width="16.00" stroke-opacity="1.00" stroke-linejoin="round"/>
<path d="M795.05,451.88 C798.30,455.01 809.50,460.26 818.52,463.48 C828.15,466.91 830.81,468.46 831.58,469.05" fill="none" stroke="rgb(213, 191, 163)" stroke-width="16.00" stroke-opacity="1.00" stroke-linejoin="round"/>
<path d="M801.40,452.03 C803.95,454.18 818.88,460.28 824.62,462.22 C827.17,463.09 829.90,464.21 830.83,464.62" fill="none" stroke="rgb(213, 191, 163)" stroke-width="16.00" stroke-opacity="1.00" stroke-linejoin="round"/>
<path d="M785.29,446.62 C785.29,446.62 779.12,445.17 779.12,445.17" fill="none" stroke="rgb(213, 191, 163)" stroke-width="16.00" stroke-opacity="1.00" stroke-linejoin="round"/>
<path d="M708.77,419.31 C708.71,419.31 690.06,414.75 686.24,413.68 C682.54,412.63 665.70,407.10 660.20,406.03 C659.47,405.89 658.93,405.81 658.59,405.78 C658.37,405.77 657.96,405.76 657.35,405.77" fill="none" stroke="rgb(213, 191, 163)" stroke-width="16.00" stroke-opacity="1.00" stroke-linejoin="round"/>
<path d="M663.13,406.56 C660.79,407.05 657.40,406.81 653.83,406.29 C642.63,404.64 620.57,398.20 613.05,395.75 C609.66,394.66 605.94,393.91 604.62,393.72 C604.41,393.69 604.20,393.66 603.99,393.63" fill="none" stroke="rgb(213, 191, 163)" stroke-width="16.00" stroke-opacity="1.00" stroke-linejoin="round"/>
<path d="M584.74,389.66 C597.15,394.63 617.19,400.19 626.77,402.25 C631.64,403.22 632.94,403.42 635.25,403.69" fill="none" stroke="rgb(213, 191, 163)" stroke-width="16.00" stroke-opacity="1.00" stroke-linejoin="round"/>
</g>
<g stroke-linecap="round" transform="translate(-386.00, -333.00)" id="Layer_15">
<path d="M392.56,345.83 C392.56,345.83 441.10,362.58 441.10,362.58 C440.39,362.55 439.95,362.53 439.78,362.52 C439.61,362.51 439.45,362.49 439.32,362.47" fill="none" stroke="rgb(208, 208, 208)" stroke-width="6.00" stroke-opacity="1.00" stroke-linejoin="round"/>
<path d="M396.98,348.12 C397.47,348.09 412.10,352.56 418.88,353.87 C431.38,356.20 438.07,357.67 443.98,359.71 C451.94,362.50 453.16,364.03 453.24,364.44 C451.77,365.69 438.11,362.47 430.60,359.76 C423.51,357.19 416.94,354.02 414.51,352.39 C422.72,357.42 432.26,361.78 436.92,363.31 C439.94,364.29 458.80,369.50 461.17,370.32 C461.17,370.32 424.16,354.86 424.16,354.86 C431.70,358.77 436.75,361.00 445.85,364.30 C459.42,369.22 471.74,375.71 471.62,375.73 C471.67,376.05 457.25,369.78 452.94,367.24 C452.51,366.98 451.55,366.39 450.07,365.45 C450.33,365.44 461.80,369.36 471.22,371.41 C478.54,372.94 482.05,374.39 482.53,374.64 C482.53,374.64 464.79,369.40 464.79,369.40 C466.03,370.37 484.84,377.73 485.91,378.33 C486.31,378.55 486.64,378.79 486.91,379.05 C485.39,379.26 476.34,373.51 473.98,371.40 C472.41,369.98 472.00,369.58 471.54,369.06" fill="none" stroke="rgb(208, 208, 208)" stroke-width="6.00" stroke-opacity="1.00" stroke-linejoin="round"/>
<path d="M445.86,359.43 C447.20,360.46 452.62,362.26 455.57,362.96 C462.08,364.49 489.36,364.71 493.38,365.37 C493.41,365.74 489.39,366.51 486.49,366.66 C483.14,366.79 469.92,364.13 469.19,364.31 C469.51,364.73 474.55,366.22 477.48,366.55 C479.71,366.78 486.63,366.61 489.96,366.69 C488.15,367.69 474.98,369.65 471.11,369.36 C470.21,369.29 468.91,369.17 468.51,369.14 C468.51,369.14 478.90,368.64 478.90,368.64 C478.90,368.64 479.20,369.69 479.20,369.69 C479.20,369.69 472.31,367.80 472.31,367.80 C473.32,366.84 481.02,365.20 483.03,364.87 C488.93,363.96 494.88,365.29 495.43,365.50 C495.43,365.50 486.62,363.74 486.62,363.74 C486.62,363.74 499.97,367.58 499.97,367.58 C499.97,367.58 497.80,366.80 497.80,366.80 C495.81,366.88 477.13,366.56 473.09,366.03 C459.74,364.18 443.96,358.95 440.90,357.65 C441.28,357.67 476.00,363.86 477.75,365.28 C477.27,366.16 471.03,366.54 468.12,366.36 C462.96,366.01 451.05,363.41 444.93,361.09 C437.15,358.10 432.55,355.12 432.59,354.72 C433.54,354.31 451.72,359.14 460.29,361.43 C468.87,363.75 473.86,365.69 474.61,366.40 C474.22,367.33 467.63,367.31 464.47,366.95 C450.58,365.27 433.20,357.62 430.93,356.31 C430.93,356.31 469.10,363.74 469.10,363.74 C458.26,362.60 447.72,360.93 442.06,359.16 C434.60,356.80 427.89,352.98 427.49,352.36 C428.52,352.16 442.87,356.02 450.09,357.34 C457.47,358.62 476.75,360.46 480.40,361.11 C480.82,361.72 467.88,361.93 461.48,360.80 C454.43,359.53 443.11,355.39 436.92,352.75 C441.90,355.00 453.05,358.35 458.52,359.00 C464.54,359.69 469.59,359.16 469.88,359.04 C469.62,358.62 447.93,356.14 443.92,355.47 C430.93,353.19 416.13,347.76 409.02,344.73 C409.02,344.73 427.17,351.44 427.17,351.44 C424.84,351.65 419.82,351.40 416.55,350.71 C411.49,349.61 401.07,345.26 399.89,344.76 C403.65,346.58 408.92,348.18 414.80,349.20 C421.85,350.39 422.88,351.50 423.02,351.83 C419.82,355.20 402.89,346.84 401.39,345.64 C401.62,345.35 417.39,344.87 420.50,345.60 C422.18,346.01 427.39,347.99 427.89,347.96 C428.07,347.94 428.34,347.83 428.68,347.62 C428.68,347.62 413.15,343.41 413.15,343.41 C421.66,345.43 429.37,346.88 435.08,347.14 C437.32,347.24 445.14,347.03 447.27,346.82 C439.15,347.45 431.80,347.66 427.74,345.58 C426.20,344.77 425.89,343.87 425.82,343.39 C427.45,342.50 431.29,343.33 436.73,344.73 C441.11,345.85 451.01,348.07 451.43,348.14 C451.43,348.14 433.60,342.76 433.60,342.76 C433.60,342.76 452.65,345.03 452.65,345.03 C452.30,345.35 435.65,345.22 432.11,344.34 C429.91,343.77 428.91,342.90 428.76,342.66 C430.76,341.55 444.94,341.97 449.23,342.66 C449.23,342.66 439.58,339.32 439.58,339.32 C439.58,339.32 460.53,347.87 460.53,347.87 C460.53,347.87 445.12,343.55 445.12,343.55 C454.37,348.59 478.69,355.59 480.63,356.32 C478.80,356.79 469.20,354.36 460.79,350.68 C455.50,348.36 454.44,347.97 452.35,347.40 C453.22,348.74 456.17,350.16 459.93,351.83 C467.61,355.20 485.58,361.12 485.74,361.35 C484.23,362.00 466.02,358.96 457.57,357.53 C441.23,354.63 432.39,350.17 431.94,349.83 C432.66,349.69 451.35,353.56 460.23,355.41 C469.75,357.45 474.62,359.02 475.85,359.76 C474.42,360.82 469.94,360.90 468.20,360.81 C465.87,360.66 459.17,359.62 456.02,358.71 C452.69,357.72 446.51,354.80 444.33,353.45 C441.81,351.86 439.54,349.66 439.33,349.12 C440.07,348.41 461.34,354.86 465.61,355.83 C477.77,358.57 480.60,359.37 483.46,360.60 C480.61,361.61 469.68,358.64 465.36,356.62 C463.11,355.55 459.63,353.32 459.53,352.53 C461.01,352.77 476.93,358.91 485.38,361.12 C488.34,361.87 493.36,363.15 496.54,363.67 C495.56,363.07 479.18,358.44 475.61,357.07 C474.33,356.57 473.24,356.09 471.92,355.46 C471.91,355.45 478.24,358.34 481.41,359.43 C485.97,360.93 494.02,363.30 494.74,363.72 C494.43,363.89 488.75,362.66 487.01,362.07 C485.15,361.43 477.96,358.27 477.46,358.07 C476.99,357.88 476.29,357.63 475.38,357.32" fill="none" stroke="rgb(208, 208, 208)" stroke-width="6.00" stroke-opacity="1.00" stroke-linejoin="round"/>
</g>
<g stroke-linecap="round" transform="translate(-386.00, -333.00)" id="Layer_13">
<path d="M570.10,493.79 C574.31,493.89 588.78,492.57 597.41,492.41 C613.60,492.43 638.17,492.36 655.78,490.93 C669.59,489.77 696.21,487.95 709.65,487.94 C716.73,488.03 730.02,489.66 736.66,491.64 C738.65,492.26 742.39,493.41 744.13,493.95 C746.09,494.55 749.20,495.49 750.35,495.82" fill="none" stroke="rgb(255, 255, 255)" stroke-width="26.00" stroke-opacity="1.00" stroke-linejoin="round"/>
<path d="M591.56,430.10 C591.56,430.10 589.88,429.31 589.88,429.31 C588.38,430.87 585.84,436.28 585.14,439.20 C584.53,441.82 583.98,449.07 584.11,452.59 C584.27,456.35 585.49,462.90 586.48,465.40 C587.48,467.82 590.21,471.25 591.44,471.21 C591.68,471.19 592.32,471.10 593.37,470.93" fill="none" stroke="rgb(255, 255, 255)" stroke-width="26.00" stroke-opacity="1.00" stroke-linejoin="round"/>
<path d="M595.55,430.55 C596.07,429.79 598.53,427.69 602.03,427.30 C604.36,427.06 609.80,428.29 610.76,428.18" fill="none" stroke="rgb(255, 255, 255)" stroke-width="26.00" stroke-opacity="1.00" stroke-linejoin="round"/>
<path d="M611.52,427.34 C611.48,429.37 612.68,432.26 614.51,436.14 C617.08,441.61 619.53,450.74 619.80,455.90 C619.90,458.01 619.87,459.37 619.74,460.61" fill="none" stroke="rgb(255, 255, 255)" stroke-width="26.00" stroke-opacity="1.00" stroke-linejoin="round"/>
<path d="M604.85,436.02 C603.18,438.36 601.59,442.36 600.77,445.32 C599.22,451.01 598.01,462.69 598.10,467.33 C598.23,472.48 598.56,476.70 599.13,479.54 C600.03,483.82 601.28,487.95 601.98,488.82 C602.06,488.93 602.25,489.11 602.55,489.37" fill="none" stroke="rgb(255, 255, 255)" stroke-width="26.00" stroke-opacity="1.00" stroke-linejoin="round"/>
<path d="M605.05,443.74 C605.51,447.95 606.08,464.66 606.81,469.61 C607.81,476.28 609.96,482.42 611.22,484.13" fill="none" stroke="rgb(255, 255, 255)" stroke-width="26.00" stroke-opacity="1.00" stroke-linejoin="round"/>
<path d="M622.62,475.23 C624.89,473.68 628.52,471.82 631.90,470.75 C637.58,469.01 648.70,468.70 660.38,468.82 C671.91,469.04 677.68,469.60 687.49,471.46 C688.77,471.71 691.40,472.20 692.74,472.44 C694.10,472.67 697.62,472.85 697.71,472.83" fill="none" stroke="rgb(255, 255, 255)" stroke-width="26.00" stroke-opacity="1.00" stroke-linejoin="round"/>
<path d="M632.22,459.87 C635.39,455.49 645.98,446.07 650.96,443.16 C653.64,441.61 659.20,439.24 661.12,438.67 C663.16,438.10 667.12,438.01 667.77,438.05 C667.95,438.06 668.11,438.09 668.24,438.14" fill="none" stroke="rgb(255, 255, 255)" stroke-width="26.00" stroke-opacity="1.00" stroke-linejoin="round"/>
<path d="M647.42,444.83 C649.36,441.79 658.40,431.51 660.44,430.26 C660.78,430.05 661.23,429.92 661.80,429.87" fill="none" stroke="rgb(255, 255, 255)" stroke-width="26.00" stroke-opacity="1.00" stroke-linejoin="round"/>
<path d="M665.26,430.78 C667.48,431.19 668.75,431.67 669.80,432.67 C671.84,434.62 680.98,445.52 685.61,449.17 C686.43,449.81 688.23,451.23 689.31,452.12 C689.52,452.30 689.67,452.42 689.76,452.50" fill="none" stroke="rgb(255, 255, 255)" stroke-width="26.00" stroke-opacity="1.00" stroke-linejoin="round"/>
<path d="M684.97,445.77 C687.70,447.03 689.15,447.80 690.79,448.90 C696.61,452.85 708.34,462.36 711.06,465.10 C714.83,468.92 717.30,473.92 718.53,477.24 C718.69,477.70 718.85,478.15 719.02,478.61" fill="none" stroke="rgb(255, 255, 255)" stroke-width="26.00" stroke-opacity="1.00" stroke-linejoin="round"/>
<path d="M694.95,451.28 C696.07,453.22 698.81,455.99 701.80,458.51 C709.17,464.49 717.00,471.68 720.37,476.02 C723.11,479.58 723.64,482.18 723.55,483.11" fill="none" stroke="rgb(255, 255, 255)" stroke-width="26.00" stroke-opacity="1.00" stroke-linejoin="round"/>
<path d="M719.88,470.21 C720.38,472.08 723.39,477.21 725.20,479.51 C727.08,481.88 734.74,489.01 734.47,489.41 C732.19,489.39 716.94,483.42 712.65,482.11 C709.19,481.07 688.71,475.92 686.17,475.40 C676.19,473.38 654.09,472.99 651.39,471.68 C649.80,470.85 648.45,467.88 648.60,465.76 C648.79,463.72 651.06,459.42 652.63,457.59 C654.28,455.72 657.99,453.38 659.97,452.91 C661.86,452.50 665.79,452.85 667.66,453.70 C669.60,454.62 672.65,457.34 674.21,459.37 C675.91,461.65 677.44,466.85 676.77,468.43 C675.92,470.26 673.29,472.45 671.16,473.28 C667.61,474.63 655.69,474.35 651.87,473.13 C649.70,472.41 647.49,471.38 646.98,470.80 C645.95,469.52 645.68,466.58 646.34,465.04 C646.93,463.75 650.15,460.20 651.71,459.07 C653.27,457.96 657.78,455.90 661.56,455.78 C662.41,455.77 663.82,456.47 664.15,456.84 C665.03,457.99 664.21,462.12 662.49,464.59 C656.23,473.38 639.61,484.79 636.96,485.71 C637.49,484.10 638.11,483.13 639.41,482.10 C641.37,480.58 643.99,478.56 644.64,478.07" fill="none" stroke="rgb(255, 255, 255)" stroke-width="26.00" stroke-opacity="1.00" stroke-linejoin="round"/>
<path d="M731.12,473.78 C733.47,470.73 737.92,466.86 740.28,465.26 C743.09,463.39 748.63,461.35 751.70,460.90 C754.51,460.50 759.87,460.80 762.08,461.29 C764.00,461.73 768.70,463.37 769.49,463.66 C769.71,463.74 769.90,463.82 770.06,463.89" fill="none" stroke="rgb(255, 255, 255)" stroke-width="26.00" stroke-opacity="1.00" stroke-linejoin="round"/>
<path d="M766.87,458.92 C769.35,458.31 774.56,459.08 777.12,460.27 C781.18,462.21 786.16,465.57 792.56,470.57 C793.30,471.15 794.03,471.72 794.76,472.29" fill="none" stroke="rgb(255, 255, 255)" stroke-width="26.00" stroke-opacity="1.00" stroke-linejoin="round"/>
<path d="M792.62,471.16 C794.46,471.68 797.35,473.16 801.23,475.01 C804.59,476.60 811.14,479.69 812.79,481.08 C813.32,481.53 816.18,484.34 816.53,484.44 C813.23,488.38 802.64,500.45 800.11,503.59 C797.49,506.87 791.40,515.55 790.55,516.58" fill="none" stroke="rgb(255, 255, 255)" stroke-width="26.00" stroke-opacity="1.00" stroke-linejoin="round"/>
<path d="M804.22,500.84 C803.05,502.48 800.01,510.35 798.71,512.52 C797.52,514.46 791.76,519.28 791.29,519.79 C790.91,520.20 787.66,524.41 786.13,524.64 C786.23,524.61 780.03,526.62 776.16,526.95 C774.65,527.07 767.06,527.07 764.67,526.97" fill="none" stroke="rgb(255, 255, 255)" stroke-width="26.00" stroke-opacity="1.00" stroke-linejoin="round"/>
<path d="M774.64,528.01 C774.39,528.17 771.62,528.66 770.27,528.71 C769.38,528.73 766.85,526.69 762.97,525.01 C761.24,524.27 755.87,524.04 754.69,523.70 C752.67,523.00 747.05,521.36 746.49,521.12 C745.96,520.90 743.25,519.45 743.35,519.54 C743.35,519.54 753.95,523.83 753.95,523.83 C752.32,524.20 747.47,523.22 744.42,522.18 C738.95,520.26 735.97,517.83 735.57,517.21 C736.12,515.90 736.45,515.38 737.14,515.27 C738.86,515.05 740.45,515.53 742.40,516.92 C743.22,517.52 746.64,519.90 746.68,520.17 C744.86,521.17 740.10,520.91 737.12,519.81 C734.76,518.90 729.90,516.26 728.89,515.32 C727.40,513.90 726.22,511.89 725.56,509.90 C725.56,509.90 736.11,516.33 736.11,516.33 C735.59,516.47 728.62,516.67 726.34,516.40 C724.17,516.13 718.43,513.83 716.45,511.82 C715.28,510.61 714.60,509.36 714.58,508.72 C715.16,508.40 716.84,508.24 717.51,508.18 C719.39,508.02 721.34,507.69 722.18,507.43" fill="none" stroke="rgb(255, 255, 255)" stroke-width="26.00" stroke-opacity="1.00" stroke-linejoin="round"/>
<path d="M582.42,460.05 C579.54,460.02 576.64,460.12 575.14,460.39 C572.17,460.95 565.22,464.37 562.02,466.67 C559.40,468.68 554.49,472.30 552.28,473.10 C552.28,473.10 553.55,471.79 553.55,471.79" fill="none" stroke="rgb(255, 255, 255)" stroke-width="26.00" stroke-opacity="1.00" stroke-linejoin="round"/>
<path d="M571.92,459.60 C566.40,461.49 558.91,465.88 555.58,468.59 C551.92,471.59 545.14,479.95 542.94,484.31 C541.92,486.36 541.47,488.02 541.75,488.39" fill="none" stroke="rgb(255, 255, 255)" stroke-width="26.00" stroke-opacity="1.00" stroke-linejoin="round"/>
<path d="M570.53,457.16 C568.49,457.86 564.73,460.58 560.00,464.68 C551.77,472.16 546.71,477.84 546.42,479.77" fill="none" stroke="rgb(255, 255, 255)" stroke-width="26.00" stroke-opacity="1.00" stroke-linejoin="round"/>
<path d="M553.39,471.43 C547.62,474.03 537.66,481.16 535.56,484.33 C534.19,486.46 533.48,491.67 534.26,492.57 C534.57,492.92 535.52,493.71 537.11,494.94" fill="none" stroke="rgb(255, 255, 255)" stroke-width="26.00" stroke-opacity="1.00" stroke-linejoin="round"/>
<path d="M539.29,481.60 C536.98,482.95 533.80,485.83 532.97,487.35 C532.53,488.22 532.12,489.90 532.22,490.58 C532.51,492.04 536.44,495.24 539.21,496.77 C541.71,498.14 547.69,501.35 548.57,501.79 C550.45,502.70 551.78,503.06 553.14,503.07" fill="none" stroke="rgb(255, 255, 255)" stroke-width="26.00" stroke-opacity="1.00" stroke-linejoin="round"/>
<path d="M539.70,497.95 C539.70,497.95 539.13,499.60 539.13,499.60 C540.73,501.26 555.75,508.83 557.49,509.78 C562.23,512.36 571.59,519.27 573.48,519.52 C573.87,519.56 574.43,519.46 575.17,519.20" fill="none" stroke="rgb(255, 255, 255)" stroke-width="26.00" stroke-opacity="1.00" stroke-linejoin="round"/>
<path d="M552.89,507.03 C553.08,508.39 553.45,509.17 554.53,509.97 C556.81,511.63 576.84,524.83 580.13,526.18 C582.85,527.26 586.26,527.43 586.81,527.29 C586.93,527.25 587.21,527.15 587.64,526.97" fill="none" stroke="rgb(255, 255, 255)" stroke-width="26.00" stroke-opacity="1.00" stroke-linejoin="round"/>
<path d="M584.91,525.28 C586.58,526.51 587.70,527.10 589.29,527.47 C593.12,528.32 598.68,528.44 601.27,527.38 C602.29,526.93 604.83,524.81 605.78,524.03 C606.24,523.65 606.94,523.12 607.88,522.43" fill="none" stroke="rgb(255, 255, 255)" stroke-width="26.00" stroke-opacity="1.00" stroke-linejoin="round"/>
<path d="M603.57,526.77 C605.31,527.35 607.08,527.54 608.73,527.13 C611.99,526.29 614.98,523.78 616.95,521.53 C617.17,521.27 617.54,520.81 618.05,520.15" fill="none" stroke="rgb(255, 255, 255)" stroke-width="26.00" stroke-opacity="1.00" stroke-linejoin="round"/>
<path d="M587.16,513.22 C585.32,512.65 583.72,511.51 583.01,510.01 C582.52,508.96 581.97,503.44 582.40,501.43 C582.85,499.50 585.02,494.85 586.73,492.50 C588.48,490.16 592.33,486.50 594.55,485.16 C597.01,483.73 601.84,482.87 604.44,483.13 C606.99,483.43 612.49,485.92 614.89,487.63 C617.02,489.17 620.94,493.14 621.64,494.72 C622.39,496.47 623.03,499.00 622.96,499.98 C622.76,501.99 621.10,505.48 619.58,507.03 C617.85,508.73 613.19,510.86 609.79,511.55 C603.24,512.84 590.94,512.20 585.07,511.19 C581.05,510.48 574.79,508.41 572.19,506.62 C569.64,504.79 566.65,499.71 566.15,496.64 C565.74,493.82 566.43,487.55 567.52,484.60 C568.65,481.66 572.25,476.06 574.47,473.98 C576.84,471.84 582.10,469.70 584.87,469.72 C587.60,469.78 592.86,472.08 595.65,474.21 C598.22,476.21 602.18,480.79 603.55,483.18 C604.91,485.61 605.80,489.94 605.41,492.01 C604.96,494.09 602.20,497.67 599.99,498.94 C597.77,500.17 592.27,501.39 588.88,501.52 C585.03,501.63 578.95,500.69 576.04,499.67 C573.46,498.74 568.36,495.40 567.17,493.84 C565.91,492.11 565.15,487.53 565.64,485.16 C566.20,482.71 568.93,477.53 571.50,474.35 C574.38,470.84 578.24,467.33 581.23,465.29 C583.82,463.53 587.26,461.87 589.32,461.17 C591.00,460.61 596.06,459.59 599.21,459.62 C602.72,459.68 609.88,462.01 612.71,463.55 C612.98,463.70 613.38,463.93 613.92,464.25" fill="none" stroke="rgb(255, 255, 255)" stroke-width="26.00" stroke-opacity="1.00" stroke-linejoin="round"/>
<path d="M600.52,493.07 C596.34,494.24 590.77,494.72 589.62,494.59 C587.91,494.40 580.59,492.74 576.98,491.91 C571.75,490.63 567.09,489.12 565.52,487.90 C563.39,486.19 561.86,484.74 561.55,483.99 C561.24,483.16 561.24,481.78 561.55,481.21 C562.43,479.79 566.19,477.41 568.57,477.06 C571.18,476.72 575.57,478.24 578.70,480.10 C580.32,481.09 594.08,492.28 594.40,492.59 C594.64,492.84 594.93,493.21 595.25,493.70" fill="none" stroke="rgb(255, 255, 255)" stroke-width="26.00" stroke-opacity="1.00" stroke-linejoin="round"/>
<path d="M619.25,499.85 C619.52,500.18 633.41,509.62 634.93,510.67 C637.50,512.41 642.04,514.50 644.51,514.86 C646.98,515.18 650.90,514.94 655.26,513.82 C658.41,513.01 661.28,512.38 662.74,512.22 C663.14,512.18 663.54,512.20 663.94,512.27" fill="none" stroke="rgb(255, 255, 255)" stroke-width="26.00" stroke-opacity="1.00" stroke-linejoin="round"/>
<path d="M637.82,508.65 C637.48,509.88 637.60,510.96 638.59,511.82 C640.77,513.68 645.61,516.00 648.51,517.11 C653.30,518.90 665.52,523.54 666.18,523.63 C666.30,523.64 666.63,523.67 667.15,523.70" fill="none" stroke="rgb(255, 255, 255)" stroke-width="26.00" stroke-opacity="1.00" stroke-linejoin="round"/>
<path d="M643.50,511.36 C643.50,511.36 642.86,512.81 642.86,512.81 C643.48,514.66 646.74,519.97 648.34,521.89 C649.94,523.77 653.30,526.33 655.49,527.45 C657.28,528.33 660.22,529.26 663.34,530.11 C663.52,530.16 663.68,530.21 663.80,530.25" fill="none" stroke="rgb(255, 255, 255)" stroke-width="26.00" stroke-opacity="1.00" stroke-linejoin="round"/>
<path d="M663.00,514.39 C663.51,517.33 664.49,523.24 664.96,526.22 C666.15,534.02 668.57,550.38 668.79,556.56 C669.01,563.41 668.45,569.51 668.12,571.47 C668.09,571.64 668.05,571.82 667.99,572.01" fill="none" stroke="rgb(255, 255, 255)" stroke-width="26.00" stroke-opacity="1.00" stroke-linejoin="round"/>
<path d="M674.67,523.88 C675.69,526.74 676.21,541.79 675.57,550.08 C674.92,558.20 673.05,570.05 672.93,571.56 C672.91,571.75 672.91,571.90 672.92,572.01" fill="none" stroke="rgb(255, 255, 255)" stroke-width="26.00" stroke-opacity="1.00" stroke-linejoin="round"/>
<path d="M677.54,557.44 C677.54,557.44 671.84,580.39 671.84,580.39 C670.38,580.46 668.91,579.86 667.54,578.45 C666.01,576.84 664.26,572.59 664.19,569.16 C664.18,568.47 664.32,564.23 664.36,563.79 C664.39,563.38 664.48,562.67 664.61,561.66" fill="none" stroke="rgb(255, 255, 255)" stroke-width="26.00" stroke-opacity="1.00" stroke-linejoin="round"/>
<path d="M666.35,571.08 C665.70,564.45 665.73,550.40 665.80,542.79 C666.07,533.84 667.05,520.77 667.49,517.91 C667.54,517.62 667.64,517.11 667.79,516.38" fill="none" stroke="rgb(255, 255, 255)" stroke-width="26.00" stroke-opacity="1.00" stroke-linejoin="round"/>
<path d="M670.73,519.95 C670.73,519.95 668.68,519.36 668.68,519.36 C667.86,518.19 667.29,514.70 667.65,511.76 C668.09,508.42 670.04,503.12 671.69,500.02 C673.28,497.09 676.79,492.25 678.90,490.13 C681.27,487.84 684.58,487.06 685.87,487.26 C686.95,488.40 687.53,489.38 687.78,490.80 C688.24,493.59 687.75,500.46 686.72,504.22 C683.25,516.46 673.16,531.91 671.89,533.66 C672.42,530.91 678.60,518.01 681.13,513.49 C684.59,507.35 691.69,497.51 695.50,494.61 C697.15,493.35 699.15,492.15 700.28,491.65" fill="none" stroke="rgb(255, 255, 255)" stroke-width="26.00" stroke-opacity="1.00" stroke-linejoin="round"/>
<path d="M700.22,509.11 C700.22,509.11 681.56,528.94 681.56,528.94 C681.56,528.94 703.66,498.76 703.66,498.76" fill="none" stroke="rgb(255, 255, 255)" stroke-width="26.00" stroke-opacity="1.00" stroke-linejoin="round"/>
<path d="M660.20,507.71 C657.43,507.90 655.70,507.98 655.06,507.89 C654.19,507.73 653.25,507.05 652.90,506.30 C652.30,504.89 652.42,500.15 653.44,497.27 C655.48,491.71 663.35,481.13 666.73,478.23 C670.23,475.29 675.58,472.55 678.86,472.06 C680.24,471.88 682.29,471.90 683.50,472.04 C683.72,472.07 684.05,472.12 684.49,472.20" fill="none" stroke="rgb(255, 255, 255)" stroke-width="26.00" stroke-opacity="1.00" stroke-linejoin="round"/>
<path d="M713.00,508.38 C715.90,510.08 719.64,510.53 722.13,510.84 C727.38,511.54 737.69,513.71 739.73,513.80 C739.88,513.81 740.06,513.81 740.28,513.80" fill="none" stroke="rgb(255, 255, 255)" stroke-width="26.00" stroke-opacity="1.00" stroke-linejoin="round"/>
<path d="M737.36,507.12 C737.36,507.12 735.86,507.30 735.86,507.30 C735.31,505.30 736.03,500.46 737.03,497.30 C739.08,490.94 746.93,476.19 751.58,470.73 C753.65,468.34 758.55,464.18 760.16,463.50 C762.03,462.77 764.76,463.40 765.88,465.11 C766.81,466.61 768.74,473.28 769.17,476.42 C769.57,479.40 769.91,488.57 769.64,491.28 C769.29,494.52 767.40,499.62 765.95,501.63 C764.60,503.43 761.28,505.91 759.67,506.30 C757.95,506.68 754.50,505.59 752.70,504.16 C750.91,502.70 748.15,498.82 747.48,496.57 C746.78,494.10 746.94,488.57 747.96,485.46 C749.05,482.25 752.70,476.86 755.20,474.75 C757.65,472.74 762.87,470.65 765.66,470.53 C768.50,470.46 773.54,472.26 775.82,474.14 C778.15,476.14 781.39,481.71 782.00,484.87 C782.54,487.92 781.68,493.54 780.17,496.48 C778.43,499.78 774.23,505.27 771.60,508.23 C769.17,510.92 763.34,515.79 761.48,516.54 C760.53,516.89 758.54,517.08 757.90,516.88 C756.58,516.36 755.66,511.99 756.13,508.63 C756.59,505.50 759.10,498.52 759.97,496.83 C760.77,495.30 763.70,490.92 764.73,489.68 C765.97,488.21 771.50,483.55 774.46,482.02 C777.68,480.41 784.08,479.08 786.80,479.31 C789.33,479.57 792.99,481.46 793.65,483.04 C794.29,484.78 792.96,489.29 790.94,491.94 C787.53,496.33 774.65,508.43 770.82,510.55 C769.08,511.51 767.01,512.18 766.77,512.00 C766.34,511.47 766.94,508.15 768.37,505.22 C770.14,501.70 774.85,496.17 777.93,493.97 C782.78,490.60 790.69,487.64 792.72,486.90 C793.36,486.67 793.99,486.44 794.63,486.20" fill="none" stroke="rgb(255, 255, 255)" stroke-width="26.00" stroke-opacity="1.00" stroke-linejoin="round"/>
<path d="M729.09,455.80 C729.09,455.80 722.10,443.21 722.10,443.21" fill="none" stroke="rgb(255, 255, 255)" stroke-width="26.00" stroke-opacity="1.00" stroke-linejoin="round"/>
<path d="M744.90,431.61 C744.90,431.61 744.79,431.54 744.79,431.54" fill="none" stroke="rgb(255, 255, 255)" stroke-width="26.00" stroke-opacity="1.00" stroke-linejoin="round"/>
<path d="M738.45,428.92 C741.88,430.21 746.08,432.69 748.21,434.46 C756.17,441.24 761.20,454.13 761.32,454.29 C761.50,454.52 761.86,454.69 762.40,454.81" fill="none" stroke="rgb(255, 255, 255)" stroke-width="26.00" stroke-opacity="1.00" stroke-linejoin="round"/>
<path d="M752.01,445.46 C749.31,443.97 745.33,441.93 743.06,441.01 C740.64,440.04 735.84,438.84 733.61,438.77 C732.58,438.74 727.52,438.86 727.05,438.77 C727.05,438.77 728.18,435.97 728.18,435.97" fill="none" stroke="rgb(255, 255, 255)" stroke-width="26.00" stroke-opacity="1.00" stroke-linejoin="round"/>
<path d="M741.28,451.19 C741.16,455.65 741.31,459.41 741.57,463.09 C741.71,464.99 741.88,466.36 742.16,468.00" fill="none" stroke="rgb(255, 255, 255)" stroke-width="26.00" stroke-opacity="1.00" stroke-linejoin="round"/>
<path d="M723.78,433.88 C722.73,433.51 722.54,432.63 723.55,431.64 C723.77,431.43 724.17,431.16 724.76,430.84" fill="none" stroke="rgb(255, 255, 255)" stroke-width="26.00" stroke-opacity="1.00" stroke-linejoin="round"/>
<path d="M725.17,433.06 C725.17,433.06 724.48,431.75 724.48,431.75 C725.46,430.48 728.03,428.78 729.79,428.60 C730.76,428.52 731.64,428.76 732.44,429.22" fill="none" stroke="rgb(255, 255, 255)" stroke-width="26.00" stroke-opacity="1.00" stroke-linejoin="round"/>
<path d="M728.86,428.50 C728.86,428.50 731.79,428.38 731.79,428.38" fill="none" stroke="rgb(255, 255, 255)" stroke-width="26.00" stroke-opacity="1.00" stroke-linejoin="round"/>
</g>
<g stroke-linecap="round" transform="translate(-386.00, -333.00)" id="Layer_16">
<path d="M647.64,466.84 C648.88,466.09 661.65,466.35 668.89,467.94 C671.03,468.41 673.11,468.23 673.48,467.78 C670.97,466.77 665.00,466.48 661.77,466.32 C658.18,466.20 648.62,467.84 647.47,467.86 C647.47,467.86 661.90,466.19 661.90,466.19 C660.59,466.28 639.94,467.64 638.76,467.47 C637.81,467.34 637.01,466.84 636.73,466.44 C636.73,466.44 644.85,463.97 644.85,463.97 C644.74,464.78 642.34,466.15 640.39,466.63 C638.27,467.13 635.58,467.37 633.00,467.37 C633.00,467.37 639.83,464.99 639.83,464.99 C639.83,464.99 631.63,466.33 631.63,466.33 C631.63,466.33 632.61,466.01 632.61,466.01 C632.34,466.16 630.86,470.17 630.98,470.90 C630.98,470.93 630.71,471.16 629.69,472.16 C630.14,471.54 630.80,471.38 631.02,471.24 C633.04,470.08 639.68,469.26 641.20,469.02 C641.91,468.90 650.00,466.93 651.52,467.04 C651.89,467.07 657.48,467.53 657.97,467.04 C657.90,466.17 655.69,465.54 653.79,465.50 C651.33,465.48 646.20,467.07 645.07,467.64 C645.07,467.64 667.36,467.57 667.36,467.57 C667.36,467.57 660.35,466.35 660.35,466.35 C663.70,468.57 664.71,472.59 665.33,476.87 C665.33,476.87 665.48,471.48 665.48,471.48 C665.48,471.48 665.79,487.05 665.79,487.05 C665.79,487.05 665.10,488.35 665.10,488.35 C665.63,486.67 668.18,483.38 669.37,483.53 C673.26,484.24 672.98,488.98 672.80,489.46 C672.80,489.46 672.96,486.62 672.96,486.62 C672.96,486.62 673.10,487.65 673.10,487.65 C673.10,487.65 672.07,488.10 672.07,488.10 C672.07,488.10 669.86,462.92 669.86,462.92 C669.86,462.92 670.68,478.57 670.68,478.57 C670.68,478.57 668.57,456.14 668.57,456.14 C668.57,456.14 666.00,461.09 666.00,461.09 C665.00,460.13 666.48,447.63 666.28,447.22 C666.28,447.22 664.64,454.68 664.64,454.68 C661.97,454.51 664.64,445.27 664.97,445.34 C664.97,445.34 664.72,451.94 664.72,451.94 C664.72,451.94 666.97,447.14 666.97,447.14 C667.85,446.73 666.72,457.46 665.48,457.80 C665.48,457.80 665.20,456.66 665.20,456.66 C665.54,456.75 667.09,462.56 669.20,466.69 C669.46,467.17 669.77,467.72 669.78,467.83 C669.78,467.83 669.51,466.64 669.51,466.64 C671.00,464.89 673.32,463.77 675.52,463.65 C680.58,463.56 691.04,462.27 694.29,463.39 C694.83,463.58 696.21,464.19 696.91,464.34 C693.70,463.06 685.58,463.87 682.80,463.97 C682.80,463.97 707.22,463.76 707.22,463.76 C706.48,465.04 703.67,464.35 703.10,463.66 C703.10,463.66 707.37,464.03 707.37,464.03 C707.37,464.03 707.77,469.65 707.77,469.65 C703.69,469.08 694.86,467.86 692.34,467.83 C689.85,467.82 679.46,470.19 678.65,470.19 C679.31,469.12 684.77,466.69 688.26,466.12 C693.48,465.30 698.25,465.67 698.64,465.96 C697.96,467.59 671.59,469.72 671.41,469.59 C672.27,467.59 681.72,465.64 683.83,465.82 C681.45,468.63 671.65,470.28 670.05,470.17 C669.47,469.11 669.49,468.15 670.29,466.89 C670.42,466.68 670.74,466.19 671.27,465.42" fill="none" stroke="rgb(233, 233, 233)" stroke-width="16.00" stroke-opacity="1.00" stroke-linejoin="round"/>
</g>
<g stroke-linecap="round" transform="translate(-386.00, -333.00)" id="Layer_11_Copy">
<path d="M597.56,496.04 C603.61,502.08 613.78,510.95 618.22,514.54 C624.55,519.47 641.24,531.94 643.22,533.55 C646.03,535.86 648.84,538.93 649.12,539.34 C649.34,539.65 649.82,540.41 650.56,541.61" fill="none" stroke="rgb(0, 0, 0)" stroke-width="6.38" stroke-opacity="1.00" stroke-linejoin="round"/>
<path d="M685.36,539.10 C690.54,535.76 697.17,529.73 703.81,521.82 C713.85,509.38 727.94,491.12 732.12,485.57 C733.55,483.64 736.36,479.72 737.02,478.79" fill="none" stroke="rgb(0, 0, 0)" stroke-width="6.38" stroke-opacity="1.00" stroke-linejoin="round"/>
<path d="M649.12,537.08 C649.29,538.15 649.39,538.79 649.43,539.00 C649.46,539.21 649.49,539.30 649.50,539.25" fill="none" stroke="rgb(0, 0, 0)" stroke-width="6.38" stroke-opacity="1.00" stroke-linejoin="round"/>
<path d="M651.46,534.25 C651.23,540.31 650.99,551.67 650.46,561.72 C649.32,578.00 648.98,582.32 649.80,584.49 C650.25,585.58 660.03,590.47 662.09,591.17 C664.45,591.96 670.99,592.88 674.20,593.71 C675.56,594.04 676.78,593.88 677.66,593.17 C679.07,591.96 683.12,586.02 684.51,582.89 C685.60,580.41 688.61,571.07 689.21,568.52 C690.00,565.17 690.37,559.44 690.38,556.51 C690.36,551.73 687.63,539.09 686.93,535.99" fill="none" stroke="rgb(0, 0, 0)" stroke-width="6.38" stroke-opacity="1.00" stroke-linejoin="round"/>
<path d="M737.84,479.33 C737.84,479.33 732.47,488.32 732.47,488.32" fill="none" stroke="rgb(0, 0, 0)" stroke-width="7.00" stroke-opacity="0.90" stroke-linejoin="round"/>
<path d="M652.24,523.16 C652.24,523.16 651.46,541.25 651.46,541.25" fill="none" stroke="rgb(0, 0, 0)" stroke-width="6.38" stroke-opacity="1.00" stroke-linejoin="round"/>
<path d="M686.93,542.99 C685.06,534.33 684.61,525.71 683.65,523.23 C683.01,521.69 680.62,519.21 679.21,518.67 C676.79,517.83 665.89,518.63 664.89,518.73 C662.18,519.00 656.97,519.08 653.93,519.13" fill="none" stroke="rgb(0, 0, 0)" stroke-width="6.38" stroke-opacity="1.00" stroke-linejoin="round"/>
<path d="M647.73,426.36 C639.73,431.94 629.31,441.37 624.84,446.31 C619.04,452.77 595.55,487.21 594.88,488.46 C594.30,489.60 594.38,491.53 595.04,493.03 C595.55,494.13 596.62,495.41 597.40,496.10" fill="none" stroke="rgb(0, 0, 0)" stroke-width="6.38" stroke-opacity="1.00" stroke-linejoin="round"/>
<path d="M735.51,479.46 C735.51,479.46 736.73,477.55 736.73,477.55" fill="none" stroke="rgb(0, 0, 0)" stroke-width="6.38" stroke-opacity="1.00" stroke-linejoin="round"/>
<path d="M668.67,418.15 C671.22,420.43 685.73,429.28 692.36,433.31 C698.29,437.07 709.47,446.75 714.65,451.32 C727.74,463.21 739.31,475.47 740.66,477.14" fill="none" stroke="rgb(0, 0, 0)" stroke-width="6.38" stroke-opacity="1.00" stroke-linejoin="round"/>
<path d="M619.88,455.84 C619.88,455.84 623.29,454.90 623.29,454.90" fill="none" stroke="rgb(0, 0, 0)" stroke-width="6.38" stroke-opacity="1.00" stroke-linejoin="round"/>
<path d="M739.80,474.32 C739.80,474.32 736.37,479.98 736.37,479.98" fill="none" stroke="rgb(0, 0, 0)" stroke-width="7.00" stroke-opacity="0.90" stroke-linejoin="round"/>
<path d="M644.18,429.62 C646.20,428.20 659.10,417.79 661.56,417.09 C661.80,417.03 662.16,416.93 662.65,416.78" fill="none" stroke="rgb(0, 0, 0)" stroke-width="7.00" stroke-opacity="0.90" stroke-linejoin="round"/>
<path d="M660.84,416.62 C664.63,417.95 669.76,420.35 672.41,421.76 C674.37,422.82 679.06,426.44 679.38,426.63 C679.54,426.73 679.66,426.75 679.75,426.68" fill="none" stroke="rgb(0, 0, 0)" stroke-width="7.00" stroke-opacity="0.90" stroke-linejoin="round"/>
<path d="M657.31,475.66 C657.31,475.66 657.43,496.37 657.43,496.37 C658.58,495.87 665.33,494.92 668.82,494.44 C673.32,493.86 678.24,493.96 678.72,494.74 C678.45,491.65 677.63,482.61 677.47,481.30 C677.17,478.81 676.76,476.09 676.52,474.86" fill="none" stroke="rgb(0, 0, 0)" stroke-width="6.00" stroke-opacity="1.00" stroke-linejoin="round"/>
<path d="M658.88,476.19 C655.24,475.39 651.82,475.51 648.51,475.75 C643.21,476.18 631.58,477.96 628.21,478.28 C626.38,478.46 625.52,478.35 625.05,478.03" fill="none" stroke="rgb(0, 0, 0)" stroke-width="6.00" stroke-opacity="1.00" stroke-linejoin="round"/>
<path d="M621.04,480.23 C620.70,477.42 622.12,468.44 622.23,466.75 C622.24,466.49 622.24,466.21 622.22,465.91" fill="none" stroke="rgb(0, 0, 0)" stroke-width="6.00" stroke-opacity="1.00" stroke-linejoin="round"/>
<path d="M627.81,459.49 C627.81,459.49 656.11,458.79 656.11,458.79" fill="none" stroke="rgb(0, 0, 0)" stroke-width="6.00" stroke-opacity="1.00" stroke-linejoin="round"/>
<path d="M679.10,475.40 C681.96,475.41 689.08,475.46 693.34,475.50 C697.60,475.54 707.92,475.63 708.24,475.62 C709.88,475.54 712.09,475.05 712.61,474.95 C712.76,474.92 712.92,474.92 713.10,474.97" fill="none" stroke="rgb(0, 0, 0)" stroke-width="6.00" stroke-opacity="1.00" stroke-linejoin="round"/>
<path d="M713.06,475.53 C713.06,475.53 712.16,459.63 712.16,459.63 C712.19,459.04 710.14,458.64 703.36,457.72 C699.49,457.22 691.36,456.17 688.49,456.26 C686.49,456.33 677.97,456.84 677.34,456.84 C676.93,456.83 676.28,456.79 675.40,456.70" fill="none" stroke="rgb(0, 0, 0)" stroke-width="6.00" stroke-opacity="1.00" stroke-linejoin="round"/>
<path d="M675.42,456.98 C674.23,451.31 673.30,439.86 673.28,439.69 C673.16,439.07 672.15,439.26 671.79,439.33 C667.68,440.15 657.07,439.48 656.93,439.66 C656.65,439.98 657.46,449.92 657.60,451.08 C657.67,451.68 657.81,452.76 658.04,454.33" fill="none" stroke="rgb(0, 0, 0)" stroke-width="6.00" stroke-opacity="1.00" stroke-linejoin="round"/>
<path d="M731.51,456.31 C733.93,455.05 738.83,453.32 743.33,452.37 C745.05,452.01 754.16,450.45 756.27,449.78 C757.48,449.38 763.64,446.83 766.17,446.17 C768.49,445.62 772.04,447.01 776.37,449.61 C779.24,451.31 783.73,452.32 786.08,452.77 C795.12,455.01 810.08,467.08 810.61,467.42 C810.95,467.64 811.64,467.99 812.66,468.50" fill="none" stroke="rgb(0, 0, 0)" stroke-width="6.00" stroke-opacity="1.00" stroke-linejoin="round"/>
<path d="M747.36,535.31 C751.22,537.84 755.14,539.45 758.19,540.19 C763.46,541.41 768.57,542.68 770.34,542.61 C773.59,542.45 778.00,540.79 780.82,539.23 C787.71,535.22 799.30,528.50 799.48,528.39 C799.84,528.16 800.50,527.72 801.46,527.07" fill="none" stroke="rgb(0, 0, 0)" stroke-width="6.00" stroke-opacity="1.00" stroke-linejoin="round"/>
<path d="M800.49,528.39 C801.59,525.11 803.54,521.56 805.82,518.46 C819.64,499.91 826.46,488.94 826.60,488.23 C827.39,483.64 825.37,478.11 824.80,476.91" fill="none" stroke="rgb(0, 0, 0)" stroke-width="6.00" stroke-opacity="1.00" stroke-linejoin="round"/>
<path d="M816.87,467.92 C816.87,467.92 816.01,467.32 816.01,467.32" fill="none" stroke="rgb(0, 0, 0)" stroke-width="6.00" stroke-opacity="1.00" stroke-linejoin="round"/>
<path d="M631.11,527.23 C631.78,526.65 632.27,526.20 632.59,525.88 C632.90,525.56 633.48,524.94 634.33,524.01" fill="none" stroke="rgb(0, 0, 0)" stroke-width="6.00" stroke-opacity="1.00" stroke-linejoin="round"/>
<path d="M717.26,509.56 C717.26,509.56 717.64,511.18 717.64,511.18" fill="none" stroke="rgb(0, 0, 0)" stroke-width="6.00" stroke-opacity="1.00" stroke-linejoin="round"/>
<path d="M707.43,520.57 C710.26,523.51 713.77,526.21 716.68,527.69 C720.35,529.54 751.67,540.35 755.24,540.52 C755.64,540.53 756.52,540.53 757.88,540.51" fill="none" stroke="rgb(0, 0, 0)" stroke-width="6.00" stroke-opacity="1.00" stroke-linejoin="round"/>
<path d="M811.24,465.85 C811.88,466.66 817.14,471.24 818.16,472.10 C818.74,472.58 824.80,477.59 825.57,479.53 C826.00,480.61 826.21,483.54 826.30,484.23 C826.32,484.43 826.38,484.56 826.50,484.64" fill="none" stroke="rgb(0, 0, 0)" stroke-width="6.00" stroke-opacity="1.00" stroke-linejoin="round"/>
<path d="M734.99,454.01 C733.86,453.69 732.50,453.84 730.97,454.73 C728.02,456.43 725.53,458.93 725.15,459.47" fill="none" stroke="rgb(0, 0, 0)" stroke-width="6.00" stroke-opacity="1.00" stroke-linejoin="round"/>
<path d="M617.86,455.13 C617.86,455.13 617.82,454.99 617.82,454.99 C617.82,454.99 614.84,454.40 614.84,454.40" fill="none" stroke="rgb(0, 0, 0)" stroke-width="6.00" stroke-opacity="1.00" stroke-linejoin="round"/>
<path d="M608.29,449.99 C602.30,448.44 594.93,447.61 582.54,446.78 C579.18,446.55 571.71,446.00 570.70,446.05 C565.39,446.31 562.18,446.94 559.33,448.93 C558.99,449.18 532.67,467.28 531.75,467.92 C531.50,468.09 531.25,468.27 531.00,468.45" fill="none" stroke="rgb(0, 0, 0)" stroke-width="6.20" stroke-opacity="1.00" stroke-linejoin="round"/>
<path d="M532.05,465.53 C530.22,467.38 526.90,471.43 524.69,474.66 C522.84,477.42 521.87,482.23 521.51,484.47 C521.00,486.75 518.14,495.13 518.13,495.35 C518.09,496.44 519.39,497.76 521.30,499.13 C521.44,499.23 535.32,509.22 536.35,509.96 C536.35,509.96 536.99,510.41 536.99,510.41" fill="none" stroke="rgb(0, 0, 0)" stroke-width="6.20" stroke-opacity="1.00" stroke-linejoin="round"/>
<path d="M558.13,529.47 C561.81,532.27 574.56,537.06 581.53,539.00 C586.40,540.33 597.11,540.43 608.24,539.45 C609.62,539.32 613.82,538.88 614.87,538.51 C617.52,537.57 622.00,532.09 623.71,531.20 C624.20,530.95 625.06,530.77 626.29,530.67" fill="none" stroke="rgb(0, 0, 0)" stroke-width="6.20" stroke-opacity="1.00" stroke-linejoin="round"/>
<path d="M618.91,537.05 C620.79,535.38 625.61,531.08 628.54,528.47 C629.35,527.75 630.17,527.03 630.98,526.30" fill="none" stroke="rgb(0, 0, 0)" stroke-width="6.20" stroke-opacity="1.00" stroke-linejoin="round"/>
<path d="M614.17,451.03 C611.31,450.38 605.41,449.07 602.37,448.41 C602.01,448.33 601.72,448.26 601.50,448.20" fill="none" stroke="rgb(0, 0, 0)" stroke-width="6.20" stroke-opacity="1.00" stroke-linejoin="round"/>
<path d="M561.04,531.08 C559.51,530.44 554.15,527.40 551.56,525.51 C546.94,522.11 540.49,515.18 540.10,514.81 C539.80,514.53 539.35,514.18 538.75,513.76" fill="none" stroke="rgb(0, 0, 0)" stroke-width="6.20" stroke-opacity="1.00" stroke-linejoin="round"/>
<path d="M545.08,518.65 C542.15,517.47 538.84,515.63 535.79,513.32 C533.33,511.42 530.87,509.02 529.54,507.70 C529.25,507.41 529.05,507.22 528.93,507.13" fill="none" stroke="rgb(0, 0, 0)" stroke-width="6.20" stroke-opacity="1.00" stroke-linejoin="round"/>
<path d="M613.01,450.16 C613.01,450.16 620.17,451.80 620.17,451.80" fill="none" stroke="rgb(0, 0, 0)" stroke-width="6.00" stroke-opacity="1.00" stroke-linejoin="round"/>
<path d="M622.58,468.41 C622.05,467.08 622.48,462.74 622.52,460.99 C622.53,460.63 622.54,460.30 622.56,460.00 C622.56,459.91 622.57,459.81 622.58,459.70" fill="none" stroke="rgb(0, 0, 0)" stroke-width="6.00" stroke-opacity="1.00" stroke-linejoin="round"/>
<path d="M622.86,460.61 C623.66,460.03 624.92,459.63 627.38,459.27 C629.02,459.04 630.23,458.88 630.99,458.81 C631.43,458.77 631.98,458.75 632.66,458.76 C632.79,458.76 632.87,458.76 632.89,458.76" fill="none" stroke="rgb(0, 0, 0)" stroke-width="6.00" stroke-opacity="1.00" stroke-linejoin="round"/>
<path d="M622.27,478.81 C623.29,478.46 624.72,478.30 627.13,478.34 C628.40,478.36 632.52,478.41 633.35,478.24 C633.66,478.17 634.25,477.99 635.11,477.68" fill="none" stroke="rgb(0, 0, 0)" stroke-width="6.00" stroke-opacity="1.00" stroke-linejoin="round"/>
<path d="M656.71,458.67 C656.40,457.74 657.24,452.05 657.32,449.43 C657.33,449.06 657.32,448.89 657.30,448.91" fill="none" stroke="rgb(0, 0, 0)" stroke-width="6.00" stroke-opacity="1.00" stroke-linejoin="round"/>
</g>
<g stroke-linecap="round" transform="translate(-386.00, -333.00)" id="Layer_12">
<path d="M574.04,448.46 C572.70,447.45 571.79,446.45 571.50,445.31 C570.96,443.13 570.91,438.23 571.40,434.66 C572.00,430.45 573.14,427.30 575.03,424.85 C575.25,424.56 575.69,424.02 576.34,423.21 C576.34,423.21 576.67,422.93 576.67,422.93" fill="none" stroke="rgb(0, 0, 0)" stroke-width="5.64" stroke-opacity="1.00" stroke-linejoin="round"/>
<path d="M579.01,421.32 C581.69,419.97 588.51,417.90 589.92,417.59 C592.03,417.13 597.57,416.35 601.95,415.58 C605.80,414.96 610.38,415.17 613.39,416.36 C616.56,417.68 621.38,421.83 623.69,425.53 C625.60,428.67 629.35,439.47 630.65,442.23" fill="none" stroke="rgb(0, 0, 0)" stroke-width="5.64" stroke-opacity="1.00" stroke-linejoin="round"/>
<path d="M829.65,480.72 C829.65,480.72 811.56,474.50 811.56,474.50" fill="none" stroke="rgb(0, 0, 0)" stroke-width="5.64" stroke-opacity="1.00" stroke-linejoin="round"/>
<path d="M714.74,448.13 C714.74,448.13 715.46,448.59 715.46,448.59" fill="none" stroke="rgb(0, 0, 0)" stroke-width="6.00" stroke-opacity="1.00" stroke-linejoin="round"/>
<path d="M769.93,444.28 C769.93,444.28 770.46,444.97 770.46,444.97" fill="none" stroke="rgb(0, 0, 0)" stroke-width="5.64" stroke-opacity="1.00" stroke-linejoin="round"/>
<path d="M709.33,441.07 C709.33,441.07 714.62,448.42 714.62,448.42" fill="none" stroke="rgb(0, 0, 0)" stroke-width="6.00" stroke-opacity="1.00" stroke-linejoin="round"/>
<path d="M769.20,433.82 C769.20,433.82 771.30,434.82 771.30,434.82" fill="none" stroke="rgb(0, 0, 0)" stroke-width="5.64" stroke-opacity="1.00" stroke-linejoin="round"/>
<path d="M828.85,490.83 C828.85,490.83 822.78,487.81 822.78,487.81" fill="none" stroke="rgb(0, 0, 0)" stroke-width="5.64" stroke-opacity="1.00" stroke-linejoin="round"/>
<path d="M582.11,418.71 C582.11,418.71 583.94,419.20 583.94,419.20 C584.03,418.98 584.07,418.83 584.08,418.74 C584.09,418.66 584.06,418.50 584.01,418.29" fill="none" stroke="rgb(0, 0, 0)" stroke-width="7.00" stroke-opacity="0.90" stroke-linejoin="round"/>
<path d="M709.54,435.41 C709.31,433.11 709.44,431.47 710.16,428.78 C710.89,426.16 711.97,423.16 712.73,422.05 C713.65,420.75 715.71,419.39 717.48,418.71 C720.71,417.55 724.41,416.80 727.17,416.55 C730.10,416.31 735.79,416.72 738.72,417.38 C741.76,418.09 747.84,420.52 750.78,422.20 C753.42,423.73 757.47,426.61 760.33,429.18 C763.64,432.20 765.27,434.32 766.77,437.43 C769.08,442.26 769.59,443.22 770.53,444.79" fill="none" stroke="rgb(0, 0, 0)" stroke-width="5.64" stroke-opacity="1.00" stroke-linejoin="round"/>
<path d="M716.97,418.96 C717.63,419.08 718.13,419.16 718.46,419.20 C718.79,419.24 719.42,419.31 720.34,419.39" fill="none" stroke="rgb(0, 0, 0)" stroke-width="5.64" stroke-opacity="1.00" stroke-linejoin="round"/>
<path d="M710.62,431.10 C709.07,433.26 709.71,439.96 710.27,441.87" fill="none" stroke="rgb(0, 0, 0)" stroke-width="6.00" stroke-opacity="1.00" stroke-linejoin="round"/>
<path d="M721.53,416.38 C723.18,416.77 724.20,417.01 724.59,417.11 C724.99,417.22 725.31,417.33 725.56,417.44" fill="none" stroke="rgb(0, 0, 0)" stroke-width="7.00" stroke-opacity="0.90" stroke-linejoin="round"/>
<path d="M757.40,424.03 C757.40,424.03 760.53,424.11 760.53,424.11" fill="none" stroke="rgb(0, 0, 0)" stroke-width="7.00" stroke-opacity="0.90" stroke-linejoin="round"/>
<path d="M760.40,431.76 C760.40,431.76 770.90,435.27 770.90,435.27" fill="none" stroke="rgb(0, 0, 0)" stroke-width="5.64" stroke-opacity="1.00" stroke-linejoin="round"/>
<path d="M713.33,421.12 C714.08,421.40 714.56,421.56 714.77,421.62 C714.98,421.68 715.21,421.73 715.47,421.75" fill="none" stroke="rgb(0, 0, 0)" stroke-width="7.00" stroke-opacity="0.90" stroke-linejoin="round"/>
<path d="M483.50,381.52 C477.03,378.95 447.64,368.94 435.13,365.65 C431.03,364.56 424.61,362.41 421.10,360.75 C417.92,359.23 415.41,357.66 412.02,355.07 C411.37,354.57 410.71,354.07 410.06,353.57" fill="none" stroke="rgb(0, 0, 0)" stroke-width="6.00" stroke-opacity="1.00" stroke-linejoin="round"/>
<path d="M499.41,364.63 C499.41,364.63 498.59,364.40 498.59,364.40 C488.35,361.36 478.36,358.64 470.01,357.15 C467.76,356.75 446.94,353.48 440.43,352.17 C433.13,350.62 418.43,347.47 411.04,345.88 C404.12,344.46 400.42,343.79 399.40,343.60" fill="none" stroke="rgb(0, 0, 0)" stroke-width="6.00" stroke-opacity="1.00" stroke-linejoin="round"/>
<path d="M418.61,359.90 C415.86,358.93 409.66,356.71 406.45,355.37 C399.03,352.27 390.90,347.38 388.33,345.79 C388.02,345.59 387.50,345.29 386.78,344.88" fill="none" stroke="rgb(0, 0, 0)" stroke-width="6.00" stroke-opacity="1.00" stroke-linejoin="round"/>
<path d="M393.60,343.50 C396.60,343.27 418.41,348.84 422.19,349.53 C422.59,349.60 423.33,349.70 424.42,349.83 C424.70,349.86 425.10,349.92 425.64,350.00" fill="none" stroke="rgb(0, 0, 0)" stroke-width="6.00" stroke-opacity="1.00" stroke-linejoin="round"/>
<path d="M399.66,340.80 C402.69,340.72 409.68,340.49 410.95,340.40 C414.52,340.15 432.02,337.98 439.30,336.35 C442.11,335.97 448.20,338.19 451.83,340.01 C459.25,343.80 474.44,351.51 479.51,353.54 C483.18,354.99 497.20,360.06 497.59,360.22 C497.92,360.34 498.41,360.56 499.07,360.86" fill="none" stroke="rgb(0, 0, 0)" stroke-width="6.00" stroke-opacity="1.00" stroke-linejoin="round"/>
<path d="M574.70,412.03 C569.65,411.55 559.26,408.80 550.54,405.60 C543.82,403.04 524.99,395.84 524.05,395.55" fill="none" stroke="rgb(0, 0, 0)" stroke-width="5.64" stroke-opacity="1.00" stroke-linejoin="round"/>
<path d="M511.11,387.12 C495.88,380.52 481.59,372.45 479.86,370.91 C480.33,369.77 484.04,369.36 487.10,369.35 C494.37,369.32 507.33,369.16 518.04,368.24 C521.44,367.98 524.84,368.92 525.69,369.41 C525.87,369.51 526.18,369.73 526.60,370.04" fill="none" stroke="rgb(0, 0, 0)" stroke-width="5.64" stroke-opacity="1.00" stroke-linejoin="round"/>
<path d="M525.38,367.15 C528.43,368.66 547.84,373.88 564.06,377.02 C580.42,380.65 594.43,384.98 618.00,389.91 C630.13,392.54 645.94,394.84 667.03,399.62 C676.40,401.99 695.00,408.11 696.50,408.54" fill="none" stroke="rgb(0, 0, 0)" stroke-width="5.64" stroke-opacity="1.00" stroke-linejoin="round"/>
<path d="M562.46,411.22 C562.46,411.22 564.59,408.99 564.59,408.99" fill="none" stroke="rgb(0, 0, 0)" stroke-width="5.64" stroke-opacity="1.00" stroke-linejoin="round"/>
<path d="M509.03,387.14 C511.98,388.86 518.51,392.60 521.14,393.82 C521.33,393.91 530.41,397.89 532.01,398.67 C533.07,399.20 535.54,400.54 536.11,400.83 C536.29,400.92 536.51,401.02 536.77,401.11" fill="none" stroke="rgb(0, 0, 0)" stroke-width="6.00" stroke-opacity="1.00" stroke-linejoin="round"/>
<path d="M694.23,406.54 C694.23,406.54 713.60,413.30 713.60,413.30" fill="none" stroke="rgb(0, 0, 0)" stroke-width="7.00" stroke-opacity="0.90" stroke-linejoin="round"/>
<path d="M550.46,408.17 C550.46,408.17 560.89,409.28 560.89,409.28 C560.58,409.29 560.37,409.29 560.26,409.29 C560.16,409.29 560.01,409.28 559.82,409.27" fill="none" stroke="rgb(0, 0, 0)" stroke-width="7.00" stroke-opacity="0.90" stroke-linejoin="round"/>
<path d="M495.05,381.90 C493.26,380.13 489.96,378.29 487.42,377.32 C487.13,377.21 486.61,377.04 485.87,376.80" fill="none" stroke="rgb(0, 0, 0)" stroke-width="7.00" stroke-opacity="0.90" stroke-linejoin="round"/>
<path d="M563.00,411.48 C563.00,411.48 563.46,411.41 563.46,411.41 C564.69,411.35 565.44,411.33 565.70,411.34 C565.97,411.35 566.12,411.42 566.16,411.54" fill="none" stroke="rgb(0, 0, 0)" stroke-width="7.00" stroke-opacity="0.90" stroke-linejoin="round"/>
<path d="M487.61,380.10 C487.24,378.35 486.45,376.05 485.66,374.77 C485.43,374.40 485.03,373.90 484.46,373.26" fill="none" stroke="rgb(0, 0, 0)" stroke-width="7.00" stroke-opacity="0.90" stroke-linejoin="round"/>
<path d="M492.09,381.99 C492.09,381.99 488.24,381.32 488.24,381.32" fill="none" stroke="rgb(0, 0, 0)" stroke-width="6.00" stroke-opacity="1.00" stroke-linejoin="round"/>
<path d="M509.53,367.03 C509.53,367.03 501.52,365.99 501.52,365.99" fill="none" stroke="rgb(0, 0, 0)" stroke-width="6.00" stroke-opacity="1.00" stroke-linejoin="round"/>
<path d="M707.34,410.79 C708.98,412.11 714.19,414.05 716.48,414.73 C718.27,415.26 721.55,415.87 722.05,415.94 C722.20,415.97 722.32,415.98 722.43,415.98" fill="none" stroke="rgb(0, 0, 0)" stroke-width="6.00" stroke-opacity="1.00" stroke-linejoin="round"/>
<path d="M774.82,434.96 C780.95,437.60 795.38,443.72 801.90,445.59 C805.41,446.57 812.78,448.65 816.63,449.76 C825.03,452.28 831.13,457.01 833.84,457.97 C834.36,458.15 843.87,460.26 844.84,460.95 C846.01,461.85 846.82,463.81 846.54,465.38 C845.72,469.63 840.79,482.77 840.68,483.09 C840.10,484.68 839.60,485.41 838.84,485.46 C838.11,485.49 836.43,485.03 835.46,484.64" fill="none" stroke="rgb(0, 0, 0)" stroke-width="5.64" stroke-opacity="1.00" stroke-linejoin="round"/>
<path d="M826.59,481.11 C828.44,482.05 832.74,483.93 835.95,484.79 C836.96,485.06 837.76,485.12 838.32,485.08" fill="none" stroke="rgb(0, 0, 0)" stroke-width="6.00" stroke-opacity="1.00" stroke-linejoin="round"/>
<path d="M764.38,431.86 C766.37,433.11 771.28,435.10 774.17,435.95 C776.90,436.73 781.09,437.57 782.13,437.77 C782.41,437.81 782.68,437.86 782.95,437.91" fill="none" stroke="rgb(0, 0, 0)" stroke-width="6.00" stroke-opacity="1.00" stroke-linejoin="round"/>
<path d="M560.16,407.34 C561.23,408.00 571.41,411.78 580.76,414.39 C584.36,415.36 590.51,417.00 594.07,417.89" fill="none" stroke="rgb(0, 0, 0)" stroke-width="6.00" stroke-opacity="1.00" stroke-linejoin="round"/>
<path d="M477.51,377.55 C478.29,378.14 482.70,379.39 486.50,380.24 C493.69,381.75 502.71,384.08 503.26,384.20 C503.62,384.28 504.24,384.41 505.11,384.57" fill="none" stroke="rgb(0, 0, 0)" stroke-width="6.00" stroke-opacity="1.00" stroke-linejoin="round"/>
<path d="M392.77,347.59 C392.77,347.59 387.49,343.93 387.49,343.93 C388.44,343.26 389.80,342.60 393.01,343.15 C393.53,343.24 400.89,344.88 401.55,344.99 C402.00,345.06 402.92,345.18 404.32,345.35" fill="none" stroke="rgb(0, 0, 0)" stroke-width="6.00" stroke-opacity="1.00" stroke-linejoin="round"/>
<path d="M490.30,361.07 C491.70,362.27 496.47,364.63 500.15,365.69 C502.63,366.37 512.15,367.92 513.49,368.09 C513.83,368.14 514.21,368.17 514.61,368.20" fill="none" stroke="rgb(0, 0, 0)" stroke-width="6.00" stroke-opacity="1.00" stroke-linejoin="round"/>
</g>
</svg>
