<?xml version="1.0" encoding="UTF-8" standalone="no"?>
<!DOCTYPE svg PUBLIC "-//W3C//DTD SVG 1.1//EN" "http://www.w3.org/Graphics/SVG/1.1/DTD/svg11.dtd">
<svg width="46.80" height="45.84" viewBox="0.00 0.00 195.00 191.00" xmlns="http://www.w3.org/2000/svg" xmlns:xlink="http://www.w3.org/1999/xlink">
<g stroke-linecap="round" transform="translate(-454.00, -780.00)" id="Layer_32">
<path d="M545.50,799.50 C541.84,800.25 529.81,807.60 524.45,811.76 C509.48,823.45 505.46,831.20 505.44,831.67 C506.24,831.51 507.66,830.58 509.27,829.01 C510.05,828.25 510.93,827.33 511.90,826.24 C512.17,825.93 512.43,825.62 512.67,825.30" fill="none" stroke="rgb(83, 80, 62)" stroke-width="26.00" stroke-opacity="1.00" stroke-linejoin="round"/>
<path d="M540.43,797.68 C537.92,798.32 536.07,798.93 534.09,799.83 C530.38,801.54 525.29,804.88 522.75,806.95 C516.85,811.89 507.12,823.59 504.47,828.23 C503.38,830.18 503.37,831.87 503.68,832.44" fill="none" stroke="rgb(83, 80, 62)" stroke-width="26.00" stroke-opacity="1.00" stroke-linejoin="round"/>
<path d="M520.21,813.56 C517.54,814.17 513.88,815.66 510.46,817.86 C507.05,820.09 502.46,823.55 501.09,824.97 C499.10,827.08 496.08,831.31 494.16,834.81 C490.71,841.19 490.04,848.58 490.10,852.23 C490.10,852.45 490.10,852.66 490.10,852.84" fill="none" stroke="rgb(83, 80, 62)" stroke-width="26.00" stroke-opacity="1.00" stroke-linejoin="round"/>
<path d="M504.21,826.90 C501.79,828.18 498.15,830.79 493.75,834.48 C490.78,837.04 488.91,839.27 486.31,843.19 C484.25,846.42 481.66,852.27 481.02,855.06 C480.49,857.49 479.96,862.80 479.90,866.79 C479.86,871.05 480.49,874.26 480.76,875.25 C480.82,875.46 480.88,875.67 480.94,875.87" fill="none" stroke="rgb(83, 80, 62)" stroke-width="26.00" stroke-opacity="1.00" stroke-linejoin="round"/>
<path d="M487.04,851.75 C485.22,852.27 484.21,852.82 483.50,853.89 C482.13,855.97 479.32,862.75 478.66,865.62 C477.42,871.23 477.21,884.30 477.68,889.81 C478.21,895.84 481.11,907.48 483.15,911.62 C484.58,914.45 486.05,915.38 487.01,915.74" fill="none" stroke="rgb(83, 80, 62)" stroke-width="26.00" stroke-opacity="1.00" stroke-linejoin="round"/>
<path d="M480.57,859.91 C479.96,860.89 479.20,865.24 478.89,870.57 C478.58,878.02 480.52,890.96 482.68,898.87 C484.18,904.12 485.73,908.56 487.06,910.93 C489.03,914.32 491.06,916.76 493.15,917.27 C493.33,917.31 493.54,917.33 493.77,917.34" fill="none" stroke="rgb(83, 80, 62)" stroke-width="26.00" stroke-opacity="1.00" stroke-linejoin="round"/>
<path d="M480.68,876.68 C480.17,879.72 480.27,883.85 480.62,886.76 C481.32,892.45 485.07,905.70 486.87,910.65 C489.07,916.68 495.04,928.10 498.32,931.75 C500.06,933.65 505.41,937.21 507.78,937.71 C508.36,937.82 511.88,937.64 512.30,937.53 C512.68,937.43 513.40,937.13 514.47,936.65" fill="none" stroke="rgb(83, 80, 62)" stroke-width="26.00" stroke-opacity="1.00" stroke-linejoin="round"/>
<path d="M490.35,915.08 C491.65,918.79 493.71,921.45 495.89,923.94 C502.86,931.82 511.95,939.64 519.22,944.73 C526.31,949.66 533.03,952.00 535.79,952.91 C536.20,953.05 536.92,953.32 537.94,953.71" fill="none" stroke="rgb(83, 80, 62)" stroke-width="26.00" stroke-opacity="1.00" stroke-linejoin="round"/>
<path d="M540.21,799.72 C542.92,798.91 549.55,799.02 553.66,799.36 C562.81,800.19 569.85,801.47 577.58,803.58" fill="none" stroke="rgb(83, 80, 62)" stroke-width="26.00" stroke-opacity="1.00" stroke-linejoin="round"/>
<path d="M547.38,794.10 C548.46,794.22 554.77,794.67 558.07,794.91 C569.69,795.78 577.34,797.76 583.66,800.48 C584.00,800.62 584.19,800.68 584.25,800.66" fill="none" stroke="rgb(83, 80, 62)" stroke-width="26.00" stroke-opacity="1.00" stroke-linejoin="round"/>
<path d="M580.40,801.01 C580.40,801.01 580.50,801.03 580.50,801.03" fill="none" stroke="rgb(83, 80, 62)" stroke-width="26.00" stroke-opacity="1.00" stroke-linejoin="round"/>
<path d="M617.64,922.92 C617.64,922.92 626.54,915.16 626.54,915.16" fill="none" stroke="rgb(83, 80, 62)" stroke-width="26.00" stroke-opacity="1.00" stroke-linejoin="round"/>
<path d="M622.89,916.89 C622.89,916.89 615.67,923.77 615.67,923.77" fill="none" stroke="rgb(83, 80, 62)" stroke-width="26.00" stroke-opacity="1.00" stroke-linejoin="round"/>
<path d="M627.95,913.78 C627.95,913.78 626.15,915.42 626.15,915.42" fill="none" stroke="rgb(83, 80, 62)" stroke-width="26.00" stroke-opacity="1.00" stroke-linejoin="round"/>
<path d="M580.92,952.81 C580.92,952.81 601.48,932.32 601.48,932.32" fill="none" stroke="rgb(83, 80, 62)" stroke-width="26.00" stroke-opacity="1.00" stroke-linejoin="round"/>
<path d="M563.55,951.88 C563.55,951.88 561.51,950.79 561.51,950.79 C564.04,950.52 568.30,950.93 570.77,950.90 C575.17,950.90 577.36,951.97 577.41,952.83 C574.30,954.12 566.98,954.45 565.56,954.44 C562.54,954.39 557.55,953.02 555.59,951.96 C554.94,951.59 552.54,949.74 552.45,949.23 C552.33,948.43 552.56,947.68 553.13,947.00 C553.38,946.72 553.96,946.38 554.88,945.98" fill="none" stroke="rgb(83, 80, 62)" stroke-width="26.00" stroke-opacity="1.00" stroke-linejoin="round"/>
<path d="M566.71,951.96 C564.76,951.96 560.90,951.99 559.00,952.03 C554.88,952.09 548.10,951.57 545.98,950.68 C544.88,950.20 543.41,948.90 543.13,948.21 C542.98,947.71 543.31,946.14 544.03,945.84 C545.68,945.19 548.63,944.99 550.49,945.37 C553.31,945.97 559.89,946.70 560.30,946.93 C560.45,947.02 560.62,947.24 560.81,947.59 C561.21,948.46 555.52,952.17 553.13,952.87 C551.96,953.17 549.57,953.04 548.53,952.58 C546.56,951.64 543.39,947.48 543.15,945.80 C543.12,945.55 543.10,945.08 543.11,944.38" fill="none" stroke="rgb(83, 80, 62)" stroke-width="26.00" stroke-opacity="1.00" stroke-linejoin="round"/>
<path d="M474.28,901.02 C472.79,898.96 472.00,897.24 471.64,894.99 C468.75,876.68 471.63,863.97 471.99,863.33 C472.17,863.01 472.55,862.70 473.11,862.40" fill="none" stroke="rgb(83, 80, 62)" stroke-width="26.00" stroke-opacity="1.00" stroke-linejoin="round"/>
<path d="M473.28,882.94 C471.68,881.66 470.91,880.46 470.75,878.73 C470.57,876.49 470.95,871.78 471.71,867.83 C472.42,864.25 478.07,849.73 479.33,847.09 C480.44,844.78 482.35,842.26 483.10,841.33" fill="none" stroke="rgb(83, 80, 62)" stroke-width="26.00" stroke-opacity="1.00" stroke-linejoin="round"/>
<path d="M473.34,858.75 C473.08,856.36 473.16,855.06 473.81,853.88 C477.66,847.00 483.67,838.64 487.30,834.69 C489.38,832.44 495.08,827.22 497.95,825.15 C502.92,821.64 509.46,819.88 510.08,819.80 C510.38,819.76 511.03,819.72 512.01,819.66" fill="none" stroke="rgb(83, 80, 62)" stroke-width="26.00" stroke-opacity="1.00" stroke-linejoin="round"/>
<path d="M471.37,858.56 C470.07,856.51 469.76,855.16 470.54,853.49 C473.13,847.93 479.69,837.51 483.90,832.37 C488.30,827.04 498.26,817.32 502.82,814.03 C506.44,811.46 511.96,808.56 514.96,807.51 C517.68,806.59 520.21,806.17 522.91,805.82" fill="none" stroke="rgb(83, 80, 62)" stroke-width="26.00" stroke-opacity="1.00" stroke-linejoin="round"/>
<path d="M507.27,816.35 C508.39,813.95 510.56,811.02 513.65,808.27 C516.73,805.57 522.14,801.71 525.25,800.02 C528.25,798.42 533.93,796.10 537.40,795.02 C540.64,794.03 545.67,793.21 549.61,792.87 C549.89,792.84 550.11,792.83 550.28,792.83" fill="none" stroke="rgb(83, 80, 62)" stroke-width="26.00" stroke-opacity="1.00" stroke-linejoin="round"/>
<path d="M515.26,805.55 C515.07,803.82 515.88,802.54 518.35,801.01 C521.17,799.28 526.20,796.65 528.88,795.65 C531.53,794.68 534.92,794.05 537.05,793.76 C537.40,793.71 537.64,793.69 537.75,793.69" fill="none" stroke="rgb(83, 80, 62)" stroke-width="26.00" stroke-opacity="1.00" stroke-linejoin="round"/>
<path d="M476.79,896.12 C475.24,896.59 474.46,898.42 474.45,902.28 C474.49,905.72 475.46,910.40 476.87,913.35 C478.37,916.40 482.11,921.44 484.74,923.98 C486.56,925.71 490.72,928.69 494.31,931.08 C497.19,932.99 499.88,934.19 500.37,934.22" fill="none" stroke="rgb(83, 80, 62)" stroke-width="26.00" stroke-opacity="1.00" stroke-linejoin="round"/>
<path d="M480.66,906.92 C480.17,910.46 481.38,915.30 482.46,917.89 C483.73,920.84 487.33,926.06 490.02,928.90 C494.83,933.89 508.21,942.88 511.20,944.52 C512.38,945.17 514.83,945.93 516.33,946.21 C516.65,946.27 516.90,946.27 517.06,946.21" fill="none" stroke="rgb(83, 80, 62)" stroke-width="26.00" stroke-opacity="1.00" stroke-linejoin="round"/>
<path d="M500.35,935.08 C500.26,936.84 500.55,938.10 501.62,939.55 C503.70,942.34 507.80,945.95 510.28,947.49 C512.92,949.10 518.67,951.23 520.00,951.52 C521.80,951.91 532.79,953.19 533.42,953.23 C533.86,953.26 534.62,953.28 535.71,953.30" fill="none" stroke="rgb(83, 80, 62)" stroke-width="26.00" stroke-opacity="1.00" stroke-linejoin="round"/>
<path d="M541.13,954.36 C543.99,954.83 552.30,956.19 553.63,956.38 C558.63,957.07 563.34,956.49 564.96,955.45 C566.33,954.54 567.30,953.71 567.86,952.97 C568.17,952.54 568.39,951.86 568.53,950.91 C568.53,950.91 568.36,950.68 568.36,950.68 C568.32,950.68 568.22,950.66 568.06,950.65 C567.50,950.61 566.80,950.73 566.26,951.08 C562.44,953.49 560.46,954.32 556.00,954.49 C552.68,954.58 544.59,954.27 541.53,953.78 C533.44,952.41 530.75,950.28 530.80,949.75 C530.84,949.45 531.08,948.62 531.53,947.27" fill="none" stroke="rgb(83, 80, 62)" stroke-width="26.00" stroke-opacity="1.00" stroke-linejoin="round"/>
<path d="M503.12,939.72 C501.17,939.98 499.71,939.96 498.46,939.48 C495.86,938.46 490.75,934.68 488.74,931.87 C486.62,928.82 484.48,922.60 484.74,920.00 C484.78,919.65 484.96,919.39 485.28,919.24" fill="none" stroke="rgb(83, 80, 62)" stroke-width="26.00" stroke-opacity="1.00" stroke-linejoin="round"/>
<path d="M592.56,808.40 C593.56,808.99 594.30,809.38 594.80,809.56 C595.30,809.74 596.25,809.97 597.64,810.26" fill="none" stroke="rgb(83, 80, 62)" stroke-width="26.00" stroke-opacity="1.00" stroke-linejoin="round"/>
<path d="M626.99,912.88 C624.93,916.92 620.55,921.26 617.85,923.59 C606.53,933.21 597.88,937.45 595.67,938.46 C595.68,937.77 598.88,934.04 601.39,931.88 C604.15,929.53 609.92,926.00 613.97,925.07 C614.14,926.34 613.82,927.44 612.65,928.95 C609.01,933.59 597.35,942.36 591.28,945.55 C592.76,943.02 603.01,937.74 603.66,937.50 C604.05,937.35 604.88,937.10 606.13,936.73" fill="none" stroke="rgb(83, 80, 62)" stroke-width="26.00" stroke-opacity="1.00" stroke-linejoin="round"/>
<path d="M600.12,939.19 C599.71,939.91 598.29,942.02 597.44,942.99 C596.11,944.52 589.12,949.20 586.54,950.68 C584.85,951.64 583.57,952.06 581.83,952.34 C582.95,949.55 586.41,947.01 587.50,946.21 C587.72,946.06 587.98,945.88 588.28,945.68" fill="none" stroke="rgb(83, 80, 62)" stroke-width="26.00" stroke-opacity="1.00" stroke-linejoin="round"/>
<path d="M544.61,815.29 C543.82,824.39 542.81,860.71 542.29,875.02 C541.81,883.65 540.50,891.88 540.37,892.71" fill="none" stroke="rgb(83, 80, 62)" stroke-width="26.00" stroke-opacity="1.00" stroke-linejoin="round"/>
<path d="M607.85,818.27 C608.20,820.43 609.23,826.72 609.58,829.93 C610.49,838.22 612.34,884.26 612.39,884.54" fill="none" stroke="rgb(83, 80, 62)" stroke-width="26.00" stroke-opacity="1.00" stroke-linejoin="round"/>
<path d="M613.80,870.61 C613.28,873.43 613.21,892.41 612.97,896.11 C612.68,900.54 612.10,903.79 611.26,908.02 C611.26,908.02 613.35,904.51 613.35,904.51" fill="none" stroke="rgb(83, 80, 62)" stroke-width="26.00" stroke-opacity="1.00" stroke-linejoin="round"/>
<path d="M563.52,808.19 C562.67,811.04 558.94,828.49 557.08,837.23 C554.37,848.91 551.50,858.48 548.43,864.72 C547.56,866.48 546.10,869.10 545.37,870.37 C544.54,871.80 542.93,873.15 541.54,873.64 C540.72,873.89 538.69,870.21 538.07,865.84 C537.50,861.52 537.76,845.58 538.75,838.14 C539.85,830.23 541.92,820.01 541.82,819.17 C541.13,818.76 523.47,861.98 518.12,871.93 C514.04,879.45 512.70,880.60 511.73,881.14 C510.97,880.56 510.62,879.80 510.67,878.36 C510.81,874.59 513.78,862.21 516.17,855.64 C523.42,836.20 528.21,829.03 529.73,827.01 C529.46,828.71 509.94,873.13 505.95,881.16 C505.29,882.51 504.91,882.98 504.19,883.46 C503.69,880.44 503.56,878.63 503.92,876.79 C506.00,866.12 513.38,841.47 515.44,834.81 C515.44,834.81 498.21,890.47 498.21,890.47 C498.21,890.47 503.80,852.21 503.80,852.21 C502.70,854.78 499.42,872.57 497.95,880.77 C496.69,887.66 495.17,896.19 494.91,897.83 C494.42,898.51 495.03,878.95 495.81,871.55 C496.18,868.11 497.23,861.16 497.53,860.46 C497.79,860.29 506.73,907.53 507.86,916.55 C508.32,920.06 509.18,925.35 510.09,925.79 C510.16,923.67 506.55,901.74 506.36,899.38 C505.74,891.46 506.43,887.98 506.98,886.63 C507.57,887.19 510.88,902.36 513.50,912.53 C515.83,920.58 518.50,929.79 518.85,930.94 C516.69,921.55 515.01,911.79 515.21,905.79 C515.26,904.59 515.59,902.97 515.98,902.12 C516.39,901.27 517.24,900.85 518.38,900.70 C520.34,902.26 523.92,908.26 524.99,910.34 C527.65,915.57 533.15,930.67 533.61,933.26 C532.21,932.95 531.39,932.46 530.80,931.31 C529.63,929.00 527.85,922.01 527.65,918.15 C527.49,914.41 528.45,908.27 529.49,905.34 C529.98,904.01 531.26,901.43 532.01,900.29 C532.71,899.28 534.61,897.91 535.81,897.53 C537.43,897.10 539.56,898.46 540.75,900.67 C542.58,904.22 544.06,918.10 544.00,925.81 C543.95,929.13 542.99,932.43 542.52,933.33 C542.05,931.75 540.72,914.11 541.65,908.51 C542.11,905.83 543.79,900.33 544.93,898.73 C545.67,897.70 546.94,897.10 548.41,896.82 C549.93,898.49 550.72,899.89 551.15,902.04 C553.44,913.54 552.44,930.77 551.63,933.48 C551.33,932.99 552.36,917.48 554.10,910.90 C555.05,907.38 557.41,901.70 558.30,900.52 C559.34,899.20 561.23,898.06 562.60,897.94 C563.27,897.91 564.64,898.99 565.08,899.77 C566.22,901.97 567.31,908.10 567.40,913.32 C567.44,918.45 564.61,933.64 563.91,933.52 C563.94,929.55 564.41,924.79 565.38,921.05 C566.37,917.37 568.75,911.80 570.41,909.25 C572.06,906.78 576.21,902.49 578.47,901.82 C579.86,901.45 581.69,901.59 582.13,902.12 C583.12,903.53 583.66,908.87 583.41,912.65 C583.19,915.49 581.46,923.44 580.54,926.28 C579.36,929.87 576.52,935.59 575.10,936.36 C574.38,936.72 573.16,936.87 572.90,936.62 C572.29,935.90 572.32,931.04 572.88,928.51 C573.59,925.44 575.19,920.87 576.64,917.79 C578.02,914.92 581.89,908.73 584.47,905.51 C586.51,903.00 591.38,898.16 593.07,897.08 C594.13,896.41 595.23,896.42 596.23,896.82 C596.54,900.14 594.76,906.82 594.06,908.64 C592.80,911.86 584.04,927.41 581.30,931.43 C580.55,930.52 585.82,916.96 587.50,914.08 C596.58,898.65 603.37,895.09 603.76,895.14 C603.66,896.65 600.92,903.13 598.72,906.87 C596.48,910.62 594.89,911.72 594.12,911.87 C593.16,909.89 593.58,895.30 593.82,886.92 C593.94,877.93 593.88,865.40 593.85,861.75 C593.83,859.70 593.86,858.57 593.97,856.50" fill="none" stroke="rgb(83, 80, 62)" stroke-width="26.00" stroke-opacity="1.00" stroke-linejoin="round"/>
<path d="M598.43,885.40 C596.69,883.30 594.73,879.63 593.03,874.53 C590.94,868.15 588.51,856.34 587.92,850.04 C586.30,832.28 589.21,824.51 589.94,823.46 C590.93,825.59 593.99,842.97 593.84,849.33 C593.72,853.01 592.37,856.64 590.60,857.85 C589.29,857.85 587.87,857.03 586.65,855.34 C585.36,853.54 583.42,847.51 582.77,843.06 C582.30,839.67 582.63,834.65 583.39,830.22 C583.69,828.42 584.35,827.22 585.89,825.29 C585.89,825.29 587.02,825.29 587.02,825.29 C588.07,827.25 588.24,830.92 588.00,833.19 C587.76,835.14 584.91,840.00 583.54,841.49 C581.77,843.38 579.52,844.72 577.62,845.04 C576.13,845.25 574.02,843.21 573.25,841.00 C571.53,835.84 570.20,823.40 570.11,820.36 C570.86,821.17 574.00,825.80 576.31,828.69 C580.19,833.59 581.70,836.21 581.48,838.73 C581.19,841.41 579.72,842.63 579.00,842.76 C578.56,841.69 578.29,840.97 578.19,840.60 C578.07,840.15 577.99,839.38 577.93,838.28 C577.74,834.80 577.79,829.14 578.25,826.41 C578.89,822.70 580.59,817.36 580.90,817.60 C581.12,819.25 580.39,826.33 580.47,827.16 C580.52,827.69 580.76,828.49 581.18,829.55" fill="none" stroke="rgb(83, 80, 62)" stroke-width="26.00" stroke-opacity="1.00" stroke-linejoin="round"/>
<path d="M627.63,851.46 C628.07,854.72 628.33,869.87 627.73,875.91 C627.47,878.52 627.11,899.39 626.93,901.35" fill="none" stroke="rgb(83, 80, 62)" stroke-width="26.00" stroke-opacity="1.00" stroke-linejoin="round"/>
<path d="M622.08,842.67 C622.08,842.67 620.41,833.44 620.41,833.44" fill="none" stroke="rgb(83, 80, 62)" stroke-width="26.00" stroke-opacity="1.00" stroke-linejoin="round"/>
<path d="M593.27,798.52 C593.35,798.57 594.99,799.89 596.26,800.91 C600.13,803.88 603.74,806.77 604.51,807.73 C604.83,808.15 605.52,809.10 606.57,810.60 C606.58,810.61 606.59,810.64 606.59,810.63" fill="none" stroke="rgb(83, 80, 62)" stroke-width="6.00" stroke-opacity="1.00" stroke-linejoin="round"/>
<path d="M601.74,802.79 C602.88,803.58 605.91,805.68 607.80,806.99 C618.65,814.55 619.49,815.25 620.14,816.03 C620.23,816.15 620.29,816.24 620.30,816.30" fill="none" stroke="rgb(83, 80, 62)" stroke-width="6.00" stroke-opacity="1.00" stroke-linejoin="round"/>
<path d="M615.39,815.52 C617.12,817.86 622.41,822.89 625.20,825.56 C627.90,828.20 630.25,831.89 630.13,832.39 C630.10,832.45 630.07,832.52 630.04,832.59" fill="none" stroke="rgb(83, 80, 62)" stroke-width="6.00" stroke-opacity="1.00" stroke-linejoin="round"/>
<path d="M618.57,817.59 C618.89,819.05 622.87,823.15 624.42,824.68 C626.54,826.90 628.37,830.00 628.59,831.85 C628.59,831.91 628.60,832.00 628.60,832.12" fill="none" stroke="rgb(83, 80, 62)" stroke-width="6.00" stroke-opacity="1.00" stroke-linejoin="round"/>
<path d="M620.85,818.37 C622.19,820.62 625.84,825.49 626.22,826.13 C627.37,828.01 628.12,830.04 628.30,831.57 C628.33,831.78 628.34,831.90 628.36,831.93 C628.36,831.93 628.36,831.54 628.36,831.54" fill="none" stroke="rgb(83, 80, 62)" stroke-width="6.00" stroke-opacity="1.00" stroke-linejoin="round"/>
<path d="M616.84,820.03 C617.45,821.31 621.01,827.22 622.92,830.40 C624.07,832.28 624.93,833.85 625.76,835.56 C625.88,835.81 625.94,835.95 625.95,835.99" fill="none" stroke="rgb(83, 80, 62)" stroke-width="6.00" stroke-opacity="1.00" stroke-linejoin="round"/>
<path d="M632.63,833.85 C633.01,835.01 634.49,841.14 635.69,844.77 C636.90,848.44 637.84,852.22 638.03,855.31 C638.04,855.43 638.02,855.76 638.06,855.65" fill="none" stroke="rgb(83, 80, 62)" stroke-width="6.00" stroke-opacity="1.00" stroke-linejoin="round"/>
<path d="M638.89,850.17 C638.78,855.03 639.14,862.35 639.19,863.44 C639.62,872.72 638.55,879.28 638.44,880.11 C638.38,880.58 638.29,881.58 638.17,883.13" fill="none" stroke="rgb(83, 80, 62)" stroke-width="6.00" stroke-opacity="1.00" stroke-linejoin="round"/>
<path d="M640.57,857.57 C640.65,864.24 640.93,880.26 640.71,883.59 C640.67,884.12 640.15,888.44 640.04,888.96 C639.80,890.14 639.27,891.01 638.85,891.27" fill="none" stroke="rgb(83, 80, 62)" stroke-width="6.00" stroke-opacity="1.00" stroke-linejoin="round"/>
<path d="M641.53,871.62 C641.56,874.52 641.69,879.03 641.46,882.06 C641.06,887.15 638.73,899.59 637.92,900.49 C637.77,900.25 637.69,900.10 637.66,900.05 C637.63,899.99 637.63,899.94 637.64,899.89" fill="none" stroke="rgb(83, 80, 62)" stroke-width="6.00" stroke-opacity="1.00" stroke-linejoin="round"/>
<path d="M641.56,889.98 C641.56,889.98 635.25,906.70 635.25,906.70 C635.25,906.70 638.64,898.64 638.64,898.64 C638.64,898.64 636.79,906.71 636.79,906.71 C637.63,903.15 640.26,896.84 640.64,895.72 C641.27,893.84 641.26,888.16 641.36,887.34 C641.36,887.34 640.54,891.88 640.54,891.88 C640.54,891.88 641.98,881.53 641.98,881.53 C641.98,881.53 638.33,857.47 638.33,857.47 C639.63,859.02 641.32,871.11 641.05,874.44 C641.05,874.44 642.64,866.02 642.64,866.02 C642.64,866.02 640.85,883.16 640.85,883.16 C640.85,883.16 641.70,881.84 641.70,881.84" fill="none" stroke="rgb(83, 80, 62)" stroke-width="6.00" stroke-opacity="1.00" stroke-linejoin="round"/>
</g>
<g stroke-linecap="round" transform="translate(-465.00, -780.00)" id="Layer_33">
<path d="M569.46,848.75 C566.38,848.55 563.31,848.85 560.30,849.92 C557.30,851.01 551.67,853.49 549.42,854.76 C546.76,856.30 543.54,859.58 541.72,862.49 C540.49,864.48 537.44,870.68 536.96,872.62 C536.28,875.44 536.21,881.13 537.31,883.92 C538.65,887.14 542.59,891.23 545.38,892.97 C548.37,894.79 552.54,896.66 555.89,897.71 C560.87,899.19 566.08,900.37 569.99,900.75 C572.80,901.00 578.38,900.89 580.83,900.18 C583.41,899.36 586.95,895.34 589.25,891.20 C590.83,888.21 594.48,881.13 594.82,879.25 C595.47,875.36 594.83,870.32 593.37,866.83 C591.98,863.62 589.54,859.55 587.56,857.39 C585.51,855.19 581.42,852.59 578.78,851.70 C575.97,850.81 570.37,850.39 567.23,851.16 C564.56,851.84 553.13,857.31 552.14,857.79 C552.01,857.29 554.42,854.27 557.55,852.55 C561.00,850.69 565.81,849.35 568.75,849.08 C571.35,848.87 576.31,849.97 579.44,851.92 C581.54,853.28 585.93,860.01 586.53,863.18 C586.83,865.02 586.46,868.58 585.71,870.03 C584.20,872.81 578.71,876.65 576.08,877.83 C573.12,879.13 567.56,880.53 564.88,880.76 C562.83,880.93 557.08,880.68 554.92,879.87 C553.95,879.49 552.02,877.65 551.48,876.66 C550.89,875.50 550.57,872.68 550.91,871.45 C551.27,870.29 553.01,867.91 554.25,866.79 C555.71,865.54 558.58,863.97 560.28,863.55 C562.24,863.10 565.08,863.58 567.01,864.53 C568.61,865.38 571.54,869.19 572.19,871.60 C572.39,872.38 572.71,875.60 572.58,876.41 C572.27,878.02 571.03,880.38 569.71,881.77 C568.04,883.44 565.61,884.92 563.83,885.26 C562.19,885.52 559.39,884.85 558.17,883.88 C556.95,882.83 555.44,879.90 555.17,878.05 C554.94,876.10 555.65,872.95 556.68,871.20 C557.63,869.69 560.28,867.07 561.77,866.17 C563.38,865.26 566.86,864.36 568.63,864.42 C570.53,864.54 573.59,865.85 574.73,867.04 C575.81,868.28 576.33,871.18 575.71,872.73 C575.08,874.15 572.21,877.07 570.60,878.01 C569.05,878.86 565.51,879.70 564.13,879.54 C562.51,879.30 560.98,877.36 560.43,875.17 C560.00,873.23 560.54,866.61 561.20,864.49 C562.27,861.20 565.13,857.50 565.91,856.48 C566.09,856.25 566.32,855.98 566.59,855.67" fill="none" stroke="rgb(110, 106, 80)" stroke-width="26.00" stroke-opacity="1.00" stroke-linejoin="round"/>
<path d="M555.96,842.63 C552.33,844.58 540.82,852.16 538.89,854.47 C536.20,857.73 532.39,863.49 531.49,865.85 C530.62,868.25 530.01,872.14 529.95,874.88 C529.90,878.40 530.96,887.31 531.24,888.65 C531.97,891.98 534.79,897.59 536.61,898.93 C537.53,899.59 547.86,905.04 547.93,905.07 C550.27,906.30 557.54,908.35 560.19,908.77 C563.09,909.20 571.27,909.05 571.68,908.99 C573.28,908.71 579.52,905.52 581.63,904.14 C584.26,902.40 588.01,899.12 590.34,896.75 C592.21,894.83 594.72,890.43 595.87,887.19 C597.01,883.88 597.47,879.75 597.71,877.29 C598.03,874.77 597.31,867.66 597.18,866.46 C596.99,864.90 596.20,863.18 595.18,861.90 C593.48,859.86 586.84,853.10 584.90,852.10 C584.19,851.75 575.61,848.37 572.10,845.99 C569.87,844.51 567.06,843.03 565.61,842.81 C565.09,842.74 557.78,842.86 557.54,843.14" fill="none" stroke="rgb(110, 106, 80)" stroke-width="26.00" stroke-opacity="1.00" stroke-linejoin="round"/>
</g>
<g stroke-linecap="round" transform="translate(-464.00, -782.00)" id="Layer_35">
<path d="M557.84,881.68 C557.84,881.68 553.27,878.27 553.27,878.27 C553.31,877.08 554.50,875.35 556.33,874.12 C557.73,873.22 563.66,872.82 565.97,873.59 C567.29,874.07 569.26,875.34 569.95,876.21 C570.62,877.10 571.30,879.20 571.37,880.45 C571.41,881.79 570.89,883.70 570.17,884.79 C568.74,886.86 564.44,888.74 562.06,888.37 C559.83,887.96 556.87,885.14 555.52,882.73 C554.81,881.37 554.43,878.92 554.71,877.21 C554.85,876.46 556.42,874.62 556.92,874.26 C557.74,873.73 559.92,873.27 561.01,873.46 C562.18,873.70 564.79,875.15 565.89,876.15 C566.99,877.19 568.29,879.35 568.51,880.52 C568.69,881.68 568.02,883.63 567.13,884.53 C566.20,885.39 563.84,886.37 562.40,886.48 C560.81,886.55 558.56,885.76 557.37,884.69 C556.33,883.71 554.89,881.26 554.51,879.89 C553.81,877.01 555.03,873.69 556.01,872.53 C556.36,872.14 557.20,871.28 558.54,869.95" fill="none" stroke="rgb(163, 151, 85)" stroke-width="26.00" stroke-opacity="1.00" stroke-linejoin="round"/>
</g>
<g stroke-linecap="round" transform="translate(-473.00, -785.00)" id="Layer_34">
<path d="M543.72,802.98 C543.30,804.39 542.54,821.87 542.22,829.94 C541.97,838.59 542.50,845.09 542.97,846.55 C543.69,846.96 561.10,847.12 566.06,848.88 C568.22,849.69 575.22,854.40 575.94,855.08 C573.50,865.36 571.85,874.77 571.23,882.77 C570.97,886.34 571.04,892.60 571.04,892.60 C571.04,892.60 569.64,893.31 569.64,893.31" fill="none" stroke="rgb(206, 194, 127)" stroke-width="6.00" stroke-opacity="1.00" stroke-linejoin="round"/>
<path d="M570.64,885.09 C570.67,886.89 570.45,890.59 569.92,897.38 C569.37,904.70 568.81,916.46 568.81,916.46 C569.11,916.25 561.04,914.80 560.23,914.77 C558.71,914.75 557.04,915.38 556.69,916.22 C556.13,917.76 553.46,944.37 553.43,945.07" fill="none" stroke="rgb(206, 194, 127)" stroke-width="6.00" stroke-opacity="1.00" stroke-linejoin="round"/>
<path d="M498.48,847.62 C498.73,848.66 500.09,856.69 500.78,859.71 C502.08,865.34 506.84,877.76 508.76,879.92 C509.61,879.87 513.50,876.73 516.37,875.49 C519.36,874.26 542.61,873.15 545.15,872.76 C546.07,875.58 547.49,879.38 548.49,881.28 C549.93,883.95 552.95,887.48 555.49,888.59 C556.78,889.14 557.53,889.54 557.37,889.56 C557.37,889.56 557.45,892.79 557.45,892.79 C560.55,891.21 567.00,887.93 570.36,886.23 C572.27,885.30 575.49,884.04 581.18,881.71 C581.97,881.39 582.75,881.06 583.54,880.74" fill="none" stroke="rgb(206, 194, 127)" stroke-width="6.00" stroke-opacity="1.00" stroke-linejoin="round"/>
<path d="M576.79,882.61 C578.68,881.41 583.16,878.61 585.39,877.68 C586.79,877.11 590.57,875.84 590.49,875.78 C595.20,880.74 611.18,895.42 612.79,896.42 C613.54,896.84 616.23,894.89 621.05,891.07 C623.61,889.03 627.99,885.52 627.99,885.52 C630.14,885.71 636.97,887.18 638.16,887.40 C639.73,887.69 641.95,888.03 643.15,888.19" fill="none" stroke="rgb(206, 194, 127)" stroke-width="6.00" stroke-opacity="1.00" stroke-linejoin="round"/>
</g>
<g stroke-linecap="round" transform="translate(-454.00, -780.00)" id="Layer_27_Copy">
<path d="M535.70,780.97 C531.19,782.18 526.43,783.77 524.09,785.03 C520.38,787.07 505.49,798.26 501.00,801.97 C494.99,807.12 484.36,816.74 479.77,822.07 C474.90,827.77 466.92,838.51 463.90,844.41 C462.50,847.17 460.38,852.67 459.45,855.74 C458.54,858.83 457.32,866.21 457.14,869.72 C456.84,876.15 458.82,890.12 460.17,896.12 C462.20,904.86 466.66,918.00 469.74,923.55 C473.39,930.06 484.41,942.80 488.74,946.60 C491.43,948.95 501.29,955.47 506.79,958.02 C511.95,960.40 523.42,964.10 529.45,965.41 C535.53,966.71 548.18,968.00 554.18,967.89 C560.44,967.75 572.09,965.95 577.71,964.17 C583.15,962.41 593.35,957.35 598.24,954.13 C602.94,951.00 612.29,943.07 616.83,938.43 C620.80,934.36 629.61,923.91 632.83,919.19 C636.37,913.98 641.24,903.92 642.77,898.55 C644.27,893.18 645.37,881.13 645.00,874.68 C644.62,868.44 642.44,855.58 640.77,849.38 C639.08,843.19 634.94,832.85 632.29,828.32 C629.67,823.86 622.68,815.55 618.33,811.61 C614.43,808.11 603.07,799.81 598.80,797.52 C593.25,794.57 579.39,788.64 571.61,786.71 C565.08,785.12 549.43,783.23 543.48,783.51 C541.90,783.59 539.31,783.87 537.92,784.07" fill="none" stroke="rgb(0, 0, 0)" stroke-width="6.00" stroke-opacity="1.00" stroke-linejoin="round"/>
<path d="M547.04,783.59 C545.31,783.42 542.48,783.21 540.99,783.19 C536.37,783.14 528.82,784.05 527.02,785.58 C526.74,785.82 526.36,786.32 525.88,787.05" fill="none" stroke="rgb(0, 0, 0)" stroke-width="6.00" stroke-opacity="1.00" stroke-linejoin="round"/>
</g>
</svg>
