<?xml version="1.0" encoding="UTF-8" standalone="no"?>
<!DOCTYPE svg PUBLIC "-//W3C//DTD SVG 1.1//EN" "http://www.w3.org/Graphics/SVG/1.1/DTD/svg11.dtd">
<svg width="51.36" height="50.64" viewBox="0.00 0.00 214.00 211.00" xmlns="http://www.w3.org/2000/svg" xmlns:xlink="http://www.w3.org/1999/xlink">
<g stroke-linecap="round" transform="translate(-155.00, -768.00)" id="Layer_28">
<path d="M227.51,791.19 C225.54,790.88 223.80,791.06 222.21,791.88 C218.99,793.57 209.90,801.73 205.65,807.18 C201.20,812.90 192.63,826.43 190.90,831.51 C190.35,833.15 190.12,834.80 190.28,834.98" fill="none" stroke="rgb(79, 79, 79)" stroke-width="26.00" stroke-opacity="1.00" stroke-linejoin="round"/>
<path d="M208.01,806.79 C205.71,808.43 200.59,812.10 199.10,813.38 C195.43,816.54 191.64,822.60 186.91,831.28 C183.72,837.40 177.90,849.18 176.66,853.92 C175.14,859.91 174.43,874.74 174.60,879.04 C174.73,881.99 175.76,889.10 176.25,891.38 C177.12,895.15 178.92,898.45 179.72,898.94 C180.07,899.15 180.71,899.17 181.65,899.00" fill="none" stroke="rgb(79, 79, 79)" stroke-width="26.00" stroke-opacity="1.00" stroke-linejoin="round"/>
<path d="M176.31,854.01 C174.77,855.31 172.93,858.52 171.87,862.09 C170.92,865.43 170.02,871.30 169.98,874.29 C169.96,879.98 172.76,893.39 174.46,898.82 C175.34,901.60 178.21,908.85 179.85,911.87 C181.34,914.60 184.10,918.08 186.26,919.82 C187.51,920.80 189.87,921.43 191.87,921.38 C192.29,921.36 192.70,921.25 193.09,921.04" fill="none" stroke="rgb(79, 79, 79)" stroke-width="26.00" stroke-opacity="1.00" stroke-linejoin="round"/>
<path d="M177.32,898.94 C177.50,901.58 179.51,905.32 182.96,910.18 C185.92,914.18 203.76,933.14 211.35,939.34 C214.03,941.51 220.89,945.42 224.09,947.42 C229.33,950.69 239.85,953.95 240.79,953.66" fill="none" stroke="rgb(79, 79, 79)" stroke-width="26.00" stroke-opacity="1.00" stroke-linejoin="round"/>
<path d="M192.08,920.14 C192.08,920.14 191.69,921.98 191.69,921.98 C195.54,926.53 207.63,937.61 210.02,939.28 C210.78,939.82 226.47,948.58 232.66,952.38 C235.63,954.09 240.54,956.30 243.95,957.15 C244.01,957.17 261.42,959.21 262.07,959.23 C262.44,959.24 262.75,959.16 263.03,958.99" fill="none" stroke="rgb(79, 79, 79)" stroke-width="26.00" stroke-opacity="1.00" stroke-linejoin="round"/>
<path d="M246.41,953.63 C247.35,955.14 249.06,956.73 251.21,957.94 C252.73,958.78 257.10,960.01 260.31,960.07 C261.39,960.09 271.11,960.10 273.15,960.51 C273.71,960.63 276.88,961.49 278.57,961.70 C281.15,962.01 287.40,960.54 290.34,959.85 C292.79,959.22 307.59,954.53 313.18,951.52 C315.80,950.28 322.92,948.40 325.93,946.45 C327.05,945.71 329.49,943.84 330.12,943.27 C330.33,943.07 330.63,942.77 331.00,942.37" fill="none" stroke="rgb(79, 79, 79)" stroke-width="26.00" stroke-opacity="1.00" stroke-linejoin="round"/>
<path d="M226.81,789.20 C228.58,789.18 235.45,787.91 238.37,787.66 C241.58,787.40 249.10,787.14 251.83,787.27 C257.32,787.53 262.02,786.65 262.51,786.58 C265.24,786.21 269.91,786.95 272.43,787.14 C275.73,787.40 280.25,788.66 283.71,789.39 C286.23,789.94 290.74,793.71 292.21,794.64 C293.43,795.42 294.08,795.68 294.27,795.56" fill="none" stroke="rgb(79, 79, 79)" stroke-width="26.00" stroke-opacity="1.00" stroke-linejoin="round"/>
<path d="M283.57,784.66 C283.57,784.66 283.63,784.74 283.63,784.74" fill="none" stroke="rgb(79, 79, 79)" stroke-width="26.00" stroke-opacity="1.00" stroke-linejoin="round"/>
<path d="M336.48,827.12 C336.48,827.12 354.72,870.91 354.72,870.91" fill="none" stroke="rgb(79, 79, 79)" stroke-width="26.00" stroke-opacity="1.00" stroke-linejoin="round"/>
<path d="M352.48,884.69 C352.48,884.69 346.32,909.34 346.32,909.34" fill="none" stroke="rgb(79, 79, 79)" stroke-width="26.00" stroke-opacity="1.00" stroke-linejoin="round"/>
<path d="M355.36,887.30 C355.36,887.30 351.95,899.66 351.95,899.66" fill="none" stroke="rgb(79, 79, 79)" stroke-width="26.00" stroke-opacity="1.00" stroke-linejoin="round"/>
<path d="M344.37,891.83 C341.93,898.89 337.08,909.99 332.94,915.60 C330.66,918.64 327.81,921.09 326.78,920.98 C325.68,920.72 324.33,917.68 323.87,914.24 C323.47,910.91 324.01,903.55 324.97,899.12 C326.18,893.69 331.00,881.50 334.34,876.59 C336.13,874.01 337.72,872.51 338.99,871.51 C338.99,871.51 340.01,871.75 340.01,871.75 C340.71,876.28 340.10,881.56 339.21,885.75 C337.61,892.87 334.05,907.95 332.84,911.99 C330.45,919.95 328.48,922.16 327.73,922.52 C326.70,921.78 326.16,920.88 325.91,919.08 C325.21,914.10 325.30,902.33 325.97,894.44 C326.99,884.11 328.59,875.40 330.10,871.42 C331.10,868.87 333.89,863.82 335.89,861.84 C337.59,860.18 340.32,859.11 340.98,859.49 C341.86,860.10 342.67,864.06 342.54,867.18 C342.23,873.58 338.64,885.90 336.70,890.63 C330.92,904.60 322.65,919.27 321.05,921.04 C320.34,921.81 318.79,922.37 318.06,922.34 C317.21,922.22 316.00,918.41 315.89,914.55 C315.74,907.92 318.60,893.39 320.99,886.82 C322.43,882.93 324.97,877.74 326.86,874.79 C328.41,872.42 331.67,868.95 333.70,867.92 C334.63,868.66 334.31,872.85 333.56,875.60 C331.95,881.36 327.45,892.55 323.92,900.57 C322.01,904.77 314.04,920.23 310.84,924.84 C309.41,926.87 305.87,931.16 303.49,933.31 C302.19,934.45 299.83,935.71 297.97,936.31 C296.88,936.64 294.77,934.66 294.01,932.07 C293.21,929.26 292.85,924.32 293.01,922.08 C293.37,917.49 297.28,905.32 300.24,900.02 C301.87,897.15 305.81,891.89 307.48,890.18 C313.57,884.04 317.97,883.45 319.99,883.49 C321.26,885.04 321.97,886.30 322.38,888.02 C323.14,891.28 323.43,898.63 322.91,902.49 C322.12,908.13 318.64,920.54 316.27,925.94 C314.71,929.46 311.46,934.62 309.48,936.70 C308.47,937.72 306.31,939.12 304.93,939.63 C303.87,939.99 302.18,939.39 301.30,938.57 C300.19,937.43 299.38,932.12 300.14,929.09 C300.93,926.12 305.00,919.15 307.44,916.35 C309.87,913.59 316.01,908.53 319.06,907.04 C322.10,905.62 328.67,904.66 329.57,905.96 C330.69,907.71 330.09,912.87 328.89,915.47 C326.76,919.95 316.30,931.49 311.38,935.76 C308.40,938.32 303.57,941.33 300.50,942.22 C297.74,942.96 293.23,942.73 291.01,941.52 C288.88,940.29 285.52,936.25 284.48,933.72 C283.62,931.55 282.95,925.53 283.35,922.98 C283.84,920.12 286.65,913.82 288.80,910.95 C290.95,908.12 295.75,903.84 297.35,902.79 C300.93,900.52 307.53,898.31 310.46,898.34 C313.29,898.42 316.87,900.03 317.69,901.89 C318.32,903.45 317.86,908.95 316.66,911.46 C315.42,914.00 311.30,919.76 308.71,922.28 C306.13,924.76 299.92,929.28 296.48,931.19 C293.04,933.08 286.00,935.97 282.50,936.85 C278.78,937.75 272.07,938.28 268.15,937.85 C264.74,937.43 260.00,934.96 258.26,932.85 C256.63,930.79 255.27,925.61 255.39,922.58 C255.55,919.63 257.66,913.48 259.34,910.81 C261.15,908.01 265.89,903.66 268.79,902.10 C271.65,900.62 277.80,899.54 280.50,899.93 C283.04,900.34 288.86,902.80 291.58,904.78 C294.08,906.65 297.43,910.54 298.34,912.73 C299.21,914.95 299.61,920.35 299.10,922.97 C298.53,925.66 295.88,931.13 293.89,933.72 C291.72,936.48 286.40,941.02 283.34,942.61 C280.29,944.15 273.77,945.65 270.08,945.77 C266.48,945.85 259.94,944.82 256.21,943.60 C249.15,941.24 241.12,936.12 239.73,934.78 C238.18,933.22 237.23,930.88 237.19,928.48 C237.20,926.19 239.37,921.97 241.62,919.78 C244.16,917.37 249.32,914.22 252.40,913.20 C255.32,912.28 261.49,911.79 264.45,912.03 C267.35,912.30 272.53,913.93 274.75,915.25 C276.92,916.57 280.51,920.26 282.06,922.50 C283.31,924.34 285.67,929.17 286.17,932.43 C286.35,933.81 285.96,935.92 285.27,936.89 C283.14,939.70 277.27,943.26 274.16,944.26 C270.74,945.33 263.74,945.82 260.02,945.38 C256.36,944.92 249.40,942.59 246.39,940.92 C243.45,939.24 239.05,935.08 237.56,932.72 C236.17,930.46 234.72,925.48 234.66,923.01 C234.64,920.49 236.00,915.55 237.40,913.34 C238.75,911.26 243.96,906.63 246.46,905.41 C249.26,904.09 255.38,903.18 258.52,903.61 C262.05,904.14 266.66,905.99 269.54,907.71 C272.39,909.46 276.79,914.04 277.89,916.77 C278.23,917.71 278.57,921.01 278.16,921.86 C277.49,923.13 274.93,925.25 273.10,926.20 C267.49,929.01 256.42,932.49 250.31,933.32 C246.18,933.87 238.59,933.66 235.25,932.65 C231.91,931.59 226.37,927.93 224.31,925.48 C222.40,923.14 220.18,918.04 219.86,915.34 C219.58,912.62 220.66,907.24 222.03,904.73 C223.43,902.25 227.63,897.95 230.23,896.33 C232.85,894.75 238.82,892.87 242.05,892.52 C245.20,892.20 251.14,892.68 253.77,893.53 C256.40,894.41 261.08,897.37 263.05,899.34 C264.90,901.23 267.55,905.22 268.55,907.57 C269.03,908.76 269.55,911.37 269.59,912.97 C269.61,914.41 268.56,916.33 267.28,917.58 C265.68,919.07 259.82,922.48 256.50,923.66 C253.50,924.70 246.38,925.88 242.52,926.07 C238.34,926.26 231.28,925.67 227.36,924.78 C223.72,923.92 216.41,921.10 213.85,919.36 C210.76,917.20 206.12,912.12 204.53,908.76 C203.12,905.71 201.99,899.93 201.82,897.37 C201.57,892.79 202.83,884.37 204.48,880.06 C205.28,878.01 207.28,874.16 208.43,872.47 C209.82,870.47 213.86,866.27 216.68,864.64 C219.79,862.89 226.03,861.72 229.26,862.14 C232.32,862.59 237.47,865.27 240.00,867.35 C242.20,869.20 245.07,873.66 245.70,876.11 C246.30,878.67 245.98,884.35 245.03,887.44 C244.05,890.48 240.53,897.00 238.24,900.02 C235.79,903.20 230.51,908.15 227.07,910.47 C223.40,912.89 216.71,915.51 213.46,916.02 C211.72,916.26 208.20,916.10 206.53,915.68 C203.47,914.87 198.67,911.55 196.93,909.81 C193.96,906.75 189.43,898.32 188.10,893.13 C186.76,887.75 186.31,875.10 187.25,869.25 C188.20,863.55 192.24,852.51 194.91,847.93 C196.19,845.76 198.89,842.04 200.33,840.46 C201.99,838.68 206.54,835.06 209.24,834.07 C212.12,833.06 217.97,833.22 220.45,834.58 C222.85,835.97 226.79,840.73 228.00,843.65 C229.15,846.56 229.75,852.92 229.32,856.36 C228.71,860.85 222.97,875.05 220.28,879.15 C217.86,882.79 212.94,887.74 210.44,889.09 C208.03,890.35 203.38,891.22 201.49,890.54 C199.50,889.75 196.06,885.42 195.17,882.32 C193.82,877.44 194.28,865.20 195.94,857.80 C197.41,851.33 201.57,839.97 205.55,832.14 C207.30,828.73 209.33,825.60 212.45,821.95 C215.07,818.92 218.74,815.92 221.34,814.62 C222.74,813.94 225.72,813.25 227.12,813.23 C228.49,813.25 230.93,813.93 232.04,814.62 C234.30,816.11 237.51,821.67 238.53,824.97 C240.73,832.25 241.86,841.50 242.09,848.67 C242.30,855.55 241.28,867.67 239.67,874.67 C238.36,880.24 234.24,889.92 231.86,893.28 C230.52,895.12 228.35,897.49 227.07,898.40 C225.88,899.21 223.46,900.06 222.27,900.08 C221.08,900.07 218.73,899.28 217.61,898.52 C215.29,896.87 211.42,891.25 210.25,888.67 C208.17,883.98 206.37,875.71 206.34,869.20 C206.34,864.41 208.68,853.22 211.72,845.17 C214.39,838.32 220.74,827.07 224.06,822.79 C225.72,820.67 228.41,817.69 230.46,815.78 C232.74,813.70 238.27,810.38 241.06,810.13 C242.40,810.05 244.81,810.68 245.83,811.40 C247.96,812.99 250.44,818.86 251.06,821.97 C251.88,826.34 252.38,837.23 251.27,845.02 C250.36,851.26 245.66,864.27 242.77,869.34 C240.18,873.68 237.17,877.88 234.80,879.79 C232.46,881.62 228.04,882.50 226.51,881.65 C224.78,880.59 222.55,875.63 221.87,872.60 C220.82,867.58 221.06,855.99 222.12,851.25 C223.73,844.24 228.73,831.40 232.47,824.47 C235.86,818.24 242.86,808.15 247.97,802.71 C249.91,800.68 254.00,797.28 256.73,795.83 C258.11,795.11 260.94,794.44 262.07,794.53 C263.23,794.67 265.05,795.83 265.83,796.91 C267.31,799.08 268.32,803.77 268.97,809.16 C269.64,815.30 268.82,828.41 267.52,835.38 C266.28,841.91 261.44,856.17 258.90,860.91 C257.40,863.68 252.84,869.50 251.12,870.90 C250.03,871.76 247.66,872.65 246.47,872.68 C245.28,872.66 243.16,871.79 242.11,870.87 C240.24,869.18 237.49,864.01 236.60,861.57 C235.14,857.44 233.82,848.64 233.97,841.44 C234.12,836.59 236.93,825.52 239.19,820.43 C241.70,814.85 249.11,803.36 252.64,799.89 C255.52,797.12 259.93,794.86 262.04,794.59 C264.19,794.39 267.70,796.24 269.32,798.51 C270.96,800.88 273.22,807.11 273.93,810.35 C275.27,816.69 275.72,832.00 274.48,839.17 C273.35,845.52 269.95,855.29 267.89,858.32 C265.75,861.39 261.17,864.75 258.76,865.09 C256.27,865.38 251.89,863.39 249.35,860.98 C246.60,858.29 242.53,852.33 240.99,848.89 C239.51,845.51 238.06,839.40 237.78,836.96 C237.13,830.92 238.48,817.36 240.28,810.70 C241.21,807.34 243.87,800.94 245.49,798.45 C247.08,796.11 249.75,794.70 251.32,794.98 C252.69,795.33 254.94,798.42 256.20,802.04 C258.17,807.81 260.05,820.54 260.57,828.15 C261.03,835.48 261.22,850.51 260.60,854.79 C259.99,858.80 257.92,863.83 256.67,865.27 C255.24,866.83 251.10,868.17 248.96,867.77 C246.80,867.31 242.58,863.39 241.14,860.36 C239.86,857.61 238.56,851.87 238.40,850.56 C238.13,848.22 238.35,839.71 238.82,837.01 C239.82,831.61 244.31,820.03 247.41,814.71 C250.59,809.30 258.71,799.44 263.32,796.76 C264.74,795.96 267.05,795.23 268.20,795.22 C269.32,795.26 271.39,796.17 272.34,797.03 C274.12,798.71 276.01,802.76 277.56,807.13 C279.48,812.87 281.76,827.80 281.74,834.48 C281.69,841.20 278.66,853.91 276.57,857.71 C274.43,861.50 270.45,865.86 267.79,866.84 C265.20,867.71 259.05,866.85 255.39,865.03 C251.54,863.07 243.51,855.94 240.03,851.15 C236.45,846.17 231.09,834.68 229.55,828.77 C228.09,823.10 227.33,810.05 228.70,803.55 C230.04,797.41 233.74,791.37 235.31,789.75 C236.15,788.91 238.58,787.68 240.38,787.15 C242.05,786.70 246.17,788.32 247.96,790.26 C251.25,793.92 256.90,807.41 258.51,812.46 C262.90,827.14 269.53,851.66 270.43,857.65 C271.08,862.14 270.92,868.18 270.37,870.54 C269.80,872.83 266.94,878.13 265.16,878.76 C263.84,879.19 261.77,879.24 260.96,878.79 C259.18,877.71 256.57,872.99 255.62,870.30 C253.92,865.33 252.89,853.06 253.85,847.23 C254.95,840.86 259.86,829.21 263.03,824.98 C267.47,819.12 275.45,812.29 281.63,808.63 C284.47,806.97 290.56,804.83 293.66,804.89 C295.27,804.96 297.94,805.83 299.28,806.73 C301.66,808.39 304.49,812.96 305.51,815.49 C307.36,820.27 309.07,835.07 308.54,843.16 C308.03,850.80 305.46,862.53 303.27,868.83 C302.39,871.33 299.48,878.33 298.41,880.47 C297.29,882.67 293.22,888.13 290.76,889.73 C289.64,890.41 287.33,891.15 286.29,891.17 C285.21,891.15 283.24,890.36 282.29,889.57 C280.37,887.88 277.34,881.79 276.72,879.80 C275.18,874.63 273.99,862.20 274.68,856.22 C275.39,850.36 279.10,838.16 281.93,832.42 C284.93,826.40 292.16,817.20 295.99,814.10 C298.29,812.30 303.54,809.84 306.13,810.10 C307.39,810.27 309.49,811.41 310.49,812.45 C312.18,814.29 314.46,819.83 315.18,822.54 C316.85,829.01 317.96,844.91 317.61,851.63 C317.34,856.51 315.04,870.21 313.59,874.70 C312.71,877.37 310.34,883.29 308.29,886.43 C306.49,889.14 302.93,891.82 301.12,891.74 C299.35,891.58 295.77,887.84 294.37,884.61 C294.10,883.95 291.88,876.28 291.48,872.34 C290.88,866.13 292.25,852.87 294.43,846.12 C295.52,842.77 298.30,836.47 300.03,833.49 C301.85,830.36 304.99,826.03 307.90,823.15 C310.59,820.51 314.62,817.90 317.45,817.00 C318.87,816.57 322.10,816.38 323.36,816.64 C324.69,816.95 326.90,818.37 327.78,819.50 C329.32,821.56 330.43,827.15 330.54,829.77 C330.70,834.54 329.11,844.83 327.11,850.86 C324.53,858.60 319.28,869.72 316.20,874.22 C313.47,878.14 308.64,882.30 306.48,883.16 C305.44,883.54 303.23,883.64 302.27,883.34 C300.26,882.63 297.10,878.21 295.71,874.19 C294.51,870.61 293.75,860.61 294.49,856.06 C295.28,851.38 299.10,842.59 301.74,839.01 C303.24,837.02 307.32,832.95 309.93,831.54 C312.69,830.10 318.51,829.87 320.78,830.94 C323.07,832.09 326.98,836.79 328.25,840.01 C330.16,844.98 331.54,857.95 330.79,863.73 C330.36,866.88 328.84,872.51 327.48,875.51 C325.88,878.91 322.00,883.70 320.08,883.58 C319.06,883.44 316.45,879.24 315.60,874.97 C314.83,870.96 316.07,861.28 317.93,857.02 C319.03,854.60 321.95,850.13 323.92,848.59 C324.75,847.96 326.18,847.34 326.75,847.32 C327.84,847.39 329.29,851.09 329.46,853.68 C329.67,857.34 328.72,865.14 328.22,869.01 C327.70,872.93 327.30,877.60 327.22,878.70 C327.20,878.90 327.18,879.12 327.14,879.37" fill="none" stroke="rgb(79, 79, 79)" stroke-width="26.00" stroke-opacity="1.00" stroke-linejoin="round"/>
<path d="M191.69,910.20 C191.76,913.31 193.69,917.95 194.95,920.63 C197.93,926.94 204.70,937.00 208.89,941.31 C212.97,945.48 221.95,952.00 228.00,955.12 C230.83,956.55 235.32,957.87 235.77,956.71 C235.89,956.38 235.97,955.45 236.00,953.92" fill="none" stroke="rgb(79, 79, 79)" stroke-width="26.00" stroke-opacity="1.00" stroke-linejoin="round"/>
<path d="M190.25,917.09 C190.36,919.39 191.88,922.35 195.63,927.06 C200.47,933.05 209.71,941.31 214.02,944.18 C216.98,946.14 236.39,956.86 237.68,956.18 C238.02,955.98 238.79,955.27 239.98,954.06" fill="none" stroke="rgb(79, 79, 79)" stroke-width="26.00" stroke-opacity="1.00" stroke-linejoin="round"/>
<path d="M189.25,918.74 C188.78,920.40 188.70,921.67 189.25,923.02 C190.38,925.80 194.26,932.32 196.16,934.97 C198.59,938.33 203.50,943.40 206.58,945.62 C209.54,947.73 215.68,950.96 218.70,952.00 C221.21,952.85 225.00,953.67 225.69,953.79 C225.90,953.83 226.19,953.87 226.58,953.92" fill="none" stroke="rgb(79, 79, 79)" stroke-width="26.00" stroke-opacity="1.00" stroke-linejoin="round"/>
<path d="M221.10,949.09 C222.34,950.86 223.12,951.67 224.33,952.30 C228.45,954.42 247.02,961.31 251.41,962.27 C256.50,963.33 272.75,963.23 275.99,962.47 C276.24,962.41 276.73,962.28 277.45,962.07" fill="none" stroke="rgb(79, 79, 79)" stroke-width="26.00" stroke-opacity="1.00" stroke-linejoin="round"/>
<path d="M238.91,958.63 C239.83,960.23 240.86,961.25 242.41,961.94 C244.47,962.84 248.53,963.61 253.05,963.89 C257.62,964.15 274.45,961.58 280.59,960.48 C282.53,960.10 286.67,959.29 287.27,959.12 C287.61,959.03 288.07,958.87 288.68,958.63" fill="none" stroke="rgb(79, 79, 79)" stroke-width="26.00" stroke-opacity="1.00" stroke-linejoin="round"/>
<path d="M275.94,961.74 C277.25,962.09 282.77,962.20 285.89,961.68 C289.29,961.08 295.17,959.43 297.79,958.29 C303.04,955.94 312.40,948.05 316.22,943.39 C316.48,943.07 316.98,942.41 317.72,941.40" fill="none" stroke="rgb(79, 79, 79)" stroke-width="26.00" stroke-opacity="1.00" stroke-linejoin="round"/>
<path d="M268.79,964.72 C271.44,965.20 272.63,965.30 273.73,964.95 C275.72,964.31 295.87,959.21 297.47,958.50 C304.19,955.43 307.79,951.97 308.53,950.88 C308.80,950.47 309.48,949.39 310.57,947.63" fill="none" stroke="rgb(79, 79, 79)" stroke-width="26.00" stroke-opacity="1.00" stroke-linejoin="round"/>
<path d="M296.00,961.87 C296.00,961.87 297.74,963.66 297.74,963.66 C300.40,962.68 302.89,960.83 305.74,958.22 C309.03,955.19 314.97,949.71 317.62,947.27 C320.45,944.68 320.89,944.26 320.90,944.18" fill="none" stroke="rgb(79, 79, 79)" stroke-width="26.00" stroke-opacity="1.00" stroke-linejoin="round"/>
<path d="M322.20,942.40 C328.83,937.01 340.35,918.77 343.59,912.33 C345.85,907.70 346.59,906.07 347.22,904.53 C347.34,904.23 347.50,903.82 347.70,903.31" fill="none" stroke="rgb(79, 79, 79)" stroke-width="26.00" stroke-opacity="1.00" stroke-linejoin="round"/>
<path d="M331.96,936.30 C333.31,933.54 345.00,913.82 346.53,911.06 C349.39,905.88 354.00,894.50 354.22,893.97 C354.43,893.46 354.84,892.52 355.44,891.15" fill="none" stroke="rgb(79, 79, 79)" stroke-width="26.00" stroke-opacity="1.00" stroke-linejoin="round"/>
<path d="M334.20,938.62 C335.58,936.46 339.75,930.87 341.46,928.13 C345.82,921.06 349.60,912.84 351.91,904.52 C352.85,901.13 353.91,897.80 354.39,896.38 C354.47,896.15 354.54,895.92 354.62,895.69" fill="none" stroke="rgb(79, 79, 79)" stroke-width="26.00" stroke-opacity="1.00" stroke-linejoin="round"/>
<path d="M350.04,902.84 C349.44,900.65 350.14,895.50 350.82,889.20 C351.22,885.11 351.50,877.63 351.20,874.75 C350.91,872.16 349.25,865.55 348.42,863.33 C348.19,862.73 347.35,860.49 346.80,858.75 C346.71,858.47 346.67,858.30 346.67,858.25" fill="none" stroke="rgb(79, 79, 79)" stroke-width="26.00" stroke-opacity="1.00" stroke-linejoin="round"/>
<path d="M341.69,848.05 C343.50,848.87 344.69,849.80 345.53,851.20 C346.44,852.74 348.49,857.59 349.41,861.40 C351.16,868.86 352.20,887.40 352.92,890.11 C353.22,891.22 353.70,891.85 354.04,891.91" fill="none" stroke="rgb(79, 79, 79)" stroke-width="26.00" stroke-opacity="1.00" stroke-linejoin="round"/>
<path d="M292.29,790.08 C292.74,791.03 295.87,794.73 298.19,796.31 C299.45,797.16 309.53,803.57 310.34,804.18 C312.37,805.75 317.39,813.24 320.20,819.46" fill="none" stroke="rgb(79, 79, 79)" stroke-width="26.00" stroke-opacity="1.00" stroke-linejoin="round"/>
<path d="M320.70,810.95 C313.06,804.08 304.46,797.47 299.23,795.06 C298.72,794.83 297.19,794.12 295.26,793.00" fill="none" stroke="rgb(79, 79, 79)" stroke-width="26.00" stroke-opacity="1.00" stroke-linejoin="round"/>
<path d="M274.31,784.65 C272.86,784.69 266.80,783.14 265.08,782.86 C259.25,781.91 248.43,782.11 244.16,783.49 C238.29,785.44 233.18,789.32 232.58,790.44 C232.58,790.44 234.63,791.67 234.63,791.67" fill="none" stroke="rgb(79, 79, 79)" stroke-width="26.00" stroke-opacity="1.00" stroke-linejoin="round"/>
<path d="M262.44,781.00 C258.43,780.81 254.28,781.06 251.25,781.96 C248.29,782.89 244.27,784.95 241.87,786.67 C239.47,788.43 236.15,791.77 234.59,794.05 C232.74,796.82 231.25,800.54 231.88,802.37 C232.13,803.08 233.18,804.14 233.46,804.26" fill="none" stroke="rgb(79, 79, 79)" stroke-width="26.00" stroke-opacity="1.00" stroke-linejoin="round"/>
</g>
<g stroke-linecap="round" transform="translate(-153.00, -767.00)" id="Layer_29">
<path d="M261.90,845.69 C259.17,846.55 255.83,847.29 254.69,847.65 C251.70,848.61 246.50,852.19 245.15,853.91 C243.67,855.89 241.21,861.57 240.58,864.48 C240.14,866.63 239.78,873.28 239.94,875.35 C240.18,878.04 241.78,883.24 243.10,885.11 C244.43,886.94 249.31,890.92 251.76,892.37 C254.05,893.69 258.95,895.43 261.35,895.74 C264.19,896.08 269.36,895.29 272.12,894.06 C274.74,892.84 279.21,889.13 280.93,886.65 C281.79,885.39 286.62,876.55 287.14,875.38 C288.49,872.32 289.35,867.72 288.69,865.27 C288.02,862.87 285.25,858.64 283.64,856.87 C281.99,855.06 277.29,851.18 274.34,849.97 C271.80,848.95 265.66,848.46 263.31,848.60 C260.63,848.78 255.26,849.69 252.56,850.48 C251.26,850.90 248.83,852.84 248.13,854.24 C247.52,855.50 247.81,857.58 248.19,857.95" fill="none" stroke="rgb(110, 110, 110)" stroke-width="26.00" stroke-opacity="1.00" stroke-linejoin="round"/>
<path d="M259.40,850.63 C256.09,852.81 252.92,856.73 251.82,859.37 C250.74,862.10 250.05,867.36 251.02,868.91 C252.19,870.59 255.50,871.19 258.55,870.67 C261.15,870.22 266.50,870.28 267.81,871.35 C268.50,871.96 269.24,873.58 269.34,874.66 C269.41,875.88 268.82,878.04 268.05,879.24 C267.28,880.37 264.95,882.48 263.76,883.09 C262.62,883.65 259.80,884.11 258.78,883.91 C257.68,883.64 256.02,882.03 255.51,880.74 C255.08,879.52 254.87,876.23 255.18,874.96 C255.52,873.71 257.34,870.76 258.33,869.87 C259.49,868.90 262.42,867.95 263.83,868.19 C265.21,868.45 267.53,869.79 268.19,870.60 C268.75,871.37 269.88,873.33 270.11,874.21 C270.61,876.28 270.41,878.63 269.49,880.20 C267.42,883.59 264.84,884.52 263.35,884.54 C262.67,884.17 262.25,883.80 262.09,883.43 C261.93,883.05 261.81,882.16 261.71,880.74" fill="none" stroke="rgb(110, 110, 110)" stroke-width="26.00" stroke-opacity="1.00" stroke-linejoin="round"/>
<path d="M249.33,831.75 C248.61,832.61 244.00,835.51 243.05,836.07 C240.75,837.44 238.05,840.80 237.02,841.91 C235.91,843.10 230.41,848.47 229.47,850.10 C228.05,852.60 224.80,860.18 223.99,863.01 C223.20,865.80 222.03,874.18 221.96,875.94 C221.86,879.23 224.83,890.11 226.69,893.75 C227.72,895.75 230.34,899.65 231.90,901.39 C233.49,903.15 237.22,905.85 239.71,907.44 C242.33,909.08 250.38,911.85 250.81,911.95 C253.86,912.59 262.66,912.54 266.94,912.43 C271.68,912.30 275.71,911.74 277.99,910.58 C279.71,909.68 283.52,906.86 285.66,905.01 C288.06,902.91 290.48,899.77 292.99,896.90 C294.63,894.89 300.59,883.39 301.59,879.78 C302.16,877.62 302.51,873.08 302.64,867.85 C302.72,863.68 301.81,857.92 301.29,856.26 C300.45,853.64 297.28,848.16 295.57,846.17 C293.56,843.88 282.46,835.32 282.42,835.30 C281.61,834.91 277.41,834.24 277.12,834.15 C276.01,833.80 273.13,832.32 272.03,832.21 C269.25,831.91 265.38,830.10 263.73,829.92 C261.99,829.73 257.91,828.62 255.86,829.26 C255.33,829.43 250.90,831.17 250.10,831.25" fill="none" stroke="rgb(110, 110, 110)" stroke-width="26.00" stroke-opacity="1.00" stroke-linejoin="round"/>
</g>
<g stroke-linecap="round" transform="translate(-155.00, -768.00)" id="Layer_31">
<path d="M262.62,879.38 C262.62,879.38 261.42,879.38 261.42,879.38 C261.42,879.38 260.57,878.53 260.57,878.53 C260.57,878.53 261.76,872.89 261.76,872.89 C261.76,872.89 263.13,872.55 263.13,872.55 C263.13,872.55 267.23,872.21 267.23,872.21 C267.83,872.82 270.63,876.47 269.28,877.50 C269.28,877.50 268.25,878.36 268.25,878.36 C268.25,878.36 265.52,879.04 265.52,879.04 C265.52,879.04 261.08,879.38 261.08,879.38 C261.08,879.38 260.57,877.84 260.57,877.84 C260.17,874.22 260.52,873.43 260.91,873.06 C261.00,872.98 261.17,872.81 261.42,872.55 C261.42,872.55 262.45,872.21 262.45,872.21 C262.45,872.21 265.18,871.87 265.18,871.87 C265.18,871.87 266.03,873.06 266.03,873.06 C266.03,873.06 266.38,874.09 266.38,874.09 C266.38,876.62 265.69,877.42 264.84,878.01 C264.79,878.05 264.68,878.16 264.50,878.36 C264.50,878.36 263.47,878.70 263.47,878.70 C261.68,878.72 260.15,877.60 259.55,876.48 C259.22,875.87 258.82,873.64 258.86,873.06 C258.90,872.62 261.88,870.59 262.79,870.50 C262.79,870.50 266.89,870.16 266.89,870.16 C266.89,870.16 267.91,870.84 267.91,870.84 C267.91,870.84 269.79,873.23 269.79,873.23" fill="none" stroke="rgb(190, 180, 127)" stroke-width="26.00" stroke-opacity="1.00" stroke-linejoin="round"/>
</g>
<g stroke-linecap="round" transform="translate(-163.00, -767.00)" id="Layer_30">
<path d="M287.39,798.68 C291.08,805.46 298.44,816.13 303.10,820.74 C304.23,821.85 310.64,827.74 313.32,830.19 C315.83,832.52 318.65,836.17 319.01,837.90 C319.14,838.74 318.50,839.99 317.62,840.44 C316.16,841.14 274.22,854.22 272.22,854.99 C272.22,854.99 273.21,854.76 273.21,854.76 C273.62,857.94 274.87,867.15 275.13,868.46 C275.90,872.30 278.23,877.91 278.01,878.15 C276.28,878.82 256.27,881.87 248.16,883.30 C243.80,884.10 239.13,885.28 236.93,886.16 C233.20,887.71 229.01,890.37 228.55,891.56 C228.12,892.74 217.91,909.38 216.91,912.66 C216.49,914.11 216.63,916.42 217.13,917.53 C217.18,917.63 225.62,928.13 225.98,928.68 C226.16,928.97 226.43,929.48 226.78,930.20" fill="none" stroke="rgb(240, 231, 182)" stroke-width="6.00" stroke-opacity="1.00" stroke-linejoin="round"/>
<path d="M202.16,832.95 C204.14,834.73 205.63,835.75 207.28,836.20 C211.29,837.27 230.92,838.34 233.83,838.72 C236.34,839.07 241.10,840.19 245.75,841.46 C250.47,842.85 255.14,844.71 255.81,845.78 C256.76,847.41 256.79,849.80 255.96,851.88 C255.29,853.45 243.40,862.62 238.44,866.35 C236.02,868.25 233.88,870.81 233.85,872.12 C235.23,873.22 238.61,873.41 245.01,873.35 C253.38,873.31 263.29,873.81 273.88,874.95 C293.97,877.33 316.95,879.43 316.99,880.59 C316.93,880.70 299.39,891.31 294.09,895.57 C292.54,896.82 291.83,897.67 291.54,898.42 C291.80,899.52 294.37,900.52 298.15,901.29 C298.90,901.44 320.84,905.44 328.46,907.01 C345.60,910.89 359.79,915.81 359.99,916.41 C359.99,916.41 358.38,916.45 358.38,916.45" fill="none" stroke="rgb(240, 231, 182)" stroke-width="6.00" stroke-opacity="1.00" stroke-linejoin="round"/>
</g>
<g stroke-linecap="round" transform="translate(-155.00, -768.00)" id="Layer_27">
<path d="M202.68,796.58 C202.68,796.58 201.79,797.32 201.79,797.32" fill="none" stroke="rgb(0, 0, 0)" stroke-width="6.00" stroke-opacity="1.00" stroke-linejoin="round"/>
<path d="M200.56,798.34 C195.34,802.65 185.93,812.40 181.94,817.74 C177.74,823.38 170.60,835.37 167.75,841.59 C165.18,847.26 160.16,862.95 159.53,866.73 C158.56,872.76 158.23,883.04 159.13,888.40 C160.05,893.74 163.91,904.33 166.89,909.93 C169.71,915.18 177.19,926.28 181.50,931.70 C186.05,937.38 195.97,947.78 201.27,952.25 C206.93,956.99 218.98,964.74 225.54,967.71 C232.32,970.75 246.47,974.59 254.05,975.59 C261.56,976.54 277.36,976.25 284.45,975.14 C291.07,974.07 302.59,970.87 307.72,968.77 C313.78,966.27 324.14,960.35 328.59,956.98 C333.94,952.90 344.16,942.88 348.96,936.52 C351.32,933.37 355.66,926.25 357.11,923.23 C358.64,920.01 361.28,912.49 362.15,908.72 C363.62,902.05 363.48,888.93 363.25,886.60" fill="none" stroke="rgb(0, 0, 0)" stroke-width="6.00" stroke-opacity="1.00" stroke-linejoin="round"/>
<path d="M212.30,784.29 C207.75,787.90 197.54,797.13 195.27,799.55 C191.23,803.91 182.33,814.67 179.37,819.64 C177.36,823.05 169.74,838.20 168.25,842.68 C167.70,844.33 165.80,850.70 165.44,851.89" fill="none" stroke="rgb(0, 0, 0)" stroke-width="6.00" stroke-opacity="1.00" stroke-linejoin="round"/>
<path d="M200.34,793.79 C202.87,791.28 205.69,789.70 209.11,787.43 C211.67,785.74 217.22,784.20 218.67,783.51 C224.41,780.76 236.38,774.19 241.78,772.86 C250.06,770.88 262.95,769.99 269.65,769.65 C270.04,769.61 270.76,769.52 271.82,769.37" fill="none" stroke="rgb(0, 0, 0)" stroke-width="6.00" stroke-opacity="1.00" stroke-linejoin="round"/>
<path d="M268.06,769.67 C269.05,770.74 271.19,771.19 272.00,771.31 C272.37,771.37 280.79,773.22 281.44,773.35 C283.88,773.84 301.75,781.65 304.33,782.95 C310.34,786.00 320.04,793.75 324.86,799.31 C332.57,808.35 338.33,815.76 342.83,823.36 C347.68,831.83 352.80,843.24 355.72,849.90 C360.15,860.43 362.02,865.91 362.95,873.34" fill="none" stroke="rgb(0, 0, 0)" stroke-width="6.00" stroke-opacity="1.00" stroke-linejoin="round"/>
<path d="M363.21,875.48 C363.21,875.48 363.35,876.95 363.35,876.95 C363.35,876.95 363.42,878.16 363.42,878.16" fill="none" stroke="rgb(0, 0, 0)" stroke-width="6.00" stroke-opacity="1.00" stroke-linejoin="round"/>
<path d="M362.81,871.31 C362.96,872.63 364.31,879.58 364.48,880.82 C365.21,886.13 363.56,896.20 363.54,897.14 C363.53,897.39 363.59,897.54 363.72,897.61" fill="none" stroke="rgb(0, 0, 0)" stroke-width="6.00" stroke-opacity="1.00" stroke-linejoin="round"/>
</g>
</svg>
