<?xml version="1.0" encoding="UTF-8" standalone="no"?>
<!DOCTYPE svg PUBLIC "-//W3C//DTD SVG 1.1//EN" "http://www.w3.org/Graphics/SVG/1.1/DTD/svg11.dtd">
<svg width="82.32" height="58.32" viewBox="0.00 0.00 343.00 243.00" xmlns="http://www.w3.org/2000/svg" xmlns:xlink="http://www.w3.org/1999/xlink">
<g stroke-linecap="round" transform="translate(-90.00, -433.00)" id="Layer_5">
<path d="M368.05,489.19 C365.15,489.45 359.25,492.01 356.96,493.12 C351.13,495.94 318.30,514.31 305.30,522.30 C278.76,539.05 218.64,577.37 198.35,589.55 C185.58,597.08 160.82,611.32 159.34,612.25 C159.01,612.46 158.40,612.86 157.52,613.45" fill="none" stroke="rgb(255, 255, 255)" stroke-width="36.00" stroke-opacity="1.00" stroke-linejoin="round"/>
<path d="M402.19,617.17 C401.70,615.64 400.76,614.55 399.03,613.86 C395.94,612.63 377.80,609.75 372.70,608.60 C361.26,605.89 352.47,604.27 345.02,603.94 C332.96,603.44 299.68,606.35 284.48,607.61 C270.98,608.58 243.60,610.88 230.18,612.96 C221.68,614.43 187.96,621.99 174.39,625.07 C167.84,626.50 150.78,631.72 146.10,633.73 C140.85,635.98 140.31,636.23 139.58,636.60" fill="none" stroke="rgb(255, 255, 255)" stroke-width="36.00" stroke-opacity="1.00" stroke-linejoin="round"/>
<path d="M369.08,597.49 C367.73,597.30 366.80,596.89 365.91,595.74 C363.74,592.94 360.55,587.25 359.31,584.29 C357.47,579.81 353.30,562.85 351.27,554.54 C348.26,542.00 346.40,532.72 346.13,526.42 C345.99,522.72 346.55,508.67 346.60,507.33" fill="none" stroke="rgb(255, 255, 255)" stroke-width="36.00" stroke-opacity="1.00" stroke-linejoin="round"/>
<path d="M324.52,528.31 C322.29,528.35 316.95,530.63 315.86,531.28 C311.96,533.62 284.36,555.10 269.87,565.06 C251.88,577.04 196.58,610.38 193.47,612.79 C193.08,613.09 192.23,613.78 190.91,614.85" fill="none" stroke="rgb(255, 255, 255)" stroke-width="36.00" stroke-opacity="1.00" stroke-linejoin="round"/>
<path d="M225.91,605.07 C228.74,605.18 244.40,602.51 252.24,601.28 C256.58,600.56 270.28,597.40 275.24,596.04 C282.72,593.92 289.27,591.58 299.17,587.67 C309.53,583.34 342.35,565.67 344.52,565.01" fill="none" stroke="rgb(255, 255, 255)" stroke-width="36.00" stroke-opacity="1.00" stroke-linejoin="round"/>
<path d="M332.51,594.19 C332.34,592.66 330.18,587.79 329.29,584.25 C327.99,578.96 326.80,565.22 326.72,559.44 C326.64,552.15 327.38,544.27 329.23,532.82 C330.11,527.25 331.20,513.29 331.15,511.51 C331.15,511.51 330.11,511.18 330.11,511.18 C330.11,511.18 335.78,501.11 335.78,501.11 C331.29,510.48 327.85,517.05 323.35,523.92 C314.05,537.61 291.56,567.86 287.49,572.74 C277.22,585.01 266.82,593.00 264.27,594.74 C263.87,595.02 263.10,595.53 261.97,596.28" fill="none" stroke="rgb(255, 255, 255)" stroke-width="36.00" stroke-opacity="1.00" stroke-linejoin="round"/>
<path d="M232.52,559.30 C228.45,557.98 225.65,556.11 223.03,554.45 C220.69,552.94 208.84,544.72 202.97,541.73 C199.43,539.97 187.71,534.03 179.12,528.38 C174.80,525.58 157.73,516.97 155.55,515.74 C153.38,514.51 147.96,510.96 144.43,509.22 C135.92,505.18 130.83,502.34 130.20,502.37 C129.86,502.39 129.21,502.64 128.24,503.13" fill="none" stroke="rgb(255, 255, 255)" stroke-width="36.00" stroke-opacity="1.00" stroke-linejoin="round"/>
<path d="M135.00,501.91 C134.58,497.95 133.55,491.89 132.96,487.20 C132.51,483.82 130.16,477.05 129.93,474.23 C129.75,471.58 131.32,466.26 131.34,466.48" fill="none" stroke="rgb(255, 255, 255)" stroke-width="36.00" stroke-opacity="1.00" stroke-linejoin="round"/>
<path d="M130.49,464.89 C133.36,465.04 146.77,472.05 149.00,472.89 C150.97,473.62 157.43,474.94 157.80,475.04 C161.18,475.92 166.52,479.73 169.01,480.80 C173.98,482.91 185.07,485.23 191.46,488.14 C195.57,490.03 201.82,493.61 202.87,494.12 C204.90,495.08 209.28,496.55 210.78,496.88 C220.34,498.42 240.61,502.48 242.58,502.82 C246.67,503.49 257.57,500.78 277.14,499.90 C290.08,499.35 295.40,498.62 299.97,498.34 C300.74,498.27 316.11,496.18 323.71,493.72 C330.06,491.71 339.30,489.95 343.81,487.85 C347.47,486.16 349.16,485.80 349.24,486.14" fill="none" stroke="rgb(255, 255, 255)" stroke-width="36.00" stroke-opacity="1.00" stroke-linejoin="round"/>
<path d="M295.69,523.15 C294.73,523.28 286.40,526.00 285.19,526.37 C280.82,527.68 265.83,527.85 258.08,526.67 C245.75,524.61 220.51,520.55 207.95,516.54 C197.02,512.97 187.54,508.96 182.75,505.39 C178.07,501.76 154.00,484.32 151.61,483.90 C151.61,483.90 151.01,485.60 151.01,485.60" fill="none" stroke="rgb(255, 255, 255)" stroke-width="36.00" stroke-opacity="1.00" stroke-linejoin="round"/>
<path d="M204.90,516.46 C209.19,517.82 212.30,519.38 214.82,520.94 C223.46,526.36 242.94,542.45 246.43,544.67 C248.79,546.15 254.40,548.54 254.75,548.83 C255.05,549.08 255.44,549.65 255.92,550.55" fill="none" stroke="rgb(255, 255, 255)" stroke-width="36.00" stroke-opacity="1.00" stroke-linejoin="round"/>
<path d="M187.01,544.48 C182.14,550.48 170.32,564.89 169.69,565.74 C165.50,571.36 157.63,583.67 154.28,588.94 C153.12,590.80 145.98,604.00 141.15,610.76 C129.57,626.41 125.10,634.49 124.01,637.63 C123.88,638.01 123.67,638.58 123.37,639.33" fill="none" stroke="rgb(255, 255, 255)" stroke-width="36.00" stroke-opacity="1.00" stroke-linejoin="round"/>
<path d="M138.47,639.94 C140.40,639.25 141.40,638.94 142.21,639.07 C143.42,639.25 146.92,639.68 148.73,639.24 C152.49,638.33 166.88,637.03 173.16,636.76 C176.31,636.54 182.88,634.81 184.61,634.58 C191.22,633.73 203.56,635.13 210.04,636.02 C212.99,636.46 218.80,640.31 220.78,640.60 C224.91,641.18 244.44,642.31 248.40,641.52 C248.69,641.46 256.01,639.24 259.98,638.90 C265.72,638.31 285.16,636.61 294.48,633.26 C304.26,629.66 312.30,626.32 317.30,622.81 C326.22,616.35 328.52,614.47 336.18,606.92 C340.74,602.34 345.50,595.60 345.76,595.21 C345.87,595.03 345.97,594.84 346.06,594.63" fill="none" stroke="rgb(255, 255, 255)" stroke-width="36.00" stroke-opacity="1.00" stroke-linejoin="round"/>
<path d="M277.40,613.48 C275.99,616.48 271.95,620.26 269.34,622.17 C266.43,624.28 260.17,627.49 256.49,628.95 C242.92,634.27 224.92,634.77 223.46,634.80" fill="none" stroke="rgb(255, 255, 255)" stroke-width="36.00" stroke-opacity="1.00" stroke-linejoin="round"/>
<path d="M152.69,600.80 C157.96,597.86 167.01,591.43 171.45,587.23 C178.11,580.74 182.45,576.03 188.61,568.45 C204.26,548.94 210.38,542.84 211.55,541.95 C212.72,541.08 214.54,539.97 215.57,539.46" fill="none" stroke="rgb(255, 255, 255)" stroke-width="36.00" stroke-opacity="1.00" stroke-linejoin="round"/>
<path d="M391.05,628.06 C390.19,626.01 389.38,624.51 388.57,623.65 C386.24,621.34 384.26,618.31 382.62,614.55 C381.26,611.42 376.40,604.19 375.86,603.47 C373.40,600.25 359.93,588.37 356.32,585.71 C349.73,580.90 324.81,567.05 321.57,566.39 C314.10,564.97 308.73,566.92 306.87,567.86 C306.58,568.01 306.44,568.11 306.46,568.16" fill="none" stroke="rgb(255, 255, 255)" stroke-width="36.00" stroke-opacity="1.00" stroke-linejoin="round"/>
<path d="M405.37,612.47 C403.02,610.21 399.31,607.25 397.57,605.33 C395.44,602.98 390.18,595.71 389.48,594.85 C388.47,593.62 363.85,567.29 361.05,565.17 C358.71,563.44 352.41,559.48 349.32,558.18 C346.69,557.08 338.61,554.44 336.73,554.05" fill="none" stroke="rgb(255, 255, 255)" stroke-width="36.00" stroke-opacity="1.00" stroke-linejoin="round"/>
<path d="M356.62,515.41 C360.30,516.22 362.48,516.14 365.77,514.98 C366.09,514.86 372.94,512.49 374.10,511.48 C375.32,510.39 380.30,504.96 382.29,502.23 C383.41,500.67 385.46,493.52 385.67,492.62 C386.10,490.80 389.92,483.25 391.09,481.62 C392.81,479.25 393.52,477.25 394.15,476.42 C394.32,476.20 397.03,474.29 397.20,473.74 C397.26,473.54 397.25,473.09 397.17,472.40" fill="none" stroke="rgb(255, 255, 255)" stroke-width="36.00" stroke-opacity="1.00" stroke-linejoin="round"/>
<path d="M389.80,475.02 C388.93,476.28 387.55,477.58 386.11,478.22 C385.75,478.38 375.21,482.56 371.71,484.24 C370.41,484.77 368.73,484.81 368.01,484.40 C367.12,483.78 367.78,478.48 367.56,477.80 C367.16,476.59 364.91,472.05 364.14,471.09 C363.52,470.34 360.41,469.16 360.22,469.01 C359.62,468.55 358.36,467.17 357.91,467.14 C356.73,467.06 355.94,465.93 355.69,465.50 C354.94,464.28 350.31,463.88 350.19,463.74 C350.15,463.61 347.75,467.95 345.09,471.22 C344.38,472.08 339.46,477.50 337.87,479.64 C337.23,480.50 335.86,482.61 335.56,483.15 C335.47,483.31 335.36,483.53 335.24,483.80" fill="none" stroke="rgb(255, 255, 255)" stroke-width="36.00" stroke-opacity="1.00" stroke-linejoin="round"/>
<path d="M289.54,495.82 C289.32,493.92 288.74,492.19 287.48,489.85 C286.97,488.94 285.55,486.46 285.41,486.23 C283.95,483.96 282.06,482.35 279.97,481.60 C279.52,481.45 267.86,479.19 265.32,478.58 C261.62,477.86 259.90,476.74 259.03,476.31 C258.56,476.08 244.86,478.13 244.01,478.76 C240.76,481.27 228.97,494.39 225.46,499.91 C224.45,501.52 222.56,505.14 222.02,506.48 C221.84,506.92 221.68,507.45 221.54,508.09" fill="none" stroke="rgb(255, 255, 255)" stroke-width="36.00" stroke-opacity="1.00" stroke-linejoin="round"/>
<path d="M286.74,637.25 C285.03,639.87 281.38,642.86 278.33,644.21 C275.12,645.59 271.09,646.81 267.81,647.53 C262.28,648.71 232.90,648.68 232.68,648.46 C232.39,648.16 231.71,647.11 230.64,645.31" fill="none" stroke="rgb(255, 255, 255)" stroke-width="36.00" stroke-opacity="1.00" stroke-linejoin="round"/>
<path d="M241.33,649.59 C237.42,650.83 232.58,651.66 230.82,651.50 C227.25,651.13 220.82,647.59 218.26,646.11 C215.25,644.46 207.04,641.17 206.38,640.86 C202.84,639.18 201.08,636.88 200.75,635.88 C200.62,635.47 200.38,634.51 200.04,632.97" fill="none" stroke="rgb(255, 255, 255)" stroke-width="36.00" stroke-opacity="1.00" stroke-linejoin="round"/>
<path d="M178.16,639.53 C175.43,639.38 169.72,641.24 166.66,642.26 C163.15,643.38 157.42,644.50 155.05,644.61 C150.95,644.75 141.05,642.96 140.88,642.93 C138.05,642.40 133.07,642.47 130.26,643.21 C127.18,644.04 122.66,646.34 121.89,646.17 C121.18,646.02 120.59,645.52 119.90,645.30 C119.63,645.20 119.25,645.18 118.77,645.24" fill="none" stroke="rgb(255, 255, 255)" stroke-width="36.00" stroke-opacity="1.00" stroke-linejoin="round"/>
<path d="M120.48,645.57 C118.63,644.65 117.41,643.25 117.68,641.96 C117.81,641.36 118.97,639.75 119.13,638.53 C119.76,634.40 122.55,627.93 122.26,626.22 C122.18,625.72 121.30,623.86 121.38,622.90 C121.58,620.96 125.62,614.58 126.97,612.72 C128.60,610.48 143.08,592.07 143.33,591.71 C145.94,588.05 149.61,582.26 151.24,580.23 C153.74,577.09 159.36,570.00 160.20,568.81 C160.72,568.06 163.83,562.24 166.18,559.24 C167.52,557.54 176.15,546.58 177.69,543.44 C177.81,543.18 177.99,542.76 178.23,542.18" fill="none" stroke="rgb(255, 255, 255)" stroke-width="36.00" stroke-opacity="1.00" stroke-linejoin="round"/>
<path d="M167.24,528.87 C165.29,527.04 163.96,526.06 162.46,525.49 C157.72,524.21 152.10,522.60 149.11,522.26 C148.23,522.16 146.52,520.63 145.91,520.20 C145.78,520.11 143.14,520.60 142.32,520.58 C140.88,519.36 139.58,516.20 138.93,512.71 C138.37,509.68 136.41,505.59 136.39,505.52 C136.39,505.52 136.22,503.06 136.09,502.32" fill="none" stroke="rgb(255, 255, 255)" stroke-width="36.00" stroke-opacity="1.00" stroke-linejoin="round"/>
<path d="M133.12,505.19 C130.84,503.87 129.66,502.96 129.60,502.15 C129.43,499.49 134.87,483.90 135.02,478.91 C135.05,477.59 134.99,476.04 134.89,474.75 C134.89,474.75 131.45,470.01 131.45,470.01 C130.20,470.47 128.79,470.45 128.24,469.76 C126.42,467.40 125.40,464.62 126.87,464.12" fill="none" stroke="rgb(255, 255, 255)" stroke-width="36.00" stroke-opacity="1.00" stroke-linejoin="round"/>
<path d="M136.68,466.32 C139.97,463.83 142.50,462.38 144.45,462.68 C147.04,463.11 150.68,462.66 151.01,462.71 C151.01,462.71 154.31,463.97 154.31,463.97 C154.87,465.57 156.04,466.41 161.82,470.30 C165.01,472.47 166.74,474.09 170.82,475.70 C172.31,476.40 183.84,480.05 183.86,480.06 C184.03,480.18 184.17,480.45 184.26,480.88" fill="none" stroke="rgb(255, 255, 255)" stroke-width="36.00" stroke-opacity="1.00" stroke-linejoin="round"/>
<path d="M233.56,494.91 C233.25,493.03 232.85,490.46 232.90,490.11 C233.28,487.74 237.83,478.31 238.54,477.83 C239.06,477.49 240.70,476.71 241.01,476.68 C243.74,476.39 254.38,474.03 259.11,473.29 C261.95,472.85 266.20,473.88 266.23,474.89 C266.23,475.04 266.06,475.46 265.73,476.15" fill="none" stroke="rgb(255, 255, 255)" stroke-width="36.00" stroke-opacity="1.00" stroke-linejoin="round"/>
<path d="M241.05,473.01 C241.85,472.80 245.97,470.12 247.77,470.33 C247.88,470.34 255.83,472.87 257.43,472.80 C261.78,472.60 266.10,473.07 268.40,474.09 C271.61,475.63 276.80,477.08 276.85,477.11 C278.10,477.85 279.68,483.67 279.65,483.90" fill="none" stroke="rgb(255, 255, 255)" stroke-width="36.00" stroke-opacity="1.00" stroke-linejoin="round"/>
<path d="M324.86,492.28 C324.86,492.28 323.61,489.00 323.61,489.00 C323.61,489.00 324.27,486.81 324.27,486.81 C324.54,485.83 327.50,484.65 329.20,483.30 C333.19,480.15 341.90,472.89 342.48,473.27 C342.58,473.65 341.92,475.00 340.55,477.21 C340.48,477.31 340.28,477.62 340.32,477.51" fill="none" stroke="rgb(255, 255, 255)" stroke-width="36.00" stroke-opacity="1.00" stroke-linejoin="round"/>
<path d="M317.89,489.81 C317.55,488.14 317.94,487.20 319.75,486.42 C323.00,485.03 329.66,482.93 334.09,481.66 C337.26,480.68 339.67,478.48 341.98,475.50 C344.59,472.11 347.24,468.81 348.38,467.93 C350.24,466.55 356.57,463.73 356.70,463.64 C357.00,463.42 360.64,459.14 361.23,458.55 C361.23,458.55 361.70,457.54 361.70,457.54 C361.70,457.54 363.26,456.88 363.26,456.88 C363.26,456.88 363.28,459.35 363.28,459.35 C364.03,459.74 366.27,465.55 366.61,466.38 C368.47,470.88 371.48,473.84 372.78,474.90 C372.78,474.90 370.99,474.02 370.99,474.02" fill="none" stroke="rgb(255, 255, 255)" stroke-width="36.00" stroke-opacity="1.00" stroke-linejoin="round"/>
<path d="M367.46,464.50 C368.72,464.71 369.40,465.26 370.77,467.37 C371.37,468.31 375.48,474.55 375.64,475.53 C375.69,475.85 375.62,476.30 375.45,476.90" fill="none" stroke="rgb(255, 255, 255)" stroke-width="36.00" stroke-opacity="1.00" stroke-linejoin="round"/>
<path d="M388.40,499.80 C388.91,501.44 388.57,502.26 386.55,504.59" fill="none" stroke="rgb(255, 255, 255)" stroke-width="36.00" stroke-opacity="1.00" stroke-linejoin="round"/>
<path d="M349.47,554.55 C349.35,552.64 349.36,551.65 349.49,551.60 C349.51,551.59 351.67,555.31 352.80,556.42 C354.39,558.02 367.67,569.64 371.81,574.84 C374.44,578.16 377.09,581.99 378.03,583.95 C379.30,586.66 380.22,589.23 380.92,592.05 C381.61,594.94 381.81,604.99 381.41,607.74 C381.33,608.26 381.17,609.17 380.93,610.48" fill="none" stroke="rgb(255, 255, 255)" stroke-width="36.00" stroke-opacity="1.00" stroke-linejoin="round"/>
<path d="M348.32,550.94 C350.00,552.70 356.73,556.58 359.27,558.36 C365.28,562.60 376.05,573.37 379.52,578.77 C381.18,581.39 383.68,586.64 384.57,589.23 C385.41,591.79 386.35,596.66 386.43,599.08 C386.54,603.85 384.69,610.30 384.35,611.36 C384.06,612.22 383.78,613.07 383.49,613.93" fill="none" stroke="rgb(255, 255, 255)" stroke-width="36.00" stroke-opacity="1.00" stroke-linejoin="round"/>
<path d="M353.26,548.04 C353.26,548.04 355.49,547.33 355.49,547.33 C358.95,549.15 364.65,554.12 366.49,556.18 C370.56,560.81 379.35,574.27 383.00,581.85 C387.62,591.65 391.13,601.69 391.70,605.61 C391.75,605.99 391.79,606.36 391.81,606.74" fill="none" stroke="rgb(255, 255, 255)" stroke-width="36.00" stroke-opacity="1.00" stroke-linejoin="round"/>
<path d="M390.91,587.93 C392.52,587.86 393.94,588.01 394.76,588.64 C396.67,590.12 399.55,594.97 400.58,597.29 C401.62,599.71 403.19,605.95 403.40,608.36 C403.44,608.95 403.50,610.26 403.57,612.30" fill="none" stroke="rgb(255, 255, 255)" stroke-width="36.00" stroke-opacity="1.00" stroke-linejoin="round"/>
<path d="M404.51,614.88 C405.80,615.34 406.64,616.07 407.19,617.48 C407.72,618.90 408.01,620.89 407.70,621.67 C407.38,622.38 405.24,624.34 404.33,624.81 C403.46,625.24 402.32,624.68 402.02,624.59 C401.81,624.52 401.27,624.45 400.42,624.40" fill="none" stroke="rgb(255, 255, 255)" stroke-width="36.00" stroke-opacity="1.00" stroke-linejoin="round"/>
<path d="M415.50,627.80 C416.68,627.55 417.86,626.44 418.43,624.71 C418.85,623.39 419.04,618.22 418.82,615.80 C418.57,613.32 416.91,609.72 415.05,607.54 C413.00,605.23 410.76,603.99 408.44,603.02 C408.12,602.89 407.93,602.81 407.86,602.78" fill="none" stroke="rgb(255, 255, 255)" stroke-width="16.00" stroke-opacity="1.00" stroke-linejoin="round"/>
<path d="M416.99,626.66 C416.99,626.66 418.84,626.33 418.84,626.33 C419.75,624.68 420.58,620.36 420.58,617.59 C420.54,613.05 417.57,602.91 415.31,598.40 C412.81,593.50 407.93,590.71 406.49,590.21 C406.18,590.10 405.97,590.11 405.88,590.24" fill="none" stroke="rgb(255, 255, 255)" stroke-width="16.00" stroke-opacity="1.00" stroke-linejoin="round"/>
<path d="M414.85,605.46 C414.96,604.02 414.80,603.05 414.00,601.81 C410.94,597.06 400.74,583.78 396.26,579.83 C395.14,578.84 389.14,573.79 388.20,571.83 C387.67,570.70 387.16,569.52 386.66,568.29 C386.50,567.89 386.39,567.57 386.34,567.34" fill="none" stroke="rgb(255, 255, 255)" stroke-width="16.00" stroke-opacity="1.00" stroke-linejoin="round"/>
<path d="M400.89,584.26 C400.24,583.34 378.15,557.65 376.38,556.49 C374.38,555.20 373.15,554.60 373.05,554.82" fill="none" stroke="rgb(255, 255, 255)" stroke-width="16.00" stroke-opacity="1.00" stroke-linejoin="round"/>
<path d="M398.46,577.53 C394.41,572.62 383.12,559.06 380.84,556.48 C375.76,550.88 364.51,538.76 361.08,532.95 C359.15,529.69 358.41,528.98 357.73,528.66" fill="none" stroke="rgb(255, 255, 255)" stroke-width="16.00" stroke-opacity="1.00" stroke-linejoin="round"/>
<path d="M374.91,554.84 C372.15,550.84 363.71,538.11 359.67,531.96 C358.98,530.91 356.84,527.60 356.40,526.80 C356.16,526.38 355.92,525.83 355.65,525.16" fill="none" stroke="rgb(255, 255, 255)" stroke-width="16.00" stroke-opacity="1.00" stroke-linejoin="round"/>
<path d="M366.29,525.66 C370.50,525.55 374.04,525.19 378.45,523.69 C381.88,522.48 391.23,519.08 391.76,518.80 C393.68,517.75 395.89,515.73 396.70,514.23 C398.16,511.43 398.66,507.89 398.22,506.68" fill="none" stroke="rgb(255, 255, 255)" stroke-width="16.00" stroke-opacity="1.00" stroke-linejoin="round"/>
<path d="M387.67,517.02 C391.62,515.72 392.96,514.94 396.61,510.78 C397.11,510.21 400.11,507.21 401.52,505.58 C401.65,502.50 396.07,497.87 395.21,497.45" fill="none" stroke="rgb(255, 255, 255)" stroke-width="16.00" stroke-opacity="1.00" stroke-linejoin="round"/>
<path d="M399.50,507.22 C397.79,502.43 396.65,499.40 395.24,495.91 C394.21,493.29 393.50,488.65 393.86,487.62 C394.18,486.83 395.46,486.60 397.28,486.84 C400.03,487.23 403.59,486.86 405.85,485.68 C408.10,484.45 410.56,481.08 413.97,475.78 C415.38,473.47 415.46,470.24 414.50,468.96 C414.12,468.48 413.70,468.14 413.23,467.92 C412.85,467.75 411.89,467.42 410.35,466.93" fill="none" stroke="rgb(255, 255, 255)" stroke-width="16.00" stroke-opacity="1.00" stroke-linejoin="round"/>
<path d="M407.66,483.14 C409.11,481.80 412.10,479.11 412.61,478.43 C413.63,477.04 414.35,474.14 414.47,471.59 C414.51,469.62 414.32,466.29 414.00,465.16 C413.53,463.59 411.74,461.33 410.62,460.91 C409.61,460.57 405.06,461.27 404.39,460.91 C404.38,461.24 404.38,461.55 404.39,461.84 C404.40,462.13 404.45,462.80 404.53,463.86" fill="none" stroke="rgb(255, 255, 255)" stroke-width="16.00" stroke-opacity="1.00" stroke-linejoin="round"/>
<path d="M406.46,464.41 C406.46,464.41 406.67,462.58 406.67,462.58 C406.33,461.86 403.36,461.00 402.24,460.52 C401.74,460.31 401.17,459.89 400.51,459.26 C400.14,459.29 393.59,460.96 392.83,461.23 C391.46,461.71 387.58,464.38 385.61,464.81 C384.70,465.01 379.01,466.40 377.81,466.91 C377.58,467.01 377.29,467.15 376.93,467.32" fill="none" stroke="rgb(255, 255, 255)" stroke-width="16.00" stroke-opacity="1.00" stroke-linejoin="round"/>
<path d="M378.59,464.28 C379.01,462.56 379.05,461.45 378.61,460.19 C377.99,458.42 375.27,452.91 373.09,451.69 C371.98,451.08 367.96,451.53 366.61,451.44" fill="none" stroke="rgb(255, 255, 255)" stroke-width="16.00" stroke-opacity="1.00" stroke-linejoin="round"/>
<path d="M369.26,451.63 C366.64,450.67 362.14,450.85 360.69,451.21 C359.24,451.58 352.45,453.91 350.09,454.46 C347.25,455.12 340.40,456.04 338.38,457.55 C338.05,457.80 337.71,458.21 337.34,458.78" fill="none" stroke="rgb(255, 255, 255)" stroke-width="16.00" stroke-opacity="1.00" stroke-linejoin="round"/>
<path d="M348.16,450.08 C346.37,449.87 345.23,450.10 343.90,451.21 C336.66,457.28 332.88,461.51 331.97,462.77 C331.83,462.97 331.70,463.17 331.58,463.38" fill="none" stroke="rgb(255, 255, 255)" stroke-width="16.00" stroke-opacity="1.00" stroke-linejoin="round"/>
<path d="M327.71,467.26 C326.95,469.17 315.10,479.24 309.99,482.25 C304.80,485.28 297.69,488.22 295.57,488.98 C295.39,489.04 295.12,489.13 294.77,489.25" fill="none" stroke="rgb(255, 255, 255)" stroke-width="16.00" stroke-opacity="1.00" stroke-linejoin="round"/>
<path d="M298.80,489.53 C299.17,487.65 299.13,486.21 298.42,485.01 C296.99,482.65 291.98,479.28 289.43,478.52 C287.90,478.08 281.22,476.90 280.88,476.65 C280.95,476.07 281.22,475.77 281.95,475.69 C283.45,475.58 286.93,478.91 288.78,481.64 C290.48,484.21 292.79,489.43 293.41,492.21 C293.99,494.93 294.07,500.14 293.54,502.25 C293.06,504.11 290.83,508.20 289.55,509.75 C288.04,511.52 284.58,513.78 282.29,514.35 C281.28,514.58 278.62,514.86 277.49,514.87 C275.42,514.86 273.15,514.55 272.60,514.42" fill="none" stroke="rgb(255, 255, 255)" stroke-width="16.00" stroke-opacity="1.00" stroke-linejoin="round"/>
<path d="M235.86,468.30 C235.86,468.30 236.71,466.65 236.71,466.65 C234.50,467.74 232.41,470.22 228.83,474.87 C220.19,486.14 217.24,489.87 217.01,489.72 C218.31,485.80 226.53,473.72 228.23,472.12 C228.73,472.48 226.57,476.02 223.50,479.68 C223.32,479.89 223.09,480.14 222.82,480.44" fill="none" stroke="rgb(255, 255, 255)" stroke-width="16.00" stroke-opacity="1.00" stroke-linejoin="round"/>
<path d="M203.87,486.13 C203.27,484.21 202.72,482.75 202.14,481.96 C199.63,478.59 181.71,468.26 181.48,468.10 C183.31,470.06 190.11,473.44 192.85,475.08 C195.70,476.78 198.67,479.06 199.80,479.96 C197.96,478.14 194.45,474.61 192.12,473.06 C190.30,471.87 180.08,467.51 179.35,466.73 C179.35,466.73 184.10,468.37 184.10,468.37 C183.21,468.02 176.85,462.33 175.20,461.28 C172.94,459.86 171.81,460.23 171.30,460.70 C171.30,460.70 158.98,453.57 158.98,453.57 C158.98,453.57 162.38,448.95 162.38,448.95 C162.38,448.95 154.49,447.22 154.49,447.22" fill="none" stroke="rgb(255, 255, 255)" stroke-width="16.00" stroke-opacity="1.00" stroke-linejoin="round"/>
<path d="M152.62,450.23 C151.12,449.38 150.05,449.09 148.68,449.29 C147.03,449.53 140.73,450.79 138.75,450.82 C137.57,450.83 136.32,450.30 134.30,449.09 C134.30,449.09 136.83,446.11 136.83,446.11 C136.78,446.41 136.12,447.26 135.40,447.75 C134.07,448.64 131.04,447.49 130.57,447.20 C130.49,447.15 130.26,446.98 129.87,446.71" fill="none" stroke="rgb(255, 255, 255)" stroke-width="16.00" stroke-opacity="1.00" stroke-linejoin="round"/>
<path d="M132.52,443.54 C130.76,446.75 127.82,452.05 127.20,453.03 C126.27,454.48 125.14,455.90 124.61,456.40" fill="none" stroke="rgb(255, 255, 255)" stroke-width="16.00" stroke-opacity="1.00" stroke-linejoin="round"/>
<path d="M113.62,460.83 C113.62,460.83 104.54,460.55 104.54,460.55 C104.91,460.61 110.04,457.15 112.76,456.66 C113.71,456.49 117.44,456.26 118.42,455.85 C119.23,455.51 120.66,454.31 120.80,454.10 C120.30,454.59 119.03,455.26 118.01,455.43 C117.69,455.49 117.17,455.50 116.44,455.46" fill="none" stroke="rgb(255, 255, 255)" stroke-width="16.00" stroke-opacity="1.00" stroke-linejoin="round"/>
<path d="M109.03,462.74 C109.03,462.74 106.95,466.84 106.95,466.84 C106.95,466.84 106.38,465.80 106.38,465.80 C106.36,467.12 109.67,472.33 110.52,473.95 C112.88,478.53 116.54,491.22 116.83,491.38 C116.83,491.38 115.75,489.30 115.75,489.30" fill="none" stroke="rgb(255, 255, 255)" stroke-width="16.00" stroke-opacity="1.00" stroke-linejoin="round"/>
<path d="M115.18,483.17 C117.20,487.06 118.61,490.77 119.45,493.67 C120.59,497.76 121.39,503.59 120.99,506.55 C120.83,507.64 120.30,509.52 119.92,510.60 C119.80,510.95 119.67,511.29 119.55,511.64" fill="none" stroke="rgb(255, 255, 255)" stroke-width="16.00" stroke-opacity="1.00" stroke-linejoin="round"/>
<path d="M115.85,499.98 C116.28,502.62 115.54,506.92 115.28,509.15 C114.91,512.15 113.70,515.00 113.40,515.14 C113.40,515.14 112.83,514.16 112.83,514.16 C113.99,515.72 118.70,519.01 121.02,521.09 C122.32,522.26 123.83,524.01 124.39,524.48 C124.88,524.91 127.25,526.00 127.83,526.32 C128.04,526.44 128.29,526.62 128.57,526.87" fill="none" stroke="rgb(255, 255, 255)" stroke-width="16.00" stroke-opacity="1.00" stroke-linejoin="round"/>
<path d="M137.74,536.24 C136.90,536.90 136.47,537.26 136.42,537.33 C136.25,537.71 138.11,537.09 140.17,537.42 C144.50,538.06 148.50,537.60 150.76,536.87 C151.49,536.64 153.87,535.82 154.60,535.76 C155.88,535.64 160.61,535.98 161.84,535.95 C164.93,535.86 170.96,531.38 171.33,531.00 C171.44,530.89 171.58,530.70 171.74,530.46" fill="none" stroke="rgb(255, 255, 255)" stroke-width="16.00" stroke-opacity="1.00" stroke-linejoin="round"/>
<path d="M161.64,553.45 C155.91,560.97 131.90,584.95 120.89,595.74 C118.18,598.46 112.03,604.63 111.67,605.10 C111.48,605.35 111.36,605.64 111.31,605.98" fill="none" stroke="rgb(255, 255, 255)" stroke-width="16.00" stroke-opacity="1.00" stroke-linejoin="round"/>
<path d="M129.17,588.74 C127.79,591.43 112.78,609.69 110.92,612.54 C108.18,616.84 104.24,626.46 103.20,629.00 C103.03,629.44 102.85,629.89 102.68,630.34" fill="none" stroke="rgb(255, 255, 255)" stroke-width="16.00" stroke-opacity="1.00" stroke-linejoin="round"/>
<path d="M103.23,623.66 C104.02,625.05 104.16,625.65 103.92,626.97 C103.56,629.07 104.25,633.12 104.01,634.01 C103.14,637.22 101.44,646.07 101.37,646.57 C101.37,646.57 102.51,648.38 102.51,648.38 C102.51,648.38 103.55,651.12 103.55,651.12 C104.51,651.36 106.19,651.36 106.79,651.45 C106.93,651.47 108.26,653.04 108.90,653.34 C108.90,653.34 109.91,653.18 109.91,653.18" fill="none" stroke="rgb(255, 255, 255)" stroke-width="16.00" stroke-opacity="1.00" stroke-linejoin="round"/>
<path d="M106.36,651.09 C108.14,651.68 110.22,652.84 114.18,654.00 C117.18,654.86 122.97,655.89 125.63,655.98 C128.25,656.04 135.85,653.62 138.81,653.46 C139.99,653.40 142.74,653.51 143.27,653.42 C147.10,652.69 154.09,647.70 155.00,646.85 C154.82,646.77 140.99,654.31 136.95,655.14 C132.83,655.90 129.77,656.81 128.71,657.13 C130.51,656.33 131.91,655.91 133.09,656.07 C141.37,657.16 145.36,656.62 145.39,655.96 C145.37,655.80 145.26,655.67 145.06,655.58 C144.86,655.49 144.30,655.32 143.38,655.06" fill="none" stroke="rgb(255, 255, 255)" stroke-width="16.00" stroke-opacity="1.00" stroke-linejoin="round"/>
<path d="M132.30,657.79 C135.26,658.21 137.38,658.42 138.85,658.25 C143.42,657.71 162.88,652.29 163.99,651.82 C166.27,650.85 184.09,642.10 186.28,641.26 C185.55,641.44 184.97,641.58 184.54,641.67 C183.67,641.85 182.79,642.03 181.92,642.22" fill="none" stroke="rgb(255, 255, 255)" stroke-width="16.00" stroke-opacity="1.00" stroke-linejoin="round"/>
<path d="M154.45,652.77 C161.08,653.35 171.30,652.55 178.11,650.96 C184.82,649.38 194.21,645.65 197.99,642.61 C200.06,640.88 202.21,637.69 201.95,635.88 C201.90,635.62 201.73,635.22 201.42,634.67" fill="none" stroke="rgb(255, 255, 255)" stroke-width="16.00" stroke-opacity="1.00" stroke-linejoin="round"/>
<path d="M185.81,649.45 C189.48,649.89 200.46,656.79 202.92,657.32 C204.09,657.56 208.59,657.71 208.69,657.73 C209.91,657.94 212.03,659.83 213.06,660.80 C214.06,661.63 217.21,661.67 218.16,661.98 C218.45,662.07 220.79,663.95 221.48,664.06 C221.63,664.09 227.64,664.68 229.73,665.08 C233.47,665.47 237.81,663.80 238.68,663.39 C238.22,663.09 237.19,662.83 236.80,662.73 C236.58,662.68 236.20,662.57 235.66,662.40" fill="none" stroke="rgb(255, 255, 255)" stroke-width="16.00" stroke-opacity="1.00" stroke-linejoin="round"/>
<path d="M218.58,664.96 C221.42,666.89 224.51,667.59 226.85,667.49 C228.56,667.40 245.04,663.84 246.65,662.71 C252.04,658.83 254.66,656.37 255.00,655.71 C254.57,655.51 254.17,655.39 253.78,655.35 C253.39,655.31 252.49,655.28 251.06,655.27" fill="none" stroke="rgb(255, 255, 255)" stroke-width="16.00" stroke-opacity="1.00" stroke-linejoin="round"/>
<path d="M243.47,661.48 C246.79,662.67 249.62,662.82 253.35,661.91 C258.91,660.51 264.36,659.48 267.23,659.29 C270.55,659.02 273.37,657.00 274.58,655.45 C274.58,655.45 274.40,653.75 274.40,653.75 C274.40,653.75 273.42,653.17 273.42,653.17" fill="none" stroke="rgb(255, 255, 255)" stroke-width="16.00" stroke-opacity="1.00" stroke-linejoin="round"/>
<path d="M254.19,662.47 C259.30,661.66 263.49,660.59 268.89,658.67 C271.10,657.93 277.73,655.54 278.29,655.23 C282.02,653.13 286.96,645.45 287.54,643.33 C287.73,642.62 287.57,641.63 287.30,640.56" fill="none" stroke="rgb(255, 255, 255)" stroke-width="16.00" stroke-opacity="1.00" stroke-linejoin="round"/>
<path d="M275.24,655.69 C278.06,653.70 292.88,646.63 299.61,643.05 C305.03,640.12 313.33,633.50 316.69,629.50 C318.46,627.35 320.14,623.87 319.46,622.54 C319.34,622.32 319.01,621.96 318.48,621.47" fill="none" stroke="rgb(255, 255, 255)" stroke-width="16.00" stroke-opacity="1.00" stroke-linejoin="round"/>
<path d="M284.14,653.29 C288.24,652.40 293.99,649.70 296.88,648.07 C302.82,644.68 314.73,635.33 319.22,630.51 C323.71,625.64 328.19,618.29 328.34,616.91 C328.47,615.25 327.27,613.99 326.56,613.62" fill="none" stroke="rgb(255, 255, 255)" stroke-width="16.00" stroke-opacity="1.00" stroke-linejoin="round"/>
<path d="M290.02,648.20 C291.27,647.67 293.82,646.56 295.13,645.99 C301.66,643.11 317.67,634.32 321.04,631.99 C326.55,628.18 334.61,621.54 339.01,617.08 C344.20,611.72 349.55,604.82 350.46,603.26 C351.45,601.56 352.36,599.48 352.44,598.77 C352.45,598.64 352.46,598.38 352.46,597.98" fill="none" stroke="rgb(255, 255, 255)" stroke-width="16.00" stroke-opacity="1.00" stroke-linejoin="round"/>
<path d="M319.62,633.49 C323.89,632.13 327.84,630.07 330.50,628.31 C339.60,622.20 353.08,605.67 353.71,604.55 C353.93,604.14 354.43,603.13 355.19,601.54" fill="none" stroke="rgb(255, 255, 255)" stroke-width="16.00" stroke-opacity="1.00" stroke-linejoin="round"/>
<path d="M315.50,633.10 C318.79,633.60 322.83,632.96 326.43,631.31 C332.55,628.40 342.72,620.04 346.52,615.97 C356.54,605.16 361.46,595.18 361.96,593.74" fill="none" stroke="rgb(255, 255, 255)" stroke-width="16.00" stroke-opacity="1.00" stroke-linejoin="round"/>
<path d="M335.90,614.78 C338.36,614.08 350.97,615.64 356.41,616.24 C356.54,616.26 360.88,617.04 362.83,617.37 C362.83,617.37 363.23,616.24 363.23,616.24 C363.23,616.24 362.36,615.07 362.36,615.07" fill="none" stroke="rgb(255, 255, 255)" stroke-width="16.00" stroke-opacity="1.00" stroke-linejoin="round"/>
<path d="M356.06,614.51 C358.28,613.77 362.11,614.78 364.91,616.27 C367.52,617.69 371.99,621.07 374.36,623.37 C377.08,626.05 382.49,633.98 384.39,637.20" fill="none" stroke="rgb(255, 255, 255)" stroke-width="16.00" stroke-opacity="1.00" stroke-linejoin="round"/>
<path d="M358.33,618.02 C366.34,626.03 387.27,639.92 387.96,641.37" fill="none" stroke="rgb(255, 255, 255)" stroke-width="16.00" stroke-opacity="1.00" stroke-linejoin="round"/>
<path d="M380.22,636.60 C381.66,636.67 387.66,635.90 389.68,635.67 C392.18,635.33 395.92,633.88 397.97,632.23 C403.30,627.84 403.28,624.70 402.99,623.94 C402.99,623.94 400.78,623.69 400.78,623.69" fill="none" stroke="rgb(255, 255, 255)" stroke-width="16.00" stroke-opacity="1.00" stroke-linejoin="round"/>
<path d="M389.58,638.41 C390.74,638.16 392.70,637.69 393.81,637.32 C397.57,636.04 402.76,633.31 404.27,631.03 C406.02,628.27 406.61,622.02 406.46,621.25 C406.08,619.55 403.03,613.57 401.59,610.79 C401.12,609.89 400.65,608.99 400.18,608.08" fill="none" stroke="rgb(255, 255, 255)" stroke-width="16.00" stroke-opacity="1.00" stroke-linejoin="round"/>
</g>
<g stroke-linecap="round" transform="translate(-90.00, -433.00)" id="Layer_8">
<path d="M376.02,587.04 C373.92,586.56 372.59,586.41 371.53,586.72 C369.29,587.41 347.10,598.11 344.31,599.13 C339.77,600.76 325.55,604.07 322.36,605.04 C317.68,606.47 304.97,611.76 298.29,613.74 C282.97,618.04 257.82,626.91 239.84,630.57 C228.64,632.79 221.70,633.97 214.53,634.62 C207.84,635.18 194.43,633.60 192.16,633.02 C189.06,632.22 183.60,629.36 181.28,629.16 C180.76,629.12 179.88,629.12 178.64,629.16 C177.79,629.19 176.94,629.23 176.10,629.26" fill="none" stroke="rgb(255, 112, 112)" stroke-width="36.00" stroke-opacity="1.00" stroke-linejoin="round"/>
<path d="M172.03,632.08 C165.18,631.60 153.38,632.03 147.00,632.72 C133.19,634.24 121.64,637.47 120.93,637.58 C120.93,637.58 118.58,638.18 118.58,638.18" fill="none" stroke="rgb(255, 112, 112)" stroke-width="36.00" stroke-opacity="1.00" stroke-linejoin="round"/>
<path d="M116.32,637.14 C117.29,636.07 126.26,623.27 129.56,617.30 C135.29,607.03 136.75,604.88 143.84,596.99 C146.31,594.15 150.34,589.52 153.39,586.50 C155.70,584.12 164.86,570.29 165.47,569.00 C165.75,568.41 166.45,566.81 167.19,565.82 C171.18,566.81 176.36,568.74 178.40,568.93 C178.78,568.96 187.45,569.23 189.84,568.30 C190.45,568.06 197.28,564.93 201.41,563.85 C201.41,563.85 199.64,566.17 199.64,566.17" fill="none" stroke="rgb(255, 112, 112)" stroke-width="36.00" stroke-opacity="1.00" stroke-linejoin="round"/>
<path d="M198.93,564.64 C200.54,566.28 209.99,582.89 210.03,583.06 C210.41,584.62 213.58,589.22 215.15,589.92 C216.39,590.45 223.36,594.13 226.68,595.57 C229.09,596.78 233.19,597.37 236.08,598.36 C240.77,599.94 243.86,600.45 248.06,600.37 C250.38,600.31 254.61,598.54 256.39,598.52 C258.62,598.62 259.99,598.52 269.99,600.80 C270.69,600.95 275.44,600.64 278.63,601.08 C281.35,601.42 295.23,597.32 299.92,594.08 C302.31,592.41 303.06,591.53 303.69,589.70 C303.87,589.15 304.87,587.03 305.52,585.68 C308.89,588.32 311.08,589.72 313.00,589.52 C314.30,589.36 318.97,588.96 320.02,588.92 C320.99,588.87 325.31,585.57 327.16,584.63 C329.99,583.27 334.81,579.14 335.40,578.77 C336.48,578.09 339.59,576.56 339.96,575.93 C341.04,574.00 342.01,569.10 342.50,567.72 C342.85,566.82 347.09,564.60 347.71,564.87 C349.90,565.81 353.39,565.65 357.87,564.82 C359.40,564.53 360.12,564.33 361.94,563.76 C363.19,563.38 367.83,565.88 368.33,566.64 C371.20,571.09 374.20,575.76 374.80,576.50 C375.54,577.40 387.29,587.42 388.99,590.06 C389.56,590.95 392.04,595.62 392.59,596.44 C394.27,598.93 399.72,602.98 401.00,604.58 C402.14,606.01 403.14,607.06 404.20,607.84 C406.53,609.59 406.80,609.86 407.21,611.13 C407.53,612.19 408.81,615.37 408.89,616.22 C408.70,618.70 408.54,621.57 409.06,621.86 C409.06,621.86 406.99,622.87 406.99,622.87" fill="none" stroke="rgb(255, 112, 112)" stroke-width="36.00" stroke-opacity="1.00" stroke-linejoin="round"/>
<path d="M405.47,620.13 C403.95,621.36 401.79,622.28 399.84,622.21 C389.53,621.82 384.42,619.95 383.54,619.16 C383.43,619.05 383.29,618.89 383.14,618.69" fill="none" stroke="rgb(255, 112, 112)" stroke-width="36.00" stroke-opacity="1.00" stroke-linejoin="round"/>
<path d="M385.56,620.50 C384.09,616.74 380.80,612.40 379.40,611.08 C375.76,607.72 366.52,603.46 363.67,602.80 C363.12,602.68 361.91,602.46 360.03,602.14" fill="none" stroke="rgb(255, 112, 112)" stroke-width="36.00" stroke-opacity="1.00" stroke-linejoin="round"/>
<path d="M353.69,606.19 C351.96,605.07 350.25,604.69 347.33,604.87 C343.79,605.10 327.95,608.65 320.09,610.42 C314.27,611.69 308.68,612.78 306.39,613.09 C306.00,613.14 305.13,613.24 303.78,613.39" fill="none" stroke="rgb(255, 112, 112)" stroke-width="36.00" stroke-opacity="1.00" stroke-linejoin="round"/>
<path d="M328.53,611.16 C326.70,612.98 325.56,613.91 323.92,614.81 C319.22,617.43 298.40,628.89 291.94,633.14 C285.98,636.77 257.08,648.32 253.53,649.08 C250.64,649.69 241.16,649.10 238.75,649.19 C237.58,649.23 236.69,649.31 236.47,649.37" fill="none" stroke="rgb(255, 112, 112)" stroke-width="36.00" stroke-opacity="1.00" stroke-linejoin="round"/>
<path d="M246.85,647.52 C245.03,648.56 241.51,649.59 238.61,649.37 C235.44,649.09 218.54,643.56 217.87,642.92 C217.05,642.14 215.33,639.60 214.62,639.25 C213.20,638.54 212.20,637.39 211.67,636.79" fill="none" stroke="rgb(255, 112, 112)" stroke-width="36.00" stroke-opacity="1.00" stroke-linejoin="round"/>
<path d="M207.91,639.11 C205.98,638.01 204.94,637.64 203.12,637.55 C197.57,637.23 183.46,632.54 179.33,632.41 C179.05,632.41 178.46,632.41 177.57,632.41" fill="none" stroke="rgb(255, 112, 112)" stroke-width="36.00" stroke-opacity="1.00" stroke-linejoin="round"/>
<path d="M174.60,636.85 C171.71,637.79 164.44,638.52 160.16,638.94 C152.36,639.43 141.71,640.19 137.85,641.17 C130.29,643.17 129.29,643.20 128.69,643.17" fill="none" stroke="rgb(255, 112, 112)" stroke-width="36.00" stroke-opacity="1.00" stroke-linejoin="round"/>
<path d="M133.91,644.49 C130.12,643.74 125.45,642.68 123.86,642.43 C121.96,642.14 117.40,642.01 114.10,642.31" fill="none" stroke="rgb(255, 112, 112)" stroke-width="36.00" stroke-opacity="1.00" stroke-linejoin="round"/>
<path d="M114.13,639.87 C115.42,638.40 116.49,635.52 117.12,634.51 C118.98,631.60 132.30,615.90 133.32,614.48 C136.39,610.41 143.72,603.40 146.44,600.33 C149.20,597.19 152.89,592.71 153.25,592.45 C154.57,591.49 161.33,588.17 162.06,588.11 C163.17,588.99 164.01,594.03 164.05,597.66 C163.98,603.47 161.48,611.39 160.45,612.55 C159.86,613.17 158.27,614.03 157.59,614.11 C156.83,614.15 155.60,613.26 155.35,612.36 C154.87,610.40 156.06,605.38 156.91,603.49 C157.86,601.41 160.48,597.61 162.21,595.72 C164.10,593.69 168.36,590.40 170.75,589.32 C173.16,588.27 177.67,587.49 180.38,587.65 C181.73,587.76 184.05,589.00 185.40,590.34 C186.42,591.38 187.82,596.83 187.80,599.79 C187.74,602.87 186.32,608.34 184.93,610.82 C183.75,612.86 180.42,616.40 178.62,617.68 C176.74,618.99 173.01,620.46 170.85,620.72 C168.51,620.96 164.34,619.95 163.01,618.80 C161.20,617.17 159.84,614.38 159.70,612.01 C159.64,610.45 161.75,606.58 163.65,604.75 C165.96,602.60 170.53,600.04 173.46,599.36 C178.44,598.26 193.21,599.36 200.76,600.93 C207.63,602.39 216.68,606.39 218.18,607.94 C219.20,609.02 219.88,611.31 219.93,612.93 C219.91,615.72 218.65,619.79 216.15,622.39 C215.14,623.41 212.83,624.63 211.84,624.80 C210.89,624.90 208.99,624.33 208.24,623.67 C207.46,622.94 206.66,620.66 206.72,619.32 C206.83,617.80 208.38,615.14 210.00,613.52 C211.63,611.94 217.47,609.19 219.67,608.95 C223.31,608.61 227.74,610.08 229.45,611.61 C230.58,612.67 231.39,614.46 231.45,615.86 C231.44,616.19 230.94,617.79 230.51,618.21 C228.07,620.45 223.81,621.88 223.43,621.98 C223.07,622.08 222.27,622.28 221.01,622.59" fill="none" stroke="rgb(255, 112, 112)" stroke-width="36.00" stroke-opacity="1.00" stroke-linejoin="round"/>
<path d="M416.95,632.01 C416.95,632.01 418.09,632.03 418.09,632.03 C418.88,631.31 420.35,628.73 421.08,625.97 C421.86,622.95 421.60,616.60 420.58,613.13 C418.71,606.94 415.92,603.35 415.33,602.82" fill="none" stroke="rgb(255, 112, 112)" stroke-width="16.00" stroke-opacity="1.00" stroke-linejoin="round"/>
<path d="M420.02,617.93 C419.78,615.76 415.54,607.09 410.27,598.52 C408.78,596.19 403.53,589.57 401.40,587.76 C399.38,586.07 397.32,585.18 396.40,585.35 C396.40,585.35 396.28,586.76 396.28,586.76" fill="none" stroke="rgb(255, 112, 112)" stroke-width="16.00" stroke-opacity="1.00" stroke-linejoin="round"/>
<path d="M420.31,612.46 C418.22,606.72 413.36,600.98 403.22,590.16 C397.79,584.31 392.09,576.91 392.01,576.81 C391.85,576.62 391.70,576.46 391.54,576.33" fill="none" stroke="rgb(255, 112, 112)" stroke-width="16.00" stroke-opacity="1.00" stroke-linejoin="round"/>
<path d="M415.58,604.52 C414.84,602.37 411.57,596.18 410.52,594.57 C407.76,590.37 401.05,582.60 395.58,577.59 C386.89,569.69 385.96,569.08 385.28,568.91 C385.13,568.88 384.80,568.84 384.29,568.78" fill="none" stroke="rgb(255, 112, 112)" stroke-width="16.00" stroke-opacity="1.00" stroke-linejoin="round"/>
<path d="M407.19,594.71 C406.37,590.82 400.11,581.78 397.29,578.41 C393.23,573.80 381.82,560.16 381.21,559.53 C379.16,557.45 376.72,556.05 375.93,556.06 C375.82,556.07 375.64,556.10 375.38,556.15" fill="none" stroke="rgb(255, 112, 112)" stroke-width="16.00" stroke-opacity="1.00" stroke-linejoin="round"/>
<path d="M400.13,580.75 C398.28,576.17 391.64,567.15 388.28,563.63 C384.75,559.96 374.02,551.75 371.94,548.87 C371.54,548.31 371.05,547.57 370.47,546.64 C370.31,546.39 370.13,546.09 369.94,545.74" fill="none" stroke="rgb(255, 112, 112)" stroke-width="16.00" stroke-opacity="1.00" stroke-linejoin="round"/>
<path d="M379.81,556.44 C379.93,555.14 378.54,552.68 376.47,549.58 C374.08,546.11 369.64,541.30 369.20,540.99 C369.29,541.28 369.37,541.57 369.46,541.86 C369.54,542.14 369.63,542.43 369.72,542.72" fill="none" stroke="rgb(255, 112, 112)" stroke-width="16.00" stroke-opacity="1.00" stroke-linejoin="round"/>
<path d="M368.72,543.16 C366.22,544.16 348.62,549.37 344.44,549.39 C344.15,549.39 343.61,549.42 342.83,549.47" fill="none" stroke="rgb(255, 112, 112)" stroke-width="16.00" stroke-opacity="1.00" stroke-linejoin="round"/>
<path d="M343.89,550.20 C342.84,550.07 339.34,549.95 336.33,549.44 C333.62,548.97 331.01,549.22 330.61,549.86 C330.56,549.95 330.49,550.13 330.42,550.42" fill="none" stroke="rgb(255, 112, 112)" stroke-width="16.00" stroke-opacity="1.00" stroke-linejoin="round"/>
<path d="M327.64,550.47 C327.00,551.49 325.95,556.44 324.41,562.28 C324.04,563.69 323.13,567.19 322.88,568.25 C322.80,568.58 322.75,568.87 322.72,569.11" fill="none" stroke="rgb(255, 112, 112)" stroke-width="16.00" stroke-opacity="1.00" stroke-linejoin="round"/>
<path d="M315.78,573.54 C314.52,572.55 310.30,571.85 303.38,571.30 C299.84,571.03 297.84,571.17 296.22,572.30" fill="none" stroke="rgb(255, 112, 112)" stroke-width="16.00" stroke-opacity="1.00" stroke-linejoin="round"/>
<path d="M300.89,573.05 C300.63,571.55 300.01,569.82 299.32,568.98 C299.15,568.77 298.90,568.59 298.56,568.43" fill="none" stroke="rgb(255, 112, 112)" stroke-width="16.00" stroke-opacity="1.00" stroke-linejoin="round"/>
<path d="M298.82,567.86" fill="none" stroke="rgb(255, 112, 112)" stroke-width="16.00" stroke-opacity="1.00" stroke-linejoin="round"/>
<path d="M298.27,568.23 C298.27,568.23 298.87,565.94 298.87,565.94" fill="none" stroke="rgb(255, 112, 112)" stroke-width="16.00" stroke-opacity="1.00" stroke-linejoin="round"/>
<path d="M293.88,573.22 C293.67,574.79 290.67,578.65 288.86,580.51 C281.75,587.79 270.79,594.42 268.70,595.48 C267.77,595.95 266.17,596.68 265.28,597.09" fill="none" stroke="rgb(255, 112, 112)" stroke-width="16.00" stroke-opacity="1.00" stroke-linejoin="round"/>
<path d="M276.80,588.04 C276.14,587.94 271.71,585.83 269.50,584.71 C268.63,584.31 254.50,580.53 254.34,580.69 C254.23,580.81 253.93,581.29 253.44,582.12" fill="none" stroke="rgb(255, 112, 112)" stroke-width="16.00" stroke-opacity="1.00" stroke-linejoin="round"/>
<path d="M276.70,586.10 C273.39,585.77 268.98,585.48 267.49,585.62 C265.74,585.79 263.59,586.19 262.98,586.42" fill="none" stroke="rgb(255, 112, 112)" stroke-width="16.00" stroke-opacity="1.00" stroke-linejoin="round"/>
<path d="M266.47,584.30 C264.72,583.39 259.53,582.06 256.51,581.99 C255.88,581.98 239.30,583.55 237.80,584.28 C237.16,584.59 236.58,584.99 236.07,585.46 C235.92,585.61 235.84,585.75 235.84,585.91" fill="none" stroke="rgb(255, 112, 112)" stroke-width="16.00" stroke-opacity="1.00" stroke-linejoin="round"/>
<path d="M242.72,583.33 C241.85,583.63 236.26,583.33 233.53,583.22 C230.31,583.04 226.12,582.39 223.09,581.47 C221.90,581.10 220.79,580.94 220.19,580.99" fill="none" stroke="rgb(255, 112, 112)" stroke-width="16.00" stroke-opacity="1.00" stroke-linejoin="round"/>
<path d="M230.46,583.39 C228.65,577.86 211.77,560.25 209.88,558.23 C209.66,558.00 209.39,557.72 209.06,557.41" fill="none" stroke="rgb(255, 112, 112)" stroke-width="16.00" stroke-opacity="1.00" stroke-linejoin="round"/>
<path d="M219.72,567.64 C220.26,565.52 218.13,561.48 215.68,559.30 C214.89,558.62 208.46,553.80 204.00,550.13 C202.03,548.48 201.92,547.62 201.93,547.13" fill="none" stroke="rgb(255, 112, 112)" stroke-width="16.00" stroke-opacity="1.00" stroke-linejoin="round"/>
<path d="M208.82,549.81 C208.82,549.81 203.88,548.45 203.88,548.45 C203.88,548.45 203.39,549.43 203.39,549.43" fill="none" stroke="rgb(255, 112, 112)" stroke-width="16.00" stroke-opacity="1.00" stroke-linejoin="round"/>
<path d="M204.89,550.96 C204.89,550.96 205.91,547.42 205.91,547.42 C205.91,547.42 204.79,547.94 204.79,547.94" fill="none" stroke="rgb(255, 112, 112)" stroke-width="16.00" stroke-opacity="1.00" stroke-linejoin="round"/>
<path d="M203.07,544.95 C201.40,546.25 200.15,547.09 199.03,547.53 C197.13,548.27 178.42,554.08 173.40,554.99 C173.10,555.06 172.72,555.16 172.26,555.30" fill="none" stroke="rgb(255, 112, 112)" stroke-width="16.00" stroke-opacity="1.00" stroke-linejoin="round"/>
<path d="M186.31,550.88 C184.03,550.14 169.58,548.36 165.09,549.59 C164.35,549.81 163.69,550.32 163.52,550.78 C163.40,551.16 163.15,552.18 163.04,552.43" fill="none" stroke="rgb(255, 112, 112)" stroke-width="16.00" stroke-opacity="1.00" stroke-linejoin="round"/>
<path d="M161.81,551.95 C160.81,552.09 159.76,552.70 158.77,553.90 C158.52,554.20 158.07,554.80 157.41,555.71" fill="none" stroke="rgb(255, 112, 112)" stroke-width="16.00" stroke-opacity="1.00" stroke-linejoin="round"/>
<path d="M160.22,549.64 C159.75,552.15 153.31,562.24 146.59,571.64 C144.14,575.01 139.17,581.75 136.65,585.12 C134.49,587.95 129.65,594.18 128.20,595.96 C128.04,596.15 127.84,596.42 127.59,596.76" fill="none" stroke="rgb(255, 112, 112)" stroke-width="16.00" stroke-opacity="1.00" stroke-linejoin="round"/>
<path d="M156.34,552.52 C156.39,554.87 150.77,562.87 142.47,573.61 C137.54,579.97 124.83,596.41 123.43,598.30 C121.09,601.47 119.05,604.67 118.59,605.39 C118.49,605.55 118.36,605.78 118.18,606.09" fill="none" stroke="rgb(255, 112, 112)" stroke-width="16.00" stroke-opacity="1.00" stroke-linejoin="round"/>
<path d="M126.17,588.51 C126.95,587.65 127.05,587.71 126.31,588.87 C125.44,590.23 109.12,611.90 108.83,612.41 C111.90,607.09 117.40,599.43 122.05,594.78 C126.60,590.14 133.97,582.17 136.72,579.12 C134.93,581.24 130.98,585.88 129.06,587.91 C128.43,588.55 127.63,589.37 127.49,589.57" fill="none" stroke="rgb(255, 112, 112)" stroke-width="16.00" stroke-opacity="1.00" stroke-linejoin="round"/>
<path d="M109.73,614.54 C108.19,616.01 105.73,620.20 104.27,624.02 C103.66,625.65 101.99,629.48 101.88,631.20 C101.53,637.64 100.60,639.04 100.17,639.46 C100.17,639.46 101.14,635.71 101.14,635.71 C100.79,639.92 100.72,641.68 101.20,644.11 C101.64,646.27 102.51,651.80 103.00,652.85 C103.57,654.02 105.09,654.56 105.63,654.74" fill="none" stroke="rgb(255, 112, 112)" stroke-width="16.00" stroke-opacity="1.00" stroke-linejoin="round"/>
<path d="M104.14,653.53 C105.82,654.53 106.73,654.93 107.85,655.06 C109.90,655.33 117.27,656.89 118.31,657.09 C119.14,657.24 121.78,656.95 122.11,657.01 C122.53,657.07 125.92,657.77 131.06,657.89 C139.78,658.07 148.59,656.56 148.79,656.51 C154.58,655.10 163.60,652.16 171.72,650.98 C174.42,650.62 178.76,650.00 181.31,649.08 C184.17,648.02 187.75,646.59 188.55,646.31" fill="none" stroke="rgb(255, 112, 112)" stroke-width="16.00" stroke-opacity="1.00" stroke-linejoin="round"/>
<path d="M183.89,650.88 C184.75,651.02 187.10,650.69 187.88,650.98 C189.89,651.74 195.98,652.57 196.05,652.58 C197.17,652.89 200.16,654.26 203.96,655.10 C207.27,655.83 221.28,662.57 221.39,662.60 C226.65,663.68 230.65,665.52 232.63,665.59" fill="none" stroke="rgb(255, 112, 112)" stroke-width="16.00" stroke-opacity="1.00" stroke-linejoin="round"/>
<path d="M204.57,655.95 C204.93,656.06 220.97,665.95 221.33,665.94 C221.76,665.90 225.37,666.08 227.46,665.84 C230.29,665.85 258.80,662.65 259.59,662.50 C260.17,662.39 269.62,659.21 270.99,658.45 C272.79,657.45 278.30,653.28 279.08,653.08" fill="none" stroke="rgb(255, 112, 112)" stroke-width="16.00" stroke-opacity="1.00" stroke-linejoin="round"/>
<path d="M268.98,658.74 C269.92,659.01 271.98,659.78 274.51,659.00 C279.93,657.30 293.57,650.28 298.25,647.41 C305.24,643.07 306.64,640.61 306.64,640.24" fill="none" stroke="rgb(255, 112, 112)" stroke-width="16.00" stroke-opacity="1.00" stroke-linejoin="round"/>
<path d="M287.35,652.14 C289.07,652.06 293.50,650.47 296.65,649.02 C304.96,645.17 314.97,639.66 322.40,633.95 C327.13,630.29 338.31,619.45 339.30,618.28" fill="none" stroke="rgb(255, 112, 112)" stroke-width="16.00" stroke-opacity="1.00" stroke-linejoin="round"/>
<path d="M320.12,635.90 C321.56,635.18 326.00,632.67 329.20,631.09 C336.76,627.34 353.34,614.57 356.64,611.16" fill="none" stroke="rgb(255, 112, 112)" stroke-width="16.00" stroke-opacity="1.00" stroke-linejoin="round"/>
<path d="M351.09,616.91 C352.54,616.77 354.56,617.81 358.20,618.66 C364.29,621.74 369.29,623.63 370.60,624.60 C371.23,625.07 372.41,626.27 372.46,626.65 C372.48,626.82 372.49,627.35 372.50,628.26" fill="none" stroke="rgb(255, 112, 112)" stroke-width="16.00" stroke-opacity="1.00" stroke-linejoin="round"/>
<path d="M372.19,627.62 C373.08,627.73 375.10,629.81 377.10,631.19 C379.19,632.65 380.12,634.21 380.78,635.00 C380.92,635.16 382.62,636.43 382.91,636.74 C384.19,638.15 384.84,640.31 387.30,639.91 C389.55,639.54 394.01,639.00 394.67,638.92 C396.44,638.69 411.31,633.56 413.26,632.04 C413.66,631.71 416.56,628.74 416.22,627.68 C416.12,627.38 415.76,626.71 415.15,625.68" fill="none" stroke="rgb(255, 112, 112)" stroke-width="16.00" stroke-opacity="1.00" stroke-linejoin="round"/>
</g>
<g stroke-linecap="round" transform="translate(-90.00, -433.00)" id="Layer_11">
<path d="M211.20,504.88 C211.39,510.94 213.25,520.32 215.58,524.90 C218.85,531.09 223.67,534.00 224.12,534.18 C224.22,534.21 224.36,534.26 224.52,534.33" fill="none" stroke="rgb(220, 199, 133)" stroke-width="16.00" stroke-opacity="1.00" stroke-linejoin="round"/>
<path d="M214.30,507.50 C214.44,508.30 214.55,508.88 214.63,509.22 C215.77,513.86 223.16,525.10 228.48,531.52 C230.39,533.81 233.92,537.71 235.01,538.91 C235.10,539.00 235.35,539.28 235.26,539.20" fill="none" stroke="rgb(220, 199, 133)" stroke-width="16.00" stroke-opacity="1.00" stroke-linejoin="round"/>
<path d="M222.64,518.80 C224.06,519.87 228.26,524.57 229.82,525.99 C231.21,527.25 233.33,528.50 233.94,528.81 C234.02,528.86 234.18,528.94 234.39,529.06" fill="none" stroke="rgb(220, 199, 133)" stroke-width="16.00" stroke-opacity="1.00" stroke-linejoin="round"/>
<path d="M234.33,502.48 C234.42,503.20 234.48,503.73 234.52,504.08 C234.88,508.12 235.40,512.57 236.24,516.94 C236.61,518.85 238.64,528.39 238.87,529.17" fill="none" stroke="rgb(220, 199, 133)" stroke-width="16.00" stroke-opacity="1.00" stroke-linejoin="round"/>
<path d="M236.50,513.95 C236.70,514.91 237.26,517.51 237.56,518.61 C238.99,523.77 245.12,537.69 247.39,539.92 C247.60,540.12 247.87,540.28 248.20,540.41" fill="none" stroke="rgb(220, 199, 133)" stroke-width="16.00" stroke-opacity="1.00" stroke-linejoin="round"/>
<path d="M212.68,515.92 C211.77,517.15 210.78,520.52 210.91,523.16 C211.05,525.60 212.61,531.30 213.72,533.77 C215.19,537.01 219.31,542.46 221.08,543.69 C221.31,543.85 221.73,544.09 222.36,544.43" fill="none" stroke="rgb(220, 199, 133)" stroke-width="16.00" stroke-opacity="1.00" stroke-linejoin="round"/>
<path d="M211.99,523.59 C211.08,524.24 210.11,526.64 210.57,530.68 C210.78,532.43 212.42,536.48 212.94,537.32 C212.94,537.32 213.32,536.24 213.32,536.24" fill="none" stroke="rgb(220, 199, 133)" stroke-width="16.00" stroke-opacity="1.00" stroke-linejoin="round"/>
<path d="M214.18,531.94 C218.58,540.61 234.61,557.56 236.75,560.33 C236.92,560.54 237.07,560.74 237.21,560.91" fill="none" stroke="rgb(220, 199, 133)" stroke-width="16.00" stroke-opacity="1.00" stroke-linejoin="round"/>
<path d="M225.39,545.56 C225.90,547.03 228.03,551.95 229.45,554.50 C235.69,565.58 240.60,569.30 240.65,569.43" fill="none" stroke="rgb(220, 199, 133)" stroke-width="16.00" stroke-opacity="1.00" stroke-linejoin="round"/>
<path d="M241.94,565.31 C243.08,566.18 243.73,566.30 245.62,566.22 C246.47,566.17 260.27,565.69 261.75,565.23 C262.85,564.93 267.14,567.22 267.39,567.36 C271.39,569.56 271.72,569.49 271.27,569.25 C271.07,569.13 270.64,568.88 270.00,568.49" fill="none" stroke="rgb(220, 199, 133)" stroke-width="16.00" stroke-opacity="1.00" stroke-linejoin="round"/>
<path d="M260.70,566.08 C261.32,565.94 264.09,567.10 268.06,568.48 C269.23,568.88 274.87,571.52 276.85,571.45 C277.30,571.41 277.52,571.49 277.76,571.67 C277.76,571.67 277.63,570.90 277.63,570.90" fill="none" stroke="rgb(220, 199, 133)" stroke-width="16.00" stroke-opacity="1.00" stroke-linejoin="round"/>
<path d="M278.70,569.68 C279.60,569.11 286.39,559.06 289.18,555.79 C290.68,554.04 293.93,550.68 295.15,549.59 C298.10,547.00 301.85,544.44 302.96,543.77 C303.24,543.60 303.65,543.37 304.20,543.07" fill="none" stroke="rgb(220, 199, 133)" stroke-width="16.00" stroke-opacity="1.00" stroke-linejoin="round"/>
<path d="M291.02,558.58 C291.02,558.58 289.80,560.02 289.80,560.02 C290.34,559.38 293.13,555.10 294.52,553.15 C296.19,550.83 298.92,547.53 300.67,545.82 C301.63,544.89 302.59,544.15 304.01,543.20" fill="none" stroke="rgb(220, 199, 133)" stroke-width="16.00" stroke-opacity="1.00" stroke-linejoin="round"/>
<path d="M299.72,548.56 C302.22,550.67 306.29,554.54 307.26,555.36 C307.94,555.92 308.64,556.30 309.17,556.48" fill="none" stroke="rgb(220, 199, 133)" stroke-width="16.00" stroke-opacity="1.00" stroke-linejoin="round"/>
<path d="M310.06,556.37 C310.06,556.37 311.89,558.82 311.89,558.82" fill="none" stroke="rgb(220, 199, 133)" stroke-width="16.00" stroke-opacity="1.00" stroke-linejoin="round"/>
<path d="M309.32,553.66 C310.35,548.53 313.10,539.46 313.69,537.72 C313.83,537.31 313.97,536.94 314.11,536.61" fill="none" stroke="rgb(220, 199, 133)" stroke-width="16.00" stroke-opacity="1.00" stroke-linejoin="round"/>
<path d="M313.40,553.18 C313.40,552.08 314.88,547.56 315.26,545.67 C315.66,543.64 315.84,537.85 315.90,537.48 C315.95,537.23 316.10,536.84 316.35,536.33" fill="none" stroke="rgb(220, 199, 133)" stroke-width="16.00" stroke-opacity="1.00" stroke-linejoin="round"/>
<path d="M314.00,542.10 C313.03,540.81 312.33,536.79 312.09,533.62 C311.41,524.14 307.10,513.81 306.90,513.42 C306.84,513.30 306.74,513.16 306.62,512.99" fill="none" stroke="rgb(220, 199, 133)" stroke-width="16.00" stroke-opacity="1.00" stroke-linejoin="round"/>
<path d="M308.59,513.41 C308.59,513.41 307.40,510.38 307.40,510.38" fill="none" stroke="rgb(220, 199, 133)" stroke-width="16.00" stroke-opacity="1.00" stroke-linejoin="round"/>
<path d="M309.69,512.09 C309.07,510.23 308.70,509.09 308.57,508.66 C308.43,508.23 308.36,507.92 308.35,507.72" fill="none" stroke="rgb(220, 199, 133)" stroke-width="16.00" stroke-opacity="1.00" stroke-linejoin="round"/>
<path d="M266.13,498.33 C265.90,499.57 265.75,500.42 265.68,500.87 C264.47,508.40 264.70,519.54 265.87,524.94 C266.68,528.58 268.56,534.82 269.15,535.84 C269.28,536.05 269.56,536.43 269.99,536.97" fill="none" stroke="rgb(220, 199, 133)" stroke-width="16.00" stroke-opacity="1.00" stroke-linejoin="round"/>
<path d="M263.68,514.97 C263.48,515.65 263.34,516.14 263.26,516.45 C262.06,521.65 263.16,533.23 264.36,538.36 C264.64,539.55 265.44,542.48 265.89,544.11 C266.53,546.37 266.97,547.56 267.52,548.63" fill="none" stroke="rgb(220, 199, 133)" stroke-width="16.00" stroke-opacity="1.00" stroke-linejoin="round"/>
<path d="M237.88,520.17 C238.30,520.92 244.11,526.21 245.24,527.47 C246.83,529.24 252.43,536.83 253.64,538.07 C255.33,539.74 258.45,540.75 259.84,540.61 C260.28,540.56 260.76,540.33 261.20,540.03" fill="none" stroke="rgb(220, 199, 133)" stroke-width="16.00" stroke-opacity="1.00" stroke-linejoin="round"/>
<path d="M261.49,537.53 C262.16,535.82 266.65,522.99 270.08,515.00 C270.20,514.71 270.36,514.29 270.56,513.74" fill="none" stroke="rgb(220, 199, 133)" stroke-width="16.00" stroke-opacity="1.00" stroke-linejoin="round"/>
<path d="M269.16,512.29 C270.38,518.35 274.82,529.55 278.11,533.71 C279.14,534.99 281.88,537.68 283.34,538.89 C283.70,539.18 284.16,539.51 284.70,539.87" fill="none" stroke="rgb(220, 199, 133)" stroke-width="16.00" stroke-opacity="1.00" stroke-linejoin="round"/>
<path d="M281.41,531.50 C281.53,532.76 282.88,534.13 284.01,534.86 C284.11,534.92 284.22,534.99 284.34,535.07" fill="none" stroke="rgb(220, 199, 133)" stroke-width="16.00" stroke-opacity="1.00" stroke-linejoin="round"/>
<path d="M292.65,536.96 C293.80,531.45 296.46,517.52 297.04,515.13 C297.85,511.88 299.64,507.17 300.94,504.49 C301.05,504.27 301.19,503.98 301.38,503.62" fill="none" stroke="rgb(220, 199, 133)" stroke-width="16.00" stroke-opacity="1.00" stroke-linejoin="round"/>
<path d="M299.85,516.51 C299.76,515.00 299.73,507.57 299.46,503.40 C299.36,501.93 299.27,500.77 299.19,499.92 C299.14,499.39 299.03,498.41 298.85,496.96" fill="none" stroke="rgb(220, 199, 133)" stroke-width="16.00" stroke-opacity="1.00" stroke-linejoin="round"/>
<path d="M234.24,494.90 C233.70,498.79 233.72,503.22 234.27,506.15 C234.92,509.45 236.57,513.79 237.33,514.74 C237.57,515.02 237.92,515.21 238.29,515.35" fill="none" stroke="rgb(220, 199, 133)" stroke-width="6.00" stroke-opacity="1.00" stroke-linejoin="round"/>
<path d="M267.86,488.96 C266.85,492.14 265.87,505.73 265.44,512.41 C265.41,512.76 265.41,513.03 265.43,513.25" fill="none" stroke="rgb(220, 199, 133)" stroke-width="6.00" stroke-opacity="1.00" stroke-linejoin="round"/>
<path d="M259.75,506.33 C258.06,509.88 257.01,521.36 257.38,526.15 C258.03,533.59 259.92,535.85 260.06,535.94" fill="none" stroke="rgb(220, 199, 133)" stroke-width="6.00" stroke-opacity="1.00" stroke-linejoin="round"/>
<path d="M270.88,501.93 C270.77,502.93 271.26,507.32 272.43,511.21 C272.77,512.31 275.37,519.50 276.12,521.48 C276.93,523.74 277.80,526.60 278.05,526.81" fill="none" stroke="rgb(220, 199, 133)" stroke-width="6.00" stroke-opacity="1.00" stroke-linejoin="round"/>
<path d="M259.47,519.17 C257.77,522.62 254.85,535.90 254.68,542.77 C254.66,543.83 254.77,544.62 254.92,545.02" fill="none" stroke="rgb(220, 199, 133)" stroke-width="6.00" stroke-opacity="1.00" stroke-linejoin="round"/>
<path d="M277.56,523.69 C277.95,524.60 278.64,525.70 279.78,527.07 C281.98,529.72 286.13,533.69 290.05,536.50 C290.40,536.75 290.74,537.02 291.07,537.31" fill="none" stroke="rgb(220, 199, 133)" stroke-width="6.00" stroke-opacity="1.00" stroke-linejoin="round"/>
<path d="M285.12,528.69 C286.17,529.32 287.89,529.20 289.48,527.58 C290.02,527.03 290.62,526.27 291.28,525.30 C291.47,525.02 291.64,524.71 291.81,524.36" fill="none" stroke="rgb(220, 199, 133)" stroke-width="6.00" stroke-opacity="1.00" stroke-linejoin="round"/>
<path d="M294.65,479.92 C295.25,481.20 295.34,493.45 296.41,503.46 C296.69,506.04 296.79,508.83 296.92,509.82 C296.93,509.95 297.04,509.57 297.06,509.43" fill="none" stroke="rgb(220, 199, 133)" stroke-width="6.00" stroke-opacity="1.00" stroke-linejoin="round"/>
<path d="M297.49,482.75 C297.43,484.27 301.24,497.50 302.80,502.75 C303.56,505.33 303.65,506.11 303.60,506.59" fill="none" stroke="rgb(220, 199, 133)" stroke-width="6.00" stroke-opacity="1.00" stroke-linejoin="round"/>
<path d="M303.98,520.54 C303.98,520.54 304.13,519.21 304.13,519.21 C304.10,519.51 303.24,525.71 302.95,529.27 C302.10,539.99 301.65,542.08 301.32,542.39 C301.04,542.17 301.02,536.61 301.60,533.28 C302.31,529.39 304.42,525.40 305.81,524.50 C306.61,524.95 306.91,525.33 307.02,526.14 C307.44,529.98 305.11,542.21 304.64,542.86 C304.38,542.44 303.39,535.31 301.90,532.25 C301.26,530.97 299.39,529.34 298.54,529.31 C295.06,529.29 292.66,533.08 292.54,533.42 C292.69,533.68 297.40,533.97 298.13,534.15 C299.50,534.51 301.47,536.02 302.13,537.09 C303.33,539.06 304.13,542.84 304.07,542.80 C304.07,542.80 303.93,542.92 303.93,542.92" fill="none" stroke="rgb(220, 199, 133)" stroke-width="6.00" stroke-opacity="1.00" stroke-linejoin="round"/>
<path d="M306.22,532.54 C306.22,532.54 298.58,542.68 298.58,542.68 C298.10,542.17 298.34,539.30 299.32,536.74 C301.18,531.91 303.31,530.80 303.68,530.99 C304.88,531.91 299.54,541.43 298.78,541.45 C298.21,537.50 302.77,530.39 303.97,528.70 C304.11,528.51 304.25,528.31 304.39,528.12" fill="none" stroke="rgb(220, 199, 133)" stroke-width="6.00" stroke-opacity="1.00" stroke-linejoin="round"/>
<path d="M313.20,505.04 C313.20,505.04 312.66,506.07 312.66,506.07 C314.39,511.15 317.99,527.47 318.00,529.48 C317.98,531.58 317.22,533.63 316.37,535.68" fill="none" stroke="rgb(220, 199, 133)" stroke-width="6.00" stroke-opacity="1.00" stroke-linejoin="round"/>
<path d="M308.74,498.15 C309.23,501.66 310.56,506.61 311.61,509.33 C313.31,513.64 314.56,516.99 314.86,518.24 C315.74,522.04 315.60,525.81 314.53,528.51" fill="none" stroke="rgb(220, 199, 133)" stroke-width="6.00" stroke-opacity="1.00" stroke-linejoin="round"/>
<path d="M314.47,524.41 C315.45,530.48 315.61,541.28 314.13,544.75 C313.99,545.08 313.67,545.30 313.60,545.35" fill="none" stroke="rgb(220, 199, 133)" stroke-width="6.00" stroke-opacity="1.00" stroke-linejoin="round"/>
<path d="M289.11,542.20 C287.76,541.96 286.67,542.82 284.85,545.79 C282.29,549.97 280.16,552.63 279.60,552.76 C279.15,551.50 281.55,546.52 283.45,544.46 C285.46,542.36 288.83,540.92 289.63,541.10 C289.82,542.18 288.54,545.51 286.34,548.56 C281.56,555.16 276.40,560.48 275.67,560.53 C275.53,559.23 281.54,549.05 284.19,545.81 C288.12,541.08 290.94,540.06 291.18,540.04 C291.44,541.12 279.87,556.63 278.46,558.15 C278.05,558.59 277.18,559.46 275.83,560.75 C275.38,560.05 278.03,553.65 279.70,550.91 C281.33,548.29 285.36,543.56 286.58,542.51 C289.26,540.26 291.01,539.87 291.39,539.92 C291.63,541.24 285.44,549.51 280.98,554.01 C275.42,559.49 271.88,559.93 271.19,559.78 C270.40,558.80 270.47,553.97 271.28,551.47 C271.97,549.44 274.17,545.51 275.68,543.48 C280.12,537.71 284.97,536.52 285.69,536.51 C286.09,537.19 285.59,539.82 283.68,543.12 C283.24,543.88 278.87,549.97 277.37,552.04 C271.94,559.18 269.49,560.10 268.99,560.08 C268.62,559.58 268.51,556.29 269.46,553.00 C270.12,550.79 272.53,546.02 273.55,544.57 C275.34,542.06 278.41,539.53 279.60,539.00 C280.63,538.56 282.34,538.48 282.67,538.71 C283.01,539.01 283.10,541.09 282.67,542.70 C282.21,544.39 280.19,548.32 278.43,550.86 C273.64,557.69 268.85,560.92 268.45,560.86 C267.70,560.34 268.61,553.52 270.56,549.12 C271.22,547.66 274.13,542.39 276.02,540.32 C277.71,538.48 279.33,538.08 279.49,538.12 C279.81,538.36 279.92,540.10 279.58,541.22 C278.49,544.58 275.76,548.72 272.02,553.87 C269.77,556.89 268.62,557.91 268.26,558.08 C267.86,557.79 269.33,553.08 270.62,550.55 C274.24,543.62 279.68,538.33 281.20,537.66 C281.48,538.71 278.97,543.23 277.22,546.18 C274.82,550.09 267.56,559.55 266.59,559.63 C265.72,557.69 270.50,546.25 273.13,542.30 C276.57,537.21 279.23,535.88 279.53,535.84 C280.07,539.44 261.93,557.09 260.77,557.23 C260.25,556.33 263.89,548.48 267.04,544.69 C269.96,541.21 273.33,539.03 274.42,538.82 C274.73,539.62 272.66,543.47 270.35,547.19 C265.14,555.10 259.78,561.52 258.63,561.92 C258.13,559.78 262.73,550.62 265.97,546.07 C267.70,543.67 271.06,540.00 271.91,539.59 C272.51,541.94 255.40,561.21 254.41,561.17 C253.71,559.05 257.52,552.18 258.31,550.94 C258.45,550.71 258.60,550.48 258.74,550.25" fill="none" stroke="rgb(220, 199, 133)" stroke-width="6.00" stroke-opacity="1.00" stroke-linejoin="round"/>
<path d="M233.57,541.21 C233.85,542.32 236.58,547.45 238.27,550.21 C239.26,551.81 242.31,556.51 242.43,556.92 C241.58,557.12 237.51,553.40 234.85,550.44 C230.17,545.20 227.84,541.53 227.86,541.20 C229.32,541.18 241.38,550.02 244.76,552.78 C251.50,558.36 251.83,560.16 251.74,560.54 C251.38,560.88 249.80,561.07 248.77,560.66 C244.77,559.07 236.02,551.94 233.35,548.27 C232.12,546.55 231.53,544.67 231.95,544.23 C232.24,543.96 234.04,543.95 235.49,544.43 C238.05,545.31 251.16,555.37 253.15,556.59 C254.82,557.61 258.59,559.57 258.72,559.83 C257.40,560.48 243.85,555.18 240.90,553.06 C239.03,551.68 236.87,549.52 236.15,548.18 C235.07,546.11 235.33,542.79 236.07,542.20 C237.29,541.29 239.99,540.86 241.42,541.07 C243.27,541.40 247.47,543.72 249.81,545.65 C252.06,547.53 256.81,552.27 258.48,554.19 C260.61,556.68 260.67,558.31 260.17,558.82 C259.52,559.42 257.23,559.96 255.36,559.79 C251.90,559.44 240.41,554.76 238.02,552.46 C236.96,551.42 235.76,549.36 235.57,548.37 C235.27,546.55 237.55,543.28 239.41,542.95 C240.69,542.78 243.94,543.78 247.44,546.10 C252.63,549.59 258.96,555.61 259.35,557.01 C258.63,557.56 256.07,556.81 253.42,555.46 C251.58,554.52 247.01,551.53 244.96,549.98 C239.61,545.85 238.54,542.21 238.92,541.53 C240.01,540.98 244.26,541.68 248.24,543.18 C254.30,545.51 267.63,551.53 267.97,553.12 C267.81,553.71 266.48,554.43 264.94,554.43 C262.23,554.38 250.89,549.42 247.67,547.18 C244.89,545.24 243.59,543.91 243.44,543.36 C244.49,542.45 258.45,546.92 262.65,548.86 C269.10,551.92 270.25,554.41 270.25,554.95 C269.37,555.81 266.64,556.44 265.51,556.34 C261.41,555.94 248.50,550.63 246.27,548.65 C245.80,548.21 245.62,547.00 246.87,546.46 C249.12,545.54 253.73,545.82 255.91,546.66 C257.30,547.23 262.49,550.19 264.58,552.03 C266.88,554.08 267.39,556.55 266.86,557.02 C266.13,557.57 263.80,558.06 262.04,557.86 C260.32,557.63 256.88,556.29 254.81,555.22 C252.58,554.04 247.74,550.56 246.64,548.64 C246.20,547.85 246.12,546.97 246.27,546.54 C247.44,545.77 251.99,545.50 255.15,546.76 C261.52,549.37 263.61,551.44 263.87,551.79 C262.94,552.36 258.61,549.54 256.50,547.23 C254.64,545.16 253.56,542.82 253.74,542.43 C254.69,542.24 265.17,554.75 267.14,556.22 C268.82,557.44 270.36,557.50 270.49,557.46 C270.49,557.46 270.79,556.96 270.79,556.96" fill="none" stroke="rgb(220, 199, 133)" stroke-width="6.00" stroke-opacity="1.00" stroke-linejoin="round"/>
<path d="M272.90,561.23 C275.42,561.59 280.43,558.16 280.76,557.57 C280.11,557.27 278.71,558.07 278.00,559.71 C276.14,563.98 275.57,564.42 274.74,564.33 C273.85,563.25 273.26,560.18 273.68,557.82 C274.74,552.33 280.96,548.08 282.41,547.31 C283.14,546.93 284.66,546.23 284.84,546.15" fill="none" stroke="rgb(220, 199, 133)" stroke-width="6.00" stroke-opacity="1.00" stroke-linejoin="round"/>
<path d="M214.01,486.87 C212.90,489.04 211.44,499.42 211.46,503.51 C211.49,507.32 212.24,513.16 212.41,513.08 C212.41,513.08 212.43,512.63 212.43,512.63" fill="none" stroke="rgb(220, 199, 133)" stroke-width="6.00" stroke-opacity="1.00" stroke-linejoin="round"/>
<path d="M212.06,490.67 C211.71,491.23 210.65,494.55 209.90,498.00 C209.19,501.33 208.62,507.66 208.78,509.58 C208.94,511.37 209.60,512.73 209.71,512.87" fill="none" stroke="rgb(220, 199, 133)" stroke-width="6.00" stroke-opacity="1.00" stroke-linejoin="round"/>
<path d="M214.78,491.29 C214.15,494.07 213.74,499.76 213.85,502.45 C214.11,507.83 215.78,512.97 216.24,513.86 C216.33,514.03 216.48,514.26 216.68,514.57" fill="none" stroke="rgb(220, 199, 133)" stroke-width="6.00" stroke-opacity="1.00" stroke-linejoin="round"/>
<path d="M296.70,487.27 C296.63,488.19 301.90,511.24 301.86,513.13 C301.85,513.57 301.81,514.22 301.74,515.07 C301.74,515.11 301.71,515.23 301.71,515.19" fill="none" stroke="rgb(220, 199, 133)" stroke-width="6.00" stroke-opacity="1.00" stroke-linejoin="round"/>
</g>
<g stroke-linecap="round" transform="translate(-90.00, -433.00)" id="Layer_4">
<path d="M202.61,471.92 C202.22,469.52 199.78,465.72 196.18,462.87 C193.79,461.03 175.92,455.02 173.58,453.12 C172.22,451.94 168.43,443.49 166.96,442.46 C164.34,440.69 158.58,439.65 157.16,439.65 C154.81,439.67 145.23,441.14 144.81,441.19 C142.90,441.41 140.97,441.29 139.88,440.86 C138.51,440.27 136.37,436.75 135.90,435.87 C135.90,435.87 134.88,435.66 134.88,435.66" fill="none" stroke="rgb(0, 0, 0)" stroke-width="6.00" stroke-opacity="1.00" stroke-linejoin="round"/>
<path d="M126.39,438.04 C124.25,440.76 119.30,445.27 117.49,446.49 C114.80,448.28 104.16,453.35 103.96,453.48 C101.79,454.98 98.36,462.22 97.82,463.97 C97.38,465.50 97.17,468.55 97.46,470.10 C97.98,472.59 103.69,480.59 104.27,481.48 C105.37,483.19 107.37,487.78 107.91,490.35 C108.46,493.12 108.49,497.07 107.62,500.79 C106.92,503.75 105.45,508.75 105.12,509.84 C105.12,509.84 104.98,510.43 104.98,510.43" fill="none" stroke="rgb(0, 0, 0)" stroke-width="6.00" stroke-opacity="1.00" stroke-linejoin="round"/>
<path d="M106.82,524.04 C113.80,526.81 126.32,531.17 129.05,533.62 C129.99,534.50 131.23,536.45 131.46,537.43 C131.63,538.27 131.37,540.09 130.82,540.68 C130.12,541.41 128.05,543.06 127.53,543.72 C128.70,543.98 147.14,543.24 153.68,543.85 C159.15,544.34 164.26,544.10 169.00,543.12 C172.46,542.39 178.09,541.49 179.45,541.35 C179.98,541.30 181.14,541.21 182.92,541.07" fill="none" stroke="rgb(0, 0, 0)" stroke-width="6.00" stroke-opacity="1.00" stroke-linejoin="round"/>
<path d="M358.27,538.03 C363.72,536.55 376.72,530.69 384.24,527.28 C396.08,521.76 401.72,518.79 407.81,513.38 C410.85,510.64 411.31,509.40 411.31,508.00 C409.97,507.19 407.20,505.65 406.73,505.17 C405.63,504.00 404.87,501.68 405.02,500.33 C405.47,497.29 407.07,494.49 409.92,491.55 C412.65,488.76 418.62,482.69 420.54,480.27 C421.84,478.62 426.09,470.42 425.89,468.11 C425.72,466.53 421.38,465.24 420.02,464.81" fill="none" stroke="rgb(0, 0, 0)" stroke-width="6.53" stroke-opacity="1.00" stroke-linejoin="round"/>
<path d="M418.25,463.26 C418.85,461.49 418.94,460.09 418.25,458.93 C418.09,458.67 414.88,454.40 414.50,454.00 C413.11,452.56 409.99,450.69 408.07,450.11 C406.68,449.72 401.07,450.18 398.44,451.12 C397.28,451.53 388.52,454.99 387.24,454.61 C386.45,454.32 384.88,452.88 384.36,451.92 C383.97,451.19 381.08,443.52 379.46,442.17 C377.85,440.87 371.76,439.50 367.39,439.76 C366.20,439.83 351.32,441.58 348.69,441.68 C348.17,441.70 346.89,441.79 344.86,441.93" fill="none" stroke="rgb(0, 0, 0)" stroke-width="6.53" stroke-opacity="1.00" stroke-linejoin="round"/>
<path d="M339.63,445.56 C337.75,446.06 334.36,448.65 330.79,452.46 C326.54,457.08 323.46,462.95 323.27,463.52 C323.16,463.83 322.96,464.53 322.68,465.61" fill="none" stroke="rgb(0, 0, 0)" stroke-width="6.53" stroke-opacity="1.00" stroke-linejoin="round"/>
<path d="M319.23,462.22 C313.50,465.90 311.31,467.41 310.38,468.23 C310.10,468.48 309.65,468.93 309.03,469.59" fill="none" stroke="rgb(0, 0, 0)" stroke-width="6.53" stroke-opacity="1.00" stroke-linejoin="round"/>
<path d="M125.22,440.98 C125.31,440.60 129.14,435.82 130.31,435.35 C130.92,435.13 133.32,435.70 134.40,436.16 C135.99,436.88 137.38,438.18 138.28,439.69 C138.42,439.93 138.57,440.24 138.74,440.61" fill="none" stroke="rgb(0, 0, 0)" stroke-width="7.00" stroke-opacity="0.90" stroke-linejoin="round"/>
<path d="M108.70,525.11 C107.82,523.03 103.78,519.16 103.37,516.87 C103.18,515.61 107.68,506.56 108.56,504.55 C108.69,504.24 108.85,503.83 109.02,503.31" fill="none" stroke="rgb(0, 0, 0)" stroke-width="7.00" stroke-opacity="0.90" stroke-linejoin="round"/>
<path d="M178.82,543.15 C178.82,543.15 184.53,541.87 184.53,541.87" fill="none" stroke="rgb(0, 0, 0)" stroke-width="7.00" stroke-opacity="0.90" stroke-linejoin="round"/>
<path d="M305.86,471.28 C305.86,471.28 319.10,464.92 319.10,464.92" fill="none" stroke="rgb(0, 0, 0)" stroke-width="7.00" stroke-opacity="0.90" stroke-linejoin="round"/>
<path d="M316.73,465.74 C319.61,464.15 323.82,458.43 324.35,457.71 C324.87,457.01 326.56,454.70 327.65,454.08 C330.74,452.56 335.92,448.55 337.35,447.22 C340.43,444.41 342.31,443.54 349.09,441.78 C349.34,441.41 349.50,441.16 349.57,441.02 C349.64,440.88 349.73,440.67 349.82,440.38" fill="none" stroke="rgb(0, 0, 0)" stroke-width="7.00" stroke-opacity="0.90" stroke-linejoin="round"/>
<path d="M424.61,467.38 C424.37,466.33 423.81,465.57 422.10,464.34 C418.89,461.99 412.64,457.38 411.66,457.12 C411.53,457.09 411.35,457.08 411.10,457.07" fill="none" stroke="rgb(0, 0, 0)" stroke-width="7.00" stroke-opacity="0.90" stroke-linejoin="round"/>
<path d="M361.66,538.94 C358.74,539.34 351.72,540.86 347.88,541.18 C345.95,541.32 342.76,541.56 341.49,541.65" fill="none" stroke="rgb(0, 0, 0)" stroke-width="7.00" stroke-opacity="0.90" stroke-linejoin="round"/>
<path d="M367.84,532.23 C371.89,534.38 376.84,538.20 379.30,540.52 C385.09,546.08 390.25,552.55 396.14,560.91 C400.21,566.75 408.27,578.06 412.26,583.53 C419.58,593.08 425.87,602.18 427.25,606.28 C428.46,610.02 428.88,620.41 427.86,625.98 C427.22,629.23 424.33,634.53 422.23,636.57 C419.90,638.76 414.87,641.15 411.15,642.19 C407.53,643.18 399.94,645.29 395.97,646.39 C390.32,647.89 385.85,648.63 384.07,648.15 C381.07,647.28 376.95,644.18 376.17,643.37 C374.80,641.91 369.25,634.89 368.59,634.10 C366.84,632.02 362.98,629.00 361.17,628.08 C358.48,626.77 353.64,626.20 350.37,626.70 C347.97,627.12 344.47,629.09 339.51,632.29 C332.20,637.06 317.24,646.67 312.44,649.01 C306.24,651.99 293.40,658.11 286.76,661.25 C277.93,665.27 267.86,669.35 261.21,670.73 C258.92,671.20 223.70,674.06 221.77,673.89 C219.06,673.61 213.63,670.62 210.79,668.51 C207.32,665.91 204.27,663.86 201.97,662.80 C198.77,661.36 193.63,659.58 190.93,659.03 C186.04,658.07 176.75,658.59 167.47,660.19 C159.52,661.62 140.99,664.84 136.74,665.02 C125.58,665.45 105.89,661.42 103.38,660.48 C100.62,659.42 97.17,654.89 96.05,652.16 C95.26,650.17 93.63,643.73 93.40,640.49 C93.29,638.96 93.17,628.98 93.51,626.76 C93.69,625.64 95.88,619.23 96.60,617.88 C100.52,610.71 117.03,590.45 134.70,570.27 C151.08,551.35 156.16,544.34 157.28,542.79" fill="none" stroke="rgb(0, 0, 0)" stroke-width="7.00" stroke-opacity="0.90" stroke-linejoin="round"/>
<path d="M370.92,534.31 C372.63,535.27 384.88,548.94 390.18,554.91 C392.03,557.04 394.37,559.74 394.86,560.31" fill="none" stroke="rgb(0, 0, 0)" stroke-width="7.00" stroke-opacity="0.90" stroke-linejoin="round"/>
<path d="M387.53,553.71 C389.80,555.03 392.74,557.43 394.94,559.97 C396.71,562.05 401.65,568.65 403.34,571.25 C406.46,576.10 413.47,589.19 415.59,593.18" fill="none" stroke="rgb(0, 0, 0)" stroke-width="7.00" stroke-opacity="0.90" stroke-linejoin="round"/>
<path d="M413.15,585.41 C413.69,585.92 414.12,586.39 415.33,587.74 C417.91,590.65 421.22,594.90 423.25,597.96 C426.88,603.47 428.86,610.16 429.16,611.35 C429.45,612.51 429.73,613.67 430.02,614.83" fill="none" stroke="rgb(0, 0, 0)" stroke-width="7.00" stroke-opacity="0.90" stroke-linejoin="round"/>
<path d="M425.99,604.93 C427.36,606.87 428.02,608.08 428.27,609.35 C428.74,611.84 429.33,619.61 429.37,623.61 C429.40,627.04 428.99,631.33 428.60,632.15 C428.55,632.27 428.42,632.48 428.24,632.80" fill="none" stroke="rgb(0, 0, 0)" stroke-width="7.00" stroke-opacity="0.90" stroke-linejoin="round"/>
<path d="M424.76,636.19 C422.84,637.29 418.96,640.26 417.35,641.29 C415.05,642.75 410.93,644.09 408.18,644.43 C407.05,644.56 403.61,644.98 402.67,645.18 C402.29,645.26 401.91,645.40 401.55,645.59" fill="none" stroke="rgb(0, 0, 0)" stroke-width="7.00" stroke-opacity="0.90" stroke-linejoin="round"/>
<path d="M403.54,645.75 C401.14,645.23 399.57,645.33 397.97,646.28 C396.26,647.26 394.87,647.93 393.79,648.04 C391.00,648.29 383.87,647.20 381.60,646.98 C380.32,646.79 372.62,639.25 372.14,638.73 C371.76,638.30 369.82,635.58 369.12,634.59" fill="none" stroke="rgb(0, 0, 0)" stroke-width="7.00" stroke-opacity="0.90" stroke-linejoin="round"/>
<path d="M366.85,631.82 C366.20,630.96 365.88,630.62 364.27,629.16 C362.97,628.01 361.31,626.97 359.84,626.48 C359.46,626.36 355.87,625.65 354.59,625.34 C351.96,624.75 350.51,624.79 348.93,625.68 C344.88,628.10 341.51,629.56 338.35,630.42 C337.59,630.62 336.83,630.82 336.07,631.01" fill="none" stroke="rgb(0, 0, 0)" stroke-width="7.00" stroke-opacity="0.90" stroke-linejoin="round"/>
<path d="M338.31,633.55 C336.65,634.41 324.87,642.21 317.94,645.05 C316.00,645.83 307.40,648.96 304.10,650.14 C302.62,650.69 300.60,651.45 299.71,651.81" fill="none" stroke="rgb(0, 0, 0)" stroke-width="7.00" stroke-opacity="0.90" stroke-linejoin="round"/>
<path d="M290.99,660.08 C290.10,660.36 288.08,661.05 286.62,661.55 C279.72,664.02 267.52,668.37 266.99,668.54 C265.69,668.94 263.87,669.40 262.99,669.57" fill="none" stroke="rgb(0, 0, 0)" stroke-width="7.00" stroke-opacity="0.90" stroke-linejoin="round"/>
<path d="M228.24,674.49 C225.88,673.55 212.40,671.55 211.97,671.37 C211.64,671.22 208.16,667.97 207.79,667.70 C207.45,667.46 206.65,666.83 205.36,665.80" fill="none" stroke="rgb(0, 0, 0)" stroke-width="7.00" stroke-opacity="0.90" stroke-linejoin="round"/>
<path d="M142.95,665.82 C141.14,665.21 140.46,665.18 138.45,665.72 C136.61,666.20 120.84,665.22 116.17,665.41 C112.54,665.56 108.25,664.64 105.40,663.65 C103.09,662.83 98.69,661.63 97.06,661.46 C96.78,661.43 96.49,661.45 96.20,661.51" fill="none" stroke="rgb(0, 0, 0)" stroke-width="7.00" stroke-opacity="0.90" stroke-linejoin="round"/>
<path d="M97.56,660.43 C95.98,659.16 95.17,657.66 94.71,654.95 C93.49,647.36 92.65,634.35 92.73,633.16 C92.98,629.70 96.77,618.42 100.26,612.78 C104.38,606.19 125.80,578.31 134.81,566.43 C138.61,561.36 145.35,554.21 148.57,550.94 C154.97,543.94 155.92,542.73 156.51,541.91 C156.73,541.61 157.13,541.03 157.71,540.19" fill="none" stroke="rgb(0, 0, 0)" stroke-width="7.00" stroke-opacity="0.90" stroke-linejoin="round"/>
<path d="M220.41,469.60 C214.74,475.47 207.50,486.43 205.81,490.63 C203.25,497.12 202.75,503.67 202.74,504.96" fill="none" stroke="rgb(0, 0, 0)" stroke-width="4.78" stroke-opacity="1.00" stroke-linejoin="round"/>
<path d="M308.55,524.77 C309.49,521.67 310.22,515.94 310.19,510.88 C310.16,508.24 307.12,496.08 306.98,495.32 C306.93,495.04 306.87,494.55 306.80,493.86" fill="none" stroke="rgb(0, 0, 0)" stroke-width="4.78" stroke-opacity="1.00" stroke-linejoin="round"/>
<path d="M307.85,494.22 C308.68,493.94 309.19,490.63 307.96,487.46 C306.44,483.61 301.44,476.10 299.34,473.34 C296.60,469.78 292.06,465.58 287.99,462.46 C284.79,460.04 280.23,457.18 276.91,455.97 C271.03,453.87 256.14,451.79 250.06,452.14 C246.30,452.38 239.06,454.46 235.50,456.08 C232.77,457.35 225.11,461.85 222.94,463.75 C221.50,465.04 216.62,470.89 215.54,472.76 C214.72,474.23 213.98,476.60 213.61,478.79 C213.53,479.25 213.41,480.12 213.23,481.41" fill="none" stroke="rgb(0, 0, 0)" stroke-width="4.78" stroke-opacity="1.00" stroke-linejoin="round"/>
<path d="M215.07,477.81 C213.31,480.24 210.44,485.11 209.03,489.08 C207.05,494.73 206.53,502.40 206.50,503.91 C206.50,503.91 206.48,504.79 206.48,504.79" fill="none" stroke="rgb(0, 0, 0)" stroke-width="4.78" stroke-opacity="1.00" stroke-linejoin="round"/>
<path d="M306.82,513.27 C306.83,508.88 303.87,493.14 301.36,485.47 C299.96,481.24 298.62,478.86 297.60,477.38 C297.43,477.13 297.28,476.94 297.15,476.80" fill="none" stroke="rgb(0, 0, 0)" stroke-width="4.78" stroke-opacity="1.00" stroke-linejoin="round"/>
<path d="M290.99,477.74 C291.76,480.52 291.82,498.75 291.36,502.45 C290.51,509.06 287.82,520.24 285.44,525.93 C282.72,532.36 277.28,540.01 276.16,540.97 C275.80,541.28 274.92,541.94 273.52,542.95" fill="none" stroke="rgb(0, 0, 0)" stroke-width="4.78" stroke-opacity="1.00" stroke-linejoin="round"/>
<path d="M279.98,520.15 C277.70,516.73 275.30,510.71 274.59,508.65 C272.54,502.62 270.81,492.59 270.29,489.39 C270.25,489.11 270.20,488.76 270.14,488.34" fill="none" stroke="rgb(0, 0, 0)" stroke-width="4.78" stroke-opacity="1.00" stroke-linejoin="round"/>
<path d="M267.00,486.77 C264.62,487.49 262.40,491.31 260.32,495.71 C258.49,499.67 254.71,513.38 254.04,521.29 C253.91,522.81 253.56,526.69 253.40,528.07 C253.33,528.66 253.19,529.65 252.99,531.06" fill="none" stroke="rgb(0, 0, 0)" stroke-width="4.78" stroke-opacity="1.00" stroke-linejoin="round"/>
<path d="M246.03,518.11 C243.46,513.78 240.49,508.50 239.05,505.61 C237.55,502.56 235.25,496.18 234.75,493.77 C234.09,490.58 233.61,486.06 233.56,485.60" fill="none" stroke="rgb(0, 0, 0)" stroke-width="4.78" stroke-opacity="1.00" stroke-linejoin="round"/>
<path d="M226.54,488.58 C226.71,491.58 227.16,498.43 227.69,502.60 C229.62,516.16 230.37,523.14 229.61,527.53 C229.39,528.80 229.12,530.02 228.81,531.18 C228.67,531.69 228.42,532.42 228.08,533.38" fill="none" stroke="rgb(0, 0, 0)" stroke-width="4.78" stroke-opacity="1.00" stroke-linejoin="round"/>
<path d="M220.97,510.89 C219.22,507.39 216.95,501.73 216.28,498.86 C215.58,495.79 215.04,489.97 214.77,485.17 C214.65,483.11 214.63,481.95 214.63,479.53 C214.63,479.48 214.63,479.31 214.63,479.36" fill="none" stroke="rgb(0, 0, 0)" stroke-width="4.78" stroke-opacity="1.00" stroke-linejoin="round"/>
<path d="M207.27,488.33 C206.46,490.57 204.36,496.40 203.95,497.82 C202.99,501.14 202.49,504.00 202.24,505.93" fill="none" stroke="rgb(0, 0, 0)" stroke-width="4.78" stroke-opacity="1.00" stroke-linejoin="round"/>
<path d="M307.49,488.99 C309.11,492.29 316.23,510.12 317.43,513.65 C319.18,518.87 322.40,532.35 323.05,537.49 C323.15,538.35 323.25,539.20 323.35,540.06" fill="none" stroke="rgb(0, 0, 0)" stroke-width="4.78" stroke-opacity="1.00" stroke-linejoin="round"/>
<path d="M324.35,544.87 C324.35,544.87 321.70,543.10 321.70,543.10" fill="none" stroke="rgb(0, 0, 0)" stroke-width="4.78" stroke-opacity="1.00" stroke-linejoin="round"/>
<path d="M320.43,549.24 C320.43,549.24 318.10,565.85 318.10,565.85" fill="none" stroke="rgb(0, 0, 0)" stroke-width="4.78" stroke-opacity="1.00" stroke-linejoin="round"/>
<path d="M309.46,564.83 C306.95,563.92 305.44,563.07 303.89,561.55 C302.35,560.04 300.45,558.03 299.20,556.71" fill="none" stroke="rgb(0, 0, 0)" stroke-width="4.78" stroke-opacity="1.00" stroke-linejoin="round"/>
<path d="M294.85,562.02 C293.31,562.02 291.69,564.11 288.98,568.45 C287.02,571.57 283.52,575.97 281.64,577.14 C279.89,578.16 275.91,578.66 273.71,577.98 C272.35,577.55 266.43,574.96 263.65,574.32 C262.71,574.10 261.93,573.96 261.34,573.87 C261.02,573.83 260.47,573.79 259.70,573.74" fill="none" stroke="rgb(0, 0, 0)" stroke-width="4.78" stroke-opacity="1.00" stroke-linejoin="round"/>
<path d="M256.69,572.59 C252.78,571.79 245.23,573.62 241.55,575.25 C238.99,576.34 237.30,576.66 236.09,576.09 C232.94,574.49 225.73,561.85 224.54,560.43 C224.19,560.02 223.66,559.53 222.94,558.94" fill="none" stroke="rgb(0, 0, 0)" stroke-width="4.78" stroke-opacity="1.00" stroke-linejoin="round"/>
<path d="M220.17,558.58 C218.55,556.09 214.31,549.62 212.54,547.35 C209.99,544.10 204.54,538.70 203.79,536.70 C203.26,535.18 204.19,519.52 203.84,512.75" fill="none" stroke="rgb(0, 0, 0)" stroke-width="4.78" stroke-opacity="1.00" stroke-linejoin="round"/>
<path d="M268.03,481.29 C267.37,481.95 267.37,482.35 268.16,481.95 C269.09,481.45 269.12,478.17 267.90,477.53 C267.26,477.23 265.80,477.42 265.19,477.91 C264.59,478.41 263.93,480.01 263.96,480.83 C264.08,482.53 266.65,483.40 267.23,482.57 C267.31,482.46 267.40,482.18 267.50,481.73" fill="none" stroke="rgb(0, 0, 0)" stroke-width="4.78" stroke-opacity="1.00" stroke-linejoin="round"/>
<path d="M247.59,478.90 C247.59,478.90 248.33,479.60 248.33,479.60 C247.93,481.17 246.42,482.86 244.78,482.72 C243.93,482.62 242.82,481.87 242.68,481.25 C242.42,479.79 245.61,477.44 246.60,478.34 C247.11,478.82 247.34,479.38 247.28,480.00 C247.25,480.34 246.96,481.01 246.43,482.00" fill="none" stroke="rgb(0, 0, 0)" stroke-width="4.78" stroke-opacity="1.00" stroke-linejoin="round"/>
<path d="M268.76,466.24 C266.29,465.49 259.01,464.91 255.71,464.84 C251.53,464.78 244.50,465.10 242.11,465.47 C241.72,465.53 241.09,465.66 240.22,465.86" fill="none" stroke="rgb(0, 0, 0)" stroke-width="4.78" stroke-opacity="1.00" stroke-linejoin="round"/>
<path d="M282.23,486.36 C279.99,485.01 275.63,484.00 273.02,483.99 C271.86,483.99 259.45,484.59 258.23,484.50 C257.98,484.49 257.60,484.45 257.11,484.38" fill="none" stroke="rgb(0, 0, 0)" stroke-width="4.78" stroke-opacity="1.00" stroke-linejoin="round"/>
<path d="M254.19,485.80 C251.53,485.95 250.18,486.07 248.14,486.37 C241.21,487.34 230.14,488.82 228.38,488.89 C227.51,488.93 226.63,488.96 225.76,488.99" fill="none" stroke="rgb(0, 0, 0)" stroke-width="4.78" stroke-opacity="1.00" stroke-linejoin="round"/>
<path d="M203.45,514.80 C203.45,514.80 203.85,498.28 203.85,498.28 C203.88,501.49 203.95,509.11 203.72,510.84 C203.67,511.21 203.55,511.64 203.36,512.12" fill="none" stroke="rgb(0, 0, 0)" stroke-width="4.78" stroke-opacity="1.00" stroke-linejoin="round"/>
<path d="M203.75,513.26 C203.63,515.29 202.02,522.43 202.24,525.25 C202.29,525.93 203.25,534.83 203.42,535.19 C203.50,535.36 205.71,537.38 207.16,539.03 C207.95,539.90 210.32,542.65 211.25,543.74 C211.65,544.22 212.04,544.69 212.44,545.17" fill="none" stroke="rgb(0, 0, 0)" stroke-width="4.78" stroke-opacity="1.00" stroke-linejoin="round"/>
<path d="M211.80,543.25 C213.21,544.73 215.19,548.64 216.44,550.31 C217.51,551.74 221.54,555.53 223.53,558.27 C224.12,559.08 226.02,561.66 226.80,562.41 C227.03,562.63 227.50,563.03 228.19,563.61" fill="none" stroke="rgb(0, 0, 0)" stroke-width="4.78" stroke-opacity="1.00" stroke-linejoin="round"/>
<path d="M224.49,558.79 C224.74,559.32 224.91,559.66 224.99,559.79 C225.08,559.92 225.20,560.05 225.35,560.15" fill="none" stroke="rgb(0, 0, 0)" stroke-width="4.78" stroke-opacity="1.00" stroke-linejoin="round"/>
<path d="M225.72,561.35 C226.41,562.62 228.27,565.97 228.96,567.04 C230.24,569.02 235.00,574.04 235.69,575.35 C238.28,575.47 241.84,575.57 245.08,574.79 C246.59,574.42 251.69,573.05 254.79,573.42 C256.24,573.61 258.62,574.27 259.38,574.72 C259.66,574.90 260.20,575.32 260.98,575.97" fill="none" stroke="rgb(0, 0, 0)" stroke-width="4.78" stroke-opacity="1.00" stroke-linejoin="round"/>
<path d="M258.34,575.23 C259.08,575.56 267.00,575.48 270.44,576.78 C271.28,577.09 274.11,578.44 275.09,578.50 C278.23,578.66 281.42,576.79 284.11,574.36 C285.81,572.83 290.00,568.99 291.05,567.58 C291.79,566.56 294.20,562.53 294.44,562.22 C294.78,561.78 297.74,559.07 298.17,558.87 C298.99,558.55 300.65,559.79 301.08,560.18 C301.49,560.56 302.48,561.39 304.04,562.66" fill="none" stroke="rgb(0, 0, 0)" stroke-width="4.78" stroke-opacity="1.00" stroke-linejoin="round"/>
<path d="M301.72,561.46 C303.52,561.97 306.08,563.73 307.13,564.18 C307.26,564.23 312.74,565.80 313.70,565.72 C314.91,565.53 317.23,561.55 318.52,557.13 C318.95,555.65 321.34,547.56 322.08,546.83 C322.25,546.65 323.64,546.26 323.83,545.71 C324.40,543.94 323.07,538.87 322.75,537.69" fill="none" stroke="rgb(0, 0, 0)" stroke-width="4.78" stroke-opacity="1.00" stroke-linejoin="round"/>
<path d="M322.38,536.10 C321.41,531.68 321.20,530.51 320.87,528.35 C320.81,528.02 320.76,527.66 320.69,527.29" fill="none" stroke="rgb(0, 0, 0)" stroke-width="4.78" stroke-opacity="1.00" stroke-linejoin="round"/>
<path d="M322.03,532.61 C322.24,530.18 322.03,528.39 321.11,525.87 C320.20,523.36 319.44,521.79 318.78,520.93 C318.67,520.79 318.55,520.69 318.44,520.63" fill="none" stroke="rgb(0, 0, 0)" stroke-width="4.78" stroke-opacity="1.00" stroke-linejoin="round"/>
<path d="M277.89,515.74 C278.47,517.40 279.18,518.79 280.67,521.08 C281.68,522.63 284.16,526.37 284.67,527.09 C284.85,527.35 284.94,527.44 284.94,527.36" fill="none" stroke="rgb(0, 0, 0)" stroke-width="4.78" stroke-opacity="1.00" stroke-linejoin="round"/>
<path d="M282.71,526.16 C281.72,524.37 280.23,521.39 279.47,519.56 C278.78,517.90 277.31,512.74 277.02,511.72 C276.95,511.47 276.86,511.09 276.73,510.57" fill="none" stroke="rgb(0, 0, 0)" stroke-width="4.78" stroke-opacity="1.00" stroke-linejoin="round"/>
<path d="M274.44,508.78 C272.87,506.80 271.63,500.79 270.99,497.78 C270.24,494.39 268.42,488.50 268.28,487.34 C268.28,487.32 268.27,487.27 268.28,487.29" fill="none" stroke="rgb(0, 0, 0)" stroke-width="4.78" stroke-opacity="1.00" stroke-linejoin="round"/>
<path d="M265.24,488.60 C263.96,492.12 261.25,497.49 260.10,500.13 C259.01,502.72 255.90,510.16 255.80,510.38 C255.69,510.62 255.52,511.00 255.28,511.50" fill="none" stroke="rgb(0, 0, 0)" stroke-width="4.78" stroke-opacity="1.00" stroke-linejoin="round"/>
<path d="M253.85,512.22 C253.82,514.76 252.15,522.63 252.04,523.22 C251.94,523.79 251.72,525.09 251.40,527.12" fill="none" stroke="rgb(0, 0, 0)" stroke-width="4.78" stroke-opacity="1.00" stroke-linejoin="round"/>
<path d="M250.12,522.03 C248.51,520.40 246.28,517.26 243.82,513.09 C242.15,510.18 239.76,505.69 239.49,505.03 C239.36,504.71 239.16,504.13 238.90,503.28" fill="none" stroke="rgb(0, 0, 0)" stroke-width="4.78" stroke-opacity="1.00" stroke-linejoin="round"/>
<path d="M240.49,507.27 C240.49,507.27 232.39,489.60 232.39,489.60" fill="none" stroke="rgb(0, 0, 0)" stroke-width="4.78" stroke-opacity="1.00" stroke-linejoin="round"/>
<path d="M232.58,491.50 C231.71,494.80 229.60,502.95 229.22,505.23 C228.82,507.65 228.19,519.67 227.74,520.91 C227.68,521.06 227.57,521.28 227.40,521.55" fill="none" stroke="rgb(0, 0, 0)" stroke-width="4.78" stroke-opacity="1.00" stroke-linejoin="round"/>
<path d="M229.65,513.81 C229.87,518.04 228.21,526.87 228.19,526.96 C228.09,527.62 227.96,528.50 227.80,529.61 C227.79,529.70 227.75,529.97 227.77,529.88" fill="none" stroke="rgb(0, 0, 0)" stroke-width="4.78" stroke-opacity="1.00" stroke-linejoin="round"/>
<path d="M226.65,516.07 C225.00,514.35 224.04,513.20 222.79,511.32 C217.43,503.19 215.91,498.96 215.29,496.69 C215.23,496.47 215.19,496.28 215.17,496.10" fill="none" stroke="rgb(0, 0, 0)" stroke-width="4.78" stroke-opacity="1.00" stroke-linejoin="round"/>
<path d="M217.86,505.11 C215.35,495.22 213.97,488.13 213.22,483.92 C213.16,483.64 213.05,483.16 212.87,482.47" fill="none" stroke="rgb(0, 0, 0)" stroke-width="4.78" stroke-opacity="1.00" stroke-linejoin="round"/>
<path d="M291.20,492.55 C291.44,489.07 292.01,481.52 292.66,478.27 C293.01,476.57 294.03,475.66 295.06,475.17 C295.76,475.74 297.87,481.03 298.30,482.25 C299.25,484.99 301.38,491.16 302.55,494.57" fill="none" stroke="rgb(0, 0, 0)" stroke-width="4.78" stroke-opacity="1.00" stroke-linejoin="round"/>
<path d="M302.76,487.32 C304.49,489.16 306.43,492.61 307.44,495.95 C308.25,498.76 309.27,504.97 309.55,508.39 C309.71,510.36 309.89,515.79 309.93,516.90 C309.95,517.46 309.96,518.01 309.98,518.56" fill="none" stroke="rgb(0, 0, 0)" stroke-width="4.78" stroke-opacity="1.00" stroke-linejoin="round"/>
<path d="M198.96,519.96 C198.96,519.96 202.05,519.50 202.05,519.50 C202.05,519.50 201.47,519.32 201.47,519.32" fill="none" stroke="rgb(0, 0, 0)" stroke-width="5.58" stroke-opacity="0.90" stroke-linejoin="round"/>
<path d="M295.82,464.41 C295.82,464.41 293.88,465.19 293.88,465.19 C293.88,465.19 295.65,463.71 295.65,463.71" fill="none" stroke="rgb(0, 0, 0)" stroke-width="5.58" stroke-opacity="0.90" stroke-linejoin="round"/>
<path d="M324.05,519.79 C322.92,519.87 322.13,519.92 321.68,519.93 C321.23,519.94 320.48,519.94 319.44,519.91" fill="none" stroke="rgb(0, 0, 0)" stroke-width="5.58" stroke-opacity="0.90" stroke-linejoin="round"/>
<path d="M306.62,471.31 C302.82,472.05 299.99,473.07 299.49,473.35 C299.33,473.44 299.20,473.56 299.09,473.72" fill="none" stroke="rgb(0, 0, 0)" stroke-width="7.00" stroke-opacity="0.90" stroke-linejoin="round"/>
<path d="M199.63,468.45 C204.19,470.81 210.78,476.17 211.03,476.71 C211.09,476.86 211.14,477.17 211.18,477.62" fill="none" stroke="rgb(0, 0, 0)" stroke-width="7.00" stroke-opacity="0.90" stroke-linejoin="round"/>
<path d="M177.83,543.43 C179.29,544.06 181.47,544.65 183.05,544.66 C187.85,544.68 197.90,540.20 200.94,538.73 C201.16,538.63 201.23,538.64 201.15,538.74" fill="none" stroke="rgb(0, 0, 0)" stroke-width="7.00" stroke-opacity="0.90" stroke-linejoin="round"/>
<path d="M342.77,544.74 C339.70,543.26 333.04,542.85 330.35,542.63 C327.29,542.36 324.62,541.29 323.56,540.72" fill="none" stroke="rgb(0, 0, 0)" stroke-width="7.00" stroke-opacity="0.90" stroke-linejoin="round"/>
</g>
</svg>
