<?xml version="1.0"?>
<svg width="129" height="162" xmlns="http://www.w3.org/2000/svg" xmlns:svg="http://www.w3.org/2000/svg">
 <g class="layer">
  <title>Layer 1</title>
  <path d="m66.36,27.43l-15.79,62l28.86,-1.71l-13.07,-60.29zl0,0z" fill="#ffffff" id="svg_317" stroke="rgb(0, 0, 0)" stroke-linejoin="round" stroke-opacity="1"/>
  <g id="Layer_4" stroke-linecap="round">
   <path d="m31.04,99.09c0.77,0.07 16.46,0.4 18.41,0.55c0.61,0.04 6.71,0.76 9.41,0.79c1.25,0.01 7.3,-0.31 8.71,0.06c0.76,0.21 1.47,0.33 1.97,0.36" fill="none" id="svg_91" stroke="rgb(85, 85, 85)" stroke-linejoin="round" stroke-opacity="1" stroke-width="16"/>
   <path d="m42.94,96.27c1.05,0.16 3.57,0.05 7.1,-0.41c1.46,-0.19 19.8,1.02 26.95,1.4c2.87,0.25 9.26,0.29 10.71,0.24c0.32,-0.01 0.66,-0.03 1.03,-0.07" fill="none" id="svg_92" stroke="rgb(85, 85, 85)" stroke-linejoin="round" stroke-opacity="1" stroke-width="16"/>
   <path d="m89.43,95.71c0,0 3.42,0.51 3.42,0.51" fill="none" id="svg_93" stroke="rgb(85, 85, 85)" stroke-linejoin="round" stroke-opacity="1" stroke-width="16"/>
   <path d="m93.31,95.81c0,0 0.29,6.69 0.29,6.69" fill="none" id="svg_94" stroke="rgb(85, 85, 85)" stroke-linejoin="round" stroke-opacity="1" stroke-width="16"/>
   <path d="m95.73,102.28c-2.79,0.42 -12.72,-0.33 -19.5,-0.5c-4.31,-0.11 -8.56,-0.61 -10.57,-1.15c-0.3,-0.08 -0.92,-0.25 -1.85,-0.52" fill="none" id="svg_95" stroke="rgb(85, 85, 85)" stroke-linejoin="round" stroke-opacity="1" stroke-width="16"/>
   <path d="m58.95,101.33c-0.4,0.1 -11.71,-0.61 -17.73,-0.85c-0.89,-0.02 -4.78,-0.06 -6.35,-0.07c-2.45,0.01 -3.13,-0.02 -4.13,-0.17" fill="none" id="svg_96" stroke="rgb(85, 85, 85)" stroke-linejoin="round" stroke-opacity="1" stroke-width="16"/>
   <path d="m30.33,103.18c-0.58,-0.62 -0.39,-1.82 -0.31,-2.38c0.02,-0.15 0.05,-0.41 0.1,-0.78" fill="none" id="svg_97" stroke="rgb(85, 85, 85)" stroke-linejoin="round" stroke-opacity="1" stroke-width="16"/>
   <path d="m29.85,97.83" fill="none" id="svg_98" stroke="rgb(85, 85, 85)" stroke-linejoin="round" stroke-opacity="1" stroke-width="16"/>
   <path d="m28.66,96.58" fill="none" id="svg_99" stroke="rgb(85, 85, 85)" stroke-linejoin="round" stroke-opacity="1" stroke-width="16"/>
   <path d="m63.73,113.14c-0.22,3.08 -0.32,8.2 -0.26,14.43c0.06,4.32 0.15,6.33 0.19,6.7" fill="none" id="svg_100" stroke="rgb(110, 110, 110)" stroke-linejoin="round" stroke-opacity="1" stroke-width="16"/>
   <path d="m59.28,112.05c-0.31,0.68 -0.46,4.44 -0.33,6.74c0.41,7.14 2.16,13.93 2.49,14.87c0.11,0.31 0.24,0.53 0.38,0.65" fill="none" id="svg_101" stroke="rgb(110, 110, 110)" stroke-linejoin="round" stroke-opacity="1" stroke-width="16"/>
   <path d="m66.73,112.97c-0.15,0.61 -0.08,6.52 -0.04,8.87c-0.01,3.63 -0.6,8.99 -1.17,10.87c-0.04,0.13 -0.11,0.33 -0.22,0.62" fill="none" id="svg_102" stroke="rgb(110, 110, 110)" stroke-linejoin="round" stroke-opacity="1" stroke-width="16"/>
  </g>
  <g id="Layer_8" stroke-linecap="round" transform="matrix(1 0 0 1 0 0)">
   <path d="m51,88.81c0.17,-1.26 0.66,-4.78 0.88,-6.12c2.67,-15.19 8.6,-41.84 12.34,-52.63c0.23,-0.67 0.66,-1.8 1.29,-3.37c0.05,-0.13 0.2,-0.51 0.16,-0.38" fill="none" id="svg_272" stroke="rgb(0, 0, 0)" stroke-linejoin="round" stroke-opacity="1" stroke-width="4"/>
   <path d="m64.73,29.37c0,0 1.06,-4.63 1.06,-4.63" fill="none" id="svg_273" stroke="rgb(0, 0, 0)" stroke-linejoin="round" stroke-opacity="1" stroke-width="4"/>
   <path d="m66.85,24.34c0.29,0.55 0.72,1.54 1.02,2.42c2.04,5.93 3.65,13.73 4.56,18.52c0.57,3.15 5.87,33.51 6.87,41.43c0.05,0.38 0.12,0.74 0.2,1.08c0,0 -0.03,-0.1 -0.03,-0.1" fill="none" id="svg_274" stroke="rgb(0, 0, 0)" stroke-linejoin="round" stroke-opacity="1" stroke-width="4"/>
   <path d="m24.68,92.8c0.66,0.01 16.14,-1.4 19.9,-1.93c2.06,-0.32 44.23,-0.88 46.94,-0.62c3.28,0.32 8.54,1.77 9.26,1.9c0.19,0.04 0.36,0.01 0.53,-0.09" fill="none" id="svg_275" stroke="rgb(0, 0, 0)" stroke-linejoin="round" stroke-opacity="1" stroke-width="4"/>
   <path d="m24.98,93.7c0.29,0.76 0.54,4.7 1.3,9.87c0.1,0.73 0.3,2.57 0.53,3.22" fill="none" id="svg_276" stroke="rgb(0, 0, 0)" stroke-linejoin="round" stroke-opacity="1" stroke-width="4"/>
   <path d="m101.4,91.92c0.02,1.01 0.08,3.8 0.08,5.09c-0.04,5.41 -0.2,8.11 -0.18,9.03" fill="none" id="svg_277" stroke="rgb(0, 0, 0)" stroke-linejoin="round" stroke-opacity="1" stroke-width="4"/>
   <path d="m25.11,107.15c3.08,0.2 6.99,0.03 11.96,0.08c5.9,0.05 13.84,0.79 14.18,0.81c2.04,0.16 48.45,0.43 48.79,0.39c0.12,-0.02 0.49,-0.08 1.12,-0.19" fill="none" id="svg_278" stroke="rgb(0, 0, 0)" stroke-linejoin="round" stroke-opacity="1" stroke-width="4"/>
   <path d="m54.58,109.5c-0.05,0.89 -0.19,3.3 -0.22,4.26c-0.07,2.64 0.23,8.86 0.26,11.77c0.13,3.33 1.34,8.5 3.08,11.63c0.78,1.34 3.22,3.19 4.56,3.4c1.6,0.21 4.54,-0.6 6.01,-1.52c1.11,-0.73 3.26,-3.68 4.05,-5.51c1.68,-4 2.25,-9.23 2.02,-12.95c-0.08,-1.14 -1.1,-9.66 -1.11,-9.69c-0.03,-0.1 -0.19,-0.37 -0.45,-0.79" fill="none" id="svg_279" stroke="rgb(0, 0, 0)" stroke-linejoin="round" stroke-opacity="1" stroke-width="4"/>
  </g>
 </g>
</svg>