<?xml version="1.0"?>
<svg width="130" height="177" xmlns="http://www.w3.org/2000/svg" xmlns:svg="http://www.w3.org/2000/svg">
 <g class="layer">
  <title>Layer 1</title>
  <g id="Layer_5" stroke-linecap="round">
   <path d="m58.55,72.96c0,0 -0.93,0.57 -0.93,0.57c-0.87,-0.78 -1.5,-4.77 -1.48,-7.56c0.09,-5.8 3.01,-17.01 3.29,-17.13c0,0 -2.53,26.84 -2.53,26.84c-1.7,-7.15 2.65,-25.82 3.68,-28.26c0,0 -3.5,28.83 -3.5,28.83c-0.59,0.05 -1.39,-4.07 -1.39,-7.59c0.04,-9.95 4.76,-26.88 7.28,-33.1c-0.45,3.04 -1.27,9.62 -1.44,12.79c-0.2,4.24 0.24,10.83 0.2,11c-0.32,-0.03 -1.99,-3.02 -2.5,-5.44c-0.87,-4.42 1.03,-15.75 1.16,-16.71c-2.98,3.67 -2.11,25.63 -2.28,26.13c-1.27,-2.43 -0.95,-17.39 -0.26,-21.81c0.89,-5.26 1.95,-10.37 1.92,-10.27c0,0 -2.57,19.15 -2.57,19.15c-0.37,-0.64 -0.86,-5.33 -0.63,-8.07c0.57,-6.31 4.04,-15.11 4.66,-16.18c0,0 -1.51,11.93 -1.51,11.93c0.1,-4.35 0.32,-8.22 0.89,-11.15c1.18,-5.78 3.12,-7.98 3.36,-8.08c0.93,1.41 -0.36,11.22 -0.79,11.49c-1.94,-4.85 0.95,-9.2 1.16,-9.35c0.47,0.41 2.8,14.53 2.71,15.04c-0.02,0.07 -0.06,0.19 -0.13,0.37c-1.38,-0.5 -1.77,-11.63 -1.14,-12.62c0,0 4.85,28.09 4.85,28.09c-0.32,-0.61 -2.99,-7.94 -3.66,-10.49c-1.56,-6.04 -0.94,-11.9 -0.61,-12.11c0.53,0.25 1.41,12.38 2.48,18.23c0.63,3.29 1.41,7.26 1.39,7.54c-0.51,-0.34 -2.7,-5.99 -3.36,-9.64c-1.12,-6.46 -0.12,-11.76 0.2,-12.24c0.19,0.56 1.43,14.38 3.02,23.27c0.3,1.9 0.55,4.21 0.48,4.18c-0.78,-0.49 -2.87,-7.04 -3.3,-10.67c-0.43,-3.96 0.23,-9.39 0.71,-10.51c0.44,1.3 0.57,9.28 0.99,12.29c0.12,0.87 2.42,12.55 2.52,13.14c1.07,6.73 -0.11,8.22 -0.38,8.39c-0.91,-0.98 -1.49,-2.11 -1.67,-3.51c-0.12,-0.88 -0.14,-2.44 -0.1,-3.49c0.01,-0.15 0.01,-0.25 0.01,-0.32" fill="none" id="svg_34" stroke="rgb(244, 251, 251)" stroke-linejoin="round" stroke-opacity="1" stroke-width="6"/>
   <path d="m68.46,40.86c-0.92,2.67 -1.82,16.57 -1.64,22.9c0.41,9.71 0.24,13.36 -0.35,13.74c-1.09,-0.35 -3.34,-11.9 -3.51,-17.35c-0.17,-5.95 1.8,-17.09 2.87,-18.55c0.08,0.7 -2.27,14.52 -2.59,19.57c-0.2,3.2 -0.33,16.54 -1.05,17.37c-0.62,-0.23 -1.8,-3.78 -2.11,-6.91c-0.97,-10.44 3.06,-24.08 4.02,-25.89c0.04,0.5 -3.15,14.4 -3.59,19.22c-0.14,1.51 -1.64,18.17 -2.32,18.54c-0.72,-0.41 -1.72,-9.56 -1.17,-15.52c0.58,-5.97 3.41,-16.48 3.99,-16.71c-0.14,1.5 -2.89,15.56 -3.28,20.93c-0.23,3.27 -0.34,15 -0.43,16.12c0,0 0.94,-4.45 0.94,-4.45" fill="none" id="svg_35" stroke="rgb(244, 251, 251)" stroke-linejoin="round" stroke-opacity="1" stroke-width="6"/>
   <path d="m63.16,63.5c-0.58,0.38 -1.01,1.99 -1.58,4.17c-2.06,7.84 -4.65,20.9 -5.66,21.9c-1.3,-3.05 0.58,-14.46 1.45,-15.23c0.33,1.49 -0.63,16.06 -1.98,18.86c-0.12,0.24 -0.31,0.42 -0.56,0.54c0,0 0.51,-13.91 0.51,-13.91c0,0 0.52,13.94 0.52,13.94c-1.29,0.25 -1.64,-10.94 -0.77,-13.45c0.25,0.45 0.35,13.59 0,14.94c-0.07,0.22 -0.19,0.55 -0.37,0.98c0,0 -0.45,-1.07 -0.45,-1.07c0,0 11.31,1.18 11.31,1.18c-3.8,0.81 -7.83,-0.9 -7.86,-0.93c0,0 13.51,0.93 13.51,0.93c0,0 -7.73,-0.11 -7.73,-0.11c0,0 11.68,-0.09 11.68,-0.09c0.18,0.9 0.14,1.26 -0.39,1.35c-1.26,0.2 -2.17,0.16 -3.09,-0.1c0,0 8.13,0.03 8.13,0.03c-0.94,-0.84 -1.18,-1.2 -1.14,-2.03c0.13,-4 -2.89,-16.66 -2.92,-19.9c0,-2.13 0.55,-3.93 0.67,-3.89c0,0 1.06,20.32 1.06,20.32c-4,-9.75 -4.09,-26.12 -3.9,-29.64c0,0 1.7,22.87 1.7,22.87c-4.08,-17.18 -1.58,-26.11 -1.24,-26.41c0.12,0.4 0.49,6.14 1.02,8.6c0.76,3.11 2.19,9.28 1.94,9.4c-0.9,-0.35 -2.78,-6.11 -3.26,-9.4c-0.49,-3.56 -0.43,-8.69 0.1,-11.47c-0.33,4.8 0.83,15.92 -0.18,16.63c-0.08,0.05 -0.26,0.11 -0.55,0.18c-0.9,-0.76 -2.39,-6.04 -2.68,-9.43c-0.54,-7.05 1.83,-12.7 2.19,-12.94c0,0 -0.4,17.93 -0.4,17.93c-0.61,0.23 -1.12,-0.05 -1.58,-1.16c-1,-2.47 -1.68,-8.64 -1.29,-11.68c0.39,-2.79 1.73,-5.85 1.97,-5.98c0,0 3.15,19.17 3.15,19.17c-2.8,-7.33 -5.65,-16.18 -6.29,-22.25c-0.16,-1.57 -0.26,-5.08 -0.34,-6.31c-0.08,-1.04 -1.87,-2.84 -2.04,-3.72c-0.08,-0.42 -0.25,-2.08 -0.43,-2.49c-0.24,-0.57 -1.33,-1.33 -1.59,-1.6c-0.62,-0.69 -0.05,-5.46 -0.09,-5.45c0,0 -2.08,16.08 -2.08,16.08c0,0 2.92,-9.62 2.92,-9.62c0.28,1.28 -1.29,20.32 -1.5,25.5c-0.15,5.54 0,19.82 0.09,25.73c-0.01,2.21 -0.4,5.87 -0.96,6.23c-0.94,-0.38 -3.03,-4.57 -3.2,-6.98c-0.42,-7.35 1.99,-9.95 2.3,-10.04c1.02,0.58 1.17,13.7 0.3,16.77c-0.1,0.35 -0.36,1.04 -0.77,2.08c-1.11,-0.28 -1.55,-0.66 -1.6,-1.69c-0.2,-4.92 2.3,-14.24 3.5,-15.33c0.54,0.25 1.01,3.46 0.82,6.88c-0.59,9.84 -2.19,10.34 -2.47,10.5c-1.19,-1.77 -1.36,-6.83 -0.89,-9.33c1.17,-5.84 3.66,-7.64 4.09,-7.45c0.95,1.36 -0.63,16.75 -0.84,17.7c-0.06,0.28 -0.17,0.39 -0.31,0.34c-0.35,-1.55 -0.45,-7.58 0.08,-10.86c0.62,-3.71 2.4,-7.47 3.21,-8.09c0.86,1.59 0.95,10.09 1.02,11.9c0.06,1.44 0.35,6.63 0.25,7.74c-0.62,0.51 -0.19,-15.1 1.14,-18.51c0.17,-0.42 0.39,-0.72 0.56,-0.85c0.47,1.5 0.66,6.34 0.52,9c-0.19,3.22 -1.31,9.14 -2.28,9.33c-0.44,-0.23 -1.45,-2.82 -1.85,-6.16c-0.93,-8.1 2.16,-15.65 2.96,-16.27c1.07,1.1 1.71,2.53 2.16,5.11c2.06,12.77 2.73,18.52 2.7,20.4c-0.19,-0.18 -1.5,-5.58 -1.92,-8.88c-0.77,-6.3 0.57,-8.05 0.83,-8.24c0.57,0.02 3.28,4.5 4.23,7.03c1.77,4.87 0.2,8.27 -0.67,8.47c-1.04,-0.29 -3.45,-4.05 -4.18,-6.43c-1.59,-5.45 0.12,-7.74 0.51,-7.99c0.88,0.33 1.25,0.64 1.49,1.4c1.25,4.2 -0.57,10.04 -0.77,10.19c-0.21,-0.41 0.12,-2.2 0.53,-3.73c0.11,-0.39 0.22,-0.77 0.32,-1.16" fill="none" id="svg_36" stroke="rgb(244, 251, 251)" stroke-linejoin="round" stroke-opacity="1" stroke-width="6"/>
   <path d="m58.01,87.66c-0.55,1.91 -1.83,6.43 -2.3,9.21c-0.43,2.55 -0.64,7.77 -0.44,9.69c0.08,0.81 0.3,1.73 0.56,2.58" fill="none" id="svg_41" stroke="rgb(244, 251, 251)" stroke-linejoin="round" stroke-opacity="1" stroke-width="20"/>
  </g>
  <g id="Layer_4" stroke-linecap="round">
   <path d="m41.88,108.15c0.98,0.67 6.34,0.39 7.17,0.38c0.77,-0.01 5.87,0.25 7.43,0.23c0.26,-0.01 0.54,-0.02 0.83,-0.03" fill="none" id="svg_74" stroke="rgb(72, 72, 72)" stroke-linejoin="round" stroke-opacity="1" stroke-width="16"/>
   <path d="m28.41,106.34c0.71,0.67 6.44,-0.1 15.24,-0.4c3.16,-0.07 9.39,0.1 10.79,-0.18c0.2,-0.04 0.41,-0.11 0.62,-0.2" fill="none" id="svg_75" stroke="rgb(72, 72, 72)" stroke-linejoin="round" stroke-opacity="1" stroke-width="16"/>
   <path d="m29.79,111.38c0.09,0.96 2.44,0.2 2.78,0.1c2.35,-0.61 18.11,0.62 19.43,0.27c0.58,-0.15 1.36,-0.54 1.54,-0.7" fill="none" id="svg_76" stroke="rgb(72, 72, 72)" stroke-linejoin="round" stroke-opacity="1" stroke-width="16"/>
   <path d="m29.83,112.33c0.63,0.38 8.69,-0.97 13.83,-1.27c0.82,-0.05 1.65,-0.1 2.47,-0.15" fill="none" id="svg_77" stroke="rgb(72, 72, 72)" stroke-linejoin="round" stroke-opacity="1" stroke-width="16"/>
   <path d="m50.56,106.29c1.31,0.63 10.5,-0.91 16.21,-1.33c4.43,-0.31 13.87,0.17 15.08,0.24c0.98,0.06 3.22,0.1 3.13,0.1" fill="none" id="svg_78" stroke="rgb(72, 72, 72)" stroke-linejoin="round" stroke-opacity="1" stroke-width="16"/>
   <path d="m80.35,104.92c0.35,-0.01 6.87,0.59 9.7,0.14c4.31,-0.69 6.33,-0.64 7.32,-0.43c0.19,0.05 0.64,0.16 1.35,0.35" fill="none" id="svg_79" stroke="rgb(72, 72, 72)" stroke-linejoin="round" stroke-opacity="1" stroke-width="16"/>
   <path d="m97.31,103.02c0.58,0.38 1.5,0.72 2.48,0.82c0.57,0.06 2.44,0.07 3.08,0.07" fill="none" id="svg_80" stroke="rgb(72, 72, 72)" stroke-linejoin="round" stroke-opacity="1" stroke-width="16"/>
   <path d="m103.79,102.12c0,0 0.5,8.81 0.5,8.81" fill="none" id="svg_81" stroke="rgb(72, 72, 72)" stroke-linejoin="round" stroke-opacity="1" stroke-width="16"/>
   <path d="m104.12,111.34c-0.93,0.72 -3.71,1.27 -4.92,1.24c-0.95,-0.04 -4.8,-0.98 -6.39,-1.03c-0.18,-0.01 -0.5,-0.01 -0.95,-0.01" fill="none" id="svg_82" stroke="rgb(72, 72, 72)" stroke-linejoin="round" stroke-opacity="1" stroke-width="16"/>
   <path d="m101.34,111.96c-2.25,0.68 -12.82,0.8 -24.99,2.07c-1.14,0.13 -4.46,0.59 -4.69,0.61c-0.23,0.02 -0.58,0.03 -1.03,0.03" fill="none" id="svg_83" stroke="rgb(72, 72, 72)" stroke-linejoin="round" stroke-opacity="1" stroke-width="16"/>
   <path d="m53.13,113.32c0.45,0.16 6.52,0.84 7.92,0.67c0.99,-0.12 3.66,-0.76 4.22,-0.95c0.15,-0.05 0.34,-0.13 0.57,-0.24" fill="none" id="svg_84" stroke="rgb(72, 72, 72)" stroke-linejoin="round" stroke-opacity="1" stroke-width="16"/>
   <path d="m63.29,109.12c0.33,1.28 1.49,15.56 1.32,21.7c-0.04,1.41 -0.17,5.68 -0.15,6.59c0.01,0.39 0.06,0.64 0.14,0.75" fill="none" id="svg_85" stroke="rgb(72, 72, 72)" stroke-linejoin="round" stroke-opacity="1" stroke-width="16"/>
   <path d="m62.67,118.1c-0.34,0.97 -0.18,4.3 0.22,7.39c0.69,5.04 2.2,13.92 2.33,14.51c0.07,0.31 0.22,0.9 0.44,1.77" fill="none" id="svg_86" stroke="rgb(72, 72, 72)" stroke-linejoin="round" stroke-opacity="1" stroke-width="16"/>
   <path d="m64.36,127.56c-0.39,0.78 -0.52,13.31 -0.43,14.08c0.05,0.53 0.73,4.67 0.81,4.71" fill="none" id="svg_87" stroke="rgb(72, 72, 72)" stroke-linejoin="round" stroke-opacity="1" stroke-width="16"/>
   <path d="m74.29,118.61c-0.3,1.24 -0.58,14.75 -0.97,20.05c-0.02,0.37 -0.05,1.11 -0.09,2.22" fill="none" id="svg_88" stroke="rgb(72, 72, 72)" stroke-linejoin="round" stroke-opacity="1" stroke-width="16"/>
   <path d="m75.69,121.76c0,0 -1.31,24.86 -1.31,24.86c0,0 -0.24,-1.07 -0.24,-1.07" fill="none" id="svg_89" stroke="rgb(72, 72, 72)" stroke-linejoin="round" stroke-opacity="1" stroke-width="16"/>
   <path d="m75.31,145.11c-1.26,0.58 -6.27,1.23 -9.51,0.69c-0.26,-0.04 -0.66,-0.12 -1.17,-0.23" fill="none" id="svg_90" stroke="rgb(72, 72, 72)" stroke-linejoin="round" stroke-opacity="1" stroke-width="16"/>
   <path d="m-95.15,108.83" fill="none" id="svg_98" stroke="rgb(85, 85, 85)" stroke-linejoin="round" stroke-opacity="1" stroke-width="16"/>
   <path d="m-96.34,107.58" fill="none" id="svg_99" stroke="rgb(85, 85, 85)" stroke-linejoin="round" stroke-opacity="1" stroke-width="16"/>
  </g>
  <g id="Layer_8" stroke-linecap="round">
   <path d="m51.31,97.5c-0.13,-0.9 0.04,-8.99 0.1,-9.93c0.31,-4.35 2.67,-15.4 2.88,-20.96c1.09,-29.93 7.37,-50.05 7.43,-50.25c0.02,-0.07 0.1,-0.19 0.24,-0.35" fill="none" id="svg_280" stroke="rgb(0, 0, 0)" stroke-linejoin="round" stroke-opacity="1" stroke-width="4"/>
   <path d="m64.35,15.79c1.04,2.85 2.09,5.7 4.01,9.74c0.86,1.8 8.9,34.44 11.75,45.51c1.1,4.82 4.05,23.94 4.81,26.35" fill="none" id="svg_281" stroke="rgb(0, 0, 0)" stroke-linejoin="round" stroke-opacity="1" stroke-width="4"/>
   <path d="m26.58,102.33c1.92,-0.13 7.27,-1.3 10.15,-1.13c5.07,0.31 18,-1.78 22.27,-2.1c2.07,-0.15 43.35,-1.1 48.09,-0.67c0.33,0.03 0.86,0.06 1.58,0.1" fill="none" id="svg_282" stroke="rgb(0, 0, 0)" stroke-linejoin="round" stroke-opacity="1" stroke-width="4"/>
   <path d="m31.17,101.4c-0.61,0.01 -3.41,0.44 -6.5,1.71c-0.17,0.07 -1.82,0.51 -2.16,0.67" fill="none" id="svg_283" stroke="rgb(0, 0, 0)" stroke-linejoin="round" stroke-opacity="1" stroke-width="4"/>
   <path d="m23.16,103.88c-0.4,0.8 -0.34,4.95 0.04,6.88c0.32,1.68 1.58,7.3 1.67,7.38" fill="none" id="svg_284" stroke="rgb(0, 0, 0)" stroke-linejoin="round" stroke-opacity="1" stroke-width="4"/>
   <path d="m24.71,117.36c0.61,1.37 2.13,2.11 4.09,2.25c1.04,0.19 2.07,0.38 3.11,0.57c0.44,0.06 1.02,0.09 1.72,0.08" fill="none" id="svg_285" stroke="rgb(0, 0, 0)" stroke-linejoin="round" stroke-opacity="1" stroke-width="4"/>
   <path d="m108.92,98.8c0.14,0.26 0.35,1.07 0.56,2.32c0.49,3.05 0.69,13.83 0.42,16.16c-0.01,0.08 0.04,-0.17 0.05,-0.25" fill="none" id="svg_286" stroke="rgb(0, 0, 0)" stroke-linejoin="round" stroke-opacity="1" stroke-width="4"/>
   <path d="m110.32,117.9c-0.53,0.07 -2.98,0.05 -3.36,0.11c-1.12,0.17 -7.35,1.58 -8.82,1.77c-4.11,0.53 -10.02,0.76 -10.73,0.86c-0.35,0.04 -5.4,1.43 -5.84,1.53c-0.1,0.03 -0.31,0.11 -0.63,0.24" fill="none" id="svg_287" stroke="rgb(0, 0, 0)" stroke-linejoin="round" stroke-opacity="1" stroke-width="4"/>
   <path d="m27.56,118.86c0.43,0.58 13.79,1.34 15.92,1.41c3.32,-0.08 7.23,0.14 9.3,0.25c0.83,0.03 1.9,0.08 2.01,0.09" fill="none" id="svg_288" stroke="rgb(0, 0, 0)" stroke-linejoin="round" stroke-opacity="1" stroke-width="4"/>
   <path d="m55.37,120.28c0.08,0.77 0.58,3.88 0.81,9.14c0.58,7.88 0.65,18.58 0.79,19.93c0.03,0.32 0.11,0.46 0.22,0.42" fill="none" id="svg_289" stroke="rgb(0, 0, 0)" stroke-linejoin="round" stroke-opacity="1" stroke-width="4"/>
   <path d="m57.23,148.62c0.28,0.79 3.24,3.73 5.96,4.72c2.02,0.71 4.84,1.02 9.52,0.33c1.01,-0.16 2.04,-0.19 3.03,-0.44c0.4,-0.11 1,-0.37 1.81,-0.78" fill="none" id="svg_290" stroke="rgb(0, 0, 0)" stroke-linejoin="round" stroke-opacity="1" stroke-width="4"/>
   <path d="m76.3,152.83c0,0 5.69,-3.61 5.69,-3.61" fill="none" id="svg_291" stroke="rgb(0, 0, 0)" stroke-linejoin="round" stroke-opacity="1" stroke-width="4"/>
   <path d="m81.77,122.06c0.13,2.12 0.16,6.03 0.1,11.28c-0.05,4.45 0.32,11.05 0.43,15.13" fill="none" id="svg_292" stroke="rgb(0, 0, 0)" stroke-linejoin="round" stroke-opacity="1" stroke-width="4"/>
   <path d="m51.34,96.9c-0.33,-1.09 -0.38,-4.2 0.01,-7.33c0.17,-1.28 1.37,-8.78 1.44,-9.28c0.04,-0.3 0.09,-0.74 0.16,-1.32" fill="none" id="svg_293" stroke="rgb(0, 0, 0)" stroke-linejoin="round" stroke-opacity="1" stroke-width="4"/>
   <path d="m51.12,97.64c-0.42,-1.66 0.88,-10.85 1.35,-13.96c0.27,-1.79 0.59,-4.28 0.72,-5.54c0.03,-0.34 0.07,-0.78 0.11,-1.34" fill="none" id="svg_294" stroke="rgb(0, 0, 0)" stroke-linejoin="round" stroke-opacity="1" stroke-width="4"/>
  </g>
 </g>
</svg>