<?xml version="1.0"?>
<svg width="133" height="185" xmlns="http://www.w3.org/2000/svg" xmlns:svg="http://www.w3.org/2000/svg">
 <g class="layer">
  <title>Layer 1</title>
  <g id="Layer_5" stroke-linecap="round">
   <path d="m57.97,68.46c-0.16,-5.27 -0.01,-8.36 0.54,-11.19c1.26,-6.34 2.65,-9.75 2.85,-9.95c0.43,1.24 -0.84,17.52 -1.96,21c-0.05,0.16 -0.08,0.2 -0.1,0.11c-2.87,-5.95 1.6,-24.22 2.67,-27.95c0,0 -1.99,24.69 -1.99,24.69c-1.39,-1.42 -1.6,-15.54 -0.98,-19.93c0.8,-5.48 3.46,-14.38 3.76,-15.3c0,0 -1.33,16.41 -1.33,16.41c-0.52,-0.64 -0.81,-5.98 -0.49,-8.49c0.77,-5.52 2.79,-10.81 3.19,-11.79c0,0 -1.4,10.67 -1.4,10.67c-0.22,-0.61 -0.1,-4.65 1.02,-8.38c0.38,-1.25 2.86,-6.96 3.1,-7.04c-1.35,5.04 -1.76,6.96 -1.95,10.59c-0.55,10.07 -1.14,12.83 -1.61,13.31c-1.25,-3.59 1.29,-11.94 1.63,-11.99c0.01,0.03 -1.21,13.18 -1.15,18.5c0.05,3.23 0.35,7.69 0.87,13.59c-0.56,-2.19 -1.41,-8.13 -1.26,-11.31c0.39,-7.03 2.61,-12.28 2.8,-12.62c0.04,0.12 -1.47,14.61 -1.38,20.8c0.04,2.51 0.43,6.74 1.04,12.31c-1.21,-7.96 -1.88,-19.25 -0.41,-24.68c0.36,-1.33 1.03,-2.94 1.4,-3.62c0,0.01 -0.3,14.16 -0.05,17.64c0.14,1.84 1.7,12.04 1.68,12.02c-1.97,-7.4 -2.94,-18.08 -2.14,-22.21c0.02,9.24 0.87,15.82 2.23,21.26c1.55,6.11 2.24,9.69 1.97,9.75c0,0 -3.03,-20.24 -3.03,-20.24c0.23,2.13 1.48,12.86 2.59,17.04c0.25,0.96 3.32,12.69 3.24,12.94c0,0 -3.92,-13.25 -3.92,-13.25c1.13,6.32 5.6,18.44 5.78,20.5c0.02,0.26 0,0.56 -0.07,0.9c-1.44,-0.35 -2.26,-6.14 -2.43,-7.98c0,0 1.58,9.27 1.58,9.27c0,0 1.33,4.32 1.33,4.32c0,0 -0.81,-1.64 -0.81,-1.64c0,0 -0.93,1.01 -0.93,1.01c0,0 -6.37,-1.05 -6.37,-1.05c0.51,0.16 7.8,0.69 8.43,0.96c0.29,0.13 0.56,0.59 0.61,0.71c-0.98,1.28 -13.61,-1.86 -14.35,-2.26c1.29,-0.74 7.91,-0.6 8.61,0.2c0.05,0.06 0.11,0.19 0.2,0.39c-0.58,1.01 -3.21,1.32 -7.78,0.6c-1.27,-0.2 -6.64,-0.45 -7.09,-0.97c-0.14,-0.83 1.26,-2.49 3.28,-2.81c1.73,-0.24 4.9,0.98 6.15,2.35c0.61,0.68 1.06,1.53 1.02,1.72c-0.24,0.33 -2.27,0.49 -4.32,-0.14c-2.19,-0.71 -5.94,-3.5 -6.85,-4.95c1.81,-0.53 8.65,2.83 8.91,3.56c-0.88,0.61 -3.45,0.1 -5.06,-0.67c-3.21,-1.58 -5.05,-3.55 -5.21,-4.36c-0.12,-0.85 0.4,-2.35 0.96,-2.56c0.68,-0.22 2.4,1.08 3.2,2.42c0.92,1.59 1.61,4.78 1.24,4.83c-0.52,-0.17 -2.09,-3.26 -2.72,-5.92c-0.57,-2.53 -0.82,-9.5 -0.28,-12.79c0.51,-2.92 1.84,-6.91 2.2,-7.13c0.4,0.14 0.68,19.73 0.15,22.67c-0.07,0.37 -0.15,0.54 -0.25,0.5c-0.92,-0.52 -1.9,-5.68 -2.12,-9.55c-0.5,-9.7 2.06,-25.18 3.12,-26.6c0.22,0.57 -0.01,13.25 1.06,23.44c0.4,3.63 0.49,6.95 0.39,7.06c-0.96,-1.27 -2.31,-13.04 -2.11,-18.61c0.21,-5.52 2.13,-15.96 3.47,-20.19c-0.43,7.19 -0.5,14.88 -0.08,19.96c0.78,7.21 1.65,15.28 1.84,17.97c-1.17,-5.1 -2.18,-17.43 -1.74,-20.87c0.47,-3.46 1.29,-5.95 1.59,-6.09c0.08,0.14 1.07,14.44 2.06,20.38c0.72,4.06 2.04,11.46 2.27,14.08c-0.87,-1.42 -2.88,-13.53 -2.7,-18.31c0.21,-5.42 1.92,-11.6 2.23,-11.66c0.29,1.09 -1.17,22.75 -1.71,25.23c-0.38,1.61 -1.4,2.2 -1.83,2c-0.59,-0.35 -2.45,-3.59 -2.87,-6.4c-0.39,-2.83 0.65,-8.98 1.69,-11.09c0.7,-1.33 1.4,-1.44 1.95,-1.37c0.97,1.08 1.63,7.16 1.54,11.65c-0.19,7.28 -1.5,10.08 -1.94,10.37c-0.88,-1.62 -1.58,-7.81 -1.36,-10.85c0.31,-3.96 1.99,-9.44 2.85,-10.29c0.97,1.11 1.43,2.4 1.68,5.08c1.08,11.06 1.26,15.69 1.05,16.13c-0.58,-0.73 -1.44,-5.37 -1.52,-8.07c-0.07,-3.11 0.79,-6.92 1.28,-7.44c0,0 2.06,15.89 2.06,15.89c-0.51,-1.06 -2.26,-8.11 -2.65,-10.15c-1.34,-7.16 0.01,-21.16 0.72,-24.52c0,0.4 -0.38,8 -0.3,10.74c0.23,6.47 4.18,19.99 5.5,20.94c0.2,-0.09 0.04,-1.6 -0.08,-2.16c-0.02,-0.13 -0.05,-0.29 -0.09,-0.49" fill="none" id="svg_37" stroke="rgb(242, 242, 242)" stroke-linejoin="round" stroke-opacity="1" stroke-width="6"/>
   <path d="m58.33,159.76c-0.96,-1.26 -0.26,-5.01 0.37,-6.46c0.61,-1.33 1.57,-2.26 2.22,-2.35c0.79,-0.05 2.34,2.02 2.74,3.77c0.28,1.33 -0.2,3.91 -0.7,4.63c-0.38,0.5 -1.7,1.06 -2.26,0.74c-0.74,-0.48 -1.48,-3.55 -0.97,-5.26c0.5,-1.6 2.44,-3.63 3.79,-3.76c1.32,-0.07 3.59,1.75 4.04,3.15c0.35,1.26 -0.54,3.96 -1.63,4.94c-0.95,0.82 -3.17,1.37 -3.62,1.01c-0.65,-0.56 -1.38,-2.7 -1.17,-4.25c0.2,-1.38 2.11,-4.4 3.29,-5.06c1.36,-0.71 3.88,-0.28 5.05,0.89c1.13,1.2 1.57,4 0.91,5.49c-0.65,1.4 -2.63,3.02 -3.75,3.28c-0.6,0.12 -1.45,-0.63 -1.7,-1.41c-0.29,-1 -0.2,-4.17 0.63,-6.02c0.9,-1.95 2.83,-3.51 3.98,-3.54c0.91,0.03 2.83,1.79 3.34,3.6c0.51,1.9 -0.18,5.5 -1.15,6.95c-0.93,1.3 -3.15,2.09 -4.1,1.66c-0.7,-0.37 -2.25,-3.83 -2.06,-5.71c0.22,-1.82 2.32,-4.83 3.61,-5.19c1.26,-0.3 4.41,1.14 5.4,2.59c1,1.53 0.99,5.13 0.3,7.05c-0.68,1.76 -2.46,3.47 -3.08,3.41c-0.62,-0.11 -1.61,-1.38 -1.93,-2.28c-0.39,-1.14 -0.34,-3.72 0.42,-5.25c0.83,-1.63 2.95,-3.32 4.19,-3.21c1.01,0.15 2.51,2.72 2.47,4.18c-0.07,1.32 -1.76,4.18 -2.99,5.13c-1.07,0.8 -3.34,1.69 -3.72,1.56c-0.55,-0.23 -0.98,-1.56 -0.68,-2.82c0.84,-3.39 4.23,-4.98 5.16,-4.87c0.51,0.46 0.83,1.62 0.52,2.88c-0.38,1.49 -6.48,6.59 -7.91,6.9c-0.81,-0.25 -2.25,-3.3 -2.16,-5.5c0.09,-1.63 1.37,-4.33 1.89,-4.7c0.62,-0.42 1.94,-0.45 2.59,-0.13c0.63,0.31 1.94,1.82 2.39,3.36c0.46,1.67 0.03,5.51 -0.74,6.63c-0.76,1.03 -3.48,1.63 -4.63,0.91c-1.14,-0.77 -2.84,-3.73 -3.14,-5.36c-0.29,-1.73 0.49,-4.42 1.44,-5.29c1.02,-0.87 3.4,-0.84 4.59,0.3c1.24,1.25 1.89,4.07 1.25,5.48c-0.61,1.21 -3.09,2.23 -4.8,2.29c-1.48,0.03 -3.52,-0.62 -3.93,-1.24c-0.81,-1.33 -0.96,-4.83 -0.12,-6.43c0.82,-1.48 3.3,-2.93 4.75,-2.58c1.65,0.46 4.68,3.54 5.11,4.72c0.36,1.07 0.22,2.73 -0.26,3.68c-1.06,2.05 -3.86,3.26 -4.74,2.49c-0.59,-0.62 -1.44,-4.94 -0.52,-7.32c0.96,-2.36 3.87,-4.7 5.93,-4.81c0.48,-0.01 1.85,0.41 2.38,0.66c0.21,0.11 0.47,0.28 0.8,0.52" fill="none" id="svg_38" stroke="rgb(242, 242, 242)" stroke-linejoin="round" stroke-opacity="1" stroke-width="6"/>
  </g>
  <g id="Layer_4" stroke-linecap="round">
   <path d="m-46.44,122.31" fill="none" id="svg_61" stroke="rgb(72, 72, 72)" stroke-linejoin="round" stroke-opacity="1" stroke-width="30"/>
   <path d="m-47.88,124.17" fill="none" id="svg_63" stroke="rgb(72, 72, 72)" stroke-linejoin="round" stroke-opacity="1" stroke-width="30"/>
   <path d="m32.54,101.09c1.49,1.41 5.7,5.05 6.21,5.65c0.44,0.52 4.88,2.2 5.01,2.32c0,0 1.98,0.43 1.98,0.43c0,0 0.49,0.14 0.49,0.14" fill="none" id="svg_66" stroke="rgb(99, 99, 99)" stroke-linejoin="round" stroke-opacity="1" stroke-width="6"/>
   <path d="m34.66,100.6c0,0 1.13,0.91 1.13,0.91c2.23,2.79 5.7,5.29 11.57,7.2c0.07,0.02 3.02,0.8 3.18,0.78c0,0 2.04,0.56 2.04,0.56" fill="none" id="svg_67" stroke="rgb(99, 99, 99)" stroke-linejoin="round" stroke-opacity="1" stroke-width="6"/>
   <path d="m33.39,104.41c0,0 -0.35,0 -0.35,0c0,0 -4.02,3.74 -4.02,3.74c0,0 0,-0.21 0,-0.21" fill="none" id="svg_68" stroke="rgb(99, 99, 99)" stroke-linejoin="round" stroke-opacity="1" stroke-width="6"/>
   <path d="m32.12,102.43c0,0 -0.42,1.06 -0.42,1.06c0,0 -2.26,4.09 -2.26,4.09c0,0 -0.57,0.99 -0.57,0.99c0,0 -1.12,1.98 -1.12,1.98c0,0 -0.15,0.21 -0.15,0.21" fill="none" id="svg_69" stroke="rgb(99, 99, 99)" stroke-linejoin="round" stroke-opacity="1" stroke-width="6"/>
   <path d="m27.25,111.18c0,0 -0.92,1.06 -0.92,1.06c0,0 -0.42,1.13 -0.42,1.13c0,0 -0.14,0.21 -0.14,0.21" fill="none" id="svg_70" stroke="rgb(99, 99, 99)" stroke-linejoin="round" stroke-opacity="1" stroke-width="6"/>
   <path d="m26.67,111.71c0.48,-0.29 0.82,-0.4 1.17,-0.31c0.37,0.1 4.99,2.68 7.81,3.6c3.99,1.25 12.99,4.46 13.51,3.62c0,0 -19.99,-4.53 -19.99,-4.53c0.63,-0.08 14.73,7.88 17.63,8.39c0.55,0.09 4.95,0.18 5.21,0.26c0,0 -11.56,-2.25 -11.56,-2.25c0.33,-0.12 3.59,0.02 6.07,0.02c2.11,0.04 10.23,1.29 11.04,1.38c2.88,0.3 5.98,-1.22 5.48,-1.27c0.26,-1.3 -10.98,1.16 -10.89,1.09c4.11,-0.98 15.51,0.37 15.54,0.38c0,0 -8.35,-0.1 -8.35,-0.1c0.32,-0.47 13.74,-0.38 17.18,-1.74c0.63,-0.25 1.17,-0.72 1.32,-0.95c-0.18,-0.72 -5.16,0.15 -7.4,0.81c-2.21,0.66 -3.75,1.59 -4.11,1.83c2.66,-0.67 16.23,-2.35 18.42,-3.93c0.05,-0.04 0.07,-0.07 0.06,-0.1c-3.2,-0.03 -7.75,3.2 -8.56,4.16c0,0 9.92,-4.7 9.92,-4.7c0,0 -15.61,5.92 -15.61,5.92c0,0 14.1,-3.75 14.1,-3.75c-4.96,-0.68 -8.41,3.64 -8.59,4.17c4.31,0.38 19.1,-7.71 20.58,-8.73c0,0 -8.32,4.55 -8.32,4.55c1.34,-0.65 14.42,-8.33 15.27,-8.32c0.02,0 0.05,0.02 0.1,0.04c0,0 -8.18,4.91 -8.18,4.91c0,0 6.13,-3.71 6.13,-3.71" fill="none" id="svg_71" stroke="rgb(99, 99, 99)" stroke-linejoin="round" stroke-opacity="1" stroke-width="6"/>
   <path d="m100.85,115.19c0,0 -5.62,3.46 -5.62,3.46c0,0 5.01,-3.54 5.01,-3.54" fill="none" id="svg_72" stroke="rgb(99, 99, 99)" stroke-linejoin="round" stroke-opacity="1" stroke-width="6"/>
   <path d="m102.64,115.32c0,0 1.99,-5.07 1.99,-5.07" fill="none" id="svg_73" stroke="rgb(99, 99, 99)" stroke-linejoin="round" stroke-opacity="1" stroke-width="6"/>
   <path d="m98.57,100.44c0,0 -1.77,1.42 -1.77,1.42c0,0 1.78,-2.12 1.78,-2.12" fill="none" id="svg_74" stroke="rgb(99, 99, 99)" stroke-linejoin="round" stroke-opacity="1" stroke-width="6"/>
   <path d="m98.05,99.87c0,0 -14.03,9.2 -14.03,9.2c0.06,-0.67 2.04,-2.93 3.79,-4.18c5.36,-3.79 9.02,-4.5 9.01,-4.45c0,0 -18.92,12.14 -18.92,12.14c0,0 10.62,-6.64 10.62,-6.64c0,0 -16.61,7.5 -16.61,7.5c1.15,-1.14 9.04,-3.36 10.48,-2.59c-0.86,1.36 -14.99,3.3 -16.88,2.86c2.7,-1.36 7.52,0.17 7.58,0.39c-1.41,1.99 -16.91,-1.87 -17.85,-2.12c0,0 13.74,2.36 13.74,2.36c-6.79,-2.31 -13.23,-3.92 -15.81,-3.42c-0.02,0 -2.43,0.55 -2.84,0.63c1.28,-0.77 9.22,0.42 11.6,2.14c0,0 -13.85,-3.98 -13.85,-3.98c0,0 11.71,7.07 11.71,7.07c-1.03,0.31 -14.16,-2.11 -17.18,-3.32c-0.68,-0.28 -1.16,-0.7 -1.32,-0.94c0.59,-0.98 4.44,-1.43 6.77,-0.9c4.36,1.04 7.81,3.7 7.69,4.54c-1.29,1.15 -10.16,-0.76 -15.81,-2.73c-1.57,-0.55 -2.03,-1.49 -1.76,-1.99c0.21,-0.35 1.59,-1.07 2.67,-1.3c1.21,-0.23 5.11,0.43 6.97,1.4c1.54,0.82 2.61,2.64 2.38,3.12c-0.27,0.5 -1.52,1.08 -2.6,1.3c-1.42,0.26 -5.03,-0.13 -7.35,-1.07c-4.11,-1.72 -7.33,-5.06 -6.86,-5.85c0.21,-0.31 1.12,-0.63 2.06,-0.63c1.08,0.05 5.84,2.05 6.67,2.97c-0.38,0.82 -0.56,1.06 -1.02,1c-4.17,-0.51 -8.92,-2.65 -9.09,-3.73c-0.03,-0.24 0.51,-1.13 1.77,-1.74c1.68,-0.78 5.37,-0.46 7.29,0.64c1.34,0.8 1.44,3.33 0.66,4.23c-0.45,0.49 -2.03,1.16 -3.48,1.17c-1.66,0 -5.08,-0.73 -6.19,-1.36c-1.07,-0.64 -1.83,-2.86 -1.35,-3.99c0.52,-1.11 2.73,-2.38 4.52,-2.44c2.47,-0.01 10.16,4.96 12.2,6.99c0.74,0.75 0.79,1.22 0.74,1.56c-0.59,0.44 -2.93,0.38 -3.55,0.12c-1.41,-0.68 -0.43,-2.4 1.19,-2.88c1.2,-0.32 4.29,0.1 6.58,1.31c3.48,1.89 4.77,4.39 4.5,4.83c0,0 -8.2,-0.38 -8.2,-0.38c-0.21,-0.9 -0.03,-1.45 0.83,-1.84c2.93,-1.31 7.02,-0.69 14.97,0.98c2.34,0.44 2.44,0.51 2.59,0.58c0,0 -11.93,3.48 -11.93,3.48c-0.14,-0.17 -0.13,-0.67 0.83,-1.49c1.87,-1.53 5.91,-3 9.03,-3.12c4.7,-0.14 11.99,1.39 12.3,2.01c-0.75,0.79 -8.98,3.5 -9.88,3.74c-3.1,0.82 -4.63,0.64 -4.87,0.35c0.36,-1.15 4.59,-3.4 6.78,-4.32c7.29,-2.94 11.65,-4.08 12.16,-3.61c0,0 -8.39,4.66 -8.39,4.66c2.09,-4.06 16.45,-6.45 17.42,-6.46c0.18,1.15 -10.45,5.3 -10.94,5.47c1.1,-1.66 11.74,-7.43 16.1,-8.4c1.78,-0.39 4.36,-0.46 4.64,-0.17c0,0.76 -1.34,2.35 -3.01,3.38c-3.75,2.27 -13.05,5.56 -14.63,4.88c-0.13,-0.66 1.03,-2.83 2.6,-4.42c2.66,-2.67 7.44,-5.63 9.69,-6.41c2.31,-0.77 4.86,-0.32 5.03,0.41c0.09,0.42 -0.15,1.57 -1,2.65c-3.4,4.22 -7.01,5.44 -7.1,5.35c-0.16,-0.58 1.04,-5.07 2.24,-7.26c1.22,-2.18 3.87,-4.86 5.44,-5.95c0,0 1.59,0.41 1.59,0.41" fill="none" id="svg_75" stroke="rgb(99, 99, 99)" stroke-linejoin="round" stroke-opacity="1" stroke-width="6"/>
   <path d="m101.99,103.64c0.01,0.04 -4.25,8.14 -8.2,7.41c-1.7,-1.62 3.59,-8.54 5.64,-10.23" fill="none" id="svg_76" stroke="rgb(99, 99, 99)" stroke-linejoin="round" stroke-opacity="1" stroke-width="6"/>
   <path d="m102.5,105.63c0,0 -0.56,-4.16 -0.56,-4.16" fill="none" id="svg_77" stroke="rgb(99, 99, 99)" stroke-linejoin="round" stroke-opacity="1" stroke-width="6"/>
   <path d="m104.91,105.67c0,0 -1.22,-2.32 -1.22,-2.32" fill="none" id="svg_78" stroke="rgb(99, 99, 99)" stroke-linejoin="round" stroke-opacity="1" stroke-width="6"/>
   <path d="m103.85,106.78c0,0 -0.12,-3.77 -0.12,-3.77" fill="none" id="svg_79" stroke="rgb(99, 99, 99)" stroke-linejoin="round" stroke-opacity="1" stroke-width="6"/>
   <path d="m105.08,107.31c0,0 -0.07,0.31 -0.07,0.31" fill="none" id="svg_80" stroke="rgb(99, 99, 99)" stroke-linejoin="round" stroke-opacity="1" stroke-width="6"/>
   <path d="m103.29,108.4c0,0 0.7,-3.72 0.7,-3.72" fill="none" id="svg_81" stroke="rgb(99, 99, 99)" stroke-linejoin="round" stroke-opacity="1" stroke-width="6"/>
   <path d="m104.33,108.58c-0.03,0.07 -3.01,1.42 -4.81,0.66c-2.71,-1.25 0.63,-6.33 1.2,-6.95c0,0 1.5,0.08 1.5,0.08" fill="none" id="svg_82" stroke="rgb(99, 99, 99)" stroke-linejoin="round" stroke-opacity="1" stroke-width="6"/>
   <path d="m101.74,105.89c-0.6,0.4 -0.67,0.01 -0.53,-0.12c0.09,-0.09 0.28,-0.22 0.56,-0.41" fill="none" id="svg_83" stroke="rgb(99, 99, 99)" stroke-linejoin="round" stroke-opacity="1" stroke-width="6"/>
   <path d="m61.54,126.56c0,0 -0.28,14.01 -0.28,14.01c0,0 -0.73,-10.98 -0.73,-10.98c0,0 0.3,11.09 0.3,11.09c0,0 -1.49,-11.95 -1.49,-11.95c0,0 1.68,15.18 1.68,15.18c0,0 -0.68,-12.79 -0.68,-12.79c0,0 1.32,15.82 1.32,15.82c0,0 -0.17,-3.17 -0.17,-3.17c0,0 0.68,2.4 0.68,2.4c-0.12,-0.48 0.54,-1.95 1.69,-3.55c0.56,-0.75 1.68,-1.07 2.61,-0.92c1.04,0.24 2.71,0.61 4.43,0.79c0,0 -7.5,1.53 -7.5,1.53c0,0 7.51,-0.47 7.51,-0.47" fill="none" id="svg_84" stroke="rgb(126, 125, 125)" stroke-linejoin="round" stroke-opacity="1" stroke-width="6"/>
   <path d="m70.49,144.87c0,0 -4.21,-0.78 -4.21,-0.78c0,0 4.72,-0.22 4.72,-0.22" fill="none" id="svg_85" stroke="rgb(126, 125, 125)" stroke-linejoin="round" stroke-opacity="1" stroke-width="6"/>
   <path d="m70.9,139.02c0,0 0.22,-3.13 0.22,-3.13" fill="none" id="svg_86" stroke="rgb(126, 125, 125)" stroke-linejoin="round" stroke-opacity="1" stroke-width="6"/>
   <path d="m72.32,133.62c0,0 0.21,-2.9 0.21,-2.9" fill="none" id="svg_87" stroke="rgb(126, 125, 125)" stroke-linejoin="round" stroke-opacity="1" stroke-width="6"/>
   <path d="m72.82,133.34c0,0 1.2,-5.78 1.2,-5.78c0,0 0.88,0.7 0.88,0.7" fill="none" id="svg_88" stroke="rgb(126, 125, 125)" stroke-linejoin="round" stroke-opacity="1" stroke-width="6"/>
   <path d="m71.38,134.58c0,0 0.1,-4.83 0.1,-4.83c0.86,0.92 1.19,2.5 0.53,4.31c-2.17,5.87 -5.25,5.67 -5.77,5.47c-0.65,-0.95 -0.98,-5.25 0.37,-7.82c0.85,-1.61 2.19,-2.46 3.57,-2.6c1.13,0.75 2,3.32 1.57,4.79c-0.48,1.47 -2.97,3.73 -4.22,3.89c-0.49,0.03 -1.51,-0.33 -1.85,-0.84c-0.71,-1.18 -1.37,-3.91 -1.19,-5.51c0.33,-2.78 2.06,-4.08 2.9,-3.97c0.53,0.1 2.3,1.59 2.82,2.53c0.54,1.02 0.34,2.64 -0.24,3.23c-1.24,1.11 -3.75,1.65 -4.54,1.03c-0.77,-0.68 -1.05,-4.5 -0.24,-6.32c1.97,0.62 3.19,1.22 4.78,2.43c1.52,1.18 2.51,2.63 2.52,3.71c-0.04,1.09 -3,2.4 -4.36,1.86c-1.2,-0.54 -2.97,-3.4 -3.1,-5.02c-0.02,-0.61 0.2,-1.94 0.55,-2.28c0.82,-0.7 3,-1.11 4.66,-0.77c1.49,0.32 3.24,1.13 3.52,1.47c0.5,0.91 -3.29,5.05 -4.64,4.72c0.17,-2.07 2.07,-3.13 2.68,-3.07c0.74,0.09 1.05,0.18 1.18,0.27" fill="none" id="svg_89" stroke="rgb(126, 125, 125)" stroke-linejoin="round" stroke-opacity="1" stroke-width="6"/>
   <path d="m26.36,107.94c-0.44,-0.31 2.04,-4.52 2.94,-4.99c0.16,-0.08 0.42,-0.13 0.79,-0.16c0.79,2.57 -4.56,7.77 -5.1,7.69c-0.75,-1.6 2.53,-5.59 2.66,-5.68c0,0 -2.65,3.72 -2.65,3.72c1.88,-3.95 4.02,-5.25 4.26,-5.21c0,0 -0.92,2.3 -0.92,2.3c0,0 3.05,-5.76 3.05,-5.76c0,0 -0.49,0.97 -0.49,0.97" fill="none" id="svg_95" stroke="rgb(99, 99, 99)" stroke-linejoin="round" stroke-opacity="1" stroke-width="6"/>
   <path d="m104.08,109.6c0,0 1.78,-0.62 1.78,-0.62" fill="none" id="svg_96" stroke="rgb(99, 99, 99)" stroke-linejoin="round" stroke-opacity="1" stroke-width="6"/>
   <path d="m105.63,109.62c0,0 0.02,0 0.02,0" fill="none" id="svg_97" stroke="rgb(99, 99, 99)" stroke-linejoin="round" stroke-opacity="1" stroke-width="6"/>
   <path d="m104.82,107.32c0,0 -0.49,1.56 -0.49,1.56c0.17,-0.08 0.28,-0.15 0.35,-0.21c0.15,-0.2 0.35,-0.44 0.35,-0.31" fill="none" id="svg_98" stroke="rgb(99, 99, 99)" stroke-linejoin="round" stroke-opacity="1" stroke-width="6"/>
   <path d="m104.93,109.33c0,0 -0.44,0.65 -0.44,0.65c0,0 1.09,-0.13 1.09,-0.13" fill="none" id="svg_99" stroke="rgb(99, 99, 99)" stroke-linejoin="round" stroke-opacity="1" stroke-width="6"/>
   <path d="m72.24,134.77c0.1,1.48 0.31,4.69 0.43,6.41c0.16,2.52 0.28,4.02 0.36,4.46c0.02,0.09 0.04,0.12 0.07,0.09" fill="none" id="svg_100" stroke="rgb(126, 125, 125)" stroke-linejoin="round" stroke-opacity="1" stroke-width="6"/>
   <path d="m73.64,135.24c0,0 0.62,11.24 0.62,11.24c0.67,-1.27 -1.8,-9.23 -1.53,-11.64c0.01,-0.1 0.04,-0.21 0.08,-0.33c0,0 2.5,10.87 2.5,10.87c-0.28,-1.18 -0.58,-2.43 -0.62,-2.37c-0.03,0.01 -5.43,-3.44 -7.08,-3.71c-0.94,-0.15 -2.23,0.23 -2.44,0.33c0,0 1.84,-2.44 1.84,-2.44" fill="none" id="svg_101" stroke="rgb(126, 125, 125)" stroke-linejoin="round" stroke-opacity="1" stroke-width="6"/>
   <path d="m65.93,137.91c0,0 -3.13,0.72 -3.13,0.72c0,0 0.36,-0.23 0.36,-0.23" fill="none" id="svg_102" stroke="rgb(126, 125, 125)" stroke-linejoin="round" stroke-opacity="1" stroke-width="6"/>
   <path d="m-80.73,119.56" fill="none" id="svg_116" stroke="rgb(72, 72, 72)" stroke-linejoin="round" stroke-opacity="1" stroke-width="20"/>
  </g>
  <g id="Layer_8" stroke-linecap="round">
   <path d="m53.72,106.44c-0.54,-3.92 0.94,-18.75 1.05,-21.05c0.58,-12.72 3.03,-39.29 4.73,-46.2c0.38,-1.53 3.78,-21.84 3.81,-21.79" fill="none" id="svg_315" stroke="rgb(0, 0, 0)" stroke-linejoin="round" stroke-opacity="1" stroke-width="4"/>
   <path d="m65.05,17.41c0.65,1.8 4.2,21.72 6.69,40.05c0.12,0.94 4.86,46.95 5.39,49.88" fill="none" id="svg_316" stroke="rgb(0, 0, 0)" stroke-linejoin="round" stroke-opacity="1" stroke-width="4"/>
   <path d="m53.59,103.68c0,0 -0.14,3.5 -0.14,3.5" fill="none" id="svg_317" stroke="rgb(0, 0, 0)" stroke-linejoin="round" stroke-opacity="1" stroke-width="4"/>
   <path d="m38.34,102.44c2.26,1.21 14.89,5.71 18.34,6.61c0.34,0.08 0.86,0.23 1.57,0.43" fill="none" id="svg_318" stroke="rgb(0, 0, 0)" stroke-linejoin="round" stroke-opacity="1" stroke-width="4"/>
   <path d="m56.75,108.06c1.73,0.7 6.95,1.61 9.95,1.5c0.78,-0.03 18.18,-3.15 22.23,-5.25c0.06,-0.04 5.55,-3.6 7,-4.47" fill="none" id="svg_319" stroke="rgb(0, 0, 0)" stroke-linejoin="round" stroke-opacity="1" stroke-width="4"/>
   <path d="m93.73,100.76c0.99,-0.53 2.65,-1.45 3.29,-1.84c0.21,-0.13 0.39,-0.25 0.54,-0.38c0,-0.01 0.01,-0.02 0.01,-0.02" fill="none" id="svg_320" stroke="rgb(0, 0, 0)" stroke-linejoin="round" stroke-opacity="1" stroke-width="4"/>
   <path d="m98.4,96.85c1.15,1.26 2.01,2.25 3.17,3.69c5.7,7.06 6.63,8.4 7.34,10.01" fill="none" id="svg_321" stroke="rgb(0, 0, 0)" stroke-linejoin="round" stroke-opacity="1" stroke-width="4"/>
   <path d="m109.11,109.31c0,0 0,0.48 0,0.48c-2.34,2.23 -4.57,3.82 -7.17,5.17c-2.8,1.46 -7.77,4.89 -10.07,5.72c-4.09,1.44 -17.53,4 -21.7,4.22c-1.07,0.05 -2.15,0.11 -3.22,0.16" fill="none" id="svg_322" stroke="rgb(0, 0, 0)" stroke-linejoin="round" stroke-opacity="1" stroke-width="4"/>
   <path d="m31.29,116.24c0.65,0.55 7.81,4.59 9.56,5.26c4.65,1.79 11.37,2.83 23.8,4.05c1.83,0.13 3.88,0.05 5.2,-0.17c1.04,-0.18 2.95,-0.42 4.47,-0.56c0.6,-0.05 1.19,-0.1 1.79,-0.15" fill="none" id="svg_323" stroke="rgb(0, 0, 0)" stroke-linejoin="round" stroke-opacity="1" stroke-width="4"/>
   <path d="m40.67,103.38c0.11,0.08 -2.31,-0.91 -3.37,-1.39c-1.53,-0.7 -5.19,-3.03 -6.8,-4.07c-0.37,-0.23 -0.64,-0.4 -0.83,-0.49" fill="none" id="svg_324" stroke="rgb(0, 0, 0)" stroke-linejoin="round" stroke-opacity="1" stroke-width="4"/>
   <path d="m32.8,98.08c0,0 0.07,0.14 0.07,0.14" fill="none" id="svg_325" stroke="rgb(0, 0, 0)" stroke-linejoin="round" stroke-opacity="1" stroke-width="4"/>
   <path d="m32.57,99.07c-0.55,-0.49 -1.59,-1.16 -1.95,-1.43c-0.17,-0.14 -0.48,-0.42 -0.91,-0.84c-0.09,-0.09 -0.14,-0.13 -0.15,-0.14" fill="none" id="svg_326" stroke="rgb(0, 0, 0)" stroke-linejoin="round" stroke-opacity="1" stroke-width="4"/>
   <path d="m30.21,96.88c-0.56,0.99 -3.29,4.36 -6.16,8.09c-0.87,1.14 -2.7,3.66 -2.92,3.96" fill="none" id="svg_327" stroke="rgb(0, 0, 0)" stroke-linejoin="round" stroke-opacity="1" stroke-width="4"/>
   <path d="m21.12,109.42c0.9,1.32 10.46,8.1 10.98,8.29c0.16,0.05 0.34,0.03 0.54,-0.06" fill="none" id="svg_328" stroke="rgb(0, 0, 0)" stroke-linejoin="round" stroke-opacity="1" stroke-width="4"/>
   <path d="m58.82,127.21c0.03,2.87 0.07,9.82 0.11,10.81c0.15,2.32 0.34,6.92 0.46,7.08c0.11,0.13 0.23,0.26 0.35,0.39" fill="none" id="svg_329" stroke="rgb(0, 0, 0)" stroke-linejoin="round" stroke-opacity="1" stroke-width="4"/>
   <path d="m75.32,126.09c0.23,1.37 0.36,2.48 0.43,3.96c0.1,2.03 0.44,13.31 0.54,14.38c0,0 0.19,-0.4 0.19,-0.4" fill="none" id="svg_330" stroke="rgb(0, 0, 0)" stroke-linejoin="round" stroke-opacity="1" stroke-width="4"/>
   <path d="m66.62,146.15c-2,0.14 -5,1.66 -6,2.87c-0.85,1.1 -1.9,3.19 -2.38,4.87c-0.67,2.51 -0.83,5.2 -0.32,6.94c0.8,2.53 5.49,7.41 7.65,8.24c2.56,0.9 6.79,0.36 8.92,-1.06c1.66,-1.16 4.43,-5.4 4.63,-7.85c0.18,-3.13 -1.92,-8.47 -3.75,-10.91c-0.92,-1.16 -2.43,-2.34 -3.64,-2.77c-0.62,-0.21 -3.18,-0.09 -4.12,0.08c-0.5,0.09 -1.69,0.35 -3.58,0.76" fill="none" id="svg_331" stroke="rgb(0, 0, 0)" stroke-linejoin="round" stroke-opacity="1" stroke-width="4"/>
   <path d="m58.71,141.17c-0.02,1.92 -0.02,4.67 0.03,6.46c0.06,1.73 0.22,3.11 0.42,3.75c0.04,0.12 0.09,0.18 0.16,0.17" fill="none" id="svg_332" stroke="rgb(0, 0, 0)" stroke-linejoin="round" stroke-opacity="1" stroke-width="4"/>
   <path d="m75.91,137.51c0.08,1.37 0.14,2.34 0.19,2.89c0.27,3.18 0.96,8.54 1.11,9.24c0.04,0.16 0.07,0.2 0.1,0.12" fill="none" id="svg_333" stroke="rgb(0, 0, 0)" stroke-linejoin="round" stroke-opacity="1" stroke-width="4"/>
  </g>
 </g>
</svg>