<?xml version="1.0" encoding="UTF-8" standalone="no"?>
<!DOCTYPE svg PUBLIC "-//W3C//DTD SVG 1.1//EN" "http://www.w3.org/Graphics/SVG/1.1/DTD/svg11.dtd">
<svg width="51.12" height="64.56" viewBox="0.00 0.00 213.00 269.00" xmlns="http://www.w3.org/2000/svg" xmlns:xlink="http://www.w3.org/1999/xlink">
<g stroke-linecap="round" transform="translate(-974.00, -764.00)" id="Layer_58">
<path d="M1089.24,858.40 C1082.59,866.50 1071.99,889.29 1072.24,889.50 C1074.01,887.64 1085.31,873.86 1088.45,870.60 C1090.25,868.73 1093.82,865.17 1093.80,865.18 C1093.80,865.18 1075.43,885.90 1075.43,885.90 C1075.43,885.90 1076.91,883.74 1076.91,883.74" fill="none" stroke="rgb(122, 186, 119)" stroke-width="16.00" stroke-opacity="1.00" stroke-linejoin="round"/>
<path d="M1088.71,868.59 C1086.58,869.75 1077.83,879.76 1073.43,885.99 C1068.57,893.00 1062.03,902.77 1058.28,908.29 C1058.02,908.69 1057.49,909.52 1056.70,910.77" fill="none" stroke="rgb(122, 186, 119)" stroke-width="16.00" stroke-opacity="1.00" stroke-linejoin="round"/>
<path d="M1065.03,898.10 C1063.23,900.87 1059.12,907.29 1057.36,910.19 C1048.90,924.55 1042.84,939.45 1042.30,940.98 C1042.20,941.27 1040.33,946.94 1039.93,948.14" fill="none" stroke="rgb(122, 186, 119)" stroke-width="16.00" stroke-opacity="1.00" stroke-linejoin="round"/>
<path d="M1048.98,921.85 C1047.72,923.35 1046.84,924.45 1045.88,925.79 C1041.85,931.43 1032.45,947.63 1031.05,950.38 C1021.93,968.34 1019.57,977.07 1019.23,978.47 C1019.16,978.79 1019.13,978.94 1019.15,978.95" fill="none" stroke="rgb(122, 186, 119)" stroke-width="16.00" stroke-opacity="1.00" stroke-linejoin="round"/>
<path d="M1046.53,932.39 C1042.37,937.58 1026.32,967.36 1019.24,980.88 C1018.30,982.70 1017.92,983.56 1017.45,984.86" fill="none" stroke="rgb(122, 186, 119)" stroke-width="16.00" stroke-opacity="1.00" stroke-linejoin="round"/>
<path d="M1038.96,950.33 C1038.24,952.72 1026.07,972.82 1024.72,974.45 C1024.49,974.72 1023.93,975.36 1023.03,976.36 C1022.89,975.34 1025.46,971.41 1027.39,969.34 C1029.91,966.68 1032.67,964.50 1033.01,964.46 C1033.01,964.46 1013.14,988.96 1013.14,988.96 C1013.14,988.96 1018.05,982.37 1018.05,982.37" fill="none" stroke="rgb(122, 186, 119)" stroke-width="16.00" stroke-opacity="1.00" stroke-linejoin="round"/>
<path d="M1026.27,972.49 C1021.68,976.27 1012.04,988.25 1008.52,993.83 C1005.61,998.49 1003.20,1003.47 1003.41,1003.94 C1003.85,1004.07 1005.60,1001.59 1008.86,996.60 C1010.89,993.52 1014.99,987.80 1015.76,986.80 C1016.59,985.71 1017.75,984.25 1018.40,983.47 C1016.78,985.49 1012.05,991.51 1010.39,993.73 C1002.29,1004.96 999.83,1008.91 1000.01,1009.11 C1000.11,1009.19 1000.73,1008.81 1001.88,1007.97" fill="none" stroke="rgb(122, 186, 119)" stroke-width="16.00" stroke-opacity="1.00" stroke-linejoin="round"/>
<path d="M1010.53,995.64 C1008.07,997.74 1001.04,1003.78 1000.09,1004.66 C995.46,1008.99 993.27,1013.83 992.72,1015.49 C992.72,1015.49 998.12,1007.77 998.12,1007.77 C998.12,1007.77 990.10,1019.24 990.10,1019.24 C990.10,1019.24 990.65,1016.86 990.65,1016.86 C990.65,1016.86 987.79,1020.76 987.79,1020.76 C987.79,1020.76 991.25,1016.86 991.25,1016.86 C990.33,1018.61 989.86,1019.45 989.55,1019.42 C989.08,1019.37 987.86,1019.06 987.31,1019.59 C987.31,1019.59 989.50,1017.60 989.50,1017.60" fill="none" stroke="rgb(122, 186, 119)" stroke-width="16.00" stroke-opacity="1.00" stroke-linejoin="round"/>
<path d="M1079.90,870.53 C1079.90,870.53 1077.95,872.12 1077.95,872.12 C1077.95,872.12 1083.56,858.55 1083.56,858.55 C1081.77,861.40 1078.81,866.40 1078.60,866.85 C1078.03,868.08 1072.55,882.77 1071.41,883.69 C1071.41,883.69 1072.64,882.05 1072.64,882.05 C1072.64,882.05 1069.49,886.87 1069.49,886.87 C1070.13,886.09 1073.63,879.27 1074.23,878.20 C1075.01,876.84 1076.06,875.18 1076.61,874.40" fill="none" stroke="rgb(122, 186, 119)" stroke-width="16.00" stroke-opacity="1.00" stroke-linejoin="round"/>
<path d="M1085.59,864.66 C1086.23,861.85 1088.78,857.46 1090.81,855.64 C1091.57,854.97 1094.28,853.42 1095.29,852.86" fill="none" stroke="rgb(122, 186, 119)" stroke-width="16.00" stroke-opacity="1.00" stroke-linejoin="round"/>
<path d="M1095.66,853.53 C1096.42,852.47 1097.61,850.83 1098.20,850.13 C1098.77,849.43 1099.89,848.24 1100.97,847.15 C1101.33,846.77 1101.69,846.40 1102.06,846.03" fill="none" stroke="rgb(122, 186, 119)" stroke-width="16.00" stroke-opacity="1.00" stroke-linejoin="round"/>
<path d="M1101.75,846.82 C1101.75,846.82 1104.96,843.44 1104.96,843.44 C1104.96,843.44 1104.78,844.09 1104.78,844.09 C1105.41,844.12 1105.76,844.17 1105.82,844.21 C1106.05,844.45 1098.76,858.59 1098.45,859.49 C1098.62,859.68 1099.70,860.70 1101.68,860.61 C1103.57,860.53 1104.29,861.65 1104.47,862.18 C1104.47,862.32 1106.43,862.21 1107.21,862.33 C1107.53,862.38 1107.88,862.56 1108.25,862.87" fill="none" stroke="rgb(122, 186, 119)" stroke-width="16.00" stroke-opacity="1.00" stroke-linejoin="round"/>
<path d="M1094.94,853.63 C1092.53,853.47 1090.80,853.49 1088.49,853.75 C1086.18,854.00 1085.35,854.06 1085.11,853.98" fill="none" stroke="rgb(122, 186, 119)" stroke-width="16.00" stroke-opacity="1.00" stroke-linejoin="round"/>
<path d="M1035.70,815.37 C1037.47,818.27 1040.41,825.67 1042.31,827.20 C1043.24,827.93 1045.29,828.63 1046.18,828.79" fill="none" stroke="rgb(122, 186, 119)" stroke-width="6.00" stroke-opacity="1.00" stroke-linejoin="round"/>
<path d="M1037.91,816.66 C1037.91,816.66 1049.16,830.23 1049.16,830.23 C1048.10,830.14 1039.27,819.02 1038.91,817.38 C1038.87,817.15 1038.89,816.79 1038.97,816.29 C1041.55,818.64 1044.06,823.19 1045.48,824.75 C1046.32,825.68 1051.40,830.53 1052.55,831.62 C1052.55,831.62 1044.97,824.36 1044.97,824.36 C1047.69,827.03 1050.18,828.94 1052.77,830.13 C1055.83,831.53 1058.53,832.94 1062.58,835.25 C1062.58,835.25 1053.90,831.52 1053.90,831.52 C1053.90,831.52 1070.28,839.67 1070.28,839.67 C1070.28,839.09 1068.58,837.32 1067.81,836.66 C1067.78,836.64 1067.68,836.56 1067.71,836.59" fill="none" stroke="rgb(122, 186, 119)" stroke-width="6.00" stroke-opacity="1.00" stroke-linejoin="round"/>
<path d="M1063.10,834.85 C1063.10,834.85 1064.02,834.25 1064.02,834.25 C1064.02,834.25 1070.30,838.00 1070.30,838.00 C1070.15,838.03 1067.58,835.60 1066.17,835.35 C1066.03,835.32 1065.88,835.32 1065.72,835.35 C1065.71,835.36 1068.75,835.60 1070.55,837.18 C1071.80,838.31 1074.65,843.23 1075.00,843.89 C1075.00,843.89 1070.96,840.31 1070.96,840.31 C1070.96,840.31 1079.97,846.97 1079.97,846.97 C1079.97,846.97 1074.31,843.84 1074.31,843.84 C1077.44,843.54 1081.01,846.22 1081.07,846.43 C1080.74,846.39 1075.22,843.38 1073.76,843.54 C1073.57,843.57 1073.27,843.65 1072.84,843.79 C1072.84,843.79 1078.27,846.18 1078.27,846.18 C1077.61,847.02 1073.56,846.66 1070.43,845.68 C1068.44,844.99 1064.03,843.52 1064.12,843.25 C1066.33,841.72 1070.19,841.04 1072.24,841.51 C1076.84,842.63 1077.30,845.39 1077.29,846.55 C1075.68,848.50 1068.06,845.05 1064.51,843.15 C1065.72,842.91 1074.31,844.49 1075.15,845.51 C1075.97,846.87 1077.50,849.11 1079.07,850.00 C1079.47,850.23 1080.74,850.73 1082.10,851.49 C1082.10,851.49 1079.82,849.31 1079.82,849.31 C1079.82,849.31 1085.19,851.84 1085.19,851.84 C1082.49,850.18 1075.74,846.06 1073.88,845.00 C1070.73,843.22 1061.89,839.44 1061.57,838.95 C1062.98,838.03 1068.03,839.03 1071.27,840.54 C1074.04,841.88 1076.01,843.44 1075.99,844.44 C1075.97,844.55 1075.49,845.53 1074.95,845.63 C1071.88,846.16 1066.09,844.35 1064.18,843.37 C1061.84,842.13 1058.16,839.42 1058.05,838.23 C1059.56,837.20 1064.70,836.71 1066.47,837.41 C1068.09,838.09 1069.59,840.39 1069.33,841.41 C1068.99,842.48 1066.08,843.36 1062.89,842.70 C1060.26,842.12 1055.36,839.73 1054.12,838.30 C1052.89,836.86 1052.21,835.57 1052.45,835.32 C1052.87,834.61 1057.90,835.15 1060.54,836.36 C1063.03,837.52 1064.35,838.63 1064.44,839.49 C1063.54,840.07 1059.41,839.60 1055.88,837.98 C1050.99,835.68 1047.57,830.49 1047.62,829.93 C1047.62,829.93 1049.62,829.48 1049.62,829.48" fill="none" stroke="rgb(122, 186, 119)" stroke-width="6.00" stroke-opacity="1.00" stroke-linejoin="round"/>
<path d="M1056.83,837.63 C1056.83,837.63 1043.10,830.82 1043.10,830.82 C1043.10,830.82 1043.25,829.78 1043.25,829.78 C1044.15,828.95 1049.15,829.36 1051.27,830.77 C1054.82,833.23 1054.97,834.26 1054.99,835.00 C1054.79,835.92 1049.86,834.93 1046.93,833.48 C1042.39,831.12 1042.79,827.70 1043.07,826.95 C1044.08,826.16 1046.22,826.24 1047.76,826.40 C1048.04,826.43 1048.22,826.47 1048.31,826.50" fill="none" stroke="rgb(122, 186, 119)" stroke-width="6.00" stroke-opacity="1.00" stroke-linejoin="round"/>
<path d="M1113.41,861.08 C1117.76,865.38 1122.98,866.95 1124.03,867.10 C1121.15,867.38 1115.84,863.78 1114.10,862.48 C1114.10,862.48 1126.13,866.58 1126.13,866.58 C1126.13,866.58 1120.68,862.67 1120.68,862.67 C1120.68,862.67 1125.52,863.82 1125.52,863.82 C1125.52,863.82 1120.97,861.73 1120.97,861.73 C1122.73,861.43 1123.94,861.57 1124.49,862.35 C1124.75,862.72 1126.08,865.36 1129.03,868.02 C1133.39,871.98 1134.12,872.53 1134.87,872.89 C1135.29,873.52 1130.97,871.38 1129.29,869.83 C1129.04,869.60 1128.73,869.26 1128.35,868.81 C1131.96,871.99 1136.14,874.45 1139.04,875.00 C1139.28,875.04 1139.58,875.05 1139.93,875.05" fill="none" stroke="rgb(122, 186, 119)" stroke-width="6.00" stroke-opacity="1.00" stroke-linejoin="round"/>
<path d="M1137.20,874.30 C1141.39,873.70 1153.14,877.15 1153.44,877.18 C1153.44,877.18 1141.49,874.67 1141.49,874.67 C1145.54,878.23 1159.84,877.80 1160.26,877.98 C1162.34,878.85 1164.74,878.88 1165.55,878.97" fill="none" stroke="rgb(122, 186, 119)" stroke-width="6.00" stroke-opacity="1.00" stroke-linejoin="round"/>
<path d="M1153.29,877.18 C1153.89,876.91 1161.97,877.19 1164.10,876.89 C1167.35,876.40 1169.05,876.63 1171.00,875.32 C1171.26,875.14 1171.56,874.88 1171.89,874.55 C1171.89,874.55 1166.20,876.59 1166.20,876.59 C1166.20,876.59 1171.58,872.51 1171.58,872.51 C1169.93,875.44 1163.54,876.66 1161.84,876.79 C1161.84,876.79 1169.54,873.76 1169.54,873.76 C1169.54,873.76 1160.75,880.17 1160.75,880.17 C1160.75,880.17 1167.43,876.24 1167.43,876.24 C1165.81,878.07 1160.87,880.87 1158.24,881.63 C1156.22,882.20 1154.03,882.62 1153.46,882.60 C1156.87,877.69 1163.21,878.17 1163.57,878.50 C1162.60,879.75 1158.09,881.64 1155.26,882.15 C1152.44,882.63 1150.08,882.59 1148.10,882.43 C1149.08,881.26 1150.59,880.51 1153.33,879.94 C1156.14,879.36 1157.92,879.23 1159.66,879.22 C1159.57,879.96 1159.36,880.54 1158.56,881.01 C1155.29,882.89 1150.19,883.94 1148.07,884.02 C1146.79,884.06 1145.77,883.79 1144.39,883.17 C1144.28,882.17 1148.70,880.00 1151.55,879.44 C1154.75,878.88 1156.78,879.22 1158.56,879.79 C1158.32,880.86 1158.06,881.41 1157.15,881.78 C1153.69,883.18 1148.61,883.68 1147.11,883.37 C1144.95,882.89 1143.15,881.20 1143.29,880.94 C1144.53,879.53 1154.85,879.24 1155.25,879.67 C1154.79,880.61 1154.14,881.22 1152.83,881.61 C1149.40,882.60 1142.39,883.21 1140.47,882.65 C1137.02,881.57 1135.25,878.85 1135.37,878.43 C1135.98,877.43 1139.74,876.46 1143.50,877.43 C1145.40,877.93 1146.66,878.93 1147.05,879.87 C1147.03,880.30 1146.10,881.22 1144.87,881.48 C1143.38,881.78 1139.95,881.62 1138.74,881.23 C1135.97,880.25 1132.16,876.48 1132.27,875.40 C1134.43,874.95 1145.60,879.39 1146.16,879.84 C1144.12,879.97 1138.80,879.32 1136.87,878.65 C1130.96,876.52 1128.44,872.57 1128.59,872.29 C1129.41,871.58 1133.54,871.25 1136.28,872.09 C1137.91,872.60 1139.31,873.32 1141.65,874.77 C1141.65,874.77 1141.71,875.92 1141.71,875.92 C1138.88,876.40 1134.70,875.65 1131.75,874.95 C1128.72,874.22 1125.56,872.76 1124.73,871.52 C1123.97,870.30 1124.77,868.00 1126.06,867.47 C1127.22,867.03 1131.63,867.31 1133.66,868.29 C1135.64,869.28 1136.97,871.42 1136.51,872.26 C1135.95,873.17 1132.56,874.26 1130.62,874.08 C1125.46,873.50 1121.00,869.17 1120.44,868.17 C1121.05,867.19 1125.28,869.01 1129.36,871.38 C1135.26,874.87 1138.49,878.02 1138.57,878.23 C1138.57,878.23 1122.69,868.46 1122.69,868.46 C1123.18,868.44 1129.01,872.52 1131.08,873.48 C1135.86,875.67 1136.37,875.98 1136.52,876.39 C1134.93,876.79 1131.92,876.18 1129.55,874.87 C1127.71,873.83 1125.17,871.52 1123.24,869.68 C1123.67,869.83 1133.06,875.55 1133.21,875.69 C1133.44,875.91 1133.54,876.26 1133.53,876.74 C1132.39,877.53 1130.06,877.03 1128.65,875.94 C1127.69,875.18 1123.80,871.17 1123.80,871.17 C1131.36,873.34 1134.77,877.43 1134.94,878.30 C1133.85,878.95 1132.58,878.61 1130.08,876.89 C1129.12,876.22 1124.22,872.54 1124.26,871.64 C1125.19,871.16 1127.15,871.50 1129.25,872.71 C1134.95,876.01 1134.63,878.81 1134.25,879.49 C1133.45,879.87 1132.38,880.00 1131.63,879.57 C1127.70,877.21 1125.32,869.27 1125.17,868.19 C1125.10,867.66 1125.03,867.13 1124.97,866.60" fill="none" stroke="rgb(122, 186, 119)" stroke-width="6.00" stroke-opacity="1.00" stroke-linejoin="round"/>
</g>
<g stroke-linecap="round" transform="translate(-974.00, -764.00)" id="Layer_57">
<path d="M1104.53,816.34 C1104.53,816.34 1090.92,825.76 1090.92,825.76 C1090.92,825.76 1098.62,821.41 1098.62,821.41 C1098.62,821.41 1090.85,826.99 1090.85,826.99 C1090.85,826.99 1098.87,823.87 1098.87,823.87 C1098.47,825.59 1094.46,829.66 1092.78,829.43 C1092.24,829.32 1091.37,828.62 1091.36,828.14 C1091.32,826.13 1091.07,825.42 1089.98,824.91 C1089.38,824.63 1087.12,823.91 1086.41,823.35 C1085.24,822.41 1084.11,820.81 1083.75,819.58 C1083.15,817.41 1082.77,813.29 1082.85,811.99 C1082.86,811.79 1082.90,811.38 1082.96,810.76" fill="none" stroke="rgb(233, 77, 84)" stroke-width="26.00" stroke-opacity="1.00" stroke-linejoin="round"/>
<path d="M1084.18,812.62 C1082.37,811.96 1081.39,811.38 1080.76,810.40 C1079.30,807.99 1078.27,800.64 1078.66,798.46 C1078.93,797.11 1079.89,794.74 1080.36,794.22 C1080.51,794.07 1080.76,793.94 1081.11,793.81" fill="none" stroke="rgb(233, 77, 84)" stroke-width="26.00" stroke-opacity="1.00" stroke-linejoin="round"/>
<path d="M1079.92,802.98 C1079.00,800.64 1078.58,798.84 1078.31,795.66 C1078.15,793.74 1077.85,789.77 1078.06,789.24 C1078.20,788.89 1078.68,788.29 1079.49,787.43" fill="none" stroke="rgb(233, 77, 84)" stroke-width="26.00" stroke-opacity="1.00" stroke-linejoin="round"/>
<path d="M1080.72,789.51 C1079.98,788.23 1079.73,786.83 1080.28,785.71 C1080.43,785.41 1080.78,784.89 1081.34,784.15" fill="none" stroke="rgb(233, 77, 84)" stroke-width="26.00" stroke-opacity="1.00" stroke-linejoin="round"/>
<path d="M1083.82,786.83 C1084.80,789.79 1086.69,793.17 1088.47,795.30 C1091.78,799.19 1101.22,807.44 1101.74,807.91 C1102.01,808.15 1102.54,808.60 1103.34,809.28" fill="none" stroke="rgb(233, 77, 84)" stroke-width="26.00" stroke-opacity="1.00" stroke-linejoin="round"/>
<path d="M1094.48,795.42 C1094.78,796.43 1097.13,800.15 1099.80,802.00 C1101.14,802.90 1105.84,804.13 1108.39,804.13 C1109.48,804.13 1113.66,803.96 1114.42,804.02 C1115.71,804.12 1118.16,804.61 1118.18,804.68" fill="none" stroke="rgb(233, 77, 84)" stroke-width="26.00" stroke-opacity="1.00" stroke-linejoin="round"/>
<path d="M1113.57,802.27 C1114.01,799.71 1116.16,795.77 1117.88,793.36 C1118.88,791.98 1121.08,789.66 1122.47,788.50 C1122.81,788.22 1123.14,788.03 1123.44,787.92" fill="none" stroke="rgb(233, 77, 84)" stroke-width="26.00" stroke-opacity="1.00" stroke-linejoin="round"/>
<path d="M1125.69,790.33 C1128.71,787.89 1132.23,787.36 1132.85,787.60 C1133.09,787.70 1133.85,788.06 1135.12,788.69" fill="none" stroke="rgb(233, 77, 84)" stroke-width="26.00" stroke-opacity="1.00" stroke-linejoin="round"/>
<path d="M1137.79,794.93 C1139.12,794.40 1140.03,794.24 1140.86,794.58 C1141.28,794.75 1146.70,797.10 1148.00,797.26 C1148.30,797.29 1148.74,797.30 1149.34,797.29" fill="none" stroke="rgb(233, 77, 84)" stroke-width="26.00" stroke-opacity="1.00" stroke-linejoin="round"/>
<path d="M1151.52,798.38 C1151.52,798.38 1153.27,799.42 1153.27,799.42" fill="none" stroke="rgb(233, 77, 84)" stroke-width="26.00" stroke-opacity="1.00" stroke-linejoin="round"/>
<path d="M1150.61,803.86 C1150.61,803.86 1145.03,820.75 1145.03,820.75" fill="none" stroke="rgb(233, 77, 84)" stroke-width="26.00" stroke-opacity="1.00" stroke-linejoin="round"/>
<path d="M1154.86,816.18 C1155.93,816.39 1158.97,816.98 1159.67,817.14 C1162.09,817.67 1163.81,818.33 1165.37,819.24" fill="none" stroke="rgb(233, 77, 84)" stroke-width="26.00" stroke-opacity="1.00" stroke-linejoin="round"/>
<path d="M1166.32,820.61 C1167.73,820.22 1168.93,820.35 1170.49,821.19 C1170.70,821.29 1171.24,821.60 1172.12,822.09" fill="none" stroke="rgb(233, 77, 84)" stroke-width="26.00" stroke-opacity="1.00" stroke-linejoin="round"/>
<path d="M1170.33,820.23 C1167.86,820.65 1166.14,821.05 1164.74,821.59 C1162.00,822.69 1157.71,825.34 1155.83,826.55 C1153.74,829.49 1149.83,831.98 1149.07,832.79 C1147.56,834.45 1144.93,838.26 1144.45,838.74 C1144.69,837.65 1144.62,836.90 1144.05,836.52 C1143.70,836.29 1133.08,832.19 1131.71,831.84 C1131.71,831.84 1138.69,830.69 1138.69,830.69 C1137.88,832.17 1132.96,833.49 1130.40,833.64 C1128.41,833.75 1126.65,833.67 1126.06,833.51 C1126.06,833.51 1131.30,830.80 1131.30,830.80 C1131.30,830.80 1126.91,832.99 1126.91,832.99 C1126.91,832.99 1125.08,834.19 1125.08,834.19 C1124.74,830.89 1123.62,827.55 1121.16,824.12 C1119.26,821.52 1117.95,820.78 1117.38,820.72 C1117.30,821.73 1117.73,822.34 1118.92,822.50 C1119.49,822.58 1120.99,822.72 1121.70,822.99 C1121.11,823.66 1120.02,823.86 1118.54,823.40 C1117.86,823.20 1115.93,822.64 1114.10,822.64 C1114.10,822.64 1117.89,822.72 1117.89,822.72 C1117.89,822.72 1117.32,823.95 1117.32,823.95 C1117.32,823.95 1113.72,823.65 1113.72,823.65 C1115.70,822.33 1120.05,818.68 1122.28,817.24 C1126.52,814.54 1133.53,811.54 1134.32,811.85 C1134.76,813.37 1134.12,814.53 1133.16,814.75 C1132.07,814.97 1130.26,813.42 1130.14,811.74 C1130.04,809.76 1131.76,805.89 1133.01,804.87 C1133.58,804.43 1134.96,803.98 1135.54,804.08 C1136.27,804.23 1137.46,805.35 1137.89,806.35 C1138.31,807.41 1138.62,809.92 1138.49,811.17 C1138.26,813.12 1136.02,815.94 1135.87,815.96" fill="none" stroke="rgb(233, 77, 84)" stroke-width="26.00" stroke-opacity="1.00" stroke-linejoin="round"/>
<path d="M1067.91,780.37 C1068.21,781.24 1069.06,783.68 1069.37,784.34 C1071.33,788.49 1073.77,791.07 1074.96,791.81 C1074.96,791.81 1075.72,789.24 1075.72,789.24" fill="none" stroke="rgb(233, 77, 84)" stroke-width="16.00" stroke-opacity="1.00" stroke-linejoin="round"/>
<path d="M1070.72,785.51 C1070.16,787.98 1068.47,795.54 1068.09,798.00 C1067.58,801.44 1067.85,806.66 1069.18,808.87 C1069.62,809.59 1070.09,810.14 1070.59,810.51 C1070.75,810.63 1070.95,810.66 1071.17,810.59" fill="none" stroke="rgb(233, 77, 84)" stroke-width="16.00" stroke-opacity="1.00" stroke-linejoin="round"/>
<path d="M1069.67,796.30 C1068.30,798.04 1067.59,799.26 1067.42,800.65 C1067.04,803.94 1067.23,808.12 1067.99,811.41 C1068.46,813.35 1069.56,816.28 1070.38,817.55 C1071.39,819.09 1072.79,819.75 1073.86,819.57" fill="none" stroke="rgb(233, 77, 84)" stroke-width="16.00" stroke-opacity="1.00" stroke-linejoin="round"/>
<path d="M1071.03,811.91 C1072.28,814.87 1077.31,820.26 1078.53,822.25 C1080.86,826.08 1081.86,826.97 1082.93,827.59 C1082.93,827.59 1079.70,829.84 1079.70,829.84 C1079.70,829.84 1080.10,832.22 1080.10,832.22 C1080.10,832.22 1082.78,834.16 1082.78,834.16" fill="none" stroke="rgb(233, 77, 84)" stroke-width="16.00" stroke-opacity="1.00" stroke-linejoin="round"/>
<path d="M1081.77,832.71 C1082.50,833.39 1084.50,835.28 1084.88,835.53 C1085.60,836.01 1087.97,836.07 1088.76,836.66 C1090.69,837.28 1092.34,834.51 1093.97,832.96" fill="none" stroke="rgb(233, 77, 84)" stroke-width="16.00" stroke-opacity="1.00" stroke-linejoin="round"/>
<path d="M1118.12,831.29 C1119.25,833.59 1119.86,840.61 1120.11,844.07 C1120.16,844.47 1120.25,844.95 1120.39,845.53" fill="none" stroke="rgb(233, 77, 84)" stroke-width="16.00" stroke-opacity="1.00" stroke-linejoin="round"/>
<path d="M1118.81,835.12 C1118.81,835.12 1119.59,851.44 1119.59,851.44 C1119.87,850.74 1120.15,850.03 1120.43,849.33 C1120.46,849.25 1120.56,849.00 1120.53,849.08" fill="none" stroke="rgb(233, 77, 84)" stroke-width="16.00" stroke-opacity="1.00" stroke-linejoin="round"/>
<path d="M1120.61,842.90 C1120.61,842.90 1116.93,853.08 1116.93,853.08 C1116.93,853.08 1117.65,851.38 1117.65,851.38" fill="none" stroke="rgb(233, 77, 84)" stroke-width="16.00" stroke-opacity="1.00" stroke-linejoin="round"/>
<path d="M1124.48,844.70 C1125.30,843.10 1125.99,842.06 1127.07,840.85 C1129.48,838.14 1130.15,837.36 1130.30,837.15" fill="none" stroke="rgb(233, 77, 84)" stroke-width="16.00" stroke-opacity="1.00" stroke-linejoin="round"/>
<path d="M1133.48,839.72 C1134.21,840.36 1134.80,840.72 1135.23,840.79 C1136.18,840.94 1138.59,840.46 1138.95,840.76 C1138.95,840.76 1134.45,841.42 1134.45,841.42 C1134.45,841.42 1146.23,842.49 1146.23,842.49" fill="none" stroke="rgb(233, 77, 84)" stroke-width="16.00" stroke-opacity="1.00" stroke-linejoin="round"/>
<path d="M1148.12,846.13 C1148.12,846.13 1147.87,847.63 1147.87,847.63 C1147.87,847.63 1148.73,848.04 1148.73,848.04" fill="none" stroke="rgb(233, 77, 84)" stroke-width="16.00" stroke-opacity="1.00" stroke-linejoin="round"/>
<path d="M1175.22,819.02" fill="none" stroke="rgb(233, 77, 84)" stroke-width="16.00" stroke-opacity="1.00" stroke-linejoin="round"/>
<path d="M1177.54,820.12 C1177.54,820.12 1175.60,819.30 1175.60,819.30" fill="none" stroke="rgb(233, 77, 84)" stroke-width="16.00" stroke-opacity="1.00" stroke-linejoin="round"/>
<path d="M1176.38,817.71 C1175.38,817.74 1174.85,817.89 1174.78,818.15 C1174.53,818.98 1175.78,821.21 1175.56,821.90 C1175.48,822.16 1171.53,825.33 1171.31,825.46 C1170.96,825.65 1169.98,826.06 1168.37,826.69 C1168.37,826.69 1175.00,824.31 1175.00,824.31 C1175.00,824.31 1163.95,830.58 1163.95,830.58 C1163.95,830.58 1171.53,825.62 1171.53,825.62 C1171.53,825.62 1158.40,832.79 1158.40,832.79 C1161.66,830.03 1165.47,827.03 1167.98,825.65 C1168.22,825.52 1168.41,825.44 1168.53,825.43" fill="none" stroke="rgb(233, 77, 84)" stroke-width="16.00" stroke-opacity="1.00" stroke-linejoin="round"/>
<path d="M1173.42,824.83 C1172.11,825.03 1169.60,825.39 1169.03,825.51 C1166.60,826.07 1162.32,828.81 1158.02,831.82 C1150.46,837.29 1147.29,840.89 1145.74,842.95 C1145.74,842.95 1151.24,835.94 1151.24,835.94 C1151.24,835.94 1146.08,844.07 1146.08,844.07 C1146.08,844.07 1151.39,838.52 1151.39,838.52 C1151.39,838.52 1148.31,843.88 1148.31,843.88 C1148.31,843.88 1148.04,845.31 1148.04,845.31 C1148.04,845.31 1148.64,844.18 1148.64,844.18 C1148.64,844.18 1147.95,845.20 1147.95,845.20 C1148.50,843.42 1149.75,839.42 1150.22,838.16 C1150.37,837.74 1150.60,837.22 1150.88,836.60" fill="none" stroke="rgb(233, 77, 84)" stroke-width="16.00" stroke-opacity="1.00" stroke-linejoin="round"/>
<path d="M1160.77,794.28 C1160.25,795.57 1159.11,798.39 1158.49,799.91 C1157.50,802.36 1157.15,803.38 1157.01,804.19" fill="none" stroke="rgb(233, 77, 84)" stroke-width="16.00" stroke-opacity="1.00" stroke-linejoin="round"/>
<path d="M1158.42,805.83 C1158.48,804.65 1158.78,803.66 1159.61,801.98 C1160.44,800.33 1160.74,798.04 1160.99,797.26 C1161.07,797.00 1161.29,796.78 1161.64,796.60" fill="none" stroke="rgb(233, 77, 84)" stroke-width="16.00" stroke-opacity="1.00" stroke-linejoin="round"/>
<path d="M1162.32,796.47 C1162.32,796.47 1163.23,794.28 1163.23,794.28 C1162.33,795.51 1149.84,793.07 1149.86,793.07" fill="none" stroke="rgb(233, 77, 84)" stroke-width="16.00" stroke-opacity="1.00" stroke-linejoin="round"/>
<path d="M1072.77,780.48 C1072.77,780.48 1083.18,776.21 1083.18,776.21 C1083.51,776.05 1083.70,775.99 1083.75,776.01 C1083.80,776.04 1083.77,776.18 1083.68,776.45" fill="none" stroke="rgb(233, 77, 84)" stroke-width="16.00" stroke-opacity="1.00" stroke-linejoin="round"/>
<path d="M1083.40,776.04 C1084.07,777.41 1087.23,780.44 1087.94,781.34 C1089.22,782.97 1092.38,788.44 1093.81,790.46 C1095.76,793.15 1098.80,794.56 1099.60,794.17 C1099.79,794.06 1100.12,793.78 1100.60,793.32" fill="none" stroke="rgb(233, 77, 84)" stroke-width="16.00" stroke-opacity="1.00" stroke-linejoin="round"/>
<path d="M1111.69,792.52 C1113.89,790.10 1116.02,788.82 1116.89,788.58 C1117.08,788.53 1117.30,788.52 1117.57,788.53" fill="none" stroke="rgb(233, 77, 84)" stroke-width="16.00" stroke-opacity="1.00" stroke-linejoin="round"/>
<path d="M1112.38,791.87 C1113.27,790.25 1114.37,788.90 1115.61,788.03 C1116.64,787.33 1117.92,787.06 1118.54,787.35 C1118.68,787.42 1118.90,787.59 1119.20,787.87" fill="none" stroke="rgb(233, 77, 84)" stroke-width="16.00" stroke-opacity="1.00" stroke-linejoin="round"/>
<path d="M1117.29,788.47 C1117.62,786.54 1118.08,784.75 1118.55,783.90 C1118.69,783.65 1118.96,783.28 1119.37,782.78" fill="none" stroke="rgb(233, 77, 84)" stroke-width="16.00" stroke-opacity="1.00" stroke-linejoin="round"/>
<path d="M1116.02,770.07 C1115.70,771.52 1114.97,774.39 1115.00,775.17 C1115.14,778.13 1118.33,783.16 1119.42,783.54 C1119.42,783.54 1120.64,782.67 1120.64,782.67" fill="none" stroke="rgb(233, 77, 84)" stroke-width="6.00" stroke-opacity="1.00" stroke-linejoin="round"/>
<path d="M1116.41,772.21 C1116.41,772.21 1115.48,772.95 1115.48,772.95 C1115.48,772.95 1118.79,782.34 1118.79,782.34 C1118.79,782.34 1115.15,770.79 1115.15,770.79 C1115.15,770.79 1127.07,781.41 1127.07,781.41 C1126.55,780.90 1121.16,777.15 1119.90,775.80 C1119.57,775.43 1118.82,774.54 1117.65,773.14 C1121.04,774.67 1128.03,781.40 1128.07,782.72" fill="none" stroke="rgb(233, 77, 84)" stroke-width="6.00" stroke-opacity="1.00" stroke-linejoin="round"/>
<path d="M1115.69,768.54 C1114.36,769.98 1113.06,772.63 1113.62,773.96 C1114.44,775.85 1119.19,777.32 1120.06,777.57 C1120.24,777.62 1120.44,777.66 1120.66,777.68" fill="none" stroke="rgb(233, 77, 84)" stroke-width="6.00" stroke-opacity="1.00" stroke-linejoin="round"/>
<path d="M1121.82,779.71 C1120.15,779.97 1116.70,780.51 1116.42,780.55 C1115.10,780.75 1111.99,781.68 1111.00,782.39 C1109.80,783.28 1108.97,785.98 1109.04,787.68 C1109.06,788.01 1109.13,788.60 1109.26,789.46" fill="none" stroke="rgb(233, 77, 84)" stroke-width="6.00" stroke-opacity="1.00" stroke-linejoin="round"/>
<path d="M1129.28,778.62 C1131.39,777.63 1132.92,775.16 1133.19,774.86 C1133.29,774.75 1133.53,774.60 1133.89,774.40" fill="none" stroke="rgb(233, 77, 84)" stroke-width="6.00" stroke-opacity="1.00" stroke-linejoin="round"/>
<path d="M1132.21,775.60 C1132.21,775.60 1133.23,775.88 1133.23,775.88 C1133.72,777.22 1133.94,779.16 1134.06,779.85 C1134.25,780.88 1134.94,781.76 1135.99,782.56 C1136.21,782.71 1136.47,782.91 1136.77,783.16" fill="none" stroke="rgb(233, 77, 84)" stroke-width="6.00" stroke-opacity="1.00" stroke-linejoin="round"/>
<path d="M1132.54,776.26 C1132.54,776.26 1130.40,775.38 1130.40,775.38 C1129.50,775.88 1128.50,777.13 1128.12,778.64 C1127.73,780.23 1127.97,782.45 1128.49,783.79 C1128.57,783.97 1128.62,784.05 1128.65,784.04" fill="none" stroke="rgb(233, 77, 84)" stroke-width="6.00" stroke-opacity="1.00" stroke-linejoin="round"/>
<path d="M1139.14,783.98 C1140.50,783.82 1142.29,783.84 1143.08,784.20 C1143.94,784.60 1144.68,786.00 1145.22,787.73 C1145.28,787.96 1145.32,788.08 1145.33,788.09" fill="none" stroke="rgb(233, 77, 84)" stroke-width="6.00" stroke-opacity="1.00" stroke-linejoin="round"/>
<path d="M1141.44,783.65 C1142.37,785.20 1143.37,786.55 1144.85,788.25 C1145.15,788.60 1145.45,788.95 1145.76,789.29 C1145.84,789.38 1145.92,789.49 1146.02,789.62" fill="none" stroke="rgb(233, 77, 84)" stroke-width="6.00" stroke-opacity="1.00" stroke-linejoin="round"/>
<path d="M1181.32,818.53 C1181.17,821.13 1181.66,824.09 1181.51,825.07 C1181.49,825.23 1179.51,827.68 1178.89,828.20 C1178.45,828.54 1176.33,828.70 1175.24,829.26 C1175.24,829.26 1175.63,829.15 1175.63,829.15" fill="none" stroke="rgb(233, 77, 84)" stroke-width="6.00" stroke-opacity="1.00" stroke-linejoin="round"/>
<path d="M1177.12,828.33 C1171.46,828.62 1169.61,828.88 1166.41,830.32 C1166.05,830.48 1159.43,833.70 1158.95,834.49 C1158.95,834.49 1154.42,842.76 1154.42,842.76 C1154.42,842.76 1160.25,836.76 1160.25,836.76 C1158.28,838.26 1156.16,841.18 1154.06,845.39 C1153.25,847.04 1150.24,852.97 1149.67,853.74 C1149.95,852.77 1152.32,845.34 1152.75,842.05 C1153.17,838.71 1153.14,834.39 1153.15,834.36" fill="none" stroke="rgb(233, 77, 84)" stroke-width="6.00" stroke-opacity="1.00" stroke-linejoin="round"/>
</g>
<g stroke-linecap="round" transform="translate(-974.00, -764.00)" id="Layer_54">
<path d="M1069.72,837.23 C1069.83,835.21 1072.27,827.96 1075.42,817.03 C1078.38,807.11 1083.26,794.92 1084.95,792.35 C1088.74,792.84 1091.44,793.43 1093.84,795.67 C1094.73,796.51 1098.40,800.32 1099.19,800.98 C1101.88,803.21 1106.93,804.25 1108.11,804.05 C1108.63,803.96 1109.81,803.62 1111.64,803.05" fill="none" stroke="rgb(0, 0, 0)" stroke-width="6.00" stroke-opacity="1.00" stroke-linejoin="round"/>
<path d="M1107.99,802.64 C1110.11,802.73 1114.77,802.40 1117.30,801.91 C1120.25,801.33 1125.75,799.50 1128.36,798.13 C1129.53,797.52 1134.26,794.78 1137.09,793.40 C1138.42,792.79 1141.01,792.71 1143.06,793.24 C1145.90,794.00 1157.55,803.41 1158.94,803.95 C1159.36,804.11 1159.80,804.03 1160.26,803.69" fill="none" stroke="rgb(0, 0, 0)" stroke-width="6.00" stroke-opacity="1.00" stroke-linejoin="round"/>
<path d="M1161.00,805.58 C1159.71,809.51 1158.13,815.13 1157.09,817.38 C1155.49,820.78 1149.07,828.50 1141.61,835.12 C1135.61,840.46 1132.29,844.70 1131.25,846.00 C1131.03,846.29 1130.89,846.49 1130.83,846.62" fill="none" stroke="rgb(0, 0, 0)" stroke-width="6.00" stroke-opacity="1.00" stroke-linejoin="round"/>
<path d="M1134.07,843.56 C1134.07,843.56 1127.09,851.57 1127.09,851.57 C1127.04,851.95 1125.37,854.20 1123.58,856.27 C1122.46,857.48 1120.63,858.38 1118.40,858.89 C1115.77,859.43 1110.30,857.58 1107.82,855.99 C1106.93,855.41 1104.89,853.78 1103.58,852.66 C1102.47,851.70 1100.56,850.03 1099.75,849.32" fill="none" stroke="rgb(0, 0, 0)" stroke-width="6.00" stroke-opacity="1.00" stroke-linejoin="round"/>
<path d="M1103.16,852.59 C1101.42,851.81 1093.90,846.80 1093.21,846.32 C1091.09,844.86 1089.27,844.23 1086.74,844.04 C1085.89,843.98 1081.32,844.08 1080.73,843.81 C1080.52,843.71 1080.16,843.46 1079.66,843.04" fill="none" stroke="rgb(0, 0, 0)" stroke-width="6.00" stroke-opacity="1.00" stroke-linejoin="round"/>
<path d="M1084.80,842.50 C1083.41,842.52 1082.33,842.33 1079.98,841.57 C1077.78,840.83 1075.92,839.72 1075.00,838.50 C1074.71,838.10 1073.07,834.76 1072.55,833.86 C1072.43,833.66 1072.35,833.57 1072.30,833.58" fill="none" stroke="rgb(0, 0, 0)" stroke-width="6.00" stroke-opacity="1.00" stroke-linejoin="round"/>
<path d="M1111.30,769.56 C1112.37,767.62 1113.54,765.65 1114.07,765.45 C1115.33,765.02 1118.98,770.07 1120.84,771.99 C1121.49,772.65 1123.69,774.59 1124.63,775.41 C1125.17,775.88 1125.71,776.34 1126.25,776.81" fill="none" stroke="rgb(0, 0, 0)" stroke-width="6.00" stroke-opacity="1.00" stroke-linejoin="round"/>
<path d="M1126.33,774.85 C1126.33,774.85 1130.94,770.79 1130.94,770.79 C1131.84,770.90 1134.13,772.88 1135.53,775.25 C1136.39,776.71 1138.45,778.60 1139.87,779.20 C1140.22,779.34 1140.54,779.31 1140.85,779.09" fill="none" stroke="rgb(0, 0, 0)" stroke-width="6.00" stroke-opacity="1.00" stroke-linejoin="round"/>
<path d="M1140.47,777.69 C1143.61,781.20 1146.96,784.29 1148.53,785.09 C1148.90,785.27 1168.09,787.84 1168.44,787.94" fill="none" stroke="rgb(0, 0, 0)" stroke-width="6.00" stroke-opacity="1.00" stroke-linejoin="round"/>
<path d="M1165.87,805.45 C1165.87,805.45 1165.06,808.19 1165.06,808.19 C1165.06,808.19 1164.93,808.10 1164.93,808.10" fill="none" stroke="rgb(0, 0, 0)" stroke-width="6.00" stroke-opacity="1.00" stroke-linejoin="round"/>
<path d="M1163.67,806.32 C1161.86,806.89 1159.78,807.90 1158.83,808.78 C1158.60,809.00 1158.41,809.29 1158.28,809.67 C1158.28,809.67 1158.32,809.75 1158.32,809.75" fill="none" stroke="rgb(0, 0, 0)" stroke-width="6.00" stroke-opacity="1.00" stroke-linejoin="round"/>
<path d="M1131.59,772.68 C1131.59,772.68 1125.05,775.67 1125.05,775.67 C1125.05,775.67 1125.53,775.41 1125.53,775.41" fill="none" stroke="rgb(0, 0, 0)" stroke-width="6.00" stroke-opacity="1.00" stroke-linejoin="round"/>
<path d="M1116.77,800.16 C1114.63,799.51 1110.58,795.25 1108.61,793.20 C1105.09,789.47 1100.39,784.16 1097.51,780.86 C1093.27,775.86 1091.70,773.70 1091.01,772.39 C1090.81,772.01 1090.65,771.54 1090.52,770.99" fill="none" stroke="rgb(0, 0, 0)" stroke-width="6.00" stroke-opacity="1.00" stroke-linejoin="round"/>
<path d="M1093.99,775.93 C1093.99,775.93 1084.05,766.41 1084.05,766.41 C1082.43,767.69 1078.75,769.89 1073.33,772.73 C1068.39,775.28 1065.73,776.50 1063.16,776.91 C1062.21,777.05 1060.79,777.28 1060.57,777.49 C1060.14,777.92 1060.32,779.00 1061.07,780.98 C1061.07,780.98 1061.25,781.31 1061.25,781.31" fill="none" stroke="rgb(0, 0, 0)" stroke-width="6.00" stroke-opacity="1.00" stroke-linejoin="round"/>
<path d="M1076.17,806.28 C1076.17,806.28 1076.65,809.02 1076.65,809.02" fill="none" stroke="rgb(0, 0, 0)" stroke-width="6.00" stroke-opacity="1.00" stroke-linejoin="round"/>
<path d="M1077.23,804.21 C1078.29,805.90 1079.38,807.16 1080.70,808.18 C1080.89,808.33 1081.07,808.45 1081.21,808.53" fill="none" stroke="rgb(0, 0, 0)" stroke-width="6.00" stroke-opacity="1.00" stroke-linejoin="round"/>
<path d="M1059.79,779.98 C1059.79,779.98 1063.00,788.13 1063.00,788.13" fill="none" stroke="rgb(0, 0, 0)" stroke-width="6.00" stroke-opacity="1.00" stroke-linejoin="round"/>
<path d="M1064.85,789.87 C1064.12,791.03 1062.10,793.15 1061.36,793.96 C1060.07,795.41 1059.05,800.02 1059.15,802.62 C1059.72,813.94 1066.74,822.78 1067.68,823.50 C1068.06,823.80 1068.74,824.15 1069.69,824.55" fill="none" stroke="rgb(0, 0, 0)" stroke-width="6.00" stroke-opacity="1.00" stroke-linejoin="round"/>
<path d="M1161.66,807.77 C1167.27,807.58 1171.51,807.66 1173.38,808.30 C1175.69,809.16 1179.00,811.64 1180.81,813.78 C1180.94,813.94 1183.18,816.95 1183.50,817.61 C1184.35,819.46 1184.53,821.86 1183.94,823.66 C1183.55,824.76 1181.82,827.62 1180.97,828.49 C1180.04,829.42 1176.07,832.10 1175.15,832.78 C1174.71,833.10 1173.97,833.71 1172.94,834.59" fill="none" stroke="rgb(0, 0, 0)" stroke-width="6.00" stroke-opacity="1.00" stroke-linejoin="round"/>
<path d="M1174.97,833.33 C1173.05,834.36 1166.51,836.41 1163.35,838.68 C1161.27,840.21 1156.30,847.81 1156.08,848.15 C1155.26,849.47 1152.26,853.97 1152.00,854.45 C1151.79,854.85 1151.53,855.48 1151.23,856.34" fill="none" stroke="rgb(0, 0, 0)" stroke-width="6.00" stroke-opacity="1.00" stroke-linejoin="round"/>
<path d="M1154.08,853.62 C1154.08,853.62 1151.25,857.31 1151.25,857.31" fill="none" stroke="rgb(0, 0, 0)" stroke-width="6.00" stroke-opacity="1.00" stroke-linejoin="round"/>
<path d="M1081.61,845.53 C1084.31,845.91 1087.67,845.80 1090.69,844.86 C1096.92,842.85 1108.84,834.91 1108.89,834.90 C1110.85,835.86 1109.87,857.50 1109.88,857.95 C1109.88,858.24 1109.91,858.62 1109.98,859.10" fill="none" stroke="rgb(0, 0, 0)" stroke-width="6.00" stroke-opacity="1.00" stroke-linejoin="round"/>
<path d="M1070.24,832.61 C1067.50,831.86 1061.11,830.89 1058.53,829.82 C1056.38,828.90 1051.58,825.99 1051.09,825.59 C1049.61,824.34 1037.08,810.76 1035.59,810.83 C1034.94,811.03 1034.13,816.10 1034.57,819.35 C1034.89,821.57 1037.74,827.03 1039.21,829.07 C1040.71,831.09 1043.58,834.10 1046.07,836.29 C1049.17,838.98 1063.95,847.03 1067.41,847.82 C1068.64,848.09 1070.53,848.27 1071.61,848.27" fill="none" stroke="rgb(0, 0, 0)" stroke-width="6.00" stroke-opacity="1.00" stroke-linejoin="round"/>
<path d="M1122.31,858.62 C1125.38,861.91 1128.36,864.88 1131.00,866.68 C1133.70,868.48 1139.54,871.08 1143.18,872.07 C1146.48,872.95 1152.72,873.58 1155.68,873.48 C1158.04,873.40 1164.59,872.48 1166.94,871.76 C1168.68,871.21 1173.77,868.74 1173.78,868.91 C1174.00,870.03 1171.86,874.95 1170.17,876.98 C1168.24,879.22 1163.42,883.11 1160.01,884.54 C1156.25,886.06 1149.51,886.74 1146.36,886.33 C1143.05,885.84 1138.46,884.36 1134.54,882.57 C1131.52,881.16 1127.76,878.98 1125.47,877.31 C1123.56,875.89 1118.86,871.16 1118.37,869.86 C1118.19,869.36 1117.91,868.19 1117.53,866.37" fill="none" stroke="rgb(0, 0, 0)" stroke-width="6.00" stroke-opacity="1.00" stroke-linejoin="round"/>
<path d="M1080.87,849.58 C1080.14,850.73 1079.71,851.54 1079.75,852.16 C1079.92,854.41 1082.88,856.74 1087.88,860.16 C1090.23,861.75 1094.07,864.63 1095.64,865.39 C1098.43,866.71 1107.81,867.54 1108.70,867.71 C1109.28,867.83 1110.36,868.13 1111.92,868.60" fill="none" stroke="rgb(0, 0, 0)" stroke-width="6.00" stroke-opacity="1.00" stroke-linejoin="round"/>
<path d="M1082.79,854.36 C1079.05,852.69 1072.78,849.27 1072.75,849.25 C1069.90,847.70 1068.36,847.26 1067.71,847.31 C1067.56,847.33 1067.35,847.38 1067.07,847.49" fill="none" stroke="rgb(0, 0, 0)" stroke-width="6.00" stroke-opacity="1.00" stroke-linejoin="round"/>
<path d="M1067.16,846.54 C1068.30,846.76 1076.00,848.30 1079.08,848.08 C1079.49,848.04 1088.88,846.55 1090.79,846.48 C1091.21,846.46 1091.58,846.52 1091.90,846.63" fill="none" stroke="rgb(0, 0, 0)" stroke-width="6.00" stroke-opacity="1.00" stroke-linejoin="round"/>
<path d="M1122.27,873.84 C1120.41,873.28 1117.41,870.87 1114.42,867.36 C1112.15,864.66 1107.20,858.27 1107.01,857.87 C1106.87,857.58 1106.70,857.02 1106.50,856.19" fill="none" stroke="rgb(0, 0, 0)" stroke-width="6.00" stroke-opacity="1.00" stroke-linejoin="round"/>
<path d="M1112.09,867.73 C1112.09,867.73 1113.79,868.97 1113.79,868.97" fill="none" stroke="rgb(0, 0, 0)" stroke-width="6.00" stroke-opacity="1.00" stroke-linejoin="round"/>
<path d="M972.86,1020.28 C972.86,1020.28 972.67,1020.51 972.67,1020.51" fill="none" stroke="rgb(0, 0, 0)" stroke-width="6.00" stroke-opacity="1.00" stroke-linejoin="round"/>
<path d="M983.82,1028.06 C983.82,1028.06 979.00,1021.39 979.00,1021.39 C979.00,1021.39 977.91,1019.93 977.91,1019.93" fill="none" stroke="rgb(0, 0, 0)" stroke-width="6.00" stroke-opacity="1.00" stroke-linejoin="round"/>
<path d="M1100.92,867.93 C1100.14,868.82 1095.68,873.58 1093.41,875.97 C1088.55,880.83 1079.86,889.65 1073.80,897.33 C1062.20,912.78 1054.27,926.35 1052.96,928.60" fill="none" stroke="rgb(0, 0, 0)" stroke-width="6.00" stroke-opacity="1.00" stroke-linejoin="round"/>
<path d="M1052.14,930.06 C1052.14,930.06 1051.20,931.72 1051.20,931.72" fill="none" stroke="rgb(0, 0, 0)" stroke-width="6.00" stroke-opacity="1.00" stroke-linejoin="round"/>
<path d="M1046.09,942.32 C1046.09,942.32 1044.84,945.59 1044.84,945.59" fill="none" stroke="rgb(0, 0, 0)" stroke-width="6.00" stroke-opacity="1.00" stroke-linejoin="round"/>
<path d="M1044.11,947.56 C1040.30,958.29 1036.87,966.72 1033.52,972.08 C1031.62,975.10 1029.68,977.74 1028.71,978.89 C1028.38,979.27 1027.73,979.99 1026.78,981.04" fill="none" stroke="rgb(0, 0, 0)" stroke-width="6.00" stroke-opacity="1.00" stroke-linejoin="round"/>
<path d="M1043.31,949.54 C1042.32,951.40 1034.05,970.50 1032.44,973.64 C1030.18,978.01 1021.45,990.31 1017.02,996.42 C1012.25,1002.78 1000.28,1017.82 997.91,1020.52 C994.24,1024.67 986.56,1031.41 986.28,1031.28 C986.28,1031.28 983.79,1028.05 983.79,1028.05" fill="none" stroke="rgb(0, 0, 0)" stroke-width="6.00" stroke-opacity="1.00" stroke-linejoin="round"/>
<path d="M1076.25,854.92 C1073.15,863.01 1070.47,869.14 1065.46,879.58 C1060.97,889.46 1058.19,894.86 1057.43,896.32" fill="none" stroke="rgb(0, 0, 0)" stroke-width="6.00" stroke-opacity="1.00" stroke-linejoin="round"/>
<path d="M1041.99,921.59 C1041.99,921.59 1040.33,924.02 1040.33,924.02" fill="none" stroke="rgb(0, 0, 0)" stroke-width="6.00" stroke-opacity="1.00" stroke-linejoin="round"/>
<path d="M1039.21,925.68 C1028.77,941.39 1023.58,950.52 1022.57,952.74 C1022.03,953.93 1021.02,956.31 1020.64,957.23" fill="none" stroke="rgb(0, 0, 0)" stroke-width="6.00" stroke-opacity="1.00" stroke-linejoin="round"/>
<path d="M1026.10,948.18 C1020.10,957.41 1019.15,959.09 1014.07,969.73 C1009.96,978.17 1004.04,986.78 1001.24,990.18 C989.34,1004.54 982.14,1011.60 981.59,1012.22 C981.25,1012.61 980.39,1013.60 979.03,1015.21" fill="none" stroke="rgb(0, 0, 0)" stroke-width="6.00" stroke-opacity="1.00" stroke-linejoin="round"/>
<path d="M983.95,1011.53 C983.16,1013.54 979.50,1016.87 977.52,1018.60 C977.30,1018.82 977.04,1019.12 976.75,1019.52 C976.75,1019.52 977.43,1019.47 977.43,1019.47" fill="none" stroke="rgb(0, 0, 0)" stroke-width="6.00" stroke-opacity="1.00" stroke-linejoin="round"/>
<path d="M1059.24,892.84 C1058.56,893.46 1054.22,901.55 1053.25,903.38 C1050.52,908.39 1039.37,925.71 1038.47,927.48 C1038.27,927.86 1038.12,928.27 1038.02,928.70" fill="none" stroke="rgb(0, 0, 0)" stroke-width="6.00" stroke-opacity="1.00" stroke-linejoin="round"/>
<path d="M1053.33,928.83 C1050.84,932.83 1048.42,937.16 1047.25,939.99 C1044.77,946.06 1044.29,950.18 1044.34,950.50 C1044.36,950.58 1044.38,950.71 1044.39,950.90" fill="none" stroke="rgb(0, 0, 0)" stroke-width="6.00" stroke-opacity="1.00" stroke-linejoin="round"/>
<path d="M1153.08,854.16 C1152.40,855.28 1151.22,856.31 1150.23,856.44 C1149.67,856.50 1145.45,852.75 1143.21,850.71 C1142.48,850.10 1135.39,849.10 1134.03,848.53 C1133.60,848.35 1133.20,848.01 1132.81,847.50" fill="none" stroke="rgb(0, 0, 0)" stroke-width="6.00" stroke-opacity="1.00" stroke-linejoin="round"/>
<path d="M1065.82,821.30 C1067.45,823.86 1068.72,825.70 1069.38,826.27 C1070.07,826.87 1071.16,827.34 1071.52,827.25 C1071.73,827.19 1071.94,827.11 1072.16,827.04" fill="none" stroke="rgb(0, 0, 0)" stroke-width="6.00" stroke-opacity="1.00" stroke-linejoin="round"/>
<path d="M1064.22,786.59 C1062.79,789.21 1060.77,793.87 1059.94,796.38 C1059.60,797.44 1059.49,798.54 1059.48,799.43" fill="none" stroke="rgb(0, 0, 0)" stroke-width="6.00" stroke-opacity="1.00" stroke-linejoin="round"/>
<path d="M1111.43,768.46 C1110.50,770.01 1110.16,773.38 1111.12,774.68 C1111.38,775.02 1114.11,778.07 1114.18,778.23 C1113.55,779.35 1111.13,780.97 1110.37,781.49 C1110.07,781.69 1109.77,781.92 1109.46,782.19" fill="none" stroke="rgb(0, 0, 0)" stroke-width="6.00" stroke-opacity="1.00" stroke-linejoin="round"/>
<path d="M1110.15,781.23 C1108.95,781.26 1108.00,781.56 1107.30,782.34 C1105.59,784.33 1105.16,788.06 1105.41,789.16 C1105.47,789.42 1105.61,789.75 1105.84,790.15" fill="none" stroke="rgb(0, 0, 0)" stroke-width="6.00" stroke-opacity="1.00" stroke-linejoin="round"/>
<path d="M1121.92,772.66 C1121.92,772.66 1124.51,775.23 1124.51,775.23 C1125.04,775.36 1127.23,774.51 1127.63,774.37 C1127.80,774.31 1128.06,774.21 1128.40,774.07" fill="none" stroke="rgb(0, 0, 0)" stroke-width="6.00" stroke-opacity="1.00" stroke-linejoin="round"/>
<path d="M1165.55,788.96 C1167.27,788.32 1169.42,789.31 1169.90,790.80 C1170.28,792.11 1168.68,798.26 1167.76,800.25 C1167.31,801.20 1165.18,805.19 1165.13,805.28 C1164.99,805.57 1164.83,805.97 1164.64,806.48" fill="none" stroke="rgb(0, 0, 0)" stroke-width="6.00" stroke-opacity="1.00" stroke-linejoin="round"/>
</g>
</svg>
