<?xml version="1.0" encoding="UTF-8" standalone="no"?>
<!DOCTYPE svg PUBLIC "-//W3C//DTD SVG 1.1//EN" "http://www.w3.org/Graphics/SVG/1.1/DTD/svg11.dtd">
<svg width="58.80" height="44.88" viewBox="0.00 0.00 245.00 187.00" xmlns="http://www.w3.org/2000/svg" xmlns:xlink="http://www.w3.org/1999/xlink">
<g stroke-linecap="round" transform="translate(-716.00, -771.00)" id="Layer_55">
<path d="M725.78,949.84 C725.78,949.84 724.75,952.72 724.75,952.72 C725.02,951.65 731.19,935.85 734.70,929.96 C736.43,927.09 741.07,920.45 743.02,918.05 C748.45,911.53 752.11,909.89 753.69,909.38 C753.90,909.32 754.09,909.24 754.28,909.16" fill="none" stroke="rgb(142, 163, 119)" stroke-width="6.00" stroke-opacity="1.00" stroke-linejoin="round"/>
<path d="M742.87,922.30 C743.95,919.49 749.48,913.17 751.36,911.19 C756.13,906.22 768.83,896.21 773.81,892.86 C779.85,888.81 791.19,883.00 794.20,881.48 C794.71,881.22 795.23,880.95 795.74,880.69 C795.87,880.62 795.97,880.56 796.05,880.52" fill="none" stroke="rgb(142, 163, 119)" stroke-width="6.00" stroke-opacity="1.00" stroke-linejoin="round"/>
<path d="M785.16,887.53 C786.94,886.12 790.37,883.41 792.75,881.78 C799.39,877.35 807.20,873.50 817.39,869.41 C818.53,868.96 821.31,867.86 821.33,867.85 C821.47,867.79 821.53,867.74 821.51,867.71" fill="none" stroke="rgb(142, 163, 119)" stroke-width="6.00" stroke-opacity="1.00" stroke-linejoin="round"/>
<path d="M807.67,873.40 C807.67,873.40 835.19,860.43 835.19,860.43 C835.19,860.43 835.21,861.14 835.21,861.14" fill="none" stroke="rgb(142, 163, 119)" stroke-width="6.00" stroke-opacity="1.00" stroke-linejoin="round"/>
<path d="M838.00,856.81 C835.56,857.19 829.10,858.61 828.33,858.84 C826.63,859.35 821.32,861.72 818.94,863.27 C816.69,864.77 809.60,870.35 806.82,872.28 C806.82,872.28 807.65,871.93 807.65,871.93" fill="none" stroke="rgb(142, 163, 119)" stroke-width="6.00" stroke-opacity="1.00" stroke-linejoin="round"/>
<path d="M835.02,857.63 C830.78,860.58 827.22,862.87 823.48,865.01 C815.90,869.51 802.20,877.69 801.67,878.06 C801.67,878.06 828.81,862.18 828.81,862.18 C828.81,862.18 799.94,881.84 799.94,881.84 C799.94,881.84 819.55,869.82 819.55,869.82 C819.55,869.82 793.42,884.22 793.42,884.22 C793.42,884.22 809.53,872.88 809.53,872.88 C809.53,872.88 784.82,889.53 784.82,889.53 C784.82,889.53 802.08,875.24 802.08,875.24 C798.57,880.62 782.17,892.98 781.31,893.55 C794.81,877.39 798.77,874.55 799.10,874.55 C799.20,875.24 796.09,879.44 793.60,882.08 C787.85,888.13 782.58,890.98 781.09,891.61 C782.14,889.30 785.79,885.03 788.34,882.57 C790.96,880.07 794.62,878.72 794.78,878.93 C794.93,879.58 793.02,881.93 789.22,885.20 C788.26,886.03 778.87,893.51 777.26,894.89 C777.25,894.90 788.00,884.81 791.31,883.26 C791.64,883.10 792.32,882.85 793.34,882.49 C793.34,882.49 779.45,895.31 779.45,895.31 C778.75,894.25 789.89,887.26 793.74,885.81 C793.74,885.81 775.19,899.58 775.19,899.58 C775.19,899.58 786.53,889.12 786.53,889.12 C782.52,894.91 764.53,906.99 764.57,906.89 C772.32,895.95 781.60,889.37 782.93,888.60 C782.93,888.60 761.68,909.87 761.68,909.87 C761.68,909.87 776.41,892.43 776.41,892.43 C767.01,904.61 755.34,915.83 754.30,916.77 C754.30,916.77 770.08,897.85 770.08,897.85 C770.08,897.85 747.28,923.86 747.28,923.86 C747.28,923.86 762.32,903.46 762.32,903.46 C762.32,903.46 743.87,924.79 743.87,924.79 C755.13,908.86 758.87,905.59 759.81,904.86 C758.10,907.38 744.35,921.19 743.34,922.38 C740.18,926.14 735.21,935.14 734.48,937.38 C734.48,937.38 745.33,919.94 745.33,919.94 C745.33,919.94 730.44,944.91 730.44,944.91 C730.44,944.91 740.61,925.31 740.61,925.31 C740.61,925.31 728.04,948.91 728.04,948.91 C728.04,948.91 732.52,937.79 732.52,937.79 C734.37,938.00 728.41,946.50 726.02,949.24 C726.02,949.24 731.29,935.91 731.29,935.91 C732.00,937.56 726.66,944.28 725.64,945.46 C730.50,937.36 736.46,929.04 741.85,924.01 C742.41,923.48 745.05,921.14 745.59,920.63 C745.91,920.34 746.58,919.69 747.62,918.69" fill="none" stroke="rgb(142, 163, 119)" stroke-width="6.00" stroke-opacity="1.00" stroke-linejoin="round"/>
<path d="M824.11,852.87 C824.11,852.87 822.29,852.35 822.29,852.35 C825.37,850.96 836.85,850.89 843.06,849.18 C844.52,848.77 845.43,848.65 846.73,848.63 C844.59,849.63 839.94,849.98 836.98,850.39 C832.47,851.04 825.75,852.30 822.56,852.54 C822.56,852.54 826.29,851.99 826.29,851.99 C824.88,852.28 822.11,852.71 822.09,852.73 C822.04,852.82 821.82,853.04 821.43,853.42 C829.43,851.85 843.62,851.18 849.14,849.92 C850.24,849.67 856.01,848.29 857.30,848.22 C855.43,849.37 854.03,849.92 852.15,850.02 C845.60,850.38 838.90,849.91 837.92,849.78 C837.92,849.78 855.25,845.48 855.25,845.48 C855.25,845.48 841.24,848.68 841.24,848.68 C841.24,848.68 857.52,843.51 857.52,843.51 C857.52,843.51 849.29,845.34 849.29,845.34 C854.68,840.29 858.76,839.86 858.95,839.95 C858.95,840.61 857.96,841.62 856.33,842.25 C853.16,843.46 850.08,843.38 850.01,843.21 C850.01,843.21 861.10,841.45 861.10,841.45 C861.03,842.78 859.05,843.50 857.86,843.56 C859.82,843.10 866.68,846.28 867.20,846.82 C865.91,847.60 864.50,847.62 863.24,846.52 C862.42,845.82 860.87,843.75 859.66,841.97 C859.66,841.97 869.41,848.38 869.41,848.38 C869.41,848.38 870.02,850.41 870.02,850.41 C870.02,850.41 857.42,851.67 857.42,851.67 C857.42,851.67 868.73,850.02 868.73,850.02 C867.81,851.59 863.75,853.43 860.55,854.33 C853.52,856.27 851.49,855.09 851.23,854.57 C851.29,853.53 853.99,851.16 856.28,849.80 C859.28,848.09 861.77,847.65 864.55,847.45 C864.55,847.45 865.27,848.68 865.27,848.68 C864.54,849.88 860.97,852.29 858.57,853.22 C852.70,855.45 846.87,855.32 846.80,855.12 C846.27,854.54 851.37,851.10 854.63,849.71 C858.33,848.21 863.52,847.15 864.35,847.94 C864.30,849.00 860.50,851.58 857.13,852.95 C847.74,856.72 840.82,857.82 839.59,857.74 C840.12,856.39 844.92,853.64 847.47,852.67 C849.73,851.84 854.41,850.67 856.87,850.87 C856.10,852.53 851.82,854.40 849.41,855.09 C845.64,856.13 837.62,855.98 833.65,855.33 C836.17,853.65 837.66,852.91 839.26,852.69 C842.79,852.24 846.27,852.58 846.48,852.87 C845.86,854.34 842.17,855.51 839.19,855.91 C836.32,856.27 833.46,856.05 831.35,855.77 C833.51,854.26 834.84,853.61 836.28,853.47 C838.98,853.22 839.96,853.35 840.43,853.55 C839.35,854.78 833.19,856.30 830.97,856.05 C830.58,856.00 830.33,855.79 830.23,855.42 C831.56,854.14 835.23,851.99 835.72,851.72 C836.02,851.56 836.53,851.28 837.26,850.90" fill="none" stroke="rgb(142, 163, 119)" stroke-width="6.00" stroke-opacity="1.00" stroke-linejoin="round"/>
<path d="M830.10,848.33 C830.66,848.39 837.81,848.33 841.49,848.87 C843.06,849.12 847.04,849.75 847.93,849.80 C848.41,849.83 848.95,849.80 849.54,849.69 C849.62,849.68 849.78,849.64 849.99,849.59" fill="none" stroke="rgb(142, 163, 119)" stroke-width="6.00" stroke-opacity="1.00" stroke-linejoin="round"/>
<path d="M835.19,859.28 C835.19,859.28 849.34,851.17 849.34,851.17 C849.34,851.17 835.64,860.43 835.64,860.43 C837.95,859.27 845.25,854.41 846.51,853.66 C849.26,852.05 854.37,850.13 856.28,849.53 C857.12,849.27 857.96,849.02 858.80,848.76" fill="none" stroke="rgb(142, 163, 119)" stroke-width="6.00" stroke-opacity="1.00" stroke-linejoin="round"/>
<path d="M859.27,852.21 C861.79,850.75 864.86,849.11 869.71,846.68 C871.51,845.81 873.82,844.68 873.88,844.66" fill="none" stroke="rgb(142, 163, 119)" stroke-width="6.00" stroke-opacity="1.00" stroke-linejoin="round"/>
<path d="M811.54,825.99 C813.33,826.86 814.73,827.09 816.47,826.67 C817.28,826.47 823.47,824.71 824.72,824.45 C828.46,823.71 832.63,823.80 834.69,825.14 C833.98,825.76 830.93,825.91 826.50,825.99 C822.21,826.05 814.80,826.15 813.35,826.45 C813.35,826.45 833.35,825.36 833.35,825.36 C832.99,826.55 832.18,827.36 830.53,827.74 C826.46,828.62 814.69,827.06 814.25,827.19 C814.34,827.39 824.32,829.33 825.63,829.60 C826.05,829.69 826.71,829.81 827.62,829.98" fill="none" stroke="rgb(142, 163, 119)" stroke-width="6.00" stroke-opacity="1.00" stroke-linejoin="round"/>
<path d="M810.16,828.18 C811.45,827.65 830.59,829.63 836.01,829.60 C838.07,829.58 842.15,829.30 842.46,829.33 C842.68,829.34 842.79,829.43 842.81,829.60 C842.81,829.60 842.81,829.76 842.81,829.76" fill="none" stroke="rgb(142, 163, 119)" stroke-width="6.00" stroke-opacity="1.00" stroke-linejoin="round"/>
<path d="M831.93,826.86 C831.93,826.86 832.55,828.45 832.55,828.45 C832.55,828.45 853.83,832.47 853.83,832.47 C853.83,832.47 841.32,829.27 841.32,829.27 C841.20,829.19 846.31,831.28 849.08,831.93 C850.26,832.20 852.81,832.69 853.31,832.86 C855.98,833.80 857.36,835.73 858.06,836.83 C858.06,836.83 842.48,829.08 842.48,829.08 C842.48,829.08 852.64,831.27 852.64,831.27 C850.13,831.47 846.98,830.95 842.81,829.49 C835.35,826.82 832.22,825.75 832.44,825.68 C835.61,825.26 840.93,825.57 844.51,826.37 C848.06,827.19 849.98,828.55 850.20,828.97 C850.00,829.59 848.40,829.76 845.88,829.30 C839.31,828.07 836.89,825.67 836.39,824.73 C836.96,823.87 839.42,823.12 841.57,823.39 C847.30,824.16 851.54,826.89 851.52,827.30 C848.10,828.19 842.34,825.75 838.87,823.71 C841.72,823.67 845.47,823.81 847.86,824.23 C851.49,824.93 855.26,827.05 855.10,828.29 C855.10,828.29 852.53,826.31 852.53,826.31 C853.44,826.28 855.52,830.98 855.28,832.58 C855.24,832.80 855.13,833.11 854.95,833.51 C854.95,833.51 854.78,825.38 854.78,825.38 C854.78,825.38 856.14,830.26 856.14,830.26 C856.14,830.26 854.20,823.88 854.20,823.88 C853.04,824.91 846.57,824.68 843.49,824.58 C837.77,824.40 830.31,824.28 829.92,823.96 C829.92,823.96 840.60,823.85 840.60,823.85 C840.60,823.85 822.98,823.30 822.98,823.30 C824.02,824.30 825.54,825.00 827.11,824.89 C828.25,824.81 833.65,823.29 834.07,823.22 C836.09,822.86 837.91,823.22 838.39,823.80 C838.39,823.80 823.85,823.47 823.85,823.47 C824.16,823.51 830.62,823.78 833.91,824.40 C838.98,825.41 839.94,825.66 842.22,826.34 C842.47,826.42 842.64,826.46 842.73,826.48" fill="none" stroke="rgb(142, 163, 119)" stroke-width="6.00" stroke-opacity="1.00" stroke-linejoin="round"/>
<path d="M872.95,851.88 C872.95,851.88 877.28,868.20 877.28,868.20 C876.84,866.88 875.01,862.54 873.78,859.05 C872.66,855.87 872.42,851.52 872.45,850.90 C874.70,857.15 875.33,866.22 874.66,868.80 C873.62,866.59 871.23,854.25 872.34,853.14 C872.34,853.14 873.64,865.66 873.64,865.66 C873.64,865.66 874.26,850.19 874.26,850.19 C874.26,850.19 883.94,852.98 883.94,852.98 C883.94,852.98 877.31,852.27 877.31,852.27 C877.31,852.27 885.24,854.68 885.24,854.68 C884.78,854.19 884.03,854.05 883.11,854.46 C882.28,854.87 880.86,856.61 880.38,858.02 C879.21,861.51 879.63,865.81 879.91,866.29 C879.91,866.29 883.47,852.08 883.47,852.08 C884.60,853.70 884.75,857.77 884.28,860.58 C883.03,867.85 881.28,871.14 880.38,872.61 C880.05,869.24 881.42,864.27 882.46,861.69 C883.72,858.66 885.64,856.34 885.79,856.59 C885.79,856.59 879.35,874.20 879.35,874.20 C880.05,870.03 880.81,861.70 881.38,860.26 C881.57,859.80 882.02,859.03 882.74,857.94 C883.62,858.77 883.91,859.72 883.52,861.17 C882.77,863.89 880.19,868.93 878.82,870.28 C878.12,870.95 877.15,871.25 876.36,871.21 C875.18,870.26 874.58,866.99 874.48,863.78 C874.43,859.63 875.37,854.55 877.32,852.87 C878.66,853.69 879.50,857.44 879.62,859.88 C879.93,867.27 878.87,874.13 877.65,875.87 C877.15,875.42 876.97,872.90 876.96,867.78 C876.96,864.21 878.22,858.39 879.45,856.18 C880.37,854.64 881.62,854.28 882.31,854.38 C883.05,855.35 882.85,860.43 882.28,863.38 C880.89,870.42 876.79,880.85 876.23,881.12 C876.02,879.17 877.22,873.95 878.10,871.62 C879.56,867.87 882.53,863.50 883.22,863.55 C883.09,870.95 872.89,889.56 872.02,890.54 C872.02,890.54 878.64,877.51 878.64,877.51 C878.64,877.51 866.15,896.62 866.15,896.62 C866.67,892.38 870.93,885.84 873.65,882.90 C872.14,886.06 866.25,893.11 865.49,894.10 C864.41,895.50 863.21,897.25 862.70,898.10 C862.70,898.10 867.68,891.88 867.68,891.88 C867.68,891.88 861.18,899.80 861.18,899.80 C861.18,899.80 878.00,870.67 878.00,870.67 C878.00,870.67 871.29,885.70 871.29,885.70 C870.85,883.08 871.35,877.77 872.33,873.59 C873.37,869.33 875.19,867.04 876.14,866.34 C876.79,867.10 877.19,868.14 877.88,871.02 C877.99,871.51 878.13,872.05 878.30,872.64" fill="none" stroke="rgb(142, 163, 119)" stroke-width="6.00" stroke-opacity="1.00" stroke-linejoin="round"/>
</g>
<g stroke-linecap="round" transform="translate(-716.00, -771.00)" id="Layer_56">
<path d="M887.20,823.30 C885.82,822.69 884.94,822.14 884.64,821.58 C884.01,820.26 885.43,816.86 887.70,814.90 C888.84,813.94 891.26,812.55 892.46,812.19 C893.74,811.84 896.00,812.04 896.81,812.63 C897.68,813.31 898.61,815.50 898.70,816.95 C898.75,818.40 898.12,820.70 897.34,821.96 C895.83,824.27 891.78,827.18 889.59,827.41 C887.65,827.55 885.47,825.71 885.43,824.04 C885.46,822.11 888.60,817.89 891.05,816.40 C892.28,815.69 894.96,814.88 896.04,814.93 C897.20,815.02 899.02,816.18 899.71,817.23 C900.32,818.21 900.94,820.59 900.93,821.80 C900.87,823.02 900.04,824.75 899.09,825.60 C897.24,827.16 890.55,828.93 888.84,828.64 C887.77,828.41 885.90,827.28 885.38,826.40 C884.28,824.43 884.88,819.40 885.45,817.84 C888.13,810.86 892.07,805.54 892.63,805.18 C893.17,806.24 893.83,808.35 893.90,809.72 C894.00,812.64 891.22,813.33 890.00,813.04 C889.17,811.64 888.77,809.79 889.30,808.16 C889.93,806.21 894.05,800.21 894.61,799.62 C895.72,798.47 895.98,797.86 896.05,796.39 C894.95,796.16 891.39,799.30 888.73,800.42 C887.93,800.74 884.54,799.81 884.19,799.73 C884.19,799.73 884.30,798.06 884.30,798.06 C884.26,798.13 875.25,810.27 873.61,811.15 C872.41,811.76 870.89,812.18 870.63,812.05 C868.99,810.05 873.14,806.15 873.32,806.08 C873.32,806.08 869.40,811.31 869.40,811.31 C869.40,811.31 872.34,806.82 872.34,806.82 C871.23,808.93 867.99,813.61 867.32,815.42 C866.92,816.60 867.45,819.13 869.09,820.87 C870.23,822.09 871.41,827.59 872.25,828.92 C873.36,830.61 875.47,832.53 876.58,832.97 C877.44,833.30 880.55,834.00 881.26,834.09 C881.89,834.17 885.47,836.39 886.08,836.64 C886.58,836.84 889.69,837.02 890.33,837.21 C891.37,837.52 894.56,838.69 894.96,839.13 C895.36,839.57 896.75,843.20 897.02,843.51 C897.07,843.57 899.33,844.97 899.52,844.88" fill="none" stroke="rgb(226, 93, 105)" stroke-width="26.00" stroke-opacity="1.00" stroke-linejoin="round"/>
<path d="M904.16,842.52 C904.16,842.52 904.66,849.09 904.66,849.09" fill="none" stroke="rgb(226, 93, 105)" stroke-width="26.00" stroke-opacity="1.00" stroke-linejoin="round"/>
<path d="M910.35,847.72 C909.71,845.49 910.96,839.00 910.98,835.68 C910.99,833.96 911.25,827.79 911.73,826.42 C911.86,826.05 912.10,825.65 912.44,825.25" fill="none" stroke="rgb(226, 93, 105)" stroke-width="26.00" stroke-opacity="1.00" stroke-linejoin="round"/>
<path d="M910.90,829.11 C910.32,826.70 910.90,822.07 911.07,819.62 C911.16,818.50 911.55,813.51 911.85,813.28 C911.85,813.28 915.99,817.58 915.99,817.58 C915.89,818.21 911.21,814.72 909.63,812.29 C908.89,811.11 908.60,810.13 908.38,808.44 C908.38,808.44 911.26,806.88 911.26,806.88 C911.26,806.88 906.87,803.73 906.87,803.73 C906.87,803.73 910.93,805.84 910.93,805.84" fill="none" stroke="rgb(226, 93, 105)" stroke-width="26.00" stroke-opacity="1.00" stroke-linejoin="round"/>
<path d="M924.43,813.56 C924.30,815.13 925.17,816.83 927.19,818.24 C928.29,819.00 931.00,820.34 932.64,821.09" fill="none" stroke="rgb(226, 93, 105)" stroke-width="26.00" stroke-opacity="1.00" stroke-linejoin="round"/>
<path d="M930.51,821.39 C931.37,821.70 933.73,822.57 934.31,822.73 C934.50,822.78 937.27,823.40 938.22,823.63" fill="none" stroke="rgb(226, 93, 105)" stroke-width="26.00" stroke-opacity="1.00" stroke-linejoin="round"/>
<path d="M922.14,806.33" fill="none" stroke="rgb(226, 93, 105)" stroke-width="26.00" stroke-opacity="1.00" stroke-linejoin="round"/>
<path d="M919.49,803.70 C919.49,803.70 916.71,802.61 916.71,802.61" fill="none" stroke="rgb(226, 93, 105)" stroke-width="26.00" stroke-opacity="1.00" stroke-linejoin="round"/>
<path d="M899.57,789.96" fill="none" stroke="rgb(226, 93, 105)" stroke-width="26.00" stroke-opacity="1.00" stroke-linejoin="round"/>
<path d="M886.59,791.60 C886.59,791.60 884.57,792.61 884.57,792.61" fill="none" stroke="rgb(226, 93, 105)" stroke-width="26.00" stroke-opacity="1.00" stroke-linejoin="round"/>
<path d="M882.72,794.83 C879.90,797.27 873.75,804.70 873.50,805.07 C873.32,805.33 873.08,805.77 872.78,806.38" fill="none" stroke="rgb(226, 93, 105)" stroke-width="26.00" stroke-opacity="1.00" stroke-linejoin="round"/>
<path d="M878.30,800.14 C875.69,800.89 872.92,803.65 871.20,805.89 C870.24,807.14 868.87,809.15 868.07,810.47 C867.31,811.73 866.99,812.71 866.80,814.02" fill="none" stroke="rgb(226, 93, 105)" stroke-width="26.00" stroke-opacity="1.00" stroke-linejoin="round"/>
<path d="M873.19,805.45 C871.43,806.16 870.09,806.99 869.38,808.03 C868.66,809.07 868.31,810.61 868.22,812.30 C868.22,812.30 869.13,813.01 869.13,813.01 C870.06,815.37 872.65,818.71 873.51,820.22 C875.41,823.53 879.14,827.33 879.41,828.20 C880.01,830.27 878.94,832.01 878.90,832.47 C878.81,833.68 879.63,835.25 881.23,836.94 C882.12,837.84 887.20,838.58 889.41,837.70 C889.69,837.59 889.86,837.40 889.91,837.16" fill="none" stroke="rgb(226, 93, 105)" stroke-width="26.00" stroke-opacity="1.00" stroke-linejoin="round"/>
<path d="M929.05,809.67 C929.85,812.42 930.88,814.84 932.00,815.88 C932.97,816.78 944.37,823.89 944.93,824.40" fill="none" stroke="rgb(226, 93, 105)" stroke-width="16.00" stroke-opacity="1.00" stroke-linejoin="round"/>
<path d="M942.86,825.66 C942.86,825.66 927.80,828.12 927.80,828.12 C927.80,828.12 935.26,826.40 935.26,826.40 C935.26,826.40 922.64,830.07 922.64,830.07 C922.64,830.07 933.37,826.15 933.37,826.15 C930.56,828.36 927.47,829.67 923.08,831.07 C920.33,831.94 918.93,832.26 918.05,832.28 C918.05,832.28 920.10,830.53 920.10,830.53 C920.01,831.21 917.74,835.37 917.55,837.95 C917.46,840.21 917.01,845.82 917.06,846.41 C917.06,846.41 916.51,847.72 916.51,847.72 C916.51,847.72 916.78,847.48 916.78,847.48" fill="none" stroke="rgb(226, 93, 105)" stroke-width="16.00" stroke-opacity="1.00" stroke-linejoin="round"/>
<path d="M916.09,844.11 C916.41,845.58 916.42,847.31 916.06,848.82 C916.02,848.96 910.34,851.30 908.29,851.75 C905.26,852.43 901.13,855.20 900.83,855.17 C900.83,855.17 896.67,855.39 896.67,855.39 C896.67,855.39 897.87,854.79 897.87,854.79" fill="none" stroke="rgb(226, 93, 105)" stroke-width="16.00" stroke-opacity="1.00" stroke-linejoin="round"/>
<path d="M928.00,800.09" fill="none" stroke="rgb(226, 93, 105)" stroke-width="16.00" stroke-opacity="1.00" stroke-linejoin="round"/>
<path d="M930.56,798.01 C930.56,798.01 929.65,799.48 929.65,799.48" fill="none" stroke="rgb(226, 93, 105)" stroke-width="16.00" stroke-opacity="1.00" stroke-linejoin="round"/>
<path d="M931.20,806.71 C931.83,808.70 932.29,809.91 932.91,811.17 C933.53,812.45 934.25,813.98 934.64,814.87 C934.73,815.08 934.81,815.28 934.87,815.47" fill="none" stroke="rgb(226, 93, 105)" stroke-width="16.00" stroke-opacity="1.00" stroke-linejoin="round"/>
<path d="M905.18,783.55 C904.18,785.74 902.80,790.05 902.29,792.84 C901.80,795.65 901.63,801.55 901.69,804.66 C901.69,805.02 901.72,805.73 901.75,806.77" fill="none" stroke="rgb(226, 93, 105)" stroke-width="16.00" stroke-opacity="1.00" stroke-linejoin="round"/>
<path d="M889.38,780.70 C888.48,781.92 887.13,783.75 885.62,785.90 C881.58,791.66 880.93,792.66 880.27,793.76" fill="none" stroke="rgb(226, 93, 105)" stroke-width="6.00" stroke-opacity="1.00" stroke-linejoin="round"/>
<path d="M889.41,779.28 C884.79,783.49 880.15,788.82 878.97,790.48 C878.28,791.46 877.59,792.75 877.32,793.46 C877.30,793.54 877.27,793.62 877.25,793.68" fill="none" stroke="rgb(226, 93, 105)" stroke-width="6.00" stroke-opacity="1.00" stroke-linejoin="round"/>
<path d="M887.53,782.46 C882.75,785.41 873.90,793.27 866.98,801.98 C865.17,804.24 862.80,807.20 862.41,807.64 C862.32,807.74 862.21,807.85 862.09,807.97" fill="none" stroke="rgb(226, 93, 105)" stroke-width="6.00" stroke-opacity="1.00" stroke-linejoin="round"/>
<path d="M865.13,800.25 C863.52,800.01 861.85,800.44 860.53,801.59 C859.58,802.44 857.03,807.33 856.34,809.70 C855.70,811.99 855.37,815.74 855.41,816.51 C855.42,816.75 855.48,816.89 855.60,816.95" fill="none" stroke="rgb(226, 93, 105)" stroke-width="6.00" stroke-opacity="1.00" stroke-linejoin="round"/>
<path d="M861.18,806.06 C859.15,808.62 857.68,812.93 857.50,814.98 C857.36,817.02 857.50,820.21 857.93,821.09 C858.60,822.39 859.85,823.82 860.46,824.12 C860.51,824.15 860.61,824.18 860.76,824.23" fill="none" stroke="rgb(226, 93, 105)" stroke-width="6.00" stroke-opacity="1.00" stroke-linejoin="round"/>
<path d="M862.95,830.53 C862.34,831.83 862.46,833.54 863.57,835.60 C864.53,837.37 865.97,839.02 867.10,839.89 C867.10,839.89 868.15,839.73 868.15,839.73 C868.39,839.38 868.54,839.16 868.59,839.07 C868.65,838.98 868.69,838.89 868.72,838.80" fill="none" stroke="rgb(226, 93, 105)" stroke-width="6.00" stroke-opacity="1.00" stroke-linejoin="round"/>
<path d="M863.66,831.84 C863.55,834.58 864.47,837.47 866.04,839.56 C867.07,840.88 869.19,842.40 871.07,843.18 C871.77,843.46 873.25,843.18 873.55,843.07 C873.66,843.02 873.76,842.95 873.86,842.85" fill="none" stroke="rgb(226, 93, 105)" stroke-width="6.00" stroke-opacity="1.00" stroke-linejoin="round"/>
<path d="M890.90,859.33 C890.90,859.33 894.82,863.11 894.82,863.11 C895.06,862.16 895.59,861.55 896.76,861.33 C897.77,861.14 902.07,860.52 903.40,860.10 C904.65,859.70 907.32,858.24 908.18,857.61 C908.41,857.43 908.81,857.09 909.38,856.59" fill="none" stroke="rgb(226, 93, 105)" stroke-width="6.00" stroke-opacity="1.00" stroke-linejoin="round"/>
<path d="M900.32,860.86 C902.14,860.86 905.06,860.70 906.53,860.40 C908.00,860.10 912.23,858.63 913.65,858.02 C914.07,857.83 914.79,857.48 915.81,856.98" fill="none" stroke="rgb(226, 93, 105)" stroke-width="6.00" stroke-opacity="1.00" stroke-linejoin="round"/>
<path d="M914.32,856.81 C916.47,855.66 919.94,852.76 921.70,851.03 C922.34,850.39 922.78,849.94 923.02,849.67 C923.17,849.49 923.38,849.23 923.63,848.87" fill="none" stroke="rgb(226, 93, 105)" stroke-width="6.00" stroke-opacity="1.00" stroke-linejoin="round"/>
<path d="M921.17,854.95 C921.29,853.52 922.94,847.73 923.00,845.01 C923.11,836.98 923.21,836.76 923.58,836.06" fill="none" stroke="rgb(226, 93, 105)" stroke-width="6.00" stroke-opacity="1.00" stroke-linejoin="round"/>
<path d="M927.91,835.02 C931.89,833.88 935.63,832.92 940.04,831.90 C942.79,831.25 946.21,829.98 946.93,829.57 C947.20,829.42 947.80,829.04 948.71,828.45" fill="none" stroke="rgb(226, 93, 105)" stroke-width="6.00" stroke-opacity="1.00" stroke-linejoin="round"/>
<path d="M926.06,838.03 C926.81,838.02 930.16,836.91 935.49,834.82 C942.04,832.20 947.55,828.89 948.45,828.34 C950.13,827.34 952.18,826.10 952.08,826.15" fill="none" stroke="rgb(226, 93, 105)" stroke-width="6.00" stroke-opacity="1.00" stroke-linejoin="round"/>
<path d="M949.18,830.53 C949.18,830.53 953.82,826.75 953.82,826.75 C953.82,826.75 950.70,824.51 950.70,824.51 C951.26,823.82 954.65,825.31 955.11,826.78 C955.15,826.94 955.13,827.19 955.05,827.52 C954.39,827.75 953.28,827.51 952.54,826.73 C950.86,824.94 950.43,822.60 950.65,822.26 C952.31,821.81 953.72,823.34 954.40,824.64 C953.66,824.12 952.92,823.60 952.18,823.08 C952.09,823.02 951.81,822.82 951.92,822.86" fill="none" stroke="rgb(226, 93, 105)" stroke-width="6.00" stroke-opacity="1.00" stroke-linejoin="round"/>
<path d="M955.15,826.21 C953.44,826.28 949.90,824.23 947.78,823.13 C942.80,820.50 939.69,818.30 938.11,815.63 C937.62,814.77 936.57,813.19 935.98,812.35 C935.98,812.35 943.93,818.05 943.93,818.05 C937.39,811.81 936.24,807.92 936.25,807.04 C937.30,808.06 937.88,808.98 938.63,810.93 C938.81,811.39 939.07,812.03 939.40,812.84" fill="none" stroke="rgb(226, 93, 105)" stroke-width="6.00" stroke-opacity="1.00" stroke-linejoin="round"/>
<path d="M939.21,810.98 C939.08,809.99 938.76,809.14 937.93,807.81 C937.01,806.35 936.36,805.58 935.56,804.96 C935.67,805.23 935.74,805.40 935.80,805.48 C935.85,805.56 935.96,805.66 936.12,805.78" fill="none" stroke="rgb(226, 93, 105)" stroke-width="6.00" stroke-opacity="1.00" stroke-linejoin="round"/>
<path d="M936.86,796.20 C936.86,796.20 937.33,797.68 937.33,797.68 C937.33,797.68 932.73,797.46 932.73,797.46 C932.73,797.46 937.77,796.47 937.77,796.47 C935.99,797.34 931.49,796.88 928.69,796.53 C926.18,796.50 923.38,796.46 923.16,796.31 C923.16,796.31 928.35,795.82 928.35,795.82 C928.35,795.82 919.02,795.27 919.02,795.27 C919.02,795.27 926.23,796.04 926.23,796.04 C926.23,796.04 913.80,794.99 913.80,794.99 C913.80,794.99 919.68,794.80 919.68,794.80 C919.68,794.80 907.65,792.15 907.65,792.15 C909.17,792.07 913.09,794.87 914.50,794.26 C914.85,793.63 915.06,793.20 915.14,792.97 C915.21,792.74 915.27,792.39 915.29,791.93" fill="none" stroke="rgb(226, 93, 105)" stroke-width="6.00" stroke-opacity="1.00" stroke-linejoin="round"/>
<path d="M907.83,776.05 C906.95,777.78 906.52,779.00 906.26,780.59 C906.00,782.18 905.56,783.30 904.66,784.81 C904.66,784.81 905.18,783.39 905.18,783.39" fill="none" stroke="rgb(226, 93, 105)" stroke-width="6.00" stroke-opacity="1.00" stroke-linejoin="round"/>
<path d="M908.22,779.99 C907.42,781.74 906.93,783.71 906.85,786.15 C906.71,790.46 907.05,795.33 908.07,795.82 C908.94,795.19 910.58,793.87 910.80,793.76 C912.47,792.97 915.64,795.12 917.65,797.81 C917.87,798.11 918.15,798.48 918.49,798.94" fill="none" stroke="rgb(226, 93, 105)" stroke-width="6.00" stroke-opacity="1.00" stroke-linejoin="round"/>
</g>
<g stroke-linecap="round" transform="translate(-716.00, -771.00)" id="Layer_53">
<path d="M856.83,833.96 C856.83,833.96 863.19,829.05 863.19,829.05" fill="none" stroke="rgb(0, 0, 0)" stroke-width="6.00" stroke-opacity="1.00" stroke-linejoin="round"/>
<path d="M865.48,845.91 C867.16,845.38 871.25,844.34 872.67,843.98 C873.67,843.74 874.66,843.50 875.66,843.26" fill="none" stroke="rgb(0, 0, 0)" stroke-width="6.00" stroke-opacity="1.00" stroke-linejoin="round"/>
<path d="M869.10,809.24 C869.10,809.24 874.50,804.94 874.50,804.94" fill="none" stroke="rgb(0, 0, 0)" stroke-width="6.00" stroke-opacity="1.00" stroke-linejoin="round"/>
<path d="M885.83,795.39 C882.96,797.71 861.01,824.16 859.79,826.11 C858.81,827.71 857.98,832.07 858.79,834.18 C859.72,836.47 864.49,841.72 867.47,844.18 C870.47,846.60 874.04,848.39 877.98,849.03 C881.67,849.63 885.27,851.33 887.69,852.00 C887.69,852.00 888.44,852.20 888.44,852.20" fill="none" stroke="rgb(0, 0, 0)" stroke-width="6.00" stroke-opacity="1.00" stroke-linejoin="round"/>
<path d="M886.19,855.37 C886.19,855.37 885.72,857.07 885.72,857.07 C886.87,858.05 889.02,857.56 891.16,856.82" fill="none" stroke="rgb(0, 0, 0)" stroke-width="6.00" stroke-opacity="1.00" stroke-linejoin="round"/>
<path d="M919.30,833.93 C919.30,833.93 921.01,831.62 921.01,831.62" fill="none" stroke="rgb(0, 0, 0)" stroke-width="6.00" stroke-opacity="1.00" stroke-linejoin="round"/>
<path d="M897.59,821.41 C900.28,820.82 920.18,814.41 922.18,814.14 C924.30,813.90 925.86,814.74 926.60,816.60 C927.92,820.20 925.00,845.25 924.96,845.68 C924.94,845.94 924.92,846.37 924.89,846.97" fill="none" stroke="rgb(0, 0, 0)" stroke-width="6.00" stroke-opacity="1.00" stroke-linejoin="round"/>
<path d="M905.97,819.59 C901.87,820.43 897.79,821.48 894.29,823.04 C890.77,824.63 886.17,827.25 884.93,828.37 C883.58,829.68 882.87,830.98 883.12,832.27 C883.34,833.39 887.77,846.43 888.47,850.10" fill="none" stroke="rgb(0, 0, 0)" stroke-width="6.00" stroke-opacity="1.00" stroke-linejoin="round"/>
<path d="M926.93,835.91 C926.59,839.27 926.41,851.54 925.77,852.49 C924.93,853.67 917.71,858.19 915.76,859.09 C910.34,861.54 897.67,864.63 895.61,864.56 C895.21,864.54 894.85,864.38 894.54,864.08" fill="none" stroke="rgb(0, 0, 0)" stroke-width="6.00" stroke-opacity="1.00" stroke-linejoin="round"/>
<path d="M896.45,864.77 C894.69,864.53 891.76,863.68 890.16,862.80 C888.76,862.02 886.02,858.16 884.76,855.68 C884.56,855.27 884.35,854.85 884.15,854.44" fill="none" stroke="rgb(0, 0, 0)" stroke-width="6.00" stroke-opacity="1.00" stroke-linejoin="round"/>
<path d="M882.59,798.53 C890.03,790.28 894.13,788.16 895.07,788.15 C896.63,789.79 900.60,806.47 901.61,808.36 C902.85,810.61 904.68,812.91 906.39,814.24 C907.03,814.73 909.78,816.49 911.14,817.38 C911.68,817.73 912.23,818.09 912.77,818.44" fill="none" stroke="rgb(0, 0, 0)" stroke-width="6.00" stroke-opacity="1.00" stroke-linejoin="round"/>
<path d="M889.28,790.29 C888.95,787.84 890.35,780.32 891.43,778.11 C891.91,777.15 892.49,776.34 893.19,775.70 C893.41,775.50 893.70,775.39 894.04,775.37" fill="none" stroke="rgb(0, 0, 0)" stroke-width="6.00" stroke-opacity="1.00" stroke-linejoin="round"/>
<path d="M893.58,771.41 C891.09,774.64 885.22,778.95 881.71,781.54 C871.96,788.76 855.86,802.47 855.80,802.59 C855.31,803.62 853.36,813.58 853.30,813.96 C852.97,816.05 852.96,821.93 852.96,823.53" fill="none" stroke="rgb(0, 0, 0)" stroke-width="6.00" stroke-opacity="1.00" stroke-linejoin="round"/>
<path d="M854.47,817.55 C855.32,820.59 857.23,827.36 858.48,831.29 C858.89,832.56 859.17,833.43 859.34,833.88 C859.36,833.94 859.45,834.10 859.45,834.04" fill="none" stroke="rgb(0, 0, 0)" stroke-width="6.00" stroke-opacity="1.00" stroke-linejoin="round"/>
<path d="M889.65,846.77 C889.03,850.08 888.44,856.34 888.81,857.58 C888.89,857.82 889.07,858.13 889.36,858.51 C889.36,858.51 889.92,858.05 889.92,858.05" fill="none" stroke="rgb(0, 0, 0)" stroke-width="6.00" stroke-opacity="1.00" stroke-linejoin="round"/>
<path d="M888.18,784.75 C889.81,784.76 895.43,781.23 898.05,779.59 C900.96,777.81 909.92,772.86 910.11,773.13 C910.71,776.83 911.32,786.25 911.41,786.98 C911.48,787.58 911.67,788.87 911.98,790.86" fill="none" stroke="rgb(0, 0, 0)" stroke-width="6.00" stroke-opacity="1.00" stroke-linejoin="round"/>
<path d="M912.77,793.35 C907.39,794.37 904.15,795.14 903.36,796.40 C902.99,797.11 903.41,798.76 904.22,799.71 C905.05,800.66 907.21,802.13 908.42,802.66 C908.71,802.78 909.18,802.94 909.83,803.14" fill="none" stroke="rgb(0, 0, 0)" stroke-width="6.00" stroke-opacity="1.00" stroke-linejoin="round"/>
<path d="M915.16,792.91 C916.31,794.52 917.47,795.87 919.59,798.03 C921.71,800.19 922.79,801.92 923.78,804.46 C923.09,804.66 913.10,804.32 912.96,804.31 C912.56,804.27 912.23,804.17 911.99,804.01" fill="none" stroke="rgb(0, 0, 0)" stroke-width="6.00" stroke-opacity="1.00" stroke-linejoin="round"/>
<path d="M916.49,788.91 C918.22,790.63 920.05,791.37 922.98,791.38 C926.82,791.36 929.68,791.52 932.37,792.16 C934.06,792.63 938.16,793.84 938.61,794.49 C939.54,795.95 938.61,799.23 937.06,801.11 C936.06,802.24 928.90,808.30 928.38,808.84 C928.05,809.19 927.62,809.77 927.08,810.58" fill="none" stroke="rgb(0, 0, 0)" stroke-width="6.00" stroke-opacity="1.00" stroke-linejoin="round"/>
<path d="M940.75,805.89 C940.75,805.89 941.00,805.00 941.00,805.00 C940.95,807.02 942.79,811.19 943.77,812.24 C945.30,813.84 954.11,819.86 955.00,820.60 C955.92,821.38 957.33,823.01 957.55,823.75 C958.03,825.65 957.92,827.24 957.06,828.03 C955.37,829.50 949.08,831.98 945.01,833.51 C941.18,834.92 933.27,837.80 929.46,839.00 C927.78,839.52 926.61,839.55 925.04,839.35" fill="none" stroke="rgb(0, 0, 0)" stroke-width="6.00" stroke-opacity="1.00" stroke-linejoin="round"/>
<path d="M942.66,810.26 C941.65,808.28 940.42,806.14 939.67,805.24 C938.83,804.25 937.78,803.67 937.09,803.61 C937.09,803.61 936.86,803.73 936.86,803.73" fill="none" stroke="rgb(0, 0, 0)" stroke-width="6.00" stroke-opacity="1.00" stroke-linejoin="round"/>
<path d="M729.67,932.96 C728.89,935.66 726.69,940.13 723.77,944.75 C721.73,947.97 719.19,951.59 719.00,952.51 C719.00,952.51 727.18,955.19 727.18,955.19 C728.15,953.90 729.77,951.54 730.77,949.89 C731.58,948.56 734.51,942.86 735.03,941.84" fill="none" stroke="rgb(0, 0, 0)" stroke-width="7.37" stroke-opacity="1.00" stroke-linejoin="round"/>
<path d="M736.64,938.91 C737.87,937.21 741.06,930.94 742.95,928.09 C744.14,926.35 746.42,924.85 750.35,921.68 C762.32,912.31 786.00,894.18 798.00,886.05 C804.06,882.07 816.97,874.17 823.85,870.20 C830.37,866.53 842.16,859.92 847.44,856.99" fill="none" stroke="rgb(0, 0, 0)" stroke-width="7.37" stroke-opacity="1.00" stroke-linejoin="round"/>
<path d="M726.26,936.29 C731.48,928.30 737.87,919.57 742.16,914.73 C744.08,912.58 746.20,911.06 746.06,911.36 C751.66,906.33 763.69,895.72 768.35,892.15 C783.07,881.19 802.13,869.59 820.02,860.32 C823.51,858.61 828.02,856.40 829.04,855.91" fill="none" stroke="rgb(0, 0, 0)" stroke-width="7.37" stroke-opacity="1.00" stroke-linejoin="round"/>
<path d="M820.36,861.13 C820.36,861.13 828.29,854.78 828.29,854.78" fill="none" stroke="rgb(0, 0, 0)" stroke-width="7.37" stroke-opacity="1.00" stroke-linejoin="round"/>
<path d="M840.34,845.69 C840.34,845.69 856.91,833.78 856.91,833.78" fill="none" stroke="rgb(0, 0, 0)" stroke-width="7.37" stroke-opacity="1.00" stroke-linejoin="round"/>
<path d="M830.54,867.89 C830.54,867.89 845.72,857.94 845.72,857.94" fill="none" stroke="rgb(0, 0, 0)" stroke-width="7.37" stroke-opacity="1.00" stroke-linejoin="round"/>
<path d="M864.34,849.45 C864.34,849.45 867.53,848.46 867.53,848.46" fill="none" stroke="rgb(0, 0, 0)" stroke-width="7.37" stroke-opacity="1.00" stroke-linejoin="round"/>
<path d="M740.94,933.28 C739.51,935.34 736.31,940.03 734.37,943.66 C733.69,944.94 733.24,945.85 733.03,946.39 C732.92,946.69 732.84,947.05 732.79,947.49" fill="none" stroke="rgb(0, 0, 0)" stroke-width="6.00" stroke-opacity="1.00" stroke-linejoin="round"/>
<path d="M857.08,821.19 C855.43,821.42 840.73,819.96 834.62,819.84 C828.42,819.74 817.35,821.72 811.09,824.08 C807.46,825.48 802.14,828.20 801.74,828.70 C808.56,828.50 818.74,830.43 838.87,833.08 C846.12,834.14 854.34,837.34 855.03,837.58 C855.41,837.71 856.17,837.95 857.30,838.31" fill="none" stroke="rgb(0, 0, 0)" stroke-width="6.00" stroke-opacity="1.00" stroke-linejoin="round"/>
<path d="M862.88,837.52 C858.59,837.45 855.62,837.96 851.84,839.55 C849.05,840.70 844.32,844.16 843.73,844.43 C843.43,844.56 827.86,846.89 822.54,849.30 C821.27,849.90 818.39,851.48 817.70,852.04 C816.95,852.67 816.67,854.03 817.11,854.38 C818.39,855.26 826.53,854.93 828.01,854.93" fill="none" stroke="rgb(0, 0, 0)" stroke-width="6.00" stroke-opacity="1.00" stroke-linejoin="round"/>
<path d="M835.04,858.00 C835.04,858.00 837.48,857.95 837.48,857.95" fill="none" stroke="rgb(0, 0, 0)" stroke-width="6.00" stroke-opacity="1.00" stroke-linejoin="round"/>
<path d="M857.20,856.17 C857.20,856.17 858.93,855.70 858.93,855.70" fill="none" stroke="rgb(0, 0, 0)" stroke-width="6.00" stroke-opacity="1.00" stroke-linejoin="round"/>
<path d="M862.03,854.72 C864.44,853.82 874.90,848.80 875.36,848.50 C875.72,848.25 876.44,847.70 877.51,846.84" fill="none" stroke="rgb(0, 0, 0)" stroke-width="6.00" stroke-opacity="1.00" stroke-linejoin="round"/>
<path d="M869.80,853.26 C870.11,856.48 870.90,864.98 870.95,867.43 C870.99,871.13 869.85,876.45 868.83,879.40 C867.77,882.41 865.43,887.97 863.91,891.19 C862.65,893.81 858.37,901.22 858.13,901.78 C860.03,902.31 863.09,900.60 867.61,897.65 C870.65,895.61 874.67,891.91 877.00,888.90 C879.12,886.11 882.13,880.16 883.28,876.74 C885.19,870.95 886.32,861.62 886.08,859.55 C886.03,859.21 885.92,858.88 885.74,858.55" fill="none" stroke="rgb(0, 0, 0)" stroke-width="6.00" stroke-opacity="1.00" stroke-linejoin="round"/>
<path d="M885.94,865.94 C886.07,864.78 886.43,861.57 886.45,860.97 C886.47,860.46 886.46,859.83 886.41,859.06 C886.41,859.05 886.39,859.01 886.39,859.02" fill="none" stroke="rgb(0, 0, 0)" stroke-width="6.00" stroke-opacity="1.00" stroke-linejoin="round"/>
<path d="M859.70,855.25 C858.26,856.04 857.28,856.47 855.63,856.99 C852.52,857.98 848.94,859.78 847.28,859.76 C846.05,859.74 844.83,859.51 843.61,859.43 C843.15,859.39 842.68,859.41 842.19,859.48" fill="none" stroke="rgb(0, 0, 0)" stroke-width="6.00" stroke-opacity="1.00" stroke-linejoin="round"/>
<path d="M839.91,858.37 C839.11,858.08 836.63,857.86 834.86,857.72 C834.42,857.67 827.14,855.68 826.49,855.52 C826.29,855.47 826.11,855.41 825.93,855.33" fill="none" stroke="rgb(0, 0, 0)" stroke-width="6.00" stroke-opacity="1.00" stroke-linejoin="round"/>
<path d="M928.10,807.09 C926.34,810.27 924.81,812.59 923.44,813.65 C923.31,813.76 923.13,813.86 922.91,813.97" fill="none" stroke="rgb(0, 0, 0)" stroke-width="6.00" stroke-opacity="1.00" stroke-linejoin="round"/>
<path d="M918.17,790.56 C916.88,790.82 913.67,789.66 912.24,789.34 C911.88,789.25 911.55,789.24 911.25,789.29 C911.21,789.30 911.19,789.31 911.19,789.30" fill="none" stroke="rgb(0, 0, 0)" stroke-width="6.00" stroke-opacity="1.00" stroke-linejoin="round"/>
</g>
</svg>
