<?xml version="1.0" encoding="UTF-8" standalone="no"?>
<!DOCTYPE svg PUBLIC "-//W3C//DTD SVG 1.1//EN" "http://www.w3.org/Graphics/SVG/1.1/DTD/svg11.dtd">
<svg width="21.60" height="23.52" viewBox="0.00 0.00 90.00 98.00" xmlns="http://www.w3.org/2000/svg" xmlns:xlink="http://www.w3.org/1999/xlink">
<g stroke-linecap="round" transform="translate(-1595.00, -424.00)" id="Layer_19">
<path d="M1620.31,468.70 C1618.42,471.19 1616.26,478.76 1615.88,480.44 C1615.61,481.64 1615.28,483.72 1615.11,484.94 C1615.11,484.94 1620.37,473.64 1620.37,473.64 C1620.37,473.64 1614.59,484.46 1614.59,484.46 C1614.59,484.46 1617.05,480.94 1617.05,480.94 C1617.05,480.94 1614.39,487.44 1614.39,487.44 C1614.39,487.44 1614.09,488.71 1614.09,488.71 C1614.72,487.84 1617.42,482.58 1618.10,480.19 C1618.27,479.59 1621.00,468.05 1622.28,464.98 C1622.46,464.54 1622.75,463.95 1623.15,463.21 C1623.15,463.21 1621.20,467.88 1621.20,467.88 C1621.20,467.88 1626.90,463.27 1626.90,463.27 C1627.33,463.63 1629.12,465.15 1629.86,464.88 C1630.10,464.79 1630.55,464.48 1631.20,463.95" fill="none" stroke="rgb(151, 85, 85)" stroke-width="16.00" stroke-opacity="1.00" stroke-linejoin="round"/>
<path d="M1627.33,464.45 C1628.96,463.31 1630.57,462.38 1632.62,461.49 C1636.13,459.96 1643.17,458.42 1645.16,458.85 C1645.65,458.96 1648.82,460.40 1649.66,460.70 C1649.83,460.76 1649.95,460.79 1650.03,460.77" fill="none" stroke="rgb(151, 85, 85)" stroke-width="16.00" stroke-opacity="1.00" stroke-linejoin="round"/>
<path d="M1643.62,459.93 C1644.02,459.71 1652.15,459.23 1653.82,459.44 C1655.66,459.68 1658.47,462.45 1660.16,462.12 C1660.30,462.09 1660.48,462.03 1660.69,461.94" fill="none" stroke="rgb(151, 85, 85)" stroke-width="16.00" stroke-opacity="1.00" stroke-linejoin="round"/>
<path d="M1656.20,462.96 C1658.11,462.89 1659.91,464.18 1663.48,466.62 C1669.03,470.43 1670.06,471.46 1670.82,472.78" fill="none" stroke="rgb(151, 85, 85)" stroke-width="16.00" stroke-opacity="1.00" stroke-linejoin="round"/>
<path d="M1666.14,466.53 C1667.87,468.39 1670.32,472.01 1671.75,475.47 C1673.42,479.56 1674.28,493.43 1673.25,494.06 C1672.63,494.38 1671.24,497.81 1670.24,498.60 C1670.24,498.60 1672.20,496.39 1672.20,496.39 C1667.46,501.85 1662.53,503.56 1662.33,503.50 C1662.33,503.50 1669.24,498.06 1669.24,498.06 C1667.41,500.91 1658.91,504.96 1654.23,506.37 C1653.59,506.47 1658.57,502.53 1662.00,501.24 C1664.20,500.43 1665.99,500.07 1666.62,500.20 C1664.65,501.99 1658.91,504.58 1655.54,505.53 C1645.66,508.28 1643.42,509.11 1642.87,509.24 C1644.80,507.34 1649.20,505.17 1652.68,504.29 C1654.59,503.81 1656.96,503.46 1657.45,503.50 C1657.80,503.89 1653.07,506.44 1649.02,507.63 C1637.93,510.84 1636.11,510.78 1635.92,510.48 C1636.49,509.05 1637.17,508.23 1638.48,507.63 C1644.06,505.15 1648.90,505.96 1649.14,506.44 C1648.03,507.66 1643.75,508.82 1640.00,509.24 C1637.30,509.51 1632.40,509.27 1631.99,508.58 C1631.61,507.84 1632.07,505.70 1634.09,504.97 C1636.64,504.08 1639.86,505.71 1640.03,506.08 C1639.66,507.19 1639.21,507.83 1638.35,508.18 C1636.89,508.74 1632.19,508.83 1630.23,508.22 C1628.46,507.65 1624.57,505.49 1623.84,504.49 C1623.73,503.34 1625.67,501.35 1627.23,500.88 C1629.03,500.39 1631.86,501.12 1632.47,502.35 C1632.94,503.40 1632.37,505.21 1631.40,505.71 C1630.39,506.19 1627.89,505.82 1626.27,504.79 C1624.17,503.37 1621.30,498.07 1621.11,495.57 C1621.03,494.42 1621.36,493.13 1621.64,492.82 C1621.64,492.82 1622.75,492.80 1622.75,492.80 C1622.75,492.80 1626.53,500.29 1626.53,500.29 C1624.69,498.77 1623.23,493.06 1622.94,490.92 C1622.60,488.00 1623.36,482.94 1623.93,482.95 C1624.30,482.57 1627.23,488.65 1628.61,492.55 C1629.68,495.71 1630.01,500.84 1629.34,503.36 C1628.87,505.08 1628.63,505.70 1628.25,506.39 C1627.37,500.93 1631.52,500.51 1631.81,500.59 C1632.06,500.83 1632.50,502.18 1632.63,503.46 C1632.88,506.34 1630.38,509.86 1629.63,510.12 C1629.63,510.12 1629.13,511.97 1629.13,511.97 C1629.13,511.97 1630.14,511.32 1630.14,511.32" fill="none" stroke="rgb(151, 85, 85)" stroke-width="16.00" stroke-opacity="1.00" stroke-linejoin="round"/>
<path d="M1634.37,496.61 C1632.95,494.70 1632.23,488.99 1632.23,486.36 C1632.27,483.71 1633.49,478.58 1635.20,475.97 C1636.52,474.02 1639.93,471.62 1642.27,471.74 C1643.43,471.85 1645.99,474.66 1647.03,477.14 C1648.00,479.53 1648.38,484.70 1647.90,486.70 C1647.41,488.56 1645.24,492.74 1643.87,494.22 C1642.15,496.01 1639.62,497.66 1638.10,497.79 C1636.80,497.85 1634.54,496.77 1633.74,495.71 C1632.23,493.57 1630.29,488.31 1630.06,486.26 C1629.84,484.00 1630.24,479.52 1631.03,477.25 C1631.45,476.12 1632.93,473.62 1633.97,472.40 C1635.08,471.14 1637.79,469.45 1639.22,469.12 C1640.86,468.80 1643.62,469.44 1645.38,470.43 C1646.73,471.25 1650.02,475.13 1651.26,477.53 C1652.64,480.28 1653.73,485.33 1653.64,487.65 C1653.52,489.80 1651.69,493.72 1650.54,494.99 C1649.25,496.32 1647.39,497.40 1646.12,497.36 C1643.57,497.21 1640.90,493.73 1639.82,491.06 C1638.99,488.95 1637.79,484.35 1637.63,482.36 C1637.44,479.82 1637.85,475.99 1638.78,474.18 C1639.84,472.25 1644.67,468.00 1647.77,467.66 C1649.58,467.49 1652.42,468.69 1654.06,470.10 C1655.30,471.22 1657.17,475.43 1657.28,477.68 C1657.36,480.01 1656.11,483.97 1654.65,486.31 C1652.98,488.92 1650.21,492.31 1648.32,494.00 C1646.27,495.79 1643.74,496.14 1642.78,495.84 C1641.37,494.02 1640.46,489.10 1640.61,486.79 C1640.83,483.93 1642.86,478.84 1644.41,476.78 C1645.68,475.14 1650.09,471.57 1653.07,470.71 C1654.75,470.24 1657.35,470.63 1658.58,471.32 C1659.45,471.86 1660.74,475.12 1660.96,477.64 C1661.18,480.43 1660.22,485.36 1659.14,488.14 C1658.13,490.67 1654.43,496.27 1653.11,496.93 C1652.39,497.28 1651.46,497.28 1651.03,497.09 C1650.30,496.24 1650.13,492.53 1650.68,489.93 C1651.28,487.20 1653.49,482.47 1654.91,480.82 C1656.21,479.37 1659.29,477.54 1660.80,477.23 C1662.32,476.96 1665.18,477.64 1666.29,478.68 C1667.57,479.94 1668.76,483.79 1668.66,485.97 C1668.54,487.90 1666.47,492.65 1665.50,493.95 C1663.71,496.27 1662.43,496.52 1661.55,496.48 C1660.89,495.64 1660.49,494.50 1660.62,493.40 C1660.65,493.13 1660.77,492.68 1660.96,492.05" fill="none" stroke="rgb(151, 85, 85)" stroke-width="16.00" stroke-opacity="1.00" stroke-linejoin="round"/>
<path d="M1602.47,458.17 C1602.72,458.34 1603.49,458.79 1603.93,458.69 C1604.73,458.51 1612.74,455.82 1615.73,456.00 C1617.01,456.09 1619.16,456.50 1619.73,456.68 C1618.73,456.01 1617.60,455.66 1615.91,455.69 C1615.20,455.70 1608.95,455.90 1606.82,455.51 C1607.30,455.51 1608.33,455.51 1608.88,455.51 C1609.02,455.51 1609.16,455.51 1609.30,455.51" fill="none" stroke="rgb(93, 131, 99)" stroke-width="6.00" stroke-opacity="1.00" stroke-linejoin="round"/>
<path d="M1613.61,456.23 C1616.16,456.50 1619.07,455.65 1622.47,454.31 C1625.82,452.96 1630.25,451.17 1631.33,450.74 C1630.62,450.11 1630.05,450.27 1626.97,451.43 C1625.33,452.04 1624.55,452.27 1624.05,452.30 C1624.05,452.30 1637.79,447.37 1637.79,447.37 C1636.39,450.51 1632.24,451.19 1631.21,450.99 C1631.07,449.89 1632.07,448.80 1634.15,448.30 C1635.67,447.94 1637.90,447.92 1638.39,448.10 C1638.81,449.09 1638.87,449.50 1638.28,450.04 C1635.25,452.71 1631.69,453.58 1630.35,453.52 C1630.30,452.72 1631.02,451.74 1632.70,450.67 C1635.64,448.81 1639.35,447.84 1639.73,447.87 C1639.99,448.38 1639.59,449.29 1638.37,450.22 C1635.42,452.45 1631.25,453.39 1630.78,453.27 C1630.78,453.27 1630.44,452.32 1630.44,452.32 C1631.53,450.67 1641.17,447.44 1641.39,447.60 C1641.39,447.60 1637.91,451.44 1637.91,451.44 C1637.91,451.44 1637.83,450.42 1637.83,450.42 C1637.83,450.42 1644.77,445.88 1644.77,445.88 C1644.77,445.88 1644.51,446.56 1644.51,446.56" fill="none" stroke="rgb(93, 131, 99)" stroke-width="6.00" stroke-opacity="1.00" stroke-linejoin="round"/>
<path d="M1637.15,444.84 C1636.55,443.27 1635.68,441.33 1634.95,440.19 C1632.33,436.34 1631.31,433.64 1631.27,432.20 C1634.58,432.12 1636.11,439.80 1636.10,440.62 C1634.78,439.79 1633.90,438.66 1633.16,436.56 C1632.58,434.90 1632.03,432.80 1631.44,430.25 C1631.44,430.25 1632.80,433.75 1632.80,433.75 C1632.80,433.75 1629.98,429.94 1629.98,429.94 C1631.64,430.30 1633.85,432.50 1635.24,436.24 C1636.13,438.14 1637.19,440.50 1637.47,442.04 C1637.47,442.04 1636.63,444.35 1636.63,444.35 C1636.63,444.35 1634.48,444.44 1634.48,444.44 C1634.48,444.44 1634.05,441.30 1634.05,441.30 C1634.05,441.30 1636.22,444.26 1636.22,444.26 C1636.22,444.26 1634.17,445.57 1634.17,445.57 C1633.65,444.92 1633.44,444.45 1633.76,444.03 C1634.51,443.09 1635.79,442.53 1637.29,442.59 C1642.42,442.83 1643.50,443.84 1643.96,444.37 C1643.96,444.37 1637.79,443.87 1637.79,443.87 C1638.96,444.31 1640.27,445.39 1640.74,445.77 C1640.92,445.91 1641.16,446.04 1641.46,446.15" fill="none" stroke="rgb(93, 131, 99)" stroke-width="6.00" stroke-opacity="1.00" stroke-linejoin="round"/>
<path d="M1645.49,448.10 C1645.49,448.10 1655.77,445.84 1655.77,445.84 C1655.67,446.57 1655.11,447.10 1653.72,447.46 C1652.19,447.86 1650.32,448.14 1648.93,448.23 C1650.50,446.43 1662.51,445.05 1662.47,445.05 C1662.47,445.05 1656.45,446.06 1656.45,446.06 C1656.45,446.06 1666.65,442.34 1666.65,442.34 C1666.65,442.34 1664.97,443.08 1664.97,443.08 C1664.97,443.08 1666.75,442.72 1666.75,442.72 C1666.87,443.91 1653.60,447.59 1649.83,447.78 C1649.83,447.78 1655.45,447.67 1655.45,447.67 C1655.45,447.67 1647.18,449.66 1647.18,449.66 C1647.53,448.69 1648.40,448.23 1650.04,448.23 C1650.27,448.23 1650.52,448.25 1650.78,448.28" fill="none" stroke="rgb(93, 131, 99)" stroke-width="6.00" stroke-opacity="1.00" stroke-linejoin="round"/>
</g>
<g stroke-linecap="round" transform="translate(-1595.00, -424.00)" id="Layer_17_Copy">
<path d="M1640.32,444.89 C1636.60,444.78 1633.30,445.52 1631.04,446.42 C1629.80,446.94 1627.38,448.69 1626.32,449.94 C1625.43,450.99 1624.75,452.86 1624.59,453.90 C1624.93,454.67 1630.24,456.17 1632.61,455.57 C1634.53,455.06 1639.59,451.30 1641.60,450.53 C1646.03,448.86 1647.23,448.07 1647.10,447.59 C1646.15,446.42 1640.83,445.22 1637.86,445.14 C1637.47,445.13 1636.77,445.13 1635.77,445.14" fill="none" stroke="rgb(0, 0, 0)" stroke-width="6.00" stroke-opacity="1.00" stroke-linejoin="round"/>
<path d="M1628.55,447.43 C1629.91,443.45 1630.85,438.67 1629.53,435.72 C1629.18,434.95 1624.55,428.53 1624.38,427.34 C1624.66,426.88 1630.36,426.69 1631.99,425.59 C1632.02,425.56 1632.17,425.52 1632.42,425.49 C1632.73,425.44 1635.31,432.43 1636.54,434.99 C1637.94,437.83 1640.75,440.49 1640.81,440.67 C1640.96,441.05 1640.85,441.80 1640.51,442.92" fill="none" stroke="rgb(0, 0, 0)" stroke-width="6.00" stroke-opacity="1.00" stroke-linejoin="round"/>
<path d="M1623.95,451.54 C1621.63,452.14 1602.92,454.75 1601.05,455.75 C1598.90,456.92 1598.04,457.85 1598.03,458.91 C1602.81,460.75 1615.03,459.19 1619.98,457.70 C1622.51,456.92 1624.62,456.22 1626.03,455.71 C1626.37,455.59 1626.83,455.42 1627.40,455.19" fill="none" stroke="rgb(0, 0, 0)" stroke-width="6.00" stroke-opacity="1.00" stroke-linejoin="round"/>
<path d="M1645.95,444.39 C1645.95,444.39 1670.09,440.62 1670.09,440.62 C1669.91,441.89 1669.55,442.72 1668.65,443.47 C1666.84,444.97 1660.70,448.22 1657.23,449.57 C1656.22,449.95 1653.82,450.81 1652.89,451.14 C1652.70,451.21 1652.50,451.29 1652.30,451.37" fill="none" stroke="rgb(0, 0, 0)" stroke-width="6.00" stroke-opacity="1.00" stroke-linejoin="round"/>
<path d="M1621.63,457.86 C1618.84,459.55 1615.60,462.12 1613.82,464.69 C1611.79,467.68 1608.20,475.16 1607.19,478.40 C1606.32,481.28 1605.74,487.13 1606.09,489.50 C1606.19,490.06 1607.21,493.36 1607.78,493.90 C1608.84,494.86 1609.94,495.42 1611.08,495.57 C1612.28,495.73 1613.48,495.24 1614.69,495.17 C1615.73,495.12 1616.42,495.44 1616.77,496.12 C1617.44,497.55 1617.10,504.57 1617.31,506.81 C1617.55,509.21 1619.42,513.02 1621.14,514.50 C1623.05,516.08 1629.46,518.21 1632.86,518.45 C1635.84,518.64 1644.91,518.54 1648.76,518.50 C1649.71,518.49 1650.66,518.49 1651.61,518.48" fill="none" stroke="rgb(0, 0, 0)" stroke-width="6.00" stroke-opacity="1.00" stroke-linejoin="round"/>
<path d="M1650.18,452.52 C1652.17,451.99 1653.43,451.93 1654.85,452.44 C1660.13,454.35 1670.09,459.88 1672.18,462.54 C1673.19,463.86 1676.35,470.45 1677.51,473.09 C1678.86,476.20 1681.36,490.22 1681.16,491.68 C1680.77,493.90 1672.78,506.51 1671.90,507.11 C1671.79,507.18 1655.36,513.63 1652.50,514.37 C1650.87,514.78 1648.56,514.72 1647.12,514.38 C1646.81,514.30 1646.25,514.12 1645.44,513.86" fill="none" stroke="rgb(0, 0, 0)" stroke-width="6.00" stroke-opacity="1.00" stroke-linejoin="round"/>
<path d="M1653.53,513.14 C1650.27,515.51 1647.10,516.58 1643.69,516.72 C1637.30,516.91 1632.23,515.78 1631.16,515.38 C1630.90,515.28 1630.72,515.17 1630.62,515.03" fill="none" stroke="rgb(0, 0, 0)" stroke-width="6.00" stroke-opacity="1.00" stroke-linejoin="round"/>
<path d="M1616.05,461.60 C1614.54,461.91 1612.06,465.95 1610.89,468.34 C1608.16,474.03 1605.90,480.55 1605.70,481.43 C1605.61,481.83 1605.48,482.63 1605.30,483.85" fill="none" stroke="rgb(0, 0, 0)" stroke-width="6.00" stroke-opacity="1.00" stroke-linejoin="round"/>
<path d="M1607.57,478.36 C1606.57,480.67 1606.08,482.95 1606.20,485.51 C1606.35,488.81 1607.54,492.38 1608.62,493.47 C1609.73,494.47 1615.64,494.73 1616.15,494.92 C1616.43,495.03 1616.73,496.32 1616.78,496.71 C1616.81,497.07 1616.91,499.97 1616.96,501.33 C1617.00,502.14 1617.03,502.94 1617.06,503.75" fill="none" stroke="rgb(0, 0, 0)" stroke-width="6.00" stroke-opacity="1.00" stroke-linejoin="round"/>
<path d="M1617.10,504.34 C1616.84,505.78 1617.03,507.12 1617.91,508.47 C1619.54,510.92 1625.86,514.46 1626.42,514.78 C1626.63,514.91 1626.86,515.07 1627.10,515.26" fill="none" stroke="rgb(0, 0, 0)" stroke-width="6.00" stroke-opacity="1.00" stroke-linejoin="round"/>
<path d="M1631.61,516.67 C1633.62,517.75 1635.40,518.41 1636.89,518.44 C1639.15,518.45 1650.38,514.12 1651.75,513.82 C1652.27,513.71 1652.78,513.61 1653.30,513.50" fill="none" stroke="rgb(0, 0, 0)" stroke-width="6.00" stroke-opacity="1.00" stroke-linejoin="round"/>
<path d="M1658.89,512.15 C1660.40,511.68 1665.51,510.04 1668.91,507.82 C1672.12,505.69 1674.96,502.14 1675.66,501.00 C1676.15,500.18 1677.45,496.32 1678.07,494.98 C1678.24,494.60 1678.61,493.87 1679.16,492.76" fill="none" stroke="rgb(0, 0, 0)" stroke-width="6.00" stroke-opacity="1.00" stroke-linejoin="round"/>
<path d="M1679.13,489.47 C1678.50,487.18 1678.11,485.54 1678.25,484.83 C1678.42,483.97 1678.79,483.17 1679.03,482.34 C1679.12,482.06 1679.15,481.83 1679.12,481.66" fill="none" stroke="rgb(0, 0, 0)" stroke-width="6.00" stroke-opacity="1.00" stroke-linejoin="round"/>
<path d="M1657.43,452.93 C1655.49,452.32 1652.65,451.51 1650.59,452.11 C1650.49,452.14 1650.41,452.12 1650.36,452.05" fill="none" stroke="rgb(0, 0, 0)" stroke-width="6.00" stroke-opacity="1.00" stroke-linejoin="round"/>
<path d="M1651.48,452.48 C1650.78,452.24 1650.30,452.06 1650.04,451.96 C1648.47,451.38 1641.98,452.54 1641.40,452.48" fill="none" stroke="rgb(0, 0, 0)" stroke-width="6.00" stroke-opacity="1.00" stroke-linejoin="round"/>
<path d="M1624.41,429.53 C1624.73,430.06 1629.03,435.16 1629.96,437.42 C1630.95,439.97 1631.34,444.13 1630.51,447.02 C1630.45,447.21 1630.43,447.33 1630.44,447.38" fill="none" stroke="rgb(0, 0, 0)" stroke-width="6.00" stroke-opacity="1.00" stroke-linejoin="round"/>
<path d="M1637.24,434.50 C1638.10,436.76 1639.21,439.38 1639.96,440.73 C1640.95,442.49 1642.46,443.87 1643.98,444.64 C1644.19,444.74 1644.29,444.76 1644.27,444.71" fill="none" stroke="rgb(0, 0, 0)" stroke-width="6.00" stroke-opacity="1.00" stroke-linejoin="round"/>
<path d="M1642.14,442.68 C1642.87,443.75 1643.35,444.43 1643.57,444.72 C1643.80,445.00 1644.08,445.28 1644.42,445.56" fill="none" stroke="rgb(0, 0, 0)" stroke-width="6.00" stroke-opacity="1.00" stroke-linejoin="round"/>
</g>
</svg>
