<?xml version="1.0" encoding="UTF-8" standalone="no"?>
<!DOCTYPE svg PUBLIC "-//W3C//DTD SVG 1.1//EN" "http://www.w3.org/Graphics/SVG/1.1/DTD/svg11.dtd">
<svg width="20.16" height="19.20" viewBox="0.00 0.00 84.00 80.00" xmlns="http://www.w3.org/2000/svg" xmlns:xlink="http://www.w3.org/1999/xlink">
<g stroke-linecap="round" transform="translate(-1454.00, -440.00)" id="Layer_18">
<path d="M1487.59,488.93 C1487.59,488.93 1484.05,490.06 1484.05,490.06 C1483.07,489.13 1483.24,485.62 1484.19,482.77 C1485.10,480.13 1487.70,475.55 1489.01,474.23 C1491.85,471.43 1497.17,469.37 1498.44,469.71 C1499.02,469.90 1499.80,470.56 1500.16,471.16 C1500.73,472.29 1499.52,477.29 1497.98,480.06 C1496.86,482.00 1493.98,485.63 1492.79,486.70 C1489.94,489.19 1485.49,491.14 1484.50,490.92 C1483.98,490.76 1483.52,488.71 1484.08,486.81 C1484.75,484.65 1487.20,479.79 1488.94,477.46 C1493.55,471.44 1498.07,470.34 1498.91,470.37 C1499.69,471.31 1499.52,473.71 1498.76,475.66 C1497.83,478.01 1495.88,481.25 1494.30,483.34 C1492.50,485.65 1487.53,489.54 1485.45,489.93 C1484.71,490.03 1483.79,489.48 1483.05,488.64 C1482.31,487.68 1482.43,482.85 1482.77,480.53 C1482.83,480.15 1482.94,479.49 1483.10,478.54" fill="none" stroke="rgb(158, 68, 68)" stroke-width="16.00" stroke-opacity="1.00" stroke-linejoin="round"/>
<path d="M1484.04,468.65 C1482.96,467.74 1481.91,467.11 1480.93,467.05 C1479.73,466.98 1477.83,467.28 1476.27,467.78 C1474.13,468.49 1472.60,470.38 1472.64,470.34 C1477.31,469.90 1480.73,468.86 1483.23,467.05 C1483.47,466.87 1483.81,466.63 1484.24,466.32 C1482.95,466.84 1476.86,466.21 1476.75,466.21 C1475.81,466.25 1472.30,467.13 1471.14,467.20 C1471.14,467.20 1469.02,467.16 1469.02,467.16 C1468.02,468.24 1467.81,470.02 1468.33,473.27 C1468.78,476.03 1468.93,481.22 1469.39,483.04 C1469.79,484.62 1470.76,486.12 1471.65,486.92" fill="none" stroke="rgb(158, 68, 68)" stroke-width="16.00" stroke-opacity="1.00" stroke-linejoin="round"/>
<path d="M1469.98,472.13 C1468.06,473.05 1466.32,477.86 1465.97,480.55 C1465.47,484.73 1465.88,488.53 1466.66,490.71 C1467.52,493.06 1470.60,497.96 1472.26,499.10 C1473.17,499.71 1475.49,500.16 1476.12,500.05 C1477.37,499.71 1478.45,497.50 1478.57,494.06" fill="none" stroke="rgb(158, 68, 68)" stroke-width="16.00" stroke-opacity="1.00" stroke-linejoin="round"/>
<path d="M1469.41,479.76 C1468.21,480.37 1467.16,481.43 1466.67,482.86 C1465.87,485.30 1466.82,489.35 1468.61,493.88 C1470.45,498.18 1472.55,501.57 1474.18,502.80 C1475.25,503.54 1483.06,505.09 1483.95,504.70 C1484.54,504.41 1485.02,503.32 1485.15,502.48 C1485.24,502.52 1483.37,504.42 1478.42,502.61 C1475.97,501.67 1472.93,499.34 1472.19,497.56 C1471.46,495.64 1472.41,490.74 1474.19,487.01 C1476.02,483.35 1479.74,479.13 1481.86,478.84 C1482.94,478.74 1484.41,479.24 1485.27,479.99 C1486.83,481.43 1488.54,485.61 1488.48,487.58 C1488.37,489.48 1486.06,492.74 1484.13,493.50 C1483.19,493.83 1481.20,493.93 1480.51,493.61 C1479.72,493.19 1478.34,491.02 1477.94,489.50 C1477.51,487.70 1477.60,484.23 1478.12,482.56 C1478.88,480.30 1482.44,474.82 1484.12,472.83 C1485.80,470.86 1489.42,467.70 1490.76,467.05 C1492.21,466.38 1494.45,465.86 1495.04,466.23 C1496.52,467.26 1498.13,473.05 1497.61,474.61 C1496.89,476.50 1495.03,478.31 1493.56,478.05 C1492.05,477.71 1489.71,474.94 1489.01,472.67 C1488.40,470.60 1488.56,466.59 1489.51,465.04 C1490.54,463.42 1493.53,461.59 1496.17,460.56 C1497.08,460.22 1505.14,456.82 1506.37,456.34 C1506.80,456.17 1507.28,456.12 1507.81,456.18" fill="none" stroke="rgb(158, 68, 68)" stroke-width="16.00" stroke-opacity="1.00" stroke-linejoin="round"/>
<path d="M1497.14,462.46 C1497.51,460.20 1499.96,455.51 1501.60,453.61 C1503.56,451.38 1505.00,450.13 1505.63,450.22 C1506.95,450.47 1510.03,451.36 1510.94,451.67 C1511.96,452.02 1515.52,457.40 1516.82,458.92 C1518.37,460.77 1519.23,467.60 1519.62,469.28 C1519.88,470.39 1520.15,472.94 1520.13,474.03 C1520.11,474.93 1519.93,475.80 1519.70,476.37" fill="none" stroke="rgb(158, 68, 68)" stroke-width="16.00" stroke-opacity="1.00" stroke-linejoin="round"/>
<path d="M1522.03,461.11 C1522.91,462.63 1525.32,466.11 1525.50,466.64 C1526.36,469.14 1523.68,482.94 1520.70,489.02 C1520.22,489.99 1519.80,490.49 1519.62,490.49 C1518.82,488.59 1520.35,485.31 1520.97,484.28 C1521.07,486.26 1518.83,491.38 1517.74,493.29 C1516.69,495.10 1514.59,497.81 1512.36,500.45 C1512.91,497.27 1518.19,492.89 1520.59,491.06 C1516.32,499.56 1514.03,501.49 1513.27,501.76 C1512.98,500.24 1515.15,496.54 1518.44,491.99 C1520.30,489.43 1523.25,484.89 1523.92,483.26 C1525.24,478.82 1526.60,477.47 1527.24,477.01 C1526.69,479.85 1516.96,498.81 1515.29,500.84 C1514.06,502.32 1512.13,504.02 1511.16,504.65 C1511.16,504.65 1517.24,496.91 1517.24,496.91 C1516.43,499.43 1511.30,505.96 1508.90,507.09 C1506.75,508.06 1504.48,507.64 1503.77,507.32 C1504.13,505.50 1504.87,504.25 1506.11,503.68 C1506.75,503.39 1507.71,503.23 1507.86,503.28 C1508.11,504.48 1505.40,506.86 1502.56,507.83 C1499.53,508.78 1496.05,508.55 1494.88,508.09 C1494.76,507.35 1495.79,506.25 1497.77,505.19 C1504.29,501.81 1506.70,504.03 1507.12,504.54 C1507.09,505.64 1504.46,507.87 1501.67,508.69 C1498.81,509.49 1493.27,509.77 1489.94,508.58 C1487.72,507.77 1486.65,507.15 1486.33,506.60 C1489.83,504.35 1496.98,504.44 1497.55,504.72 C1497.96,505.99 1497.88,506.83 1497.08,507.59 C1495.64,508.92 1491.71,510.04 1487.88,510.25 C1484.03,510.45 1480.07,509.83 1479.17,509.08 C1478.26,508.23 1478.33,506.08 1479.45,504.95 C1480.60,503.82 1484.10,502.50 1486.25,502.48 C1488.31,502.50 1491.61,504.22 1491.91,505.19 C1492.17,506.27 1489.93,508.32 1487.89,508.61 C1486.79,508.73 1484.76,508.48 1483.90,508.06 C1483.00,507.59 1481.64,506.05 1481.19,505.01 C1480.42,503.11 1481.28,499.18 1482.53,496.66 C1483.61,494.56 1486.61,490.00 1488.21,488.16 C1490.16,485.96 1494.58,482.66 1496.34,482.09 C1498.37,481.47 1501.49,481.16 1502.89,481.46 C1503.79,481.69 1505.01,482.88 1505.32,483.90 C1505.77,485.59 1505.51,489.11 1504.71,491.10 C1503.55,493.86 1498.89,499.25 1497.47,499.71 C1496.67,499.93 1495.50,499.91 1495.20,499.64 C1494.53,498.94 1493.94,495.27 1493.97,492.77 C1494.02,490.42 1495.11,485.13 1496.01,482.74 C1496.97,480.29 1499.76,475.44 1501.45,473.33 C1503.30,471.05 1506.91,467.59 1508.58,466.80 C1510.14,466.09 1513.13,466.11 1513.90,466.84 C1514.75,467.71 1515.84,472.13 1515.76,474.48 C1515.66,476.56 1513.84,483.05 1512.82,485.39 C1511.71,487.92 1508.00,493.43 1506.39,494.92 C1504.67,496.46 1501.32,497.52 1500.23,497.29 C1499.18,497.01 1497.87,493.85 1497.60,491.15 C1497.33,488.10 1498.23,482.49 1499.42,479.32 C1500.74,475.90 1503.65,471.30 1505.53,469.09 C1507.08,467.29 1510.52,464.48 1512.97,464.04 C1513.79,463.92 1515.17,465.49 1515.46,467.41 C1515.80,469.81 1515.55,475.48 1514.80,479.02 C1513.48,485.05 1510.67,490.46 1509.09,493.11 C1509.15,492.52 1509.36,491.84 1510.39,488.98 C1510.53,488.61 1510.64,488.27 1510.72,487.98" fill="none" stroke="rgb(158, 68, 68)" stroke-width="16.00" stroke-opacity="1.00" stroke-linejoin="round"/>
<path d="M1499.73,487.50 C1498.96,485.87 1498.47,484.19 1498.40,482.44 C1498.29,478.80 1499.45,475.28 1501.16,473.20 C1502.38,471.77 1506.56,468.85 1508.22,468.37 C1509.76,467.95 1512.01,467.93 1512.52,468.46 C1513.76,469.87 1512.91,475.00 1511.61,477.36 C1509.69,480.70 1504.97,486.29 1502.43,488.29 C1500.05,490.11 1497.33,490.80 1496.73,490.46 C1495.92,489.80 1496.17,485.33 1497.35,482.39 C1498.57,479.39 1500.81,475.23 1502.52,472.86 C1504.63,470.04 1509.08,467.51 1510.19,468.05 C1510.87,468.55 1511.38,471.04 1511.06,473.67 C1510.67,476.71 1508.90,481.36 1507.40,484.25 C1505.91,487.01 1501.89,491.09 1500.32,491.40 C1499.08,491.59 1497.81,490.49 1497.88,489.62 C1498.19,486.37 1500.78,481.65 1501.83,480.29 C1503.06,478.74 1506.60,475.59 1507.57,474.76 C1507.75,474.60 1507.93,474.45 1508.11,474.31" fill="none" stroke="rgb(133, 65, 65)" stroke-width="16.00" stroke-opacity="1.00" stroke-linejoin="round"/>
<path d="M1492.53,482.21 C1492.53,482.21 1487.30,484.15 1487.30,484.15 C1486.59,482.87 1487.77,478.84 1489.45,476.56 C1490.67,474.98 1494.32,473.36 1495.73,473.83 C1496.37,474.08 1497.18,475.13 1497.30,475.86 C1497.48,477.38 1495.16,481.41 1493.45,483.09 C1491.62,484.83 1487.48,486.64 1485.78,486.25 C1484.95,486.03 1483.58,484.83 1483.19,484.00 C1482.42,482.16 1483.32,478.08 1484.98,475.86 C1488.79,470.95 1493.33,469.82 1494.17,469.77 C1494.66,470.86 1494.81,471.57 1494.33,472.07 C1493.33,473.04 1491.63,473.58 1489.36,473.54 C1484.67,473.41 1481.65,472.71 1480.43,472.21 C1480.43,472.21 1484.80,468.28 1484.80,468.28 C1484.80,468.28 1483.32,466.63 1483.32,466.63 C1482.35,466.99 1480.68,467.54 1480.23,467.53 C1479.88,467.52 1476.12,466.23 1474.96,466.22 C1472.85,466.20 1471.89,466.04 1471.15,465.99 C1470.56,466.80 1469.29,468.22 1468.92,471.32 C1468.50,474.92 1468.07,483.09 1468.21,484.90 C1468.23,485.14 1471.32,493.13 1470.99,492.65 C1470.58,492.04 1470.07,490.21 1470.01,490.39" fill="none" stroke="rgb(133, 65, 65)" stroke-width="16.00" stroke-opacity="1.00" stroke-linejoin="round"/>
<path d="M1467.89,479.95 C1466.98,480.79 1466.48,482.32 1466.52,484.70 C1466.59,487.51 1468.14,493.42 1469.64,496.40 C1471.28,499.54 1474.59,502.95 1475.69,503.26 C1475.69,503.26 1475.46,501.68 1475.46,501.68" fill="none" stroke="rgb(133, 65, 65)" stroke-width="16.00" stroke-opacity="1.00" stroke-linejoin="round"/>
<path d="M1468.48,486.95 C1468.25,488.66 1468.27,489.83 1468.70,491.20 C1469.35,493.27 1472.23,499.85 1474.31,502.45 C1474.96,503.23 1476.68,504.55 1477.57,504.89 C1478.53,505.24 1486.97,507.15 1487.58,507.10 C1488.26,507.04 1490.65,505.82 1490.63,505.84 C1490.63,505.84 1492.72,506.31 1492.72,506.31 C1492.77,506.83 1491.92,508.07 1489.65,507.67 C1488.46,507.44 1483.94,504.62 1482.18,503.21 C1479.92,501.37 1475.96,496.50 1475.31,494.50 C1474.91,493.10 1475.85,489.67 1477.62,488.29 C1478.68,487.52 1481.33,486.84 1482.98,487.04 C1484.79,487.30 1487.77,488.68 1488.86,489.66 C1490.24,491.02 1491.95,495.52 1491.58,497.41 C1491.38,498.28 1490.37,499.71 1489.65,500.12 C1488.92,500.51 1486.88,500.69 1486.03,500.39 C1483.98,499.58 1480.78,493.44 1480.72,490.97 C1480.74,489.63 1482.69,486.39 1484.41,485.94 C1485.37,485.73 1487.11,486.12 1487.79,486.73 C1488.99,487.89 1489.30,491.45 1488.82,492.08 C1488.65,492.07 1488.51,491.98 1488.40,491.81 C1488.29,491.64 1488.06,491.15 1487.72,490.34" fill="none" stroke="rgb(133, 65, 65)" stroke-width="16.00" stroke-opacity="1.00" stroke-linejoin="round"/>
<path d="M1478.42,470.15 C1480.90,469.36 1490.63,465.15 1491.64,464.59 C1494.52,462.97 1498.18,459.97 1499.50,458.65" fill="none" stroke="rgb(133, 65, 65)" stroke-width="16.00" stroke-opacity="1.00" stroke-linejoin="round"/>
<path d="M1496.06,460.03 C1496.06,460.03 1506.53,451.36 1506.53,451.36 C1507.07,451.51 1507.83,452.13 1508.75,453.21 C1508.91,453.40 1509.09,453.63 1509.27,453.89" fill="none" stroke="rgb(133, 65, 65)" stroke-width="16.00" stroke-opacity="1.00" stroke-linejoin="round"/>
<path d="M1499.79,453.84 C1499.79,453.84 1502.91,450.46 1502.91,450.46 C1503.59,450.82 1504.61,451.94 1505.01,452.33 C1505.60,452.89 1509.53,452.66 1511.41,453.10 C1513.56,453.67 1515.61,457.14 1518.26,462.36 C1518.91,463.62 1519.35,464.11 1519.99,464.44" fill="none" stroke="rgb(133, 65, 65)" stroke-width="16.00" stroke-opacity="1.00" stroke-linejoin="round"/>
<path d="M1514.11,458.04 C1515.92,459.33 1517.60,460.96 1518.65,462.70 C1520.53,465.84 1522.20,471.33 1522.13,474.83 C1522.11,475.49 1521.90,478.56 1521.82,479.66 C1521.82,479.66 1524.11,466.47 1524.11,466.47 C1524.11,466.47 1526.50,480.11 1526.50,480.11 C1526.50,480.11 1526.76,477.99 1526.76,477.99 C1526.76,477.99 1518.52,492.10 1518.52,492.10 C1518.52,492.10 1520.16,485.60 1520.16,485.60 C1520.17,485.57 1517.75,491.58 1516.75,493.51 C1513.99,498.81 1511.93,500.72 1511.71,500.73 C1511.71,500.73 1516.92,494.45 1516.92,494.45 C1517.02,498.14 1510.72,503.86 1509.82,503.98 C1510.87,498.95 1516.32,497.53 1516.50,497.62 C1517.20,501.33 1511.56,505.55 1510.56,505.79 C1509.85,504.36 1509.83,503.52 1510.96,502.56 C1512.92,500.90 1514.72,499.76 1516.73,498.83 C1516.17,500.75 1514.93,502.42 1512.66,504.07 C1510.88,505.36 1506.40,507.35 1504.55,507.76 C1502.43,508.18 1499.68,507.21 1499.05,505.72 C1498.52,504.30 1499.61,501.78 1501.79,500.75 C1504.47,499.53 1508.34,498.92 1509.27,499.42 C1510.19,499.98 1510.00,502.09 1509.00,503.28 C1507.87,504.58 1504.14,506.59 1501.89,507.15 C1499.58,507.69 1494.99,507.56 1493.63,506.65 C1493.01,506.21 1492.40,505.11 1492.39,504.44 C1492.47,502.82 1495.79,500.04 1498.50,498.76 C1500.88,497.69 1505.75,496.93 1506.54,497.64 C1507.48,498.64 1506.99,501.91 1505.42,503.60 C1503.61,505.47 1497.52,508.16 1494.53,508.88 C1492.96,509.23 1490.87,509.04 1489.48,508.41 C1488.77,508.07 1487.89,506.66 1487.79,506.06 C1487.64,504.79 1490.08,502.47 1492.05,501.88 C1494.35,501.25 1498.12,501.95 1498.80,503.24 C1499.35,504.40 1498.50,506.96 1497.21,508.16 C1495.90,509.32 1492.68,510.03 1491.12,509.31 C1489.97,508.75 1485.97,504.95 1484.79,502.56 C1484.49,501.94 1484.78,500.26 1485.04,499.74 C1485.90,498.18 1490.96,495.66 1493.02,495.27 C1494.83,494.94 1498.11,494.73 1499.29,494.88 C1500.68,495.08 1501.35,497.22 1500.96,498.34 C1500.59,499.30 1497.19,503.73 1494.66,505.45 C1492.09,507.16 1486.71,507.22 1485.38,506.27 C1484.52,505.58 1482.80,503.09 1482.26,501.55 C1481.12,498.11 1482.59,491.76 1483.88,488.96 C1484.98,486.65 1486.98,483.28 1488.28,481.72 C1489.65,480.09 1492.67,477.65 1494.82,476.40 C1497.27,475.03 1503.40,473.83 1504.97,474.44 C1505.53,474.70 1506.44,475.79 1506.62,476.43 C1506.98,478.02 1504.45,481.73 1502.31,483.23 C1499.94,484.83 1497.64,485.03 1496.33,484.88 C1495.24,483.94 1494.52,482.20 1494.34,479.70 C1494.20,477.79 1495.13,473.72 1496.18,471.75 C1498.25,468.02 1504.61,462.37 1507.20,461.57 C1508.48,461.20 1511.32,461.26 1512.12,461.73 C1513.57,462.64 1516.06,468.04 1516.44,469.90 C1516.91,472.29 1516.74,478.47 1516.03,481.17 C1515.30,483.84 1512.88,488.04 1511.46,489.30 C1510.09,490.48 1507.27,491.30 1506.13,490.95 C1504.93,490.52 1503.35,489.12 1502.38,487.45 C1500.51,484.12 1499.37,477.04 1499.74,475.53 C1501.57,468.58 1505.96,469.07 1506.87,469.59 C1507.77,471.62 1505.93,476.41 1504.25,478.64 C1502.95,480.31 1500.27,482.60 1498.09,484.04 C1496.51,485.05 1492.95,486.47 1487.91,488.23 C1485.14,489.19 1479.85,490.59 1476.92,490.18 C1475.32,489.93 1472.56,488.05 1471.86,486.77 C1470.56,484.24 1471.02,479.65 1471.85,477.87 C1472.75,475.99 1475.46,472.39 1477.37,470.81 C1479.69,468.97 1484.62,467.50 1486.69,467.94 C1488.77,468.43 1491.93,470.62 1493.25,472.41 C1494.28,473.83 1495.94,478.41 1495.83,481.35 C1495.75,483.13 1494.29,485.53 1494.25,485.46" fill="none" stroke="rgb(133, 65, 65)" stroke-width="16.00" stroke-opacity="1.00" stroke-linejoin="round"/>
<path d="M1519.46,471.51 C1516.74,474.95 1515.59,477.95 1514.78,481.06 C1512.52,489.80 1511.26,491.22 1510.78,491.45 C1510.44,490.34 1511.79,484.27 1512.78,482.28 C1514.02,479.88 1520.05,471.08 1521.31,468.66 C1521.43,468.99 1521.42,469.75 1521.28,471.77 C1521.15,473.79 1521.60,475.56 1522.81,478.30 C1524.39,478.34 1525.00,475.41 1525.33,472.30 C1525.33,472.30 1526.66,480.16 1526.66,480.16 C1526.92,472.05 1525.32,466.79 1524.60,464.84" fill="none" stroke="rgb(133, 65, 65)" stroke-width="16.00" stroke-opacity="1.00" stroke-linejoin="round"/>
</g>
<g stroke-linecap="round" transform="translate(-1454.00, -440.00)" id="Layer_17">
<path d="M1468.17,457.91 C1471.74,458.59 1475.85,459.29 1478.33,459.30 C1481.05,459.29 1485.99,457.83 1487.47,456.82 C1489.48,455.40 1494.77,448.30 1495.13,447.87 C1495.36,447.60 1495.78,447.16 1496.40,446.53" fill="none" stroke="rgb(0, 0, 0)" stroke-width="6.00" stroke-opacity="1.00" stroke-linejoin="round"/>
<path d="M1464.02,461.81 C1462.56,463.02 1460.67,466.85 1459.04,472.19 C1457.88,476.09 1457.16,480.35 1457.11,483.38 C1457.09,486.21 1458.21,492.80 1459.40,496.14 C1460.75,499.81 1464.69,506.19 1467.35,508.57 C1469.96,510.86 1475.74,513.92 1477.63,514.60 C1481.61,515.99 1488.22,517.01 1492.37,517.06 C1496.31,517.08 1502.23,516.28 1505.55,515.25 C1508.38,514.34 1514.71,511.45 1516.76,510.06 C1519.29,508.31 1522.56,504.23 1524.31,500.76 C1527.75,493.53 1533.93,481.89 1534.52,477.46 C1534.84,474.68 1533.89,469.29 1532.35,466.09 C1530.29,461.93 1518.82,448.68 1514.94,445.72 C1510.47,442.38 1504.13,441.86 1502.87,441.80" fill="none" stroke="rgb(0, 0, 0)" stroke-width="6.00" stroke-opacity="1.00" stroke-linejoin="round"/>
<path d="M1496.42,448.50 C1496.42,448.50 1497.04,445.50 1497.04,445.50 C1497.04,445.50 1497.20,444.91 1497.20,444.91" fill="none" stroke="rgb(0, 0, 0)" stroke-width="6.00" stroke-opacity="1.00" stroke-linejoin="round"/>
<path d="M1498.44,444.80 C1500.10,443.74 1503.63,441.47 1503.81,441.38 C1504.12,441.22 1504.50,441.10 1504.95,441.01 C1505.03,441.00 1505.07,441.01 1505.05,441.03" fill="none" stroke="rgb(0, 0, 0)" stroke-width="6.00" stroke-opacity="1.00" stroke-linejoin="round"/>
<path d="M1472.10,457.58 C1470.66,458.00 1467.08,458.82 1466.57,459.10 C1465.11,459.89 1463.93,461.99 1463.70,463.47" fill="none" stroke="rgb(0, 0, 0)" stroke-width="6.00" stroke-opacity="1.00" stroke-linejoin="round"/>
</g>
</svg>
