<?xml version="1.0" encoding="UTF-8" standalone="no"?>
<!DOCTYPE svg PUBLIC "-//W3C//DTD SVG 1.1//EN" "http://www.w3.org/Graphics/SVG/1.1/DTD/svg11.dtd">
<svg width="19.20" height="11.04" viewBox="0.00 0.00 80.00 46.00" xmlns="http://www.w3.org/2000/svg" xmlns:xlink="http://www.w3.org/1999/xlink">
<g stroke-linecap="round" transform="translate(-2009.00, -416.00)" id="Layer_48">
<path d="M2017.30,457.57 C2016.93,456.72 2017.23,455.32 2019.77,452.16 C2021.21,450.37 2022.79,449.20 2023.93,448.83 C2024.47,450.19 2023.31,453.44 2021.47,455.35 C2019.51,457.34 2018.35,457.47 2017.90,457.43 C2017.03,454.98 2023.06,448.39 2023.76,448.66 C2024.04,449.19 2023.32,451.34 2022.19,452.99 C2020.60,455.21 2017.57,457.30 2016.12,457.84 C2015.56,457.27 2015.64,455.99 2016.60,454.35 C2018.24,451.54 2021.11,449.87 2021.48,449.87 C2021.83,450.63 2021.59,451.96 2020.62,453.33 C2018.92,455.68 2015.98,457.16 2014.82,457.50 C2014.45,457.03 2014.33,456.70 2014.65,456.21 C2017.98,451.42 2023.10,449.59 2023.15,449.64 C2023.15,449.64 2019.00,455.97 2019.00,455.97 C2019.91,452.38 2024.69,447.97 2024.93,447.97 C2025.95,452.00 2019.86,457.10 2018.98,457.57 C2018.81,456.52 2020.85,452.99 2022.82,450.50 C2026.57,445.81 2028.73,444.52 2029.21,444.30 C2030.41,446.04 2020.94,454.86 2020.48,455.16 C2020.48,455.16 2032.11,442.03 2032.11,442.03 C2032.11,442.03 2022.42,452.97 2022.42,452.97 C2022.89,448.34 2038.47,436.44 2038.85,436.58 C2038.70,438.22 2029.85,445.70 2028.43,446.27 C2029.34,444.23 2038.43,436.40 2043.28,434.24 C2044.60,433.65 2049.15,432.21 2049.36,432.12" fill="none" stroke="rgb(133, 72, 65)" stroke-width="6.00" stroke-opacity="1.00" stroke-linejoin="round"/>
<path d="M2019.32,438.70 C2019.32,438.70 2017.97,439.55 2017.97,439.55 C2017.97,439.55 2024.31,437.36 2024.31,437.36 C2024.31,437.36 2015.92,441.35 2015.92,441.35 C2015.92,441.35 2020.83,439.04 2020.83,439.04 C2020.83,439.04 2018.11,440.07 2018.11,440.07 C2018.11,440.07 2028.63,439.58 2028.63,439.58 C2028.63,439.58 2025.04,441.35 2025.04,441.35 C2025.04,441.35 2025.92,444.59 2025.92,444.59 C2025.92,444.59 2023.56,442.62 2023.56,442.62 C2023.56,442.62 2024.04,441.74 2024.04,441.74 C2026.43,443.11 2026.40,444.79 2026.26,445.35 C2025.47,445.55 2023.05,443.23 2022.62,441.02 C2022.37,439.69 2022.57,437.98 2022.98,436.71 C2024.57,437.34 2024.69,438.28 2024.81,439.77 C2024.81,439.77 2024.01,440.85 2024.01,440.85 C2024.01,440.85 2022.74,440.97 2022.74,440.97 C2021.85,440.38 2021.04,439.54 2020.73,438.68 C2020.16,437.05 2021.78,434.59 2022.80,434.08 C2023.74,433.66 2025.68,433.79 2026.18,434.44 C2026.59,435.01 2026.40,437.39 2024.98,437.99 C2023.68,438.51 2022.02,437.63 2021.97,436.99 C2021.96,436.40 2023.38,434.31 2025.86,433.80 C2026.46,433.68 2033.12,433.58 2033.61,433.69 C2034.43,433.91 2034.86,435.18 2034.07,435.98 C2033.19,436.81 2028.25,436.95 2027.35,436.66 C2028.28,435.79 2030.79,434.67 2032.75,434.49 C2034.36,434.37 2036.66,435.91 2036.79,437.05 C2036.87,438.26 2035.05,439.75 2033.55,439.68 C2032.15,439.59 2030.26,438.19 2029.94,437.41 C2029.72,436.76 2030.82,435.20 2032.27,434.29 C2034.48,432.93 2038.74,432.09 2039.73,432.54 C2040.90,433.16 2041.33,435.08 2040.30,436.10 C2036.11,440.06 2031.30,439.83 2030.78,439.51 C2030.62,438.25 2030.78,437.53 2031.59,436.92 C2036.12,433.54 2043.30,431.50 2044.71,431.45 C2045.13,432.41 2044.92,433.30 2043.68,434.41 C2038.80,438.72 2028.01,442.39 2027.03,441.99 C2027.00,441.20 2030.41,438.12 2032.89,436.48 C2038.40,432.94 2041.73,433.04 2042.01,433.20 C2042.14,434.06 2040.04,436.58 2037.26,438.38 C2032.66,441.32 2030.96,441.38 2030.68,441.31 C2030.77,440.97 2031.17,440.44 2031.94,439.65 C2032.07,439.52 2032.22,439.38 2032.40,439.21" fill="none" stroke="rgb(133, 72, 65)" stroke-width="6.00" stroke-opacity="1.00" stroke-linejoin="round"/>
<path d="M2035.96,440.26 C2037.93,440.97 2040.29,440.59 2044.71,439.51 C2047.51,438.82 2048.87,438.58 2048.90,438.60 C2045.68,438.71 2041.81,439.27 2040.29,440.87 C2040.14,441.04 2040.05,441.23 2040.02,441.47 C2040.02,441.47 2053.95,438.11 2053.95,438.11 C2053.95,438.11 2043.88,439.92 2043.88,439.92 C2043.88,439.92 2059.76,433.91 2059.76,433.91 C2058.93,434.81 2053.62,437.18 2050.64,437.92 C2046.21,438.98 2039.80,438.50 2039.37,438.09 C2040.22,436.45 2045.91,433.26 2048.98,432.44 C2054.92,430.91 2056.46,432.10 2056.73,432.44 C2055.15,435.31 2047.48,436.41 2046.50,436.26 C2046.34,435.33 2046.52,434.74 2047.30,434.10 C2051.96,430.37 2055.78,430.69 2055.99,431.00 C2055.57,432.35 2054.88,433.30 2053.35,434.34 C2047.35,438.35 2043.99,438.46 2043.54,438.34 C2043.22,437.08 2043.35,436.16 2044.25,435.20 C2049.17,430.11 2054.09,430.37 2054.66,430.52 C2055.18,431.30 2054.31,432.98 2052.53,434.00 C2051.76,434.43 2050.08,435.04 2049.30,435.19 C2049.07,435.23 2048.66,435.28 2048.08,435.34" fill="none" stroke="rgb(133, 72, 65)" stroke-width="6.00" stroke-opacity="1.00" stroke-linejoin="round"/>
<path d="M2040.27,432.46 C2040.27,432.46 2038.49,432.44 2038.49,432.44 C2038.92,431.30 2043.26,428.34 2045.08,427.40 C2047.55,426.14 2051.94,425.37 2052.90,425.74 C2053.59,426.52 2053.40,428.43 2052.47,429.04 C2050.35,430.39 2044.88,431.71 2042.88,431.64 C2042.40,430.82 2042.39,430.28 2043.00,429.66 C2044.16,428.49 2047.96,426.23 2050.78,425.18 C2053.62,424.14 2055.47,424.51 2055.61,424.89 C2055.70,425.75 2054.14,427.88 2053.34,428.35 C2051.45,429.40 2047.44,429.30 2046.59,428.70 C2046.52,427.21 2050.12,425.82 2054.53,424.68 C2058.03,423.85 2060.78,423.38 2061.42,423.51 C2060.86,424.85 2057.64,426.85 2056.08,427.35 C2052.54,428.43 2050.90,427.03 2050.73,426.72 C2050.91,426.10 2054.25,424.15 2057.09,423.22 C2062.30,421.56 2064.13,422.86 2064.47,423.26 C2064.25,424.29 2063.30,425.29 2061.88,425.70 C2060.73,426.04 2059.48,425.84 2058.93,425.45 C2059.55,424.28 2060.37,423.62 2062.16,423.03 C2065.14,422.06 2066.87,421.74 2067.30,421.73 C2067.30,421.73 2065.17,423.26 2065.17,423.26 C2065.08,422.52 2065.35,422.20 2066.25,422.24 C2067.04,422.27 2067.68,422.45 2068.32,422.77 C2068.32,422.77 2067.37,424.11 2067.37,424.11 C2066.82,423.12 2063.06,422.12 2059.95,422.41 C2056.06,422.84 2051.89,424.29 2049.55,425.99 C2048.02,427.13 2044.90,429.57 2044.55,429.62 C2044.55,429.62 2048.81,425.33 2048.81,425.33 C2048.81,425.33 2045.78,427.62 2045.78,427.62 C2046.12,428.84 2055.01,427.97 2055.35,428.06 C2056.22,428.38 2056.63,430.85 2055.94,432.66 C2055.01,434.96 2051.93,437.78 2050.24,438.34 C2050.22,438.36 2055.60,434.95 2057.89,434.59 C2058.21,434.55 2058.59,434.58 2059.02,434.69 C2058.63,435.95 2046.95,439.69 2045.79,439.77 C2047.74,437.90 2054.62,437.45 2054.87,437.55 C2055.20,438.88 2053.24,439.58 2047.77,440.38 C2047.44,440.43 2047.07,440.51 2046.66,440.63 C2046.66,440.63 2059.32,436.09 2059.32,436.09" fill="none" stroke="rgb(133, 72, 65)" stroke-width="6.00" stroke-opacity="1.00" stroke-linejoin="round"/>
<path d="M2057.62,438.80 C2057.62,438.80 2062.00,437.66 2062.00,437.66 C2062.00,437.66 2059.28,438.80 2059.28,438.80 C2059.28,438.80 2062.51,436.34 2062.51,436.34 C2062.51,436.34 2060.42,438.19 2060.42,438.19 C2060.42,438.19 2064.31,433.30 2064.31,433.30 C2064.31,433.30 2062.50,435.05 2062.50,435.05 C2063.81,432.52 2068.74,428.92 2069.45,428.91 C2069.45,428.91 2065.52,432.62 2065.52,432.62 C2065.52,432.62 2069.13,429.30 2069.13,429.30 C2065.90,433.36 2061.49,435.63 2061.18,435.65 C2060.55,434.58 2060.24,433.53 2060.38,432.52 C2060.69,430.69 2064.09,427.80 2066.35,427.60 C2066.62,428.14 2065.94,429.32 2064.36,430.61 C2062.77,431.90 2060.91,432.75 2059.73,432.90 C2059.59,431.60 2060.11,430.06 2061.46,428.69 C2063.69,426.44 2067.52,425.38 2068.65,425.57 C2069.96,425.82 2071.33,427.58 2071.07,428.28 C2069.92,430.73 2062.86,431.33 2062.03,430.86 C2062.21,429.64 2062.54,428.92 2063.37,428.25 C2064.93,427.01 2068.43,425.56 2070.83,425.21 C2072.86,424.92 2074.37,425.24 2075.64,426.07 C2075.64,426.07 2076.09,427.69 2076.09,427.69 C2076.09,427.69 2075.53,428.76 2075.53,428.76 C2071.55,429.59 2070.05,425.49 2070.18,425.19 C2071.82,423.65 2075.63,426.20 2075.71,427.30 C2075.07,427.88 2071.03,427.36 2068.55,426.99 C2065.31,426.69 2061.51,428.52 2059.31,430.64 C2063.09,426.78 2066.88,427.28 2067.15,427.42 C2065.59,430.05 2059.20,430.30 2058.37,430.01 C2058.59,429.34 2058.73,429.08 2059.43,428.82 C2063.15,427.50 2070.05,426.89 2072.24,427.01 C2076.51,427.27 2078.22,428.99 2078.11,429.57 C2078.11,429.57 2076.20,427.33 2076.20,427.33 C2076.20,427.33 2082.31,428.62 2082.31,428.62 C2082.31,428.62 2080.75,426.79 2080.75,426.79 C2080.75,426.79 2081.77,428.25 2081.77,428.25 C2081.77,428.25 2083.62,428.35 2083.62,428.35 C2083.62,428.35 2083.49,427.30 2083.49,427.30 C2083.49,427.30 2085.43,428.40 2085.43,428.40 C2085.43,428.40 2083.81,434.08 2083.81,434.08 C2083.81,434.08 2083.83,431.49 2083.83,431.49 C2083.83,431.49 2083.18,437.00 2083.18,437.00 C2083.18,437.00 2082.49,438.26 2082.49,438.26 C2082.49,438.26 2083.30,434.71 2083.30,434.71 C2082.75,434.81 2080.39,436.07 2078.17,435.41 C2075.98,434.73 2075.44,434.11 2075.21,433.76 C2076.07,431.62 2081.46,435.07 2082.02,435.63 C2081.74,436.62 2081.59,436.95 2081.17,437.00 C2079.12,437.19 2075.97,435.21 2075.51,434.24 C2075.51,434.24 2081.89,436.32 2081.89,436.32 C2081.03,436.81 2080.64,436.95 2080.19,436.68 C2079.22,436.09 2076.99,434.32 2075.58,433.17 C2074.77,432.53 2074.69,432.22 2074.70,431.18 C2074.70,431.18 2067.92,432.98 2067.92,432.98 C2068.74,429.02 2073.20,430.53 2073.45,430.71 C2073.28,432.48 2064.87,435.66 2063.52,435.63 C2064.01,434.28 2075.04,431.41 2076.68,431.71 C2076.93,432.14 2075.54,433.96 2074.88,433.81 C2074.81,433.79 2074.66,433.73 2074.43,433.63 C2074.12,433.03 2074.67,431.54 2076.78,431.00 C2079.35,430.36 2081.88,432.00 2081.97,432.39 C2081.30,433.55 2079.81,433.38 2079.31,432.79 C2078.11,431.32 2079.59,430.24 2080.03,430.08" fill="none" stroke="rgb(133, 72, 65)" stroke-width="6.00" stroke-opacity="1.00" stroke-linejoin="round"/>
</g>
<g stroke-linecap="round" transform="translate(-2009.00, -416.00)" id="Layer_38">
<path d="M2028.12,429.51 C2024.98,430.28 2020.73,433.03 2018.76,434.70 C2016.67,436.53 2013.33,440.60 2013.05,442.69 C2013.68,443.44 2014.59,443.66 2016.54,443.42 C2020.45,442.96 2021.26,443.04 2021.75,443.30 C2021.00,445.51 2020.17,446.94 2018.55,448.51 C2016.95,450.06 2011.74,455.28 2011.47,456.98 C2011.33,458.06 2011.49,458.78 2011.96,459.14 C2012.81,459.77 2014.01,459.68 2015.02,459.99 C2015.44,460.12 2015.87,460.37 2016.30,460.76" fill="none" stroke="rgb(0, 0, 0)" stroke-width="5.40" stroke-opacity="1.00" stroke-linejoin="round"/>
<path d="M2016.96,460.17 C2019.07,460.53 2020.03,460.58 2020.54,460.01 C2028.25,450.73 2031.31,445.80 2032.56,444.84 C2034.01,443.79 2040.07,444.15 2042.30,443.77 C2045.30,443.18 2052.79,441.70 2053.91,441.38 C2055.28,441.00 2057.16,440.31 2058.11,439.89" fill="none" stroke="rgb(0, 0, 0)" stroke-width="5.40" stroke-opacity="1.00" stroke-linejoin="round"/>
<path d="M2053.53,440.73 C2055.91,441.32 2058.24,441.32 2060.28,440.59 C2061.05,440.31 2067.28,436.41 2067.88,436.22 C2070.16,435.54 2073.02,435.87 2075.11,437.06 C2075.97,437.57 2079.05,439.69 2079.74,440.02 C2080.79,440.49 2082.89,440.36 2083.73,439.74 C2085.09,438.63 2086.95,431.63 2087.01,429.80 C2087.02,428.70 2086.64,426.86 2086.14,426.32 C2084.89,425.08 2069.87,420.52 2067.22,419.50 C2064.15,418.35 2061.07,418.81 2055.11,420.35 C2054.32,420.56 2050.62,421.60 2049.69,421.83 C2048.15,422.21 2045.56,422.50 2043.86,422.49 C2043.41,422.48 2042.72,422.44 2041.79,422.35" fill="none" stroke="rgb(0, 0, 0)" stroke-width="5.40" stroke-opacity="1.00" stroke-linejoin="round"/>
<path d="M2047.75,420.82 C2046.03,423.06 2039.92,426.61 2038.09,428.34 C2036.98,429.50 2035.42,431.10 2034.54,431.68 C2033.97,431.45 2033.34,430.68 2033.09,430.41 C2032.63,429.97 2023.45,430.96 2020.88,432.25 C2020.46,432.47 2019.89,432.83 2019.16,433.33" fill="none" stroke="rgb(0, 0, 0)" stroke-width="5.40" stroke-opacity="1.00" stroke-linejoin="round"/>
</g>
</svg>
