<?xml version="1.0" encoding="UTF-8" standalone="no"?>
<!DOCTYPE svg PUBLIC "-//W3C//DTD SVG 1.1//EN" "http://www.w3.org/Graphics/SVG/1.1/DTD/svg11.dtd">
<svg width="19.68" height="8.40" viewBox="0.00 0.00 82.00 35.00" xmlns="http://www.w3.org/2000/svg" xmlns:xlink="http://www.w3.org/1999/xlink">
<g stroke-linecap="round" transform="translate(-2414.00, -439.00)" id="Layer_26">
<path d="M2422.40,449.83 C2422.94,450.04 2424.99,450.31 2429.12,449.57 C2432.92,448.87 2436.56,446.95 2436.73,446.90 C2436.73,446.90 2423.77,449.10 2423.77,449.10 C2428.26,448.44 2432.23,448.40 2434.35,448.72 C2436.27,449.02 2439.49,450.14 2440.11,450.47 C2440.11,450.47 2427.53,448.96 2427.53,448.96 C2427.94,448.42 2431.84,448.29 2434.51,448.58 C2441.96,449.60 2447.13,449.81 2447.35,449.44 C2446.92,449.17 2443.71,448.68 2441.36,448.64 C2439.25,448.63 2432.65,450.32 2432.63,450.31 C2432.63,450.31 2448.19,452.96 2448.19,452.96 C2448.19,452.96 2434.79,450.36 2434.79,450.36 C2435.49,451.13 2452.91,452.79 2453.51,452.75 C2453.62,452.74 2453.88,452.70 2454.28,452.64 C2454.28,452.64 2443.71,449.63 2443.71,449.63 C2444.17,449.29 2449.54,448.31 2452.13,448.23 C2454.27,448.19 2458.94,449.09 2459.95,449.56 C2459.38,449.62 2453.62,448.14 2452.19,448.23 C2451.68,448.27 2451.02,448.49 2450.57,448.68 C2450.57,448.68 2463.77,448.50 2463.77,448.50 C2463.77,448.50 2455.74,448.37 2455.74,448.37 C2459.10,445.12 2461.18,444.68 2461.84,444.69 C2462.12,444.99 2461.96,446.06 2461.56,446.40 C2460.26,447.39 2457.36,446.81 2457.07,446.22 C2456.94,445.86 2457.38,444.93 2458.29,444.61 C2459.56,444.21 2461.05,446.38 2461.11,446.33 C2461.11,446.33 2465.32,447.16 2465.32,447.16 C2465.13,449.09 2461.96,447.78 2461.96,446.85 C2462.46,445.95 2466.74,446.58 2467.21,448.05 C2467.41,448.78 2466.80,450.38 2465.99,451.07 C2464.91,451.95 2462.99,452.37 2462.20,451.91 C2461.48,451.46 2461.18,449.78 2461.63,449.06 C2462.07,448.41 2463.67,447.59 2464.44,447.69 C2465.28,447.82 2466.09,449.38 2465.93,450.41 C2465.74,451.42 2463.91,453.60 2462.30,454.26 C2460.85,454.83 2458.32,454.72 2457.63,454.26 C2457.08,453.86 2456.69,452.44 2457.17,451.62 C2458.77,449.09 2461.94,448.82 2462.23,448.88 C2462.75,449.40 2462.35,452.20 2461.36,454.04 C2460.52,455.56 2458.35,457.85 2457.27,458.46 C2456.60,458.81 2455.23,458.56 2454.85,457.29 C2454.33,455.48 2455.06,452.81 2456.01,451.52 C2456.56,450.80 2458.72,450.04 2459.33,450.32 C2460.19,450.77 2460.33,453.54 2459.38,454.85 C2458.44,456.10 2455.61,457.63 2454.28,457.68 C2453.11,457.69 2452.03,456.75 2451.67,455.97 C2451.24,454.94 2451.55,452.47 2452.45,451.21 C2453.00,450.50 2454.30,449.90 2454.83,449.92 C2455.38,450.03 2456.21,452.75 2456.03,455.09 C2455.88,456.75 2454.80,459.66 2454.32,460.26 C2453.75,460.92 2452.16,461.49 2451.38,460.99 C2448.91,459.31 2448.21,454.71 2448.40,453.79 C2448.40,453.79 2451.16,461.58 2451.16,461.58 C2450.53,461.51 2448.32,457.07 2448.53,455.71 C2448.56,455.57 2448.62,455.45 2448.73,455.33 C2449.63,455.58 2451.56,458.54 2452.21,460.09 C2453.63,463.47 2453.93,466.23 2453.58,466.56 C2452.93,466.18 2452.72,464.71 2452.99,463.68 C2453.51,461.80 2454.34,460.69 2455.04,461.22 C2455.04,461.22 2457.20,458.97 2457.20,458.97 C2458.22,460.31 2455.93,464.44 2455.84,464.54 C2455.76,463.54 2464.04,456.44 2465.65,456.32 C2465.77,456.32 2465.89,456.35 2466.01,456.42 C2466.21,456.89 2465.66,458.10 2462.63,459.56 C2461.06,460.31 2458.46,461.46 2458.39,461.46 C2462.94,457.50 2467.84,456.17 2468.11,456.45 C2468.44,456.89 2468.12,458.18 2467.43,459.15 C2466.51,460.39 2464.00,462.01 2463.19,461.97 C2462.14,461.86 2461.16,460.55 2461.58,459.65 C2462.01,458.80 2463.24,457.88 2464.27,457.21" fill="none" stroke="rgb(88, 129, 76)" stroke-width="6.00" stroke-opacity="1.00" stroke-linejoin="round"/>
<path d="M2463.86,455.15 C2464.36,453.99 2466.63,452.61 2468.15,452.49 C2469.13,452.45 2470.52,453.57 2470.71,454.38 C2470.87,455.13 2470.43,456.35 2469.93,456.62 C2469.35,456.91 2468.49,456.54 2468.09,455.71 C2467.74,454.93 2467.53,453.46 2467.69,452.96 C2467.89,452.38 2469.00,452.06 2469.70,452.71 C2472.50,455.38 2472.79,458.79 2472.70,459.35 C2472.35,459.72 2469.70,457.86 2469.02,456.80 C2468.56,456.02 2468.71,455.00 2469.33,454.80 C2470.11,454.61 2473.13,455.78 2474.70,456.77 C2476.63,458.03 2476.82,459.29 2476.70,459.63 C2475.15,460.96 2469.13,458.32 2469.14,457.89 C2470.24,457.67 2474.65,457.69 2476.62,458.12 C2479.13,458.71 2479.27,459.98 2479.18,460.46 C2478.50,461.29 2475.22,461.67 2473.32,461.09 C2469.87,460.01 2468.49,459.00 2468.38,458.56 C2468.63,458.07 2470.41,457.32 2472.50,457.29 C2474.67,457.28 2478.64,458.25 2479.79,459.00 C2480.41,459.42 2481.13,460.64 2481.04,461.14 C2480.48,461.58 2477.67,461.19 2476.00,460.10 C2473.32,458.33 2473.09,456.87 2473.13,456.50 C2473.63,456.10 2475.53,456.23 2477.48,457.12 C2482.81,459.60 2485.06,462.18 2485.17,462.54 C2483.45,462.63 2478.07,458.35 2477.65,457.55 C2477.83,457.49 2482.07,459.93 2486.60,462.35 C2487.94,463.10 2488.79,464.20 2489.02,464.74 C2489.02,464.74 2482.33,461.62 2482.33,461.62 C2482.33,461.62 2490.29,466.73 2490.29,466.73 C2490.98,467.44 2490.92,467.33 2476.57,456.59 C2475.57,455.86 2473.19,456.04 2472.92,455.99 C2472.64,455.95 2471.12,455.16 2469.39,455.09 C2474.98,455.03 2484.80,463.57 2485.10,464.14 C2484.51,464.28 2483.50,463.87 2480.01,462.24 C2476.61,460.65 2473.75,458.79 2473.30,457.63 C2473.12,457.07 2473.34,456.69 2473.55,456.47" fill="none" stroke="rgb(88, 129, 76)" stroke-width="6.00" stroke-opacity="1.00" stroke-linejoin="round"/>
</g>
<g stroke-linecap="round" transform="translate(-2414.00, -439.00)" id="Layer_40">
<path d="M2445.36,456.01 C2449.01,459.83 2449.97,468.67 2450.11,470.59 C2453.82,466.51 2459.28,464.31 2462.87,463.69 C2463.90,463.52 2466.14,463.31 2467.55,463.20" fill="none" stroke="rgb(0, 0, 0)" stroke-width="6.00" stroke-opacity="1.00" stroke-linejoin="round"/>
<path d="M2446.49,455.33 C2446.49,455.33 2416.52,450.28 2416.52,450.28 C2418.61,448.49 2422.66,446.92 2424.68,446.35 C2429.01,445.17 2439.04,445.97 2440.58,446.14 C2442.20,446.33 2445.75,446.82 2447.04,447.00" fill="none" stroke="rgb(0, 0, 0)" stroke-width="6.00" stroke-opacity="1.00" stroke-linejoin="round"/>
<path d="M2464.04,462.87 C2466.95,462.03 2468.62,461.72 2469.94,461.87 C2473.00,462.24 2491.53,469.68 2492.08,470.19 C2492.48,470.57 2493.40,471.95 2493.67,472.37 C2494.00,470.55 2493.89,469.16 2493.06,467.75 C2491.44,465.04 2486.27,459.76 2484.48,458.25 C2479.75,454.32 2472.21,451.59 2470.05,451.17 C2469.09,450.99 2468.12,450.82 2467.16,450.65" fill="none" stroke="rgb(0, 0, 0)" stroke-width="6.00" stroke-opacity="1.00" stroke-linejoin="round"/>
<path d="M2453.23,447.72 C2453.23,447.72 2453.20,447.79 2453.20,447.79" fill="none" stroke="rgb(0, 0, 0)" stroke-width="6.00" stroke-opacity="1.00" stroke-linejoin="round"/>
<path d="M2448.00,444.36 C2450.13,445.28 2451.82,445.40 2454.09,444.69 C2455.33,444.31 2456.47,442.62 2457.05,442.10 C2457.67,441.56 2463.94,442.75 2464.92,443.30 C2465.55,443.73 2466.44,444.31 2466.95,444.45 C2466.95,444.45 2467.32,443.90 2467.32,443.90" fill="none" stroke="rgb(0, 0, 0)" stroke-width="6.00" stroke-opacity="1.00" stroke-linejoin="round"/>
<path d="M2465.06,443.01 C2466.53,443.37 2467.40,443.74 2467.67,444.11 C2467.81,444.31 2468.02,448.06 2468.62,448.95 C2469.33,449.99 2471.20,451.74 2471.93,451.93 C2472.20,451.99 2472.70,451.96 2473.41,451.84" fill="none" stroke="rgb(0, 0, 0)" stroke-width="6.00" stroke-opacity="1.00" stroke-linejoin="round"/>
<path d="M2454.78,443.76 C2453.32,445.00 2452.22,445.57 2450.75,445.63 C2448.36,445.72 2441.77,445.07 2440.99,444.91 C2440.75,444.85 2440.55,444.68 2440.42,444.39" fill="none" stroke="rgb(0, 0, 0)" stroke-width="6.00" stroke-opacity="1.00" stroke-linejoin="round"/>
<path d="M2449.28,447.64 C2450.42,449.87 2451.86,451.29 2454.06,452.18 C2457.95,453.72 2463.42,452.91 2464.35,452.58 C2464.71,452.46 2465.50,452.14 2466.72,451.64" fill="none" stroke="rgb(0, 0, 0)" stroke-width="6.00" stroke-opacity="1.00" stroke-linejoin="round"/>
</g>
</svg>
