<?xml version="1.0" encoding="UTF-8" standalone="no"?>
<!DOCTYPE svg PUBLIC "-//W3C//DTD SVG 1.1//EN" "http://www.w3.org/Graphics/SVG/1.1/DTD/svg11.dtd">
<svg width="20.40" height="11.52" viewBox="0.00 0.00 85.00 48.00" xmlns="http://www.w3.org/2000/svg" xmlns:xlink="http://www.w3.org/1999/xlink">
<g stroke-linecap="round" transform="translate(-2293.00, -430.00)" id="Layer_46">
<path d="M2320.07,436.99 C2320.07,436.99 2314.18,438.98 2314.18,438.98 C2316.01,436.45 2322.00,435.01 2322.29,435.08 C2322.29,435.08 2314.30,438.45 2314.30,438.45 C2314.30,438.45 2319.09,435.71 2319.09,435.71 C2317.90,436.44 2313.38,438.72 2312.28,439.51 C2311.50,440.07 2310.43,441.12 2308.96,442.68 C2311.51,438.49 2314.98,436.61 2315.38,436.69 C2315.68,437.22 2309.63,441.68 2308.52,442.53 C2307.51,443.30 2304.60,445.75 2304.22,445.99 C2304.22,445.99 2309.90,440.87 2309.90,440.87 C2309.90,440.87 2301.89,447.48 2301.89,447.48 C2301.89,447.48 2306.37,443.04 2306.37,443.04 C2304.88,442.42 2299.79,450.56 2299.64,451.93 C2299.64,451.93 2302.56,445.36 2302.56,445.36 C2302.56,445.36 2299.01,457.68 2299.01,457.68 C2299.01,457.68 2299.93,451.52 2299.93,451.52 C2299.93,451.52 2299.93,460.62 2299.93,460.62 C2299.93,460.62 2298.53,457.06 2298.53,457.06 C2298.53,457.06 2300.09,463.61 2300.09,463.61 C2300.09,463.61 2297.92,461.47 2297.92,461.47 C2297.92,461.47 2303.46,465.62 2303.46,465.62 C2303.46,465.62 2299.66,463.78 2299.66,463.78 C2299.66,463.78 2310.58,467.49 2310.58,467.49 C2310.58,467.49 2301.85,465.80 2301.85,465.80 C2301.85,465.80 2320.00,472.30 2320.00,472.30 C2313.33,469.27 2308.99,469.17 2308.81,469.17 C2308.81,469.17 2325.85,472.73 2325.85,472.73 C2325.85,472.73 2319.81,471.62 2319.81,471.62 C2319.81,471.62 2334.71,472.05 2334.71,472.05 C2334.71,472.05 2326.73,472.27 2326.73,472.27 C2326.81,472.29 2331.92,470.50 2334.15,470.34 C2338.00,470.09 2340.44,470.58 2341.26,470.78 C2337.60,470.79 2334.04,472.09 2333.55,472.24 C2333.44,472.27 2333.29,472.30 2333.10,472.35 C2333.57,472.04 2340.06,471.18 2342.83,471.00 C2345.57,470.84 2346.69,471.48 2346.86,471.58 C2346.86,471.58 2342.93,471.21 2342.93,471.21 C2342.91,471.21 2347.48,470.32 2351.00,470.43 C2352.19,470.48 2353.69,470.69 2354.93,470.93 C2354.93,470.93 2348.84,470.85 2348.84,470.85 C2348.84,470.85 2357.31,471.37 2357.31,471.37 C2357.31,471.37 2351.03,470.89 2351.03,470.89 C2350.75,471.97 2358.08,472.26 2358.53,472.40 C2358.53,472.40 2357.77,471.12 2357.77,471.12" fill="none" stroke="rgb(217, 76, 66)" stroke-width="6.00" stroke-opacity="1.00" stroke-linejoin="round"/>
<path d="M2358.23,472.81 C2360.37,473.52 2365.67,470.21 2365.84,470.19 C2363.41,469.81 2361.75,471.55 2361.71,471.71 C2361.71,471.71 2368.62,469.38 2368.62,469.38 C2368.62,469.38 2366.48,470.94 2366.48,470.94 C2366.48,470.94 2370.83,467.60 2370.83,467.60 C2370.83,467.60 2368.90,470.00 2368.90,470.00 C2368.90,470.00 2371.00,460.53 2371.00,460.53 C2371.00,460.53 2370.86,467.38 2370.86,467.38 C2369.82,466.98 2370.76,459.48 2370.91,459.02 C2370.91,459.02 2371.36,461.43 2371.36,461.43 C2371.36,461.43 2368.72,455.58 2368.72,455.58 C2368.72,455.58 2370.62,457.88 2370.62,457.88 C2370.62,457.88 2365.11,452.73 2365.11,452.73 C2365.11,452.73 2367.75,454.69 2367.75,454.69 C2367.75,454.69 2360.52,448.30 2360.52,448.30 C2360.52,448.30 2366.79,452.09 2366.79,452.09 C2366.79,452.09 2360.82,446.83 2360.82,446.83 C2360.82,446.83 2365.97,450.21 2365.97,450.21 C2365.59,450.18 2362.23,448.39 2360.98,447.57 C2359.64,446.68 2357.37,444.42 2357.11,444.22 C2357.11,444.22 2359.78,445.50 2359.78,445.50 C2359.78,445.50 2353.87,443.72 2353.87,443.72 C2353.87,443.72 2355.87,445.01 2355.87,445.01 C2355.14,444.61 2352.70,442.45 2352.26,442.25 C2351.14,441.76 2349.91,442.31 2349.61,442.58 C2349.61,442.58 2352.22,443.04 2352.22,443.04 C2352.22,443.04 2347.55,441.77 2347.55,441.77 C2347.55,441.77 2350.71,442.50 2350.71,442.50 C2350.71,442.50 2344.10,441.18 2344.10,441.18 C2344.10,441.18 2346.76,442.29 2346.76,442.29 C2346.76,442.29 2340.22,438.82 2340.22,438.82 C2340.22,438.82 2341.61,440.18 2341.61,440.18 C2337.27,436.64 2334.10,436.61 2333.90,436.91 C2333.90,436.91 2338.88,437.11 2338.88,437.11 C2338.88,437.11 2329.95,435.18 2329.95,435.18 C2329.95,435.18 2333.54,435.76 2333.54,435.76 C2333.54,435.76 2324.63,436.52 2324.63,436.52 C2326.08,435.01 2331.16,436.08 2331.23,436.15 C2331.23,436.15 2322.68,436.87 2322.68,436.87 C2322.90,436.30 2329.76,434.25 2332.14,434.78 C2332.80,434.94 2333.31,436.10 2332.78,436.67 C2331.84,437.57 2329.00,438.17 2323.55,438.70 C2323.55,438.70 2330.89,437.95 2330.89,437.95" fill="none" stroke="rgb(217, 76, 66)" stroke-width="6.00" stroke-opacity="1.00" stroke-linejoin="round"/>
<path d="M2306.35,454.89 C2306.92,453.85 2308.84,451.93 2310.26,451.27 C2311.47,450.72 2313.11,450.99 2313.61,451.51 C2314.19,452.16 2314.38,453.94 2313.89,454.82 C2313.33,455.79 2311.25,457.25 2310.35,457.30 C2309.55,457.33 2308.69,456.46 2308.45,455.79 C2308.13,454.83 2308.17,451.95 2308.89,450.45 C2309.74,448.78 2312.41,446.27 2314.12,445.98 C2315.93,445.73 2319.68,447.50 2321.36,448.90 C2322.33,449.74 2322.70,451.02 2322.56,451.49 C2322.41,451.92 2321.12,453.09 2319.46,453.55 C2317.86,453.98 2315.50,453.22 2315.23,451.92 C2314.98,450.34 2316.96,447.92 2318.88,447.03 C2320.92,446.13 2325.92,445.80 2328.26,446.34 C2331.63,447.15 2332.53,449.26 2332.20,450.12 C2330.89,451.18 2322.35,451.31 2321.58,450.39 C2321.39,448.91 2322.94,445.63 2324.96,443.97 C2325.79,443.31 2328.17,442.57 2329.45,442.62 C2330.60,442.69 2333.79,443.87 2335.76,445.48 C2337.60,446.99 2339.41,450.18 2339.56,451.30 C2339.62,451.88 2338.82,452.80 2337.67,452.65 C2336.12,452.43 2333.33,450.83 2332.59,449.63 C2331.88,448.44 2331.91,446.10 2332.40,445.13 C2332.73,444.52 2333.86,444.14 2334.60,444.31 C2335.53,444.55 2338.09,446.32 2339.78,447.99 C2341.49,449.70 2344.06,453.71 2344.43,454.16 C2344.71,454.49 2346.19,454.35 2346.81,453.94 C2347.60,453.39 2348.86,450.40 2349.12,450.14 C2349.12,450.14 2352.78,450.52 2352.78,450.52 C2352.78,450.52 2347.28,448.02 2347.28,448.02 C2347.90,447.59 2354.59,450.79 2358.07,453.58 C2359.60,454.83 2360.21,456.20 2360.04,456.95 C2359.76,458.12 2362.42,459.49 2362.66,461.35 C2362.67,461.42 2362.65,461.50 2362.61,461.59 C2362.61,461.59 2361.54,462.96 2361.54,462.96 C2361.54,462.96 2359.97,463.23 2359.97,463.23 C2361.03,461.86 2362.80,462.96 2363.00,463.60 C2362.51,464.47 2356.59,464.59 2351.42,463.12 C2348.12,462.16 2347.50,461.69 2347.29,461.38 C2347.83,459.92 2351.08,458.57 2353.02,458.45 C2354.86,458.36 2357.27,459.17 2357.47,459.65 C2357.83,460.72 2355.70,462.94 2353.61,463.37 C2349.89,464.08 2340.73,462.38 2340.66,462.20 C2340.54,460.88 2343.06,458.36 2344.95,457.68 C2347.02,456.97 2350.61,457.16 2351.22,457.74 C2351.54,458.08 2351.43,459.43 2351.06,459.92 C2350.49,460.60 2347.95,462.06 2345.76,462.52 C2341.12,463.47 2335.16,463.38 2334.35,462.42 C2333.96,461.90 2334.43,460.41 2335.72,459.40 C2337.36,458.16 2340.42,457.48 2341.72,457.87 C2342.51,458.13 2343.19,459.14 2342.98,459.63 C2342.27,461.04 2330.92,464.03 2326.20,464.54 C2324.05,464.77 2321.56,464.54 2321.17,464.19 C2320.73,463.70 2321.24,461.82 2322.83,460.43 C2324.16,459.30 2326.99,458.61 2328.09,458.84 C2328.80,459.01 2330.17,460.14 2330.38,460.70 C2330.54,461.17 2330.07,462.36 2328.86,463.06 C2327.32,463.93 2321.88,465.25 2319.96,465.47 C2317.79,465.70 2314.87,465.09 2314.06,464.66 C2313.27,464.16 2313.09,462.84 2314.05,461.32 C2315.11,459.71 2318.05,458.10 2320.06,458.05 C2321.75,458.03 2322.50,458.34 2322.75,458.53 C2322.75,459.49 2322.43,460.22 2321.55,460.79 C2319.90,461.84 2316.30,462.56 2314.32,462.58 C2311.23,462.58 2308.52,460.40 2308.18,460.18 C2308.18,460.18 2313.13,458.78 2313.13,458.78 C2313.68,459.64 2312.75,460.41 2311.56,460.65 C2310.21,460.91 2308.65,460.76 2308.15,460.41 C2307.49,459.88 2307.74,457.67 2308.77,456.24 C2309.65,455.05 2312.06,453.83 2313.61,453.94 C2313.85,453.96 2314.34,454.03 2315.09,454.15" fill="none" stroke="rgb(217, 76, 66)" stroke-width="16.00" stroke-opacity="1.00" stroke-linejoin="round"/>
</g>
<g stroke-linecap="round" transform="translate(-2293.00, -430.00)" id="Layer_45">
<path d="M2309.50,456.61 C2309.50,456.61 2311.47,456.61 2311.47,456.61 C2311.47,456.61 2313.33,456.40 2313.33,456.40 C2313.33,456.40 2314.36,456.20 2314.36,456.20 C2314.36,456.20 2318.90,455.17 2318.90,455.17 C2318.90,455.17 2321.80,454.55 2321.80,454.55 C2321.80,454.55 2327.89,454.13 2327.89,454.13" fill="none" stroke="rgb(78, 110, 69)" stroke-width="6.00" stroke-opacity="1.00" stroke-linejoin="round"/>
<path d="M2317.56,454.75 C2317.56,454.75 2316.43,454.96 2316.43,454.96 C2316.43,454.96 2314.15,455.79 2314.15,455.79 C2314.15,455.79 2313.12,456.40 2313.12,456.40 C2313.12,456.40 2316.01,456.20 2316.01,456.20 C2316.46,455.80 2327.14,454.42 2339.57,455.79 C2340.08,455.89 2342.14,456.21 2342.46,456.20 C2342.46,456.20 2342.77,456.40 2342.77,456.40" fill="none" stroke="rgb(78, 110, 69)" stroke-width="6.00" stroke-opacity="1.00" stroke-linejoin="round"/>
<path d="M2341.01,455.99 C2341.01,455.99 2335.43,453.72 2335.43,453.72 C2335.43,453.72 2334.09,452.79 2334.09,452.79 C2334.32,451.45 2337.89,452.70 2338.43,453.20 C2338.43,453.20 2335.85,453.72 2335.85,453.72 C2335.85,453.72 2333.16,452.89 2333.16,452.89 C2333.16,452.89 2332.13,452.48 2332.13,452.48 C2332.13,452.48 2330.48,452.48 2330.48,452.48 C2330.48,452.48 2330.17,452.27 2330.17,452.27" fill="none" stroke="rgb(78, 110, 69)" stroke-width="6.00" stroke-opacity="1.00" stroke-linejoin="round"/>
<path d="M2330.37,452.27 C2330.37,452.27 2330.37,451.96 2330.37,451.96 C2330.37,451.96 2329.75,451.14 2329.75,451.14 C2329.75,451.14 2325.72,446.69 2325.72,446.69 C2325.72,446.69 2324.07,445.66 2324.07,445.66 C2324.07,445.66 2322.83,444.83 2322.83,444.83 C2322.83,444.83 2321.80,444.21 2321.80,444.21 C2321.80,444.21 2318.60,442.15 2318.60,442.15" fill="none" stroke="rgb(78, 110, 69)" stroke-width="6.00" stroke-opacity="1.00" stroke-linejoin="round"/>
<path d="M2320.87,444.21 C2320.87,444.21 2321.80,444.63 2321.80,444.63 C2321.80,444.63 2323.24,445.25 2323.24,445.25 C2323.24,445.25 2328.20,448.55 2328.20,448.55 C2328.20,448.55 2330.89,449.59 2330.89,449.59 C2330.89,449.59 2331.92,450.00 2331.92,450.00 C2331.92,450.00 2333.57,451.24 2333.57,451.24 C2333.57,451.24 2333.88,451.45 2333.88,451.45" fill="none" stroke="rgb(78, 110, 69)" stroke-width="6.00" stroke-opacity="1.00" stroke-linejoin="round"/>
<path d="M2337.60,452.69 C2337.60,452.69 2339.36,452.89 2339.36,452.89 C2339.36,452.89 2340.39,453.10 2340.39,453.10 C2340.39,453.10 2341.43,453.31 2341.43,453.31 C2341.43,453.31 2343.49,453.72 2343.49,453.72 C2343.49,453.72 2350.72,454.55 2350.72,454.55 C2350.72,454.55 2353.41,455.17 2353.41,455.17 C2353.41,455.17 2355.68,455.79 2355.68,455.79 C2355.68,455.79 2356.92,456.20 2356.92,456.20 C2356.92,456.20 2344.94,455.17 2344.94,455.17 C2344.94,455.17 2346.59,455.37 2346.59,455.37 C2346.59,455.37 2348.66,455.99 2348.66,455.99 C2348.66,455.99 2353.82,457.44 2353.82,457.44 C2353.82,457.44 2359.81,459.30 2359.81,459.30 C2359.81,459.30 2360.85,459.71 2360.85,459.71 C2360.85,459.71 2362.19,460.12 2362.19,460.12" fill="none" stroke="rgb(78, 110, 69)" stroke-width="6.00" stroke-opacity="1.00" stroke-linejoin="round"/>
<path d="M2361.78,460.12 C2361.78,460.12 2361.47,460.12 2361.47,460.12 C2361.47,460.12 2360.43,459.50 2360.43,459.50 C2360.43,459.50 2358.57,458.88 2358.57,458.88 C2358.57,458.88 2355.58,458.06 2355.58,458.06" fill="none" stroke="rgb(78, 110, 69)" stroke-width="6.00" stroke-opacity="1.00" stroke-linejoin="round"/>
</g>
<g stroke-linecap="round" transform="translate(-2293.00, -430.00)" id="Layer_39">
<path d="M2336.63,448.59 C2336.11,448.58 2332.61,445.17 2332.17,444.74 C2330.79,443.41 2325.97,441.13 2322.85,439.94 C2321.24,439.35 2317.36,438.71 2315.01,438.40 C2314.55,438.34 2314.07,438.29 2313.59,438.25" fill="none" stroke="rgb(0, 0, 0)" stroke-width="6.00" stroke-opacity="1.00" stroke-linejoin="round"/>
<path d="M2313.63,438.88 C2313.34,439.49 2315.61,441.49 2316.11,442.35 C2317.53,444.77 2322.92,450.68 2323.04,451.15 C2323.08,451.36 2323.11,451.57 2323.15,451.78" fill="none" stroke="rgb(0, 0, 0)" stroke-width="6.00" stroke-opacity="1.00" stroke-linejoin="round"/>
<path d="M2322.48,450.17 C2321.76,450.42 2317.88,450.36 2316.68,450.58 C2314.89,450.94 2309.07,453.25 2307.43,454.26 C2305.41,455.54 2303.44,457.40 2301.74,459.50 C2301.61,459.67 2301.39,459.92 2301.11,460.24" fill="none" stroke="rgb(0, 0, 0)" stroke-width="6.00" stroke-opacity="1.00" stroke-linejoin="round"/>
<path d="M2301.94,461.37 C2305.80,460.00 2309.17,459.43 2313.28,458.88 C2315.44,458.62 2327.05,457.72 2330.47,457.77 C2331.11,457.78 2331.75,457.78 2332.38,457.79" fill="none" stroke="rgb(0, 0, 0)" stroke-width="6.00" stroke-opacity="1.00" stroke-linejoin="round"/>
<path d="M2331.86,457.87 C2333.96,458.47 2337.22,459.37 2339.26,459.30 C2339.64,459.29 2340.25,459.06 2340.54,458.90 C2340.63,458.85 2340.79,458.74 2341.04,458.57" fill="none" stroke="rgb(0, 0, 0)" stroke-width="6.00" stroke-opacity="1.00" stroke-linejoin="round"/>
<path d="M2341.07,458.44 C2342.25,458.59 2344.96,458.24 2346.46,458.53 C2356.32,460.36 2367.86,464.12 2368.38,464.28 C2368.61,464.35 2368.87,464.42 2369.16,464.48" fill="none" stroke="rgb(0, 0, 0)" stroke-width="6.00" stroke-opacity="1.00" stroke-linejoin="round"/>
<path d="M2369.02,464.20 C2368.46,463.67 2367.18,461.65 2363.53,458.65 C2360.30,456.04 2357.41,454.75 2355.17,453.76 C2350.99,451.93 2348.31,451.08 2345.55,450.69 C2344.95,450.59 2340.41,450.20 2340.20,450.16 C2339.90,450.08 2338.71,449.05 2338.24,448.69 C2337.94,448.45 2337.34,448.02 2336.43,447.40" fill="none" stroke="rgb(0, 0, 0)" stroke-width="6.00" stroke-opacity="1.00" stroke-linejoin="round"/>
<path d="M2333.11,449.24 C2332.01,449.12 2330.40,449.87 2329.24,451.15 C2328.84,451.61 2328.68,453.20 2329.24,454.23 C2330.09,455.68 2333.49,457.43 2335.88,457.28 C2336.19,457.26 2336.83,457.18 2337.79,457.07" fill="none" stroke="rgb(0, 0, 0)" stroke-width="6.00" stroke-opacity="1.00" stroke-linejoin="round"/>
<path d="M2333.76,449.51 C2335.49,449.16 2340.64,450.59 2341.72,452.28 C2342.57,453.75 2342.55,456.08 2341.89,457.51" fill="none" stroke="rgb(0, 0, 0)" stroke-width="6.00" stroke-opacity="1.00" stroke-linejoin="round"/>
<path d="M2298.09,448.50 C2298.66,447.17 2300.78,443.96 2302.45,442.81 C2303.11,442.36 2304.60,441.70 2304.95,441.68 C2304.98,441.68 2305.32,441.67 2305.96,441.66" fill="none" stroke="rgb(0, 0, 0)" stroke-width="6.00" stroke-opacity="1.00" stroke-linejoin="round"/>
<path d="M2322.60,432.64 C2323.65,432.04 2326.69,432.05 2328.76,432.04 C2329.68,432.06 2334.22,433.28 2334.98,433.68 C2335.43,433.93 2339.99,436.76 2342.64,438.12 C2345.36,439.47 2350.79,440.39 2353.92,440.50 C2354.25,440.51 2354.74,440.50 2355.40,440.47" fill="none" stroke="rgb(0, 0, 0)" stroke-width="6.00" stroke-opacity="1.00" stroke-linejoin="round"/>
<path d="M2355.12,440.37 C2355.92,440.80 2361.64,442.67 2363.39,444.01 C2363.61,444.17 2365.51,446.08 2366.29,446.77" fill="none" stroke="rgb(0, 0, 0)" stroke-width="6.00" stroke-opacity="1.00" stroke-linejoin="round"/>
<path d="M2370.06,451.03 C2370.29,451.46 2372.39,454.20 2373.48,455.65 C2373.95,456.31 2374.26,457.07 2374.38,457.62" fill="none" stroke="rgb(0, 0, 0)" stroke-width="6.00" stroke-opacity="1.00" stroke-linejoin="round"/>
<path d="M2372.85,470.50 C2372.04,471.09 2367.52,473.01 2366.86,473.03 C2366.68,473.03 2366.39,472.98 2366.00,472.88" fill="none" stroke="rgb(0, 0, 0)" stroke-width="6.00" stroke-opacity="1.00" stroke-linejoin="round"/>
<path d="M2358.72,474.04 C2358.13,474.82 2350.12,473.75 2346.40,473.12 C2340.94,472.58 2327.75,474.79 2326.10,474.75 C2324.89,474.72 2322.31,474.21 2320.46,473.72 C2320.05,473.61 2319.39,473.44 2318.49,473.21" fill="none" stroke="rgb(0, 0, 0)" stroke-width="6.00" stroke-opacity="1.00" stroke-linejoin="round"/>
<path d="M2303.31,468.80 C2302.31,468.33 2297.96,465.13 2297.18,464.36 C2296.32,463.50 2295.50,462.05 2295.37,461.27 C2295.35,461.11 2295.36,460.90 2295.40,460.64" fill="none" stroke="rgb(0, 0, 0)" stroke-width="6.00" stroke-opacity="1.00" stroke-linejoin="round"/>
</g>
</svg>
