<?xml version="1.0" encoding="UTF-8" standalone="no"?>
<!DOCTYPE svg PUBLIC "-//W3C//DTD SVG 1.1//EN" "http://www.w3.org/Graphics/SVG/1.1/DTD/svg11.dtd">
<svg width="26.40" height="20.64" viewBox="0.00 0.00 110.00 86.00" xmlns="http://www.w3.org/2000/svg" xmlns:xlink="http://www.w3.org/1999/xlink">
<g stroke-linecap="round" transform="translate(-2280.00, -486.00)" id="Layer_42">
<path d="M2321.20,525.98 C2320.46,525.11 2320.23,523.27 2322.05,519.37 C2322.89,517.63 2326.62,512.95 2329.23,511.54 C2330.40,510.93 2332.95,511.29 2334.05,512.35 C2335.19,513.52 2337.17,517.88 2337.38,521.15 C2337.56,524.76 2336.29,529.60 2334.82,531.19 C2332.95,533.09 2327.78,535.22 2324.75,535.12 C2323.59,535.06 2321.39,533.60 2320.78,532.41 C2320.20,531.19 2319.98,527.54 2320.39,525.73 C2320.81,523.95 2322.48,519.96 2323.76,517.98 C2325.04,516.04 2328.14,512.69 2329.41,511.86 C2331.21,510.71 2333.49,510.02 2334.88,510.19 C2335.81,510.34 2337.27,512.42 2337.65,514.19 C2338.05,516.44 2336.83,522.15 2334.44,525.71 C2332.31,528.77 2325.94,533.78 2323.25,534.83 C2321.94,535.32 2319.87,535.52 2319.12,535.32 C2318.55,535.14 2318.12,532.87 2318.36,531.19 C2318.66,529.31 2320.52,525.31 2321.96,523.01 C2323.37,520.81 2326.83,516.93 2328.74,515.39 C2330.91,513.70 2334.96,511.91 2336.68,512.21 C2337.78,513.24 2337.72,517.40 2336.95,518.96 C2335.55,521.62 2330.95,526.63 2328.42,528.43 C2326.06,530.07 2323.07,531.02 2322.17,530.57 C2321.73,530.32 2320.90,528.13 2321.31,524.20 C2321.73,520.40 2326.32,511.17 2326.26,511.00 C2325.72,510.92 2313.71,520.16 2308.82,522.41 C2304.80,524.21 2299.98,524.54 2299.08,523.94 C2298.31,523.26 2297.66,519.59 2298.90,515.86 C2299.37,514.48 2302.09,510.07 2303.16,508.87 C2305.98,505.77 2310.53,503.49 2312.50,503.73 C2313.17,503.85 2314.18,505.53 2314.30,506.72 C2314.40,508.08 2313.09,511.36 2311.18,514.40 C2306.76,521.37 2304.66,522.61 2304.08,522.67 C2303.30,521.69 2303.21,520.57 2304.03,519.03 C2305.39,516.54 2310.30,511.49 2312.49,510.38 C2314.46,509.41 2316.41,509.60 2316.71,510.33 C2316.95,510.99 2317.01,514.67 2315.76,517.00 C2314.54,519.18 2309.54,522.72 2306.27,523.83 C2303.41,524.76 2299.51,524.73 2298.81,523.99 C2297.86,522.79 2298.33,517.56 2300.10,514.31 C2303.60,508.08 2307.04,506.75 2307.45,506.72 C2307.61,508.15 2305.11,511.03 2303.00,512.73 C2300.89,514.39 2296.68,515.96 2295.20,515.84 C2295.20,515.84 2297.39,508.64 2297.39,508.64 C2297.39,508.64 2294.97,509.28 2294.97,509.28 C2294.45,506.97 2299.73,503.74 2300.33,503.53 C2300.41,503.50 2300.73,503.41 2301.29,503.24" fill="none" stroke="rgb(217, 92, 66)" stroke-width="16.00" stroke-opacity="1.00" stroke-linejoin="round"/>
<path d="M2299.16,505.06 C2299.72,503.61 2303.24,500.46 2305.66,498.73 C2308.33,496.89 2314.33,494.82 2317.65,495.34 C2319.00,495.57 2320.87,496.43 2322.86,497.57" fill="none" stroke="rgb(217, 92, 66)" stroke-width="16.00" stroke-opacity="1.00" stroke-linejoin="round"/>
<path d="M2318.80,495.15 C2319.68,495.29 2323.95,494.18 2326.43,494.20 C2327.66,494.21 2336.30,496.53 2336.79,496.73 C2337.72,497.12 2338.83,498.08 2338.92,498.61 C2339.00,499.09 2339.17,500.28 2339.22,500.37 C2339.22,500.37 2348.86,502.99 2348.86,502.99" fill="none" stroke="rgb(217, 92, 66)" stroke-width="16.00" stroke-opacity="1.00" stroke-linejoin="round"/>
<path d="M2341.80,496.66 C2341.85,496.79 2346.81,500.33 2348.90,501.89 C2351.39,503.67 2354.43,505.15 2355.73,505.74 C2352.19,505.55 2344.16,504.52 2342.64,504.44 C2337.39,504.18 2327.17,506.99 2324.37,507.12 C2324.22,505.85 2324.52,505.13 2325.80,504.53 C2328.97,503.08 2334.53,502.56 2337.26,503.27 C2338.17,503.52 2338.75,503.88 2339.02,504.24 C2339.07,505.13 2337.70,506.45 2334.99,507.22 C2328.48,509.03 2324.03,508.11 2323.59,507.69" fill="none" stroke="rgb(217, 92, 66)" stroke-width="16.00" stroke-opacity="1.00" stroke-linejoin="round"/>
<path d="M2307.58,495.80 C2305.67,496.25 2302.24,499.38 2300.64,502.48 C2299.05,505.64 2297.69,511.82 2297.69,515.02 C2297.72,517.65 2298.53,519.40 2299.24,519.65" fill="none" stroke="rgb(217, 92, 66)" stroke-width="16.00" stroke-opacity="1.00" stroke-linejoin="round"/>
<path d="M2305.40,498.86 C2302.57,500.58 2296.80,508.71 2294.93,512.69 C2293.01,516.80 2289.90,527.58 2291.03,530.73 C2291.21,531.15 2291.99,531.87 2292.43,532.07 C2292.99,532.30 2293.81,532.34 2294.49,532.24" fill="none" stroke="rgb(217, 92, 66)" stroke-width="16.00" stroke-opacity="1.00" stroke-linejoin="round"/>
<path d="M2293.91,520.24 C2292.55,521.08 2290.48,524.37 2289.82,527.58 C2289.53,529.09 2289.63,531.81 2289.98,533.38 C2290.62,536.03 2293.22,539.34 2293.67,539.41 C2294.55,539.35 2300.38,539.21 2302.95,540.63 C2307.67,543.15 2314.26,546.73 2315.78,548.65" fill="none" stroke="rgb(217, 92, 66)" stroke-width="16.00" stroke-opacity="1.00" stroke-linejoin="round"/>
<path d="M2303.37,539.72 C2302.85,540.09 2303.16,540.97 2304.53,542.42 C2306.18,544.17 2311.39,548.35 2314.99,550.92 C2316.45,551.96 2319.40,556.45 2319.66,557.29 C2319.49,557.08 2315.29,555.46 2314.22,553.87 C2314.18,553.79 2314.15,553.77 2314.13,553.81 C2314.13,553.81 2315.05,555.95 2315.05,555.95 C2315.05,555.95 2319.16,557.94 2319.16,557.94 C2319.06,556.66 2310.96,543.79 2309.84,541.62 C2307.13,536.31 2304.26,527.89 2304.10,525.50 C2304.95,525.55 2305.52,525.91 2306.32,527.16 C2311.25,534.82 2315.90,538.23 2316.04,538.35 C2316.03,538.39 2311.86,536.87 2310.42,536.08 C2305.92,533.54 2305.06,529.81 2305.20,529.57 C2305.20,529.57 2306.43,529.28 2306.43,529.28 C2312.20,534.31 2319.96,550.14 2320.22,552.17 C2320.35,553.38 2319.91,554.39 2318.96,555.52 C2320.72,555.94 2321.43,556.20 2321.79,556.63 C2322.11,557.03 2323.92,559.74 2323.60,560.01 C2323.46,560.12 2323.07,560.51 2322.41,561.18 C2322.41,561.18 2325.97,561.33 2325.97,561.33 C2326.98,560.31 2330.31,559.33 2331.29,558.00 C2332.21,556.73 2338.28,551.15 2338.70,550.24 C2338.81,549.99 2338.95,549.55 2339.13,548.93" fill="none" stroke="rgb(217, 92, 66)" stroke-width="16.00" stroke-opacity="1.00" stroke-linejoin="round"/>
<path d="M2329.17,558.53 C2328.22,559.54 2327.75,560.12 2327.74,560.25 C2327.75,560.57 2336.70,556.67 2337.05,556.44 C2337.95,555.85 2337.90,554.80 2337.84,554.55 C2337.84,554.55 2332.11,560.24 2332.11,560.24 C2332.11,560.24 2341.83,552.93 2341.83,552.93 C2339.74,553.26 2335.15,553.28 2332.55,552.62 C2330.19,551.99 2326.99,550.33 2326.42,549.33 C2325.70,547.93 2326.01,545.08 2327.27,543.31 C2328.69,541.42 2333.54,538.08 2335.61,537.85 C2337.42,537.71 2338.93,539.07 2339.16,540.06 C2339.35,541.02 2338.91,543.89 2337.45,545.54 C2336.06,547.06 2331.10,548.34 2329.36,547.63 C2328.57,547.27 2327.64,545.91 2327.41,544.78 C2327.19,543.35 2327.65,540.78 2328.46,539.52 C2329.79,537.50 2333.71,535.13 2336.60,534.63 C2340.16,534.05 2347.53,534.95 2349.66,536.19 C2350.30,536.60 2350.92,537.54 2350.98,538.26 C2351.09,540.40 2349.05,543.93 2347.98,544.50 C2346.38,545.29 2343.64,544.69 2342.32,543.42 C2341.12,542.16 2338.53,535.93 2338.63,532.35 C2338.78,529.16 2342.37,521.69 2344.79,519.08 C2346.19,517.62 2349.03,515.73 2350.35,515.41 C2351.44,515.17 2353.15,515.42 2353.59,515.78 C2354.69,516.86 2356.28,521.16 2355.89,524.06 C2355.55,526.42 2353.77,529.20 2352.88,529.31 C2352.43,529.33 2350.78,528.29 2349.17,525.51 C2347.26,522.15 2346.34,516.82 2347.08,515.05 C2347.70,513.79 2351.55,511.86 2354.34,512.31 C2355.35,512.48 2357.81,513.47 2360.26,514.54 C2360.41,514.61 2360.85,514.80 2360.70,514.74" fill="none" stroke="rgb(217, 92, 66)" stroke-width="16.00" stroke-opacity="1.00" stroke-linejoin="round"/>
<path d="M2351.14,500.46 C2351.14,501.40 2351.26,502.22 2351.61,502.68 C2351.73,502.84 2352.03,503.16 2352.52,503.65" fill="none" stroke="rgb(217, 92, 66)" stroke-width="16.00" stroke-opacity="1.00" stroke-linejoin="round"/>
<path d="M2358.08,508.51 C2359.26,507.79 2362.83,508.23 2365.44,508.99 C2367.20,509.52 2370.19,511.10 2371.04,513.03 C2371.38,513.82 2371.52,515.70 2371.50,516.53" fill="none" stroke="rgb(217, 92, 66)" stroke-width="16.00" stroke-opacity="1.00" stroke-linejoin="round"/>
<path d="M2367.53,510.30 C2368.56,510.99 2372.08,514.39 2372.66,516.50 C2374.60,523.71 2377.92,533.35 2376.99,535.11 C2376.72,534.13 2376.72,529.29 2376.36,527.36 C2376.27,526.92 2375.08,521.23 2375.05,520.59 C2375.05,520.59 2379.13,541.34 2379.13,541.34 C2379.13,541.34 2380.54,536.56 2380.54,536.56 C2380.54,536.56 2375.46,547.80 2375.46,547.80 C2375.46,547.80 2377.15,543.01 2377.15,543.01 C2377.15,543.01 2368.51,556.80 2368.51,556.80 C2367.01,556.71 2372.90,548.47 2373.88,547.60 C2373.88,547.60 2363.80,560.86 2363.80,560.86 C2363.80,560.86 2368.48,555.19 2368.48,555.19 C2369.42,556.95 2362.96,562.11 2362.68,561.97 C2362.68,561.97 2369.00,554.79 2369.00,554.79 C2369.51,555.64 2367.62,559.26 2366.28,560.18 C2364.68,561.12 2358.64,561.89 2357.34,561.02 C2356.83,560.63 2356.72,559.05 2357.24,558.02 C2358.84,555.00 2361.20,554.86 2361.54,554.98 C2361.81,555.71 2361.25,557.47 2360.15,558.68 C2358.99,559.92 2356.09,561.40 2354.64,561.50 C2353.30,561.56 2351.80,560.30 2351.70,559.22 C2351.63,558.14 2352.86,556.02 2353.97,555.59 C2355.35,555.11 2358.33,556.02 2359.54,557.37 C2360.51,558.50 2361.29,560.86 2361.16,561.72 C2360.52,562.42 2358.35,563.11 2356.88,563.06 C2355.29,562.98 2352.59,561.47 2351.91,560.45 C2351.39,559.64 2352.03,558.08 2353.02,557.65 C2355.72,556.49 2358.13,556.80 2358.33,557.00 C2358.57,557.57 2357.84,558.79 2356.60,559.36 C2355.25,559.95 2351.71,560.22 2350.33,559.53 C2348.85,558.75 2346.38,555.68 2345.93,554.48 C2345.59,553.51 2345.93,551.51 2346.71,550.21 C2347.64,548.74 2351.25,546.11 2353.92,545.64 C2355.34,545.41 2356.68,545.79 2357.56,546.45 C2358.55,548.59 2357.78,552.14 2356.55,553.48 C2355.77,554.26 2352.74,554.99 2351.64,554.51 C2350.62,554.04 2349.34,551.23 2349.38,548.70 C2349.46,546.23 2352.42,539.86 2354.61,537.64 C2355.62,536.65 2358.48,535.54 2359.90,535.54 C2361.23,535.57 2363.53,536.66 2364.22,537.65 C2365.00,538.84 2365.38,542.83 2364.26,546.25 C2363.57,548.26 2362.05,551.45 2361.24,552.43 C2360.42,553.40 2359.11,554.04 2358.22,554.16 C2357.63,553.92 2356.61,552.28 2356.07,550.36 C2355.44,548.04 2355.23,543.27 2355.50,540.49 C2355.79,537.71 2357.24,532.15 2358.30,529.70 C2359.23,527.57 2361.77,523.67 2362.73,522.86 C2363.63,522.13 2365.41,521.72 2365.87,521.93 C2366.39,522.22 2367.44,524.55 2367.84,526.73 C2368.21,528.88 2368.16,534.80 2367.81,537.07 C2367.47,539.20 2366.32,543.15 2365.10,545.10 C2364.07,545.12 2363.58,544.92 2363.31,544.16 C2362.10,540.67 2362.10,531.41 2363.48,527.09 C2364.25,524.78 2366.32,521.59 2367.46,521.56 C2367.96,521.57 2368.34,521.66 2368.60,521.81 C2368.77,521.92 2369.06,522.21 2369.46,522.67" fill="none" stroke="rgb(217, 92, 66)" stroke-width="16.00" stroke-opacity="1.00" stroke-linejoin="round"/>
</g>
<g stroke-linecap="round" transform="translate(-2280.00, -486.00)" id="Layer_50">
<path d="M2301.72,490.72 C2301.10,490.75 2300.78,490.96 2299.42,492.36 C2291.44,500.24 2285.89,511.43 2285.65,512.52 C2285.63,512.63 2285.62,512.77 2285.63,512.93" fill="none" stroke="rgb(0, 0, 0)" stroke-width="6.00" stroke-opacity="1.00" stroke-linejoin="round"/>
<path d="M2288.56,507.37 C2287.26,509.38 2286.52,511.25 2285.42,514.80 C2284.84,516.77 2283.90,519.98 2283.68,523.38 C2283.17,531.41 2284.39,537.17 2284.47,537.41 C2284.57,537.75 2284.79,538.33 2285.13,539.15" fill="none" stroke="rgb(0, 0, 0)" stroke-width="6.00" stroke-opacity="1.00" stroke-linejoin="round"/>
<path d="M2284.38,536.71 C2284.19,537.83 2285.81,540.71 2287.33,542.48 C2288.57,543.86 2292.83,545.83 2295.47,546.15 C2296.05,546.22 2302.86,547.15 2303.85,547.37 C2304.17,547.44 2304.44,547.46 2304.67,547.42" fill="none" stroke="rgb(0, 0, 0)" stroke-width="6.00" stroke-opacity="1.00" stroke-linejoin="round"/>
<path d="M2298.43,546.20 C2300.87,547.11 2303.27,549.32 2304.56,551.28 C2305.72,553.07 2307.39,556.77 2307.88,558.07" fill="none" stroke="rgb(0, 0, 0)" stroke-width="6.00" stroke-opacity="1.00" stroke-linejoin="round"/>
<path d="M2307.29,556.24 C2307.19,557.10 2308.20,559.50 2309.55,560.96 C2310.77,562.23 2314.21,563.63 2318.03,565.50 C2318.43,565.69 2318.87,565.88 2319.36,566.06" fill="none" stroke="rgb(0, 0, 0)" stroke-width="6.00" stroke-opacity="1.00" stroke-linejoin="round"/>
<path d="M2317.90,565.60 C2318.32,565.92 2323.75,568.65 2325.26,568.52 C2327.60,568.27 2331.00,566.99 2332.13,566.48 C2332.42,566.34 2333.00,566.07 2333.86,565.66" fill="none" stroke="rgb(0, 0, 0)" stroke-width="6.00" stroke-opacity="1.00" stroke-linejoin="round"/>
<path d="M2332.02,565.80 C2332.85,565.95 2336.70,564.42 2339.51,564.02 C2342.71,563.58 2345.43,564.10 2346.18,564.68 C2346.78,565.14 2348.35,566.49 2348.61,566.61 C2348.68,566.65 2348.86,566.71 2349.14,566.81" fill="none" stroke="rgb(0, 0, 0)" stroke-width="6.00" stroke-opacity="1.00" stroke-linejoin="round"/>
<path d="M2348.38,566.40 C2349.25,567.35 2353.11,569.10 2355.19,569.29 C2359.53,569.63 2364.42,568.55 2366.12,567.57 C2367.19,566.95 2369.38,565.28 2370.06,564.83 C2370.41,564.59 2371.08,564.19 2372.06,563.64" fill="none" stroke="rgb(0, 0, 0)" stroke-width="6.00" stroke-opacity="1.00" stroke-linejoin="round"/>
<path d="M2370.75,565.11 C2371.70,563.81 2378.90,553.64 2380.44,549.78 C2381.71,546.60 2382.13,545.67 2383.28,543.57 C2383.50,543.16 2383.80,542.58 2384.20,541.81" fill="none" stroke="rgb(0, 0, 0)" stroke-width="6.00" stroke-opacity="1.00" stroke-linejoin="round"/>
<path d="M2383.58,545.11 C2383.57,544.43 2386.52,535.95 2386.76,535.15 C2386.99,534.36 2385.53,526.19 2385.20,525.12 C2384.65,523.38 2380.76,514.88 2379.88,513.41 C2379.64,512.99 2379.39,512.58 2379.14,512.16" fill="none" stroke="rgb(0, 0, 0)" stroke-width="6.00" stroke-opacity="1.00" stroke-linejoin="round"/>
<path d="M2380.91,514.70 C2380.41,514.34 2379.57,513.30 2379.25,512.90 C2378.87,512.42 2375.41,508.29 2374.35,506.90 C2373.04,505.18 2369.29,502.73 2366.82,501.80 C2364.40,500.91 2358.87,500.53 2358.83,500.53 C2358.51,500.48 2358.05,500.35 2357.46,500.15" fill="none" stroke="rgb(0, 0, 0)" stroke-width="6.00" stroke-opacity="1.00" stroke-linejoin="round"/>
<path d="M2357.57,500.09 C2357.02,500.32 2356.44,500.28 2355.85,499.84 C2355.37,499.49 2352.35,496.84 2350.10,494.84 C2348.20,493.17 2344.92,491.51 2341.18,490.40 C2337.42,489.35 2333.88,488.68 2330.50,488.75 C2327.45,488.82 2322.45,487.65 2320.69,487.58 C2317.96,487.48 2311.01,488.46 2308.82,489.15 C2306.71,489.83 2302.40,491.57 2300.99,492.40 C2300.75,492.54 2300.37,492.78 2299.84,493.13" fill="none" stroke="rgb(0, 0, 0)" stroke-width="6.00" stroke-opacity="1.00" stroke-linejoin="round"/>
</g>
</svg>
