<?xml version="1.0" encoding="UTF-8" standalone="no"?>
<!DOCTYPE svg PUBLIC "-//W3C//DTD SVG 1.1//EN" "http://www.w3.org/Graphics/SVG/1.1/DTD/svg11.dtd">
<svg width="21.12" height="20.40" viewBox="0.00 0.00 88.00 85.00" xmlns="http://www.w3.org/2000/svg" xmlns:xlink="http://www.w3.org/1999/xlink">
<g stroke-linecap="round" transform="translate(-2418.00, -491.00)" id="Layer_43">
<path d="M2450.41,540.70 C2450.41,540.70 2448.77,540.65 2448.77,540.65 C2448.16,539.75 2447.66,537.95 2447.70,535.98 C2447.78,532.62 2450.73,526.93 2452.13,525.02 C2455.15,521.03 2461.32,517.58 2462.83,517.71 C2463.48,517.81 2464.78,519.30 2465.22,520.48 C2465.75,522.02 2465.81,525.18 2465.31,526.70 C2464.59,528.78 2461.43,533.14 2459.43,534.73 C2457.35,536.33 2454.38,537.49 2453.44,537.04 C2453.06,535.69 2454.73,530.49 2456.51,527.82 C2458.78,524.48 2461.88,522.44 2463.23,522.61 C2464.11,523.65 2463.53,528.26 2462.60,530.96 C2461.77,533.27 2458.80,538.50 2456.81,540.74 C2455.40,542.30 2453.69,542.68 2452.67,542.75 C2451.45,541.91 2450.73,537.04 2450.90,535.03 C2451.26,531.29 2453.75,525.76 2454.90,524.82 C2455.69,524.20 2456.57,523.89 2457.49,523.80 C2458.12,524.37 2458.52,525.75 2458.26,527.55 C2457.98,529.44 2457.09,531.95 2456.12,533.70 C2455.13,535.39 2453.42,537.04 2451.65,538.03 C2450.68,538.56 2449.46,538.60 2448.28,538.44 C2447.43,537.49 2446.82,536.15 2446.34,533.97 C2446.26,533.58 2446.12,532.87 2445.92,531.84" fill="none" stroke="rgb(211, 83, 73)" stroke-width="16.00" stroke-opacity="1.00" stroke-linejoin="round"/>
<path d="M2440.91,523.71 C2440.91,523.71 2440.71,524.32 2440.71,524.32 C2439.99,524.13 2439.08,522.31 2438.51,519.72 C2438.27,518.60 2438.51,517.56 2438.90,516.55 C2440.04,516.22 2441.03,516.55 2441.36,517.73 C2441.65,518.78 2441.32,521.27 2440.77,522.58 C2440.19,523.93 2439.39,524.57 2438.62,524.59 C2437.87,524.04 2437.07,523.17 2436.98,522.49 C2436.77,520.87 2438.66,518.58 2439.75,518.34 C2440.91,518.12 2443.26,519.08 2444.02,520.08 C2444.36,520.59 2444.51,522.46 2444.17,523.44 C2443.77,524.52 2441.47,526.80 2440.34,527.26 C2439.09,527.71 2436.91,526.83 2436.12,525.59 C2434.85,523.43 2435.02,518.22 2435.91,517.28 C2436.45,518.63 2436.32,519.89 2435.30,521.61 C2434.35,523.18 2430.72,523.32 2429.68,523.26 C2429.68,523.26 2431.33,520.60 2431.33,520.60 C2431.33,520.60 2430.08,525.77 2430.08,525.77 C2430.08,525.77 2430.92,519.15 2430.92,519.15 C2432.23,520.54 2431.99,523.59 2431.86,524.12 C2430.83,523.99 2430.20,518.43 2431.19,516.17 C2431.64,515.19 2432.30,514.45 2432.83,514.14 C2432.83,514.14 2431.89,517.23 2431.89,517.23 C2431.54,516.58 2431.61,515.78 2432.32,514.39 C2433.82,511.48 2437.12,508.55 2438.38,508.31 C2438.38,508.31 2437.30,510.48 2437.30,510.48 C2437.30,510.48 2440.79,504.97 2440.79,504.97" fill="none" stroke="rgb(211, 83, 73)" stroke-width="16.00" stroke-opacity="1.00" stroke-linejoin="round"/>
<path d="M2440.88,504.83 C2440.88,504.83 2442.78,500.99 2442.78,500.99" fill="none" stroke="rgb(211, 83, 73)" stroke-width="16.00" stroke-opacity="1.00" stroke-linejoin="round"/>
<path d="M2442.78,500.95 C2442.78,500.95 2441.94,501.26 2441.94,501.26 C2441.94,501.26 2442.37,500.38 2442.37,500.38 C2442.37,500.38 2442.12,500.92 2442.12,500.92" fill="none" stroke="rgb(211, 83, 73)" stroke-width="16.00" stroke-opacity="1.00" stroke-linejoin="round"/>
<path d="M2445.37,508.49 C2447.20,510.39 2448.26,511.46 2448.93,511.99 C2450.57,513.26 2456.13,516.56 2457.70,517.48 C2457.99,517.65 2458.27,517.81 2458.56,517.98" fill="none" stroke="rgb(211, 83, 73)" stroke-width="16.00" stroke-opacity="1.00" stroke-linejoin="round"/>
<path d="M2450.11,509.35 C2451.04,508.70 2452.22,508.37 2454.40,508.22 C2455.37,508.17 2458.20,509.18 2459.48,510.07 C2460.04,510.47 2460.91,511.28 2462.08,512.51 C2462.15,512.59 2462.35,512.81 2462.28,512.74" fill="none" stroke="rgb(211, 83, 73)" stroke-width="16.00" stroke-opacity="1.00" stroke-linejoin="round"/>
<path d="M2464.95,511.02 C2467.08,510.90 2473.87,510.69 2476.55,510.05 C2477.31,509.86 2478.06,509.65 2478.79,509.42 C2479.13,509.30 2479.89,509.04 2481.07,508.63" fill="none" stroke="rgb(211, 83, 73)" stroke-width="16.00" stroke-opacity="1.00" stroke-linejoin="round"/>
<path d="M2472.04,511.65 C2473.43,509.18 2476.31,506.16 2477.14,505.31 C2477.34,505.10 2477.54,504.90 2477.73,504.70" fill="none" stroke="rgb(211, 83, 73)" stroke-width="16.00" stroke-opacity="1.00" stroke-linejoin="round"/>
<path d="M2478.90,504.20 C2478.90,504.20 2479.50,500.92 2479.50,500.92" fill="none" stroke="rgb(211, 83, 73)" stroke-width="16.00" stroke-opacity="1.00" stroke-linejoin="round"/>
<path d="M2482.22,503.43 C2483.15,504.19 2484.14,504.46 2486.24,504.43 C2486.75,504.42 2487.38,504.42 2488.15,504.43" fill="none" stroke="rgb(211, 83, 73)" stroke-width="16.00" stroke-opacity="1.00" stroke-linejoin="round"/>
<path d="M2487.60,504.52 C2487.60,504.52 2491.99,503.32 2491.99,503.32" fill="none" stroke="rgb(211, 83, 73)" stroke-width="16.00" stroke-opacity="1.00" stroke-linejoin="round"/>
<path d="M2492.23,503.16 C2492.54,502.98 2496.84,506.00 2495.52,517.28 C2495.46,517.71 2495.25,518.77 2495.23,519.06" fill="none" stroke="rgb(211, 83, 73)" stroke-width="16.00" stroke-opacity="1.00" stroke-linejoin="round"/>
<path d="M2495.10,512.51 C2494.71,515.10 2494.43,516.78 2494.12,518.08 C2493.54,520.57 2491.56,527.00 2491.66,529.61 C2492.25,529.50 2493.18,530.11 2492.92,530.85 C2491.29,535.40 2490.31,536.84 2489.79,537.18 C2489.79,537.18 2490.80,535.62 2490.80,535.62 C2490.80,535.62 2486.87,537.99 2486.87,537.99 C2486.87,537.99 2491.27,534.69 2491.27,534.69 C2491.27,534.69 2481.42,540.72 2481.42,540.72 C2481.42,540.72 2486.48,535.96 2486.48,535.96 C2486.48,535.96 2475.15,543.30 2475.15,543.30 C2475.15,543.30 2482.22,538.17 2482.22,538.17 C2482.22,538.17 2467.75,545.08 2467.75,545.08 C2467.75,545.08 2470.10,542.46 2470.10,542.46 C2470.10,542.46 2462.51,551.40 2462.51,551.40 C2462.51,551.40 2464.81,548.29 2464.81,548.29 C2464.81,548.29 2461.92,556.26 2461.92,556.26 C2461.92,556.26 2466.07,550.66 2466.07,550.66 C2464.43,556.87 2461.45,559.24 2460.84,559.15 C2460.84,559.15 2461.70,556.85 2461.70,556.85 C2458.98,561.91 2456.06,562.73 2455.82,562.70 C2455.82,562.70 2453.30,564.01 2453.30,564.01 C2453.01,563.82 2454.79,561.25 2454.97,559.76 C2455.16,557.76 2452.40,552.30 2452.15,551.79 C2451.78,551.01 2451.70,550.14 2451.80,549.46 C2453.13,549.93 2454.04,551.03 2454.71,553.28 C2455.17,554.85 2455.41,556.26 2455.40,556.87 C2454.01,556.61 2452.84,555.81 2451.41,554.07 C2450.05,552.38 2448.63,549.48 2447.15,545.62 C2452.92,549.54 2454.26,554.03 2454.11,554.45 C2452.87,554.43 2450.09,552.10 2446.21,548.32 C2444.04,546.17 2441.27,543.41 2440.67,542.80 C2440.67,542.80 2445.45,545.98 2445.45,545.98 C2444.21,546.90 2441.47,545.57 2436.97,542.96 C2436.97,542.96 2439.70,543.88 2439.70,543.88 C2439.60,544.33 2439.02,545.07 2438.39,545.37 C2437.59,545.75 2435.03,543.79 2435.04,543.77 C2434.28,540.50 2437.84,533.59 2438.93,532.82 C2440.41,535.48 2436.75,540.60 2436.35,540.65 C2436.35,540.65 2437.36,532.48 2437.36,532.48 C2437.36,532.48 2438.36,532.16 2438.36,532.16 C2439.09,533.19 2439.35,533.97 2439.64,536.05 C2439.77,536.98 2440.01,537.49 2440.25,537.60" fill="none" stroke="rgb(211, 83, 73)" stroke-width="16.00" stroke-opacity="1.00" stroke-linejoin="round"/>
<path d="M2462.44,536.32 C2463.61,534.34 2475.88,523.05 2479.94,520.07 C2485.56,516.01 2487.81,516.32 2488.12,516.49 C2488.89,517.85 2487.64,522.35 2486.37,525.72 C2485.55,527.79 2483.41,532.38 2482.72,533.58 C2480.79,536.88 2478.43,538.43 2477.56,538.35 C2476.66,538.19 2475.77,536.02 2475.76,533.68 C2475.79,531.16 2476.72,527.50 2477.65,525.13 C2478.60,522.81 2481.33,518.20 2482.77,517.03 C2484.92,515.38 2486.46,515.47 2487.33,515.94 C2487.81,517.47 2487.99,519.91 2487.53,521.97 C2487.12,523.78 2485.33,527.28 2484.17,528.64 C2483.02,529.94 2480.94,531.34 2479.97,531.57 C2479.29,531.68 2478.05,530.84 2477.55,529.90 C2476.96,528.73 2476.42,526.16 2476.30,524.32 C2476.26,523.44 2477.37,521.40 2478.50,519.92 C2478.78,519.56 2479.13,519.20 2479.56,518.84" fill="none" stroke="rgb(211, 83, 73)" stroke-width="16.00" stroke-opacity="1.00" stroke-linejoin="round"/>
<path d="M2483.00,503.66 C2484.61,504.54 2488.57,503.15 2489.66,502.66 C2490.04,502.49 2490.64,502.18 2491.45,501.74" fill="none" stroke="rgb(211, 83, 73)" stroke-width="16.00" stroke-opacity="1.00" stroke-linejoin="round"/>
<path d="M2491.18,501.35 C2491.18,501.35 2494.69,501.67 2494.69,501.67 C2494.79,501.89 2494.57,504.43 2495.01,509.19 C2495.01,509.24 2495.04,509.40 2495.04,509.35" fill="none" stroke="rgb(211, 83, 73)" stroke-width="16.00" stroke-opacity="1.00" stroke-linejoin="round"/>
<path d="M2495.44,505.28 C2495.89,508.10 2496.18,510.21 2496.24,511.49 C2496.50,518.08 2495.27,524.02 2494.98,525.20 C2494.98,525.20 2495.54,518.97 2495.54,518.97 C2495.54,518.97 2493.92,531.71 2493.92,531.71 C2493.92,531.71 2494.87,528.68 2494.87,528.68 C2494.87,528.68 2492.85,534.31 2492.85,534.31 C2492.85,534.31 2493.14,532.84 2493.14,532.84 C2493.14,532.84 2488.85,538.30 2488.85,538.30 C2488.85,538.30 2494.16,532.50 2494.16,532.50 C2494.16,532.50 2488.58,539.80 2488.58,539.80 C2488.50,537.96 2492.70,534.23 2493.07,534.01 C2492.90,536.96 2489.20,538.87 2488.79,538.89 C2488.79,538.89 2491.74,534.96 2491.74,534.96 C2491.37,535.96 2490.63,537.01 2489.64,537.60 C2489.14,537.90 2483.54,540.40 2481.14,541.60 C2485.69,537.15 2490.72,535.54 2490.90,535.59 C2491.08,537.71 2481.57,541.96 2479.74,542.82 C2479.74,542.82 2486.32,537.65 2486.32,537.65 C2486.32,537.65 2479.28,542.69 2479.28,542.69 C2479.28,542.69 2486.78,537.83 2486.78,537.83 C2486.38,539.69 2477.78,543.00 2473.93,543.77 C2473.93,543.77 2482.67,538.51 2482.67,538.51 C2482.67,538.51 2472.06,544.90 2472.06,544.90 C2472.06,544.90 2476.94,541.24 2476.94,541.24 C2476.94,541.24 2471.06,547.61 2471.06,547.61 C2471.06,547.61 2475.17,542.42 2475.17,542.42 C2475.17,542.42 2468.21,550.37 2468.21,550.37 C2468.21,550.37 2471.61,544.58 2471.61,544.58 C2471.61,544.58 2464.99,553.75 2464.99,553.75 C2464.99,553.75 2469.87,547.56 2469.87,547.56 C2470.06,548.85 2465.29,555.41 2464.72,556.17 C2464.44,556.54 2464.02,557.14 2463.44,557.98 C2463.44,557.98 2466.66,553.12 2466.66,553.12 C2466.66,553.12 2463.08,558.50 2463.08,558.50 C2463.08,558.50 2464.24,556.15 2464.24,556.15 C2464.24,556.15 2461.05,559.67 2461.05,559.67 C2461.05,559.67 2462.37,556.55 2462.37,556.55 C2462.37,556.55 2454.12,564.78 2454.12,564.78 C2454.12,564.78 2455.01,563.69 2455.01,563.69 C2455.01,563.69 2453.19,566.63 2453.19,566.63 C2453.48,565.98 2453.20,566.36 2452.85,565.23 C2452.74,564.88 2450.82,560.67 2450.59,559.63 C2450.59,559.63 2453.12,562.16 2453.12,562.16 C2453.12,562.16 2450.50,557.32 2450.50,557.32 C2454.74,559.63 2452.03,564.19 2451.18,565.09 C2451.18,565.09 2451.82,564.10 2451.82,564.10 C2451.82,564.10 2452.58,561.55 2452.58,561.55 C2452.58,561.55 2447.90,550.39 2447.90,550.39 C2447.90,550.39 2449.52,552.99 2449.52,552.99 C2449.52,552.99 2444.44,549.69 2444.44,549.69 C2444.44,549.69 2447.65,549.69 2447.65,549.69 C2447.65,549.69 2446.07,547.84 2446.07,547.84" fill="none" stroke="rgb(211, 83, 73)" stroke-width="16.00" stroke-opacity="1.00" stroke-linejoin="round"/>
<path d="M2448.13,546.71 C2448.13,546.71 2448.63,548.02 2448.63,548.02 C2443.41,545.34 2440.98,545.82 2440.86,545.89 C2440.86,545.89 2444.35,548.45 2444.35,548.45 C2442.54,549.45 2440.42,548.72 2437.92,547.43 C2437.92,547.43 2442.59,547.59 2442.59,547.59 C2441.90,548.52 2440.20,548.62 2437.47,547.70 C2436.94,547.52 2436.17,547.21 2435.15,546.77 C2435.15,546.77 2438.62,546.50 2438.62,546.50 C2438.46,547.39 2437.81,547.74 2435.98,547.68 C2433.09,547.59 2432.26,547.37 2432.25,547.27 C2432.25,547.27 2433.43,546.62 2433.43,546.62 C2432.90,543.71 2432.78,542.70 2433.13,541.67 C2433.32,541.08 2433.69,539.87 2434.24,538.03 C2434.24,538.03 2434.37,540.70 2434.37,540.70 C2434.84,538.25 2435.28,536.69 2436.06,534.94 C2436.58,533.79 2437.50,531.78 2437.90,530.92" fill="none" stroke="rgb(211, 83, 73)" stroke-width="16.00" stroke-opacity="1.00" stroke-linejoin="round"/>
<path d="M2434.00,523.62 C2434.00,523.62 2430.55,524.84 2430.55,524.84 C2430.55,524.84 2430.72,523.62 2430.72,523.62" fill="none" stroke="rgb(211, 83, 73)" stroke-width="16.00" stroke-opacity="1.00" stroke-linejoin="round"/>
<path d="M2445.31,495.39 C2445.31,495.39 2444.00,495.37 2444.00,495.37 C2437.78,499.99 2436.70,502.60 2436.58,503.39" fill="none" stroke="rgb(211, 83, 73)" stroke-width="6.00" stroke-opacity="1.00" stroke-linejoin="round"/>
<path d="M2441.98,497.33 C2440.76,497.35 2439.62,497.74 2438.71,498.67 C2437.76,499.64 2436.65,501.69 2436.38,502.96 C2436.17,504.03 2436.34,505.18 2436.67,505.94" fill="none" stroke="rgb(211, 83, 73)" stroke-width="6.00" stroke-opacity="1.00" stroke-linejoin="round"/>
<path d="M2444.96,497.15 C2445.47,498.41 2446.35,500.19 2447.11,501.26 C2448.92,503.81 2453.41,507.71 2454.56,508.04" fill="none" stroke="rgb(211, 83, 73)" stroke-width="6.00" stroke-opacity="1.00" stroke-linejoin="round"/>
<path d="M2451.37,503.97 C2452.26,503.02 2455.92,503.11 2459.54,503.84 C2460.64,504.07 2461.51,504.49 2462.13,504.99 C2462.14,504.99 2462.25,505.09 2462.47,505.28" fill="none" stroke="rgb(211, 83, 73)" stroke-width="6.00" stroke-opacity="1.00" stroke-linejoin="round"/>
<path d="M2461.90,505.69 C2466.88,505.42 2472.45,505.37 2473.12,504.88 C2473.56,504.54 2474.38,503.13 2474.38,503.07" fill="none" stroke="rgb(211, 83, 73)" stroke-width="6.00" stroke-opacity="1.00" stroke-linejoin="round"/>
<path d="M2471.22,504.47 C2471.09,503.52 2473.98,500.05 2475.51,498.72 C2476.67,497.76 2478.58,496.78 2480.06,496.45 C2480.71,496.31 2482.31,496.30 2482.25,496.29" fill="none" stroke="rgb(211, 83, 73)" stroke-width="6.00" stroke-opacity="1.00" stroke-linejoin="round"/>
<path d="M2478.14,494.58 C2479.75,495.72 2480.92,496.48 2482.48,497.39 C2484.04,498.31 2485.21,499.32 2486.85,501.08 C2486.85,501.08 2486.78,500.63 2486.78,500.63" fill="none" stroke="rgb(211, 83, 73)" stroke-width="6.00" stroke-opacity="1.00" stroke-linejoin="round"/>
<path d="M2482.02,496.93 C2484.43,498.10 2488.68,500.99 2489.24,501.33 C2489.78,501.66 2491.40,502.50 2491.41,502.51 C2491.43,502.51 2491.48,502.53 2491.57,502.57" fill="none" stroke="rgb(211, 83, 73)" stroke-width="6.00" stroke-opacity="1.00" stroke-linejoin="round"/>
<path d="M2485.71,544.27 C2485.71,544.27 2484.60,545.44 2484.60,545.44 C2487.43,545.77 2490.63,541.53 2490.75,541.38 C2490.75,541.38 2485.58,545.98 2485.58,545.98 C2486.23,545.23 2488.02,543.16 2488.53,542.62 C2489.22,541.90 2491.34,539.82 2491.87,539.30 C2491.98,539.19 2492.09,539.09 2492.20,538.98" fill="none" stroke="rgb(211, 83, 73)" stroke-width="6.00" stroke-opacity="1.00" stroke-linejoin="round"/>
</g>
<g stroke-linecap="round" transform="translate(-2418.00, -491.00)" id="Layer_41">
<path d="M2459.07,500.55 C2459.07,500.55 2460.62,501.60 2460.62,501.60" fill="none" stroke="rgb(0, 0, 0)" stroke-width="5.59" stroke-opacity="1.00" stroke-linejoin="round"/>
<path d="M2455.89,571.92 C2454.95,572.58 2454.14,573.03 2453.04,573.44 C2451.41,573.98 2448.08,571.78 2447.12,570.68" fill="none" stroke="rgb(0, 0, 0)" stroke-width="5.59" stroke-opacity="1.00" stroke-linejoin="round"/>
<path d="M2434.73,502.57 C2434.72,500.68 2434.86,499.01 2435.25,497.92 C2436.05,495.78 2439.88,493.62 2442.73,492.74 C2444.24,492.29 2445.48,492.81 2447.25,494.43 C2447.71,494.87 2447.68,497.58 2447.76,497.92 C2447.95,498.68 2450.19,500.53 2451.10,500.54 C2452.29,500.53 2455.75,499.61 2456.74,499.81 C2457.05,499.87 2457.73,500.08 2458.76,500.43" fill="none" stroke="rgb(0, 0, 0)" stroke-width="5.59" stroke-opacity="1.00" stroke-linejoin="round"/>
<path d="M2445.55,570.07 C2444.49,568.61 2443.69,564.93 2442.44,560.79 C2441.74,558.63 2441.18,557.27 2440.44,557.05 C2438.63,556.67 2434.65,555.70 2433.19,554.80 C2432.56,554.41 2431.13,552.63 2430.46,551.82" fill="none" stroke="rgb(0, 0, 0)" stroke-width="5.59" stroke-opacity="1.00" stroke-linejoin="round"/>
<path d="M2435.49,552.57 C2433.23,552.07 2428.69,551.19 2427.96,550.77 C2426.59,549.98 2425.25,547.49 2425.00,545.89 C2424.64,542.52 2425.57,537.61 2427.08,535.71 C2427.44,535.27 2428.34,534.18 2428.41,533.72 C2428.11,533.53 2424.92,533.54 2424.54,533.39 C2423.40,532.90 2421.70,530.32 2421.33,528.97 C2420.65,526.15 2420.87,519.45 2421.57,517.07 C2422.18,515.08 2425.04,509.85 2426.56,507.91 C2428.23,505.80 2432.96,501.71 2433.95,500.97 C2434.40,500.64 2435.30,500.01 2436.64,499.09" fill="none" stroke="rgb(0, 0, 0)" stroke-width="5.59" stroke-opacity="1.00" stroke-linejoin="round"/>
<path d="M2460.20,502.19 C2462.42,503.54 2466.65,504.02 2468.59,502.91 C2470.05,502.03 2474.22,495.75 2475.80,494.38 C2476.86,493.49 2478.90,492.61 2479.92,492.63 C2480.98,492.69 2482.44,493.48 2483.51,494.43 C2484.64,495.43 2485.81,495.72 2487.17,495.24 C2488.03,494.92 2491.48,493.81 2493.31,493.78 C2494.24,493.78 2496.65,494.65 2497.37,495.28 C2499.88,497.54 2502.11,501.69 2502.83,503.90 C2503.49,506.03 2502.83,514.84 2502.66,516.85 C2502.40,520.01 2502.73,528.61 2502.69,529.33 C2502.49,532.81 2500.40,537.69 2498.86,540.46 C2497.99,541.90 2494.01,545.19 2491.33,546.87 C2485.91,550.22 2477.62,552.00 2475.67,552.24 C2475.18,552.29 2474.20,552.39 2472.73,552.53" fill="none" stroke="rgb(0, 0, 0)" stroke-width="5.59" stroke-opacity="1.00" stroke-linejoin="round"/>
<path d="M2485.31,549.19 C2482.86,551.54 2476.83,554.09 2473.89,556.07 C2472.99,556.69 2470.47,558.92 2470.03,559.55 C2469.16,560.87 2469.17,561.97 2469.87,563.42 C2469.98,563.62 2470.04,563.86 2470.06,564.12 C2470.06,564.12 2455.73,572.14 2455.73,572.14" fill="none" stroke="rgb(0, 0, 0)" stroke-width="5.59" stroke-opacity="1.00" stroke-linejoin="round"/>
</g>
</svg>
