<?xml version="1.0" encoding="UTF-8" standalone="no"?>
<!DOCTYPE svg PUBLIC "-//W3C//DTD SVG 1.1//EN" "http://www.w3.org/Graphics/SVG/1.1/DTD/svg11.dtd">
<svg width="14.16" height="10.32" viewBox="0.00 0.00 59.00 43.00" xmlns="http://www.w3.org/2000/svg" xmlns:xlink="http://www.w3.org/1999/xlink">
<g stroke-linecap="round" transform="translate(-2146.00, -521.00)" id="Layer_49">
<path d="M2156.61,534.68 C2155.70,534.39 2154.62,533.72 2154.25,532.98 C2153.44,531.35 2154.89,528.80 2155.75,528.65 C2156.61,528.57 2158.05,530.02 2158.25,531.00 C2158.40,531.89 2157.58,533.41 2156.51,534.19 C2155.40,534.97 2153.40,535.53 2152.65,535.17 C2151.25,532.85 2153.92,529.96 2155.13,529.40 C2156.23,529.92 2156.70,530.36 2156.78,531.10 C2156.90,532.40 2156.40,533.85 2155.83,534.22 C2155.26,534.55 2154.11,534.13 2153.55,533.15 C2153.30,532.66 2153.03,530.86 2153.15,530.01 C2153.41,528.30 2155.87,526.53 2157.00,526.60 C2157.78,527.14 2158.17,529.19 2157.86,530.47 C2157.55,531.72 2156.40,533.07 2155.74,533.05 C2155.18,532.37 2154.88,528.30 2156.06,525.92 C2156.30,525.46 2156.68,525.28 2157.29,525.14 C2161.23,524.84 2160.07,530.71 2159.62,531.49 C2158.17,530.53 2158.77,528.46 2159.17,527.74 C2160.35,527.76 2160.84,527.87 2161.14,528.43 C2162.29,530.63 2162.13,532.48 2161.86,533.25 C2159.98,531.37 2160.36,529.05 2160.72,528.06 C2161.92,528.59 2162.51,529.44 2162.78,531.39 C2163.06,533.46 2163.14,534.89 2163.10,536.24 C2163.10,536.24 2162.06,529.86 2162.06,529.86 C2162.76,529.47 2163.52,529.84 2164.02,531.13 C2165.06,533.96 2164.32,537.31 2163.72,538.46 C2163.72,538.46 2163.90,532.93 2163.90,532.93 C2163.90,532.93 2165.77,541.77 2165.77,541.77 C2165.77,541.77 2163.64,533.07 2163.64,533.07 C2164.49,533.82 2165.73,538.50 2165.60,541.30 C2165.49,543.25 2164.56,544.61 2163.63,544.74 C2163.14,544.65 2161.94,542.77 2161.28,540.67 C2161.00,539.77 2160.11,534.79 2160.03,534.71 C2160.03,534.71 2159.39,544.83 2159.39,544.83 C2158.31,544.08 2157.21,540.72 2156.91,538.07 C2156.68,535.82 2157.44,533.85 2157.73,533.61 C2158.68,534.90 2158.84,541.65 2158.83,542.13 C2158.81,543.39 2158.62,544.29 2158.40,544.61 C2157.23,544.15 2155.56,540.54 2155.28,538.33 C2155.01,536.15 2155.30,534.39 2155.89,533.73 C2156.58,534.01 2156.94,534.44 2157.05,535.41 C2157.52,540.65 2158.30,548.23 2158.09,548.85 C2156.10,546.56 2155.43,541.81 2156.07,541.45 C2156.89,542.08 2157.31,542.58 2157.53,543.57 C2157.89,545.18 2158.57,548.20 2159.00,549.59 C2159.17,550.15 2159.35,550.47 2159.54,550.73" fill="none" stroke="rgb(151, 90, 85)" stroke-width="6.00" stroke-opacity="1.00" stroke-linejoin="round"/>
<path d="M2157.60,543.43 C2157.21,544.41 2157.21,545.89 2157.85,547.42 C2158.62,549.26 2162.57,555.40 2163.21,555.41 C2163.23,555.41 2168.20,552.52 2169.33,552.75" fill="none" stroke="rgb(151, 90, 85)" stroke-width="6.00" stroke-opacity="1.00" stroke-linejoin="round"/>
<path d="M2160.70,545.91 C2160.54,546.94 2161.07,548.35 2162.37,549.83 C2162.58,550.08 2165.37,552.91 2165.30,552.95 C2161.79,549.55 2160.91,545.96 2160.83,544.25 C2161.54,543.91 2162.03,543.99 2162.73,544.81 C2166.91,549.70 2167.16,553.84 2167.02,553.97 C2167.02,553.97 2162.51,545.93 2162.51,545.93 C2162.51,545.93 2170.27,556.11 2170.27,556.11 C2170.27,556.11 2169.86,555.67 2169.86,555.67" fill="none" stroke="rgb(151, 90, 85)" stroke-width="6.00" stroke-opacity="1.00" stroke-linejoin="round"/>
<path d="M2168.81,542.25 C2168.81,542.25 2175.61,548.66 2175.61,548.66 C2175.61,548.66 2167.71,542.52 2167.71,542.52 C2171.36,544.45 2175.72,546.33 2176.19,546.59 C2177.25,547.18 2178.34,548.25 2179.07,549.27 C2178.32,548.73 2177.84,548.39 2177.65,548.24 C2177.45,548.09 2177.26,547.92 2177.08,547.74" fill="none" stroke="rgb(151, 90, 85)" stroke-width="6.00" stroke-opacity="1.00" stroke-linejoin="round"/>
<path d="M2179.36,545.54 C2179.36,545.54 2179.67,546.73 2179.67,546.73 C2180.46,547.14 2185.66,547.60 2185.85,547.64 C2187.06,547.91 2189.02,548.80 2190.81,549.78 C2190.81,549.78 2180.98,547.97 2180.98,547.97 C2183.00,547.09 2184.47,546.78 2186.06,547.07 C2189.12,547.63 2191.57,549.36 2191.31,549.76" fill="none" stroke="rgb(151, 90, 85)" stroke-width="6.00" stroke-opacity="1.00" stroke-linejoin="round"/>
<path d="M2189.15,549.75 C2189.15,549.75 2196.59,550.29 2196.59,550.29 C2196.59,550.29 2199.08,550.77 2199.08,550.77 C2199.08,550.77 2194.49,556.42 2194.49,556.42 C2194.49,556.42 2199.25,553.53 2199.25,553.53 C2198.92,555.50 2193.00,558.15 2192.87,558.16 C2192.87,558.16 2197.44,553.58 2197.44,553.58 C2195.27,558.34 2191.10,556.86 2190.14,556.11 C2190.77,554.99 2192.07,554.17 2194.19,553.80 C2195.78,553.53 2197.69,553.47 2198.13,553.58 C2198.45,554.36 2198.41,554.87 2197.85,555.28 C2195.10,557.21 2186.18,558.14 2184.68,557.40 C2184.67,556.47 2184.89,555.93 2185.58,555.57 C2187.27,554.73 2192.81,554.05 2194.38,554.70 C2194.47,555.49 2194.31,555.95 2193.64,556.35 C2192.06,557.26 2187.18,558.23 2186.09,557.94 C2184.01,557.36 2183.31,555.74 2183.82,554.91 C2184.38,554.06 2187.44,552.81 2188.31,552.58 C2188.42,552.55 2188.55,552.51 2188.67,552.46" fill="none" stroke="rgb(151, 90, 85)" stroke-width="6.00" stroke-opacity="1.00" stroke-linejoin="round"/>
<path d="M2188.54,555.52 C2188.54,555.52 2188.45,556.64 2188.45,556.64 C2184.35,559.23 2180.66,557.93 2180.18,557.67 C2179.81,556.97 2180.14,555.54 2181.03,554.84 C2182.13,554.06 2187.03,554.59 2187.75,555.74 C2187.75,555.74 2179.16,557.76 2179.16,557.76 C2179.16,557.76 2178.42,556.87 2178.42,556.87 C2178.47,556.16 2179.45,555.29 2180.64,554.89 C2182.33,554.37 2186.09,554.91 2186.61,555.87 C2186.67,556.04 2186.67,556.85 2186.45,557.08 C2185.75,557.71 2183.51,558.21 2181.49,558.08 C2177.92,557.80 2173.90,555.11 2174.12,554.24 C2174.47,553.51 2177.45,552.29 2180.14,552.78 C2181.17,552.99 2181.77,554.61 2181.16,555.38 C2180.44,556.21 2177.61,557.00 2176.00,556.77 C2174.43,556.52 2171.50,555.03 2171.00,554.24 C2170.62,553.57 2171.03,552.34 2171.95,552.00 C2175.42,550.86 2180.36,552.61 2180.69,553.29 C2180.03,554.32 2174.82,554.00 2171.48,553.31 C2168.01,552.56 2166.04,550.53 2165.97,549.65 C2165.96,548.77 2167.79,546.98 2169.29,547.22 C2174.10,548.08 2178.90,553.21 2179.51,554.11 C2178.16,554.70 2167.82,547.92 2167.13,546.05 C2167.25,546.07 2181.67,552.06 2188.83,553.71 C2191.33,554.28 2194.41,554.63 2194.58,554.60 C2191.39,554.60 2179.72,551.17 2172.56,547.81 C2172.56,547.81 2192.26,551.77 2192.26,551.77 C2191.89,552.34 2191.14,552.57 2189.45,552.48 C2184.60,552.17 2179.97,551.85 2179.98,551.77 C2179.98,551.77 2179.99,552.78 2179.99,552.78 C2178.37,552.87 2173.80,553.71 2171.49,554.16 C2168.51,554.64 2165.78,553.23 2164.72,552.61 C2165.52,551.90 2166.12,551.40 2166.52,551.12 C2166.92,550.84 2167.68,550.38 2168.81,549.75" fill="none" stroke="rgb(151, 90, 85)" stroke-width="6.00" stroke-opacity="1.00" stroke-linejoin="round"/>
</g>
<g stroke-linecap="round" transform="translate(-2155.00, -535.00)" id="Layer_47">
<path d="M2163.85,536.87 C2160.97,540.73 2158.15,544.85 2157.94,545.82 C2157.75,546.90 2157.84,547.69 2158.23,548.20 C2158.83,548.98 2162.18,550.68 2162.41,551.60 C2162.46,551.80 2161.35,556.66 2161.57,557.77 C2161.66,558.21 2162.05,558.64 2162.76,559.07" fill="none" stroke="rgb(0, 0, 0)" stroke-width="6.00" stroke-opacity="1.00" stroke-linejoin="round"/>
<path d="M2165.21,557.53 C2164.56,560.52 2164.33,562.90 2164.73,564.67 C2165.16,566.48 2166.69,568.89 2168.10,569.90 C2169.64,570.95 2172.73,571.78 2174.99,571.87 C2175.90,571.90 2179.47,571.82 2180.58,571.97 C2182.72,572.28 2187.85,575.18 2188.87,575.37 C2190.40,575.66 2200.50,574.27 2200.95,574.18 C2201.31,574.10 2202.09,573.88 2203.29,573.52" fill="none" stroke="rgb(0, 0, 0)" stroke-width="6.00" stroke-opacity="1.00" stroke-linejoin="round"/>
<path d="M2200.45,573.50 C2201.54,573.74 2203.83,574.30 2204.43,574.17 C2205.69,573.85 2208.18,571.51 2209.28,569.70 C2211.05,566.68 2211.16,562.51 2210.82,562.51 C2207.55,562.07 2201.49,561.23 2200.06,559.97 C2198.83,558.88 2193.50,558.37 2190.81,558.30 C2189.76,558.28 2186.37,558.26 2185.13,558.26" fill="none" stroke="rgb(0, 0, 0)" stroke-width="6.00" stroke-opacity="1.00" stroke-linejoin="round"/>
<path d="M2193.30,556.59 C2190.04,556.70 2182.36,556.83 2181.69,556.65 C2180.22,556.24 2178.92,554.40 2178.53,553.92 C2177.65,553.05 2175.91,551.02 2175.64,549.60 C2175.49,548.79 2175.60,546.83 2175.29,544.95 C2175.01,543.34 2174.75,542.87 2173.39,541.48 C2172.73,540.83 2170.15,537.77 2169.91,537.57 C2169.36,537.13 2167.27,536.82 2166.33,536.95 C2165.92,537.01 2165.04,537.22 2163.68,537.56" fill="none" stroke="rgb(0, 0, 0)" stroke-width="6.00" stroke-opacity="1.00" stroke-linejoin="round"/>
<path d="M2162.88,554.96 C2162.24,556.41 2162.60,562.43 2163.36,564.51 C2163.57,565.07 2163.85,565.65 2164.21,566.27 C2164.32,566.46 2164.47,566.67 2164.67,566.90" fill="none" stroke="rgb(0, 0, 0)" stroke-width="6.00" stroke-opacity="1.00" stroke-linejoin="round"/>
</g>
</svg>
