<?xml version="1.0" encoding="UTF-8" standalone="no"?>
<!DOCTYPE svg PUBLIC "-//W3C//DTD SVG 1.1//EN" "http://www.w3.org/Graphics/SVG/1.1/DTD/svg11.dtd">
<svg width="18.96" height="10.08" viewBox="0.00 0.00 79.00 42.00" xmlns="http://www.w3.org/2000/svg" xmlns:xlink="http://www.w3.org/1999/xlink">
<g stroke-linecap="round" transform="translate(-2160.00, -410.00)" id="Layer_44">
<path d="M2172.94,443.54 C2173.10,443.93 2181.65,440.95 2184.54,440.96 C2184.81,440.96 2185.13,440.99 2185.50,441.06 C2185.50,441.06 2173.99,445.23 2173.99,445.23 C2179.10,441.73 2185.15,439.63 2187.43,439.27 C2187.43,439.27 2172.17,443.75 2172.17,443.75 C2172.17,443.75 2174.08,442.60 2174.08,442.60 C2174.08,442.60 2167.08,444.45 2167.08,444.45 C2168.11,444.41 2173.52,445.71 2174.12,445.80 C2175.78,446.05 2183.48,445.23 2183.49,445.23 C2184.05,445.08 2185.02,444.06 2185.26,443.77 C2185.63,443.34 2192.22,440.93 2192.33,441.00 C2189.03,442.67 2181.75,442.44 2179.26,442.21 C2179.26,442.21 2194.88,436.71 2194.88,436.71 C2194.88,436.71 2178.03,441.28 2178.03,441.28 C2178.15,440.94 2179.71,440.11 2183.24,438.39 C2188.53,435.91 2192.57,434.13 2194.52,434.18 C2194.52,434.18 2195.04,435.08 2195.04,435.08 C2195.10,436.26 2183.80,439.01 2182.33,439.58 C2182.33,439.58 2196.70,431.72 2196.70,431.72 C2196.70,431.72 2190.59,438.66 2190.59,438.66 C2192.22,433.39 2197.29,431.04 2197.85,431.12 C2197.85,431.12 2196.40,435.43 2196.40,435.43 C2195.52,434.63 2196.03,430.80 2196.20,429.09 C2196.42,427.01 2196.62,426.20 2197.04,425.45 C2197.04,425.45 2197.80,429.37 2197.80,429.37 C2197.80,429.37 2187.90,417.34 2187.90,417.34 C2188.91,418.42 2194.31,422.60 2195.49,423.71 C2196.92,425.09 2197.19,426.20 2197.17,426.95 C2194.15,427.08 2186.89,420.21 2186.39,419.60 C2186.39,419.60 2195.76,427.30 2195.76,427.30 C2194.18,427.22 2191.77,426.74 2190.68,426.07 C2188.61,424.78 2188.20,422.33 2188.26,422.11 C2189.02,422.44 2193.89,427.58 2194.14,428.33 C2194.17,428.44 2194.16,428.58 2194.11,428.74 C2194.11,428.74 2183.36,421.06 2183.36,421.06 C2183.36,421.06 2189.72,423.95 2189.72,423.95 C2189.72,423.95 2179.83,419.74 2179.83,419.74 C2179.83,419.74 2184.43,418.43 2184.43,418.43 C2184.43,418.43 2181.00,417.77 2181.00,417.77 C2181.00,417.77 2189.28,416.03 2189.28,416.03 C2189.28,416.03 2186.26,415.33 2186.26,415.33 C2186.01,415.49 2187.84,416.78 2188.80,416.25 C2188.92,416.19 2189.14,416.02 2189.45,415.76 C2189.47,416.10 2189.48,416.34 2189.47,416.48 C2189.46,416.62 2189.44,416.87 2189.39,417.22" fill="none" stroke="rgb(93, 131, 99)" stroke-width="6.00" stroke-opacity="1.00" stroke-linejoin="round"/>
<path d="M2194.40,430.24 C2194.40,430.24 2194.84,441.33 2194.84,441.33 C2194.84,441.33 2194.05,442.37 2194.05,442.37 C2194.05,442.37 2200.58,444.61 2200.58,444.61 C2200.58,444.61 2195.30,443.38 2195.30,443.38 C2195.30,443.38 2202.17,444.57 2202.17,444.57 C2202.17,444.57 2201.17,444.30 2201.17,444.30 C2201.17,444.30 2205.59,432.33 2205.59,432.33 C2205.59,432.33 2202.19,444.98 2202.19,444.98 C2202.19,444.98 2204.88,433.79 2204.88,433.79 C2204.55,441.09 2202.89,444.39 2202.68,444.22 C2202.25,438.47 2205.59,431.36 2206.37,430.22 C2206.37,430.22 2206.58,431.94 2206.58,431.94 C2206.58,431.94 2206.82,426.29 2206.82,426.29 C2206.82,426.29 2202.46,426.01 2202.46,426.01 C2202.94,426.67 2203.39,430.57 2202.29,434.30 C2201.73,436.18 2200.65,438.16 2199.73,439.31 C2199.22,439.17 2198.84,438.08 2198.97,436.38 C2199.27,432.87 2202.57,426.84 2203.08,427.16 C2203.41,428.03 2202.96,433.71 2202.39,436.09 C2201.51,439.65 2199.40,441.76 2198.71,441.43 C2197.92,440.95 2196.98,438.24 2197.05,436.38 C2197.14,434.66 2198.41,430.71 2199.43,429.46 C2200.06,428.70 2200.96,428.17 2201.85,427.88 C2202.93,429.19 2203.22,430.69 2202.55,432.97 C2200.19,440.76 2196.52,441.88 2195.79,441.92 C2195.03,441.33 2194.77,438.52 2195.41,436.56 C2196.14,434.41 2198.66,431.16 2200.27,430.24 C2201.46,429.59 2206.03,429.17 2206.23,429.37 C2206.23,429.37 2205.40,433.99 2205.40,433.99 C2205.45,433.60 2207.02,432.22 2210.10,431.84 C2213.53,431.44 2215.28,432.63 2215.49,433.15 C2214.82,434.90 2210.99,436.48 2208.77,436.09 C2208.77,436.09 2215.73,432.45 2215.73,432.45 C2214.90,434.11 2213.92,435.17 2212.32,435.76 C2211.92,435.91 2210.90,436.24 2209.27,436.75 C2209.27,436.75 2211.18,435.53 2211.18,435.53" fill="none" stroke="rgb(93, 131, 99)" stroke-width="6.00" stroke-opacity="1.00" stroke-linejoin="round"/>
<path d="M2209.96,430.16 C2209.96,430.16 2209.93,428.86 2209.93,428.86 C2211.77,427.36 2217.15,429.15 2217.37,429.46 C2217.37,429.46 2211.71,429.46 2211.71,429.46 C2211.71,429.46 2220.24,430.26 2220.24,430.26 C2219.45,431.58 2214.52,432.09 2213.72,431.90 C2213.72,431.90 2223.11,431.14 2223.11,431.14 C2223.11,431.14 2223.04,432.17 2223.04,432.17 C2223.04,432.17 2218.99,431.39 2218.99,431.39 C2228.91,431.09 2230.94,433.08 2231.11,433.42 C2231.11,433.42 2224.72,431.31 2224.72,431.31" fill="none" stroke="rgb(93, 131, 99)" stroke-width="6.00" stroke-opacity="1.00" stroke-linejoin="round"/>
</g>
<g stroke-linecap="round" transform="translate(-2160.00, -410.00)" id="Layer_37_Copy">
<path d="M2192.80,436.31 C2192.07,433.35 2190.98,430.36 2188.69,428.25 C2183.09,423.18 2174.64,417.95 2173.51,417.99 C2175.87,417.77 2182.07,414.77 2185.43,413.16 C2187.89,412.06 2189.74,412.03 2190.98,413.20 C2191.12,413.33 2197.59,421.60 2198.99,423.12 C2200.55,424.72 2202.80,427.05 2203.50,427.78" fill="none" stroke="rgb(0, 0, 0)" stroke-width="6.00" stroke-opacity="1.00" stroke-linejoin="round"/>
<path d="M2196.27,427.56 C2193.27,430.21 2191.36,432.84 2190.74,435.69 C2190.25,438.14 2190.06,443.53 2190.91,445.62 C2191.09,446.08 2191.43,446.54 2191.91,446.98 C2192.01,447.07 2192.05,447.08 2192.03,447.01" fill="none" stroke="rgb(0, 0, 0)" stroke-width="6.00" stroke-opacity="1.00" stroke-linejoin="round"/>
<path d="M2192.19,444.29 C2194.30,445.80 2195.75,446.72 2197.59,447.67 C2199.44,448.62 2200.40,449.02 2201.33,449.27" fill="none" stroke="rgb(0, 0, 0)" stroke-width="6.00" stroke-opacity="1.00" stroke-linejoin="round"/>
<path d="M2202.67,449.32 C2203.81,446.30 2206.72,438.69 2206.94,438.00 C2208.04,434.52 2208.15,425.29 2208.17,424.49 C2208.18,424.18 2208.19,423.86 2208.22,423.52" fill="none" stroke="rgb(0, 0, 0)" stroke-width="6.00" stroke-opacity="1.00" stroke-linejoin="round"/>
<path d="M2210.17,429.31 C2208.93,427.20 2208.03,426.05 2206.87,425.26 C2205.01,424.02 2200.59,421.92 2198.08,421.43 C2197.69,421.36 2197.21,421.33 2196.62,421.33" fill="none" stroke="rgb(0, 0, 0)" stroke-width="6.00" stroke-opacity="1.00" stroke-linejoin="round"/>
<path d="M2189.16,433.03 C2185.14,434.46 2176.16,438.60 2176.00,438.68 C2172.97,440.07 2165.98,441.63 2165.15,441.80 C2163.36,442.16 2162.68,442.50 2162.68,442.93 C2163.07,444.03 2166.45,446.39 2169.49,447.31 C2173.28,448.42 2176.98,448.23 2180.36,446.78 C2181.99,446.07 2184.67,444.83 2185.80,444.30 C2187.86,443.38 2193.46,442.35 2195.12,442.04" fill="none" stroke="rgb(0, 0, 0)" stroke-width="6.00" stroke-opacity="1.00" stroke-linejoin="round"/>
<path d="M2208.68,424.72 C2210.66,424.73 2215.52,425.81 2221.67,427.58 C2227.63,429.43 2232.33,431.30 2233.57,432.56 C2233.72,432.72 2234.33,433.38 2235.40,434.54 C2232.66,435.19 2227.71,434.62 2224.63,434.80 C2218.09,435.21 2211.21,437.98 2210.58,438.47 C2210.22,438.76 2209.45,439.48 2208.26,440.66" fill="none" stroke="rgb(0, 0, 0)" stroke-width="6.00" stroke-opacity="1.00" stroke-linejoin="round"/>
</g>
</svg>
