<?xml version="1.0" encoding="UTF-8" standalone="no"?>
<!DOCTYPE svg PUBLIC "-//W3C//DTD SVG 1.1//EN" "http://www.w3.org/Graphics/SVG/1.1/DTD/svg11.dtd">
<svg width="22.80" height="17.76" viewBox="0.00 0.00 95.00 74.00" xmlns="http://www.w3.org/2000/svg" xmlns:xlink="http://www.w3.org/1999/xlink">
<g stroke-linecap="round" transform="translate(-2157.00, -466.00)" id="Layer_52">
<path d="M2182.23,486.69 C2182.80,487.43 2183.76,487.82 2185.40,487.84 C2186.24,487.85 2192.28,487.65 2194.65,488.19 C2197.46,488.86 2203.00,490.39 2203.40,490.47 C2203.67,490.52 2203.99,490.53 2204.36,490.51" fill="none" stroke="rgb(151, 90, 85)" stroke-width="26.00" stroke-opacity="1.00" stroke-linejoin="round"/>
<path d="M2200.41,489.19 C2200.24,493.62 2200.34,497.05 2200.78,499.36 C2201.40,502.49 2203.02,506.29 2202.72,509.10 C2202.57,510.38 2201.43,514.17 2201.29,514.56 C2201.29,514.56 2201.12,512.79 2201.12,512.79" fill="none" stroke="rgb(151, 90, 85)" stroke-width="26.00" stroke-opacity="1.00" stroke-linejoin="round"/>
<path d="M2198.54,501.70 C2198.11,502.89 2199.29,513.93 2199.16,519.22 C2199.17,519.32 2199.19,519.44 2199.22,519.58" fill="none" stroke="rgb(151, 90, 85)" stroke-width="26.00" stroke-opacity="1.00" stroke-linejoin="round"/>
<path d="M2205.52,518.30 C2205.52,518.30 2214.57,522.31 2214.57,522.31" fill="none" stroke="rgb(151, 90, 85)" stroke-width="26.00" stroke-opacity="1.00" stroke-linejoin="round"/>
<path d="M2215.66,515.75 C2216.80,514.54 2222.05,508.58 2225.03,505.91 C2226.45,504.65 2228.93,502.67 2230.07,501.87 C2230.44,501.62 2231.03,501.23 2231.87,500.70" fill="none" stroke="rgb(151, 90, 85)" stroke-width="26.00" stroke-opacity="1.00" stroke-linejoin="round"/>
<path d="M2233.29,500.91 C2233.27,500.25 2233.43,499.03 2233.78,497.76 C2233.88,497.41 2234.07,496.80 2234.35,495.92" fill="none" stroke="rgb(151, 90, 85)" stroke-width="26.00" stroke-opacity="1.00" stroke-linejoin="round"/>
<path d="M2233.02,494.49 C2231.58,494.00 2227.60,492.65 2226.81,492.32 C2225.35,491.70 2223.56,490.65 2222.97,490.17" fill="none" stroke="rgb(151, 90, 85)" stroke-width="26.00" stroke-opacity="1.00" stroke-linejoin="round"/>
<path d="M2218.37,487.67 C2217.63,487.76 2211.32,487.04 2209.64,486.96 C2208.45,486.91 2206.73,486.98 2206.29,487.04" fill="none" stroke="rgb(151, 90, 85)" stroke-width="26.00" stroke-opacity="1.00" stroke-linejoin="round"/>
<path d="M2210.44,483.07 C2209.72,483.07 2209.22,483.08 2208.94,483.09 C2207.29,483.17 2202.34,484.45 2199.40,485.08 C2198.95,485.18 2198.48,485.27 2197.98,485.35" fill="none" stroke="rgb(151, 90, 85)" stroke-width="26.00" stroke-opacity="1.00" stroke-linejoin="round"/>
<path d="M2190.90,480.35" fill="none" stroke="rgb(151, 90, 85)" stroke-width="26.00" stroke-opacity="1.00" stroke-linejoin="round"/>
<path d="M2210.81,491.04 C2210.81,491.04 2218.41,496.34 2218.41,496.34" fill="none" stroke="rgb(151, 90, 85)" stroke-width="26.00" stroke-opacity="1.00" stroke-linejoin="round"/>
<path d="M2178.14,490.06" fill="none" stroke="rgb(151, 90, 85)" stroke-width="26.00" stroke-opacity="1.00" stroke-linejoin="round"/>
<path d="M2189.78,493.87 C2189.78,493.87 2190.72,494.88 2190.72,494.88" fill="none" stroke="rgb(151, 90, 85)" stroke-width="26.00" stroke-opacity="1.00" stroke-linejoin="round"/>
<path d="M2192.94,497.35 C2192.81,503.38 2194.31,513.19 2195.34,515.32 C2195.55,515.76 2195.95,516.28 2196.53,516.87" fill="none" stroke="rgb(151, 90, 85)" stroke-width="26.00" stroke-opacity="1.00" stroke-linejoin="round"/>
<path d="M2178.83,475.47 C2179.39,475.53 2184.86,475.55 2187.47,476.19 C2188.31,476.40 2189.02,476.61 2189.58,476.81 C2189.86,476.91 2190.37,477.11 2191.09,477.42" fill="none" stroke="rgb(151, 90, 85)" stroke-width="16.00" stroke-opacity="1.00" stroke-linejoin="round"/>
<path d="M2192.33,476.85 C2192.99,477.25 2194.42,477.64 2194.88,477.90 C2195.05,477.99 2195.19,478.17 2195.30,478.45" fill="none" stroke="rgb(151, 90, 85)" stroke-width="16.00" stroke-opacity="1.00" stroke-linejoin="round"/>
<path d="M2180.74,486.97 C2179.09,488.05 2177.89,488.66 2176.31,489.17 C2174.72,489.69 2173.33,490.31 2172.39,490.91 C2172.21,491.03 2172.08,491.15 2171.98,491.27" fill="none" stroke="rgb(151, 90, 85)" stroke-width="16.00" stroke-opacity="1.00" stroke-linejoin="round"/>
<path d="M2173.45,488.57 C2171.91,488.87 2169.62,491.62 2169.82,492.81 C2169.92,493.30 2170.72,493.62 2171.91,493.82" fill="none" stroke="rgb(151, 90, 85)" stroke-width="16.00" stroke-opacity="1.00" stroke-linejoin="round"/>
<path d="M2174.20,493.40 C2174.93,494.31 2175.37,494.79 2176.05,495.12 C2177.93,496.02 2180.06,496.65 2181.50,496.73 C2181.72,496.75 2182.14,496.76 2182.77,496.76" fill="none" stroke="rgb(151, 90, 85)" stroke-width="16.00" stroke-opacity="1.00" stroke-linejoin="round"/>
<path d="M2185.40,496.82 C2185.78,497.93 2186.22,499.06 2187.21,501.39 C2188.07,503.42 2189.83,507.63 2190.27,508.85 C2191.26,511.60 2192.19,516.03 2192.56,517.80" fill="none" stroke="rgb(151, 90, 85)" stroke-width="16.00" stroke-opacity="1.00" stroke-linejoin="round"/>
<path d="M2194.21,513.23 C2192.19,516.75 2191.75,522.47 2191.94,523.10 C2191.94,523.10 2192.85,523.34 2192.85,523.34" fill="none" stroke="rgb(151, 90, 85)" stroke-width="16.00" stroke-opacity="1.00" stroke-linejoin="round"/>
<path d="M2193.41,522.57 C2193.41,522.57 2193.05,525.25 2193.05,525.25 C2193.42,525.56 2195.05,525.00 2197.40,524.52 C2200.88,523.83 2203.35,523.76 2205.82,524.87 C2206.54,525.20 2208.16,525.75 2208.76,525.92" fill="none" stroke="rgb(151, 90, 85)" stroke-width="16.00" stroke-opacity="1.00" stroke-linejoin="round"/>
<path d="M2208.89,525.93 C2210.18,526.49 2211.37,526.98 2212.18,527.21 C2212.59,527.33 2213.59,527.60 2215.17,528.01" fill="none" stroke="rgb(151, 90, 85)" stroke-width="16.00" stroke-opacity="1.00" stroke-linejoin="round"/>
<path d="M2215.00,528.96 C2216.64,528.18 2217.84,527.46 2218.29,526.80 C2218.51,526.48 2219.27,524.90 2219.45,524.54" fill="none" stroke="rgb(151, 90, 85)" stroke-width="16.00" stroke-opacity="1.00" stroke-linejoin="round"/>
<path d="M2220.90,521.75 C2221.02,519.95 2225.35,515.18 2227.65,513.38 C2229.66,511.83 2232.92,509.57 2234.14,508.78" fill="none" stroke="rgb(151, 90, 85)" stroke-width="16.00" stroke-opacity="1.00" stroke-linejoin="round"/>
<path d="M2230.69,511.82 C2232.36,509.20 2236.10,503.38 2238.35,500.38 C2238.99,499.53 2239.55,498.82 2240.04,498.25 C2240.25,498.00 2240.62,497.59 2241.16,497.02" fill="none" stroke="rgb(151, 90, 85)" stroke-width="16.00" stroke-opacity="1.00" stroke-linejoin="round"/>
<path d="M2232.93,510.65 C2232.87,509.84 2234.67,506.15 2237.66,500.61 C2238.38,499.27 2238.84,498.40 2239.04,498.00 C2239.24,497.59 2239.60,496.81 2240.11,495.65" fill="none" stroke="rgb(151, 90, 85)" stroke-width="16.00" stroke-opacity="1.00" stroke-linejoin="round"/>
<path d="M2239.46,496.85 C2239.46,496.85 2240.63,492.51 2240.63,492.51" fill="none" stroke="rgb(151, 90, 85)" stroke-width="16.00" stroke-opacity="1.00" stroke-linejoin="round"/>
<path d="M2237.88,492.05 C2237.63,492.06 2236.92,492.06 2236.65,491.97 C2231.25,490.06 2226.15,489.69 2224.82,489.64 C2224.39,489.63 2223.95,489.62 2223.52,489.61" fill="none" stroke="rgb(151, 90, 85)" stroke-width="16.00" stroke-opacity="1.00" stroke-linejoin="round"/>
<path d="M2240.07,489.08 C2238.57,489.18 2232.49,487.58 2230.10,486.92 C2226.88,486.05 2225.70,485.66 2225.11,485.23 C2224.98,485.14 2224.74,484.92 2224.39,484.59" fill="none" stroke="rgb(151, 90, 85)" stroke-width="16.00" stroke-opacity="1.00" stroke-linejoin="round"/>
<path d="M2222.31,482.77 C2221.18,483.03 2219.14,482.62 2217.68,482.22 C2217.47,482.16 2217.26,482.11 2217.06,482.07" fill="none" stroke="rgb(151, 90, 85)" stroke-width="16.00" stroke-opacity="1.00" stroke-linejoin="round"/>
<path d="M2222.47,481.22 C2221.42,481.15 2215.90,481.97 2215.51,481.88 C2215.18,481.80 2214.85,481.59 2214.62,481.36" fill="none" stroke="rgb(151, 90, 85)" stroke-width="16.00" stroke-opacity="1.00" stroke-linejoin="round"/>
<path d="M2194.99,475.14 C2194.99,475.14 2195.49,474.16 2195.49,474.16" fill="none" stroke="rgb(151, 90, 85)" stroke-width="16.00" stroke-opacity="1.00" stroke-linejoin="round"/>
<path d="M2200.41,470.20 C2200.41,470.20 2194.48,472.89 2194.48,472.89 C2194.48,472.89 2195.58,472.36 2195.58,472.36" fill="none" stroke="rgb(151, 90, 85)" stroke-width="6.00" stroke-opacity="1.00" stroke-linejoin="round"/>
<path d="M2201.71,469.84 C2200.94,470.07 2198.78,470.74 2197.83,471.08 C2196.87,471.43 2193.27,472.85 2192.99,472.94 C2192.73,473.02 2192.40,473.09 2191.98,473.15" fill="none" stroke="rgb(151, 90, 85)" stroke-width="6.00" stroke-opacity="1.00" stroke-linejoin="round"/>
<path d="M2202.11,470.34 C2201.31,470.47 2200.15,470.73 2199.64,471.06 C2199.12,471.39 2197.86,472.59 2197.88,472.61" fill="none" stroke="rgb(151, 90, 85)" stroke-width="6.00" stroke-opacity="1.00" stroke-linejoin="round"/>
<path d="M2180.33,473.34 C2178.88,473.91 2176.76,474.12 2171.92,474.49 C2168.74,474.75 2167.73,474.58 2167.68,474.46" fill="none" stroke="rgb(151, 90, 85)" stroke-width="6.00" stroke-opacity="1.00" stroke-linejoin="round"/>
<path d="M2171.73,473.90 C2171.73,473.90 2167.13,474.74 2167.13,474.74 C2171.21,473.85 2175.96,475.21 2177.46,475.32 C2177.46,475.32 2175.43,477.83 2175.43,477.83 C2175.43,477.83 2174.49,476.33 2174.49,476.33 C2174.63,476.83 2174.73,479.86 2174.78,481.04 C2174.82,481.82 2174.94,482.16 2175.05,482.29 C2175.00,481.96 2174.97,481.75 2174.95,481.67 C2174.94,481.60 2174.92,481.54 2174.90,481.50" fill="none" stroke="rgb(151, 90, 85)" stroke-width="6.00" stroke-opacity="1.00" stroke-linejoin="round"/>
<path d="M2173.79,475.73 C2174.18,478.35 2174.33,479.82 2174.34,481.13 C2174.35,482.43 2174.30,483.70 2174.18,485.91" fill="none" stroke="rgb(151, 90, 85)" stroke-width="6.00" stroke-opacity="1.00" stroke-linejoin="round"/>
<path d="M2174.74,483.38 C2173.56,484.18 2168.83,486.27 2167.41,487.11 C2165.81,488.09 2164.03,489.60 2163.06,490.84 C2162.03,492.21 2161.30,493.70 2161.10,494.63 C2161.08,494.75 2161.08,494.80 2161.10,494.77" fill="none" stroke="rgb(151, 90, 85)" stroke-width="6.00" stroke-opacity="1.00" stroke-linejoin="round"/>
<path d="M2183.50,502.96 C2184.48,505.16 2185.74,510.53 2186.19,512.27 C2186.54,513.63 2187.00,514.80 2187.56,515.88 C2187.64,516.03 2187.69,516.09 2187.69,516.06" fill="none" stroke="rgb(151, 90, 85)" stroke-width="6.00" stroke-opacity="1.00" stroke-linejoin="round"/>
<path d="M2184.35,506.16 C2183.94,505.96 2181.31,508.72 2184.48,516.30 C2185.09,517.74 2186.00,519.20 2186.56,519.78 C2186.66,519.87 2186.72,519.93 2186.74,519.96" fill="none" stroke="rgb(151, 90, 85)" stroke-width="6.00" stroke-opacity="1.00" stroke-linejoin="round"/>
<path d="M2186.44,519.93 C2186.09,521.23 2186.43,525.71 2186.95,526.73 C2187.45,527.60 2189.37,528.86 2190.58,528.99 C2190.75,529.01 2191.06,529.02 2191.51,529.02 C2191.62,529.02 2191.71,529.02 2191.76,529.02" fill="none" stroke="rgb(151, 90, 85)" stroke-width="6.00" stroke-opacity="1.00" stroke-linejoin="round"/>
<path d="M2191.92,528.71 C2192.64,528.99 2194.87,529.17 2198.43,528.88 C2201.38,528.63 2206.93,528.66 2208.46,528.58 C2208.82,528.56 2209.24,528.52 2209.72,528.46" fill="none" stroke="rgb(151, 90, 85)" stroke-width="6.00" stroke-opacity="1.00" stroke-linejoin="round"/>
<path d="M2200.27,528.93 C2200.58,529.73 2201.41,530.23 2203.84,530.52 C2205.00,530.65 2208.01,530.71 2209.80,530.73 C2210.38,530.74 2210.96,530.77 2211.54,530.79 C2211.71,530.79 2211.93,530.79 2212.21,530.79" fill="none" stroke="rgb(151, 90, 85)" stroke-width="6.00" stroke-opacity="1.00" stroke-linejoin="round"/>
<path d="M2210.34,531.49 C2210.34,531.49 2210.67,532.41 2210.67,532.41 C2211.88,533.18 2213.32,533.74 2214.91,534.00 C2215.53,534.09 2217.54,533.80 2218.03,533.63 C2218.24,533.55 2218.42,533.41 2218.58,533.20" fill="none" stroke="rgb(151, 90, 85)" stroke-width="6.00" stroke-opacity="1.00" stroke-linejoin="round"/>
<path d="M2215.41,533.73 C2216.58,533.55 2219.29,531.14 2221.27,528.64 C2222.60,526.92 2224.83,523.43 2225.79,521.81 C2226.00,521.44 2226.21,521.06 2226.42,520.66" fill="none" stroke="rgb(151, 90, 85)" stroke-width="6.00" stroke-opacity="1.00" stroke-linejoin="round"/>
<path d="M2222.48,528.96 C2223.97,526.91 2227.25,521.06 2228.94,518.45 C2229.81,517.10 2230.73,515.81 2231.54,514.76 C2231.64,514.62 2231.72,514.53 2231.75,514.49" fill="none" stroke="rgb(151, 90, 85)" stroke-width="6.00" stroke-opacity="1.00" stroke-linejoin="round"/>
<path d="M2232.78,516.82 C2234.39,516.38 2237.12,514.11 2238.92,511.96 C2240.69,509.83 2241.42,507.93 2241.51,507.58" fill="none" stroke="rgb(151, 90, 85)" stroke-width="6.00" stroke-opacity="1.00" stroke-linejoin="round"/>
<path d="M2241.75,508.99 C2241.80,507.85 2243.87,501.98 2244.16,501.11 C2245.17,498.03 2245.50,497.16 2245.97,496.30 C2246.00,496.26 2246.07,496.14 2246.04,496.17" fill="none" stroke="rgb(151, 90, 85)" stroke-width="6.00" stroke-opacity="1.00" stroke-linejoin="round"/>
</g>
<g stroke-linecap="round" transform="translate(-2157.00, -466.00)" id="Layer_37">
<path d="M2185.65,475.54 C2177.18,478.42 2166.31,483.12 2163.87,485.53 C2162.39,487.02 2160.94,489.48 2160.80,490.73 C2160.70,492.11 2161.04,494.00 2161.60,494.98 C2162.62,496.66 2167.87,499.44 2170.93,500.14 C2172.39,500.46 2174.02,500.81 2176.21,501.42 C2177.52,501.81 2179.18,503.32 2179.68,504.70 C2180.12,505.96 2179.31,509.90 2179.34,510.26" fill="none" stroke="rgb(0, 0, 0)" stroke-width="6.00" stroke-opacity="1.00" stroke-linejoin="round"/>
<path d="M2182.54,517.55 C2182.54,517.55 2182.46,518.14 2182.46,518.14 C2182.15,522.12 2182.59,526.71 2183.64,528.66 C2184.74,530.58 2188.60,532.33 2191.59,532.51 C2193.95,532.64 2201.51,532.54 2204.16,533.13 C2205.96,533.56 2211.88,537.78 2214.15,537.60 C2217.09,537.30 2221.41,534.55 2223.21,532.94 C2225.44,530.89 2228.33,526.24 2229.21,523.37 C2229.31,523.01 2229.45,522.37 2229.61,521.45" fill="none" stroke="rgb(0, 0, 0)" stroke-width="6.00" stroke-opacity="1.00" stroke-linejoin="round"/>
<path d="M2226.05,526.42 C2228.03,526.49 2229.67,525.94 2231.60,524.48 C2232.61,523.70 2234.95,520.99 2238.51,516.60 C2240.57,514.04 2243.33,510.35 2244.67,506.39 C2246.45,501.30 2248.21,495.56 2248.68,492.31 C2248.86,490.74 2248.23,488.92 2247.07,487.69 C2244.94,485.54 2227.21,478.94 2226.74,478.08 C2226.61,477.80 2226.50,476.43 2226.66,476.13 C2226.76,475.96 2227.11,475.37 2227.73,474.37" fill="none" stroke="rgb(0, 0, 0)" stroke-width="6.00" stroke-opacity="1.00" stroke-linejoin="round"/>
<path d="M2228.44,476.02 C2226.46,475.58 2221.92,474.59 2219.35,474.04 C2216.16,473.38 2209.80,472.35 2207.19,472.15 C2204.33,471.97 2200.46,472.71 2199.05,473.25 C2199.05,473.25 2204.69,467.57 2204.69,467.57 C2203.84,466.96 2187.00,469.43 2184.69,469.48 C2182.79,469.54 2176.14,469.60 2175.04,470.16 C2175.04,470.16 2174.47,471.64 2174.47,471.64" fill="none" stroke="rgb(0, 0, 0)" stroke-width="6.00" stroke-opacity="1.00" stroke-linejoin="round"/>
<path d="M2183.94,469.87 C2178.42,469.53 2174.45,469.62 2172.15,470.51 C2167.33,472.48 2163.42,475.54 2161.92,476.81 C2161.92,476.81 2171.38,478.41 2171.38,478.41 C2171.38,478.41 2170.06,480.23 2170.06,480.23" fill="none" stroke="rgb(0, 0, 0)" stroke-width="6.00" stroke-opacity="1.00" stroke-linejoin="round"/>
<path d="M2179.21,504.56 C2179.33,505.33 2181.89,511.59 2182.14,514.53 C2182.23,515.75 2182.33,519.97 2182.31,520.85 C2182.31,521.16 2182.28,521.47 2182.23,521.79" fill="none" stroke="rgb(0, 0, 0)" stroke-width="6.00" stroke-opacity="1.00" stroke-linejoin="round"/>
<path d="M2228.31,525.34 C2230.24,522.40 2232.70,519.59 2234.21,518.17 C2235.67,516.80 2238.19,514.77 2239.16,514.03 C2240.18,513.25 2241.20,512.47 2242.22,511.69" fill="none" stroke="rgb(0, 0, 0)" stroke-width="6.00" stroke-opacity="1.00" stroke-linejoin="round"/>
</g>
</svg>
