<?xml version="1.0" encoding="UTF-8" standalone="no"?>
<!DOCTYPE svg PUBLIC "-//W3C//DTD SVG 1.1//EN" "http://www.w3.org/Graphics/SVG/1.1/DTD/svg11.dtd">
<svg width="64.56" height="87.36" viewBox="0.00 0.00 269.00 364.00" xmlns="http://www.w3.org/2000/svg" xmlns:xlink="http://www.w3.org/1999/xlink">
<g stroke-linecap="round" transform="translate(-1282.00, -688.00)" id="Layer_72">
<path d="M1360.96,741.38 C1359.10,742.30 1357.73,743.58 1356.52,745.73 C1353.64,750.83 1350.41,759.64 1348.00,769.52 C1346.63,775.29 1344.56,790.96 1344.42,794.42 C1344.31,797.72 1344.82,799.48 1345.20,799.76 C1346.15,799.39 1347.03,795.98 1347.52,792.86 C1348.69,785.33 1351.66,766.62 1352.27,763.43 C1353.76,755.77 1357.29,747.17 1357.90,746.98 C1357.91,748.35 1352.70,769.97 1351.91,772.67 C1350.58,777.20 1348.15,782.21 1347.57,782.84 C1346.70,783.74 1344.85,783.27 1344.23,781.96 C1343.41,780.14 1342.63,776.23 1342.36,772.37 C1342.21,769.86 1342.58,766.09 1343.37,761.00 C1344.75,752.84 1347.43,749.05 1347.79,748.90" fill="none" stroke="rgb(199, 64, 64)" stroke-width="26.00" stroke-opacity="1.00" stroke-linejoin="round"/>
<path d="M1338.87,760.02 C1338.87,760.02 1337.31,759.03 1337.31,759.03 C1337.12,757.06 1338.06,753.10 1339.22,750.10 C1340.28,747.40 1342.81,742.41 1343.93,740.81 C1346.31,737.44 1349.10,735.16 1350.60,735.15 C1351.34,735.18 1352.50,736.89 1352.98,738.48 C1353.17,739.18 1352.79,740.80 1352.55,741.41 C1352.48,741.56 1352.39,741.71 1352.27,741.87" fill="none" stroke="rgb(199, 64, 64)" stroke-width="26.00" stroke-opacity="1.00" stroke-linejoin="round"/>
<path d="M1344.97,748.49 C1344.97,748.49 1337.74,750.34 1337.74,750.34 C1337.35,749.04 1339.18,744.70 1340.79,742.04 C1343.39,737.81 1350.13,731.52 1352.49,730.53 C1352.76,730.42 1353.27,730.29 1354.01,730.12" fill="none" stroke="rgb(199, 64, 64)" stroke-width="26.00" stroke-opacity="1.00" stroke-linejoin="round"/>
<path d="M1342.32,737.61 C1343.24,735.26 1346.69,731.62 1348.41,730.12 C1350.87,728.01 1355.13,725.23 1357.77,724.03 C1359.57,723.23 1363.04,722.62 1367.56,722.08 C1369.31,721.88 1371.82,721.43 1373.39,721.02 C1374.32,720.77 1376.14,720.15 1376.34,720.06" fill="none" stroke="rgb(199, 64, 64)" stroke-width="26.00" stroke-opacity="1.00" stroke-linejoin="round"/>
<path d="M1356.99,725.53 C1361.71,721.93 1375.42,715.24 1382.69,712.69 C1384.28,712.14 1387.40,711.06 1388.93,710.53 C1391.06,709.75 1394.67,708.43 1396.14,707.87" fill="none" stroke="rgb(199, 64, 64)" stroke-width="26.00" stroke-opacity="1.00" stroke-linejoin="round"/>
<path d="M1382.19,713.23 C1384.35,711.47 1396.36,706.29 1400.40,705.19 C1402.94,704.51 1406.70,704.35 1411.18,704.65 C1415.35,704.91 1416.74,704.78 1418.86,704.38" fill="none" stroke="rgb(199, 64, 64)" stroke-width="26.00" stroke-opacity="1.00" stroke-linejoin="round"/>
<path d="M1408.03,704.81 C1414.04,704.49 1428.17,704.51 1429.96,704.55 C1434.90,704.67 1441.68,705.11 1442.09,705.11 C1442.53,705.12 1443.41,705.09 1444.75,705.03" fill="none" stroke="rgb(199, 64, 64)" stroke-width="26.00" stroke-opacity="1.00" stroke-linejoin="round"/>
<path d="M1412.49,704.81 C1417.09,704.03 1420.34,704.07 1424.14,705.17 C1426.79,705.96 1430.72,706.65 1433.56,706.92 C1433.80,706.94 1434.14,706.99 1434.61,707.05" fill="none" stroke="rgb(199, 64, 64)" stroke-width="26.00" stroke-opacity="1.00" stroke-linejoin="round"/>
<path d="M1419.52,704.10 C1421.91,703.43 1427.79,703.92 1429.52,704.43 C1433.55,705.67 1436.49,708.05 1439.50,711.13 C1440.24,711.92 1440.98,712.71 1441.72,713.50 C1442.07,713.87 1442.64,714.43 1443.43,715.20" fill="none" stroke="rgb(199, 64, 64)" stroke-width="26.00" stroke-opacity="1.00" stroke-linejoin="round"/>
<path d="M1447.07,708.26 C1449.69,707.86 1456.53,709.44 1457.38,709.69 C1460.73,710.69 1475.89,716.76 1476.24,716.92 C1476.72,717.15 1477.83,717.70 1479.57,718.59" fill="none" stroke="rgb(199, 64, 64)" stroke-width="26.00" stroke-opacity="1.00" stroke-linejoin="round"/>
<path d="M1467.53,709.90 C1471.67,711.22 1475.05,713.84 1477.04,715.89 C1478.09,717.00 1479.61,718.88 1481.21,721.02 C1481.67,721.65 1482.12,722.28 1482.58,722.91" fill="none" stroke="rgb(199, 64, 64)" stroke-width="26.00" stroke-opacity="1.00" stroke-linejoin="round"/>
<path d="M1485.51,717.60 C1486.54,719.34 1488.61,723.50 1490.04,726.71 C1490.78,728.33 1491.80,730.11 1492.44,730.67 C1492.69,730.88 1493.17,731.13 1493.88,731.40" fill="none" stroke="rgb(199, 64, 64)" stroke-width="26.00" stroke-opacity="1.00" stroke-linejoin="round"/>
<path d="M1491.24,724.93 C1492.62,728.63 1495.47,732.82 1496.27,734.36 C1498.61,738.95 1500.25,745.11 1501.84,756.77 C1502.10,758.81 1502.50,762.03 1502.64,763.22 C1502.65,763.28 1502.68,763.47 1502.69,763.41" fill="none" stroke="rgb(199, 64, 64)" stroke-width="26.00" stroke-opacity="1.00" stroke-linejoin="round"/>
<path d="M1500.20,744.66 C1500.50,748.24 1501.97,752.24 1502.89,755.75 C1504.77,762.90 1505.71,771.88 1506.65,784.38 C1506.88,787.33 1507.14,790.74 1507.24,791.67" fill="none" stroke="rgb(199, 64, 64)" stroke-width="26.00" stroke-opacity="1.00" stroke-linejoin="round"/>
<path d="M1506.85,764.50 C1507.24,767.31 1508.04,770.89 1508.66,775.07 C1509.31,779.50 1509.14,782.23 1508.02,788.79 C1507.23,793.15 1505.64,801.86 1504.76,804.89 C1504.55,805.63 1502.59,810.45 1502.63,810.80" fill="none" stroke="rgb(199, 64, 64)" stroke-width="26.00" stroke-opacity="1.00" stroke-linejoin="round"/>
<path d="M1503.35,803.91 C1499.48,807.94 1492.21,820.85 1488.20,827.20 C1486.63,829.64 1484.17,833.49 1483.27,834.90 C1483.27,834.92 1491.68,818.28 1494.54,813.75 C1496.17,811.18 1498.85,808.64 1499.58,808.25 C1499.58,808.25 1483.15,839.30 1483.15,839.30 C1483.15,839.30 1496.56,823.45 1496.56,823.45 C1496.56,823.45 1483.74,844.03 1483.74,844.03 C1483.58,842.01 1489.11,831.49 1490.77,829.19 C1490.77,829.19 1472.34,865.07 1472.34,865.07 C1472.34,865.07 1483.03,841.54 1483.03,841.54 C1483.03,841.54 1467.87,877.51 1467.87,877.51 C1468.68,874.65 1475.06,859.75 1478.80,853.87 C1480.46,851.29 1483.18,847.13 1483.63,846.79 C1483.63,846.79 1465.52,896.72 1465.52,896.72" fill="none" stroke="rgb(199, 64, 64)" stroke-width="26.00" stroke-opacity="1.00" stroke-linejoin="round"/>
<path d="M1478.23,865.35 C1477.81,869.35 1479.27,887.34 1478.98,894.00 C1478.72,898.92 1478.69,899.93 1478.67,901.97" fill="none" stroke="rgb(199, 64, 64)" stroke-width="26.00" stroke-opacity="1.00" stroke-linejoin="round"/>
<path d="M1480.43,888.30 C1480.23,889.34 1479.97,897.07 1479.58,899.10 C1479.27,900.62 1476.38,905.46 1476.71,905.66 C1477.66,906.53 1477.05,909.06 1475.36,914.32 C1475.66,907.92 1479.29,904.08 1479.65,903.99 C1479.54,907.38 1472.82,917.11 1470.52,919.32 C1471.62,914.93 1476.21,909.04 1477.01,908.99 C1477.01,908.99 1465.75,928.18 1465.75,928.18 C1465.75,928.18 1466.45,926.24 1466.45,926.24" fill="none" stroke="rgb(199, 64, 64)" stroke-width="26.00" stroke-opacity="1.00" stroke-linejoin="round"/>
<path d="M1344.80,736.19 C1342.30,739.42 1340.50,742.09 1339.30,744.71 C1336.67,750.54 1334.07,761.30 1333.74,766.85 C1333.44,772.71 1333.89,775.64 1334.51,776.58 C1334.66,776.79 1334.91,776.94 1335.26,777.02" fill="none" stroke="rgb(199, 64, 64)" stroke-width="26.00" stroke-opacity="1.00" stroke-linejoin="round"/>
<path d="M1344.61,733.84 C1342.67,735.06 1340.19,739.38 1339.09,741.84 C1336.81,747.06 1333.27,760.59 1332.76,765.81 C1332.00,774.05 1332.89,776.97 1333.25,777.24" fill="none" stroke="rgb(199, 64, 64)" stroke-width="26.00" stroke-opacity="1.00" stroke-linejoin="round"/>
<path d="M1341.08,740.94 C1339.02,743.30 1337.30,746.92 1336.31,749.50 C1333.95,755.73 1331.98,769.94 1331.87,776.53 C1331.75,784.51 1332.92,799.16 1334.25,807.13 C1335.10,812.14 1335.65,813.56 1336.05,814.19" fill="none" stroke="rgb(199, 64, 64)" stroke-width="26.00" stroke-opacity="1.00" stroke-linejoin="round"/>
<path d="M1335.12,753.68 C1334.04,755.16 1332.44,758.74 1331.73,761.99 C1330.38,768.34 1329.37,780.93 1329.62,786.39 C1330.12,796.45 1334.61,813.40 1335.51,815.96 C1335.61,816.27 1335.73,816.62 1335.87,817.03" fill="none" stroke="rgb(199, 64, 64)" stroke-width="26.00" stroke-opacity="1.00" stroke-linejoin="round"/>
<path d="M1334.10,765.21 C1333.09,768.19 1331.11,785.41 1331.15,791.35 C1331.21,797.66 1332.46,809.37 1334.25,819.90 C1337.39,836.61 1343.24,852.84 1343.89,853.95 C1344.09,854.29 1344.59,855.02 1345.38,856.14" fill="none" stroke="rgb(199, 64, 64)" stroke-width="26.00" stroke-opacity="1.00" stroke-linejoin="round"/>
<path d="M1336.61,801.34 C1335.66,804.10 1335.02,807.64 1335.01,811.64 C1335.03,818.07 1336.84,829.44 1339.00,839.11 C1340.60,845.59 1346.40,863.86 1347.10,865.78 C1348.48,869.48 1351.39,874.42 1352.84,875.76" fill="none" stroke="rgb(199, 64, 64)" stroke-width="26.00" stroke-opacity="1.00" stroke-linejoin="round"/>
<path d="M1335.92,810.58 C1334.74,815.62 1334.87,826.52 1336.33,835.10 C1338.87,849.13 1347.89,871.29 1350.63,876.91 C1351.85,879.39 1353.53,882.03 1354.12,882.95" fill="none" stroke="rgb(199, 64, 64)" stroke-width="26.00" stroke-opacity="1.00" stroke-linejoin="round"/>
<path d="M1335.26,805.93 C1334.89,807.40 1334.66,808.37 1334.57,808.83 C1333.71,813.19 1333.83,827.73 1334.67,833.58 C1336.26,843.70 1338.35,852.61 1340.70,859.01 C1343.64,866.90 1347.78,873.47 1348.87,874.94 C1349.17,875.34 1349.56,875.80 1350.04,876.33" fill="none" stroke="rgb(199, 64, 64)" stroke-width="26.00" stroke-opacity="1.00" stroke-linejoin="round"/>
<path d="M1338.10,804.29 C1336.80,806.18 1336.29,807.29 1336.28,808.61 C1336.24,815.20 1337.18,826.08 1339.06,836.41 C1340.64,844.75 1343.92,861.76 1345.61,870.43 C1346.70,875.95 1347.31,878.58 1348.18,879.15 C1348.18,879.15 1349.68,878.30 1349.68,878.30" fill="none" stroke="rgb(199, 64, 64)" stroke-width="26.00" stroke-opacity="1.00" stroke-linejoin="round"/>
<path d="M1334.40,814.29 C1333.83,816.99 1333.86,829.68 1335.06,836.34 C1336.68,844.74 1338.04,849.54 1342.47,862.20 C1344.75,868.41 1345.28,869.22 1346.59,870.43" fill="none" stroke="rgb(199, 64, 64)" stroke-width="26.00" stroke-opacity="1.00" stroke-linejoin="round"/>
<path d="M1333.16,813.86 C1332.15,819.74 1332.55,833.61 1334.26,842.08 C1336.85,854.77 1343.49,869.04 1344.17,870.35 C1344.43,870.85 1345.00,871.92 1345.88,873.54" fill="none" stroke="rgb(199, 64, 64)" stroke-width="26.00" stroke-opacity="1.00" stroke-linejoin="round"/>
<path d="M1345.57,841.35 C1344.94,845.36 1345.82,885.07 1346.19,902.05 C1346.27,909.39 1346.39,924.84 1347.82,928.61 C1347.95,928.96 1348.21,929.46 1348.58,930.12" fill="none" stroke="rgb(199, 64, 64)" stroke-width="26.00" stroke-opacity="1.00" stroke-linejoin="round"/>
<path d="M1357.65,842.77 C1357.07,845.47 1353.83,864.61 1352.91,866.28 C1352.81,866.43 1352.61,866.71 1352.30,867.09 C1351.02,863.62 1350.26,860.08 1350.07,854.93 C1349.80,844.13 1350.55,832.18 1351.54,824.61 C1353.55,809.44 1356.90,798.52 1359.37,791.26 C1359.18,793.06 1356.07,808.39 1354.84,816.21 C1353.94,823.04 1352.67,835.82 1352.19,844.22 C1351.62,857.68 1353.06,896.51 1352.56,896.97 C1351.16,894.99 1348.17,877.71 1347.67,873.39 C1347.03,867.79 1346.35,852.67 1346.86,846.27 C1347.27,841.77 1348.06,836.70 1349.07,833.56 C1350.64,828.86 1353.24,823.46 1354.57,822.38 C1355.47,823.73 1355.77,824.57 1355.77,826.08 C1355.87,832.14 1354.12,864.67 1353.88,882.43 C1353.35,896.60 1352.59,919.51 1353.09,920.22 C1353.88,921.38 1354.81,927.14 1353.60,928.61 C1353.55,928.66 1350.28,931.49 1350.01,932.00 C1349.71,932.56 1349.21,933.45 1348.84,934.08 C1348.84,934.08 1349.24,927.82 1349.24,927.82" fill="none" stroke="rgb(199, 64, 64)" stroke-width="26.00" stroke-opacity="1.00" stroke-linejoin="round"/>
<path d="M1345.19,919.46 C1344.03,922.46 1344.02,929.82 1344.50,931.37 C1346.90,938.45 1351.96,953.77 1353.82,956.76 C1355.11,958.78 1364.52,966.81 1365.44,967.61 C1367.89,969.74 1376.53,972.94 1377.17,973.21 C1378.17,973.63 1381.76,975.01 1383.09,975.05 C1383.86,975.06 1388.47,974.38 1389.39,974.39 C1389.53,974.39 1395.08,975.01 1396.28,974.94 C1396.35,974.93 1402.71,973.06 1405.72,972.75 C1407.00,972.62 1414.48,972.45 1417.64,972.27 C1423.65,971.84 1428.20,970.95 1431.58,969.40 C1441.14,964.82 1453.59,960.62 1457.09,959.44 C1460.40,958.27 1467.30,955.81 1469.51,954.08 C1470.69,953.15 1473.16,950.08 1473.69,949.38 C1473.85,949.17 1474.02,948.97 1474.19,948.81" fill="none" stroke="rgb(199, 64, 64)" stroke-width="26.00" stroke-opacity="1.00" stroke-linejoin="round"/>
<path d="M1457.35,960.12 C1457.39,960.01 1470.54,921.74 1471.57,915.63 C1471.61,915.35 1471.67,914.88 1471.72,914.21" fill="none" stroke="rgb(199, 64, 64)" stroke-width="26.00" stroke-opacity="1.00" stroke-linejoin="round"/>
<path d="M1375.46,752.09 C1373.66,751.08 1371.27,750.03 1369.71,749.36 C1368.45,748.74 1368.30,744.90 1368.97,742.06 C1371.17,733.27 1373.87,731.54 1374.69,731.51 C1375.65,734.84 1375.45,740.56 1375.09,744.46 C1374.16,753.82 1371.87,767.22 1370.70,772.07 C1370.29,773.77 1368.09,779.57 1367.52,779.61 C1366.68,776.41 1368.85,758.98 1369.61,754.90 C1370.80,748.64 1375.37,733.70 1378.60,727.71 C1380.30,724.61 1381.88,723.34 1382.08,723.45 C1383.00,724.14 1381.47,731.65 1378.44,743.83 C1376.81,750.78 1374.14,767.05 1373.61,771.78 C1373.39,773.72 1371.26,796.87 1370.62,798.91 C1369.86,796.35 1369.50,793.14 1369.83,788.34 C1370.76,777.89 1372.91,765.17 1375.13,757.97 C1377.24,751.23 1384.04,738.09 1389.17,731.43 C1391.44,728.51 1392.82,727.45 1394.09,726.73 C1394.87,727.40 1395.23,728.21 1395.27,729.85 C1395.34,734.08 1387.34,781.37 1386.19,785.30 C1385.26,788.39 1384.44,789.63 1383.79,790.30 C1382.72,788.13 1383.64,775.58 1385.32,766.50 C1387.13,757.54 1390.67,746.06 1392.48,742.00 C1393.51,739.71 1397.24,733.12 1398.02,731.98 C1400.25,728.73 1403.83,725.45 1405.39,725.58 C1406.15,725.73 1408.07,731.13 1408.69,736.68 C1408.94,739.13 1410.41,757.74 1410.44,761.52 C1410.45,766.24 1409.87,771.69 1409.17,773.60 C1408.48,775.40 1407.25,776.82 1406.05,777.24 C1404.52,777.69 1400.63,775.83 1399.04,773.33 C1397.49,770.80 1396.36,764.28 1396.53,760.36 C1396.85,754.11 1400.61,742.15 1403.20,736.73 C1406.29,730.34 1411.77,723.36 1413.33,722.69 C1414.27,722.31 1415.90,722.03 1416.38,722.19 C1417.65,722.75 1419.28,727.04 1419.76,730.65 C1420.53,736.77 1420.41,756.23 1419.76,762.37 C1419.39,765.75 1417.51,773.74 1416.36,776.37 C1415.77,777.69 1414.94,778.88 1413.61,780.46 C1413.61,780.46 1412.19,780.46 1412.19,780.46 C1410.96,779.32 1409.25,774.74 1408.70,771.81 C1407.79,766.87 1407.63,754.22 1408.86,748.27 C1409.93,743.23 1414.13,732.54 1418.01,726.19 C1419.77,723.34 1423.65,718.54 1425.61,716.84 C1426.53,716.06 1427.37,715.75 1428.64,715.61 C1430.18,717.00 1431.27,728.37 1430.97,735.53 C1430.84,738.40 1428.43,759.95 1427.79,763.09 C1426.53,769.26 1424.14,772.81 1423.60,773.19 C1422.65,772.24 1422.50,766.26 1422.88,762.62 C1423.51,756.84 1426.48,745.45 1428.66,740.32 C1429.82,737.61 1432.32,732.80 1433.98,730.19 C1439.12,722.22 1444.07,720.46 1444.97,720.66 C1446.20,722.99 1446.64,727.71 1446.61,730.97 C1446.45,738.55 1446.01,754.00 1445.73,761.85 C1445.25,771.67 1443.50,785.07 1442.29,786.99 C1441.53,788.13 1440.19,788.70 1438.98,788.44 C1437.48,788.04 1435.19,784.19 1434.46,781.49 C1433.34,777.05 1433.27,767.11 1434.52,762.12 C1436.27,755.22 1441.98,743.15 1445.48,737.66 C1448.68,732.69 1454.03,727.45 1456.51,726.27 C1456.51,726.27 1457.52,726.81 1457.52,726.81 C1458.13,730.87 1457.40,737.41 1456.81,740.78 C1455.63,747.25 1453.43,757.84 1451.21,766.53 C1446.88,782.59 1442.22,791.12 1440.82,792.27 C1439.89,790.64 1440.12,784.96 1440.78,781.46 C1442.07,774.80 1447.95,759.79 1451.25,753.29 C1453.62,748.67 1461.67,736.22 1465.74,732.08 C1467.40,730.42 1469.01,730.06 1469.29,730.26 C1470.48,732.62 1470.43,737.86 1470.07,741.72 C1468.13,762.34 1466.73,800.17 1465.90,801.86 C1465.77,802.12 1465.49,802.30 1465.08,802.38 C1464.32,802.25 1463.07,800.38 1462.33,796.83 C1461.97,795.00 1461.71,789.58 1461.76,785.09 C1461.82,781.05 1465.44,766.97 1468.90,759.36 C1472.60,751.33 1479.20,742.84 1480.53,742.69 C1481.31,744.49 1480.80,749.26 1480.14,753.15 C1478.18,764.39 1477.20,772.21 1476.48,782.71 C1476.08,790.60 1475.32,805.10 1474.28,807.13 C1473.16,806.72 1472.55,806.16 1472.19,804.84 C1470.71,799.32 1470.14,783.15 1471.18,776.19 C1472.26,769.24 1476.79,754.95 1480.16,749.17 C1482.29,745.57 1486.33,741.30 1487.01,741.52 C1488.25,743.25 1488.44,748.94 1488.27,751.68 C1487.85,757.78 1482.62,794.63 1479.78,806.64 C1478.63,811.19 1477.10,816.50 1475.94,819.27 C1474.04,823.71 1471.21,828.12 1470.71,827.90 C1469.73,827.25 1471.22,814.36 1472.80,807.49 C1473.85,803.02 1478.16,789.76 1481.68,782.10 C1485.36,774.35 1489.00,771.33 1489.63,771.22 C1489.63,771.22 1490.43,771.88 1490.43,771.88 C1490.77,777.27 1487.38,791.34 1485.47,796.45 C1482.69,803.80 1476.27,815.15 1475.58,814.76 C1473.48,812.01 1483.32,787.62 1485.78,783.63 C1488.27,779.66 1492.28,774.37 1494.94,771.74 C1497.19,769.56 1498.83,768.88 1500.12,768.57 C1500.83,769.27 1501.21,769.98 1501.14,770.92 C1500.80,775.17 1496.20,786.72 1493.68,792.89 C1490.41,800.68 1483.61,815.86 1480.11,823.15 C1475.22,832.99 1470.71,840.81 1469.24,841.51 C1468.16,840.21 1468.41,835.20 1469.14,830.91 C1470.02,825.84 1474.17,812.31 1477.25,805.27 C1480.95,796.89 1484.45,793.02 1485.85,791.88 C1486.67,792.71 1487.03,793.72 1486.84,795.46 C1486.28,800.59 1474.39,837.43 1470.07,852.53 C1465.50,868.55 1458.90,891.63 1457.49,893.50 C1456.49,889.92 1458.05,872.70 1458.98,866.68 C1460.41,857.81 1463.81,843.29 1465.98,837.00 C1469.47,827.01 1471.91,824.09 1472.99,823.23 C1473.54,823.65 1474.00,826.99 1473.71,830.36 C1472.97,838.16 1461.10,876.09 1458.96,884.93 C1457.47,891.33 1452.41,918.10 1452.14,918.17 C1452.86,907.66 1454.06,897.73 1455.38,891.63 C1457.36,882.75 1461.12,879.01 1461.38,879.15 C1462.49,880.11 1461.95,889.28 1460.54,900.88 C1459.56,908.18 1457.25,924.09 1455.77,930.58 C1454.45,936.06 1452.62,941.97 1451.69,943.45 C1451.20,944.21 1450.48,944.54 1449.70,944.57 C1448.59,942.33 1448.13,936.68 1448.15,933.87 C1448.22,927.68 1451.12,915.59 1453.34,910.96 C1453.95,909.72 1455.91,906.30 1456.54,905.57 C1457.86,904.08 1459.24,903.43 1459.97,903.72 C1460.96,905.97 1460.74,911.20 1460.24,913.53 C1458.72,920.30 1454.32,930.01 1448.81,940.59 C1443.46,950.69 1441.68,953.30 1440.73,953.62 C1440.00,951.06 1442.05,936.95 1443.19,931.84 C1444.76,924.92 1449.81,911.68 1451.87,910.33 C1452.07,912.66 1450.21,919.10 1449.12,922.91 C1447.00,929.96 1443.14,941.87 1441.18,946.10 C1437.39,954.19 1433.99,957.51 1432.29,958.68 C1432.29,958.68 1431.71,955.31 1431.71,955.31" fill="none" stroke="rgb(199, 64, 64)" stroke-width="26.00" stroke-opacity="1.00" stroke-linejoin="round"/>
<path d="M1423.47,956.46 C1421.49,956.09 1419.82,955.61 1418.93,954.90 C1416.57,953.00 1414.10,947.58 1413.59,944.72 C1413.05,941.53 1413.19,934.38 1413.84,930.75 C1414.43,927.61 1416.63,921.27 1418.38,918.39 C1419.06,917.30 1420.28,916.43 1420.96,916.34 C1421.80,916.33 1423.12,919.65 1423.66,923.97 C1424.21,928.48 1424.42,934.82 1424.32,936.78 C1424.09,940.87 1422.79,946.70 1421.56,949.79 C1420.38,952.71 1417.68,957.07 1416.45,958.21 C1415.18,959.35 1413.57,960.03 1412.48,959.91 C1411.25,959.70 1408.22,956.34 1407.12,953.10 C1405.60,948.56 1405.13,938.58 1405.67,933.87 C1406.25,928.89 1408.70,920.23 1410.76,915.77 C1411.96,913.26 1415.12,908.70 1417.22,907.02 C1418.14,906.31 1419.26,905.95 1420.96,905.68 C1422.72,907.56 1424.07,912.98 1424.38,915.73 C1424.98,921.16 1424.97,933.31 1424.49,938.10 C1424.03,942.43 1422.62,949.54 1421.54,952.91 C1420.36,956.48 1417.70,961.14 1416.30,962.47 C1414.98,963.68 1411.50,964.14 1410.34,963.08 C1408.92,961.70 1407.20,957.09 1406.35,953.52 C1405.04,947.86 1405.39,934.24 1406.88,928.48 C1411.36,911.67 1417.36,908.09 1418.34,907.73 C1419.32,909.09 1418.91,914.40 1418.33,917.14 C1417.11,922.74 1412.64,934.63 1410.02,940.20 C1407.09,946.40 1400.53,956.66 1396.64,959.69 C1394.52,961.29 1390.46,962.05 1388.86,961.16 C1387.43,960.30 1384.66,955.35 1384.05,952.62 C1383.01,947.81 1383.16,934.82 1384.19,928.68 C1385.29,922.31 1389.43,910.13 1392.90,904.96 C1394.81,902.21 1396.28,901.57 1397.37,901.75 C1398.45,902.89 1399.44,908.15 1399.61,912.26 C1399.90,919.63 1399.26,932.01 1397.94,940.17 C1397.37,943.51 1395.62,950.29 1394.39,953.48 C1393.34,956.17 1390.45,961.16 1389.25,962.15 C1387.85,963.24 1384.18,963.29 1382.60,962.23 C1381.15,961.20 1377.26,955.62 1375.79,952.18 C1373.23,946.10 1370.97,933.62 1370.75,927.90 C1370.53,921.55 1371.92,909.99 1373.54,904.05 C1374.62,900.17 1377.53,893.33 1378.95,891.05 C1379.65,889.95 1380.41,889.27 1381.57,888.58 C1382.39,888.85 1383.35,891.50 1383.82,895.74 C1384.54,902.61 1382.49,929.72 1381.20,934.33 C1379.94,938.65 1377.64,943.47 1376.00,945.58 C1374.33,947.66 1370.31,949.82 1368.13,949.79 C1365.86,949.70 1361.48,946.59 1359.26,943.40 C1357.21,940.37 1354.11,930.64 1353.51,924.62 C1352.90,918.22 1353.52,902.79 1354.70,895.68 C1356.05,887.68 1359.47,874.31 1361.87,868.13 C1363.08,865.05 1365.88,859.15 1367.53,856.54 C1369.05,854.17 1370.89,853.04 1371.19,853.13 C1372.63,853.90 1372.99,862.19 1373.08,875.13 C1373.33,891.76 1374.07,922.07 1372.83,927.45 C1372.50,928.87 1371.63,929.93 1370.15,931.13 C1368.40,931.10 1364.59,928.58 1362.14,925.17 C1360.00,922.12 1356.76,912.63 1355.64,906.39 C1354.73,901.25 1353.76,888.28 1353.95,879.57 C1354.19,871.35 1355.42,859.68 1356.61,853.32 C1357.38,849.28 1360.43,836.59 1362.98,829.09 C1365.47,821.91 1367.18,820.13 1367.66,820.03 C1368.59,822.66 1367.32,839.97 1366.73,847.76 C1365.81,858.73 1364.33,870.68 1363.08,871.44 C1362.43,871.77 1360.70,870.37 1359.73,867.29 C1357.89,861.33 1356.95,846.90 1357.35,840.57 C1357.76,834.51 1360.02,819.69 1361.33,813.94 C1363.13,806.02 1367.57,792.06 1370.21,785.54 C1373.96,776.60 1376.70,770.77 1378.94,766.93 C1379.79,767.79 1380.10,768.59 1379.88,770.14 C1379.44,773.26 1376.11,791.42 1374.85,798.73 C1373.31,808.30 1372.74,814.18 1372.03,824.54 C1371.40,835.38 1371.67,867.85 1371.17,869.55 C1370.23,867.95 1369.57,863.62 1369.50,860.51 C1369.39,852.76 1370.44,842.12 1371.88,834.39 C1373.62,825.40 1377.47,810.98 1378.68,807.17 C1382.44,795.42 1393.82,770.02 1395.53,768.27 C1395.44,769.83 1385.85,806.97 1384.06,818.57 C1383.08,825.59 1381.54,838.89 1381.18,846.42 C1380.74,860.10 1381.18,874.19 1381.20,874.56 C1381.10,869.89 1382.30,851.87 1383.09,846.42 C1384.10,839.89 1385.99,829.37 1388.12,820.12 C1390.52,810.61 1396.69,790.48 1397.51,787.87 C1395.31,794.33 1391.90,806.64 1390.41,813.60 C1389.17,819.62 1386.99,835.60 1386.48,841.05 C1385.91,847.60 1385.58,862.21 1385.50,867.72 C1386.12,861.98 1388.63,845.47 1389.70,840.57 C1391.14,834.46 1395.36,819.30 1397.46,812.73 C1401.89,799.77 1414.16,771.38 1416.02,769.67 C1408.99,787.37 1402.82,805.73 1399.40,820.96 C1396.39,835.41 1394.98,858.62 1394.98,873.85 C1395.37,871.35 1397.44,853.62 1398.49,847.83 C1399.75,841.45 1402.44,829.47 1405.05,820.20 C1409.80,804.60 1417.83,785.05 1419.72,780.93 C1416.98,787.90 1411.50,802.16 1409.71,807.83 C1407.31,815.72 1404.20,828.64 1402.91,836.22 C1401.55,844.84 1400.42,855.83 1399.93,861.95 C1399.63,866.55 1399.31,881.77 1399.23,888.58" fill="none" stroke="rgb(199, 64, 64)" stroke-width="26.00" stroke-opacity="1.00" stroke-linejoin="round"/>
<path d="M1400.44,912.68 C1400.55,913.33 1400.55,913.85 1400.44,914.24 C1400.10,915.38 1399.67,916.12 1399.16,916.45 C1397.32,917.51 1396.31,899.00 1396.62,892.37 C1396.83,888.01 1399.24,868.13 1399.98,864.23 C1402.23,853.07 1404.31,844.00 1406.68,836.05 C1409.55,826.87 1412.55,818.65 1416.45,809.10 C1418.36,804.62 1425.91,789.25 1428.20,786.47 C1427.99,788.49 1422.27,804.96 1419.81,812.63 C1416.82,822.31 1413.70,835.75 1412.96,839.64 C1410.49,852.75 1408.34,876.68 1407.60,885.20 C1407.27,888.85 1406.58,893.06 1405.59,893.63 C1403.88,894.11 1403.89,877.77 1404.93,869.13 C1405.80,862.64 1408.73,848.07 1410.27,841.72 C1412.64,832.80 1416.29,821.56 1418.66,814.88 C1423.63,801.95 1430.43,787.54 1432.15,784.59 C1431.75,786.19 1427.24,799.28 1424.32,809.37 C1422.02,817.82 1420.03,828.43 1418.94,835.56 C1418.34,839.84 1417.07,855.69 1416.84,863.93 C1416.80,870.75 1416.93,884.49 1417.10,891.42 C1417.10,892.40 1417.10,893.39 1417.10,894.37 C1416.72,892.07 1416.72,886.34 1416.87,883.41 C1417.23,877.11 1419.03,864.89 1420.51,856.60 C1421.46,851.76 1424.86,837.47 1426.94,830.59 C1431.24,817.32 1441.31,793.54 1445.80,784.31 C1442.93,790.20 1436.79,805.54 1435.39,809.58 C1433.76,814.29 1429.75,828.31 1427.97,836.04 C1427.02,840.36 1424.02,857.95 1423.35,863.79 C1422.56,871.27 1420.61,889.91 1420.14,893.15 C1419.91,894.78 1419.36,896.24 1418.31,898.50 C1417.59,898.16 1417.15,897.63 1417.04,896.61 C1416.48,890.83 1418.87,876.44 1420.74,868.56 C1422.42,861.84 1427.09,845.48 1428.79,840.34 C1433.33,827.26 1443.42,804.40 1445.73,799.86 C1445.48,801.60 1441.01,817.28 1439.33,823.87 C1437.71,830.74 1435.15,845.23 1434.15,852.22 C1433.36,858.99 1432.19,874.27 1431.70,881.88 C1431.37,887.23 1430.92,891.82 1430.58,891.88 C1429.84,891.95 1431.56,879.71 1433.48,869.53 C1434.84,863.28 1439.00,847.33 1440.35,843.02 C1443.74,832.76 1447.21,823.70 1451.43,814.05 C1454.38,807.79 1459.45,797.65 1461.33,794.75 C1460.98,796.95 1454.71,817.00 1453.73,820.64 C1452.42,825.68 1448.86,841.35 1447.55,847.99 C1445.84,857.68 1442.65,884.87 1441.79,892.69 C1441.41,896.07 1440.66,900.35 1440.14,901.37 C1439.71,897.41 1441.44,881.11 1442.04,877.20 C1442.86,871.95 1446.37,856.00 1447.60,851.68 C1449.97,843.66 1454.72,830.73 1457.43,824.76 C1461.34,816.45 1464.29,810.98 1466.91,807.33 C1466.81,809.12 1456.06,849.60 1453.22,863.89 C1451.75,871.92 1448.89,887.91 1447.49,895.87 C1446.72,900.17 1445.37,905.17 1443.91,908.50 C1443.20,910.10 1442.20,911.17 1440.30,912.57 C1440.23,909.18 1443.87,895.74 1446.23,887.79 C1448.66,880.19 1453.36,865.91 1455.63,859.23 C1456.42,856.95 1457.98,852.64 1458.35,851.63" fill="none" stroke="rgb(199, 64, 64)" stroke-width="26.00" stroke-opacity="1.00" stroke-linejoin="round"/>
<path d="M1332.20,867.53 C1330.48,867.45 1324.89,870.31 1324.26,870.68 C1322.30,871.81 1314.11,878.00 1309.28,883.41 C1307.70,885.20 1302.73,894.97 1301.73,896.61" fill="none" stroke="rgb(199, 64, 64)" stroke-width="26.00" stroke-opacity="1.00" stroke-linejoin="round"/>
<path d="M1306.00,892.40 C1305.98,893.25 1305.91,895.36 1305.85,896.53 C1305.69,899.60 1304.62,905.83 1303.95,909.59 C1303.62,911.63 1303.66,915.26 1303.81,918.53 C1303.92,920.54 1307.07,933.33 1307.19,935.83 C1307.28,938.28 1307.02,939.12 1305.87,940.26 C1305.35,940.74 1301.87,945.14 1301.24,947.80 C1300.77,949.87 1300.52,952.17 1300.35,953.84 C1300.17,955.25 1303.20,959.34 1303.22,959.38 C1303.98,960.64 1305.35,963.16 1305.59,963.40 C1306.16,963.69 1306.94,964.20 1307.35,965.32" fill="none" stroke="rgb(199, 64, 64)" stroke-width="26.00" stroke-opacity="1.00" stroke-linejoin="round"/>
<path d="M1303.72,962.04 C1303.81,963.43 1304.12,964.34 1305.07,965.02 C1308.51,967.45 1311.41,969.73 1312.97,971.47 C1317.28,976.33 1320.41,981.99 1320.48,984.17 C1320.48,989.00 1322.28,994.33 1322.38,994.53" fill="none" stroke="rgb(199, 64, 64)" stroke-width="26.00" stroke-opacity="1.00" stroke-linejoin="round"/>
<path d="M1322.08,993.79 C1322.08,993.79 1322.01,994.97 1322.01,994.97 C1323.63,995.99 1330.04,998.23 1330.72,998.08 C1332.92,997.59 1337.30,997.34 1339.20,996.66 C1339.44,996.58 1339.59,996.48 1339.67,996.36 C1339.67,996.51 1339.66,996.60 1339.66,996.64 C1339.66,996.64 1339.64,996.69 1339.60,996.77 C1339.59,996.80 1339.58,996.84 1339.56,996.91 C1339.86,997.04 1340.07,997.14 1340.18,997.21 C1340.66,997.51 1344.96,998.66 1348.25,1000.10 C1349.74,1000.77 1354.49,1003.62 1355.62,1004.12 C1355.86,1004.23 1358.52,1007.28 1358.74,1007.29" fill="none" stroke="rgb(199, 64, 64)" stroke-width="26.00" stroke-opacity="1.00" stroke-linejoin="round"/>
<path d="M1358.28,1005.60 C1358.04,1006.97 1358.04,1008.10 1358.72,1008.85 C1364.13,1014.80 1368.09,1018.94 1368.18,1018.99 C1368.71,1019.29 1379.15,1025.43 1384.67,1026.40 C1387.91,1026.72 1393.92,1028.43 1394.29,1028.20" fill="none" stroke="rgb(199, 64, 64)" stroke-width="26.00" stroke-opacity="1.00" stroke-linejoin="round"/>
<path d="M1398.73,1031.18 C1399.67,1030.51 1412.75,1025.76 1417.08,1024.68 C1417.51,1024.57 1417.88,1024.43 1418.20,1024.24" fill="none" stroke="rgb(199, 64, 64)" stroke-width="26.00" stroke-opacity="1.00" stroke-linejoin="round"/>
<path d="M1415.61,1026.59 C1416.64,1027.13 1430.33,1030.13 1434.85,1031.29 C1435.58,1031.50 1441.08,1033.15 1441.95,1033.80" fill="none" stroke="rgb(199, 64, 64)" stroke-width="26.00" stroke-opacity="1.00" stroke-linejoin="round"/>
<path d="M1447.87,1030.85 C1449.82,1028.87 1453.88,1024.78 1455.94,1020.84 C1457.47,1017.90 1461.26,1012.45 1462.85,1009.06 C1463.55,1007.56 1464.66,1004.95 1464.81,1004.48 C1464.86,1004.33 1464.89,1004.16 1464.91,1003.96" fill="none" stroke="rgb(199, 64, 64)" stroke-width="26.00" stroke-opacity="1.00" stroke-linejoin="round"/>
<path d="M1465.60,1008.99 C1466.95,1008.26 1472.73,1005.88 1477.36,1003.17 C1478.69,1002.38 1480.94,1001.89 1481.61,1001.64 C1485.15,1000.27 1489.90,992.90 1490.15,992.40 C1490.23,992.25 1490.29,992.06 1490.36,991.83" fill="none" stroke="rgb(199, 64, 64)" stroke-width="26.00" stroke-opacity="1.00" stroke-linejoin="round"/>
<path d="M1490.03,997.84 C1492.39,996.17 1497.54,993.40 1500.96,990.54 C1501.16,990.37 1501.35,990.23 1501.53,990.13" fill="none" stroke="rgb(199, 64, 64)" stroke-width="26.00" stroke-opacity="1.00" stroke-linejoin="round"/>
<path d="M1501.20,988.77" fill="none" stroke="rgb(199, 64, 64)" stroke-width="26.00" stroke-opacity="1.00" stroke-linejoin="round"/>
<path d="M1505.91,988.11" fill="none" stroke="rgb(199, 64, 64)" stroke-width="26.00" stroke-opacity="1.00" stroke-linejoin="round"/>
<path d="M1498.19,984.23 C1495.39,980.58 1491.04,967.95 1491.08,965.25 C1491.22,961.51 1497.20,952.66 1497.79,952.03 C1497.96,951.86 1498.18,951.70 1498.47,951.54" fill="none" stroke="rgb(199, 64, 64)" stroke-width="26.00" stroke-opacity="1.00" stroke-linejoin="round"/>
<path d="M1495.71,961.65 C1497.04,959.26 1499.35,956.75 1501.30,954.45 C1502.94,952.52 1506.74,948.70 1509.57,947.25 C1510.41,946.82 1514.10,944.99 1514.32,944.60" fill="none" stroke="rgb(199, 64, 64)" stroke-width="26.00" stroke-opacity="1.00" stroke-linejoin="round"/>
<path d="M1511.65,949.25 C1517.07,945.02 1526.29,938.76 1528.32,937.93 C1528.53,937.84 1528.87,937.70 1529.34,937.50" fill="none" stroke="rgb(199, 64, 64)" stroke-width="26.00" stroke-opacity="1.00" stroke-linejoin="round"/>
<path d="M1529.18,937.55 C1529.18,937.55 1532.99,932.14 1532.99,932.14" fill="none" stroke="rgb(199, 64, 64)" stroke-width="26.00" stroke-opacity="1.00" stroke-linejoin="round"/>
<path d="M1534.15,932.79 C1534.15,932.79 1534.53,929.35 1534.53,929.35" fill="none" stroke="rgb(199, 64, 64)" stroke-width="26.00" stroke-opacity="1.00" stroke-linejoin="round"/>
<path d="M1532.33,930.34 C1530.55,929.60 1524.99,924.54 1523.95,923.54 C1522.02,921.67 1519.37,918.24 1517.86,914.86 C1516.42,911.61 1515.69,907.44 1515.26,906.64" fill="none" stroke="rgb(199, 64, 64)" stroke-width="26.00" stroke-opacity="1.00" stroke-linejoin="round"/>
<path d="M1522.48,919.62 C1518.44,913.55 1514.72,904.57 1513.57,900.39 C1513.07,898.53 1512.95,897.26 1513.00,895.11" fill="none" stroke="rgb(199, 64, 64)" stroke-width="26.00" stroke-opacity="1.00" stroke-linejoin="round"/>
<path d="M1517.38,898.20 C1517.38,898.20 1523.37,890.46 1523.37,890.46 C1523.37,890.46 1524.14,890.41 1524.14,890.41" fill="none" stroke="rgb(199, 64, 64)" stroke-width="26.00" stroke-opacity="1.00" stroke-linejoin="round"/>
<path d="M1517.22,885.90 C1515.48,883.34 1512.19,878.54 1510.83,877.43 C1510.47,877.12 1502.74,870.90 1501.27,868.68 C1501.13,868.47 1500.95,868.14 1500.73,867.70" fill="none" stroke="rgb(199, 64, 64)" stroke-width="26.00" stroke-opacity="1.00" stroke-linejoin="round"/>
<path d="M1509.14,873.38 C1508.19,872.60 1505.49,870.39 1504.38,869.53 C1503.50,868.84 1494.32,861.70 1492.41,861.00 C1491.91,860.82 1490.86,860.52 1489.26,860.10" fill="none" stroke="rgb(199, 64, 64)" stroke-width="26.00" stroke-opacity="1.00" stroke-linejoin="round"/>
<path d="M1488.98,876.55 C1488.12,878.17 1487.78,879.24 1487.87,880.75 C1488.36,887.38 1489.71,905.70 1489.82,908.66 C1490.13,917.04 1488.67,922.29 1488.39,922.63 C1487.48,922.13 1486.91,920.67 1486.65,917.82 C1486.43,915.24 1486.54,908.07 1487.00,904.84 C1487.52,901.31 1489.46,895.13 1490.88,892.18 C1492.22,889.49 1495.07,885.78 1496.73,885.65 C1497.05,885.63 1497.74,885.69 1498.80,885.82 C1500.30,887.71 1501.10,889.13 1501.57,891.02 C1502.38,894.41 1503.24,901.96 1503.32,905.88 C1503.37,909.78 1502.69,916.99 1501.84,920.41 C1500.18,926.84 1495.49,935.48 1493.83,937.39 C1493.08,938.25 1492.08,938.47 1490.84,938.40 C1489.91,937.57 1488.73,932.69 1488.61,929.25 C1488.41,923.21 1490.24,911.08 1492.25,905.94 C1493.51,902.80 1496.59,898.17 1498.56,896.26 C1500.75,894.22 1503.59,893.48 1504.73,893.63 C1505.93,894.92 1506.60,896.02 1506.90,897.49 C1507.46,900.31 1507.32,908.10 1506.88,910.61 C1505.98,915.58 1502.37,926.34 1499.96,931.46 C1497.88,935.80 1494.61,940.97 1492.50,943.29 C1490.33,945.60 1488.75,946.42 1487.19,946.95 C1486.36,946.75 1485.67,945.13 1485.52,942.52 C1485.38,939.69 1487.28,933.31 1489.26,929.68 C1490.68,927.13 1495.71,921.06 1497.90,919.02 C1500.25,916.87 1504.92,914.01 1506.60,913.55 C1508.42,913.07 1509.85,913.19 1510.54,913.75 C1511.14,916.58 1510.12,920.64 1508.66,924.05 C1507.64,926.35 1496.22,942.50 1491.55,948.79 C1485.05,957.29 1482.87,958.36 1482.10,958.40 C1481.47,957.97 1481.34,954.78 1482.13,951.79 C1483.02,948.52 1485.98,941.70 1488.40,937.93 C1489.52,936.22 1493.46,931.21 1496.00,928.70 C1498.69,926.07 1503.88,922.54 1506.26,921.62 C1507.47,921.16 1508.64,921.05 1510.32,921.13 C1510.97,922.08 1511.23,922.88 1511.08,923.91 C1510.31,928.81 1504.22,937.56 1497.18,946.62 C1492.63,952.43 1482.14,965.76 1479.90,968.11 C1477.49,970.60 1474.59,972.01 1473.58,971.96 C1472.72,971.95 1471.40,966.05 1471.46,961.30 C1471.54,957.62 1472.60,949.82 1473.47,946.27 C1474.34,942.78 1476.56,936.93 1477.59,935.09 C1478.59,933.35 1479.66,932.21 1480.49,931.97 C1481.31,931.79 1483.03,933.20 1483.69,935.69 C1484.42,938.58 1484.68,943.69 1484.57,948.49 C1484.35,954.08 1481.48,965.89 1479.04,971.71 C1476.44,977.84 1471.03,985.89 1469.54,987.02 C1468.90,987.49 1467.14,987.44 1466.45,987.15 C1465.60,986.73 1464.52,983.41 1464.47,980.60 C1464.44,977.48 1465.58,972.34 1466.72,969.36 C1467.82,966.51 1470.85,961.02 1472.58,958.89 C1476.55,954.09 1481.41,953.22 1482.34,953.40 C1483.75,954.61 1483.56,960.27 1482.32,964.09 C1480.76,968.73 1472.79,984.08 1469.06,989.56 C1466.95,992.63 1462.91,997.17 1461.46,998.22 C1459.99,999.28 1458.64,999.68 1457.64,999.48 C1456.27,998.01 1455.48,996.75 1455.12,995.11 C1454.38,991.57 1454.41,984.16 1455.16,980.16 C1455.79,976.95 1458.94,969.53 1460.68,966.63 C1464.19,960.86 1470.66,955.57 1472.23,955.26 C1473.07,955.91 1473.53,956.53 1473.66,957.50 C1473.99,960.04 1472.97,965.40 1471.46,969.12 C1469.98,972.68 1462.24,984.64 1458.22,989.80 C1456.02,992.63 1444.45,1006.14 1441.06,1009.07 C1438.12,1011.56 1433.29,1013.67 1432.48,1013.20 C1431.57,1012.50 1430.61,1008.75 1430.70,1005.16 C1430.83,1001.74 1433.31,993.27 1434.73,990.30 C1436.13,987.43 1439.61,981.97 1441.61,979.53 C1443.60,977.14 1447.49,974.00 1448.85,974.01 C1449.06,974.04 1449.80,974.48 1449.91,974.99 C1450.48,978.09 1449.20,985.93 1448.77,987.29 C1447.85,990.12 1439.93,1006.91 1437.02,1011.71 C1434.84,1015.24 1432.38,1017.66 1431.28,1017.57 C1430.26,1017.34 1429.12,1014.81 1428.92,1011.53 C1428.61,1005.38 1432.15,991.11 1434.17,985.81 C1435.77,981.64 1438.59,976.10 1440.33,973.54 C1441.92,971.26 1444.38,968.80 1445.55,968.62 C1446.29,970.20 1445.55,974.96 1444.50,977.94 C1442.45,983.60 1433.70,996.71 1429.37,1001.59 C1426.97,1004.26 1422.84,1007.60 1420.55,1008.79 C1419.40,1009.36 1417.09,1009.95 1415.42,1010.11 C1414.27,1010.18 1412.59,1009.61 1412.05,1008.80 C1410.42,1006.18 1409.75,999.82 1410.11,997.06 C1410.52,994.20 1412.51,987.88 1413.91,984.78 C1415.35,981.67 1418.61,976.56 1420.70,974.04 C1422.80,971.56 1426.61,968.69 1428.11,968.90 C1428.82,969.55 1429.05,972.58 1428.53,975.24 C1427.58,979.81 1420.80,992.95 1416.92,998.79 C1414.90,1001.82 1411.17,1006.65 1409.43,1008.47 C1407.62,1010.33 1404.68,1012.50 1403.24,1012.76 C1402.39,1012.84 1401.10,1009.65 1400.99,1006.06 C1400.94,1002.79 1401.73,997.11 1402.75,993.38 C1403.77,989.74 1406.26,983.13 1407.86,979.94 C1409.57,976.58 1413.01,971.82 1414.53,970.48 C1415.95,969.26 1417.14,968.78 1417.90,968.98 C1418.60,969.76 1418.96,973.03 1418.59,976.06 C1418.21,978.89 1416.19,985.12 1414.88,987.78 C1412.42,992.66 1405.25,1001.76 1401.88,1003.93 C1400.19,1004.98 1396.73,1006.68 1395.36,1006.97 C1393.12,1007.40 1390.98,1007.03 1390.17,1006.12 C1389.24,1004.94 1388.42,1000.48 1388.60,996.92 C1388.83,992.95 1390.56,986.50 1392.07,982.88 C1393.58,979.37 1397.02,973.96 1399.18,971.81 C1401.63,969.45 1404.60,968.69 1405.64,968.95 C1406.65,970.62 1407.17,971.93 1407.30,973.60 C1407.54,976.71 1406.57,983.08 1405.47,986.23 C1404.50,988.93 1401.63,994.89 1399.98,997.41 C1398.23,1000.04 1394.73,1003.93 1392.54,1005.54 C1391.41,1006.33 1388.56,1007.40 1386.95,1007.54 C1385.60,1007.64 1383.53,1006.99 1382.99,1006.45 C1381.85,1005.17 1379.59,1000.58 1379.00,997.89 C1378.35,994.75 1378.39,988.16 1378.83,985.09 C1379.69,979.35 1383.25,968.01 1385.69,963.76 C1387.66,960.38 1391.70,956.02 1393.27,955.31 C1394.49,954.80 1396.69,954.30 1397.12,954.44 C1398.08,954.84 1399.48,957.58 1399.88,960.23 C1400.28,963.19 1399.47,967.97 1398.20,971.02 C1396.79,974.35 1393.88,979.83 1391.99,982.72 C1389.88,985.92 1385.74,990.86 1382.74,993.44 C1380.01,995.75 1375.21,997.94 1373.03,997.87 C1371.91,997.79 1369.96,996.92 1369.06,996.09 C1367.30,994.35 1365.26,988.99 1364.46,984.47 C1363.63,979.57 1364.52,966.96 1365.89,961.17 C1366.57,958.35 1368.62,953.00 1369.98,950.63 C1371.20,948.60 1374.32,945.78 1376.34,945.72 C1377.29,945.75 1379.19,949.68 1379.80,953.15 C1380.35,956.42 1380.32,965.12 1379.62,968.42 C1378.88,971.76 1375.83,979.22 1373.92,982.42 C1371.95,985.65 1367.46,990.29 1365.10,991.69 C1363.02,992.88 1357.93,993.95 1356.23,993.74 C1354.24,993.44 1350.66,990.72 1349.32,988.49 C1347.99,986.19 1346.01,980.16 1345.43,975.84 C1344.76,970.42 1345.83,959.02 1347.40,952.81 C1348.15,949.91 1350.18,943.94 1350.96,942.17 C1352.68,938.40 1355.90,933.77 1357.37,933.72 C1358.29,933.77 1359.63,936.53 1359.91,940.04 C1360.19,944.02 1359.46,951.20 1358.54,955.04 C1357.66,958.58 1354.98,965.90 1353.32,969.07 C1351.54,972.42 1347.97,977.14 1345.49,979.10 C1343.33,980.76 1339.49,981.84 1337.69,981.39 C1335.87,980.86 1333.04,977.69 1331.71,974.78 C1330.18,971.29 1328.77,964.78 1328.50,961.53 C1328.06,955.66 1329.32,943.65 1330.89,937.44 C1331.48,935.13 1333.22,929.74 1334.53,926.69 C1335.95,923.45 1338.16,920.23 1339.68,920.00 C1340.80,921.98 1341.13,927.88 1341.01,931.22 C1340.86,935.10 1339.58,941.77 1338.48,945.17 C1337.42,948.40 1334.92,953.55 1333.18,956.16 C1332.27,957.47 1330.02,959.46 1328.59,960.15 C1327.33,960.72 1325.42,959.92 1324.33,958.70 C1323.08,957.19 1320.55,951.41 1319.90,948.02 C1319.37,945.14 1319.26,939.14 1319.42,934.65 C1319.69,928.94 1323.32,913.37 1324.97,907.85 C1330.03,891.39 1335.28,880.64 1336.36,878.98 C1337.61,877.08 1338.65,876.30 1339.48,876.44 C1341.16,878.12 1341.38,890.83 1340.60,897.29 C1339.74,904.21 1336.52,916.28 1334.10,921.49 C1332.85,924.15 1329.47,930.18 1327.87,932.22 C1325.74,934.89 1322.11,937.68 1320.11,937.93 C1319.18,938.01 1317.64,937.63 1316.98,937.11 C1315.53,935.90 1313.54,930.91 1313.08,927.71 C1312.46,923.15 1314.53,910.40 1316.45,903.85 C1318.28,897.70 1322.89,885.95 1325.41,880.92 C1326.57,878.60 1329.10,874.44 1330.89,872.75 C1330.89,872.75 1332.16,872.97 1332.16,872.97 C1333.67,876.01 1334.20,880.86 1334.53,884.98 C1334.79,888.43 1335.24,891.52 1335.41,892.54 C1335.46,892.82 1335.51,893.10 1335.56,893.39" fill="none" stroke="rgb(199, 64, 64)" stroke-width="26.00" stroke-opacity="1.00" stroke-linejoin="round"/>
<path d="M1329.88,854.80 C1328.40,854.68 1319.12,860.37 1312.30,864.09 C1307.98,866.47 1299.43,874.02 1296.59,878.49 C1295.32,880.53 1290.96,894.15 1290.80,894.78 C1289.95,898.07 1289.75,901.96 1290.50,905.51 C1293.95,921.18 1295.61,931.19 1295.69,931.62 C1295.69,931.62 1296.44,930.34 1296.44,930.34" fill="none" stroke="rgb(199, 64, 64)" stroke-width="6.00" stroke-opacity="1.00" stroke-linejoin="round"/>
<path d="M1295.33,897.27 C1294.38,898.66 1293.99,899.68 1293.95,901.34 C1293.73,920.21 1296.58,928.26 1297.24,929.41" fill="none" stroke="rgb(199, 64, 64)" stroke-width="6.00" stroke-opacity="1.00" stroke-linejoin="round"/>
<path d="M1295.33,914.98 C1294.99,917.23 1293.98,923.77 1293.80,925.47 C1293.26,930.78 1293.24,943.74 1293.29,944.22 C1293.29,944.22 1293.62,942.96 1293.62,942.96" fill="none" stroke="rgb(199, 64, 64)" stroke-width="6.00" stroke-opacity="1.00" stroke-linejoin="round"/>
<path d="M1291.97,911.92 C1291.90,916.52 1294.50,932.52 1294.37,937.71 C1294.15,941.28 1293.91,945.66 1293.93,947.80 C1293.93,947.80 1293.82,945.86 1293.82,945.86" fill="none" stroke="rgb(199, 64, 64)" stroke-width="6.00" stroke-opacity="1.00" stroke-linejoin="round"/>
<path d="M1293.43,934.27 C1292.13,936.47 1291.16,940.08 1290.83,943.32 C1290.44,947.40 1290.26,953.54 1290.69,954.99 C1291.47,957.54 1292.48,959.21 1293.03,959.09 C1293.03,959.09 1293.38,958.76 1293.38,958.76" fill="none" stroke="rgb(199, 64, 64)" stroke-width="6.00" stroke-opacity="1.00" stroke-linejoin="round"/>
<path d="M1293.49,933.67 C1291.62,935.64 1289.75,941.41 1289.31,944.22 C1289.04,946.02 1288.84,952.26 1289.12,954.45 C1289.57,957.64 1294.87,966.60 1296.02,967.23 C1296.37,967.06 1296.62,966.68 1296.74,966.11 C1296.76,966.01 1296.77,965.91 1296.77,965.81" fill="none" stroke="rgb(199, 64, 64)" stroke-width="6.00" stroke-opacity="1.00" stroke-linejoin="round"/>
<path d="M1289.51,947.72 C1288.61,949.15 1288.24,950.22 1288.09,952.17 C1287.87,955.40 1288.92,959.86 1290.23,961.87 C1291.37,963.52 1296.41,967.92 1297.68,968.19 C1297.89,968.23 1298.23,968.20 1298.71,968.10 C1298.71,968.10 1298.94,967.89 1298.94,967.89" fill="none" stroke="rgb(199, 64, 64)" stroke-width="6.00" stroke-opacity="1.00" stroke-linejoin="round"/>
<path d="M1289.85,955.10 C1289.45,957.48 1290.84,962.11 1292.34,965.02 C1293.49,967.19 1296.03,970.31 1298.59,973.02 C1303.67,978.39 1305.78,978.91 1306.76,978.87 C1306.76,978.87 1307.30,977.40 1307.30,977.40" fill="none" stroke="rgb(199, 64, 64)" stroke-width="6.00" stroke-opacity="1.00" stroke-linejoin="round"/>
<path d="M1292.99,964.06 C1294.15,966.82 1297.54,971.74 1299.51,974.60 C1301.39,977.26 1303.86,979.81 1307.09,981.55 C1308.04,982.05 1312.82,984.46 1313.82,984.78 C1313.82,984.78 1314.33,984.15 1314.33,984.15 C1314.33,984.15 1314.33,983.96 1314.33,983.96" fill="none" stroke="rgb(199, 64, 64)" stroke-width="6.00" stroke-opacity="1.00" stroke-linejoin="round"/>
<path d="M1300.08,969.85 C1301.11,973.40 1303.29,976.95 1305.55,980.11 C1310.17,986.55 1314.12,990.41 1316.11,991.01 C1316.11,991.01 1316.78,990.24 1316.78,990.24" fill="none" stroke="rgb(199, 64, 64)" stroke-width="6.00" stroke-opacity="1.00" stroke-linejoin="round"/>
<path d="M1312.10,986.58 C1311.98,987.79 1310.87,994.18 1310.77,994.48 C1310.70,994.70 1309.27,997.41 1309.17,999.20 C1309.17,999.74 1310.88,1002.26 1311.53,1003.22 C1313.12,1005.52 1313.69,1006.04 1314.41,1006.04" fill="none" stroke="rgb(199, 64, 64)" stroke-width="6.00" stroke-opacity="1.00" stroke-linejoin="round"/>
<path d="M1310.91,991.12 C1310.33,992.71 1310.23,994.96 1310.80,997.07 C1310.99,997.75 1312.78,1001.65 1312.90,1001.86 C1313.62,1003.07 1319.40,1006.06 1319.75,1006.20 C1321.49,1006.92 1332.30,1008.74 1332.41,1008.72 C1332.41,1008.72 1332.53,1007.73 1332.53,1007.73" fill="none" stroke="rgb(199, 64, 64)" stroke-width="6.00" stroke-opacity="1.00" stroke-linejoin="round"/>
<path d="M1317.86,1004.78 C1317.86,1004.78 1316.37,1005.00 1316.37,1005.00 C1325.00,1010.65 1338.06,1010.46 1338.80,1010.30 C1338.80,1010.30 1338.76,1009.10 1338.76,1009.10" fill="none" stroke="rgb(199, 64, 64)" stroke-width="6.00" stroke-opacity="1.00" stroke-linejoin="round"/>
<path d="M1317.36,1005.33 C1317.97,1006.88 1319.84,1009.02 1323.62,1009.64 C1325.13,1009.88 1330.41,1010.08 1332.78,1010.03 C1335.55,1009.93 1338.24,1009.40 1339.30,1008.58 C1339.89,1008.11 1340.30,1007.54 1340.51,1006.88 C1340.58,1006.63 1340.60,1006.18 1340.55,1005.55" fill="none" stroke="rgb(199, 64, 64)" stroke-width="6.00" stroke-opacity="1.00" stroke-linejoin="round"/>
<path d="M1326.35,1007.62 C1326.73,1009.04 1327.96,1010.03 1330.49,1010.79 C1334.41,1011.96 1344.66,1012.05 1349.06,1012.05" fill="none" stroke="rgb(199, 64, 64)" stroke-width="6.00" stroke-opacity="1.00" stroke-linejoin="round"/>
<path d="M1340.61,1008.77 C1341.67,1010.96 1344.89,1013.90 1347.06,1015.90 C1353.11,1021.51 1361.07,1028.89 1361.91,1029.02 C1361.91,1029.02 1362.58,1027.14 1362.58,1027.14" fill="none" stroke="rgb(199, 64, 64)" stroke-width="6.00" stroke-opacity="1.00" stroke-linejoin="round"/>
<path d="M1349.85,1019.37 C1350.03,1020.98 1350.47,1021.93 1351.64,1022.99 C1354.13,1025.23 1357.71,1027.92 1360.45,1029.49 C1364.82,1031.94 1373.13,1033.87 1374.63,1033.97" fill="none" stroke="rgb(199, 64, 64)" stroke-width="6.00" stroke-opacity="1.00" stroke-linejoin="round"/>
<path d="M1362.64,1028.78 C1363.29,1029.99 1364.80,1031.15 1367.31,1032.27 C1368.76,1032.91 1375.32,1034.62 1381.61,1036.11 C1388.22,1037.60 1389.40,1037.66 1391.48,1037.44 C1391.48,1037.44 1391.92,1036.81 1391.92,1036.81" fill="none" stroke="rgb(199, 64, 64)" stroke-width="6.00" stroke-opacity="1.00" stroke-linejoin="round"/>
<path d="M1373.34,1031.13 C1373.34,1031.13 1373.27,1032.96 1373.27,1032.96 C1374.62,1034.36 1377.84,1036.30 1380.35,1037.08 C1383.53,1038.03 1394.74,1040.23 1395.29,1040.39 C1395.37,1040.42 1395.37,1040.35 1395.29,1040.20" fill="none" stroke="rgb(199, 64, 64)" stroke-width="6.00" stroke-opacity="1.00" stroke-linejoin="round"/>
<path d="M1369.73,1032.16 C1372.10,1034.93 1376.79,1038.01 1378.68,1038.96 C1380.80,1040.00 1384.27,1041.23 1387.43,1041.61 C1390.66,1041.98 1393.02,1041.15 1393.84,1040.61" fill="none" stroke="rgb(199, 64, 64)" stroke-width="6.00" stroke-opacity="1.00" stroke-linejoin="round"/>
<path d="M1389.17,1040.80 C1391.24,1042.43 1395.31,1042.32 1399.09,1041.54 C1401.26,1041.06 1404.67,1040.33 1405.23,1039.57 C1405.23,1039.57 1405.24,1039.05 1405.24,1039.05" fill="none" stroke="rgb(199, 64, 64)" stroke-width="6.00" stroke-opacity="1.00" stroke-linejoin="round"/>
<path d="M1397.77,1041.46 C1397.48,1041.67 1401.04,1042.10 1403.05,1036.70 C1403.24,1036.16 1403.20,1035.11 1403.17,1035.17" fill="none" stroke="rgb(199, 64, 64)" stroke-width="6.00" stroke-opacity="1.00" stroke-linejoin="round"/>
<path d="M1396.94,1040.75 C1397.30,1040.56 1398.29,1039.70 1398.97,1038.75 C1399.39,1038.15 1400.00,1037.19 1400.79,1035.85 C1400.96,1035.56 1401.04,1035.40 1401.02,1035.39" fill="none" stroke="rgb(199, 64, 64)" stroke-width="6.00" stroke-opacity="1.00" stroke-linejoin="round"/>
<path d="M1424.85,1037.08 C1425.74,1038.97 1428.39,1041.47 1430.93,1042.02 C1432.35,1042.31 1434.98,1042.44 1436.94,1042.52 C1438.55,1042.63 1439.44,1043.30 1440.12,1044.43" fill="none" stroke="rgb(199, 64, 64)" stroke-width="6.00" stroke-opacity="1.00" stroke-linejoin="round"/>
<path d="M1434.28,1042.66 C1435.76,1044.10 1437.91,1044.91 1443.02,1045.45 C1443.20,1045.29 1443.31,1045.13 1443.33,1044.95 C1443.36,1044.78 1443.35,1044.34 1443.29,1043.64" fill="none" stroke="rgb(199, 64, 64)" stroke-width="6.00" stroke-opacity="1.00" stroke-linejoin="round"/>
<path d="M1443.73,1045.83 C1445.62,1044.82 1447.66,1043.55 1448.60,1042.60 C1449.66,1041.53 1451.22,1039.17 1451.91,1037.82 C1452.00,1037.64 1452.04,1037.54 1452.03,1037.52" fill="none" stroke="rgb(199, 64, 64)" stroke-width="6.00" stroke-opacity="1.00" stroke-linejoin="round"/>
<path d="M1449.52,1041.35 C1451.13,1041.46 1453.17,1040.60 1454.94,1038.83 C1455.51,1038.26 1457.03,1036.03 1458.14,1034.43 C1460.00,1031.72 1460.97,1030.52 1461.49,1029.98" fill="none" stroke="rgb(199, 64, 64)" stroke-width="6.00" stroke-opacity="1.00" stroke-linejoin="round"/>
<path d="M1455.73,1037.14 C1455.73,1037.14 1457.12,1037.82 1457.12,1037.82 C1459.03,1036.56 1464.79,1031.30 1465.54,1029.46 C1465.80,1028.82 1466.05,1027.85 1466.30,1026.53 C1466.35,1026.28 1466.44,1025.64 1466.59,1024.62 C1466.60,1024.57 1466.62,1024.40 1466.62,1024.46" fill="none" stroke="rgb(199, 64, 64)" stroke-width="6.00" stroke-opacity="1.00" stroke-linejoin="round"/>
<path d="M1462.57,1032.60 C1465.08,1029.27 1467.45,1025.96 1469.19,1023.01 C1469.90,1021.79 1475.51,1011.51 1475.61,1011.34 C1475.81,1011.00 1476.18,1010.41 1476.71,1009.59" fill="none" stroke="rgb(199, 64, 64)" stroke-width="6.00" stroke-opacity="1.00" stroke-linejoin="round"/>
<path d="M1472.91,1015.77 C1475.26,1015.93 1476.62,1015.81 1477.85,1015.16 C1480.36,1013.82 1485.22,1010.35 1487.48,1007.88 C1489.41,1005.73 1492.60,1000.91 1492.86,1000.11 C1492.89,999.99 1492.91,999.81 1492.92,999.59" fill="none" stroke="rgb(199, 64, 64)" stroke-width="6.00" stroke-opacity="1.00" stroke-linejoin="round"/>
<path d="M1473.54,1017.08 C1476.01,1017.96 1479.22,1017.47 1481.52,1016.34 C1483.83,1015.18 1488.41,1011.72 1490.07,1009.62 C1490.70,1008.80 1492.27,1006.27 1492.69,1005.65 C1493.37,1004.65 1494.55,1003.11 1494.52,1003.19" fill="none" stroke="rgb(199, 64, 64)" stroke-width="6.00" stroke-opacity="1.00" stroke-linejoin="round"/>
<path d="M1489.34,1007.29 C1490.91,1007.68 1491.97,1007.66 1493.14,1007.03 C1495.14,1005.95 1500.25,1002.12 1502.80,1001.01 C1503.38,1000.75 1505.17,999.95 1505.51,999.12 C1505.71,998.60 1505.95,997.21 1505.91,997.24" fill="none" stroke="rgb(199, 64, 64)" stroke-width="6.00" stroke-opacity="1.00" stroke-linejoin="round"/>
<path d="M1496.32,1004.29 C1498.67,1003.92 1501.12,1002.29 1503.79,1000.04 C1506.59,997.62 1511.02,993.80 1511.43,993.38 C1511.76,993.04 1512.43,992.29 1513.44,991.12" fill="none" stroke="rgb(199, 64, 64)" stroke-width="6.00" stroke-opacity="1.00" stroke-linejoin="round"/>
<path d="M1501.67,1002.38 C1502.94,1002.58 1504.42,1002.21 1505.77,1001.06 C1507.41,999.67 1511.41,994.58 1511.67,994.18 C1511.89,993.84 1512.21,993.26 1512.64,992.43" fill="none" stroke="rgb(199, 64, 64)" stroke-width="6.00" stroke-opacity="1.00" stroke-linejoin="round"/>
<path d="M1508.17,996.80 C1508.88,995.20 1509.87,993.85 1511.15,993.03 C1512.04,992.45 1515.24,991.24 1516.46,990.13 C1516.46,990.13 1515.18,992.26 1515.18,992.26 C1515.18,992.26 1519.49,987.73 1519.49,987.73 C1519.83,989.34 1515.05,992.80 1515.04,992.86 C1515.04,992.86 1520.06,989.04 1520.06,989.04 C1519.29,988.84 1518.44,985.67 1518.07,984.42 C1517.69,983.12 1515.05,980.92 1514.60,980.48 C1514.60,980.48 1519.42,986.33 1519.42,986.33 C1516.67,986.72 1512.11,979.06 1511.47,977.97 C1512.84,979.97 1517.23,984.35 1517.49,985.70 C1517.87,988.03 1515.95,990.60 1514.98,991.20 C1514.98,991.20 1514.02,987.07 1514.02,987.07 C1515.14,987.47 1515.73,988.37 1515.37,989.75 C1514.98,991.21 1512.62,995.68 1512.03,996.66 C1512.03,996.66 1514.39,993.17 1514.39,993.17 C1514.84,994.58 1513.28,995.64 1512.75,995.71 C1512.75,995.71 1514.49,986.99 1514.49,986.99 C1513.05,984.73 1508.34,978.57 1507.47,976.41 C1507.22,975.80 1506.89,974.63 1506.46,972.91 C1506.46,972.91 1511.33,980.13 1511.33,980.13 C1510.85,980.24 1510.02,980.45 1509.55,980.18 C1506.96,978.67 1504.38,974.86 1503.49,973.02 C1502.96,971.91 1502.53,970.29 1501.91,967.39 C1503.77,969.78 1506.04,973.59 1506.70,975.84 C1507.37,978.16 1507.63,980.19 1507.40,980.62 C1505.73,978.38 1503.40,968.88 1503.43,966.60 C1503.46,965.18 1504.34,963.59 1505.08,963.13 C1505.23,963.05 1505.43,963.00 1505.68,962.97" fill="none" stroke="rgb(199, 64, 64)" stroke-width="6.00" stroke-opacity="1.00" stroke-linejoin="round"/>
<path d="M1504.17,968.65 C1504.17,968.65 1502.91,970.59 1502.91,970.59 C1502.91,970.59 1516.32,952.75 1516.32,952.75 C1516.32,952.75 1503.79,970.45 1503.79,970.45 C1509.47,960.83 1519.32,950.84 1519.84,950.37 C1515.57,960.77 1506.49,968.99 1506.42,968.87 C1506.42,968.87 1524.94,948.89 1524.94,948.89 C1524.94,948.89 1507.95,967.99 1507.95,967.99 C1510.20,963.97 1525.32,950.11 1525.21,950.18 C1525.21,950.18 1517.45,960.04 1517.45,960.04 C1515.15,960.45 1525.83,951.49 1529.83,948.45 C1529.83,948.45 1517.85,959.47 1517.85,959.47 C1517.85,959.47 1533.72,945.07 1533.72,945.07 C1533.72,945.07 1521.93,957.42 1521.93,957.42 C1521.93,957.42 1537.06,941.54 1537.06,941.54 C1537.06,941.54 1531.06,950.07 1531.06,950.07 C1531.06,950.07 1539.41,938.64 1539.41,938.64 C1539.88,939.93 1536.43,946.01 1533.95,948.07 C1533.95,948.07 1543.18,934.74 1543.18,934.74 C1543.18,934.74 1540.54,940.34 1540.54,940.34 C1540.71,940.55 1542.18,933.40 1543.25,932.08 C1543.39,931.91 1543.58,931.84 1543.80,931.87 C1543.80,931.87 1542.52,939.49 1542.52,939.49 C1542.52,939.49 1545.20,925.77 1545.20,925.77 C1545.20,925.77 1543.72,927.71 1543.72,927.71 C1543.73,927.66 1543.73,927.61 1543.70,927.55 C1543.67,927.49 1543.59,927.34 1543.44,927.11" fill="none" stroke="rgb(199, 64, 64)" stroke-width="6.00" stroke-opacity="1.00" stroke-linejoin="round"/>
<path d="M1543.66,928.59 C1543.67,926.67 1543.31,925.18 1542.38,924.21 C1542.01,923.83 1540.00,922.23 1538.97,921.40 C1538.97,921.40 1544.32,925.47 1544.32,925.47 C1544.88,923.31 1538.53,920.75 1534.30,919.32 C1534.30,919.32 1538.16,920.22 1538.16,920.22 C1534.43,919.35 1529.71,914.48 1529.02,913.58 C1529.02,913.58 1535.93,919.49 1535.93,919.49 C1535.82,919.72 1533.49,917.43 1530.19,913.89 C1527.07,910.44 1524.41,903.58 1524.08,902.87 C1524.92,903.29 1526.18,904.68 1526.69,906.18 C1527.25,907.81 1527.25,910.50 1526.91,912.52 C1526.43,909.36 1527.07,905.68 1527.63,903.47 C1528.34,900.76 1529.51,898.86 1529.79,898.88 C1530.00,903.04 1527.24,911.13 1526.32,912.95 C1526.32,912.95 1530.62,892.57 1530.62,892.57 C1530.62,892.57 1526.62,911.34 1526.62,911.34 C1526.62,911.34 1531.61,895.35 1531.61,895.35 C1531.61,895.35 1526.95,910.74 1526.95,910.74" fill="none" stroke="rgb(199, 64, 64)" stroke-width="6.00" stroke-opacity="1.00" stroke-linejoin="round"/>
<path d="M1518.35,871.74 C1519.89,871.29 1521.52,871.62 1522.99,872.86 C1526.10,875.51 1528.70,880.72 1529.65,882.89 C1529.65,882.89 1524.59,876.99 1524.59,876.99 C1524.59,876.99 1530.00,885.13 1530.00,885.13" fill="none" stroke="rgb(199, 64, 64)" stroke-width="6.00" stroke-opacity="1.00" stroke-linejoin="round"/>
<path d="M1493.42,847.25 C1494.55,847.02 1496.08,847.87 1498.03,849.96 C1498.62,850.60 1502.85,856.16 1503.26,856.68 C1503.53,857.02 1503.80,857.33 1504.08,857.61" fill="none" stroke="rgb(199, 64, 64)" stroke-width="6.00" stroke-opacity="1.00" stroke-linejoin="round"/>
</g>
<g stroke-linecap="round" transform="translate(-1282.00, -688.00)" id="Layer_73">
<path d="M1327.73,928.92 C1327.27,931.55 1328.21,936.98 1329.27,940.32 C1332.31,949.51 1335.63,955.97 1336.44,956.77 C1336.63,956.96 1337.00,957.16 1337.53,957.37" fill="none" stroke="rgb(151, 59, 59)" stroke-width="16.00" stroke-opacity="1.00" stroke-linejoin="round"/>
<path d="M1330.41,944.91 C1330.96,947.11 1334.49,954.20 1335.99,956.53 C1337.43,958.71 1339.42,960.66 1342.90,963.31 C1346.25,965.85 1349.54,968.66 1350.85,970.15 C1351.15,970.49 1351.80,971.27 1352.81,972.51" fill="none" stroke="rgb(151, 59, 59)" stroke-width="16.00" stroke-opacity="1.00" stroke-linejoin="round"/>
<path d="M1336.55,956.30 C1338.20,960.97 1345.89,973.55 1350.19,977.70 C1354.64,981.93 1360.27,984.90 1360.63,984.94" fill="none" stroke="rgb(151, 59, 59)" stroke-width="16.00" stroke-opacity="1.00" stroke-linejoin="round"/>
<path d="M1359.20,979.57 C1361.21,982.48 1365.04,985.18 1368.99,987.26 C1372.80,989.24 1380.33,992.93 1383.06,993.56 C1384.03,993.78 1385.09,993.67 1385.81,993.48" fill="none" stroke="rgb(151, 59, 59)" stroke-width="16.00" stroke-opacity="1.00" stroke-linejoin="round"/>
<path d="M1382.28,992.99 C1384.60,994.18 1389.83,995.18 1392.74,994.78 C1397.07,994.13 1408.04,989.96 1409.45,989.25 C1409.79,989.08 1410.50,988.69 1411.57,988.09" fill="none" stroke="rgb(151, 59, 59)" stroke-width="16.00" stroke-opacity="1.00" stroke-linejoin="round"/>
<path d="M1390.57,991.87 C1392.96,992.83 1394.39,993.10 1395.88,992.67 C1397.28,992.27 1399.69,991.50 1401.01,991.06 C1402.55,990.53 1404.18,989.90 1406.59,988.92" fill="none" stroke="rgb(151, 59, 59)" stroke-width="16.00" stroke-opacity="1.00" stroke-linejoin="round"/>
<path d="M1397.59,990.61 C1400.75,989.53 1407.65,987.20 1410.12,986.61 C1410.98,986.41 1412.35,986.26 1414.42,986.07" fill="none" stroke="rgb(151, 59, 59)" stroke-width="16.00" stroke-opacity="1.00" stroke-linejoin="round"/>
<path d="M1412.19,985.04 C1413.41,984.04 1414.19,983.42 1414.55,983.19 C1414.90,982.96 1415.33,982.79 1415.82,982.69" fill="none" stroke="rgb(151, 59, 59)" stroke-width="16.00" stroke-opacity="1.00" stroke-linejoin="round"/>
<path d="M1414.57,982.66 C1413.60,983.94 1410.18,988.28 1407.69,990.11 C1404.64,992.30 1402.05,993.77 1399.85,994.16 C1398.18,994.45 1394.42,995.86 1392.57,996.31 C1396.90,995.90 1403.92,995.91 1404.14,995.91 C1409.98,995.91 1418.07,992.89 1418.78,992.79 C1418.78,992.79 1419.11,991.34 1419.11,991.34" fill="none" stroke="rgb(151, 59, 59)" stroke-width="16.00" stroke-opacity="1.00" stroke-linejoin="round"/>
<path d="M1403.07,994.91 C1405.58,996.60 1413.93,994.31 1416.55,993.42 C1414.76,993.30 1393.74,994.25 1390.37,995.15 C1387.83,995.83 1384.66,996.06 1383.98,995.11" fill="none" stroke="rgb(151, 59, 59)" stroke-width="16.00" stroke-opacity="1.00" stroke-linejoin="round"/>
<path d="M1419.61,990.14 C1421.30,989.36 1422.44,989.21 1424.04,989.71 C1428.31,991.02 1429.14,991.23 1429.42,991.24" fill="none" stroke="rgb(151, 59, 59)" stroke-width="16.00" stroke-opacity="1.00" stroke-linejoin="round"/>
<path d="M1420.88,986.76 C1421.50,986.67 1428.42,987.26 1430.06,987.49 C1430.38,987.54 1430.93,987.63 1431.69,987.76" fill="none" stroke="rgb(151, 59, 59)" stroke-width="16.00" stroke-opacity="1.00" stroke-linejoin="round"/>
<path d="M1420.58,993.99 C1423.19,993.30 1425.56,992.33 1429.81,990.18 C1431.16,989.51 1434.07,988.24 1435.50,987.73 C1436.85,987.24 1440.64,986.06 1442.11,985.61 C1442.36,985.52 1442.49,985.47 1442.51,985.44" fill="none" stroke="rgb(151, 59, 59)" stroke-width="16.00" stroke-opacity="1.00" stroke-linejoin="round"/>
<path d="M1428.64,991.27 C1430.57,991.29 1435.25,989.59 1437.56,988.19 C1438.64,987.52 1443.19,984.55 1443.73,984.15 C1443.99,983.94 1444.18,983.75 1444.28,983.55" fill="none" stroke="rgb(151, 59, 59)" stroke-width="16.00" stroke-opacity="1.00" stroke-linejoin="round"/>
<path d="M1418.21,993.66 C1421.67,993.72 1428.02,993.43 1430.22,993.09 C1432.91,992.65 1446.14,986.02 1447.84,984.02 C1447.90,983.93 1447.99,983.76 1448.10,983.49" fill="none" stroke="rgb(151, 59, 59)" stroke-width="16.00" stroke-opacity="1.00" stroke-linejoin="round"/>
<path d="M1442.91,986.37 C1444.49,986.63 1445.63,986.55 1447.00,985.89 C1449.59,984.64 1454.18,981.27 1458.81,977.61 C1463.55,973.81 1466.78,970.04 1467.66,967.45 C1467.75,967.15 1467.85,966.86 1467.94,966.56" fill="none" stroke="rgb(151, 59, 59)" stroke-width="16.00" stroke-opacity="1.00" stroke-linejoin="round"/>
<path d="M1448.19,982.39 C1450.81,980.46 1465.84,972.51 1467.41,970.86 C1467.82,970.42 1468.23,969.98 1468.64,969.54" fill="none" stroke="rgb(151, 59, 59)" stroke-width="16.00" stroke-opacity="1.00" stroke-linejoin="round"/>
<path d="M1454.44,984.31 C1454.44,984.31 1454.66,985.80 1454.66,985.80 C1454.66,985.80 1463.71,977.82 1463.71,977.82 C1463.19,977.51 1462.47,977.83 1461.07,979.11 C1457.97,981.98 1452.45,986.67 1451.46,987.86 C1451.36,987.90 1453.25,985.47 1454.25,984.35 C1454.63,983.92 1455.11,983.47 1455.68,982.99" fill="none" stroke="rgb(151, 59, 59)" stroke-width="16.00" stroke-opacity="1.00" stroke-linejoin="round"/>
<path d="M1459.72,979.61 C1465.60,974.08 1475.25,962.57 1480.27,956.49 C1481.17,955.38 1483.35,952.69 1484.63,951.10 C1485.05,950.58 1485.47,950.05 1485.89,949.53" fill="none" stroke="rgb(151, 59, 59)" stroke-width="16.00" stroke-opacity="1.00" stroke-linejoin="round"/>
<path d="M1475.59,960.07 C1476.73,955.61 1482.98,943.61 1483.77,942.28 C1484.70,940.70 1485.89,938.91 1486.96,937.41 C1487.10,937.21 1487.27,936.96 1487.46,936.68" fill="none" stroke="rgb(151, 59, 59)" stroke-width="16.00" stroke-opacity="1.00" stroke-linejoin="round"/>
<path d="M1484.35,940.98 C1484.35,940.98 1480.24,936.51 1480.24,936.51" fill="none" stroke="rgb(151, 59, 59)" stroke-width="16.00" stroke-opacity="1.00" stroke-linejoin="round"/>
<path d="M1481.08,938.27 C1481.08,938.27 1477.90,939.79 1477.90,939.79" fill="none" stroke="rgb(151, 59, 59)" stroke-width="16.00" stroke-opacity="1.00" stroke-linejoin="round"/>
<path d="M1481.68,946.48 C1482.92,944.46 1486.47,938.06 1488.11,935.04 C1490.69,930.18 1491.99,927.48 1493.28,924.16 C1493.44,923.74 1493.84,922.77 1494.48,921.24" fill="none" stroke="rgb(151, 59, 59)" stroke-width="16.00" stroke-opacity="1.00" stroke-linejoin="round"/>
<path d="M1483.11,949.80 C1483.28,949.16 1492.69,925.49 1493.49,923.69 C1494.65,921.12 1496.05,918.39 1496.70,917.46 C1496.82,917.30 1497.18,916.82 1497.79,916.01" fill="none" stroke="rgb(151, 59, 59)" stroke-width="16.00" stroke-opacity="1.00" stroke-linejoin="round"/>
<path d="M1486.89,945.22 C1488.49,941.80 1492.07,934.02 1493.16,930.85 C1493.81,928.96 1495.38,922.59 1495.58,921.94 C1495.74,921.40 1496.11,920.29 1496.68,918.59" fill="none" stroke="rgb(151, 59, 59)" stroke-width="16.00" stroke-opacity="1.00" stroke-linejoin="round"/>
<path d="M1483.28,934.89 C1483.99,932.46 1484.50,931.12 1485.27,929.89 C1486.04,928.67 1487.58,926.72 1488.93,925.18 C1489.20,924.88 1489.41,924.67 1489.57,924.55" fill="none" stroke="rgb(151, 59, 59)" stroke-width="16.00" stroke-opacity="1.00" stroke-linejoin="round"/>
<path d="M1494.48,919.12 C1494.50,918.53 1494.56,917.80 1494.78,915.97 C1495.14,912.96 1496.15,904.66 1496.17,904.45 C1496.18,904.24 1496.19,904.01 1496.18,903.75" fill="none" stroke="rgb(151, 59, 59)" stroke-width="16.00" stroke-opacity="1.00" stroke-linejoin="round"/>
<path d="M1326.56,925.61 C1327.32,922.04 1328.46,916.77 1329.20,913.79 C1329.28,913.47 1329.36,913.15 1329.44,912.83" fill="none" stroke="rgb(151, 59, 59)" stroke-width="16.00" stroke-opacity="1.00" stroke-linejoin="round"/>
<path d="M1327.20,913.49 C1327.12,911.58 1329.12,906.04 1330.36,902.57 C1334.13,891.77 1335.77,887.68 1337.19,884.30 C1336.26,891.59 1328.76,911.02 1328.60,912.79 C1328.60,912.79 1337.54,889.67 1337.54,889.67 C1337.89,890.26 1332.41,904.36 1330.57,907.63 C1330.05,908.56 1328.74,910.68 1328.25,911.47 C1328.25,911.47 1338.76,890.50 1338.76,890.50 C1338.76,890.50 1329.37,912.40 1329.37,912.40 C1329.24,909.68 1339.87,885.67 1340.47,883.61 C1339.33,885.24 1337.51,892.24 1336.44,896.31 C1335.35,900.44 1333.97,904.24 1332.35,906.27 C1332.35,906.27 1338.45,889.34 1338.45,889.34 C1334.86,898.35 1332.29,905.29 1328.87,916.18 C1326.64,923.90 1322.95,936.76 1322.72,937.34 C1322.72,937.34 1326.83,919.98 1326.83,919.98 C1326.36,920.27 1326.90,937.17 1326.96,939.62 C1327.02,942.40 1326.36,945.60 1326.30,945.42 C1326.30,945.42 1325.86,942.84 1325.86,942.84 C1325.01,942.81 1324.86,944.39 1325.34,949.01 C1325.55,950.88 1326.16,953.61 1326.63,954.70 C1326.81,955.10 1327.91,956.24 1329.44,958.81 C1329.70,958.65 1329.88,958.53 1329.99,958.44 C1330.10,958.36 1330.28,958.19 1330.54,957.94" fill="none" stroke="rgb(151, 59, 59)" stroke-width="6.00" stroke-opacity="1.00" stroke-linejoin="round"/>
<path d="M1329.41,930.78 C1329.39,934.02 1330.67,939.03 1332.43,943.68 C1334.63,949.41 1342.40,961.47 1346.28,965.93 C1348.49,968.45 1350.21,970.02 1350.63,970.33" fill="none" stroke="rgb(151, 59, 59)" stroke-width="6.00" stroke-opacity="1.00" stroke-linejoin="round"/>
<path d="M1498.12,908.06 C1497.18,906.52 1496.84,904.81 1497.02,902.09 C1497.22,898.72 1496.16,889.45 1496.15,888.84 C1497.30,890.74 1497.85,894.05 1498.38,897.84 C1499.09,903.14 1499.14,903.38 1499.14,903.35 C1496.88,895.52 1496.43,887.44 1496.68,883.05 C1496.68,883.05 1501.06,895.63 1501.06,895.63 C1500.00,892.94 1497.72,887.16 1495.88,884.57 C1495.62,884.20 1492.87,880.84 1492.81,880.66 C1493.98,880.30 1497.55,890.30 1498.37,893.65 C1496.44,890.58 1494.01,885.23 1493.44,883.64 C1492.64,881.37 1492.19,877.50 1492.04,875.82 C1492.04,875.82 1500.16,906.17 1500.16,906.17" fill="none" stroke="rgb(151, 59, 59)" stroke-width="6.00" stroke-opacity="1.00" stroke-linejoin="round"/>
</g>
<g stroke-linecap="round" transform="translate(-1282.00, -688.00)" id="Layer_69">
<path d="M1327.06,852.65 C1318.15,857.93 1307.78,862.99 1304.75,865.11 C1301.63,867.34 1297.66,871.48 1295.79,874.48 C1292.54,879.78 1286.86,892.73 1286.22,897.43 C1285.67,901.78 1289.01,922.07 1289.24,924.71 C1289.59,928.95 1288.25,933.82 1287.47,936.09 C1285.28,942.56 1283.58,953.79 1284.24,957.43 C1284.62,959.39 1286.19,963.37 1288.79,966.61 C1289.83,967.90 1297.00,975.73 1300.02,978.96 C1300.64,979.63 1301.26,980.30 1301.89,980.96" fill="none" stroke="rgb(0, 0, 0)" stroke-width="6.54" stroke-opacity="0.90" stroke-linejoin="round"/>
<path d="M1288.67,970.40 C1290.61,971.37 1292.58,974.81 1294.64,976.32 C1297.34,978.31 1303.82,985.03 1304.87,986.58 C1305.83,988.03 1306.30,989.74 1306.15,991.05 C1305.88,993.02 1304.64,999.54 1305.05,1000.60 C1305.88,1002.58 1312.26,1008.14 1315.37,1009.95 C1317.70,1011.28 1323.58,1013.22 1327.10,1013.98 C1329.93,1014.58 1340.19,1016.10 1340.68,1016.22 C1341.65,1016.47 1343.98,1017.26 1343.89,1017.24" fill="none" stroke="rgb(0, 0, 0)" stroke-width="6.54" stroke-opacity="0.90" stroke-linejoin="round"/>
<path d="M1341.60,1016.66 C1342.86,1018.45 1344.85,1021.10 1345.80,1022.03 C1346.64,1022.84 1352.20,1026.67 1357.18,1031.07 C1359.77,1033.33 1381.59,1043.31 1383.22,1043.98 C1387.37,1045.66 1393.30,1046.43 1396.01,1046.27 C1399.67,1046.00 1410.38,1040.00 1413.97,1038.95" fill="none" stroke="rgb(0, 0, 0)" stroke-width="6.54" stroke-opacity="0.90" stroke-linejoin="round"/>
<path d="M1374.80,1042.05 C1373.44,1041.10 1369.91,1038.66 1368.65,1037.87 C1366.08,1036.27 1359.56,1034.10 1358.86,1033.80 C1357.23,1033.07 1352.54,1028.82 1350.02,1026.48 C1347.08,1023.88 1342.29,1016.26 1342.05,1015.81 C1341.98,1015.67 1341.95,1015.56 1341.97,1015.49" fill="none" stroke="rgb(0, 0, 0)" stroke-width="6.54" stroke-opacity="0.90" stroke-linejoin="round"/>
<path d="M1294.23,976.01 C1291.74,972.53 1289.21,968.80 1288.00,965.28 C1286.89,961.99 1285.02,958.99 1284.62,956.26 C1284.12,952.71 1284.30,946.92 1285.65,943.20 C1286.26,941.55 1287.81,937.99 1288.87,935.69 C1289.29,934.80 1289.70,933.91 1290.12,933.02" fill="none" stroke="rgb(0, 0, 0)" stroke-width="6.54" stroke-opacity="0.90" stroke-linejoin="round"/>
<path d="M1315.46,858.48 C1316.67,857.97 1319.99,856.58 1320.62,856.19 C1321.48,855.65 1326.29,852.45 1327.12,852.21" fill="none" stroke="rgb(0, 0, 0)" stroke-width="6.54" stroke-opacity="0.90" stroke-linejoin="round"/>
<path d="M1468.64,1020.01 C1472.98,1018.21 1478.37,1017.42 1479.01,1017.31 C1480.40,1017.06 1487.50,1014.61 1490.93,1012.72 C1492.81,1011.66 1520.87,992.14 1521.28,991.62 C1522.20,990.41 1522.66,988.18 1522.37,986.71 C1521.90,984.80 1518.63,982.07 1513.32,978.42 C1511.39,977.05 1508.57,974.25 1508.27,972.97 C1507.97,971.53 1509.37,969.39 1510.95,968.20 C1516.39,964.22 1531.52,954.00 1536.75,949.04 C1539.45,946.46 1545.00,938.71 1545.42,937.93 C1547.25,934.45 1547.73,928.20 1547.50,926.70 C1547.27,925.31 1544.00,919.93 1542.90,919.23 C1542.65,919.07 1537.18,916.14 1536.20,915.45 C1535.10,914.67 1533.89,913.16 1533.12,911.84 C1532.13,909.96 1532.68,906.34 1534.18,901.15 C1535.50,896.54 1536.12,890.98 1535.30,888.00 C1534.46,885.16 1531.43,879.42 1529.56,876.98 C1526.39,872.92 1497.63,847.33 1496.83,846.67" fill="none" stroke="rgb(0, 0, 0)" stroke-width="6.54" stroke-opacity="0.90" stroke-linejoin="round"/>
<path d="M1413.18,1040.70 C1413.18,1040.70 1413.67,1040.62 1413.67,1040.62 C1417.92,1040.53 1422.51,1041.29 1426.29,1043.45 C1427.62,1044.22 1433.87,1048.22 1436.62,1049.08 C1439.77,1050.00 1444.50,1049.37 1447.63,1047.58 C1450.86,1045.70 1466.74,1035.27 1467.07,1034.80 C1467.68,1033.89 1468.09,1030.64 1469.48,1028.13 C1470.53,1026.24 1472.41,1023.31 1473.05,1022.72 C1474.28,1021.66 1481.49,1020.22 1481.95,1020.00 C1482.75,1019.57 1489.85,1013.56 1490.68,1012.94 C1493.52,1010.84 1500.58,1007.39 1502.67,1006.51 C1506.04,1005.07 1508.30,1003.34 1511.59,1000.10 C1513.68,998.10 1519.50,994.47 1521.16,993.01 C1522.38,991.87 1523.62,989.54 1523.60,988.10 C1523.51,986.20 1521.00,981.97 1517.93,979.38 C1512.54,974.90 1511.82,974.10 1511.12,972.90 C1511.12,972.90 1510.83,973.09 1510.83,973.09" fill="none" stroke="rgb(0, 0, 0)" stroke-width="6.54" stroke-opacity="0.90" stroke-linejoin="round"/>
<path d="M1525.95,957.18 C1524.17,959.11 1522.92,960.12 1520.55,961.49 C1519.21,962.27 1515.59,965.18 1511.37,968.80 C1510.37,969.67 1509.36,970.54 1508.35,971.41" fill="none" stroke="rgb(0, 0, 0)" stroke-width="6.54" stroke-opacity="0.90" stroke-linejoin="round"/>
</g>
<g stroke-linecap="round" transform="translate(-1282.00, -688.00)" id="Layer_71">
<path d="M1341.16,881.39 C1339.53,882.06 1338.59,882.86 1337.59,884.63 C1332.98,892.84 1327.33,905.95 1325.45,910.71 C1322.70,917.80 1320.90,927.56 1320.59,934.90 C1320.47,938.02 1321.15,944.47 1322.33,947.77 C1324.75,954.42 1331.53,964.24 1337.58,971.30 C1340.66,974.87 1350.17,984.13 1355.73,987.98 C1358.67,990.00 1375.31,1000.86 1377.94,1002.28 C1378.23,1002.44 1378.78,1002.73 1379.61,1003.15" fill="none" stroke="rgb(0, 0, 0)" stroke-width="7.00" stroke-opacity="0.90" stroke-linejoin="round"/>
<path d="M1370.32,996.14 C1372.87,998.17 1376.33,1000.04 1378.57,1000.73 C1384.43,1002.51 1392.85,1003.49 1401.84,1003.26 C1407.22,1003.11 1422.77,1001.43 1428.70,999.87 C1436.56,997.74 1453.02,993.13 1456.46,991.16 C1458.41,990.02 1462.87,986.50 1466.01,983.71 C1467.10,982.74 1468.96,981.10 1469.72,980.43" fill="none" stroke="rgb(0, 0, 0)" stroke-width="7.00" stroke-opacity="0.90" stroke-linejoin="round"/>
<path d="M1330.43,896.54 C1330.43,896.54 1342.88,877.51 1342.88,877.51 C1342.88,877.51 1343.20,877.71 1343.20,877.71" fill="none" stroke="rgb(0, 0, 0)" stroke-width="7.00" stroke-opacity="0.90" stroke-linejoin="round"/>
<path d="M1459.68,988.79 C1460.29,988.16 1469.89,979.92 1470.91,978.98 C1476.25,974.00 1482.65,965.84 1487.50,958.38 C1490.68,953.48 1498.69,937.98 1500.40,932.17 C1501.06,929.91 1501.40,928.58 1501.49,928.03" fill="none" stroke="rgb(0, 0, 0)" stroke-width="7.00" stroke-opacity="0.90" stroke-linejoin="round"/>
<path d="M1490.17,871.63 C1491.27,873.20 1493.20,876.49 1495.90,881.48 C1496.97,883.45 1500.83,889.47 1501.79,892.40 C1503.27,897.15 1504.06,912.93 1503.82,916.35 C1503.64,918.51 1502.80,922.15 1501.42,927.01 C1500.95,928.69 1500.30,931.29 1500.02,932.69 C1499.94,933.07 1499.84,933.61 1499.73,934.30" fill="none" stroke="rgb(0, 0, 0)" stroke-width="6.00" stroke-opacity="1.00" stroke-linejoin="round"/>
<path d="M1501.17,929.13 C1500.09,931.74 1496.60,940.05 1496.46,940.44 C1496.33,940.81 1494.21,947.84 1490.96,954.28 C1489.10,957.95 1479.57,972.24 1476.26,975.93 C1471.52,981.17 1461.41,988.43 1460.80,988.84 C1460.42,989.09 1459.58,989.64 1458.30,990.46" fill="none" stroke="rgb(0, 0, 0)" stroke-width="6.00" stroke-opacity="1.00" stroke-linejoin="round"/>
<path d="M1339.55,880.03 C1339.08,881.65 1329.67,898.60 1327.37,905.09 C1325.16,910.68 1321.26,921.03 1320.61,926.67 C1319.66,935.17 1320.51,943.06 1321.09,945.36 C1321.52,946.94 1323.54,951.79 1324.07,953.05" fill="none" stroke="rgb(0, 0, 0)" stroke-width="6.00" stroke-opacity="1.00" stroke-linejoin="round"/>
<path d="M1323.84,953.24 C1324.51,955.03 1326.77,958.15 1330.93,962.83 C1333.70,965.86 1340.26,972.96 1340.89,973.71 C1343.14,976.44 1344.94,977.96 1349.88,981.50 C1353.56,984.11 1360.06,989.37 1360.64,989.75 C1361.06,990.03 1361.81,990.45 1362.90,991.01" fill="none" stroke="rgb(0, 0, 0)" stroke-width="6.00" stroke-opacity="1.00" stroke-linejoin="round"/>
<path d="M1418.87,975.28 C1419.66,976.06 1421.07,977.35 1421.70,977.66 C1422.20,977.89 1431.18,979.67 1433.82,979.44 C1434.07,979.42 1440.52,978.18 1442.54,977.12 C1443.38,976.67 1458.41,966.43 1462.35,962.78 C1466.39,958.98 1470.66,951.85 1471.10,950.96 C1471.21,950.73 1471.38,950.35 1471.61,949.82" fill="none" stroke="rgb(0, 0, 0)" stroke-width="6.00" stroke-opacity="1.00" stroke-linejoin="round"/>
</g>
<g stroke-linecap="round" transform="translate(-1282.00, -688.00)" id="Layer_70">
<path d="M1445.55,973.23 C1449.05,972.38 1451.58,970.72 1454.15,968.54 C1460.81,962.79 1470.25,953.33 1472.07,949.86 C1472.70,948.60 1473.04,946.70 1472.79,945.65 C1472.55,944.77 1471.46,942.40 1470.95,941.64 C1469.39,939.27 1469.13,937.79 1470.13,936.29 C1470.30,936.03 1483.21,924.86 1486.85,920.90 C1488.53,919.06 1490.61,916.58 1491.69,915.15" fill="none" stroke="rgb(0, 0, 0)" stroke-width="6.54" stroke-opacity="0.90" stroke-linejoin="round"/>
<path d="M1492.24,859.26 C1491.95,857.85 1492.06,852.97 1492.83,850.54 C1494.98,844.14 1502.47,831.41 1505.98,825.62 C1509.27,819.99 1515.04,806.74 1516.64,800.37 C1518.11,794.36 1519.69,776.02 1519.20,771.37 C1518.76,767.39 1517.43,760.42 1515.66,756.02 C1515.15,754.76 1507.26,737.26 1503.62,727.94 C1502.99,726.27 1502.04,723.75 1501.73,722.91" fill="none" stroke="rgb(0, 0, 0)" stroke-width="6.54" stroke-opacity="0.90" stroke-linejoin="round"/>
<path d="M1455.75,965.21 C1453.01,968.71 1450.03,971.60 1447.36,972.94 C1446.97,973.13 1430.15,980.41 1429.06,980.68 C1427.07,981.15 1425.11,980.97 1423.85,980.19 C1421.98,978.97 1417.09,975.67 1416.01,975.47 C1414.36,975.21 1411.67,975.81 1409.82,976.84 C1406.21,979.03 1401.83,981.10 1397.87,982.53 C1394.03,983.89 1388.56,985.10 1384.75,985.26 C1381.57,985.36 1379.46,984.93 1375.90,983.65 C1371.67,982.14 1367.23,980.13 1365.30,978.79 C1362.06,976.48 1349.73,963.89 1346.66,960.35 C1343.66,956.85 1340.87,952.51 1339.18,948.87 C1336.81,943.70 1333.89,932.02 1333.35,926.50 C1333.07,923.35 1333.15,918.56 1333.57,915.90 C1334.18,912.19 1340.42,893.88 1341.12,890.79 C1341.85,887.44 1341.69,882.48 1340.46,879.67 C1339.53,877.63 1334.46,870.22 1333.30,868.28 C1330.96,864.30 1326.04,851.82 1324.33,845.70 C1322.75,839.99 1321.27,824.42 1320.63,816.88 C1319.72,806.91 1318.26,797.57 1318.78,791.27 C1319.27,785.41 1319.52,779.61 1319.05,776.34 C1318.93,775.56 1317.41,767.93 1317.72,765.70 C1318.37,761.31 1323.24,747.98 1325.28,742.11 C1326.21,739.63 1329.24,732.65 1330.96,730.14 C1332.75,727.59 1336.60,723.62 1339.10,721.78 C1345.03,717.45 1354.86,712.03 1365.12,706.90 C1371.91,703.60 1386.28,696.65 1390.66,695.69 C1392.86,695.21 1413.45,691.56 1418.89,691.04 C1422.77,690.76 1426.73,691.09 1431.47,692.09 C1439.52,693.91 1456.73,697.80 1459.58,698.06 C1461.55,698.23 1471.29,698.84 1473.41,699.63 C1474.42,700.02 1480.41,704.36 1482.09,705.26 C1484.22,706.41 1489.77,707.53 1491.41,708.31 C1493.73,709.46 1496.28,712.47 1497.96,715.75 C1500.09,719.92 1503.09,723.97 1506.77,727.66 C1509.28,730.19 1511.61,734.39 1511.47,735.18 C1511.40,735.54 1511.03,736.28 1510.37,737.41" fill="none" stroke="rgb(0, 0, 0)" stroke-width="6.54" stroke-opacity="0.90" stroke-linejoin="round"/>
<path d="M1483.85,922.36 C1485.85,920.48 1488.61,916.03 1490.20,913.58 C1491.92,910.47 1493.86,899.03 1493.92,898.32 C1494.11,895.88 1493.13,888.82 1492.51,886.53 C1491.99,884.62 1489.34,876.80 1488.88,874.06 C1488.30,870.45 1488.18,866.60 1488.77,864.16 C1489.73,860.41 1491.39,855.78 1492.51,853.60 C1493.03,852.59 1494.76,849.73 1495.52,848.49 C1495.96,847.76 1496.40,847.04 1496.85,846.31" fill="none" stroke="rgb(0, 0, 0)" stroke-width="6.00" stroke-opacity="1.00" stroke-linejoin="round"/>
</g>
</svg>
