<?xml version="1.0" encoding="UTF-8" standalone="no"?>
<!DOCTYPE svg PUBLIC "-//W3C//DTD SVG 1.1//EN" "http://www.w3.org/Graphics/SVG/1.1/DTD/svg11.dtd">
<svg width="565.92" height="296.40" viewBox="0.00 0.00 2358.00 1235.00" xmlns="http://www.w3.org/2000/svg" xmlns:xlink="http://www.w3.org/1999/xlink">
<g stroke-linecap="round" transform="translate(-108.00, -94.00)" id="Layer_84">
<path d="M799.46,503.98 C806.66,507.68 811.87,509.22 820.01,510.90 C826.15,512.02 837.13,513.93 850.42,515.48 C876.26,517.85 948.83,522.01 983.74,523.76 C1000.25,524.35 1033.44,525.31 1050.12,525.69 C1082.17,525.97 1144.04,525.34 1175.56,524.89 C1206.58,524.26 1270.09,523.12 1302.58,522.62 C1318.53,522.64 1350.30,522.86 1366.12,523.07 C1397.73,524.05 1459.89,526.37 1490.44,527.71 C1522.97,529.48 1586.57,533.21 1617.63,535.16 C1648.60,537.33 1710.11,541.71 1740.64,543.92 C1774.93,546.04 1839.72,549.80 1870.22,551.43 C1871.42,551.50 1873.74,551.62 1874.86,551.68 C1877.98,551.79 1881.99,551.94 1882.87,551.97" fill="none" stroke="rgb(186, 159, 129)" stroke-width="260.00" stroke-opacity="1.00" stroke-linejoin="round"/>
<path d="M1945.61,530.72 C1949.31,529.42 1961.52,527.53 1967.12,526.68 C1982.92,524.35 2016.63,519.15 2034.58,516.01 C2052.24,512.65 2085.80,505.41 2102.62,501.60 C2133.48,494.20 2179.62,483.23 2194.90,479.65 C2200.99,478.19 2216.87,474.28 2220.02,472.46 C2222.38,471.06 2227.52,466.16 2229.47,464.26" fill="none" stroke="rgb(186, 159, 129)" stroke-width="260.00" stroke-opacity="1.00" stroke-linejoin="round"/>
<path d="M2270.85,379.29 C2260.03,380.25 2250.52,380.13 2244.19,378.72 C2235.12,376.56 2196.25,371.11 2183.54,369.97 C2167.55,368.82 2135.76,368.31 2120.62,368.21 C2108.32,368.33 2084.68,368.41 2058.83,367.35 C2033.66,365.85 1975.04,362.22 1941.61,360.09 C1902.17,357.49 1829.27,352.70 1795.81,350.52 C1767.99,348.75 1698.87,344.74 1675.55,344.01 C1662.55,343.74 1635.01,343.31 1620.47,343.15 C1604.02,343.13 1571.07,343.40 1554.89,343.94 C1539.27,344.85 1507.65,347.06 1491.63,348.36 C1475.71,349.92 1443.60,353.32 1427.41,355.18 C1411.21,357.28 1379.81,361.53 1364.61,363.69 C1329.69,369.25 1292.79,375.76 1287.30,376.76 C1282.67,377.72 1273.55,379.48 1271.78,378.71 C1269.94,377.83 1268.20,373.02 1267.74,371.84" fill="none" stroke="rgb(186, 159, 129)" stroke-width="260.00" stroke-opacity="1.00" stroke-linejoin="round"/>
<path d="M2153.57,265.56 C2136.69,269.58 2116.72,273.47 2097.31,276.19 C2091.21,276.93 2073.62,278.23 2065.97,278.50 C2051.82,278.69 2019.78,277.58 2003.15,277.09 C1987.15,276.92 1955.17,276.72 1939.20,276.69 C1920.68,276.44 1895.69,275.07 1883.40,274.48 C1862.78,273.96 1789.48,276.24 1757.26,276.79 C1725.89,276.80 1663.18,277.21 1631.83,277.61 C1615.90,277.71 1584.93,277.77 1569.88,277.72 C1539.06,277.03 1464.91,273.27 1444.71,272.77 C1428.58,272.71 1390.73,273.56 1383.81,274.13 C1378.24,274.75 1368.46,275.70 1357.64,276.08 C1340.37,276.30 1308.20,276.37 1296.02,275.71 C1289.82,275.54 1203.90,278.84 1169.08,279.44 C1134.19,279.31 1064.33,277.99 1042.39,278.32 C1032.45,278.32 1003.73,276.95 985.50,276.29 C971.21,276.05 939.91,275.71 923.73,275.92 C904.45,276.63 880.41,278.81 860.80,281.49 C837.29,284.72 826.73,285.61 804.88,286.43 C788.29,287.03 759.92,289.03 741.53,291.18 C726.44,292.87 701.40,294.22 681.17,294.42 C665.90,294.57 634.98,295.01 619.34,295.29 C580.74,296.63 546.00,299.45 498.29,301.24 C464.65,302.38 412.58,304.25 403.29,303.93 C392.49,303.36 355.13,299.97 340.20,298.22 C326.61,296.26 307.19,292.35 306.98,292.11 C306.77,291.86 306.51,291.11 306.22,289.87" fill="none" stroke="rgb(186, 159, 129)" stroke-width="260.00" stroke-opacity="1.00" stroke-linejoin="round"/>
<path d="M287.96,269.24 C284.63,276.92 282.32,283.98 279.84,293.25 C277.90,300.79 275.95,314.88 275.01,324.55 C273.91,339.18 272.42,371.67 272.08,387.56 C271.98,409.15 274.20,497.42 275.44,513.42 C276.08,520.67 278.04,532.15 278.66,542.18 C279.38,557.18 280.10,589.16 280.38,606.56 C280.35,622.09 279.97,651.84 278.85,668.72 C278.14,682.40 277.27,712.33 276.91,727.75 C276.29,742.86 274.76,772.67 273.51,787.97 C272.66,796.05 271.03,811.56 270.44,818.21 C269.84,827.12 269.65,842.80 269.58,844.32 C268.32,862.96 265.50,895.69 263.87,914.01 C262.54,929.64 260.29,957.38 260.11,975.84 C260.05,981.17 258.35,996.37 258.09,1000.65 C257.46,1011.66 257.66,1101.81 257.68,1137.26 C257.43,1151.50 256.66,1167.99 256.59,1169.66" fill="none" stroke="rgb(186, 159, 129)" stroke-width="260.00" stroke-opacity="1.00" stroke-linejoin="round"/>
<path d="M262.54,1192.19 C270.46,1187.88 277.08,1186.14 287.64,1184.33 C303.41,1181.95 342.61,1177.19 354.40,1176.49 C361.76,1176.11 397.80,1176.76 408.13,1176.14 C416.83,1175.45 433.62,1174.13 441.71,1173.49 C453.53,1172.73 493.83,1172.74 500.17,1172.41 C515.57,1171.60 549.16,1165.31 560.76,1163.70 C574.73,1162.11 604.92,1160.65 620.00,1159.95 C635.34,1159.31 665.89,1158.22 681.11,1157.75 C696.08,1157.56 725.40,1157.56 740.58,1158.16 C755.00,1158.90 784.56,1160.07 799.71,1160.51 C813.29,1160.61 837.67,1160.57 858.71,1161.32 C875.71,1162.14 907.59,1163.85 922.48,1164.75 C936.38,1165.84 956.48,1168.70 978.82,1170.47 C996.09,1171.66 1027.63,1173.75 1041.90,1174.64 C1050.19,1175.02 1135.28,1174.82 1169.26,1174.66 C1196.87,1174.36 1248.81,1176.87 1288.42,1177.24 C1303.19,1177.65 1329.88,1178.36 1348.39,1178.09 C1364.39,1177.38 1395.13,1176.18 1407.79,1176.04 C1438.32,1176.66 1503.42,1177.94 1537.98,1178.61 C1568.55,1179.35 1614.83,1180.63 1655.86,1180.80 C1691.17,1180.74 1760.48,1180.49 1794.49,1180.30 C1806.52,1180.02 1828.71,1179.23 1845.29,1179.23 C1877.45,1179.74 1943.07,1180.65 1976.53,1181.03 C1991.59,1181.03 2022.02,1180.70 2037.41,1180.37 C2071.47,1178.87 2133.48,1175.15 2161.39,1173.51 C2175.22,1172.39 2210.44,1169.34 2221.84,1168.66 C2230.77,1168.29 2249.28,1168.05 2257.82,1168.16 C2275.53,1168.77 2316.14,1171.60 2325.84,1171.36 C2328.76,1171.29 2335.25,1170.66 2335.44,1170.54 C2336.50,1169.81 2337.06,1166.91 2336.38,1164.90 C2336.26,1164.55 2332.40,1156.35 2331.64,1154.69" fill="none" stroke="rgb(186, 159, 129)" stroke-width="260.00" stroke-opacity="1.00" stroke-linejoin="round"/>
<path d="M2350.37,254.18 C2344.48,253.83 2329.85,253.04 2321.11,252.59 C2304.46,252.03 2265.33,251.20 2261.96,251.68 C2258.78,252.15 2249.07,254.47 2246.72,254.93 C2240.36,256.15 2229.84,256.16 2219.67,256.66 C2210.28,257.26 2198.50,257.14 2191.81,256.32 C2187.11,255.70 2171.26,253.24 2165.00,252.89 C2158.62,252.55 2114.13,254.64 2105.21,254.91 C2097.06,254.97 2080.49,254.54 2072.03,254.02 C2063.36,253.25 2021.58,248.70 2011.67,247.97 C2004.71,247.58 1987.33,246.74 1983.21,246.40 C1976.02,245.79 1965.10,243.77 1955.12,243.29 C1941.21,242.92 1907.10,242.91 1890.33,243.28 C1868.34,244.24 1847.99,244.00 1832.83,243.70 C1815.75,243.43 1792.97,245.76 1775.73,246.12 C1742.76,245.97 1694.09,245.69 1681.26,245.76 C1671.03,245.99 1657.65,247.06 1650.59,246.94 C1647.02,246.87 1629.40,245.99 1620.35,246.20 C1605.82,246.93 1577.00,247.95 1562.71,248.23 C1546.88,248.83 1514.23,250.85 1499.09,249.93 C1483.53,248.97 1451.29,248.62 1440.09,247.31 C1432.33,246.29 1416.88,243.92 1415.70,243.78 C1406.94,242.76 1362.97,241.93 1345.42,241.78 C1329.44,241.88 1304.14,242.16 1300.10,242.44 C1295.74,242.74 1291.45,243.81 1289.44,244.01 C1284.10,244.51 1242.65,243.88 1224.53,243.47 C1208.23,243.08 1176.89,242.35 1166.08,242.95 C1159.17,243.49 1143.34,245.13 1135.21,246.02 C1127.81,246.74 1110.79,247.93 1107.55,248.34 C1100.39,249.52 1087.26,251.47 1079.88,251.68 C1064.16,251.88 987.01,249.42 957.65,248.44 C941.54,247.92 909.00,248.12 892.99,248.44 C876.96,248.56 846.11,247.83 830.98,246.92 C815.06,245.55 777.52,241.50 768.26,241.85 C754.98,242.46 725.86,240.64 709.76,239.53 C699.12,238.96 687.25,238.85 679.55,239.95 C666.88,241.61 587.62,242.56 553.84,242.81 C531.13,242.87 500.83,241.93 498.78,241.82 C491.72,241.42 478.03,238.97 471.24,237.69 C464.48,236.63 450.36,235.71 443.55,236.01 C437.84,236.27 421.89,238.38 415.12,238.57 C411.96,238.65 395.14,238.38 388.68,239.14 C380.23,240.10 344.77,237.92 341.45,237.83 C336.17,237.71 325.63,238.47 314.33,238.36 C305.09,238.20 287.29,237.85 278.74,237.67 C266.07,237.43 261.35,237.63 260.20,238.45 C258.75,239.53 256.70,242.16 255.57,244.14" fill="none" stroke="rgb(186, 159, 129)" stroke-width="260.00" stroke-opacity="1.00" stroke-linejoin="round"/>
<path d="M420.00,391.79 C420.22,397.24 420.75,401.10 422.55,403.84 C424.26,406.34 429.40,411.28 431.94,413.09 C437.87,417.26 448.35,422.28 457.48,425.82 C464.48,428.36 483.55,434.54 488.06,435.72 C498.86,438.55 535.10,444.75 547.10,445.92 C558.13,446.75 591.73,446.64 609.10,446.45 C643.37,445.72 710.50,444.14 743.38,443.30 C760.14,442.73 790.25,441.49 803.59,440.82 C835.63,438.40 895.57,433.54 923.47,431.08 C937.40,429.78 969.99,427.98 992.39,426.86 C1021.37,425.73 1088.58,423.24 1126.80,421.90 C1161.86,420.71 1241.90,418.04 1248.02,418.08 C1253.38,418.18 1256.21,418.53 1258.74,419.33 C1258.60,420.79 1258.22,421.34 1256.76,421.84 C1242.93,427.07 1214.00,435.30 1199.61,439.21 C1182.83,443.42 1151.63,450.92 1137.22,454.21 C1106.89,460.51 1046.17,472.56 1015.78,478.31 C984.95,483.42 923.04,493.11 891.98,497.68 C860.27,501.98 797.41,510.84 766.25,515.41 C750.65,518.01 719.87,523.31 704.69,526.02 C673.46,532.20 611.83,544.32 581.44,550.26 C566.59,552.92 537.75,558.38 520.87,562.18 C512.76,564.22 497.81,568.11 490.98,569.97 C481.10,572.83 471.07,576.83 464.35,580.46 C458.33,583.73 448.20,590.16 441.41,595.71 C435.22,600.94 425.49,610.05 417.98,617.99 C412.59,623.96 402.50,635.61 398.21,641.89 C396.24,644.79 393.02,650.95 392.04,654.40 C391.01,658.11 390.42,665.99 390.90,670.12 C391.49,674.96 397.67,694.99 398.92,698.70 C402.12,708.08 404.81,714.56 411.18,727.14 C426.22,754.82 450.95,800.70 455.53,811.51 C458.76,819.37 463.03,831.23 464.62,836.75 C466.52,843.40 469.75,859.60 471.24,867.46 C473.17,879.20 474.32,888.75 474.87,897.93 C475.28,905.82 474.36,918.91 472.95,927.22 C471.89,933.06 467.96,948.78 465.70,956.17 C462.88,964.88 457.66,978.01 454.53,985.20 C446.43,1002.67 437.79,1023.64 431.73,1042.50 C431.53,1043.15 431.32,1043.79 431.12,1044.43 C434.11,1045.97 440.95,1049.47 442.86,1049.74 C446.31,1050.17 459.99,1045.57 466.25,1043.30 C471.15,1041.72 555.07,1021.95 585.69,1014.44 C600.42,1010.72 630.24,1003.34 645.33,999.67 C661.20,995.99 692.56,989.12 708.04,985.92 C724.13,982.83 750.87,978.25 767.12,976.16 C783.04,974.47 811.98,972.81 831.49,972.14 C860.68,971.67 924.50,971.01 959.14,970.82 C992.72,971.02 1058.35,971.85 1090.40,972.48 C1105.52,973.09 1136.73,974.67 1152.82,975.64 C1169.75,977.05 1202.54,980.05 1218.40,981.64 C1232.08,982.83 1268.07,985.53 1281.90,985.92 C1294.31,985.89 1307.60,985.85 1308.48,985.85 C1299.38,987.45 1295.60,987.91 1285.05,988.71 C1277.40,989.25 1262.76,990.20 1251.80,990.46 C1234.67,990.43 1202.61,988.08 1186.50,986.30 C1171.05,984.30 1140.69,980.05 1125.78,977.80 C1111.57,975.31 1081.48,970.20 1065.60,967.58 C1037.57,963.45 975.80,954.95 942.06,950.59 C907.54,946.47 844.13,938.85 815.25,935.36 C790.00,931.87 766.02,927.22 756.87,925.18 C736.46,920.48 712.00,913.97 695.06,907.87 C687.97,905.12 674.87,899.57 667.47,895.66 C660.44,891.93 647.58,883.81 642.52,879.76 C636.59,874.98 625.08,863.62 621.19,858.93 C616.67,853.45 607.75,839.59 604.88,833.77 C602.08,828.04 596.75,813.02 595.41,807.10 C593.88,800.19 592.36,783.13 592.68,776.59 C593.08,768.91 595.50,754.92 597.84,747.96 C600.20,741.04 606.43,728.11 611.16,721.13 C615.88,714.24 624.82,704.20 630.99,698.62 C637.08,693.14 645.83,686.48 654.71,680.45 C661.91,675.78 672.84,669.60 681.02,665.71 C689.23,662.02 703.34,656.42 708.97,654.63 C714.81,652.81 731.39,648.49 738.99,646.80 C749.62,644.57 782.63,640.62 798.10,639.87 C820.72,639.18 845.57,639.46 854.37,640.12 C867.68,641.34 901.49,645.71 917.63,647.91 C934.00,650.35 966.68,655.56 982.99,658.33 C998.40,661.23 1030.62,668.20 1041.87,671.17 C1049.80,673.39 1065.02,678.07 1072.23,680.50 C1079.08,682.96 1093.43,688.63 1099.63,691.66 C1106.85,695.21 1119.72,703.11 1124.69,706.57 C1127.47,708.54 1133.38,713.76 1135.81,716.59 C1136.76,717.72 1141.40,723.59 1143.27,726.88 C1145.32,730.52 1146.72,735.13 1146.98,738.94 C1147.07,740.82 1146.67,743.25 1145.94,745.11 C1144.60,748.39 1140.27,752.82 1136.83,755.38 C1130.62,759.93 1118.02,766.01 1109.23,769.28 C1101.70,771.96 1090.09,776.03 1081.38,778.60 C1067.43,782.42 1037.39,787.49 1023.23,789.78 C1006.33,792.22 976.56,795.54 957.45,796.73 C941.77,797.31 911.23,797.31 896.75,796.76 C880.47,795.73 850.29,792.05 835.41,790.13 C818.88,788.06 774.47,782.48 774.23,782.45 C772.47,782.24 769.75,781.44 768.01,780.48 C766.46,779.60 764.75,777.78 763.77,776.20 C762.65,774.24 761.99,772.29 762.03,770.74 C762.13,768.59 765.36,761.60 768.76,757.40 C771.70,753.82 784.53,742.29 791.06,737.60 C796.08,734.01 809.85,725.76 816.50,722.39 C823.21,718.99 835.94,713.88 844.42,711.06 C851.76,708.73 866.37,704.62 873.71,702.79 C895.07,697.90 920.09,693.55 935.96,691.15 C950.21,689.23 976.49,686.63 996.36,685.23 C1009.30,684.46 1038.39,682.82 1054.53,681.94 C1071.47,681.20 1105.38,679.95 1122.35,679.44 C1155.17,679.03 1227.93,678.54 1246.92,679.18 C1260.22,679.90 1295.10,682.80 1306.45,684.13 C1321.88,686.24 1350.30,691.01 1366.10,694.67 C1372.77,696.28 1386.57,699.87 1393.72,701.83 C1400.83,704.01 1416.15,709.37 1423.44,712.06 C1434.30,716.28 1448.41,722.93 1452.31,726.57 C1453.49,727.69 1458.46,734.03 1459.41,736.66 C1459.80,737.80 1460.15,741.03 1459.97,742.06 C1459.35,745.07 1455.16,750.71 1451.84,752.99 C1445.78,757.05 1434.68,763.05 1426.56,766.79 C1415.37,771.71 1382.47,782.83 1368.78,787.37 C1336.02,797.65 1272.39,817.06 1241.51,826.20 C1222.14,831.60 1192.71,838.33 1184.74,839.75 C1177.35,841.00 1162.19,843.44 1154.71,844.42 C1146.25,845.38 1131.24,846.06 1123.67,845.86 C1115.33,845.63 1101.52,843.75 1093.14,841.65 C1088.12,840.34 1083.00,838.71 1079.60,837.26 C1077.10,836.18 1071.11,832.85 1068.48,830.36 C1065.46,827.44 1062.12,822.02 1061.23,817.92 C1060.67,815.23 1060.10,808.40 1060.38,805.20 C1060.71,801.88 1061.90,795.99 1063.13,792.81 C1063.93,790.79 1067.52,783.08 1069.11,780.29 C1072.56,774.31 1082.65,763.48 1088.12,757.88 C1094.26,751.76 1104.39,743.15 1111.61,737.72 C1117.65,733.38 1132.85,723.25 1136.86,720.85 C1143.36,717.03 1157.07,709.47 1164.17,705.82 C1174.14,700.93 1185.50,696.01 1192.70,693.07 C1210.53,686.15 1234.46,678.93 1253.48,674.76 C1261.35,673.19 1273.96,670.95 1284.90,669.52 C1300.26,667.81 1330.55,666.13 1347.55,666.30 C1366.59,666.79 1390.10,669.28 1408.86,672.23 C1418.75,673.97 1431.81,676.78 1439.66,678.52 C1447.38,680.41 1462.26,684.46 1469.34,686.76 C1476.35,689.15 1490.02,694.28 1496.57,696.97 C1500.69,698.71 1516.63,706.54 1523.10,710.05 C1531.80,715.06 1542.13,721.90 1548.38,726.50 C1557.03,733.14 1565.70,740.57 1571.86,746.70 C1578.12,752.97 1586.94,763.58 1591.25,770.28 C1593.10,773.19 1596.73,779.81 1598.16,783.38 C1599.62,787.09 1601.75,794.43 1602.59,798.48 C1603.35,802.27 1603.95,810.30 1603.92,813.89 C1603.86,817.92 1602.83,825.48 1601.80,828.92 C1599.76,835.58 1593.08,848.57 1588.57,854.75 C1584.36,860.48 1574.57,871.41 1568.42,877.21 C1564.76,880.59 1548.59,893.91 1544.83,896.63 C1533.28,904.81 1510.50,918.96 1494.86,926.98 C1486.08,931.19 1474.08,936.06 1468.07,938.08 C1460.60,940.57 1447.27,943.81 1438.83,944.92 C1430.31,946.02 1417.05,946.53 1408.24,946.28 C1404.51,946.14 1397.82,945.38 1393.76,944.64 C1390.46,944.02 1384.78,942.08 1382.93,940.92 C1380.98,939.66 1377.04,935.34 1376.50,932.63 C1375.95,929.51 1377.75,924.33 1379.99,920.80 C1383.79,914.97 1395.31,903.14 1400.84,897.75 C1412.90,886.41 1436.16,866.92 1447.93,857.57 C1456.88,850.66 1489.53,827.64 1498.93,821.59 C1511.90,813.51 1535.95,799.48 1552.83,790.78 C1560.01,787.31 1574.35,780.58 1581.50,777.33 C1595.89,771.37 1625.66,760.31 1639.65,756.27 C1647.20,754.25 1662.15,750.74 1669.44,749.29 C1674.06,748.42 1690.69,746.36 1699.85,745.68 C1710.45,745.15 1721.14,745.14 1729.29,745.72 C1736.69,746.26 1751.64,748.52 1758.31,750.28 C1765.85,752.29 1780.78,757.91 1787.23,761.31 C1793.89,764.84 1805.34,772.79 1810.16,777.66 C1812.67,780.22 1817.05,785.54 1819.11,788.52 C1821.08,791.40 1824.31,798.11 1825.54,801.66 C1826.68,805.02 1828.39,812.37 1828.67,816.05 C1828.94,819.96 1828.72,827.37 1828.18,831.23 C1827.23,837.63 1821.47,853.10 1817.86,859.96 C1814.92,865.53 1805.33,880.16 1800.60,886.46 C1794.24,894.89 1774.10,917.65 1760.31,931.69 C1746.47,945.09 1725.39,963.71 1713.15,973.90 C1706.95,978.85 1694.14,988.58 1687.67,993.41 C1671.98,1004.51 1648.69,1019.23 1636.48,1025.98 C1632.36,1028.21 1614.64,1036.48 1609.02,1038.64 C1601.60,1041.48 1587.75,1045.16 1580.73,1046.08 C1577.75,1046.46 1570.32,1046.86 1566.21,1046.43 C1562.46,1046.01 1552.94,1043.40 1551.46,1042.74 C1549.61,1041.90 1547.64,1040.49 1546.64,1039.29 C1545.20,1037.50 1541.26,1030.41 1540.33,1027.79 C1538.69,1023.09 1536.61,1007.79 1536.38,1000.56 C1536.18,993.60 1537.77,977.97 1539.59,970.95 C1541.30,964.43 1545.49,951.70 1547.67,946.90 C1550.05,941.68 1558.41,927.10 1562.19,920.64 C1566.57,913.51 1575.44,900.05 1579.92,894.05 C1588.30,883.24 1610.41,858.89 1620.44,848.54 C1631.58,837.33 1656.97,813.25 1666.96,804.78 C1676.39,797.05 1706.97,773.95 1713.72,769.57 C1723.17,763.63 1753.24,746.86 1766.19,741.14 C1772.96,738.25 1787.30,732.56 1794.39,730.00 C1804.08,726.77 1816.67,723.36 1824.19,721.91 C1831.51,720.52 1847.21,718.63 1853.87,718.41 C1861.65,718.18 1877.10,719.05 1883.08,720.10 C1889.95,721.33 1904.24,725.96 1911.40,729.04 C1917.55,731.72 1932.04,740.58 1938.06,745.43 C1943.53,749.88 1954.35,762.22 1959.18,769.15 C1963.17,774.93 1970.69,789.91 1973.47,797.42 C1975.88,803.99 1979.22,820.06 1980.04,828.23 C1980.67,834.68 1980.30,850.67 1979.43,857.73 C1978.53,864.84 1975.04,878.93 1972.63,886.14 C1970.00,893.97 1964.74,906.16 1960.77,913.67 C1957.15,920.49 1949.24,933.19 1944.83,939.09 C1940.36,945.06 1930.60,956.23 1925.89,960.73 C1920.56,965.78 1907.92,975.53 1902.75,979.28 C1899.61,981.50 1893.97,984.68 1890.39,985.99 C1885.15,987.85 1872.47,990.71 1865.24,991.03 C1861.92,991.16 1853.98,990.42 1850.61,989.60 C1847.38,988.78 1840.01,985.68 1836.86,983.71 C1833.34,981.46 1828.21,977.07 1825.43,973.93 C1823.06,971.21 1819.47,965.75 1818.12,963.27 C1816.66,960.55 1814.26,954.34 1813.34,951.14 C1811.65,945.11 1810.41,930.17 1810.71,922.60 C1811.01,915.46 1813.99,899.05 1815.30,894.01 C1817.27,886.56 1821.08,877.18 1825.37,868.15 C1828.99,860.90 1836.06,847.08 1841.01,838.71 C1844.40,833.09 1853.55,819.99 1859.42,812.33 C1864.43,806.08 1874.78,793.93 1879.84,788.42 C1887.96,779.90 1912.23,756.97 1924.38,746.57 C1939.37,734.39 1959.81,719.12 1976.04,708.69 C1982.78,704.54 1993.61,698.20 2003.34,693.17 C2010.41,689.74 2027.17,682.35 2030.90,680.93 C2038.24,678.16 2054.14,673.36 2061.60,671.87 C2069.10,670.39 2082.43,669.52 2093.28,669.34 C2097.17,669.30 2103.62,669.87 2107.16,670.68 C2110.40,671.46 2126.79,677.61 2130.23,680.11 C2134.10,682.96 2146.51,696.63 2150.06,702.87 C2153.29,708.64 2157.92,723.76 2159.22,731.23 C2160.30,737.58 2161.34,753.10 2161.30,761.03 C2161.25,767.68 2159.60,784.23 2158.30,791.76 C2156.98,799.33 2153.24,813.21 2150.35,821.82 C2147.21,830.70 2141.73,843.15 2138.26,850.07 C2133.20,859.72 2128.86,867.18 2122.99,876.34 C2118.74,882.65 2110.92,893.55 2104.79,900.92 C2099.69,906.86 2089.93,917.21 2083.97,922.55 C2078.57,927.37 2067.89,935.43 2061.21,939.17 C2057.96,940.97 2051.33,944.04 2048.75,944.94 C2045.46,946.07 2038.41,947.61 2034.63,948.06 C2030.34,948.55 2024.31,948.58 2020.01,948.06 C2017.14,947.70 2009.12,946.10 2005.73,944.75 C2001.79,943.12 1996.86,939.18 1994.87,936.32 C1992.82,933.29 1989.78,927.34 1988.53,923.37 C1986.64,917.25 1984.98,903.99 1983.93,891.69 C1983.50,886.08 1983.27,880.63 1983.44,877.39 C1983.73,872.66 1988.05,857.19 1989.92,850.59 C1992.60,841.49 1997.62,827.71 2000.92,820.77 C2004.11,814.07 2011.85,800.77 2015.88,794.55 C2019.14,789.59 2028.06,777.89 2033.85,770.94 C2040.85,762.86 2046.42,756.88 2054.37,748.96 C2059.96,743.62 2071.22,733.43 2077.28,728.52 C2085.83,721.87 2096.64,714.19 2102.28,710.97 C2109.19,707.04 2122.86,701.11 2129.12,699.61 C2133.01,698.70 2140.46,697.82 2144.19,697.81 C2147.84,697.83 2154.64,699.19 2158.55,700.61 C2162.65,702.15 2166.71,704.39 2168.41,706.41 C2169.88,708.23 2174.28,715.60 2175.37,718.07 C2176.90,721.62 2181.75,738.45 2182.37,743.60 C2182.90,748.05 2183.71,769.03 2183.69,773.31 C2183.64,781.83 2182.30,796.59 2180.82,804.63 C2178.37,817.88 2169.23,848.92 2164.23,862.81 C2160.57,872.42 2155.46,884.18 2152.08,891.50 C2143.18,909.67 2128.88,935.73 2123.16,945.05 C2120.63,949.09 2111.17,962.52 2105.63,969.71 C2097.80,979.52 2078.95,998.72 2075.49,1001.07 C2072.60,1003.00 2062.45,1007.51 2060.31,1007.89 C2059.24,1008.06 2058.94,1007.30 2059.51,1006.53 C2060.87,1004.82 2066.89,999.72 2070.63,997.43 C2077.50,993.26 2094.05,986.85 2101.76,983.93 C2103.76,983.15 2106.61,981.64 2108.26,980.41 C2108.77,980.03 2109.41,979.44 2110.17,978.63" fill="none" stroke="rgb(186, 159, 129)" stroke-width="260.00" stroke-opacity="1.00" stroke-linejoin="round"/>
<path d="M252.17,1186.96" fill="none" stroke="rgb(186, 159, 129)" stroke-width="260.00" stroke-opacity="1.00" stroke-linejoin="round"/>
<path d="M253.24,1187.70 L2321.60,1191.53" fill="none" stroke="rgb(186, 159, 129)" stroke-width="260.00" stroke-opacity="1.00" stroke-linejoin="round"/>
<path d="M2319.27,1192.73" fill="none" stroke="rgb(186, 159, 129)" stroke-width="260.00" stroke-opacity="1.00" stroke-linejoin="round"/>
<path d="M2321.60,1191.53 L2312.24,230.97" fill="none" stroke="rgb(186, 159, 129)" stroke-width="260.00" stroke-opacity="1.00" stroke-linejoin="round"/>
<path d="M2312.24,230.97" fill="none" stroke="rgb(186, 159, 129)" stroke-width="260.00" stroke-opacity="1.00" stroke-linejoin="round"/>
<path d="M2311.03,231.61 L249.18,240.85" fill="none" stroke="rgb(186, 159, 129)" stroke-width="260.00" stroke-opacity="1.00" stroke-linejoin="round"/>
<path d="M249.03,242.94" fill="none" stroke="rgb(186, 159, 129)" stroke-width="260.00" stroke-opacity="1.00" stroke-linejoin="round"/>
<path d="M249.03,242.94 L260.25,1178.07" fill="none" stroke="rgb(186, 159, 129)" stroke-width="260.00" stroke-opacity="1.00" stroke-linejoin="round"/>
<path d="M260.25,1178.07" fill="none" stroke="rgb(186, 159, 129)" stroke-width="260.00" stroke-opacity="1.00" stroke-linejoin="round"/>
<path d="M130.88,888.43 C129.99,902.97 128.41,933.98 128.54,948.66 C128.84,963.03 131.24,988.79 133.94,1002.31 C135.32,1009.16 140.62,1026.10 141.09,1026.12 C141.33,1026.13 141.87,1025.65 142.73,1024.70" fill="none" stroke="rgb(186, 159, 129)" stroke-width="26.00" stroke-opacity="1.00" stroke-linejoin="round"/>
<path d="M133.21,930.67 C131.98,939.12 131.70,949.75 131.54,955.67 C131.16,989.20 130.68,1055.99 131.05,1088.09 C131.25,1093.72 132.48,1105.26 134.62,1111.79 C135.15,1113.43 136.01,1114.71 136.98,1115.19 C137.25,1115.32 137.71,1115.39 138.34,1115.41" fill="none" stroke="rgb(186, 159, 129)" stroke-width="26.00" stroke-opacity="1.00" stroke-linejoin="round"/>
<path d="M133.72,1009.16 C132.86,1012.01 132.62,1024.27 132.53,1030.77 C132.48,1047.74 133.48,1082.38 134.45,1099.76 C136.12,1129.28 138.70,1185.00 139.04,1188.57 C140.00,1198.29 142.20,1203.30 143.11,1203.96 C143.48,1204.23 144.31,1204.55 145.58,1204.94" fill="none" stroke="rgb(186, 159, 129)" stroke-width="26.00" stroke-opacity="1.00" stroke-linejoin="round"/>
<path d="M137.95,1092.51 C136.17,1094.90 135.36,1097.83 135.07,1102.69 C134.96,1105.31 134.84,1126.03 134.85,1133.40 C135.10,1149.00 138.39,1185.56 139.96,1197.76 C141.45,1208.01 142.69,1214.08 143.85,1217.58 C144.37,1219.12 145.27,1219.71 147.36,1220.18" fill="none" stroke="rgb(186, 159, 129)" stroke-width="26.00" stroke-opacity="1.00" stroke-linejoin="round"/>
<path d="M134.73,1092.41 C133.27,1095.01 132.48,1098.94 132.08,1104.77 C131.73,1113.30 131.12,1132.44 131.18,1136.10 C131.32,1142.04 132.54,1158.47 133.47,1164.49 C134.62,1171.91 137.58,1185.60 139.33,1191.57 C140.57,1195.79 147.59,1215.72 149.31,1217.71 C149.42,1217.84 149.59,1217.96 149.81,1218.09" fill="none" stroke="rgb(186, 159, 129)" stroke-width="26.00" stroke-opacity="1.00" stroke-linejoin="round"/>
<path d="M133.51,1124.74 C133.37,1128.41 133.15,1134.77 133.08,1137.46 C132.87,1145.13 132.57,1160.82 132.48,1168.84 C132.66,1180.34 133.23,1189.63 134.26,1199.60 C135.17,1207.33 138.44,1226.13 139.42,1230.13 C141.20,1237.32 143.76,1241.33 144.25,1241.79 C144.40,1241.92 144.68,1242.10 145.08,1242.33" fill="none" stroke="rgb(186, 159, 129)" stroke-width="26.00" stroke-opacity="1.00" stroke-linejoin="round"/>
<path d="M137.79,1148.18 C136.48,1151.09 135.76,1153.94 135.00,1159.29 C133.81,1168.75 132.94,1181.68 132.84,1190.36 C132.90,1202.26 134.77,1236.74 135.67,1251.84 C136.46,1261.27 137.69,1270.19 139.48,1279.34 C139.92,1281.61 141.81,1287.05 143.17,1287.74 C143.53,1287.92 144.30,1288.03 145.48,1288.06" fill="none" stroke="rgb(186, 159, 129)" stroke-width="26.00" stroke-opacity="1.00" stroke-linejoin="round"/>
<path d="M138.24,1207.26 C135.62,1213.40 132.04,1228.56 131.66,1236.04 C131.38,1243.88 130.92,1259.99 130.74,1268.25 C130.66,1276.79 131.93,1292.34 131.83,1294.89 C131.69,1297.67 131.46,1302.41 131.41,1304.67 C131.41,1304.67 131.18,1306.97 131.18,1306.97 C131.18,1306.97 130.80,1308.62 130.80,1308.62 C130.80,1308.62 130.30,1310.70 130.30,1310.70 C130.30,1310.70 130.30,1309.39 130.30,1309.39" fill="none" stroke="rgb(186, 159, 129)" stroke-width="26.00" stroke-opacity="1.00" stroke-linejoin="round"/>
<path d="M130.43,1310.10 C132.14,1309.88 146.34,1310.59 153.75,1310.80 C163.54,1310.88 174.85,1310.23 185.13,1308.91 C191.94,1307.98 198.67,1306.14 201.01,1305.47" fill="none" stroke="rgb(186, 159, 129)" stroke-width="26.00" stroke-opacity="1.00" stroke-linejoin="round"/>
<path d="M159.72,1306.79 C162.65,1308.06 164.11,1308.55 165.50,1308.60 C198.47,1309.91 250.05,1306.92 251.86,1306.44 C245.18,1306.54 231.08,1306.74 223.67,1306.84 C216.71,1306.83 200.03,1304.85 196.26,1304.27 C187.90,1302.98 167.64,1297.99 164.83,1296.63 C162.62,1295.51 159.79,1293.38 158.85,1291.98 C157.63,1290.08 156.51,1287.21 156.21,1285.19 C155.99,1283.46 156.42,1281.30 157.16,1280.41 C158.59,1278.81 163.58,1277.00 166.98,1276.90 C169.93,1276.85 178.74,1278.36 179.54,1278.60 C181.72,1279.30 184.42,1280.93 185.07,1282.15 C185.76,1283.53 185.13,1286.21 183.91,1287.97 C182.87,1289.35 177.71,1292.50 174.62,1293.26 C170.59,1294.19 163.28,1293.76 160.11,1292.52 C158.21,1291.74 154.92,1288.64 153.71,1286.95 C152.61,1285.40 149.93,1280.41 149.51,1277.69 C149.24,1275.84 148.90,1267.61 149.39,1265.27 C149.55,1264.63 151.31,1261.24 151.93,1260.68 C152.88,1259.88 154.99,1260.02 155.88,1260.71 C157.84,1262.39 161.42,1268.09 162.70,1271.15 C163.88,1274.03 165.84,1279.52 166.00,1281.32 C166.04,1281.92 165.97,1286.13 165.75,1286.75 C165.28,1287.95 163.45,1289.11 161.47,1289.61 C157.69,1290.50 149.31,1291.83 147.34,1291.79 C145.80,1291.72 144.21,1290.74 143.84,1289.60 C143.61,1288.82 143.58,1288.00 143.75,1287.14 C143.87,1286.62 144.24,1285.47 144.87,1283.68" fill="none" stroke="rgb(186, 159, 129)" stroke-width="26.00" stroke-opacity="1.00" stroke-linejoin="round"/>
<path d="M175.18,1309.05 C180.19,1307.51 184.02,1307.40 187.75,1308.08 C191.35,1308.79 198.79,1310.18 202.54,1310.35 C207.02,1310.53 225.45,1308.19 227.46,1307.85 C230.82,1307.25 233.60,1305.91 233.90,1305.50 C233.19,1305.46 232.60,1305.41 232.12,1305.34 C231.64,1305.26 230.60,1305.06 229.01,1304.74" fill="none" stroke="rgb(186, 159, 129)" stroke-width="26.00" stroke-opacity="1.00" stroke-linejoin="round"/>
<path d="M178.29,1307.07 C178.29,1307.07 179.21,1309.20 179.21,1309.20 C182.08,1309.45 189.50,1310.08 191.86,1310.10 C202.51,1310.14 221.32,1304.30 223.95,1303.33 C223.46,1302.94 222.64,1302.62 220.71,1302.10 C218.80,1301.59 217.95,1301.38 217.38,1301.26" fill="none" stroke="rgb(186, 159, 129)" stroke-width="26.00" stroke-opacity="1.00" stroke-linejoin="round"/>
<path d="M178.57,1308.49 C189.82,1308.34 224.41,1311.43 234.85,1310.71 C237.61,1310.51 247.68,1308.91 248.24,1308.53 C249.13,1307.92 249.90,1307.00 250.55,1305.78 C250.77,1305.34 250.97,1304.65 251.13,1303.70" fill="none" stroke="rgb(186, 159, 129)" stroke-width="26.00" stroke-opacity="1.00" stroke-linejoin="round"/>
<path d="M236.29,1307.35 C236.29,1307.35 232.12,1307.69 232.12,1307.69 C242.38,1308.55 248.50,1308.80 257.25,1308.45 C260.51,1308.29 279.85,1304.19 288.13,1302.39 C291.90,1301.58 294.36,1300.39 295.43,1299.63 C295.21,1298.78 294.94,1298.19 294.63,1297.88 C294.31,1297.57 293.51,1297.10 292.21,1296.46" fill="none" stroke="rgb(186, 159, 129)" stroke-width="26.00" stroke-opacity="1.00" stroke-linejoin="round"/>
<path d="M251.47,1309.18 C251.47,1309.18 249.02,1311.27 249.02,1311.27 C253.51,1311.23 265.33,1312.24 273.93,1311.01 C281.62,1309.80 302.08,1306.20 304.40,1306.02 C306.38,1305.88 313.53,1306.97 316.62,1307.25 C316.62,1307.25 317.17,1306.16 317.17,1306.16 C316.44,1305.08 315.88,1304.39 315.47,1304.08 C315.07,1303.77 314.26,1303.40 313.06,1302.99" fill="none" stroke="rgb(186, 159, 129)" stroke-width="26.00" stroke-opacity="1.00" stroke-linejoin="round"/>
<path d="M285.92,1310.60" fill="none" stroke="rgb(186, 159, 129)" stroke-width="26.00" stroke-opacity="1.00" stroke-linejoin="round"/>
<path d="M285.92,1310.60 L2137.69,1305.77" fill="none" stroke="rgb(186, 159, 129)" stroke-width="26.00" stroke-opacity="1.00" stroke-linejoin="round"/>
<path d="M2137.69,1305.77" fill="none" stroke="rgb(186, 159, 129)" stroke-width="26.00" stroke-opacity="1.00" stroke-linejoin="round"/>
<path d="M951.93,1311.33 C951.93,1311.33 952.34,1311.87 952.34,1311.87" fill="none" stroke="rgb(186, 159, 129)" stroke-width="26.00" stroke-opacity="1.00" stroke-linejoin="round"/>
<path d="M952.01,1311.35 L2097.39,1312.67" fill="none" stroke="rgb(186, 159, 129)" stroke-width="26.00" stroke-opacity="1.00" stroke-linejoin="round"/>
<path d="M2097.39,1312.67 C2097.39,1312.67 2096.78,1312.67 2096.78,1312.67" fill="none" stroke="rgb(186, 159, 129)" stroke-width="26.00" stroke-opacity="1.00" stroke-linejoin="round"/>
<path d="M2105.07,1309.42 C2104.57,1310.22 2104.34,1310.65 2104.36,1310.71 C2104.38,1310.77 2104.68,1310.54 2105.28,1310.03" fill="none" stroke="rgb(186, 159, 129)" stroke-width="26.00" stroke-opacity="1.00" stroke-linejoin="round"/>
<path d="M2105.34,1309.96 L2433.61,1313.43" fill="none" stroke="rgb(186, 159, 129)" stroke-width="26.00" stroke-opacity="1.00" stroke-linejoin="round"/>
<path d="M2433.61,1313.43" fill="none" stroke="rgb(186, 159, 129)" stroke-width="26.00" stroke-opacity="1.00" stroke-linejoin="round"/>
<path d="M2433.40,1313.39 L2434.34,1222.51" fill="none" stroke="rgb(186, 159, 129)" stroke-width="26.00" stroke-opacity="1.00" stroke-linejoin="round"/>
<path d="M2434.34,1222.51" fill="none" stroke="rgb(186, 159, 129)" stroke-width="26.00" stroke-opacity="1.00" stroke-linejoin="round"/>
<path d="M2417.08,1283.03 C2417.16,1281.62 2417.38,1277.74 2417.75,1277.07 C2418.00,1276.64 2418.69,1276.00 2419.82,1275.17 C2420.67,1278.04 2421.03,1279.46 2420.91,1280.16 C2419.97,1285.34 2414.47,1294.25 2411.90,1297.10 C2410.77,1298.33 2409.98,1298.75 2408.62,1299.02 C2407.86,1298.09 2407.52,1296.65 2407.75,1294.34 C2408.19,1290.25 2410.61,1284.56 2411.85,1282.91 C2412.80,1281.69 2415.74,1278.65 2416.60,1278.16 C2417.81,1277.52 2419.99,1277.75 2420.46,1278.69 C2421.31,1280.52 2420.46,1285.77 2419.54,1287.99 C2418.38,1290.70 2414.56,1296.48 2412.06,1299.05 C2409.47,1301.67 2403.81,1305.56 2401.01,1306.56 C2399.59,1307.04 2397.99,1307.37 2396.06,1307.58 C2394.72,1307.66 2391.70,1306.75 2390.71,1305.63 C2389.81,1304.57 2388.99,1301.12 2389.00,1299.79 C2389.14,1297.16 2390.77,1292.76 2392.01,1291.05 C2393.31,1289.31 2398.40,1284.77 2399.60,1283.75 C2399.91,1283.49 2400.29,1283.17 2400.76,1282.80" fill="none" stroke="rgb(186, 159, 129)" stroke-width="26.00" stroke-opacity="1.00" stroke-linejoin="round"/>
<path d="M2438.79,938.35" fill="none" stroke="rgb(186, 159, 129)" stroke-width="26.00" stroke-opacity="1.00" stroke-linejoin="round"/>
<path d="M2438.71,937.67 L2444.41,271.37" fill="none" stroke="rgb(186, 159, 129)" stroke-width="26.00" stroke-opacity="1.00" stroke-linejoin="round"/>
<path d="M2444.41,271.37 C2443.87,272.47 2443.34,273.56 2442.80,274.66 C2442.79,274.68 2442.79,274.75 2442.80,274.73" fill="none" stroke="rgb(186, 159, 129)" stroke-width="26.00" stroke-opacity="1.00" stroke-linejoin="round"/>
<path d="M2442.73,274.73 L2450.06,112.48" fill="none" stroke="rgb(186, 159, 129)" stroke-width="26.00" stroke-opacity="1.00" stroke-linejoin="round"/>
<path d="M2450.06,112.48 C2450.06,112.48 2448.90,111.88 2448.90,111.88" fill="none" stroke="rgb(186, 159, 129)" stroke-width="26.00" stroke-opacity="1.00" stroke-linejoin="round"/>
<path d="M2448.77,112.61 L2071.14,115.45" fill="none" stroke="rgb(186, 159, 129)" stroke-width="26.00" stroke-opacity="1.00" stroke-linejoin="round"/>
<path d="M2071.14,115.45 C2071.14,115.45 2069.34,117.07 2069.34,117.07 C2069.34,117.07 2070.61,115.73 2070.61,115.73" fill="none" stroke="rgb(186, 159, 129)" stroke-width="26.00" stroke-opacity="1.00" stroke-linejoin="round"/>
<path d="M2374.88,141.78 C2375.42,140.57 2376.90,138.62 2378.35,137.55 C2379.85,136.45 2389.30,132.99 2391.78,132.79 C2393.59,132.67 2399.10,134.47 2400.61,135.59 C2401.56,136.32 2403.27,138.58 2403.81,139.33 C2404.98,141.05 2405.32,142.47 2404.52,143.12 C2402.66,144.51 2385.43,146.03 2383.82,145.61 C2382.28,145.18 2381.32,142.50 2381.50,140.23 C2381.73,138.27 2384.73,132.93 2387.12,130.49 C2389.42,128.18 2395.27,124.26 2398.33,122.96 C2401.51,121.65 2407.59,120.58 2411.00,120.68 C2414.43,120.82 2419.68,122.38 2422.15,124.04 C2424.45,125.63 2427.92,130.02 2428.94,132.57 C2429.89,135.04 2430.28,140.96 2429.53,143.39 C2427.70,149.01 2421.30,155.26 2416.14,159.47 C2412.41,162.50 2409.11,162.71 2407.82,162.14 C2407.46,159.93 2407.38,158.53 2407.74,157.41 C2408.53,154.98 2413.12,146.45 2414.46,144.10 C2417.05,139.58 2421.31,133.42 2424.16,130.65 C2426.87,128.05 2430.05,125.70 2432.57,124.77 C2433.85,124.37 2436.62,124.15 2437.73,124.71 C2439.04,125.40 2440.93,128.27 2441.33,129.85 C2442.08,133.20 2442.12,140.13 2441.67,143.32 C2440.97,148.08 2436.67,160.55 2433.91,166.30 C2431.37,171.55 2424.37,183.41 2421.52,187.00 C2420.77,187.91 2418.13,189.21 2416.61,189.49 C2415.95,189.59 2415.28,188.05 2415.06,187.12 C2414.09,182.22 2416.30,168.88 2418.37,162.67 C2420.61,156.01 2427.15,143.07 2429.21,140.83 C2430.86,139.05 2432.64,137.87 2434.49,137.20 C2435.76,137.85 2436.33,138.50 2436.44,139.78 C2436.84,144.55 2435.60,156.35 2433.47,164.00 C2430.58,173.88 2428.11,181.37 2425.76,187.74 C2426.01,186.12 2427.03,182.19 2428.39,177.56 C2429.72,173.23 2432.00,168.08 2433.77,165.49 C2434.20,173.97 2433.78,182.67 2432.58,193.41 C2431.82,201.37 2430.07,221.90 2430.01,222.22 C2429.95,222.50 2429.81,222.93 2429.58,223.50" fill="none" stroke="rgb(186, 159, 129)" stroke-width="26.00" stroke-opacity="1.00" stroke-linejoin="round"/>
<path d="M2076.89,115.50 C2076.89,115.50 2075.25,115.16 2075.25,115.16" fill="none" stroke="rgb(186, 159, 129)" stroke-width="26.00" stroke-opacity="1.00" stroke-linejoin="round"/>
<path d="M2075.39,114.96 L1175.73,111.77" fill="none" stroke="rgb(186, 159, 129)" stroke-width="26.00" stroke-opacity="1.00" stroke-linejoin="round"/>
<path d="M1175.73,111.77 C1175.73,111.77 1173.06,113.11 1173.06,113.11" fill="none" stroke="rgb(186, 159, 129)" stroke-width="26.00" stroke-opacity="1.00" stroke-linejoin="round"/>
<path d="M1173.68,112.58 L448.39,113.16" fill="none" stroke="rgb(186, 159, 129)" stroke-width="26.00" stroke-opacity="1.00" stroke-linejoin="round"/>
<path d="M448.39,113.16 C448.39,113.16 446.88,113.83 446.88,113.83" fill="none" stroke="rgb(186, 159, 129)" stroke-width="26.00" stroke-opacity="1.00" stroke-linejoin="round"/>
<path d="M446.88,113.97 L126.06,111.54" fill="none" stroke="rgb(186, 159, 129)" stroke-width="26.00" stroke-opacity="1.00" stroke-linejoin="round"/>
<path d="M126.06,111.54 C126.06,111.54 124.90,113.70 124.90,113.70" fill="none" stroke="rgb(186, 159, 129)" stroke-width="26.00" stroke-opacity="1.00" stroke-linejoin="round"/>
<path d="M545.92,111.79 C545.92,111.79 544.78,110.98 544.78,110.98" fill="none" stroke="rgb(186, 159, 129)" stroke-width="26.00" stroke-opacity="1.00" stroke-linejoin="round"/>
<path d="M544.25,111.04 L219.35,114.37" fill="none" stroke="rgb(186, 159, 129)" stroke-width="26.00" stroke-opacity="1.00" stroke-linejoin="round"/>
<path d="M219.35,113.29" fill="none" stroke="rgb(186, 159, 129)" stroke-width="26.00" stroke-opacity="1.00" stroke-linejoin="round"/>
<path d="M123.86,108.29 C123.86,108.29 125.10,109.38 125.10,109.38" fill="none" stroke="rgb(186, 159, 129)" stroke-width="26.00" stroke-opacity="1.00" stroke-linejoin="round"/>
<path d="M125.38,108.97 L128.68,239.73" fill="none" stroke="rgb(186, 159, 129)" stroke-width="26.00" stroke-opacity="1.00" stroke-linejoin="round"/>
<path d="M128.68,239.73" fill="none" stroke="rgb(186, 159, 129)" stroke-width="26.00" stroke-opacity="1.00" stroke-linejoin="round"/>
<path d="M153.76,144.21 C149.19,144.90 144.50,144.47 142.83,142.93 C141.15,141.25 141.13,135.05 141.80,132.46 C142.49,129.95 144.86,125.38 146.27,123.69 C147.45,122.33 150.34,119.58 151.18,119.64 C152.80,119.80 154.59,121.65 154.90,123.42 C155.64,127.51 156.05,132.08 155.92,134.74 C155.77,137.45 154.52,144.59 153.86,147.45 C152.98,151.12 150.95,155.32 148.34,159.73 C146.75,162.36 143.49,166.67 141.91,167.24 C141.57,167.36 141.07,167.31 140.39,167.11 C139.81,165.02 139.65,163.21 140.07,161.00 C141.29,154.65 146.75,143.04 151.69,135.20 C154.25,131.18 158.49,126.03 161.44,124.01 C163.49,122.64 168.35,119.95 170.45,120.18 C171.81,120.36 173.05,122.60 173.51,125.10 C173.86,127.42 172.95,132.35 171.51,136.27 C167.25,147.61 155.65,160.76 152.83,163.53 C152.73,161.57 163.33,148.26 168.49,141.82 C175.57,133.23 182.53,126.27 187.96,122.28 C188.83,121.65 192.18,119.48 193.15,119.16 C195.24,118.48 198.50,118.12 200.43,118.22 C201.72,119.91 202.35,121.08 202.28,122.11 C201.99,125.70 194.71,137.76 190.07,143.53 C187.71,146.44 179.28,156.10 178.46,157.04 C178.17,157.38 177.89,157.71 177.60,158.05" fill="none" stroke="rgb(186, 159, 129)" stroke-width="26.00" stroke-opacity="1.00" stroke-linejoin="round"/>
<path d="M128.09,234.26 C128.09,234.26 125.89,236.01 125.89,236.01 C125.89,236.01 127.67,235.14 127.67,235.14" fill="none" stroke="rgb(186, 159, 129)" stroke-width="26.00" stroke-opacity="1.00" stroke-linejoin="round"/>
<path d="M127.81,234.93 L133.70,883.85" fill="none" stroke="rgb(186, 159, 129)" stroke-width="26.00" stroke-opacity="1.00" stroke-linejoin="round"/>
<path d="M133.70,883.85 C133.70,883.85 133.77,883.58 133.77,883.58" fill="none" stroke="rgb(186, 159, 129)" stroke-width="26.00" stroke-opacity="1.00" stroke-linejoin="round"/>
</g>
<g stroke-linecap="round" transform="translate(-108.00, -94.00)" id="Layer_85">
<path d="M403.17,328.90" fill="none" stroke="rgb(204, 186, 105)" stroke-width="56.00" stroke-opacity="1.00" stroke-linejoin="round"/>
<path d="M403.17,328.90 L408.93,1201.36" fill="none" stroke="rgb(204, 186, 105)" stroke-width="56.00" stroke-opacity="1.00" stroke-linejoin="round"/>
<path d="M408.93,1201.36" fill="none" stroke="rgb(204, 186, 105)" stroke-width="56.00" stroke-opacity="1.00" stroke-linejoin="round"/>
<path d="M402.92,123.19" fill="none" stroke="rgb(204, 186, 105)" stroke-width="56.00" stroke-opacity="1.00" stroke-linejoin="round"/>
<path d="M402.92,123.46 L412.36,1294.93" fill="none" stroke="rgb(204, 186, 105)" stroke-width="56.00" stroke-opacity="1.00" stroke-linejoin="round"/>
<path d="M412.36,1294.93" fill="none" stroke="rgb(204, 186, 105)" stroke-width="56.00" stroke-opacity="1.00" stroke-linejoin="round"/>
<path d="M2143.50,128.73 C2142.09,129.42 2141.21,130.00 2140.85,130.47 C2140.49,130.95 2140.16,131.98 2139.85,133.57" fill="none" stroke="rgb(204, 186, 105)" stroke-width="56.00" stroke-opacity="1.00" stroke-linejoin="round"/>
<path d="M2139.85,133.57 L2143.12,1299.40" fill="none" stroke="rgb(204, 186, 105)" stroke-width="56.00" stroke-opacity="1.00" stroke-linejoin="round"/>
<path d="M2144.20,1298.31" fill="none" stroke="rgb(204, 186, 105)" stroke-width="56.00" stroke-opacity="1.00" stroke-linejoin="round"/>
<path d="M393.54,125.70" fill="none" stroke="rgb(204, 186, 105)" stroke-width="56.00" stroke-opacity="1.00" stroke-linejoin="round"/>
<path d="M393.54,125.70 L405.58,1290.53" fill="none" stroke="rgb(204, 186, 105)" stroke-width="56.00" stroke-opacity="1.00" stroke-linejoin="round"/>
<path d="M405.87,1290.81" fill="none" stroke="rgb(204, 186, 105)" stroke-width="56.00" stroke-opacity="1.00" stroke-linejoin="round"/>
<path d="M412.13,128.57" fill="none" stroke="rgb(204, 186, 105)" stroke-width="56.00" stroke-opacity="1.00" stroke-linejoin="round"/>
<path d="M412.12,123.82" fill="none" stroke="rgb(204, 186, 105)" stroke-width="56.00" stroke-opacity="1.00" stroke-linejoin="round"/>
<path d="M412.02,124.00 L425.37,1296.51" fill="none" stroke="rgb(204, 186, 105)" stroke-width="56.00" stroke-opacity="1.00" stroke-linejoin="round"/>
<path d="M425.37,1296.51" fill="none" stroke="rgb(204, 186, 105)" stroke-width="56.00" stroke-opacity="1.00" stroke-linejoin="round"/>
<path d="M2136.30,126.11" fill="none" stroke="rgb(204, 186, 105)" stroke-width="56.00" stroke-opacity="1.00" stroke-linejoin="round"/>
<path d="M2136.24,126.00 L2135.38,1294.71" fill="none" stroke="rgb(204, 186, 105)" stroke-width="56.00" stroke-opacity="1.00" stroke-linejoin="round"/>
<path d="M2135.59,1295.11" fill="none" stroke="rgb(204, 186, 105)" stroke-width="56.00" stroke-opacity="1.00" stroke-linejoin="round"/>
<path d="M2156.61,130.84" fill="none" stroke="rgb(204, 186, 105)" stroke-width="56.00" stroke-opacity="1.00" stroke-linejoin="round"/>
<path d="M2156.83,130.60 L2155.67,1300.22" fill="none" stroke="rgb(204, 186, 105)" stroke-width="56.00" stroke-opacity="1.00" stroke-linejoin="round"/>
<path d="M2155.67,1300.22 C2155.67,1300.22 2156.27,1299.62 2156.27,1299.62" fill="none" stroke="rgb(204, 186, 105)" stroke-width="56.00" stroke-opacity="1.00" stroke-linejoin="round"/>
<path d="M375.33,106.02 C374.66,106.75 374.46,107.58 374.87,108.70 C375.72,111.09 376.51,115.97 376.53,116.55" fill="none" stroke="rgb(204, 186, 105)" stroke-width="16.00" stroke-opacity="1.00" stroke-linejoin="round"/>
<path d="M372.54,104.69 C373.36,104.05 380.52,105.05 380.69,105.03 C381.05,104.99 381.59,104.86 382.31,104.63" fill="none" stroke="rgb(204, 186, 105)" stroke-width="16.00" stroke-opacity="1.00" stroke-linejoin="round"/>
<path d="M371.76,104.94 C374.45,104.88 381.08,104.68 385.02,104.55 C392.58,104.21 398.95,105.98 399.53,106.11 C399.77,106.17 400.13,106.23 400.61,106.29" fill="none" stroke="rgb(204, 186, 105)" stroke-width="16.00" stroke-opacity="1.00" stroke-linejoin="round"/>
<path d="M411.50,104.04 C413.52,105.25 418.04,105.48 421.43,105.20 C422.66,105.09 423.53,105.03 424.07,105.01 C424.49,104.99 425.25,104.98 426.35,104.99" fill="none" stroke="rgb(204, 186, 105)" stroke-width="16.00" stroke-opacity="1.00" stroke-linejoin="round"/>
<path d="M431.52,105.93 C431.42,106.83 431.38,107.43 431.39,107.73 C431.41,108.03 431.49,108.45 431.66,108.99" fill="none" stroke="rgb(204, 186, 105)" stroke-width="16.00" stroke-opacity="1.00" stroke-linejoin="round"/>
<path d="M434.30,103.46 C434.30,103.46 432.90,103.66 432.90,103.66 C432.59,103.95 432.48,104.37 432.50,105.37 C432.50,105.58 432.50,105.83 432.50,106.11" fill="none" stroke="rgb(204, 186, 105)" stroke-width="16.00" stroke-opacity="1.00" stroke-linejoin="round"/>
<path d="M382.28,1287.68 C382.28,1287.68 382.68,1309.31 382.68,1309.31 C382.68,1309.31 383.24,1311.70 383.24,1311.70 C383.24,1311.70 382.81,1313.29 382.81,1313.29 C385.60,1314.67 390.19,1315.57 395.12,1315.61 C397.06,1315.61 398.10,1315.68 399.20,1315.87" fill="none" stroke="rgb(204, 186, 105)" stroke-width="16.00" stroke-opacity="1.00" stroke-linejoin="round"/>
<path d="M380.46,1315.64 C386.42,1315.09 393.54,1314.94 394.00,1314.86 C394.92,1314.71 396.37,1314.11 397.41,1313.56" fill="none" stroke="rgb(204, 186, 105)" stroke-width="16.00" stroke-opacity="1.00" stroke-linejoin="round"/>
<path d="M399.86,1316.69 C401.77,1316.14 409.52,1316.04 411.13,1315.89 C413.49,1315.66 427.05,1312.90 427.77,1313.28 C427.84,1313.32 427.96,1313.43 428.14,1313.62" fill="none" stroke="rgb(204, 186, 105)" stroke-width="16.00" stroke-opacity="1.00" stroke-linejoin="round"/>
<path d="M424.50,1313.98 C425.61,1314.25 427.97,1314.82 428.98,1315.02 C431.56,1315.52 437.88,1315.87 440.94,1314.81 C441.21,1314.72 442.10,1314.37 443.62,1313.76 C443.89,1313.65 444.09,1313.57 444.22,1313.53" fill="none" stroke="rgb(204, 186, 105)" stroke-width="16.00" stroke-opacity="1.00" stroke-linejoin="round"/>
<path d="M445.54,1313.83 C445.54,1313.83 446.14,1313.83 446.14,1313.83" fill="none" stroke="rgb(204, 186, 105)" stroke-width="16.00" stroke-opacity="1.00" stroke-linejoin="round"/>
<path d="M446.47,1316.92 C446.38,1315.99 446.79,1294.63 446.73,1293.79 C446.71,1293.57 446.66,1293.11 446.58,1292.40" fill="none" stroke="rgb(204, 186, 105)" stroke-width="16.00" stroke-opacity="1.00" stroke-linejoin="round"/>
<path d="M2115.00,1297.56 C2114.86,1299.88 2114.50,1306.38 2114.60,1307.16 C2115.08,1310.20 2115.63,1313.81 2115.91,1315.31 C2115.91,1315.31 2115.42,1317.12 2115.42,1317.12 C2115.42,1317.12 2115.46,1318.35 2115.46,1318.35" fill="none" stroke="rgb(204, 186, 105)" stroke-width="16.00" stroke-opacity="1.00" stroke-linejoin="round"/>
<path d="M2114.92,1318.93 C2114.23,1317.32 2115.09,1308.81 2115.19,1308.39 C2115.26,1308.09 2115.43,1307.73 2115.70,1307.31" fill="none" stroke="rgb(204, 186, 105)" stroke-width="16.00" stroke-opacity="1.00" stroke-linejoin="round"/>
<path d="M2115.18,1317.24 C2116.81,1316.95 2124.97,1317.27 2129.32,1316.71 C2136.30,1315.73 2139.87,1315.28 2141.25,1315.28 C2142.91,1315.27 2143.34,1314.94 2142.43,1314.28 C2142.25,1314.15 2141.89,1313.95 2141.35,1313.68" fill="none" stroke="rgb(204, 186, 105)" stroke-width="16.00" stroke-opacity="1.00" stroke-linejoin="round"/>
<path d="M2121.93,1318.43 C2124.52,1319.14 2142.32,1319.31 2144.68,1318.58 C2145.02,1318.47 2145.35,1318.30 2145.66,1318.06" fill="none" stroke="rgb(204, 186, 105)" stroke-width="16.00" stroke-opacity="1.00" stroke-linejoin="round"/>
<path d="M2164.46,1316.75 C2164.46,1316.75 2176.59,1316.12 2176.59,1316.12" fill="none" stroke="rgb(204, 186, 105)" stroke-width="16.00" stroke-opacity="1.00" stroke-linejoin="round"/>
<path d="M2176.62,1318.04 C2176.62,1318.04 2174.91,1317.30 2174.91,1317.30 C2174.50,1315.64 2174.14,1313.99 2174.07,1313.33 C2174.05,1313.13 2174.05,1312.87 2174.07,1312.57" fill="none" stroke="rgb(204, 186, 105)" stroke-width="16.00" stroke-opacity="1.00" stroke-linejoin="round"/>
<path d="M2114.26,117.91 C2114.26,117.91 2114.58,110.52 2114.58,110.52 C2114.58,110.52 2114.58,111.06 2114.58,111.06 C2114.58,111.06 2114.74,108.29 2114.74,108.29 C2115.10,107.94 2116.47,108.53 2119.28,108.21 C2119.92,108.14 2120.48,108.15 2120.96,108.24 C2121.20,108.29 2121.61,108.43 2122.19,108.67" fill="none" stroke="rgb(204, 186, 105)" stroke-width="16.00" stroke-opacity="1.00" stroke-linejoin="round"/>
<path d="M2172.99,120.73 C2172.99,120.73 2174.03,111.71 2174.03,111.71 C2174.03,111.71 2174.27,110.41 2174.27,110.41 C2173.79,110.68 2168.87,110.08 2165.64,110.58 C2163.62,110.90 2157.72,110.93 2155.67,110.85 C2156.44,111.36 2170.41,108.97 2174.75,109.54 C2175.20,109.60 2175.83,109.75 2176.63,109.98 C2176.63,109.98 2162.94,109.38 2162.94,109.38 C2164.66,109.74 2168.02,110.27 2169.25,110.47 C2169.61,110.52 2169.79,110.56 2169.79,110.57" fill="none" stroke="rgb(204, 186, 105)" stroke-width="16.00" stroke-opacity="1.00" stroke-linejoin="round"/>
</g>
<g stroke-linecap="round" transform="translate(-108.00, -94.00)" id="Layer_83">
<path d="M486.95,96.49 L486.96,97.49" fill="none" stroke="rgb(0, 0, 0)" stroke-width="6.00" stroke-opacity="1.00" stroke-linejoin="round"/>
<path d="M2454.92,488.93 L2454.96,486.93" fill="none" stroke="rgb(0, 0, 0)" stroke-width="6.00" stroke-opacity="1.00" stroke-linejoin="round"/>
<path d="M2460.80,353.32 L2460.82,351.33" fill="none" stroke="rgb(0, 0, 0)" stroke-width="6.00" stroke-opacity="1.00" stroke-linejoin="round"/>
<path d="M111.89,171.82 L111.89,172.82" fill="none" stroke="rgb(0, 0, 0)" stroke-width="6.00" stroke-opacity="1.00" stroke-linejoin="round"/>
<path d="M113.85,432.30 L113.86,433.30" fill="none" stroke="rgb(0, 0, 0)" stroke-width="6.00" stroke-opacity="1.00" stroke-linejoin="round"/>
<path d="M113.96,447.28 L113.97,448.28" fill="none" stroke="rgb(0, 0, 0)" stroke-width="6.00" stroke-opacity="1.00" stroke-linejoin="round"/>
<path d="M2454.51,638.93 L2454.55,635.93" fill="none" stroke="rgb(0, 0, 0)" stroke-width="6.00" stroke-opacity="1.00" stroke-linejoin="round"/>
<path d="M2451.09,572.78 L2451.14,570.78" fill="none" stroke="rgb(0, 0, 0)" stroke-width="6.00" stroke-opacity="1.00" stroke-linejoin="round"/>
<path d="M111.90,172.44 L111.90,173.44" fill="none" stroke="rgb(0, 0, 0)" stroke-width="6.00" stroke-opacity="1.00" stroke-linejoin="round"/>
<path d="M112.00,186.34 L112.02,188.33" fill="none" stroke="rgb(0, 0, 0)" stroke-width="6.00" stroke-opacity="1.00" stroke-linejoin="round"/>
<path d="M113.85,430.05 L113.86,431.05" fill="none" stroke="rgb(0, 0, 0)" stroke-width="6.00" stroke-opacity="1.00" stroke-linejoin="round"/>
<path d="M113.96,445.00 L113.97,445.99" fill="none" stroke="rgb(0, 0, 0)" stroke-width="6.00" stroke-opacity="1.00" stroke-linejoin="round"/>
<path d="M114.01,450.98 L114.02,452.97" fill="none" stroke="rgb(0, 0, 0)" stroke-width="6.00" stroke-opacity="1.00" stroke-linejoin="round"/>
<path d="M114.86,562.69 L114.87,564.69" fill="none" stroke="rgb(0, 0, 0)" stroke-width="6.00" stroke-opacity="1.00" stroke-linejoin="round"/>
<path d="M118.05,983.18 L118.06,985.19" fill="none" stroke="rgb(0, 0, 0)" stroke-width="6.00" stroke-opacity="1.00" stroke-linejoin="round"/>
<path d="M2461.15,361.13 L2461.16,359.14" fill="none" stroke="rgb(0, 0, 0)" stroke-width="6.00" stroke-opacity="1.00" stroke-linejoin="round"/>
<path d="M2461.43,305.43 L2461.44,303.44" fill="none" stroke="rgb(0, 0, 0)" stroke-width="6.00" stroke-opacity="1.00" stroke-linejoin="round"/>
<path d="M2461.65,260.70 L2461.66,258.72" fill="none" stroke="rgb(0, 0, 0)" stroke-width="6.00" stroke-opacity="1.00" stroke-linejoin="round"/>
<path d="M111.46,100.72" fill="none" stroke="rgb(0, 0, 0)" stroke-width="6.00" stroke-opacity="1.00" stroke-linejoin="round"/>
<path d="M111.37,100.53 L111.91,171.80" fill="none" stroke="rgb(0, 0, 0)" stroke-width="6.00" stroke-opacity="1.00" stroke-linejoin="round"/>
<path d="M111.92,173.80 L112.02,186.76" fill="none" stroke="rgb(0, 0, 0)" stroke-width="6.00" stroke-opacity="1.00" stroke-linejoin="round"/>
<path d="M112.03,188.76 L113.87,431.25" fill="none" stroke="rgb(0, 0, 0)" stroke-width="6.00" stroke-opacity="1.00" stroke-linejoin="round"/>
<path d="M113.89,433.24 L113.98,446.23" fill="none" stroke="rgb(0, 0, 0)" stroke-width="6.00" stroke-opacity="1.00" stroke-linejoin="round"/>
<path d="M114.00,448.22 L114.03,452.22" fill="none" stroke="rgb(0, 0, 0)" stroke-width="6.00" stroke-opacity="1.00" stroke-linejoin="round"/>
<path d="M114.04,454.22 L114.88,564.11" fill="none" stroke="rgb(0, 0, 0)" stroke-width="6.00" stroke-opacity="1.00" stroke-linejoin="round"/>
<path d="M114.89,566.11 L118.06,984.39" fill="none" stroke="rgb(0, 0, 0)" stroke-width="6.00" stroke-opacity="1.00" stroke-linejoin="round"/>
<path d="M118.08,986.40 L120.62,1322.88" fill="none" stroke="rgb(0, 0, 0)" stroke-width="6.00" stroke-opacity="1.00" stroke-linejoin="round"/>
<path d="M120.62,1322.88 C120.62,1322.88 119.64,1322.88 119.64,1322.88" fill="none" stroke="rgb(0, 0, 0)" stroke-width="6.00" stroke-opacity="1.00" stroke-linejoin="round"/>
<path d="M119.64,1322.88 L2445.19,1326.21" fill="none" stroke="rgb(0, 0, 0)" stroke-width="6.00" stroke-opacity="1.00" stroke-linejoin="round"/>
<path d="M2445.19,1326.21 C2445.19,1326.21 2445.07,1326.21 2445.07,1326.21" fill="none" stroke="rgb(0, 0, 0)" stroke-width="6.00" stroke-opacity="1.00" stroke-linejoin="round"/>
<path d="M2445.07,1326.21 L2445.19,1326.21" fill="none" stroke="rgb(0, 0, 0)" stroke-width="6.00" stroke-opacity="1.00" stroke-linejoin="round"/>
<path d="M2445.19,1326.21 C2445.19,1326.21 2445.07,1326.21 2445.07,1326.21" fill="none" stroke="rgb(0, 0, 0)" stroke-width="6.00" stroke-opacity="1.00" stroke-linejoin="round"/>
<path d="M2445.07,1326.25 L2454.82,636.09" fill="none" stroke="rgb(0, 0, 0)" stroke-width="6.00" stroke-opacity="1.00" stroke-linejoin="round"/>
<path d="M2454.86,633.11 L2455.74,571.18" fill="none" stroke="rgb(0, 0, 0)" stroke-width="6.00" stroke-opacity="1.00" stroke-linejoin="round"/>
<path d="M2455.77,569.19 L2456.91,488.22" fill="none" stroke="rgb(0, 0, 0)" stroke-width="6.00" stroke-opacity="1.00" stroke-linejoin="round"/>
<path d="M2456.94,486.23 L2458.71,360.84" fill="none" stroke="rgb(0, 0, 0)" stroke-width="6.00" stroke-opacity="1.00" stroke-linejoin="round"/>
<path d="M2458.74,358.85 L2458.82,352.90" fill="none" stroke="rgb(0, 0, 0)" stroke-width="6.00" stroke-opacity="1.00" stroke-linejoin="round"/>
<path d="M2458.85,350.91 L2459.49,305.25" fill="none" stroke="rgb(0, 0, 0)" stroke-width="6.00" stroke-opacity="1.00" stroke-linejoin="round"/>
<path d="M2459.52,303.26 L2460.13,260.59" fill="none" stroke="rgb(0, 0, 0)" stroke-width="6.00" stroke-opacity="1.00" stroke-linejoin="round"/>
<path d="M2460.15,258.61 L2462.37,101.41" fill="none" stroke="rgb(0, 0, 0)" stroke-width="6.00" stroke-opacity="1.00" stroke-linejoin="round"/>
<path d="M2462.37,101.41 C2462.37,101.41 2462.27,101.39 2462.27,101.39" fill="none" stroke="rgb(0, 0, 0)" stroke-width="6.00" stroke-opacity="1.00" stroke-linejoin="round"/>
<path d="M2462.27,101.39 L2300.52,101.09" fill="none" stroke="rgb(0, 0, 0)" stroke-width="6.00" stroke-opacity="1.00" stroke-linejoin="round"/>
<path d="M2285.58,101.06 L2257.70,101.01" fill="none" stroke="rgb(0, 0, 0)" stroke-width="6.00" stroke-opacity="1.00" stroke-linejoin="round"/>
<path d="M2242.76,100.99 L114.54,97.09" fill="none" stroke="rgb(0, 0, 0)" stroke-width="6.00" stroke-opacity="1.00" stroke-linejoin="round"/>
<path d="M114.54,97.09 C114.54,97.09 113.45,97.19 113.45,97.19" fill="none" stroke="rgb(0, 0, 0)" stroke-width="6.00" stroke-opacity="1.00" stroke-linejoin="round"/>
<path d="M364.12,95.04 L374.52,1316.36" fill="none" stroke="rgb(0, 0, 0)" stroke-width="6.00" stroke-opacity="1.00" stroke-linejoin="round"/>
<path d="M374.52,1316.36 C374.52,1316.36 373.03,1317.19 373.03,1317.19 C373.03,1317.19 373.62,1316.55 373.62,1316.55" fill="none" stroke="rgb(0, 0, 0)" stroke-width="6.00" stroke-opacity="1.00" stroke-linejoin="round"/>
<path d="M488.58,97.47 L488.62,100.46" fill="none" stroke="rgb(0, 0, 0)" stroke-width="6.00" stroke-opacity="1.00" stroke-linejoin="round"/>
<path d="M504.14,1315.53 C504.14,1315.53 504.45,1314.44 504.45,1314.44" fill="none" stroke="rgb(0, 0, 0)" stroke-width="6.00" stroke-opacity="1.00" stroke-linejoin="round"/>
<path d="M439.45,100.46 L454.79,1315.66" fill="none" stroke="rgb(0, 0, 0)" stroke-width="6.00" stroke-opacity="1.00" stroke-linejoin="round"/>
<path d="M455.09,1314.56 C455.09,1314.56 455.16,1314.44 455.16,1314.44" fill="none" stroke="rgb(0, 0, 0)" stroke-width="6.00" stroke-opacity="1.00" stroke-linejoin="round"/>
<path d="M374.25,1312.30 C374.25,1312.30 374.24,1321.76 374.24,1321.76 C374.24,1321.76 374.57,1320.24 374.57,1320.24" fill="none" stroke="rgb(0, 0, 0)" stroke-width="6.00" stroke-opacity="1.00" stroke-linejoin="round"/>
<path d="M455.49,1308.87 C455.49,1308.87 455.16,1319.70 455.16,1319.70" fill="none" stroke="rgb(0, 0, 0)" stroke-width="6.00" stroke-opacity="1.00" stroke-linejoin="round"/>
<path d="M455.35,1316.82 C455.35,1316.82 455.02,1320.79 455.02,1320.79" fill="none" stroke="rgb(0, 0, 0)" stroke-width="6.00" stroke-opacity="1.00" stroke-linejoin="round"/>
<path d="M2302.43,100.80 C2302.43,100.80 2302.88,101.98 2302.88,101.98" fill="none" stroke="rgb(0, 0, 0)" stroke-width="6.00" stroke-opacity="1.00" stroke-linejoin="round"/>
<path d="M2302.58,101.17 L2302.58,102.16" fill="none" stroke="rgb(0, 0, 0)" stroke-width="6.00" stroke-opacity="1.00" stroke-linejoin="round"/>
<path d="M2185.08,1322.22 C2185.08,1322.22 2184.62,1322.06 2184.62,1322.06" fill="none" stroke="rgb(0, 0, 0)" stroke-width="6.00" stroke-opacity="1.00" stroke-linejoin="round"/>
<path d="M2184.62,1322.06 L2184.62,1320.06" fill="none" stroke="rgb(0, 0, 0)" stroke-width="6.00" stroke-opacity="1.00" stroke-linejoin="round"/>
<path d="M2185.57,101.84 L2185.57,100.35" fill="none" stroke="rgb(0, 0, 0)" stroke-width="6.00" stroke-opacity="1.00" stroke-linejoin="round"/>
<path d="M2185.57,100.35" fill="none" stroke="rgb(0, 0, 0)" stroke-width="6.00" stroke-opacity="1.00" stroke-linejoin="round"/>
<path d="M2105.66,1326.27 L2106.89,107.79" fill="none" stroke="rgb(0, 0, 0)" stroke-width="6.00" stroke-opacity="1.00" stroke-linejoin="round"/>
<path d="M2181.12,111.09 L2183.59,1326.70" fill="none" stroke="rgb(0, 0, 0)" stroke-width="6.00" stroke-opacity="1.00" stroke-linejoin="round"/>
<path d="M2107.02,100.45 C2106.98,101.42 2106.87,104.20 2106.80,106.02 C2106.63,110.76 2106.65,111.92 2106.68,112.55 C2106.68,112.55 2106.93,112.34 2106.93,112.34" fill="none" stroke="rgb(0, 0, 0)" stroke-width="6.00" stroke-opacity="1.00" stroke-linejoin="round"/>
<path d="M2181.04,100.74 C2181.05,100.95 2181.05,101.19 2181.05,101.47 C2181.04,108.28 2181.05,116.46 2181.08,116.92 C2181.10,117.11 2181.14,117.38 2181.20,117.72" fill="none" stroke="rgb(0, 0, 0)" stroke-width="6.00" stroke-opacity="1.00" stroke-linejoin="round"/>
<path d="M2244.60,100.53 C2244.23,100.83 2256.36,100.96 2256.94,100.94 C2258.44,100.88 2260.80,100.47 2261.61,100.18 C2261.81,100.11 2262.07,99.98 2262.39,99.79" fill="none" stroke="rgb(0, 0, 0)" stroke-width="6.00" stroke-opacity="1.00" stroke-linejoin="round"/>
<path d="M2286.71,101.47 C2289.33,101.28 2290.87,101.27 2293.34,101.49 C2296.97,101.81 2302.39,101.74 2303.13,101.67 C2303.44,101.64 2303.87,101.55 2304.41,101.41" fill="none" stroke="rgb(0, 0, 0)" stroke-width="6.00" stroke-opacity="1.00" stroke-linejoin="round"/>
</g>
</svg>
