<?xml version="1.0" encoding="UTF-8" standalone="no"?>
<!DOCTYPE svg PUBLIC "-//W3C//DTD SVG 1.1//EN" "http://www.w3.org/Graphics/SVG/1.1/DTD/svg11.dtd">
<svg width="71.76" height="30.48" viewBox="0.00 0.00 299.00 127.00" xmlns="http://www.w3.org/2000/svg" xmlns:xlink="http://www.w3.org/1999/xlink">
<g stroke-linecap="round" transform="translate(-98.00, -176.00)" id="Layer_63">
<path d="M267.61,203.59 C267.61,203.59 268.07,205.01 268.07,205.01 C267.10,205.15 265.30,205.09 264.76,204.60 C264.08,203.96 263.88,203.34 264.16,202.75 C264.32,202.43 266.97,202.34 267.31,202.46 C270.36,203.70 267.53,207.07 266.62,207.01 C266.81,205.92 267.16,205.39 267.97,205.14 C268.95,204.86 271.01,207.62 270.97,207.95 C270.97,207.95 269.48,209.44 269.48,209.44 C269.74,210.47 269.53,211.46 268.73,212.45 C268.28,213.01 267.24,213.37 265.95,213.59 C265.46,213.67 262.22,215.49 262.16,215.52 C260.71,216.15 256.93,215.43 255.70,215.35 C254.84,215.29 249.29,216.65 246.42,216.89 C243.37,217.11 240.41,216.03 239.96,216.00 C240.09,216.02 245.53,214.74 246.60,214.92 C247.99,215.19 248.79,216.93 248.05,218.00 C247.15,219.16 243.40,220.32 240.42,220.61 C234.68,221.04 225.81,218.11 225.31,217.49 C224.90,216.91 224.65,215.79 224.81,215.08 C225.26,213.43 230.62,209.34 231.69,209.71 C232.11,209.97 232.62,211.22 232.43,212.16 C232.23,213.12 230.76,214.59 229.29,215.56 C228.58,216.01 227.68,216.16 225.79,216.33 C224.35,215.76 224.56,211.27 224.70,210.79 C224.70,210.79 222.04,215.77 222.04,215.77 C220.70,215.26 220.11,212.03 220.56,208.49 C220.63,207.95 220.86,206.64 221.15,206.52 C221.15,206.52 218.90,207.56 218.90,207.56 C218.75,207.10 221.81,203.83 223.29,203.58 C225.90,203.22 228.45,203.96 231.43,206.30 C233.53,207.96 239.19,210.44 239.40,211.10 C239.41,211.18 239.45,211.43 239.51,211.87 C238.47,213.79 232.66,212.87 231.71,211.87 C231.32,211.42 231.13,210.00 231.37,209.30 C232.08,207.54 237.00,204.38 240.49,203.66 C242.61,203.25 245.01,203.37 245.85,203.91 C246.76,204.59 247.46,205.69 247.48,206.64 C247.45,208.56 243.53,213.88 241.67,215.66 C240.07,217.15 236.01,219.60 234.53,220.02 C232.61,220.52 229.54,220.77 228.44,220.45 C227.52,220.16 226.86,218.54 226.76,216.88 C226.70,215.05 228.15,210.98 229.50,208.81 C230.69,206.97 235.57,202.36 238.24,201.42 C239.50,200.99 241.00,201.00 241.89,201.24 C243.07,202.90 243.67,207.32 243.42,209.45 C243.08,212.05 241.01,216.78 239.50,219.01 C236.58,223.25 229.32,227.86 226.21,229.49 C225.96,229.63 225.72,229.73 225.50,229.82" fill="none" stroke="rgb(255, 255, 255)" stroke-width="26.00" stroke-opacity="1.00" stroke-linejoin="round"/>
</g>
<g stroke-linecap="round" transform="translate(-98.00, -176.00)" id="Layer_62">
<path d="M116.67,222.52 C114.92,222.96 114.40,222.99 114.68,222.48 C114.79,222.29 114.95,221.97 115.15,221.51 C115.15,221.51 114.68,220.90 114.68,220.90" fill="none" stroke="rgb(170, 170, 170)" stroke-width="26.00" stroke-opacity="1.00" stroke-linejoin="round"/>
<path d="M114.38,221.50 C114.22,220.82 114.66,219.46 115.67,218.21 C116.69,216.97 118.83,215.64 120.54,215.16 C120.97,215.04 121.86,214.84 123.22,214.56" fill="none" stroke="rgb(170, 170, 170)" stroke-width="26.00" stroke-opacity="1.00" stroke-linejoin="round"/>
<path d="M118.14,220.60 C117.26,221.86 115.79,225.63 115.44,228.24 C115.16,230.45 114.98,235.99 115.61,238.16 C116.27,240.39 116.31,245.68 116.14,246.03 C114.95,248.32 113.40,250.93 113.50,251.16 C113.85,251.97 115.35,254.07 115.51,254.14" fill="none" stroke="rgb(170, 170, 170)" stroke-width="26.00" stroke-opacity="1.00" stroke-linejoin="round"/>
<path d="M113.17,248.65 C113.66,249.56 114.86,250.80 116.14,251.59 C116.43,251.78 116.80,251.94 117.27,252.10" fill="none" stroke="rgb(170, 170, 170)" stroke-width="26.00" stroke-opacity="1.00" stroke-linejoin="round"/>
<path d="M364.86,206.87 C365.78,207.79 368.25,209.57 369.70,211.70 C370.59,213.03 370.50,217.33 370.62,217.50" fill="none" stroke="rgb(170, 170, 170)" stroke-width="26.00" stroke-opacity="1.00" stroke-linejoin="round"/>
<path d="M372.06,216.59 C372.01,217.93 374.64,220.65 378.37,223.58 C381.20,225.80 383.14,228.34 383.10,228.99 C383.07,229.30 382.88,230.03 382.51,231.19" fill="none" stroke="rgb(170, 170, 170)" stroke-width="26.00" stroke-opacity="1.00" stroke-linejoin="round"/>
<path d="M382.76,229.03 C381.92,230.21 380.79,234.66 380.48,235.88 C380.37,236.29 380.30,236.60 380.27,236.80" fill="none" stroke="rgb(170, 170, 170)" stroke-width="26.00" stroke-opacity="1.00" stroke-linejoin="round"/>
</g>
<g stroke-linecap="round" transform="translate(-98.00, -176.00)" id="Layer_65">
<path d="M117.00,227.74 C117.00,227.74 109.88,231.42 109.88,231.42 C109.11,229.12 111.77,225.90 112.89,225.62 C114.41,225.28 116.12,225.64 116.80,226.52 C117.29,227.19 117.16,228.11 116.72,228.76 C115.51,229.04 112.22,227.30 111.71,225.80 C111.39,224.66 114.09,220.90 115.61,220.09 C116.09,220.55 116.19,220.88 115.76,221.55 C114.79,223.06 113.97,223.84 113.04,224.22 C112.39,223.84 111.98,223.04 112.06,221.82 C112.17,220.50 113.16,218.24 114.23,217.15 C115.58,215.80 117.41,215.05 118.86,215.00 C118.86,215.00 119.53,216.04 119.53,216.04 C119.67,217.75 112.17,221.84 111.42,221.67 C111.73,218.18 121.70,213.33 125.79,210.78 C125.79,210.78 125.80,211.98 125.80,211.98 C125.80,211.98 125.41,211.01 125.41,211.01 C125.41,211.01 127.51,209.67 127.51,209.67 C127.64,209.69 123.11,211.85 120.23,215.36 C118.14,217.96 111.84,232.32 112.53,233.73 C112.82,234.29 113.85,235.71 113.63,237.63 C113.45,239.16 113.23,241.33 113.12,242.02 C113.00,242.65 110.82,244.55 110.44,246.04 C109.91,248.25 110.09,249.70 111.11,250.80 C111.38,251.09 111.78,251.56 112.30,252.23 C112.30,252.23 112.22,250.42 112.22,250.42 C112.22,250.42 112.38,250.33 112.38,250.33 C112.38,250.33 110.83,250.01 110.83,250.01 C110.83,250.01 110.61,252.54 110.61,252.54 C111.64,252.07 112.90,249.71 114.04,245.11 C114.48,243.56 116.14,241.96 116.88,241.59 C117.10,241.48 117.54,241.30 118.19,241.07" fill="none" stroke="rgb(255, 255, 255)" stroke-width="16.00" stroke-opacity="1.00" stroke-linejoin="round"/>
<path d="M367.17,203.57 C368.36,205.92 374.49,211.74 374.65,211.95 C375.87,213.53 379.08,220.27 380.36,222.16 C380.84,222.87 384.52,226.79 386.07,230.27 C386.07,230.27 378.27,216.83 378.27,216.83 C379.79,217.24 381.24,218.09 382.17,219.38 C383.43,221.13 385.43,226.66 387.13,229.50 C386.82,229.50 383.70,233.74 381.97,233.89 C381.13,233.94 379.37,233.63 377.54,233.21 C377.96,232.96 378.30,232.80 378.55,232.73 C378.81,232.67 379.33,232.60 380.13,232.53" fill="none" stroke="rgb(255, 255, 255)" stroke-width="16.00" stroke-opacity="1.00" stroke-linejoin="round"/>
</g>
<g stroke-linecap="round" transform="translate(-98.00, -176.00)" id="Layer_61">
<path d="M131.71,243.35 C131.27,241.83 131.21,240.18 131.71,238.36 C132.53,235.47 135.52,230.96 136.55,230.08 C137.94,228.94 141.89,227.59 143.59,228.51 C144.51,229.04 146.48,232.56 146.67,234.01 C146.88,235.85 146.55,238.64 145.84,240.27 C145.15,241.77 143.23,244.33 142.06,245.29 C139.78,247.08 134.56,247.94 133.11,247.47 C132.11,247.09 129.93,244.42 129.82,241.91 C129.78,240.10 130.45,237.10 131.32,235.38 C132.94,232.30 137.81,227.91 140.40,227.16 C142.00,226.75 143.17,227.62 143.43,228.66 C143.67,230.17 140.79,236.10 137.71,238.90 C135.14,241.16 129.13,243.48 126.44,243.61 C125.31,243.63 123.98,243.34 123.59,242.92 C122.55,241.57 122.79,235.77 124.19,232.63 C125.40,230.05 127.72,227.11 129.61,226.32 C129.61,226.32 127.01,231.33 127.01,231.33 C126.34,231.00 125.66,230.44 125.48,229.76 C125.00,227.75 126.73,220.20 128.40,217.87 C129.92,215.80 132.47,213.40 133.22,212.88 C133.43,213.86 132.24,217.11 131.22,218.61 C130.20,220.09 128.28,221.37 127.63,221.25 C127.07,221.10 126.70,219.62 126.97,218.30 C127.14,217.65 128.38,215.44 129.21,214.54 C130.23,213.46 133.11,211.90 134.87,211.35 C136.45,210.90 138.02,210.99 138.88,211.52 C139.32,211.79 140.91,212.62 141.54,212.29 C141.90,212.09 145.76,208.81 147.02,208.61 C147.02,208.61 148.05,209.67 148.05,209.67 C148.05,209.67 148.10,211.00 148.10,211.00 C147.35,211.71 143.97,211.94 140.97,210.83 C139.89,210.42 139.47,209.05 140.09,208.29 C140.76,207.53 144.70,205.75 146.91,205.55 C149.35,205.34 155.55,205.99 155.98,206.20 C155.98,206.20 149.77,208.31 149.77,208.31 C150.47,207.32 155.16,206.22 158.87,206.59 C159.60,206.67 165.66,207.44 169.92,207.41 C171.84,207.39 176.00,208.22 175.95,208.14 C175.95,208.14 169.06,206.97 169.06,206.97 C173.63,207.28 176.72,207.63 180.04,208.42 C181.80,208.85 183.35,209.06 185.44,209.19" fill="none" stroke="rgb(126, 126, 126)" stroke-width="26.00" stroke-opacity="1.00" stroke-linejoin="round"/>
<path d="M179.00,206.35 C183.30,207.34 187.34,207.86 190.90,208.20 C194.67,208.52 196.22,208.37 197.52,207.02 C197.62,206.92 197.63,206.87 197.57,206.87 C194.91,208.72 192.08,209.58 189.29,210.19 C179.16,212.40 163.42,219.79 162.16,220.16 C162.39,219.73 166.64,218.14 169.31,217.85 C171.50,217.63 176.57,217.69 179.66,218.33 C182.76,219.00 185.51,220.77 185.96,222.14 C186.10,222.67 185.25,224.67 181.96,226.81 C179.24,228.55 167.43,231.65 162.97,232.02 C155.14,232.60 153.04,231.30 152.66,230.77 C152.54,229.48 153.37,228.26 154.52,227.63 C155.98,226.86 160.29,225.90 162.76,225.95 C165.65,226.04 170.21,227.23 172.89,228.32 C174.87,229.14 179.97,231.99 181.66,233.88 C183.31,235.78 183.20,239.72 182.46,241.11 C181.73,242.38 179.35,244.59 178.13,245.10 C176.48,245.75 173.59,246.25 171.95,246.07 C169.11,245.73 166.15,243.53 165.88,242.40 C165.64,241.09 166.26,238.15 167.29,236.98 C168.24,235.94 171.28,234.46 173.04,234.16 C174.84,233.89 178.50,234.19 180.89,234.80 C183.50,235.51 187.45,238.41 188.47,240.40 C189.10,241.71 189.77,246.19 188.81,249.39 C186.86,255.70 183.60,255.41 182.88,255.07 C182.88,255.07 182.75,253.43 182.75,253.43 C183.88,252.97 189.84,251.99 192.20,251.49 C192.42,251.44 192.74,251.36 193.16,251.26" fill="none" stroke="rgb(126, 126, 126)" stroke-width="26.00" stroke-opacity="1.00" stroke-linejoin="round"/>
<path d="M174.24,249.99 C174.24,249.99 174.35,251.15 174.35,251.15 C176.14,251.81 178.54,253.13 182.84,255.82 C185.54,257.53 192.00,260.12 195.44,261.43 C198.72,262.80 201.15,265.06 200.86,266.42 C200.47,267.87 198.02,269.90 197.48,269.70 C197.48,269.70 201.03,272.63 201.03,272.63 C201.03,272.63 200.85,275.83 200.85,275.83 C200.85,275.83 197.27,276.46 197.27,276.46 C197.27,276.46 199.16,277.19 199.16,277.19 C199.16,277.19 200.21,278.46 200.21,278.46 C199.13,278.76 195.76,278.50 193.33,277.60 C191.75,277.00 182.00,271.90 181.33,271.48 C182.09,270.14 186.23,269.02 189.07,269.11 C191.08,269.17 192.93,269.53 193.95,269.95 C193.75,270.71 193.20,271.23 191.89,271.53 C188.58,272.29 182.35,272.65 178.96,272.06 C176.10,271.54 171.37,270.64 171.30,270.56 C172.36,269.31 184.30,267.75 185.23,269.09 C184.27,270.41 180.04,271.40 178.25,271.53 C174.21,271.81 172.20,271.24 171.58,270.97 C172.30,269.94 177.82,267.68 180.65,267.82 C180.04,269.82 178.77,271.18 176.40,271.91 C172.94,272.96 168.99,272.77 167.96,272.58 C167.40,270.98 177.02,267.17 178.23,267.48 C178.41,268.09 176.97,270.30 175.89,270.94 C173.51,272.29 165.98,273.46 164.36,273.42 C164.74,271.97 165.19,271.10 166.20,270.19 C169.00,267.72 173.25,265.50 175.33,265.39 C175.29,266.35 171.20,268.88 167.38,270.18 C163.26,271.52 159.53,272.10 158.85,271.74 C158.62,271.06 159.53,269.01 161.02,267.61 C165.72,263.29 171.69,262.33 172.35,262.35 C172.43,263.11 167.53,265.77 164.28,266.85 C160.27,268.14 158.84,267.84 158.54,267.56 C158.38,266.73 159.70,264.20 161.53,262.70 C164.50,260.36 170.70,258.00 172.73,258.45 C173.20,259.53 173.21,260.22 172.58,260.99 C170.22,263.75 158.67,268.22 156.78,268.68 C156.56,268.52 160.37,264.78 163.05,263.43 C165.22,262.37 167.95,262.54 168.66,263.23 C169.42,264.03 168.76,266.31 167.30,268.10 C165.67,269.99 160.25,272.95 158.14,272.80 C158.04,272.20 158.64,271.21 159.88,270.49 C162.87,268.75 165.72,269.21 166.02,269.61 C166.38,270.62 165.90,272.37 164.93,273.66 C163.95,274.90 158.62,277.82 157.47,277.88 C156.96,276.68 157.01,275.60 157.82,274.50 C158.39,273.74 159.40,272.77 160.06,272.24 C159.86,273.19 159.27,274.22 158.45,274.67 C157.73,275.05 155.46,275.26 154.51,275.04 C153.40,274.75 152.09,273.59 151.48,272.39 C150.48,270.31 150.42,266.20 151.03,264.89 C152.56,261.79 154.94,260.67 155.67,260.56 C155.88,261.21 151.27,266.40 148.37,267.37 C147.42,267.66 146.08,266.59 145.89,265.49 C145.72,264.24 146.98,260.91 148.43,259.18 C150.30,257.01 154.98,254.66 156.30,254.85 C157.08,255.01 158.15,255.60 158.47,256.13 C159.13,257.34 157.71,261.29 155.93,263.06 C154.87,264.08 152.39,265.72 150.82,266.47 C149.11,267.26 145.44,266.43 144.68,265.28 C143.94,263.99 144.70,258.66 146.44,255.41 C147.93,252.70 152.28,248.72 154.40,247.90 C155.17,247.62 156.02,247.60 156.64,247.73 C157.28,248.25 157.83,249.41 157.81,250.85 C157.76,254.07 155.25,260.41 153.50,262.83 C151.24,265.70 141.57,267.11 140.33,267.13 C139.82,265.79 141.12,263.56 142.35,262.83 C143.70,262.08 147.64,261.46 149.08,261.90 C150.66,262.43 151.58,264.69 150.97,266.05 C150.23,267.49 147.02,269.24 143.45,269.22 C141.74,269.19 138.12,267.71 136.99,266.42 C136.03,265.26 134.83,260.77 135.19,258.21 C135.43,256.50 136.52,255.18 137.65,254.68 C138.57,254.55 139.52,256.48 138.83,257.38 C136.77,259.95 133.19,261.87 131.02,262.12 C129.48,262.26 127.72,262.05 126.27,261.52 C124.99,261.04 123.36,259.70 122.67,258.63 C122.21,257.87 123.13,255.66 124.37,254.96 C125.68,254.27 131.03,253.95 132.67,254.94 C133.23,255.30 132.84,257.10 131.90,257.74 C128.91,259.58 120.48,257.75 120.20,257.09 C119.94,256.14 120.88,253.47 121.85,252.62 C124.23,250.59 126.67,250.60 126.81,250.74 C126.88,251.41 124.95,253.83 122.96,254.23 C120.35,254.65 119.50,247.62 119.64,246.37 C120.39,245.49 123.11,245.13 124.90,245.10 C125.29,245.10 126.08,245.10 127.26,245.10" fill="none" stroke="rgb(126, 126, 126)" stroke-width="26.00" stroke-opacity="1.00" stroke-linejoin="round"/>
<path d="M124.82,247.34 C124.30,245.86 126.70,241.33 128.00,239.50 C130.42,236.17 135.80,232.02 137.42,231.08 C138.55,230.43 140.57,229.36 140.73,229.31" fill="none" stroke="rgb(126, 126, 126)" stroke-width="26.00" stroke-opacity="1.00" stroke-linejoin="round"/>
<path d="M302.21,211.50 C304.68,208.97 309.02,206.79 311.40,206.54 C312.62,206.41 318.36,206.30 320.78,205.79 C315.72,207.21 312.36,208.03 310.14,207.90 C309.10,207.83 308.05,207.55 307.84,207.38 C307.84,207.38 319.04,205.75 319.04,205.75 C318.76,206.57 313.53,208.34 310.42,208.46 C309.56,208.49 305.28,208.52 304.41,208.70 C305.84,207.58 314.16,206.27 315.57,206.09 C318.78,205.69 326.04,203.88 326.20,203.85 C327.48,203.64 329.89,204.57 330.78,204.93 C331.47,205.22 334.66,203.61 336.45,203.55 C338.69,203.50 343.75,205.35 344.72,205.53 C345.60,205.69 346.34,205.48 347.04,205.01 C347.04,205.01 337.86,201.80 337.86,201.80 C338.64,202.25 346.26,204.08 346.91,204.28 C348.21,204.68 348.99,205.29 349.17,205.79 C346.57,206.92 340.02,205.69 335.39,204.54 C335.39,204.54 358.13,206.44 358.13,206.44 C357.81,207.52 355.62,208.77 354.46,208.91 C353.29,209.03 352.17,208.32 352.11,207.83 C352.11,207.83 359.29,204.86 359.29,204.86 C359.29,204.86 357.85,206.15 357.85,206.15 C357.85,206.15 357.73,203.77 357.73,203.77 C357.73,203.77 356.60,203.40 356.60,203.40" fill="none" stroke="rgb(126, 126, 126)" stroke-width="26.00" stroke-opacity="1.00" stroke-linejoin="round"/>
<path d="M375.88,246.61" fill="none" stroke="rgb(126, 126, 126)" stroke-width="26.00" stroke-opacity="1.00" stroke-linejoin="round"/>
<path d="M361.23,214.60 C362.92,218.31 364.34,220.67 366.90,224.15 C369.51,227.75 370.83,230.86 371.32,235.71 C371.41,236.52 372.08,240.84 372.32,242.41 C372.32,242.41 368.65,235.40 368.65,235.40 C371.44,238.52 373.18,246.82 373.40,247.86 C373.40,247.86 373.16,242.38 373.16,242.38 C373.84,243.86 374.26,246.28 373.41,246.95 C372.40,247.72 370.85,247.49 370.57,247.32 C370.57,247.32 374.09,245.98 374.09,245.98 C374.25,246.94 373.99,247.87 373.12,248.63 C371.52,250.02 369.48,250.39 369.05,250.35 C369.05,250.35 375.09,247.27 375.09,247.27 C375.09,247.27 370.75,249.73 370.75,249.73 C370.17,248.32 374.88,247.13 375.38,247.17 C375.66,247.99 374.73,249.30 372.46,250.50 C370.42,251.59 367.98,252.88 367.28,253.22 C367.28,253.22 371.89,250.35 371.89,250.35 C371.89,250.35 352.64,256.95 352.64,256.95 C352.64,256.95 364.38,251.34 364.38,251.34 C364.38,251.34 342.62,264.63 342.62,264.63 C342.62,264.63 356.97,256.00 356.97,256.00 C356.97,256.00 340.65,266.19 340.65,266.19 C340.65,266.19 352.41,259.38 352.41,259.38 C348.72,262.82 329.71,270.81 329.36,270.56 C332.59,267.57 337.89,266.32 337.97,266.38 C337.97,266.38 331.80,269.97 331.80,269.97 C331.80,269.97 337.06,266.08 337.06,266.08 C336.64,266.60 330.82,268.62 327.38,269.12 C324.02,269.57 319.32,269.24 317.30,268.77 C318.80,266.48 324.71,266.90 325.24,267.37 C322.66,268.34 318.98,267.91 315.97,266.97 C310.80,265.35 306.71,265.59 306.73,265.63 C306.73,265.63 313.75,264.48 313.75,264.48 C313.75,264.48 299.35,267.39 299.35,267.39 C299.35,267.39 313.70,264.01 313.70,264.01 C313.70,264.01 295.92,268.55 295.92,268.55 C295.92,268.55 309.31,262.57 309.31,262.57 C309.67,263.01 308.78,263.99 306.76,265.11 C302.40,267.54 293.89,270.31 292.23,270.45 C292.11,268.67 307.31,262.79 306.66,263.88 C302.22,266.79 291.05,270.34 288.36,271.09 C288.36,271.09 297.40,266.16 297.40,266.16 C297.40,266.16 287.62,271.70 287.62,271.70 C286.75,270.87 301.10,265.17 305.34,264.41 C309.95,263.61 322.80,264.69 324.16,264.05 C325.55,263.34 326.00,262.55 326.11,262.09 C325.17,261.16 323.19,261.38 318.76,262.93 C317.56,263.31 309.48,264.75 307.71,265.47 C307.29,265.64 306.67,265.97 305.84,266.46 C308.07,264.91 313.24,261.34 315.39,260.52 C320.37,258.67 321.78,260.42 322.05,261.02 C321.87,262.26 319.19,264.71 316.60,265.49 C314.18,266.18 307.21,266.32 306.24,266.16 C305.63,266.03 304.57,265.36 304.18,264.81 C303.57,263.89 303.06,261.53 303.18,259.74 C303.47,256.10 306.83,249.79 308.61,247.72 C310.25,245.88 313.05,243.50 315.04,242.29 C316.96,241.16 321.82,240.47 323.38,241.13 C324.71,241.75 326.33,244.16 326.57,246.02 C326.78,247.97 325.88,252.34 324.82,254.77 C323.76,257.12 320.84,260.90 319.46,262.01 C317.74,263.36 314.69,264.90 312.89,265.26 C310.13,265.77 304.08,264.87 303.21,264.29 C302.52,263.73 301.95,262.68 302.00,261.66 C302.20,258.92 305.43,253.45 307.90,251.39 C309.13,250.41 311.64,248.96 312.72,248.69 C313.80,248.44 316.05,248.76 316.70,249.32 C317.40,249.98 318.95,252.85 319.28,254.15 C319.65,255.77 319.50,258.46 318.97,259.47 C318.35,260.56 309.71,267.32 309.32,267.35 C309.32,267.35 308.40,268.36 308.40,268.36 C308.39,268.24 309.21,264.11 308.82,263.34 C307.51,260.82 306.31,250.51 307.25,244.41 C308.13,239.03 311.81,228.81 313.95,225.61 C315.22,223.77 317.29,221.52 318.54,220.74 C319.59,220.12 321.56,219.65 322.49,219.72 C323.88,219.92 327.18,224.20 328.34,226.87 C330.00,230.77 331.28,237.95 330.98,240.66 C330.77,242.40 329.39,245.30 328.23,246.60 C327.13,247.77 324.32,249.65 323.05,250.07 C321.89,250.41 319.57,250.31 318.94,249.92 C317.78,249.07 317.65,242.91 318.61,240.10 C319.46,237.75 322.65,232.85 324.56,230.82 C326.48,228.82 330.84,225.56 333.14,224.44 C335.48,223.33 340.04,222.37 342.10,222.53 C344.29,222.75 348.23,224.78 349.86,226.57 C353.11,230.24 354.09,237.49 353.80,239.86 C353.52,241.81 350.58,246.16 348.53,247.85 C346.56,249.41 343.18,251.42 341.46,251.80 C339.61,252.18 336.92,251.14 335.99,249.62 C335.09,248.05 334.47,243.51 334.74,240.70 C335.05,237.83 336.94,232.43 338.44,230.17 C339.82,228.15 343.30,224.93 345.05,223.93 C346.81,222.96 350.13,222.28 351.59,222.61 C353.07,222.98 355.45,225.19 356.30,227.01 C357.18,228.99 357.84,233.81 357.50,236.22 C357.12,238.62 354.73,243.30 352.90,245.38 C351.14,247.34 346.94,250.75 345.49,251.24 C343.95,251.75 342.57,251.74 342.24,251.34 C340.61,249.32 342.34,241.85 342.55,241.05 C342.60,240.84 342.66,240.56 342.74,240.21" fill="none" stroke="rgb(126, 126, 126)" stroke-width="26.00" stroke-opacity="1.00" stroke-linejoin="round"/>
<path d="M364.65,215.49 C364.65,215.49 364.93,216.90 364.93,216.90 C364.93,216.90 366.34,219.44 366.34,219.44 C366.34,219.44 367.19,220.85 367.19,220.85 C367.19,220.85 368.04,222.26 368.04,222.26 C368.04,222.26 368.60,223.11 368.60,223.11 C368.60,223.11 369.17,223.95 369.17,223.95 C369.17,223.95 369.73,224.66 369.73,224.66" fill="none" stroke="rgb(126, 126, 126)" stroke-width="26.00" stroke-opacity="1.00" stroke-linejoin="round"/>
</g>
<g stroke-linecap="round" transform="translate(-98.00, -176.00)" id="Layer_64">
<path d="M254.09,189.14 C253.67,189.17 247.50,191.73 244.21,192.59 C243.90,192.67 243.62,192.74 243.37,192.79" fill="none" stroke="rgb(104, 104, 104)" stroke-width="16.00" stroke-opacity="1.00" stroke-linejoin="round"/>
<path d="M247.33,191.55 C246.99,192.16 244.93,192.69 244.46,192.93 C244.24,193.04 252.88,191.17 254.11,190.51 C256.35,189.28 261.21,187.99 261.58,188.00 C262.43,188.02 264.06,187.53 265.70,187.64 C265.88,187.65 266.06,187.68 266.24,187.71" fill="none" stroke="rgb(104, 104, 104)" stroke-width="16.00" stroke-opacity="1.00" stroke-linejoin="round"/>
<path d="M268.95,188.64 C268.95,188.64 268.12,188.76 268.12,188.76" fill="none" stroke="rgb(104, 104, 104)" stroke-width="16.00" stroke-opacity="1.00" stroke-linejoin="round"/>
<path d="M255.23,186.50 C254.44,186.22 250.81,186.30 249.86,186.16 C249.78,186.15 242.70,185.10 241.13,185.26 C240.86,185.28 240.40,185.36 239.75,185.48" fill="none" stroke="rgb(104, 104, 104)" stroke-width="16.00" stroke-opacity="1.00" stroke-linejoin="round"/>
<path d="M240.44,185.34 C239.52,185.52 235.30,186.79 232.91,187.34 C231.74,187.61 230.53,187.86 229.46,188.06" fill="none" stroke="rgb(104, 104, 104)" stroke-width="16.00" stroke-opacity="1.00" stroke-linejoin="round"/>
<path d="M236.72,184.73 C235.72,184.93 227.21,187.33 225.19,187.66 C224.85,187.71 224.52,187.76 224.19,187.82" fill="none" stroke="rgb(104, 104, 104)" stroke-width="16.00" stroke-opacity="1.00" stroke-linejoin="round"/>
<path d="M221.55,189.04" fill="none" stroke="rgb(104, 104, 104)" stroke-width="16.00" stroke-opacity="1.00" stroke-linejoin="round"/>
<path d="M229.20,190.66 C230.45,191.02 231.24,191.22 233.06,191.65 C234.68,192.02 237.42,192.46 238.85,192.54 C239.29,192.56 239.84,192.55 240.49,192.48" fill="none" stroke="rgb(104, 104, 104)" stroke-width="16.00" stroke-opacity="1.00" stroke-linejoin="round"/>
<path d="M231.94,190.66 C235.59,192.66 240.14,192.80 241.62,192.30 C242.09,192.13 242.67,191.85 242.94,191.69" fill="none" stroke="rgb(104, 104, 104)" stroke-width="16.00" stroke-opacity="1.00" stroke-linejoin="round"/>
</g>
<g stroke-linecap="round" transform="translate(-98.00, -176.00)" id="Layer_59">
<path d="M195.62,214.92 C194.86,217.07 194.38,221.59 194.43,224.94 C194.60,232.50 195.37,234.49 195.73,234.63" fill="none" stroke="rgb(72, 72, 72)" stroke-width="26.00" stroke-opacity="1.00" stroke-linejoin="round"/>
<path d="M195.23,227.35 C194.51,228.78 195.90,232.62 197.36,233.99 C199.89,236.34 205.47,243.51 206.19,245.25 C207.51,248.53 209.43,262.59 209.54,262.87" fill="none" stroke="rgb(72, 72, 72)" stroke-width="26.00" stroke-opacity="1.00" stroke-linejoin="round"/>
<path d="M205.41,230.22 C206.57,231.64 211.42,234.88 214.45,236.30 C217.14,237.53 221.79,239.18 223.73,239.33 C224.13,239.36 224.79,239.35 225.71,239.30" fill="none" stroke="rgb(72, 72, 72)" stroke-width="26.00" stroke-opacity="1.00" stroke-linejoin="round"/>
<path d="M223.08,236.09 C224.65,237.27 230.89,239.85 231.67,240.12 C236.43,241.73 245.42,241.30 246.39,241.31 C246.73,241.31 247.10,241.36 247.51,241.46" fill="none" stroke="rgb(72, 72, 72)" stroke-width="26.00" stroke-opacity="1.00" stroke-linejoin="round"/>
<path d="M234.23,236.76 C234.53,236.85 237.00,237.27 238.43,237.45 C244.17,238.13 261.59,236.57 264.27,236.70 C267.78,236.89 270.06,238.41 270.63,238.89" fill="none" stroke="rgb(72, 72, 72)" stroke-width="26.00" stroke-opacity="1.00" stroke-linejoin="round"/>
<path d="M265.08,233.21 C266.84,233.70 272.84,233.69 274.30,233.57 C276.55,233.35 281.44,232.20 285.28,230.94 C287.73,230.14 288.30,229.92 291.27,228.75 C291.57,228.63 291.79,228.55 291.93,228.51" fill="none" stroke="rgb(72, 72, 72)" stroke-width="26.00" stroke-opacity="1.00" stroke-linejoin="round"/>
<path d="M288.19,225.97 C288.69,224.94 289.81,222.65 290.43,221.39 C291.60,219.02 292.23,217.47 292.91,215.33" fill="none" stroke="rgb(72, 72, 72)" stroke-width="26.00" stroke-opacity="1.00" stroke-linejoin="round"/>
<path d="M293.54,216.90 C293.55,213.41 292.26,208.96 292.09,207.81 C291.99,207.09 291.78,205.19 291.43,204.20" fill="none" stroke="rgb(72, 72, 72)" stroke-width="26.00" stroke-opacity="1.00" stroke-linejoin="round"/>
<path d="M286.89,235.94 C286.89,235.94 256.90,275.49 256.90,275.49 C257.20,273.95 257.38,273.02 257.46,272.69 C257.54,272.36 257.61,272.18 257.68,272.15" fill="none" stroke="rgb(72, 72, 72)" stroke-width="26.00" stroke-opacity="1.00" stroke-linejoin="round"/>
<path d="M296.77,225.37 C296.51,226.12 296.47,229.36 295.51,233.09 C294.65,236.36 293.45,241.83 292.69,243.96 C290.85,249.00 289.17,252.49 286.97,255.70 C286.33,256.66 275.93,268.07 275.87,267.95 C276.39,267.31 280.36,260.84 282.42,258.42 C285.12,255.28 286.27,254.18 287.02,253.59 C287.02,253.59 274.49,272.99 274.49,272.99 C274.49,272.99 280.75,263.88 280.75,263.88 C280.75,263.88 268.32,278.57 268.32,278.57 C268.32,278.57 266.78,281.33 266.78,281.33 C266.78,281.33 266.07,282.12 266.07,282.12 C266.07,282.12 264.50,282.68 264.50,282.68 C263.97,282.41 260.49,281.71 260.24,281.13 C260.21,281.05 260.19,280.92 260.18,280.72 C260.18,280.72 262.93,281.54 262.93,281.54 C262.64,282.30 262.18,282.63 261.22,282.56 C256.35,282.13 255.28,278.73 255.29,278.35 C256.15,278.57 255.53,278.79 253.82,278.72 C253.37,278.70 247.37,278.07 244.69,278.08 C244.69,278.08 247.73,276.76 247.73,276.76 C247.73,276.76 240.40,280.72 240.40,280.72 C240.40,280.72 245.88,276.44 245.88,276.44 C244.84,280.25 236.64,283.33 235.80,283.57 C235.77,283.32 235.82,283.08 235.95,282.84 C236.08,282.61 236.47,282.04 237.11,281.15" fill="none" stroke="rgb(72, 72, 72)" stroke-width="26.00" stroke-opacity="1.00" stroke-linejoin="round"/>
<path d="M240.46,279.39 C240.46,279.39 233.07,287.38 233.07,287.38 C233.07,287.38 237.94,282.17 237.94,282.17 C236.22,285.56 231.86,287.86 231.26,288.11 C231.26,288.11 235.27,284.02 235.27,284.02 C230.65,288.82 227.65,287.39 227.17,286.82 C227.17,286.82 230.35,283.95 230.35,283.95 C230.35,283.95 230.59,284.95 230.59,284.95 C230.25,285.92 229.59,286.84 228.78,287.06 C227.17,287.50 224.37,286.97 223.60,286.17 C222.87,285.36 222.42,283.20 222.68,282.40 C222.99,281.49 224.53,280.18 225.67,280.04 C226.79,279.95 227.91,281.25 227.78,282.15 C227.63,282.92 225.91,283.90 224.89,283.65 C218.32,281.87 213.93,276.54 213.64,275.42 C213.02,272.24 218.44,273.23 219.01,273.70 C218.46,274.98 217.48,275.61 215.83,275.62 C212.37,275.57 210.66,270.04 210.51,268.70 C211.87,268.42 212.43,268.46 213.20,269.22 C216.68,272.70 218.51,276.53 218.65,279.02 C218.66,279.19 218.63,279.34 218.57,279.47 C218.39,279.67 217.39,279.91 216.77,279.67 C214.74,278.83 213.77,275.28 213.74,273.87 C213.74,273.87 214.61,272.90 214.61,272.90 C215.45,272.81 217.94,273.87 219.03,275.40 C219.74,276.44 217.65,280.11 216.62,280.31 C216.62,280.31 212.52,273.42 212.52,273.42 C213.51,273.39 214.64,274.05 216.39,275.88 C217.99,277.57 218.70,278.71 218.92,279.73 C218.55,280.41 216.25,280.68 213.50,279.28 C212.82,278.92 211.89,278.16 211.05,277.34 C209.70,275.90 208.85,269.60 209.95,266.55 C210.12,266.15 210.85,265.18 211.09,265.11 C212.45,264.82 214.44,267.20 214.53,268.28 C214.58,269.44 213.51,271.15 212.43,271.59 C211.30,272.01 208.95,271.72 208.14,270.77 C207.33,269.77 206.49,266.27 206.54,264.38 C206.62,262.69 207.77,259.63 208.57,258.90 C209.02,258.49 209.64,258.37 210.22,258.47 C211.21,259.29 211.97,261.89 211.61,263.39 C210.61,267.23 208.10,267.75 207.51,267.71 C206.81,266.89 206.55,265.60 207.03,263.97 C208.02,260.73 211.55,255.82 212.81,255.57 C213.93,255.46 217.63,260.57 218.20,261.23 C220.96,264.32 224.80,265.40 226.87,265.71 C226.57,265.16 226.54,262.65 227.21,260.86 C228.06,258.77 231.38,254.65 234.23,253.28 C235.76,252.57 239.29,251.77 241.17,251.71 C243.34,251.68 246.86,252.52 248.63,253.52 C250.25,254.48 252.72,256.99 253.46,258.32 C253.95,259.28 254.18,260.97 253.91,261.56 C253.54,262.25 251.51,264.24 250.28,265.00 C248.59,266.02 245.24,267.03 243.44,267.07 C241.95,267.07 239.26,266.33 238.31,265.65 C236.43,264.22 236.13,259.89 236.91,258.26 C237.58,256.97 240.62,253.44 242.24,252.12 C244.11,250.63 248.92,247.97 251.43,247.04 C253.91,246.15 259.85,245.35 261.88,245.55 C264.01,245.78 266.93,247.22 267.58,248.27 C267.85,248.75 268.06,249.79 268.05,250.61 C268.00,251.87 264.96,255.85 263.02,257.59 C260.92,259.40 256.33,261.86 253.58,261.75 C252.58,261.68 251.23,260.89 251.00,260.09 C250.36,257.51 251.85,253.50 252.91,252.31 C255.62,249.39 261.68,246.52 265.49,246.05 C265.91,246.01 266.54,245.97 267.39,245.94" fill="none" stroke="rgb(72, 72, 72)" stroke-width="26.00" stroke-opacity="1.00" stroke-linejoin="round"/>
<path d="M208.86,194.16 C203.90,198.50 201.48,204.67 201.06,206.39 C200.99,206.69 200.98,206.91 201.01,207.04" fill="none" stroke="rgb(72, 72, 72)" stroke-width="16.00" stroke-opacity="1.00" stroke-linejoin="round"/>
<path d="M204.36,199.35 C202.86,200.72 200.19,203.87 197.98,206.97 C196.23,209.46 193.28,215.02 192.44,218.04 C192.37,218.29 192.35,218.41 192.38,218.39" fill="none" stroke="rgb(72, 72, 72)" stroke-width="16.00" stroke-opacity="1.00" stroke-linejoin="round"/>
<path d="M202.12,215.25 C202.24,215.77 202.37,216.23 202.51,216.65 C203.83,220.65 207.57,225.38 209.66,227.32 C210.51,228.10 213.04,230.35 213.56,230.90 C213.90,231.26 214.66,232.12 215.85,233.47" fill="none" stroke="rgb(72, 72, 72)" stroke-width="16.00" stroke-opacity="1.00" stroke-linejoin="round"/>
<path d="M204.79,215.22 C204.79,217.45 206.83,223.27 208.83,226.34 C210.77,229.26 213.60,231.27 216.18,232.84" fill="none" stroke="rgb(72, 72, 72)" stroke-width="16.00" stroke-opacity="1.00" stroke-linejoin="round"/>
<path d="M280.14,227.05 C281.01,224.85 284.13,219.87 286.71,216.56 C287.24,215.88 287.77,215.19 288.30,214.51" fill="none" stroke="rgb(72, 72, 72)" stroke-width="16.00" stroke-opacity="1.00" stroke-linejoin="round"/>
<path d="M283.27,225.56 C284.57,222.46 286.02,218.50 286.56,216.43 C286.64,216.10 286.79,215.47 286.99,214.54" fill="none" stroke="rgb(72, 72, 72)" stroke-width="16.00" stroke-opacity="1.00" stroke-linejoin="round"/>
<path d="M289.32,204.58 C288.68,203.72 286.93,201.37 286.43,200.77 C285.71,199.89 283.76,197.49 282.92,196.08 C282.83,195.92 282.73,195.75 282.63,195.58" fill="none" stroke="rgb(72, 72, 72)" stroke-width="16.00" stroke-opacity="1.00" stroke-linejoin="round"/>
<path d="M284.83,197.67 C283.76,196.48 283.21,195.77 282.25,194.37 C281.80,193.70 281.49,193.29 281.33,193.13 C281.22,193.03 281.07,192.97 280.88,192.97" fill="none" stroke="rgb(72, 72, 72)" stroke-width="16.00" stroke-opacity="1.00" stroke-linejoin="round"/>
<path d="M285.53,194.98 C286.59,196.46 289.52,200.54 289.96,201.18 C290.24,201.59 290.59,202.13 291.01,202.78" fill="none" stroke="rgb(72, 72, 72)" stroke-width="16.00" stroke-opacity="1.00" stroke-linejoin="round"/>
<path d="M295.91,211.30 C299.83,219.23 301.12,223.76 301.18,224.89 C301.22,225.71 301.22,226.83 301.18,228.23 C301.18,228.29 301.13,228.45 301.12,228.39" fill="none" stroke="rgb(72, 72, 72)" stroke-width="16.00" stroke-opacity="1.00" stroke-linejoin="round"/>
</g>
<g stroke-linecap="round" transform="translate(-98.00, -176.00)" id="Layer_60">
<path d="M272.33,290.20 C273.69,290.25 289.94,272.71 294.48,264.94 C295.29,263.53 298.72,256.45 299.65,253.59 C301.20,248.72 301.63,240.35 301.66,239.57 C301.67,239.27 301.68,238.88 301.71,238.38" fill="none" stroke="rgb(0, 0, 0)" stroke-width="6.00" stroke-opacity="1.00" stroke-linejoin="round"/>
<path d="M299.34,248.91 C301.46,244.83 304.93,230.19 304.86,227.29 C304.70,222.26 302.06,211.49 299.48,205.19 C298.41,202.60 296.40,198.99 295.83,198.15 C295.64,197.87 295.23,197.31 294.61,196.46" fill="none" stroke="rgb(0, 0, 0)" stroke-width="6.00" stroke-opacity="1.00" stroke-linejoin="round"/>
<path d="M275.57,189.32 C273.52,190.53 271.75,191.38 269.99,191.94 C265.04,193.41 261.35,194.66 256.98,196.37 C253.59,197.67 246.05,198.71 246.07,198.85" fill="none" stroke="rgb(0, 0, 0)" stroke-width="6.00" stroke-opacity="1.00" stroke-linejoin="round"/>
<path d="M244.91,200.89 C243.61,200.03 226.57,195.10 223.14,193.89 C219.86,192.69 217.77,191.28 217.03,190.44 C216.81,190.20 216.58,189.81 216.34,189.29" fill="none" stroke="rgb(0, 0, 0)" stroke-width="6.00" stroke-opacity="1.00" stroke-linejoin="round"/>
<path d="M282.68,221.52 C282.68,221.52 283.17,222.15 283.17,222.15 C281.07,222.69 276.72,223.33 273.32,223.67 C265.50,224.47 256.86,226.09 246.92,226.62 C234.94,227.18 232.36,226.96 219.21,224.79 C216.42,224.31 213.66,223.70 213.00,223.61" fill="none" stroke="rgb(0, 0, 0)" stroke-width="6.00" stroke-opacity="1.00" stroke-linejoin="round"/>
<path d="M296.30,199.23 C296.30,199.23 280.60,186.98 280.60,186.98" fill="none" stroke="rgb(0, 0, 0)" stroke-width="6.00" stroke-opacity="1.00" stroke-linejoin="round"/>
<path d="M272.92,183.92 C252.63,178.53 246.72,177.88 243.17,177.82 C242.02,177.80 239.34,177.86 238.38,177.88" fill="none" stroke="rgb(0, 0, 0)" stroke-width="6.00" stroke-opacity="1.00" stroke-linejoin="round"/>
<path d="M242.42,179.52 C238.84,178.76 230.30,179.75 221.73,181.66" fill="none" stroke="rgb(0, 0, 0)" stroke-width="6.00" stroke-opacity="1.00" stroke-linejoin="round"/>
<path d="M210.51,187.13 C209.42,187.91 206.68,189.85 205.03,191.03 C203.22,192.33 200.81,194.23 199.60,195.31 C199.28,195.60 198.87,195.99 198.36,196.51" fill="none" stroke="rgb(0, 0, 0)" stroke-width="6.00" stroke-opacity="1.00" stroke-linejoin="round"/>
<path d="M200.90,193.37 C196.85,198.52 188.47,207.29 187.00,210.28 C186.24,211.87 182.33,220.79 181.60,223.27 C180.36,227.62 182.27,234.66 183.06,236.84 C183.36,237.68 184.42,240.29 184.87,241.38 C185.13,242.02 185.40,242.66 185.66,243.30" fill="none" stroke="rgb(0, 0, 0)" stroke-width="6.00" stroke-opacity="1.00" stroke-linejoin="round"/>
<path d="M184.10,237.25 C185.19,239.13 190.14,243.14 191.33,244.39 C192.55,245.68 195.67,250.77 195.93,251.19 C196.31,251.85 196.68,253.33 196.50,254.11 C196.32,254.79 194.99,257.75 194.46,258.89 C194.16,259.52 193.87,260.14 193.58,260.77" fill="none" stroke="rgb(0, 0, 0)" stroke-width="6.00" stroke-opacity="1.00" stroke-linejoin="round"/>
<path d="M195.41,257.65 C195.38,258.90 194.28,264.22 194.59,267.51 C194.85,270.04 196.79,274.29 198.04,277.50 C199.58,281.41 201.69,285.01 203.88,287.23 C205.02,288.36 214.61,295.86 215.57,296.71 C215.57,296.71 216.15,297.20 216.15,297.20" fill="none" stroke="rgb(0, 0, 0)" stroke-width="6.00" stroke-opacity="1.00" stroke-linejoin="round"/>
<path d="M214.93,295.52 C216.13,296.04 218.58,297.66 221.52,298.48 C221.56,298.49 225.37,299.69 230.18,300.01 C231.34,300.06 233.59,300.29 234.21,300.12 C236.25,299.51 245.60,293.56 248.59,291.67 C249.36,291.20 250.07,291.07 251.03,291.39 C254.99,292.81 257.88,293.48 262.17,294.13 C264.80,294.52 267.42,294.37 269.38,293.68 C271.39,292.94 275.86,289.95 277.37,288.63 C277.84,288.22 278.74,287.37 280.06,286.10" fill="none" stroke="rgb(0, 0, 0)" stroke-width="6.00" stroke-opacity="1.00" stroke-linejoin="round"/>
<path d="M257.54,202.54 C258.44,203.02 259.07,203.63 259.06,204.28 C259.00,206.07 256.95,206.77 256.46,206.67 C254.38,205.21 256.02,203.26 256.51,202.95 C257.01,202.90 257.87,203.21 258.05,203.76 C258.12,203.98 258.13,204.50 258.09,205.31" fill="none" stroke="rgb(0, 0, 0)" stroke-width="6.00" stroke-opacity="1.00" stroke-linejoin="round"/>
<path d="M276.79,211.50 C275.35,211.64 273.11,211.80 271.96,211.77 C269.85,211.72 263.52,210.52 258.86,209.52 C257.52,209.23 254.54,208.59 252.90,208.23 C252.59,208.16 252.43,208.14 252.42,208.15" fill="none" stroke="rgb(0, 0, 0)" stroke-width="6.00" stroke-opacity="1.00" stroke-linejoin="round"/>
<path d="M232.70,204.07 C232.70,204.07 233.55,205.21 233.55,205.21 C233.55,205.21 231.15,207.43 231.15,207.43 C229.69,207.06 228.58,204.41 229.29,203.27 C229.64,202.75 230.75,202.35 231.47,202.44 C232.15,202.56 233.27,203.64 233.23,204.33 C233.21,204.60 232.98,205.14 232.54,205.94" fill="none" stroke="rgb(0, 0, 0)" stroke-width="6.00" stroke-opacity="1.00" stroke-linejoin="round"/>
<path d="M230.68,205.20 C230.68,205.20 231.88,204.99 231.88,204.99 C231.88,204.99 230.45,205.95 230.45,205.95 C230.45,205.95 231.53,204.97 231.53,204.97 C231.53,204.97 231.75,205.12 231.75,205.12" fill="none" stroke="rgb(0, 0, 0)" stroke-width="6.00" stroke-opacity="1.00" stroke-linejoin="round"/>
<path d="M236.91,209.75 C235.45,209.46 234.20,209.50 232.83,210.02 C229.70,211.33 222.98,214.02 220.90,214.55 C218.91,215.05 216.56,215.25 213.97,215.22 C213.97,215.22 213.92,215.28 213.92,215.28" fill="none" stroke="rgb(0, 0, 0)" stroke-width="6.00" stroke-opacity="1.00" stroke-linejoin="round"/>
<path d="M279.36,216.77 C282.27,212.71 284.80,209.34 284.91,208.12 C284.99,206.71 281.20,201.15 280.56,200.27 C280.31,199.92 279.91,199.41 279.37,198.74" fill="none" stroke="rgb(0, 0, 0)" stroke-width="6.00" stroke-opacity="1.00" stroke-linejoin="round"/>
<path d="M274.47,222.79 C276.64,220.98 279.83,216.52 280.23,216.05 C280.54,215.68 280.95,215.29 281.45,214.86 C281.47,214.84 281.54,214.82 281.52,214.84" fill="none" stroke="rgb(0, 0, 0)" stroke-width="6.00" stroke-opacity="1.00" stroke-linejoin="round"/>
<path d="M283.56,204.85 C282.17,201.19 278.95,196.08 277.47,194.13 C276.14,192.40 273.76,190.86 273.17,190.64 C273.00,190.59 272.82,190.52 272.60,190.44" fill="none" stroke="rgb(0, 0, 0)" stroke-width="6.00" stroke-opacity="1.00" stroke-linejoin="round"/>
<path d="M217.82,224.85 C216.52,224.30 215.48,223.94 213.68,223.46 C211.92,223.00 210.46,222.71 209.31,222.60 C209.05,222.58 208.60,222.55 207.97,222.52" fill="none" stroke="rgb(0, 0, 0)" stroke-width="6.00" stroke-opacity="1.00" stroke-linejoin="round"/>
<path d="M215.33,222.76 C214.73,222.04 213.09,220.06 212.06,218.75 C210.15,216.26 206.54,211.55 205.29,208.80 C205.26,208.72 205.19,208.48 205.25,208.54" fill="none" stroke="rgb(0, 0, 0)" stroke-width="6.00" stroke-opacity="1.00" stroke-linejoin="round"/>
<path d="M204.73,209.94 C205.98,207.55 207.46,204.74 210.72,199.43 C211.80,197.66 213.29,195.10 214.04,193.73 C214.54,192.81 215.06,191.72 215.27,191.22 C215.29,191.15 215.30,191.13 215.30,191.13" fill="none" stroke="rgb(0, 0, 0)" stroke-width="6.00" stroke-opacity="1.00" stroke-linejoin="round"/>
<path d="M211.61,224.64 C209.64,224.38 206.71,223.92 204.57,222.85 C204.29,222.70 204.11,222.62 204.02,222.59" fill="none" stroke="rgb(0, 0, 0)" stroke-width="6.00" stroke-opacity="1.00" stroke-linejoin="round"/>
<path d="M278.29,223.45 C279.97,223.30 284.88,221.75 286.17,221.87 C286.37,221.90 286.62,221.97 286.94,222.10 C286.94,222.10 286.93,222.33 286.93,222.33" fill="none" stroke="rgb(0, 0, 0)" stroke-width="6.00" stroke-opacity="1.00" stroke-linejoin="round"/>
<path d="M218.60,194.16 C216.98,192.20 213.62,190.08 212.21,189.61 C211.73,189.45 210.83,189.23 209.53,188.95 C209.49,188.94 209.35,188.92 209.40,188.92" fill="none" stroke="rgb(0, 0, 0)" stroke-width="6.00" stroke-opacity="1.00" stroke-linejoin="round"/>
<path d="M272.50,191.50 C274.50,190.84 276.64,190.07 276.72,190.04 C277.10,189.94 278.06,189.72 279.61,189.37" fill="none" stroke="rgb(0, 0, 0)" stroke-width="6.00" stroke-opacity="1.00" stroke-linejoin="round"/>
<path d="M300.10,281.04 C302.11,280.29 303.52,279.85 304.94,279.56 C305.45,279.46 305.97,279.36 306.48,279.26" fill="none" stroke="rgb(0, 0, 0)" stroke-width="6.00" stroke-opacity="1.00" stroke-linejoin="round"/>
<path d="M305.03,280.65 C307.77,279.93 311.89,278.23 313.47,278.10 C315.17,278.00 320.47,280.90 321.88,281.25 C323.66,281.68 330.66,282.09 332.65,281.77 C334.11,281.51 352.06,273.24 353.74,272.60 C354.24,272.40 355.41,271.98 357.25,271.31" fill="none" stroke="rgb(0, 0, 0)" stroke-width="6.00" stroke-opacity="1.00" stroke-linejoin="round"/>
<path d="M353.78,272.98 C356.13,270.36 357.57,269.29 361.40,267.65 C362.26,267.30 369.84,264.42 373.21,263.33 C376.74,262.23 381.12,259.49 383.22,257.68 C384.96,256.14 389.00,251.10 389.27,249.06 C389.38,248.10 388.74,244.75 388.73,244.47 C388.62,241.60 391.41,235.99 392.73,233.32 C393.40,231.93 393.83,230.91 394.01,230.28 C394.17,229.68 394.42,228.42 394.75,226.49" fill="none" stroke="rgb(0, 0, 0)" stroke-width="6.00" stroke-opacity="1.00" stroke-linejoin="round"/>
<path d="M392.53,231.37 C393.69,229.45 394.35,225.96 393.69,223.95 C393.50,223.39 390.29,216.24 389.58,215.20 C388.78,214.05 384.86,210.47 382.95,208.76 C379.29,205.57 377.16,204.03 373.53,202.19 C373.05,201.95 372.15,201.48 370.82,200.76" fill="none" stroke="rgb(0, 0, 0)" stroke-width="6.00" stroke-opacity="1.00" stroke-linejoin="round"/>
<path d="M376.44,202.39 C376.17,200.72 373.34,197.31 370.39,195.82 C368.89,195.07 357.58,191.57 355.88,191.41 C355.24,191.35 351.41,191.51 349.97,191.56 C349.64,191.58 349.25,191.60 348.78,191.63" fill="none" stroke="rgb(0, 0, 0)" stroke-width="6.00" stroke-opacity="1.00" stroke-linejoin="round"/>
<path d="M353.89,192.62 C351.68,190.95 349.79,189.78 348.49,189.49 C346.51,189.08 338.52,189.85 335.28,189.46 C332.66,189.15 328.01,190.89 325.97,191.41 C324.89,191.68 323.94,191.89 323.10,192.05 C322.56,192.15 321.37,192.35 319.55,192.64" fill="none" stroke="rgb(0, 0, 0)" stroke-width="6.00" stroke-opacity="1.00" stroke-linejoin="round"/>
<path d="M321.94,193.12 C319.64,192.15 318.28,191.77 317.11,191.95 C314.73,192.31 308.55,194.04 305.55,194.89 C304.15,195.32 301.94,195.99 301.13,196.23 C300.80,196.34 300.48,196.44 300.15,196.55" fill="none" stroke="rgb(0, 0, 0)" stroke-width="6.00" stroke-opacity="1.00" stroke-linejoin="round"/>
<path d="M301.75,195.64 C301.14,196.24 298.28,197.06 297.17,197.36 C296.78,197.47 296.49,197.60 296.30,197.74 C296.22,197.80 296.15,197.86 296.08,197.92" fill="none" stroke="rgb(0, 0, 0)" stroke-width="6.00" stroke-opacity="1.00" stroke-linejoin="round"/>
<path d="M299.15,281.15 C297.17,281.01 290.18,282.44 288.51,282.63 C287.36,282.76 284.63,282.73 284.01,282.77 C283.73,282.79 283.24,282.85 282.52,282.97" fill="none" stroke="rgb(0, 0, 0)" stroke-width="6.00" stroke-opacity="1.00" stroke-linejoin="round"/>
<path d="M202.61,288.71 C199.01,288.86 194.32,288.53 190.65,288.37 C187.95,288.21 182.03,286.21 180.43,285.84 C179.92,285.72 173.06,284.57 169.94,283.61" fill="none" stroke="rgb(0, 0, 0)" stroke-width="6.00" stroke-opacity="1.00" stroke-linejoin="round"/>
<path d="M170.33,285.46 C169.52,285.33 160.68,285.92 158.08,286.13 C155.10,286.35 147.82,285.02 146.46,284.64 C141.87,283.33 135.79,278.37 133.59,276.11 C133.13,275.65 132.68,275.18 132.22,274.71" fill="none" stroke="rgb(0, 0, 0)" stroke-width="6.00" stroke-opacity="1.00" stroke-linejoin="round"/>
<path d="M169.58,285.96 C168.80,285.90 163.13,286.73 159.60,286.55 C154.88,286.28 150.11,285.45 148.10,284.51 C144.59,282.81 141.30,280.16 140.43,279.53 C140.09,279.29 139.48,278.87 138.58,278.27" fill="none" stroke="rgb(0, 0, 0)" stroke-width="6.00" stroke-opacity="1.00" stroke-linejoin="round"/>
<path d="M174.02,284.77 C178.34,285.54 181.00,286.75 183.55,287.92 C187.66,289.61 196.47,289.80 200.20,289.80 C200.46,289.81 200.83,289.87 201.31,289.96" fill="none" stroke="rgb(0, 0, 0)" stroke-width="6.00" stroke-opacity="1.00" stroke-linejoin="round"/>
<path d="M133.70,277.88 C133.70,277.88 131.14,273.00 131.14,273.00 C131.14,273.00 130.87,272.69 130.87,272.69" fill="none" stroke="rgb(0, 0, 0)" stroke-width="6.00" stroke-opacity="1.00" stroke-linejoin="round"/>
<path d="M131.99,275.31 C130.54,273.64 125.10,271.70 122.32,270.76 C118.25,269.29 112.29,266.53 110.07,264.52 C109.33,263.84 103.94,257.91 103.08,256.72 C99.89,252.17 100.66,247.58 101.33,244.62" fill="none" stroke="rgb(0, 0, 0)" stroke-width="6.00" stroke-opacity="1.00" stroke-linejoin="round"/>
<path d="M101.25,248.48 C101.70,241.87 105.23,238.13 105.39,237.75 C105.43,237.64 105.46,237.47 105.47,237.22" fill="none" stroke="rgb(0, 0, 0)" stroke-width="6.00" stroke-opacity="1.00" stroke-linejoin="round"/>
<path d="M105.31,236.23 C104.87,234.51 101.43,227.97 101.03,226.27 C100.53,224.06 101.63,219.24 103.11,216.59 C104.61,213.98 108.46,210.13 111.04,208.49 C114.18,206.53 120.48,203.31 123.64,201.71 C125.40,200.84 128.04,199.59 129.49,198.96 C129.91,198.78 130.41,198.58 131.00,198.35" fill="none" stroke="rgb(0, 0, 0)" stroke-width="6.00" stroke-opacity="1.00" stroke-linejoin="round"/>
<path d="M130.39,200.10 C132.39,198.72 138.28,195.21 139.60,194.61 C143.05,193.09 150.69,192.81 161.59,193.09 C168.20,193.31 174.18,194.61 175.14,194.89 C175.69,195.05 176.90,195.42 178.76,196.01" fill="none" stroke="rgb(0, 0, 0)" stroke-width="6.00" stroke-opacity="1.00" stroke-linejoin="round"/>
<path d="M172.79,194.25 C175.24,194.21 182.19,195.65 182.87,195.74 C183.77,195.86 193.04,196.66 194.93,197.72 C195.19,197.88 195.37,198.05 195.48,198.23 C195.49,198.25 195.62,198.52 195.87,199.07" fill="none" stroke="rgb(0, 0, 0)" stroke-width="6.00" stroke-opacity="1.00" stroke-linejoin="round"/>
<path d="M216.03,186.46 C215.90,187.45 215.63,189.52 215.49,190.60 C215.37,191.58 215.39,191.90 215.54,192.05" fill="none" stroke="rgb(0, 0, 0)" stroke-width="6.00" stroke-opacity="1.00" stroke-linejoin="round"/>
<path d="M271.15,184.26 C272.48,185.94 274.38,191.28 274.57,191.82 C274.63,192.00 274.69,192.15 274.75,192.27" fill="none" stroke="rgb(0, 0, 0)" stroke-width="6.00" stroke-opacity="1.00" stroke-linejoin="round"/>
<path d="M222.90,181.01 C221.54,182.29 218.45,187.01 216.85,189.71 C216.67,190.01 216.47,190.39 216.24,190.83" fill="none" stroke="rgb(0, 0, 0)" stroke-width="6.00" stroke-opacity="1.00" stroke-linejoin="round"/>
<path d="M368.26,195.70 C368.56,198.29 368.80,199.78 369.52,203.08 C370.17,205.94 370.84,207.81 371.64,208.54 C372.20,209.04 375.53,210.97 376.10,211.45 C377.23,212.41 378.47,214.65 378.78,216.17 C378.95,217.06 379.52,221.26 379.88,222.04 C380.05,222.39 380.41,222.72 380.98,223.03" fill="none" stroke="rgb(0, 0, 0)" stroke-width="7.00" stroke-opacity="0.90" stroke-linejoin="round"/>
<path d="M379.31,214.99 C379.76,216.77 380.68,220.43 380.77,220.75 C381.57,223.46 384.58,231.23 386.01,234.89 C386.88,237.17 387.34,244.29 387.81,245.93 C387.95,246.43 388.26,247.09 388.72,247.92" fill="none" stroke="rgb(0, 0, 0)" stroke-width="7.00" stroke-opacity="0.90" stroke-linejoin="round"/>
<path d="M128.54,202.55 C125.29,204.08 122.24,205.67 120.10,207.67 C117.41,210.25 114.87,215.05 114.77,217.41 C114.75,218.01 114.79,223.18 114.56,224.24 C114.37,225.10 113.22,228.21 113.24,228.16 C113.24,228.16 113.45,227.67 113.45,227.67" fill="none" stroke="rgb(0, 0, 0)" stroke-width="7.00" stroke-opacity="0.90" stroke-linejoin="round"/>
<path d="M114.84,222.16 C114.14,224.71 113.59,227.38 112.00,231.82 C111.53,233.16 110.95,238.60 109.91,242.28 C109.07,245.12 107.73,251.07 107.72,252.81 C107.71,253.39 107.81,254.54 108.00,256.26" fill="none" stroke="rgb(0, 0, 0)" stroke-width="7.00" stroke-opacity="0.90" stroke-linejoin="round"/>
<path d="M108.34,253.05 C107.49,255.65 108.26,258.80 109.62,262.68 C111.18,266.92 111.94,268.28 112.78,269.39 C112.78,269.39 113.47,269.31 113.47,269.31" fill="none" stroke="rgb(0, 0, 0)" stroke-width="7.00" stroke-opacity="0.90" stroke-linejoin="round"/>
</g>
</svg>
