<?xml version="1.0" encoding="UTF-8" standalone="no"?>
<!DOCTYPE svg PUBLIC "-//W3C//DTD SVG 1.1//EN" "http://www.w3.org/Graphics/SVG/1.1/DTD/svg11.dtd">
<svg width="78.00" height="31.20" viewBox="0.00 0.00 325.00 130.00" xmlns="http://www.w3.org/2000/svg" xmlns:xlink="http://www.w3.org/1999/xlink">
<g stroke-linecap="round" transform="translate(-86.00, -179.00)" id="Layer_2_2_Copy">
<path d="M112.47,231.34 C112.47,231.34 112.17,233.48 112.17,233.48" fill="none" stroke="rgb(255, 255, 255)" stroke-width="30.00" stroke-opacity="1.00" stroke-linejoin="round"/>
<path d="M109.63,234.31 C109.63,234.31 106.74,252.85 106.74,252.85" fill="none" stroke="rgb(255, 255, 255)" stroke-width="30.00" stroke-opacity="1.00" stroke-linejoin="round"/>
<path d="M112.34,231.46 C113.76,229.29 124.11,222.39 127.80,220.82 C131.91,219.11 140.23,217.88 144.38,218.17 C146.60,218.33 158.43,219.84 159.18,219.95 C159.48,220.00 159.83,220.06 160.24,220.14" fill="none" stroke="rgb(255, 255, 255)" stroke-width="30.00" stroke-opacity="1.00" stroke-linejoin="round"/>
<path d="M123.95,224.56 C133.28,218.37 140.26,214.72 146.51,213.26 C152.31,211.96 165.75,211.53 172.79,211.35 C182.33,211.23 190.83,210.32 193.94,209.20 C194.44,209.02 195.68,208.54 197.65,207.76" fill="none" stroke="rgb(255, 255, 255)" stroke-width="30.00" stroke-opacity="1.00" stroke-linejoin="round"/>
<path d="M189.63,210.68 C192.46,211.90 214.36,218.49 216.11,218.92 C217.14,219.17 220.27,219.86 220.88,219.97 C221.15,220.02 221.55,220.08 222.09,220.15" fill="none" stroke="rgb(255, 255, 255)" stroke-width="30.00" stroke-opacity="1.00" stroke-linejoin="round"/>
<path d="M204.56,211.01 C208.39,206.60 214.39,201.95 218.10,200.56 C222.00,199.12 232.58,197.75 238.05,197.56 C239.21,197.53 240.37,197.50 241.53,197.47" fill="none" stroke="rgb(255, 255, 255)" stroke-width="30.00" stroke-opacity="1.00" stroke-linejoin="round"/>
<path d="M228.80,196.72 C229.89,195.34 234.64,193.18 238.03,192.63 C244.00,191.71 251.46,192.58 253.02,192.86 C253.49,192.95 254.22,193.11 255.22,193.34" fill="none" stroke="rgb(255, 255, 255)" stroke-width="30.00" stroke-opacity="1.00" stroke-linejoin="round"/>
<path d="M244.03,193.10 C246.19,192.51 251.37,193.37 254.48,195.23 C257.63,197.16 267.53,206.14 274.23,212.82 C278.86,217.62 285.11,225.12 285.92,225.95 C286.16,226.20 286.37,226.36 286.53,226.41" fill="none" stroke="rgb(255, 255, 255)" stroke-width="30.00" stroke-opacity="1.00" stroke-linejoin="round"/>
<path d="M270.59,197.46 C271.65,197.86 274.58,198.97 275.80,199.47 C282.04,202.01 288.50,205.85 297.90,212.03 C302.17,214.82 307.37,217.41 308.81,217.44 C309.16,217.44 309.93,217.36 311.11,217.18" fill="none" stroke="rgb(255, 255, 255)" stroke-width="30.00" stroke-opacity="1.00" stroke-linejoin="round"/>
<path d="M301.70,204.27 C302.31,204.36 308.90,202.47 311.14,202.14 C313.98,201.73 322.30,201.71 325.00,202.02 C327.42,202.31 333.07,203.59 334.31,204.07 C334.56,204.17 334.97,204.35 335.56,204.63" fill="none" stroke="rgb(255, 255, 255)" stroke-width="30.00" stroke-opacity="1.00" stroke-linejoin="round"/>
<path d="M325.24,202.18 C326.90,200.98 330.63,200.77 333.68,201.42 C337.23,202.21 346.89,204.56 347.56,204.76 C349.72,205.45 351.79,206.64 353.28,208.04 C355.29,209.98 355.86,210.44 356.97,211.06" fill="none" stroke="rgb(255, 255, 255)" stroke-width="30.00" stroke-opacity="1.00" stroke-linejoin="round"/>
<path d="M356.99,204.11 C359.96,207.06 362.27,208.82 365.80,210.64 C369.54,212.58 374.27,216.30 377.10,218.65 C377.48,218.93 378.07,219.27 378.85,219.67" fill="none" stroke="rgb(255, 255, 255)" stroke-width="30.00" stroke-opacity="1.00" stroke-linejoin="round"/>
<path d="M369.00,255.76 C369.00,255.76 364.63,256.39 364.63,256.39 C364.78,255.51 368.15,252.84 370.88,251.27 C373.75,249.64 377.02,249.02 377.17,249.31 C376.44,250.74 372.74,252.93 369.43,254.37 C368.40,254.81 357.67,258.92 356.27,259.67 C356.27,259.67 371.48,252.18 371.48,252.18 C369.62,253.78 365.08,255.30 360.85,256.59 C356.15,258.03 346.20,261.97 345.53,261.75 C345.73,260.14 350.90,256.10 354.17,254.76 C354.17,254.76 336.93,268.77 336.93,268.77 C339.80,264.48 345.37,262.71 345.48,262.82 C345.48,262.82 337.66,273.69 337.66,273.69 C337.66,273.69 346.59,265.30 346.59,265.30 C346.78,265.81 344.54,270.11 342.67,272.76 C341.65,274.18 338.74,277.12 338.78,277.09 C338.78,277.09 343.11,272.00 343.11,272.00 C343.11,272.00 334.26,283.69 334.26,283.69 C334.26,283.69 338.63,278.29 338.63,278.29 C338.68,279.34 333.91,283.77 331.07,284.80 C328.57,285.67 325.44,285.19 324.97,284.46 C324.46,283.57 325.48,280.67 326.80,279.38 C328.11,278.14 331.28,276.93 334.02,277.04 C334.21,278.13 333.90,278.80 332.60,279.52 C329.36,281.29 324.29,283.44 320.84,284.31 C312.84,286.27 311.53,285.21 311.10,284.73 C311.13,283.60 313.24,281.42 315.80,280.33 C318.35,279.26 323.16,278.45 324.46,278.66 C325.73,278.90 326.24,279.58 326.39,280.07 C326.16,281.11 324.10,283.14 322.28,283.98 C320.14,284.92 315.28,285.64 313.97,285.26 C312.47,284.80 311.46,283.99 311.09,283.11 C311.34,282.05 313.64,280.28 316.27,279.61 C319.05,278.93 323.14,279.02 323.41,279.68 C323.05,280.91 319.57,282.85 316.88,283.78 C313.63,284.89 309.83,285.16 308.59,284.48 C307.24,283.68 305.52,280.77 305.63,279.29 C305.79,277.77 308.15,275.37 310.16,274.74 C314.63,273.40 316.50,275.21 316.80,275.81 C316.71,276.99 314.71,278.79 312.13,279.58 C310.88,279.95 307.87,280.45 306.84,280.45 C304.83,280.38 301.60,277.16 300.22,274.79 C299.73,273.94 298.76,271.57 298.54,270.85 C298.48,270.66 298.42,270.39 298.36,270.05" fill="none" stroke="rgb(255, 255, 255)" stroke-width="30.00" stroke-opacity="1.00" stroke-linejoin="round"/>
<path d="M299.93,249.31 C299.59,247.48 302.02,241.79 303.77,239.68 C304.90,238.37 307.53,236.34 309.10,235.58 C310.72,234.83 314.05,234.05 315.82,234.01 C317.69,234.02 321.32,234.87 322.89,235.73 C324.46,236.64 326.75,239.28 327.26,240.78 C328.10,243.50 325.81,248.66 324.15,250.72 C322.67,252.49 318.94,255.67 316.83,256.93 C314.76,258.15 310.02,259.90 308.01,260.13 C305.72,260.38 302.06,259.85 300.54,258.89 C299.04,257.91 297.11,254.55 296.76,252.29 C296.45,249.96 297.19,244.55 298.22,241.73 C299.28,238.95 302.62,233.43 304.71,230.97 C306.87,228.47 311.82,224.50 314.49,223.20 C317.24,221.90 323.00,220.85 325.92,221.09 C328.73,221.35 333.89,223.18 335.94,224.59 C337.91,225.99 340.34,229.38 340.73,231.25 C341.09,233.17 340.19,237.14 339.04,239.53 C338.03,241.58 334.36,246.41 332.31,248.47 C330.00,250.76 325.53,253.78 323.44,254.65 C321.25,255.52 317.24,255.48 315.67,254.53 C314.10,253.51 312.00,249.57 311.59,246.90 C311.20,244.16 311.88,238.14 312.92,235.21 C313.95,232.39 317.19,227.31 319.16,225.30 C321.14,223.34 325.58,220.67 328.00,220.00 C330.44,219.36 335.54,219.47 337.96,220.24 C340.37,221.05 344.59,223.95 346.34,225.92 C347.94,227.76 350.17,231.79 350.69,233.68 C351.15,235.46 350.99,238.74 350.43,240.15 C349.83,241.55 347.81,243.73 346.48,244.39 C345.09,245.05 342.38,245.04 341.25,244.26 C340.09,243.41 338.47,239.91 338.17,237.63 C337.89,235.18 338.66,230.27 339.77,228.14 C340.90,226.04 344.36,222.96 346.60,221.99 C348.76,221.09 353.80,220.37 356.49,220.56 C359.13,220.76 364.04,222.12 366.07,223.20 C368.30,224.45 371.73,228.20 372.07,230.70 C372.31,232.75 370.88,235.61 369.89,235.88 C368.80,236.09 365.17,233.14 362.21,230.02 C359.62,227.26 358.71,225.51 358.24,224.13 C359.36,224.08 363.29,228.43 365.05,231.46 C365.91,232.98 366.78,235.41 366.76,236.28 C366.70,237.08 365.63,238.59 364.61,239.31 C362.23,240.93 356.30,242.23 353.76,242.29 C349.54,242.36 338.13,240.26 333.44,238.93 C331.33,238.31 326.39,235.38 323.83,233.81 C321.80,232.60 316.53,230.33 312.67,229.78 C311.83,229.66 306.63,229.46 304.19,229.76 C303.22,229.88 292.30,231.55 290.43,231.73 C283.69,232.37 275.12,230.48 273.26,229.37 C270.00,227.34 268.92,224.45 268.88,223.47 C268.88,223.47 269.83,223.16 269.83,223.16 C268.69,224.12 267.16,224.71 265.59,224.61 C264.02,224.50 258.20,222.52 254.64,220.33 C253.06,219.33 248.16,215.17 246.07,212.75 C244.02,210.33 242.86,206.39 243.63,205.06 C244.11,204.35 245.82,204.02 247.02,204.49 C248.19,204.98 250.79,207.04 251.80,208.24 C252.72,209.39 253.61,211.56 253.60,212.70 C253.54,213.86 252.52,216.35 251.61,217.52 C249.61,219.96 243.72,223.13 240.64,224.19 C237.62,225.16 231.31,226.24 228.80,225.78 C227.72,225.55 226.36,224.68 225.94,223.97 C225.55,223.23 225.45,221.35 225.82,220.40 C226.31,219.28 228.42,217.08 229.96,216.15 C233.11,214.31 238.91,214.24 241.34,214.97 C243.59,215.72 249.01,219.05 250.28,221.36 C250.93,222.62 250.89,225.12 250.22,226.38 C248.95,228.58 243.71,231.90 241.19,233.00 C237.24,234.69 226.92,237.28 223.67,237.37 C221.46,237.39 218.68,236.87 217.63,236.07 C216.62,235.22 215.59,232.44 215.69,230.77 C215.93,227.83 218.37,223.23 219.48,221.90 C220.85,220.31 223.93,218.08 226.06,217.18 C228.53,216.21 235.09,216.38 237.41,217.88 C238.31,218.53 239.04,220.29 238.81,221.48 C238.27,223.91 235.14,228.13 233.58,229.56 C230.03,232.74 220.10,237.27 214.70,238.58 C213.33,238.88 210.19,239.24 208.90,239.13 C207.38,238.98 205.37,237.52 204.89,236.32 C204.50,235.20 204.55,232.29 204.96,231.02 C205.10,230.59 205.46,229.73 206.03,228.43" fill="none" stroke="rgb(255, 255, 255)" stroke-width="30.00" stroke-opacity="1.00" stroke-linejoin="round"/>
<path d="M212.68,251.75 C211.03,252.38 209.11,252.75 207.99,252.44 C206.57,252.03 202.20,247.52 200.79,245.45 C199.14,242.97 197.73,238.82 198.11,236.40 C198.53,234.07 201.33,229.30 202.88,228.40 C203.73,227.95 205.56,227.86 206.38,228.32 C207.36,228.94 208.72,231.41 208.93,233.09 C209.27,236.19 206.77,241.36 205.14,243.52 C203.83,245.20 200.64,248.58 198.98,250.03 C196.85,251.83 191.66,254.98 188.83,255.47 C187.52,255.66 185.41,255.35 184.70,254.85 C183.28,253.74 181.53,247.86 181.84,245.10 C182.14,242.74 184.64,237.78 186.35,236.07 C190.96,231.58 193.82,231.53 194.27,231.75 C194.36,233.07 190.89,237.32 188.48,239.20 C184.68,242.11 177.36,244.95 174.39,245.05 C172.61,245.07 169.55,243.89 168.42,242.79 C167.37,241.70 166.10,238.69 165.94,237.01 C165.83,235.40 166.48,232.12 167.18,230.71 C167.92,229.32 170.08,227.11 171.43,226.36 C172.81,225.64 175.77,225.07 177.37,225.19 C178.84,225.33 181.41,226.33 182.30,227.11 C183.17,227.93 184.19,230.25 184.31,231.64 C184.46,234.69 181.37,240.00 179.28,241.97 C175.98,244.98 167.90,249.24 163.44,250.32 C161.04,250.87 156.66,250.05 155.39,248.69 C154.40,247.54 153.48,243.94 153.60,241.83 C153.73,239.81 154.85,235.46 155.91,233.41 C157.14,231.14 161.03,227.10 163.85,226.54 C165.15,226.31 167.65,226.73 168.42,227.28 C169.19,227.90 169.85,229.92 169.68,231.21 C169.28,233.85 165.68,237.94 163.52,239.52 C159.95,242.06 150.64,245.85 146.50,246.36 C143.87,246.64 138.16,245.68 135.61,243.44 C133.31,241.37 130.89,235.96 130.66,234.22 C130.54,233.01 131.45,231.77 132.52,231.81 C133.78,231.90 136.86,233.54 137.86,234.93 C138.91,236.47 138.97,239.89 138.02,241.19 C137.16,242.27 133.98,243.08 132.10,242.47 C130.43,241.90 124.31,238.48 123.43,238.42 C123.21,238.40 122.89,238.47 122.48,238.62 C122.48,238.62 122.78,243.15 122.78,243.15 C122.78,243.15 121.00,242.21 121.00,242.21 C120.40,243.79 127.77,245.65 131.99,247.25 C133.08,248.88 137.82,254.46 139.01,256.22 C140.30,258.17 142.15,262.87 141.84,264.16 C141.58,264.98 139.30,265.54 137.05,264.36 C136.17,263.89 134.79,262.74 134.33,262.25 C134.33,262.25 133.16,272.03 133.16,272.03 C133.58,272.22 133.67,274.61 135.20,275.73 C136.00,276.30 150.52,282.87 151.08,283.03 C151.42,283.13 151.86,283.16 152.42,283.12" fill="none" stroke="rgb(255, 255, 255)" stroke-width="30.00" stroke-opacity="1.00" stroke-linejoin="round"/>
<path d="M143.32,278.52 C145.46,280.40 149.80,282.46 152.60,283.47 C156.90,285.01 172.02,287.04 176.95,288.52 C182.02,290.06 184.96,290.69 185.95,290.33 C185.95,290.33 156.46,283.80 156.46,283.80 C156.46,283.80 181.62,291.14 181.62,291.14 C180.83,290.78 176.83,289.60 174.20,289.03 C171.51,288.47 169.13,288.94 168.41,289.29 C169.02,291.56 184.77,294.08 187.32,294.84 C189.43,295.44 194.54,296.26 195.84,296.24 C198.41,296.19 209.23,292.69 210.35,292.33 C210.70,292.22 210.93,292.11 211.02,292.02" fill="none" stroke="rgb(255, 255, 255)" stroke-width="30.00" stroke-opacity="1.00" stroke-linejoin="round"/>
<path d="M201.64,286.53 C195.36,285.06 184.82,280.50 177.36,276.42 C169.96,272.25 162.97,267.24 162.66,265.12 C162.56,263.63 165.85,261.19 168.58,260.41 C173.45,259.11 183.85,259.60 189.61,260.94 C193.11,261.80 196.44,263.76 196.22,264.97 C195.89,266.10 194.11,268.17 192.25,269.40 C188.34,271.94 176.10,275.31 170.61,275.60 C167.67,275.72 163.45,274.85 162.01,273.71 C160.56,272.48 159.45,268.56 159.82,266.01 C160.24,263.41 162.82,258.03 164.83,255.71 C166.92,253.36 172.13,250.05 175.14,249.17 C180.59,247.66 188.86,249.12 190.06,249.47 C190.59,249.62 191.84,250.01 193.83,250.65" fill="none" stroke="rgb(255, 255, 255)" stroke-width="30.00" stroke-opacity="1.00" stroke-linejoin="round"/>
<path d="M222.48,265.22 C217.02,269.42 213.60,272.77 212.89,275.67 C212.83,275.93 212.86,276.18 212.96,276.42 C213.10,276.87 220.66,278.17 221.34,278.36 C222.88,278.81 225.13,279.85 226.11,280.58 C227.07,281.37 226.53,288.76 226.61,289.00 C226.67,289.16 229.37,291.34 230.03,292.04" fill="none" stroke="rgb(255, 255, 255)" stroke-width="30.00" stroke-opacity="1.00" stroke-linejoin="round"/>
<path d="M231.95,291.13 C232.83,289.03 235.63,286.78 238.88,284.84 C245.48,281.04 255.28,277.03 256.08,276.36 C256.31,276.17 256.60,275.84 256.96,275.37" fill="none" stroke="rgb(255, 255, 255)" stroke-width="30.00" stroke-opacity="1.00" stroke-linejoin="round"/>
<path d="M242.66,285.91 C244.42,285.70 252.07,282.67 254.35,281.53 C255.24,281.08 256.04,280.63 256.77,280.19 C257.00,280.04 257.25,279.86 257.51,279.65" fill="none" stroke="rgb(255, 255, 255)" stroke-width="30.00" stroke-opacity="1.00" stroke-linejoin="round"/>
<path d="M254.86,281.97 C254.86,281.97 265.14,282.21 265.14,282.21" fill="none" stroke="rgb(255, 255, 255)" stroke-width="30.00" stroke-opacity="1.00" stroke-linejoin="round"/>
<path d="M269.74,281.27 C269.74,281.27 268.69,282.17 268.69,282.17 C274.91,275.43 280.66,270.16 286.43,265.87 C291.56,262.18 299.67,256.43 302.65,254.38 C303.39,253.88 304.13,253.39 304.88,252.89" fill="none" stroke="rgb(255, 255, 255)" stroke-width="30.00" stroke-opacity="1.00" stroke-linejoin="round"/>
<path d="M276.86,265.50 C274.64,266.38 271.54,267.37 270.25,267.35 C269.11,267.32 266.91,266.43 266.70,265.85 C265.75,262.65 266.27,257.74 267.32,254.94 C268.28,252.46 271.14,247.43 272.95,245.10 C274.83,242.71 279.08,238.74 281.19,237.50 C283.51,236.17 287.85,234.74 289.84,234.78 C291.71,234.86 294.27,236.37 294.76,237.65 C295.28,239.26 293.79,243.78 292.08,245.99 C288.79,250.15 278.59,259.52 273.06,263.27 C270.41,265.06 264.16,268.28 262.02,268.89 C259.55,269.55 255.86,269.01 254.64,267.75 C253.45,266.44 252.47,262.04 252.72,259.18 C253.00,256.31 254.91,249.99 256.45,246.79 C257.98,243.69 261.82,238.07 263.86,235.95 C265.87,233.89 269.91,231.33 271.56,231.02 C273.20,230.76 275.31,232.25 275.51,233.87 C275.67,235.59 273.97,240.26 272.23,242.75 C269.33,246.80 259.86,255.00 255.46,257.95 C250.46,261.27 238.84,266.86 233.92,267.68 C231.08,268.12 227.10,267.03 225.99,265.39 C224.88,263.65 224.64,257.82 225.57,254.43 C226.91,249.66 231.77,241.58 234.66,238.38 C235.80,237.13 239.44,233.73 241.94,231.92 C243.90,230.52 246.65,229.03 248.38,228.19" fill="none" stroke="rgb(255, 255, 255)" stroke-width="30.00" stroke-opacity="1.00" stroke-linejoin="round"/>
<path d="M245.81,253.59 C239.53,255.72 234.59,256.40 233.59,255.53 C233.22,255.16 233.33,252.15 234.05,250.14 C234.90,247.80 237.99,242.68 240.08,240.08 C241.83,237.93 247.31,232.85 249.70,231.14 C250.78,230.38 254.07,228.25 255.28,227.48" fill="none" stroke="rgb(255, 255, 255)" stroke-width="30.00" stroke-opacity="1.00" stroke-linejoin="round"/>
</g>
<g stroke-linecap="round" transform="translate(-86.00, -179.00)" id="Layer_9">
<path d="M171.30,244.93 C181.34,245.33 248.12,244.90 281.39,244.93 C307.02,245.10 347.76,245.85 356.76,245.61 C358.55,245.60 380.68,247.19 383.55,247.18" fill="none" stroke="rgb(72, 72, 72)" stroke-width="16.00" stroke-opacity="1.00" stroke-linejoin="round"/>
<path d="M195.89,205.69 C196.44,206.61 197.83,208.96 198.67,210.37 C202.61,217.02 205.22,220.04 214.21,229.46 C219.77,235.31 225.42,244.44 227.87,247.43" fill="none" stroke="rgb(72, 72, 72)" stroke-width="16.00" stroke-opacity="1.00" stroke-linejoin="round"/>
<path d="M195.60,204.74 C194.78,204.74 193.79,204.86 193.14,204.95 C192.85,204.98 187.69,206.12 184.01,206.23 C180.30,206.34 174.80,206.25 171.62,206.78 C168.68,207.28 164.29,207.64 161.13,208.75 C157.75,209.94 148.73,211.46 142.86,213.37 C137.09,214.89 128.30,217.43 120.15,220.64 C115.21,222.64 108.74,227.24 106.80,229.32 C106.08,230.09 99.33,236.96 98.38,238.38 C96.02,241.95 94.82,243.12 94.06,243.90 C94.06,243.90 94.79,243.26 94.79,243.26" fill="none" stroke="rgb(72, 72, 72)" stroke-width="16.00" stroke-opacity="1.00" stroke-linejoin="round"/>
<path d="M95.87,242.89 C95.29,241.30 97.87,235.79 99.49,233.65 C101.58,230.97 108.20,224.97 108.95,224.74 C109.07,224.71 109.27,224.70 109.54,224.72" fill="none" stroke="rgb(72, 72, 72)" stroke-width="16.00" stroke-opacity="1.00" stroke-linejoin="round"/>
<path d="M94.82,245.07 C95.49,245.92 97.56,246.00 100.27,245.32 C102.71,244.70 108.34,243.89 109.00,243.80 C111.41,243.51 126.85,245.05 127.31,244.78 C127.04,244.66 126.85,244.57 126.75,244.54 C126.64,244.50 126.47,244.46 126.24,244.41" fill="none" stroke="rgb(72, 72, 72)" stroke-width="16.00" stroke-opacity="1.00" stroke-linejoin="round"/>
<path d="M121.43,243.06 C122.31,243.39 134.75,250.99 137.76,253.74 C137.96,253.92 138.07,253.96 138.09,253.86 C138.09,253.86 136.62,251.56 136.62,251.56" fill="none" stroke="rgb(72, 72, 72)" stroke-width="16.00" stroke-opacity="1.00" stroke-linejoin="round"/>
<path d="M125.28,245.11 C125.28,245.11 137.25,272.01 137.25,272.01 C136.81,271.13 136.38,270.24 135.94,269.36 C135.79,269.06 135.70,268.90 135.68,268.89" fill="none" stroke="rgb(72, 72, 72)" stroke-width="16.00" stroke-opacity="1.00" stroke-linejoin="round"/>
<path d="M122.53,248.23 C122.53,248.23 136.62,274.99 136.62,274.99 C136.62,274.99 135.61,274.93 135.61,274.93" fill="none" stroke="rgb(72, 72, 72)" stroke-width="16.00" stroke-opacity="1.00" stroke-linejoin="round"/>
<path d="M130.32,263.88 C129.52,265.84 128.77,272.52 128.87,274.29 C128.98,275.94 131.75,278.98 134.18,280.28 C135.74,281.10 136.37,281.38 137.24,281.66" fill="none" stroke="rgb(72, 72, 72)" stroke-width="16.00" stroke-opacity="1.00" stroke-linejoin="round"/>
<path d="M128.41,273.82 C129.73,278.08 132.99,279.26 133.53,279.07" fill="none" stroke="rgb(72, 72, 72)" stroke-width="16.00" stroke-opacity="1.00" stroke-linejoin="round"/>
<path d="M127.34,275.42 C128.07,276.00 140.62,283.91 142.78,284.97 C144.99,286.05 162.33,294.57 163.90,295.21" fill="none" stroke="rgb(72, 72, 72)" stroke-width="16.00" stroke-opacity="1.00" stroke-linejoin="round"/>
<path d="M161.19,292.09 C162.79,293.27 177.68,297.56 178.38,297.74 C180.09,298.17 188.68,299.20 190.11,299.20 C192.80,299.18 194.81,298.63 195.81,298.37 C196.63,298.17 202.53,298.75 205.91,297.80 C206.62,297.77 211.67,296.43 212.17,296.53" fill="none" stroke="rgb(72, 72, 72)" stroke-width="16.00" stroke-opacity="1.00" stroke-linejoin="round"/>
<path d="M196.63,209.71 C198.16,211.97 201.06,214.43 204.94,216.37 C210.58,219.29 221.27,224.64 226.21,225.92 C229.98,226.88 233.51,228.00 236.89,229.66 C240.17,231.28 245.77,234.87 247.37,235.07" fill="none" stroke="rgb(72, 72, 72)" stroke-width="16.00" stroke-opacity="1.00" stroke-linejoin="round"/>
<path d="M199.45,209.75 C200.45,210.98 202.77,212.89 205.88,215.71 C206.90,216.63 210.91,219.62 212.70,220.49 C216.16,222.09 222.19,224.94 225.97,227.02 C229.32,228.89 232.58,230.47 233.96,230.94 C234.14,231.00 234.34,231.05 234.56,231.07" fill="none" stroke="rgb(72, 72, 72)" stroke-width="16.00" stroke-opacity="1.00" stroke-linejoin="round"/>
<path d="M229.78,226.10 C231.72,225.86 242.61,227.69 247.80,227.41 C254.99,226.96 267.09,226.29 278.07,226.91 C282.36,227.20 290.25,227.76 292.62,228.15 C293.75,228.35 294.59,228.62 295.31,228.95" fill="none" stroke="rgb(72, 72, 72)" stroke-width="16.00" stroke-opacity="1.00" stroke-linejoin="round"/>
<path d="M238.06,226.43 C238.06,226.43 235.74,227.76 235.74,227.76 C238.68,228.07 254.10,225.38 261.13,224.10 C264.83,223.48 272.02,223.03 274.85,223.14 C277.27,223.24 286.26,224.09 286.86,223.88 C287.10,223.79 287.54,223.50 288.17,223.02" fill="none" stroke="rgb(72, 72, 72)" stroke-width="16.00" stroke-opacity="1.00" stroke-linejoin="round"/>
<path d="M234.00,224.37 C235.24,225.21 236.48,225.42 238.63,225.05 C245.71,223.85 270.43,222.73 274.28,222.09 C279.83,221.14 285.71,217.63 286.64,216.80 C286.89,216.58 287.20,216.23 287.58,215.75" fill="none" stroke="rgb(72, 72, 72)" stroke-width="16.00" stroke-opacity="1.00" stroke-linejoin="round"/>
<path d="M267.88,220.35 C269.74,219.78 271.82,219.21 273.16,218.85 C276.98,217.72 290.91,209.83 292.56,208.97 C297.75,206.30 305.31,204.36 306.88,203.43 C307.15,203.27 307.45,203.03 307.76,202.71" fill="none" stroke="rgb(72, 72, 72)" stroke-width="16.00" stroke-opacity="1.00" stroke-linejoin="round"/>
<path d="M303.36,203.64 C306.71,202.29 312.06,200.18 314.00,199.76 C317.34,199.06 324.95,199.12 327.63,199.45 C330.90,199.85 334.11,199.51 335.88,198.81 C336.06,198.74 336.37,198.59 336.80,198.38" fill="none" stroke="rgb(72, 72, 72)" stroke-width="16.00" stroke-opacity="1.00" stroke-linejoin="round"/>
<path d="M323.64,197.97 C328.13,197.19 331.91,196.79 336.82,196.96 C347.29,197.41 351.91,197.79 354.34,198.15 C354.57,198.19 355.02,198.23 355.69,198.30" fill="none" stroke="rgb(72, 72, 72)" stroke-width="16.00" stroke-opacity="1.00" stroke-linejoin="round"/>
<path d="M342.91,196.33 C345.00,197.10 349.84,197.55 351.54,197.99 C355.37,199.01 367.01,205.41 368.30,207.13 C369.12,208.24 370.13,211.97 370.41,212.42" fill="none" stroke="rgb(72, 72, 72)" stroke-width="16.00" stroke-opacity="1.00" stroke-linejoin="round"/>
<path d="M358.03,199.24 C360.16,200.66 364.98,203.91 368.06,206.41 C372.18,209.85 377.39,212.93 378.14,213.35 C382.27,215.82 386.64,217.88 388.12,218.93 C388.60,219.27 395.04,224.49 394.99,224.42 C394.99,224.42 394.18,222.73 394.18,222.73" fill="none" stroke="rgb(72, 72, 72)" stroke-width="16.00" stroke-opacity="1.00" stroke-linejoin="round"/>
<path d="M379.02,212.83 C380.20,213.65 382.15,214.94 383.35,215.65 C386.57,217.54 391.99,220.06 395.75,221.56 C398.09,222.52 399.97,225.09 400.05,225.32 C400.08,225.44 399.97,225.49 399.70,225.44" fill="none" stroke="rgb(72, 72, 72)" stroke-width="16.00" stroke-opacity="1.00" stroke-linejoin="round"/>
<path d="M397.27,220.97 C397.37,221.72 398.54,223.94 398.81,224.87 C399.36,226.73 399.07,232.72 398.66,235.76 C398.24,238.72 395.50,245.72 395.49,246.10 C396.11,245.76 396.50,237.69 396.76,236.30 C397.28,233.60 401.96,224.38 401.93,223.84 C401.27,225.39 397.99,240.73 396.92,244.79 C396.24,247.41 395.17,249.99 394.93,251.35 C394.62,252.14 394.64,252.54 394.57,252.59 C391.75,254.20 377.16,258.88 375.82,259.12 C375.34,259.20 374.53,259.25 373.40,259.28 C373.40,259.28 389.54,253.70 389.54,253.70 C389.54,253.70 371.93,260.10 371.93,260.10 C371.93,260.10 384.81,255.21 384.81,255.21 C384.81,255.21 361.31,264.21 361.31,264.21 C361.31,264.21 371.63,258.95 371.63,258.95 C371.63,258.95 361.31,263.22 361.31,263.22 C361.31,263.22 369.64,258.79 369.64,258.79 C369.64,258.79 349.04,266.88 349.04,266.88 C349.04,266.88 360.54,260.76 360.54,260.76 C360.54,260.76 345.76,270.98 345.76,270.98 C345.76,270.98 358.88,262.81 358.88,262.81 C358.88,262.81 347.50,270.82 347.50,270.82 C353.82,266.20 358.60,264.29 362.01,263.88 C362.01,263.88 358.36,264.87 358.36,264.87 C353.38,267.61 348.86,270.32 346.33,272.56 C344.85,273.89 339.95,279.10 340.01,278.99 C343.26,274.63 351.67,267.72 351.61,268.66 C351.61,268.66 339.85,283.47 339.85,283.47 C339.96,283.42 345.26,276.68 346.36,275.64 C347.85,274.25 349.85,272.82 350.22,272.77 C350.22,272.77 336.61,286.59 336.61,286.59 C338.48,282.78 343.06,280.25 344.71,279.57 C345.07,280.28 341.30,284.61 338.95,286.08 C336.62,287.51 331.90,289.99 331.60,290.12 C336.24,285.05 341.42,282.40 341.79,282.79 C339.87,286.13 331.80,290.60 330.83,290.31 C330.90,289.42 334.00,284.85 336.70,283.53 C337.86,282.96 339.45,282.94 339.69,283.18 C339.97,284.25 338.35,287.61 335.81,289.50 C333.33,291.33 330.45,291.49 330.11,291.31 C329.71,289.94 329.91,288.79 330.96,287.88 C332.63,286.46 334.72,286.26 335.49,286.30 C331.81,288.51 327.75,289.38 325.49,289.26 C327.32,285.89 336.42,283.90 336.47,284.27 C333.62,287.62 324.26,290.52 323.06,290.37 C323.91,288.19 334.84,286.11 336.71,286.24 C336.67,287.05 330.37,290.38 328.18,291.04 C325.37,291.87 322.61,291.49 321.98,291.02 C322.86,289.36 323.67,288.45 325.15,287.63 C331.23,284.29 335.03,284.54 335.42,284.74 C335.60,285.48 335.12,286.38 333.63,287.49 C330.54,289.77 323.92,292.57 321.38,292.34 C318.29,292.01 315.23,289.72 314.73,289.07 C315.32,288.27 315.76,287.87 316.59,287.74 C319.32,287.32 324.21,287.18 324.99,287.49 C325.09,288.43 323.22,289.80 319.82,290.74 C317.81,291.27 314.07,290.57 312.11,289.38 C308.04,286.83 307.50,285.43 307.64,284.21 C307.95,283.70 309.67,283.00 311.05,283.22 C314.64,283.83 317.28,286.55 317.57,287.49 C317.39,288.31 315.59,289.89 313.92,290.39 C312.05,290.91 308.00,290.77 306.50,289.92 C305.00,289.01 303.92,286.25 304.44,285.09 C305.00,283.97 308.26,282.52 310.21,282.67 C312.32,282.88 316.31,285.57 317.01,286.86 C315.61,288.15 313.77,288.90 311.79,288.62 C310.12,288.38 307.64,287.35 306.97,286.71 C305.65,285.34 304.82,282.70 305.04,281.04 C305.29,279.44 306.96,277.38 308.52,277.21 C310.37,277.06 313.43,279.40 314.40,281.60 C315.20,283.50 314.83,286.29 313.87,286.84 C312.89,287.31 296.37,283.74 295.15,282.89 C292.60,281.05 291.67,278.54 291.91,277.37 C292.77,276.21 296.92,277.03 300.69,279.22 C301.60,279.76 301.99,280.22 302.08,280.61 C301.36,281.40 297.89,280.96 294.47,278.85 C293.75,278.40 288.18,274.61 287.14,274.23 C287.14,274.23 291.66,275.17 291.66,275.17 C291.66,275.17 279.74,273.41 279.74,273.41 C279.74,273.41 290.68,275.99 290.68,275.99 C290.02,276.01 283.79,277.15 283.39,277.21 C281.42,277.49 278.15,279.57 278.01,279.55 C278.01,279.55 279.39,276.12 279.39,276.12 C278.44,280.23 272.24,283.50 271.66,283.71 C271.66,283.71 281.46,275.91 281.46,275.91 C281.13,277.93 271.70,284.43 268.87,285.71 C269.91,283.45 276.26,278.56 278.32,277.33 C276.54,279.44 273.24,281.55 270.63,282.89 C268.02,284.22 261.78,286.81 259.28,287.12 C258.00,287.26 256.56,286.15 256.63,285.17 C256.79,284.03 259.78,281.43 262.06,280.49 C264.35,279.59 267.28,279.69 267.70,279.92 C265.65,283.02 263.82,283.82 262.16,284.12 C262.16,284.12 270.58,281.29 270.58,281.29 C269.96,280.82 255.24,283.03 251.78,284.66 C250.25,285.40 249.44,285.69 249.21,285.64 C249.21,285.64 259.39,280.98 259.39,280.98 C258.49,281.26 254.33,283.55 252.09,284.55 C249.15,285.85 242.13,287.88 240.26,287.94 C241.85,286.16 246.25,283.41 248.60,281.93 C250.52,280.69 253.06,280.26 253.26,280.39 C253.25,281.66 247.89,285.83 244.36,287.88 C241.07,289.78 238.71,290.23 238.59,290.18 C238.32,289.97 241.96,287.18 244.29,285.91 C246.91,284.52 250.79,283.52 251.22,284.00 C248.59,286.58 234.17,293.63 232.31,293.90 C232.31,293.90 243.51,287.27 243.51,287.27 C240.26,292.20 233.99,294.10 232.51,294.23 C232.07,293.37 232.01,292.95 232.66,292.58 C235.34,291.14 241.15,290.41 241.57,291.07 C240.05,292.19 233.88,294.24 231.81,294.80 C230.36,295.17 226.82,295.35 225.47,295.05 C223.36,294.55 222.12,292.19 222.48,291.27 C222.95,290.30 226.99,289.62 231.38,289.67 C233.49,289.73 234.78,289.91 235.73,290.22 C234.72,291.02 229.29,292.18 225.82,292.62 C222.47,293.02 218.04,292.94 216.96,292.34 C214.13,290.59 215.36,288.21 216.02,287.64 C216.19,287.49 216.71,287.07 217.56,286.38" fill="none" stroke="rgb(72, 72, 72)" stroke-width="16.00" stroke-opacity="1.00" stroke-linejoin="round"/>
<path d="M110.20,237.97 C112.31,236.24 116.51,234.33 119.13,233.61 C123.35,232.49 142.10,228.74 145.22,228.48 C150.28,228.09 159.00,228.48 159.04,228.69 C155.33,229.76 140.35,232.97 136.08,233.35 C133.87,233.53 128.67,233.52 127.09,233.06 C126.62,232.11 126.54,231.55 126.97,230.88 C128.11,229.16 131.70,225.59 134.31,223.78 C136.90,222.01 143.48,219.07 146.52,218.30 C149.23,217.62 156.17,216.70 160.99,216.74 C167.70,216.90 186.00,217.82 187.60,217.87 C193.73,218.02 203.14,217.28 203.41,217.72 C203.41,217.72 195.62,219.73 195.62,219.73 C195.96,219.43 199.04,218.17 200.25,217.66 C200.68,217.48 200.99,217.32 201.19,217.19" fill="none" stroke="rgb(72, 72, 72)" stroke-width="16.00" stroke-opacity="1.00" stroke-linejoin="round"/>
<path d="M160.11,223.72 C160.68,222.55 162.18,222.27 166.19,222.77 C176.78,224.09 185.48,225.51 191.78,227.32 C197.40,228.96 209.01,231.69 215.42,231.79 C217.87,231.82 219.05,231.75 219.75,231.58 C217.83,231.26 197.58,228.68 193.48,228.75 C188.08,228.86 183.30,229.45 180.04,230.53 C177.18,231.53 174.67,233.05 172.08,234.78 C172.38,234.74 179.14,231.99 182.44,231.11 C186.32,230.11 198.02,230.50 205.07,231.90 C206.73,232.24 226.22,236.45 231.32,237.13 C224.39,237.84 183.19,238.12 177.25,238.76 C176.25,238.86 173.85,239.12 173.77,239.06 C175.94,238.00 188.06,234.70 192.87,234.22 C197.80,233.75 207.52,234.23 217.27,235.48 C226.69,236.78 235.27,237.62 241.67,237.45 C248.66,237.26 261.52,234.38 262.01,233.26 C262.53,232.35 248.84,228.08 244.19,227.74 C237.74,227.37 234.16,230.62 234.07,231.33 C235.11,232.36 239.32,232.30 242.27,231.87 C243.55,231.68 260.26,228.43 266.81,227.99 C273.95,227.52 286.14,228.04 291.81,229.11 C296.80,230.08 303.24,233.01 304.64,233.65 C297.16,230.20 288.26,227.14 283.45,227.02 C281.11,226.98 276.68,227.57 274.28,228.25 C269.70,229.62 266.15,231.69 266.17,233.02 C267.16,234.24 269.77,235.15 272.17,235.31 C275.94,235.54 290.30,233.04 294.98,232.83 C297.61,232.72 304.64,232.89 307.71,233.29 C311.13,233.75 313.90,234.97 314.41,235.54 C314.41,235.54 314.31,236.59 314.31,236.59 C313.48,237.56 309.96,238.94 307.33,239.34 C303.58,239.89 285.64,238.46 282.96,238.34 C279.80,238.20 274.27,238.26 272.93,238.23 C274.73,235.64 279.92,231.93 282.75,230.09 C288.42,226.41 300.47,220.07 305.85,218.09 C311.88,215.92 324.10,213.52 329.17,213.27 C333.12,213.09 337.78,213.76 339.15,214.54 C340.25,215.21 341.19,216.47 340.94,217.25 C340.25,219.19 336.65,221.59 335.32,222.04 C332.75,222.87 310.07,224.84 307.41,224.31 C306.19,224.06 304.59,223.16 304.36,222.75 C303.90,221.69 304.35,218.90 305.53,217.41 C307.93,214.48 319.40,207.85 325.36,205.73 C327.49,204.98 332.56,204.03 333.44,203.94 C337.83,203.57 344.45,204.54 347.41,205.94 C349.99,207.20 353.09,210.28 353.69,211.73 C354.11,212.85 353.26,214.53 351.44,216.07 C347.36,219.45 334.92,225.35 329.45,226.93 C326.47,227.78 321.68,228.41 319.00,228.38 C317.70,228.34 315.08,227.71 313.75,227.04 C311.67,225.96 308.74,221.52 308.60,220.41 C308.49,218.90 311.01,215.81 313.24,214.07 C315.26,212.53 320.03,209.83 322.29,208.99 C325.08,208.00 330.29,207.43 332.18,208.15 C332.44,209.25 331.50,210.74 329.21,212.51 C324.93,215.78 312.95,220.73 306.97,222.28 C304.06,223.01 298.20,223.87 296.27,223.27 C295.63,222.19 295.39,221.40 295.58,220.49 C296.06,218.42 298.47,215.08 300.91,212.92 C302.74,211.32 308.95,207.50 311.47,206.43 C314.62,205.12 320.28,203.73 323.28,203.72 C326.41,203.75 331.38,205.40 333.98,207.29 C336.46,209.13 347.25,220.61 350.75,222.77 C352.98,224.11 356.17,225.11 357.77,225.42 C357.83,225.42 341.06,227.10 337.63,226.37 C336.46,226.10 335.15,225.05 334.78,224.25 C334.40,223.30 334.22,221.35 334.48,220.39 C335.19,218.14 340.13,214.82 343.12,213.85 C345.31,213.18 349.81,212.65 351.64,212.86 C353.30,213.06 358.32,215.18 360.65,217.50 C362.89,219.76 364.54,224.24 364.17,225.26 C363.42,226.92 360.01,229.13 357.20,229.10 C356.29,229.04 354.93,228.13 354.31,227.10 C353.40,225.48 352.41,221.87 352.42,219.92 C352.46,218.38 353.43,215.68 354.21,214.93 C355.20,214.08 358.47,212.78 360.17,212.61 C361.79,212.48 365.28,213.26 367.09,214.09 C370.48,215.73 375.95,221.22 377.04,223.86 C377.99,226.27 377.71,229.86 376.93,230.94 C376.43,231.60 375.85,231.91 375.11,231.99 C373.99,231.48 368.20,225.98 366.50,223.98 C365.20,222.44 365.04,221.31 365.11,220.51 C366.10,219.41 370.83,218.85 374.12,220.08 C376.85,221.15 382.47,226.03 383.41,228.09 C383.75,228.90 383.77,230.44 383.47,231.11 C382.59,232.88 378.49,236.40 376.29,237.10 C375.26,237.40 373.37,237.33 372.67,236.92 C371.84,236.37 371.04,234.24 370.94,232.40 C370.89,230.74 371.47,228.72 372.22,228.15 C373.14,227.54 376.14,226.71 377.54,226.74 C379.82,226.83 386.85,231.39 387.32,232.34 C387.38,232.48 387.47,232.80 387.60,233.33 C387.57,236.49 379.67,238.87 378.38,238.56 C377.56,237.75 377.71,235.62 378.73,234.68 C380.14,233.50 385.75,232.29 388.25,232.96 C389.43,233.30 391.57,235.28 391.61,236.22 C391.61,236.65 391.20,237.59 390.72,238.01 C389.55,238.98 387.75,239.61 385.79,239.69 C381.67,239.81 368.87,236.26 363.04,234.46 C360.33,233.80 350.10,232.69 349.09,232.24 C348.99,231.10 349.16,230.45 349.91,229.86 C351.65,228.52 356.40,226.50 359.20,226.14 C361.57,225.86 367.42,226.51 369.67,227.24 C371.68,227.92 376.42,230.38 377.81,231.58 C378.39,232.09 378.52,232.83 378.44,233.74 C375.82,236.15 367.64,238.04 357.86,239.31 C352.37,239.92 334.97,241.31 330.11,240.69 C327.38,240.31 322.96,238.63 321.75,237.35 C321.29,236.86 321.32,236.01 321.54,235.07 C323.78,233.61 327.09,232.79 331.06,232.06 C337.11,230.98 341.69,230.32 344.17,230.25 C347.87,230.16 353.39,230.19 354.12,230.14 C356.08,230.02 358.26,229.74 358.83,229.55 C358.98,229.50 359.15,229.44 359.34,229.38" fill="none" stroke="rgb(72, 72, 72)" stroke-width="16.00" stroke-opacity="1.00" stroke-linejoin="round"/>
<path d="M371.00,241.95 C367.56,243.29 349.91,251.23 346.75,252.80 C343.69,254.34 333.16,260.04 332.68,260.06 C332.68,259.38 337.75,254.98 340.63,253.24 C345.34,250.46 356.97,247.78 360.29,248.05 C360.25,249.88 359.92,250.96 358.91,252.06 C355.22,256.00 344.98,263.98 337.76,268.91 C334.63,271.02 329.86,273.88 326.99,274.86 C325.76,275.28 324.80,275.12 324.33,274.74 C324.15,272.77 325.79,269.54 327.40,267.47 C329.87,264.36 341.34,255.16 346.13,252.46 C351.40,249.54 357.95,248.62 359.08,249.28 C359.67,250.99 358.49,253.55 356.94,255.85 C355.13,258.47 341.60,270.32 335.67,274.29 C333.09,275.98 328.85,277.20 327.33,276.69 C326.48,275.10 326.63,270.91 327.37,268.68 C328.19,266.33 331.18,261.26 333.47,258.60 C335.53,256.25 339.84,252.20 342.02,250.53 C347.94,246.09 350.78,245.97 351.20,246.14 C351.43,247.36 350.13,249.60 348.46,251.54 C345.48,254.98 334.00,263.64 328.79,266.82 C325.77,268.65 320.06,271.47 317.44,272.40 C314.37,273.45 309.32,273.99 307.54,273.06 C306.87,271.70 307.36,269.37 308.43,267.71 C310.61,264.42 318.87,258.56 323.81,256.09 C325.82,255.10 332.58,252.44 333.41,252.38 C333.66,253.08 333.05,254.07 331.17,255.81 C327.17,259.52 317.96,265.95 312.79,268.64 C307.26,271.49 300.97,272.72 299.41,272.32 C298.84,271.30 299.38,268.63 300.42,266.69 C302.84,262.29 312.09,252.77 316.42,249.88 C322.40,245.97 326.95,245.47 327.63,245.50 C327.99,246.43 327.62,247.29 326.15,248.48 C324.16,250.09 308.80,261.11 302.80,265.15 C286.62,275.86 283.83,274.55 283.33,274.23 C282.95,273.21 283.47,270.27 284.46,268.21 C286.20,264.68 294.59,256.55 298.90,253.94 C303.39,251.26 308.26,249.58 311.66,248.62 C309.05,251.78 305.57,254.09 302.41,256.06 C294.50,260.89 287.25,264.80 278.37,269.14 C268.32,273.82 265.06,274.34 264.55,274.23 C263.95,273.33 267.50,268.55 270.59,265.56 C275.42,260.97 287.58,253.02 293.28,250.41 C295.96,249.20 300.41,247.68 301.55,247.58 C300.58,249.37 297.12,251.87 294.45,253.68 C287.66,258.21 273.54,267.41 266.34,271.76 C258.62,276.23 253.17,278.46 252.01,278.52 C251.56,277.41 252.84,274.50 254.45,272.13 C257.71,267.41 268.60,257.78 274.37,253.84 C281.30,249.26 284.04,248.53 284.29,248.56 C284.19,249.82 244.84,278.47 241.12,280.86 C238.20,282.70 234.75,283.87 233.77,283.86 C233.18,282.58 234.31,279.12 235.70,276.63 C238.35,271.96 248.21,261.01 254.66,255.48 C260.92,250.16 268.83,246.45 270.45,246.55 C269.50,249.31 268.80,250.76 267.63,251.92 C264.38,255.10 251.71,266.88 245.58,272.58 C237.40,280.10 230.96,285.25 228.18,285.64 C227.65,284.36 227.55,283.42 227.94,282.26 C229.60,277.48 235.73,267.94 239.59,263.41 C241.75,260.89 245.71,257.00 247.71,255.52 C250.03,253.85 254.77,251.76 256.61,251.83 C256.95,253.08 256.91,253.97 256.25,254.93 C253.22,259.34 244.03,267.58 238.53,271.93 C227.53,280.59 213.34,289.01 212.76,288.74 C211.97,287.96 213.95,282.26 216.11,278.77 C219.68,273.06 228.20,262.63 232.85,258.21 C237.91,253.45 243.73,250.06 244.41,250.33 C244.93,251.17 242.82,255.24 240.23,259.40 C236.35,265.47 227.65,276.92 223.50,280.76 C221.29,282.78 215.99,286.49 214.49,287.10 C212.40,287.92 209.47,288.38 208.45,287.99 C207.23,287.47 206.51,284.46 206.61,282.79 C206.77,280.66 208.62,276.36 210.27,273.63 C213.40,268.54 223.09,257.73 228.33,253.63 C230.94,251.62 235.53,248.89 236.67,248.87 C237.06,250.20 231.59,257.49 223.97,266.39 C216.41,275.04 209.14,282.81 205.17,286.38 C203.00,288.31 199.05,290.99 198.08,291.15 C197.01,291.29 195.95,290.15 196.01,289.24 C196.29,285.69 198.54,279.81 199.77,277.39 C202.44,272.25 210.33,261.53 213.86,258.65 C214.90,257.83 216.85,256.78 218.14,256.36 C219.64,255.90 221.49,257.71 221.76,259.65 C222.04,262.01 221.06,266.29 219.76,268.83 C218.19,271.81 209.43,281.24 205.73,283.92 C201.46,286.96 194.03,289.15 191.61,288.85 C190.61,288.68 189.30,287.70 189.03,286.71 C188.28,283.67 189.24,278.14 190.34,275.46 C192.46,270.44 200.10,259.54 204.80,254.99 C207.55,252.36 212.80,248.57 214.43,247.84 C216.50,246.93 218.59,246.49 219.73,246.61 C220.28,247.12 220.36,250.08 219.72,252.38 C218.21,257.59 210.05,270.10 206.25,274.52 C204.18,276.91 200.13,280.65 198.01,282.13 C195.52,283.82 191.02,285.26 190.15,284.58 C189.13,283.69 188.32,280.70 188.44,278.75 C188.57,277.05 190.26,271.64 191.33,269.43 C193.85,264.30 200.59,255.86 204.82,252.45 C206.89,250.81 210.74,248.95 211.73,249.24 C212.21,250.90 210.94,254.50 209.66,257.00 C207.04,262.06 198.84,272.26 194.45,276.29 C190.96,279.38 186.95,282.48 184.40,283.41 C183.29,283.80 182.21,283.87 181.39,283.76 C180.58,282.99 180.19,282.37 180.16,281.54 C180.13,279.52 181.48,274.97 183.02,271.74 C184.23,269.25 188.45,262.87 190.41,260.47 C192.60,257.83 197.19,253.63 199.40,252.26 C201.73,250.85 206.02,249.74 206.68,250.06 C207.35,250.49 207.78,252.53 207.53,254.97 C207.05,259.19 201.62,271.75 198.37,277.89 C197.10,280.28 193.54,286.01 191.37,287.66 C190.46,288.32 188.53,288.66 187.95,288.33 C186.51,287.38 184.83,281.70 184.68,278.64 C184.52,274.27 186.87,265.23 189.36,260.80 C191.98,256.20 199.94,247.27 202.88,245.93 C204.09,245.40 205.90,244.92 206.22,245.05 C206.89,245.43 207.28,248.19 206.82,250.74 C205.95,255.43 199.85,267.89 196.79,272.69 C195.55,274.61 192.02,279.20 189.96,281.09 C188.68,282.24 186.42,283.50 185.24,283.80 C184.44,283.96 183.11,283.68 182.69,283.12 C181.43,281.32 180.58,276.48 180.61,274.58 C180.67,272.43 181.76,267.66 182.75,264.95 C183.80,262.16 186.75,256.65 188.55,254.04 C190.47,251.30 194.12,247.30 196.47,245.61 C198.51,244.16 201.68,243.11 203.20,243.22 C204.45,243.35 205.80,244.97 206.14,246.86 C206.50,249.11 206.06,253.49 205.07,256.37 C203.21,261.61 196.00,272.55 192.49,276.68 C191.00,278.42 186.58,282.68 184.22,283.96 C183.06,284.57 180.33,285.12 179.67,284.91 C178.25,284.33 176.87,278.61 176.83,275.03 C176.84,272.80 178.34,266.61 179.30,262.81 C179.41,262.36 179.52,261.77 179.64,261.05" fill="none" stroke="rgb(72, 72, 72)" stroke-width="16.00" stroke-opacity="1.00" stroke-linejoin="round"/>
<path d="M137.45,243.35 C141.80,244.36 151.02,246.64 155.62,248.91 C158.29,250.24 159.08,251.14 159.25,251.54 C157.49,252.05 155.73,252.05 153.14,251.42 C147.57,250.04 133.81,244.68 133.70,244.13 C134.07,243.40 138.46,242.46 141.26,242.42 C145.73,242.42 160.93,244.51 165.19,244.84 C170.36,245.24 181.81,245.54 182.35,245.30 C179.69,244.70 172.70,243.15 168.36,242.20 C163.49,241.15 161.68,240.97 156.88,241.00 C143.26,241.13 141.97,240.94 139.90,240.37 C139.31,239.32 140.08,237.53 141.59,236.08 C143.61,234.18 148.74,231.19 151.59,230.47 C154.50,229.78 160.99,229.84 164.65,230.43 C167.31,230.88 174.06,232.94 177.09,234.27 C178.46,234.89 185.12,238.17 187.52,240.35 C187.16,241.51 186.96,241.92 186.13,241.99 C180.84,242.41 166.27,240.14 158.17,238.87 C154.33,238.23 153.91,238.20 153.57,238.27 C157.51,238.96 169.08,240.53 176.06,241.97 C183.29,243.48 190.56,246.90 191.89,248.48 C192.34,249.06 192.83,250.72 192.82,251.54 C192.73,253.45 189.34,256.11 186.73,257.14 C182.81,258.65 170.19,260.78 164.56,261.17 C161.76,261.35 155.25,261.40 154.03,260.84 C153.43,259.76 153.85,258.29 154.90,257.39 C156.37,256.18 160.83,254.51 163.57,254.04 C172.00,252.69 186.49,256.54 187.29,256.80 C187.29,256.80 187.48,257.95 187.48,257.95 C186.56,258.86 183.65,260.06 180.39,260.98 C177.56,261.77 159.19,263.31 153.10,263.33 C145.07,263.31 140.62,261.14 140.28,260.45 C140.65,259.73 144.45,258.45 146.82,258.03 C149.38,257.60 154.40,257.53 156.87,257.97 C159.25,258.41 164.87,260.30 167.31,261.46 C169.89,262.71 174.34,265.80 175.23,266.94 C176.33,268.42 177.06,270.74 176.72,272.11 C176.36,273.37 174.57,275.63 173.26,276.36 C170.85,277.66 165.37,278.41 163.64,278.49 C157.93,278.71 151.55,277.49 150.66,276.55 C150.36,275.33 151.96,273.01 153.98,271.85 C156.16,270.63 160.77,269.45 163.86,269.45 C167.59,269.51 172.25,270.39 176.71,271.69 C183.09,273.58 186.02,274.57 186.24,275.46 C186.20,276.93 183.02,279.38 180.32,280.39 C177.92,281.24 172.85,282.03 169.78,282.09 C166.58,282.13 161.63,281.51 159.14,280.72 C156.67,279.90 152.96,277.64 152.46,276.40 C151.86,274.79 152.34,272.76 153.41,271.74 C154.81,270.45 159.30,268.57 161.95,268.25 C164.66,267.97 169.38,268.78 172.30,269.97 C175.15,271.17 179.64,273.93 180.92,275.25 C181.84,276.24 181.08,279.03 179.71,279.94 C178.47,280.70 173.33,281.92 171.13,282.01 C166.31,282.17 156.59,279.91 151.64,277.55 C149.86,276.69 144.91,273.64 143.28,271.50 C142.49,270.44 141.84,268.15 141.94,267.37 C142.14,266.39 145.80,264.60 148.30,264.00 C150.96,263.39 156.01,262.87 158.40,263.22 C160.94,263.63 166.31,265.74 168.86,267.31 C171.20,268.77 174.37,271.80 174.85,273.04 C175.25,274.19 174.45,276.42 173.50,277.33 C172.47,278.28 169.98,279.22 168.24,279.32 C167.46,279.33 165.19,278.66 164.11,277.99 C161.82,276.51 157.77,269.44 157.04,265.83 C156.72,264.05 156.82,260.92 157.22,259.34 C157.41,258.64 158.52,255.74 159.07,254.27" fill="none" stroke="rgb(72, 72, 72)" stroke-width="16.00" stroke-opacity="1.00" stroke-linejoin="round"/>
</g>
<g stroke-linecap="round" transform="translate(-86.00, -179.00)" id="Layer_2">
<path d="M214.81,190.90 C214.81,190.90 214.89,191.07 214.89,191.07 C215.61,191.07 223.60,190.73 228.55,190.73 C230.06,190.82 232.45,191.07 233.16,191.07 C233.16,191.07 241.79,191.41 241.79,191.41" fill="none" stroke="rgb(49, 49, 49)" stroke-width="6.00" stroke-opacity="1.00" stroke-linejoin="round"/>
<path d="M216.12,191.72 C217.75,191.36 229.78,191.87 234.85,191.07 C235.94,190.90 236.21,190.11 236.23,189.82 C235.87,189.39 233.59,189.13 231.77,189.44 C225.27,190.58 223.46,192.12 223.28,192.42 C223.28,192.42 238.30,192.24 238.30,192.24 C232.86,190.98 225.07,191.66 224.09,192.35 C224.22,192.47 232.27,193.04 234.98,193.03 C237.38,193.01 241.99,192.41 242.39,192.47 C242.39,192.47 236.97,193.01 236.97,193.01 C238.30,192.97 244.03,192.07 244.99,192.05 C245.64,192.05 249.19,192.37 249.27,192.24 C246.98,191.33 242.27,192.60 241.67,192.79 C241.67,192.79 257.09,190.62 257.09,190.62 C257.09,190.62 251.19,192.40 251.19,192.40 C251.19,192.40 260.98,189.71 260.98,189.71 C256.93,189.89 251.46,192.60 251.20,192.86 C251.64,192.82 257.52,190.97 261.22,190.66 C262.64,190.51 266.23,190.91 267.50,190.43 C267.73,190.34 269.84,189.59 270.07,189.63 C270.07,189.63 271.19,189.35 271.19,189.35 C271.19,189.35 258.80,185.84 258.80,185.84 C258.80,185.84 266.95,187.37 266.95,187.37 C266.95,187.37 254.68,184.93 254.68,184.93 C259.52,184.60 262.75,186.53 262.97,186.90 C262.58,187.36 258.41,187.78 257.34,187.76 C251.70,187.63 250.73,185.60 250.69,185.26 C250.99,184.66 253.57,183.83 255.60,183.93 C257.17,184.03 259.40,184.95 259.69,185.47 C260.02,186.18 259.19,187.57 257.50,188.52 C254.74,190.03 250.08,189.82 249.61,188.86 C249.41,188.37 250.63,187.01 252.31,186.43 C255.81,185.26 257.25,186.17 257.41,186.37 C256.78,187.54 251.71,189.18 248.87,189.55 C247.33,189.75 246.36,189.54 245.83,189.06 C245.58,188.31 246.28,186.68 247.71,185.64 C249.49,184.38 252.49,183.75 253.55,183.95 C253.84,184.82 253.90,185.14 253.69,185.47 C252.56,187.11 249.84,188.95 247.94,189.67 C246.33,190.26 243.64,190.51 243.08,190.28 C242.46,189.98 242.13,188.62 242.72,187.72 C244.54,185.14 250.64,184.22 251.11,184.60 C251.23,185.05 250.69,185.86 249.11,186.73 C246.83,187.95 241.81,189.23 240.22,188.97 C239.93,188.19 242.23,186.07 244.09,185.04 C247.84,182.98 250.65,183.36 250.90,183.46 C250.93,184.23 247.90,185.76 245.81,186.37 C241.60,187.56 239.61,187.06 239.31,186.89 C239.04,186.33 239.75,184.79 241.48,183.79 C243.42,182.73 248.21,182.35 249.69,182.54 C249.71,185.13 234.38,189.26 233.84,189.07 C233.48,188.28 234.69,185.52 236.27,184.37 C238.86,182.56 244.15,182.28 244.52,182.49 C244.49,182.61 232.04,188.36 231.40,187.68 C231.38,187.63 231.31,187.55 231.21,187.44 C231.19,186.90 233.61,184.76 235.33,184.20 C236.54,183.80 239.90,182.98 241.42,182.52 C237.69,184.02 233.98,185.40 231.17,186.44 C229.65,187.02 226.15,189.24 226.10,189.24 C226.53,187.76 233.83,183.54 234.44,184.27 C234.44,184.27 223.24,188.27 223.24,188.27 C223.24,188.27 226.06,187.17 226.06,187.17 C226.06,187.17 225.06,188.01 225.06,188.01 C227.54,186.62 231.88,186.49 232.73,186.52 C232.90,186.53 233.15,186.54 233.47,186.57" fill="none" stroke="rgb(49, 49, 49)" stroke-width="6.00" stroke-opacity="1.00" stroke-linejoin="round"/>
<path d="M229.47,187.82 C227.95,187.99 226.44,188.24 225.40,188.51 C223.31,189.09 220.05,189.54 220.01,189.64 C220.37,189.69 230.75,188.19 233.45,188.03 C233.58,188.02 233.99,188.00 233.85,188.00" fill="none" stroke="rgb(49, 49, 49)" stroke-width="6.00" stroke-opacity="1.00" stroke-linejoin="round"/>
</g>
<g stroke-linecap="round" transform="translate(-86.00, -179.00)" id="Layer_6">
<path d="M192.16,199.07 C191.63,198.98 189.63,198.36 186.79,198.73 C180.96,199.12 172.22,199.91 162.20,200.86 C160.24,201.07 146.93,203.14 139.42,205.14 C130.51,207.60 121.23,210.89 114.11,214.41 C110.94,216.00 107.07,218.25 103.60,220.51 C101.15,222.12 97.57,224.94 95.21,227.86 C92.73,230.97 87.63,242.12 87.69,244.25 C87.74,245.31 88.90,248.04 89.45,248.68 C89.64,248.89 89.97,249.12 90.44,249.37" fill="none" stroke="rgb(0, 0, 0)" stroke-width="4.00" stroke-opacity="1.00" stroke-linejoin="round"/>
<path d="M88.28,246.92 C89.54,249.58 90.22,250.88 90.75,251.26 C93.05,252.86 97.74,253.40 101.17,252.74 C103.57,252.25 112.62,252.07 113.76,252.07 C115.52,252.10 117.62,252.81 118.60,253.70 C119.28,254.37 121.40,257.33 121.87,258.30 C122.55,259.80 122.67,262.23 122.30,264.22 C122.13,265.02 120.17,269.14 120.02,269.50 C119.37,271.08 119.56,274.54 120.30,276.62 C120.40,276.88 120.56,277.30 120.78,277.88" fill="none" stroke="rgb(0, 0, 0)" stroke-width="4.00" stroke-opacity="1.00" stroke-linejoin="round"/>
<path d="M119.74,274.01 C119.72,275.24 121.09,278.86 123.09,281.09 C125.25,283.45 141.92,294.42 145.61,295.70 C150.36,297.31 179.92,305.33 185.08,306.25 C191.80,307.39 198.81,306.57 205.31,305.60 C206.00,305.51 206.69,305.42 207.38,305.33" fill="none" stroke="rgb(0, 0, 0)" stroke-width="4.00" stroke-opacity="1.00" stroke-linejoin="round"/>
<path d="M205.82,305.03 C208.14,304.26 212.14,304.28 212.92,303.74 C214.74,302.48 216.15,302.42 217.24,302.85" fill="none" stroke="rgb(0, 0, 0)" stroke-width="4.00" stroke-opacity="1.00" stroke-linejoin="round"/>
<path d="M188.53,199.31 C188.59,199.60 188.04,200.58 182.27,207.25 C175.22,215.42 166.82,229.26 166.49,231.30 C166.00,234.60 168.03,240.64 169.45,242.45 C171.54,245.04 175.26,247.65 177.58,248.87 C180.25,250.24 188.34,254.36 188.94,254.71 C191.44,256.19 194.74,260.25 195.63,263.15 C196.20,265.07 196.86,271.65 197.53,274.85 C198.19,277.90 200.69,283.23 203.07,286.08 C205.37,288.79 212.84,294.76 213.42,295.37 C213.93,295.90 216.58,299.78 217.26,300.54" fill="none" stroke="rgb(0, 0, 0)" stroke-width="4.00" stroke-opacity="1.00" stroke-linejoin="round"/>
<path d="M192.09,198.12 C192.67,198.33 196.98,198.96 198.40,199.02 C198.63,199.03 198.82,199.05 198.99,199.07" fill="none" stroke="rgb(0, 0, 0)" stroke-width="4.00" stroke-opacity="1.00" stroke-linejoin="round"/>
<path d="M200.80,197.41 C201.81,196.18 215.69,189.35 218.81,188.14 C231.26,183.34 243.70,181.49 247.83,181.03 C248.50,180.96 249.17,180.88 249.84,180.81" fill="none" stroke="rgb(0, 0, 0)" stroke-width="4.00" stroke-opacity="1.00" stroke-linejoin="round"/>
<path d="M248.31,181.66 C249.10,181.08 253.75,181.73 256.25,182.78 C256.81,183.02 263.59,184.40 267.50,185.90 C273.04,188.22 285.39,193.02 288.72,194.83 C291.86,196.57 294.11,198.16 294.49,198.62" fill="none" stroke="rgb(0, 0, 0)" stroke-width="4.00" stroke-opacity="1.00" stroke-linejoin="round"/>
<path d="M213.15,191.47 C214.12,192.58 223.16,194.48 232.45,195.20 C234.74,195.33 244.70,195.01 245.00,194.99 C247.25,194.81 273.06,190.45 273.48,190.42 C273.68,190.40 273.96,190.40 274.34,190.42" fill="none" stroke="rgb(0, 0, 0)" stroke-width="4.00" stroke-opacity="1.00" stroke-linejoin="round"/>
<path d="M201.08,198.87 C202.65,201.80 206.89,206.54 209.03,208.07 C209.89,208.67 215.54,211.69 219.12,214.11 C221.37,215.65 224.92,216.94 227.90,217.39 C231.74,217.94 248.10,217.86 252.64,217.37 C254.92,217.11 266.93,215.23 269.58,214.20 C270.19,213.95 270.80,213.71 271.41,213.46" fill="none" stroke="rgb(0, 0, 0)" stroke-width="4.00" stroke-opacity="1.00" stroke-linejoin="round"/>
<path d="M268.11,214.31 C269.92,214.71 277.17,211.34 278.47,210.97 C281.18,210.18 292.20,201.27 294.99,199.92 C295.51,199.67 296.35,199.31 297.50,198.83" fill="none" stroke="rgb(0, 0, 0)" stroke-width="4.00" stroke-opacity="1.00" stroke-linejoin="round"/>
<path d="M214.28,297.63 C215.36,298.24 217.57,300.17 218.45,300.83 C218.75,301.05 225.88,302.78 228.14,303.01 C233.32,303.48 240.97,300.19 247.15,296.94 C247.84,296.58 248.53,296.22 249.22,295.86" fill="none" stroke="rgb(0, 0, 0)" stroke-width="4.00" stroke-opacity="1.00" stroke-linejoin="round"/>
<path d="M245.56,296.92 C246.53,296.55 248.53,295.21 249.36,294.86 C250.03,294.58 257.88,293.18 261.80,293.67 C262.27,293.73 262.79,293.77 263.36,293.79" fill="none" stroke="rgb(0, 0, 0)" stroke-width="4.00" stroke-opacity="1.00" stroke-linejoin="round"/>
<path d="M262.15,293.93 C263.55,294.45 267.30,293.85 270.44,292.90 C274.11,291.75 279.20,288.93 280.16,288.38 C282.48,287.02 291.34,277.55 292.83,275.72 C293.15,275.32 294.50,273.46 295.21,272.50 C295.37,272.28 295.53,272.06 295.69,271.84" fill="none" stroke="rgb(0, 0, 0)" stroke-width="4.00" stroke-opacity="1.00" stroke-linejoin="round"/>
<path d="M295.16,274.72 C295.54,273.77 298.51,270.86 299.92,269.20 C300.91,268.04 305.05,264.36 307.62,260.74 C310.91,256.11 314.79,248.98 317.92,241.54 C319.85,237.00 321.31,233.62 321.69,232.01 C322.25,229.56 322.01,224.08 321.77,220.37 C321.73,219.82 321.70,219.27 321.66,218.72" fill="none" stroke="rgb(0, 0, 0)" stroke-width="4.00" stroke-opacity="1.00" stroke-linejoin="round"/>
<path d="M322.38,221.37 C322.47,220.15 322.28,218.51 321.77,217.11 C321.42,216.15 317.51,207.96 316.74,207.06 C315.24,205.38 311.43,202.71 308.50,201.84 C306.36,201.29 301.97,200.05 301.71,200.00 C300.89,199.85 298.58,199.86 296.02,199.96 C295.96,199.97 295.76,199.99 295.82,199.99" fill="none" stroke="rgb(0, 0, 0)" stroke-width="4.00" stroke-opacity="1.00" stroke-linejoin="round"/>
<path d="M299.01,197.34 C300.42,196.91 302.30,196.29 303.79,195.73 C309.56,193.58 329.32,188.85 338.20,189.32 C339.92,189.41 349.04,189.87 349.88,189.95" fill="none" stroke="rgb(0, 0, 0)" stroke-width="4.00" stroke-opacity="1.00" stroke-linejoin="round"/>
<path d="M351.25,189.88 C351.97,190.26 355.79,191.62 359.01,192.16 C361.27,192.56 365.79,194.37 368.18,196.20 C370.78,198.19 382.83,206.45 382.97,206.61" fill="none" stroke="rgb(0, 0, 0)" stroke-width="4.00" stroke-opacity="1.00" stroke-linejoin="round"/>
<path d="M381.46,205.72 C381.98,205.84 382.85,206.50 383.23,206.70 C385.57,207.73 388.44,209.74 391.09,210.87 C393.11,211.72 398.32,213.43 400.12,214.58 C400.68,214.91 403.86,216.38 404.45,216.77 C405.87,217.72 407.65,219.71 408.12,220.88 C408.66,222.34 408.64,226.33 408.30,229.67 C407.68,235.58 404.89,241.76 404.88,242.05 C404.69,246.72 404.23,248.31 402.38,252.46 C400.74,256.05 398.79,257.91 395.50,259.63 C393.93,260.42 389.63,262.57 388.92,262.94 C388.58,263.12 388.35,263.26 388.24,263.35" fill="none" stroke="rgb(0, 0, 0)" stroke-width="4.00" stroke-opacity="1.00" stroke-linejoin="round"/>
<path d="M392.01,261.04 C391.83,261.60 385.60,265.09 382.33,265.53 C379.15,265.97 376.07,266.92 374.44,267.99 C373.82,268.39 371.50,270.12 371.01,270.39 C368.46,271.78 357.16,273.04 356.84,273.73" fill="none" stroke="rgb(0, 0, 0)" stroke-width="4.00" stroke-opacity="1.00" stroke-linejoin="round"/>
<path d="M358.74,273.40 C358.74,273.40 358.81,273.19 358.81,273.19 C357.12,273.83 355.15,276.10 352.40,279.60 C351.74,280.48 345.66,290.39 342.21,293.13 C339.97,294.87 336.99,296.35 336.21,296.66 C336.04,296.73 335.85,296.80 335.65,296.88" fill="none" stroke="rgb(0, 0, 0)" stroke-width="4.00" stroke-opacity="1.00" stroke-linejoin="round"/>
<path d="M338.47,295.15 C337.39,295.83 335.09,297.03 332.78,297.77 C331.24,298.25 322.49,300.03 320.38,300.09 C315.40,300.26 313.01,300.04 311.49,299.57 C311.27,299.50 310.99,299.39 310.65,299.26" fill="none" stroke="rgb(0, 0, 0)" stroke-width="4.00" stroke-opacity="1.00" stroke-linejoin="round"/>
<path d="M313.00,300.34 C312.37,300.08 309.76,299.28 308.37,298.64 C306.42,297.86 296.80,291.23 296.43,291.01 C295.96,290.75 292.18,286.99 289.07,285.72 C288.35,285.43 287.44,285.29 286.60,285.21" fill="none" stroke="rgb(0, 0, 0)" stroke-width="4.00" stroke-opacity="1.00" stroke-linejoin="round"/>
</g>
<g stroke-linecap="round" transform="translate(-86.00, -179.00)" id="Layer_3">
<path d="M255.32,198.30 C255.68,198.30 260.10,200.18 255.20,200.92 C252.45,201.14 254.16,198.47 254.58,198.10 C255.44,198.49 255.73,198.66 255.67,199.01 C255.60,199.46 255.52,199.91 255.44,200.36" fill="none" stroke="rgb(49, 49, 49)" stroke-width="6.00" stroke-opacity="1.00" stroke-linejoin="round"/>
<path d="M236.55,199.46 C236.55,199.46 234.81,201.99 234.81,201.99 C234.81,201.99 234.60,199.07 234.60,199.07 C235.53,199.53 235.95,199.93 235.85,200.46 C235.83,200.58 235.74,200.90 235.59,201.41" fill="none" stroke="rgb(49, 49, 49)" stroke-width="6.00" stroke-opacity="1.00" stroke-linejoin="round"/>
<path d="M267.98,205.09 C263.06,205.41 253.75,203.40 252.92,203.19 C252.60,203.10 252.28,203.00 251.97,202.87" fill="none" stroke="rgb(49, 49, 49)" stroke-width="6.00" stroke-opacity="1.00" stroke-linejoin="round"/>
<path d="M239.38,203.83 C236.49,204.76 230.55,206.65 227.51,207.61 C225.43,208.24 221.17,209.19 220.05,209.43 C219.81,209.48 219.58,209.54 219.34,209.60" fill="none" stroke="rgb(49, 49, 49)" stroke-width="6.00" stroke-opacity="1.00" stroke-linejoin="round"/>
</g>
</svg>
