<?xml version="1.0"?>
<svg width="475" height="260" xmlns="http://www.w3.org/2000/svg" xmlns:svg="http://www.w3.org/2000/svg">
 <g class="layer">
  <title>Layer 1</title>
  <g id="Layer_2_2" stroke-linecap="round">
   <path d="m166.64,123.9c-1.49,-0.54 -1.99,-0.9 -2,-1.68c0.02,-2.26 1.71,-7.68 3.56,-10.43c1.78,-2.58 6.3,-5.44 8.85,-5.96c2.09,-0.4 5.3,0 5.95,0.67c0.19,0.22 0.71,1.41 0.53,1.97c-0.91,2.57 -4.41,6.38 -6.49,7.96c-2.2,1.64 -3.6,1.79 -4.37,1.61c-0.83,-0.99 -0.27,-4.2 1.09,-6.54c1.3,-2.17 4.51,-5.37 5.75,-6.44c0.35,-0.3 1.01,-0.84 1.98,-1.63" fill="none" id="svg_26" stroke="rgb(255, 255, 255)" stroke-linejoin="round" stroke-opacity="1" stroke-width="30"/>
   <path d="m175.49,108.83c0,0 -0.97,-0.97 -0.97,-0.97c-0.19,-0.75 2.11,-5.28 3.62,-7.26c1.62,-2.06 6.17,-5.83 9.37,-6.76c1.55,-0.43 5.12,-0.71 6.93,-0.61c0.55,0.04 1.74,0.15 3.55,0.34" fill="none" id="svg_27" stroke="rgb(255, 255, 255)" stroke-linejoin="round" stroke-opacity="1" stroke-width="30"/>
   <path d="m195.13,97.95c1.22,-0.5 10.54,-8.16 14.27,-10.25c5.6,-3.09 13.27,-4.4 16.32,-4.42c0.33,0 0.9,0.01 1.7,0.03" fill="none" id="svg_28" stroke="rgb(255, 255, 255)" stroke-linejoin="round" stroke-opacity="1" stroke-width="30"/>
   <path d="m219.35,84.93c0.54,-0.85 1.19,-1.45 2.06,-1.62c2.02,-0.37 8.13,-0.21 13.06,0.44c8.8,1.2 15.33,2.62 16.49,2.95c0.28,0.08 0.68,0.21 1.19,0.39" fill="none" id="svg_29" stroke="rgb(255, 255, 255)" stroke-linejoin="round" stroke-opacity="1" stroke-width="30"/>
   <path d="m245.18,87.64c2.48,1.54 8.45,5.22 11.07,6.67c2.33,1.28 13.47,6.53 15.5,8.23c0.23,0.19 2.28,2.32 3.01,2.98" fill="none" id="svg_30" stroke="rgb(255, 255, 255)" stroke-linejoin="round" stroke-opacity="1" stroke-width="30"/>
   <path d="m266.1,96.72c1.62,1.24 17.69,6.94 21.12,8.84c1.47,0.83 3.33,3.37 3.26,3.61c0,0 -1.2,0.68 -1.2,0.68c-1.5,-0.6 -3.07,-4.38 -2.29,-6.16c0.38,-0.78 2.97,-1.16 5.63,0.33c1.24,0.71 2.85,2.34 3.14,3.15c0.21,0.75 -0.05,2.52 -0.55,3.44c-1.17,2.07 -10.47,10.18 -11.11,11.19c0,0 4.71,-3.36 4.71,-3.36c0.87,0.87 1.1,1.63 0.57,2.71c-1.28,2.58 -12.01,18.83 -12.2,18.79c1.1,-1.96 5.61,-7.07 8.28,-9.41c2.64,-2.29 5.21,-3.39 5.45,-3.29c0,0 -19.01,24.67 -19.01,24.67c0,0 7.4,-12.68 7.4,-12.68c-5.2,6.33 -12.23,14.23 -15.83,18.87c-3.6,4.86 -9.6,12.83 -10.42,13.18c0.33,-1.86 3.61,-6.7 5.86,-9.56c1.55,-1.95 4.68,-4.8 4.76,-4.6c-5.8,9.56 -18.06,17.83 -18.41,17.31c-0.93,-1.34 7.3,-9.32 8.55,-9.7c0.29,0.83 -3.68,4.44 -7.31,6.33c-3.71,1.88 -10.16,3.23 -12.34,2.45c-0.33,-0.12 -0.91,-0.43 -1.74,-0.91c0,0 -0.28,-1.21 -0.28,-1.21c0,0 3.19,-1.82 3.19,-1.82c-0.68,1.38 -5.66,3.85 -8.94,4.96c-3.22,1.06 -4.74,0.99 -4.92,0.79c0,0 7.79,-4.33 7.79,-4.33c-1.03,2.12 -4.93,4.61 -7.15,5.78c-2.77,1.45 -4.62,1.92 -4.87,1.75c0,0 5.16,-4.47 5.16,-4.47c-0.62,1.74 -6.55,5.39 -9.01,5.46c-0.93,0 -2.1,-0.44 -2.33,-0.81c-0.45,-0.99 0.42,-3.62 1.76,-5.3c1.51,-1.83 4.4,-3.56 5.56,-3.17c0.55,1.07 -0.79,4.32 -2.58,6.23c-1.91,1.99 -6.37,4.57 -8.1,4.7c-1,0.02 -2.76,-0.84 -3.52,-1.85c-1.46,-2.01 -2.96,-7.04 -3.21,-8.88c-0.27,-2.17 -0.08,-6.12 0.36,-8.46c0.52,-2.53 2.82,-7.75 4.33,-8.71c0.7,-0.41 2.42,-0.59 3.25,-0.35c0.93,0.32 2.41,1.67 2.92,2.72c1,2.25 0.26,8.33 -1.24,11.92c-1.52,3.53 -5.49,9.09 -7.64,9.83c-2.23,0.69 -6.43,-2.17 -8.15,-4.19c-2.83,-3.44 -8.21,-14.08 -9.72,-19.4c-0.73,-2.64 -1.56,-7.82 -1.64,-10.15c-0.06,-2.56 0.78,-8.21 1.86,-9.84c0.62,-0.85 2.32,-1.54 3.41,-1.34c1.27,0.3 3.71,2.2 4.44,3.64c1.32,2.72 0.97,8.11 0.42,9.9c-0.69,2.13 -3.12,5.97 -4.71,7.47c-1.36,1.24 -5.79,3.59 -8.97,3.83c-1.67,0.1 -5.48,-0.75 -6.9,-1.54c-2.66,-1.52 -5.79,-5.66 -6.6,-7.4c-0.94,-2.08 -1.98,-6.72 -2.02,-9.04c-0.02,-2.32 0.9,-6.61 1.82,-8.54c0.93,-1.9 3.62,-5.15 5.3,-6.38c1.77,-1.26 5.9,-2.72 8.04,-2.82c2.05,-0.07 7.09,1.39 8.82,2.59c1.91,1.38 4.26,4.97 4.53,6.95c0.21,1.92 -1.08,5.81 -2.48,7.67c-1.37,1.77 -5.1,4.79 -7.45,6.06c-2.69,1.41 -7.12,2.84 -9.45,3.16c-1.98,0.25 -6.62,-0.08 -9.52,-1.79c-1.19,-0.72 -3.14,-4.39 -3.36,-6.55c-0.2,-2.25 0.83,-7.59 2.03,-10.41c1.26,-2.9 5.04,-8.49 7.36,-10.82c2.48,-2.44 8.03,-5.77 11.04,-6.54c3.1,-0.74 9.66,-0.19 12.99,1.03c2.92,1.1 9.4,4.71 12.67,7.19c2.96,2.27 7.36,6.56 8.76,8.59c1.39,2.08 2.54,6.12 2.4,8.31c-0.16,1.99 -1.87,6.75 -2.87,7.97c-1.32,1.56 -3.35,3.28 -4.25,3.55c-1.84,0.49 -4.76,-0.41 -6.1,-1.97c-1.42,-1.72 -3.16,-6.65 -3.63,-10.01c-0.67,-5.26 0.87,-14.97 2.42,-19c1.62,-4.18 7.67,-13.31 12.16,-16.52c2.52,-1.75 7.82,-3.43 10.4,-3.29c2.56,0.18 7.63,2.41 10.01,4.44c2.45,2.12 6.29,7.3 7.69,9.75c1.45,2.6 4.12,9.51 4.7,12.13c0.7,3.28 0.58,9.16 -0.17,11.6c-0.77,2.34 -3.43,5.63 -5.14,6.39c-1.72,0.71 -5.49,0.16 -7.43,-1.04c-1.89,-1.22 -5.51,-5.29 -6.98,-7.83c-1.52,-2.69 -3.45,-8.74 -3.76,-12.01c-0.28,-3.41 0.67,-10.55 1.86,-13.97c1.21,-3.37 4.79,-9.11 6.93,-11.16c2.1,-1.95 6.65,-4.03 8.93,-4.12c2.24,-0.04 6.56,1.73 8.43,3.48c1.88,1.83 4.91,7.17 5.98,10.51c1.03,3.36 1.96,10.62 1.8,14.15c-0.19,3.51 -1.82,9.94 -3.2,12.78c-1.39,2.78 -5.12,7.36 -7.36,9.01c-2.25,1.61 -7.25,3.43 -9.8,3.59c-2.52,0.12 -7.24,-1.12 -9.09,-2.44c-1.91,-1.43 -4.31,-5.75 -4.62,-8.48c-0.28,-2.82 1.15,-9.14 2.79,-12.26c1.69,-3.15 6.62,-8.7 9.64,-10.85c3.05,-2.12 9.8,-4.71 13.21,-5.12c3.41,-0.35 9.5,0.83 11.85,2.3c2.28,1.51 5.03,6.03 5.39,8.8c0.31,2.71 -0.97,8.73 -2.44,11.86c-1.46,3 -5.8,9.03 -8.34,11.63c-2.47,2.49 -8.13,7.04 -11.53,9.08c-3.29,1.95 -8.98,4.31 -11.42,4.91c-2.64,0.6 -6.92,0.08 -8.41,-1.16c-1.52,-1.36 -2.83,-6.07 -2.45,-9.16c0.64,-4.77 5.79,-14.11 8.79,-17.93c2.38,-3.02 9.8,-10.5 15.63,-14.69c2.88,-2.06 8,-4.99 10.17,-5.97c1.37,-0.63 3.72,-1.57 5.11,-2.1" fill="none" id="svg_31" stroke="rgb(255, 255, 255)" stroke-linejoin="round" stroke-opacity="1" stroke-width="30"/>
  </g>
  <g id="Layer_3_2" stroke-linecap="round">
   <path d="m-239.4,98.18" fill="none" id="svg_75" stroke="rgb(72, 72, 72)" stroke-linejoin="round" stroke-opacity="1" stroke-width="30"/>
   <path d="m178.4,101.42c0,0 0,6.68 0,6.68c0,0 0.62,0.93 0.62,0.93c0,0 3.88,4.97 3.88,4.97c0,0 4.19,4.34 4.19,4.34" fill="none" id="svg_107" stroke="rgb(72, 72, 72)" stroke-linejoin="round" stroke-opacity="1" stroke-width="30"/>
   <path d="m185.08,112.91c3.93,2.91 12.81,6.34 13.66,6.68c3.23,1.25 5.12,1.85 5.9,2.01" fill="none" id="svg_108" stroke="rgb(72, 72, 72)" stroke-linejoin="round" stroke-opacity="1" stroke-width="30"/>
   <path d="m191.44,111.51c0,0 6.05,2.95 6.05,2.95c0,0 2.18,0.62 2.18,0.62c2.03,0.53 15.03,5.04 28.41,6.52c0.73,-0.01 5.64,0 7.45,0" fill="none" id="svg_109" stroke="rgb(72, 72, 72)" stroke-linejoin="round" stroke-opacity="1" stroke-width="30"/>
   <path d="m219.07,119.74c1.27,0.01 5.57,0.29 18.94,0.31c5.84,0.06 15.24,-0.97 16.14,-0.93c1.34,0.05 13.04,-0.78 13.97,-0.93c1.27,-0.07 6,0.03 8.39,-0.31" fill="none" id="svg_110" stroke="rgb(72, 72, 72)" stroke-linejoin="round" stroke-opacity="1" stroke-width="30"/>
   <path d="m250.89,120.05c5.53,-2.45 9,-4.2 10.25,-5.12c1.99,-1.99 7.66,-5.08 12.11,-7.3" fill="none" id="svg_111" stroke="rgb(72, 72, 72)" stroke-linejoin="round" stroke-opacity="1" stroke-width="30"/>
   <path d="m272.47,109.96c0,0 6.06,-6.36 6.06,-6.36c0,0 1.86,-1.24 1.86,-1.24c0,0 2.33,-1.25 2.33,-1.25" fill="none" id="svg_112" stroke="rgb(72, 72, 72)" stroke-linejoin="round" stroke-opacity="1" stroke-width="30"/>
   <path d="m283.34,100.8c2.83,0.68 4.65,1.32 5.9,2.33c2.04,1.65 2.78,3.07 2.48,4.35c0,0 -1.55,3.41 -1.55,3.41c0,0 -0.31,1.71 -0.31,1.71" fill="none" id="svg_113" stroke="rgb(72, 72, 72)" stroke-linejoin="round" stroke-opacity="1" stroke-width="30"/>
   <path d="m289.55,113.53c0,0 0,1.09 0,1.09c0,0 -0.31,1.86 -0.31,1.86c0,0 -1.56,9.63 -1.56,9.63c0,0 -0.31,1.24 -0.31,1.24c0,0 -2.64,3.57 -2.64,3.57" fill="none" id="svg_114" stroke="rgb(72, 72, 72)" stroke-linejoin="round" stroke-opacity="1" stroke-width="30"/>
   <path d="m287.37,127.5c-1.85,2 -7.21,8.67 -8.84,9.78c-2.08,1.41 -9.27,7.71 -10.25,8.69c-0.09,0.08 -0.74,0.59 -1.09,0.94c0.7,-1.84 7.49,-6.32 7.92,-6.37c1.47,-0.1 -1.16,3.42 -2.48,5.12c-0.94,1.25 -3.03,4.01 -3.88,4.97" fill="none" id="svg_115" stroke="rgb(72, 72, 72)" stroke-linejoin="round" stroke-opacity="1" stroke-width="30"/>
   <path d="m273.4,145.97c-0.34,0.43 -3.49,6 -5.12,7.92c-1.37,1.59 -4.71,4.73 -4.97,4.81c-0.17,0.05 0.04,-0.46 0.62,-1.55" fill="none" id="svg_116" stroke="rgb(72, 72, 72)" stroke-linejoin="round" stroke-opacity="1" stroke-width="30"/>
   <path d="m279.61,139.77c0,0 -7.45,10.71 -7.45,10.71" fill="none" id="svg_117" stroke="rgb(72, 72, 72)" stroke-linejoin="round" stroke-opacity="1" stroke-width="30"/>
   <path d="m273.09,149.39c-2.71,4.04 -7.26,9.92 -10.09,12.42c-1.56,1.35 -3.48,2.64 -6.36,4.19" fill="none" id="svg_118" stroke="rgb(72, 72, 72)" stroke-linejoin="round" stroke-opacity="1" stroke-width="30"/>
   <path d="m262.38,162.89c-12.3,9.76 -17.17,11.31 -19.09,11.8" fill="none" id="svg_119" stroke="rgb(72, 72, 72)" stroke-linejoin="round" stroke-opacity="1" stroke-width="30"/>
   <path d="m242.2,174.38c0,0 -13.5,-1.55 -13.5,-1.55" fill="none" id="svg_120" stroke="rgb(72, 72, 72)" stroke-linejoin="round" stroke-opacity="1" stroke-width="30"/>
   <path d="m228.54,172.83c0,0 -10.24,6.21 -10.24,6.21c0,0 -0.78,0.31 -0.78,0.31" fill="none" id="svg_121" stroke="rgb(72, 72, 72)" stroke-linejoin="round" stroke-opacity="1" stroke-width="30"/>
   <path d="m221.87,177.33c0,0 -2.64,1.71 -2.64,1.71c0,0 -8.07,2.79 -8.07,2.79c0,0 -0.94,0.62 -0.94,0.62c0,0 -1.39,0.62 -1.39,0.62" fill="none" id="svg_122" stroke="rgb(72, 72, 72)" stroke-linejoin="round" stroke-opacity="1" stroke-width="30"/>
   <path d="m173.51,107.58c-1.03,0.96 -3.96,5.26 -4.83,6.86c-2.72,5.12 -1.21,9.69 -0.77,10.08c0.26,0.23 0.99,0.73 2.17,1.53" fill="none" id="svg_123" stroke="rgb(72, 72, 72)" stroke-linejoin="round" stroke-opacity="1" stroke-width="30"/>
   <path d="m169.08,114.87c-2.42,0.34 -3.61,0.85 -4.13,2.06c-0.57,1.37 -0.96,3.38 -0.85,4.62c0.15,1.26 1.29,3.78 2.15,4.64c0.84,0.8 3.11,1.87 3.89,1.95c0.21,0.01 0.55,-0.02 1.03,-0.09" fill="none" id="svg_124" stroke="rgb(72, 72, 72)" stroke-linejoin="round" stroke-opacity="1" stroke-width="30"/>
   <path d="m167.26,124.14c-0.06,1.14 1.9,5.06 3.73,7.01c1.95,2.01 7.04,4.8 11.65,6.8c2.96,1.34 6.07,4.47 6.36,5.22" fill="none" id="svg_125" stroke="rgb(72, 72, 72)" stroke-linejoin="round" stroke-opacity="1" stroke-width="30"/>
   <path d="m184.96,136.12c1.47,0.64 4.79,5.02 6.82,8.62c1.41,2.56 6.83,16.97 9.18,19.04c0.19,0.16 0.47,0.33 0.85,0.5c0,0 -0.19,-1.21 -0.19,-1.21" fill="none" id="svg_126" stroke="rgb(72, 72, 72)" stroke-linejoin="round" stroke-opacity="1" stroke-width="30"/>
   <path d="m191.27,149.08c-0.59,2.01 0.7,6.99 1.76,9.72c0.48,1.22 4.63,9.98 5.71,10.39c0.35,0.12 0.91,-0.21 1.69,-0.99" fill="none" id="svg_127" stroke="rgb(72, 72, 72)" stroke-linejoin="round" stroke-opacity="1" stroke-width="30"/>
   <path d="m192.5,156.11c0.12,2.2 2.17,5.78 3.32,7.79c1.59,2.7 4.8,6.4 7.19,7.48c0.83,0.37 1.99,0.5 2.23,0.41" fill="none" id="svg_128" stroke="rgb(72, 72, 72)" stroke-linejoin="round" stroke-opacity="1" stroke-width="30"/>
   <path d="m193.35,165.27c0,0 -0.4,-2.14 -0.4,-2.14c0,0 1.15,-0.34 1.15,-0.34" fill="none" id="svg_129" stroke="rgb(72, 72, 72)" stroke-linejoin="round" stroke-opacity="1" stroke-width="30"/>
   <path d="m213.18,159.61c-1.16,0.32 -2.52,0.23 -3.59,-0.46c-1.69,-1.13 -5.28,-7.18 -6.21,-10.77c-0.86,-3.53 -0.58,-10.16 0.4,-12.42c0.47,-0.99 1.85,-2.39 2.71,-2.7c2.19,-0.66 7.29,1.92 9.59,3.94c1.93,1.75 4.81,4.88 6.07,6.65c1.09,1.57 3.37,6.3 3.77,9.47c0.38,3.29 -1.37,8.8 -2.69,9.49c-0.7,0.29 -2.37,-0.14 -3.18,-1c-1.69,-1.85 -3.74,-7.71 -4.02,-9.6c-0.37,-2.62 0.18,-7.6 1.1,-9.87c0.94,-2.21 3.98,-5.95 6.02,-7.46c1.99,-1.43 6.92,-3.65 9.6,-4.32c2.8,-0.68 8.24,-0.9 10.72,-0.37c2.48,0.55 6.47,2.81 7.87,4.41c1.29,1.53 2.61,5.15 2.66,7.16c0.02,1.89 -0.92,5.9 -1.78,7.74c-0.85,1.79 -2.95,4.45 -4.09,5.22c-1.11,0.73 -3.27,0.98 -4.3,0.5c-1.04,-0.52 -2.88,-2.8 -3.56,-4.5c-0.72,-1.88 -1.24,-6.28 -0.91,-8.6c0.37,-2.41 2.35,-6.97 3.93,-9.03c1.58,-2.03 5.65,-5.34 7.95,-6.45c2.34,-1.1 7.01,-1.89 9.06,-1.5c2.06,0.44 4.94,2.86 5.57,4.74c0.59,1.89 0.09,6.51 -0.96,9.57c-1.42,4.02 -8.07,15.07 -11.09,17.61c-1.52,1.27 -3.64,2.51 -4.23,2.47c-1.2,-0.15 -2.41,-2.32 -2.55,-4.63c-0.09,-1.96 0.56,-7.8 1.65,-11.11c1.63,-4.89 6.74,-13.01 10.42,-16.78c0.48,-0.48 2.8,-2.53 3.47,-2.99c0.45,-0.31 1.55,-1 3.29,-2.07" fill="none" id="svg_130" stroke="rgb(72, 72, 72)" stroke-linejoin="round" stroke-opacity="1" stroke-width="30"/>
   <path d="m76.81,82.15c0,0 -3.93,0 -3.93,0c0,0 -10.33,4.75 -10.33,4.75c0,0 -9.71,8.27 -9.71,8.27c0,0 0,1.23 0,1.23c0,0 -0.41,1.04 -0.41,1.04" fill="none" id="svg_131" stroke="rgb(255, 255, 255)" stroke-linejoin="round" stroke-opacity="1" stroke-width="30"/>
   <path d="m52.86,98.83c-4.96,8.42 -8.48,15.47 -9.7,20.49c-0.37,1.54 -0.95,6.06 -1.01,8.29c-0.03,2.54 1.33,8.27 2.58,9.23c0.27,0.2 0.92,0.53 1.95,0.98" fill="none" id="svg_132" stroke="rgb(255, 255, 255)" stroke-linejoin="round" stroke-opacity="1" stroke-width="30"/>
   <path d="m50.22,102.49c-1.98,0.76 -2.94,1.51 -3.56,3.17c-2,5.48 -3.74,15.55 -3.92,21.5c-0.16,5.96 1.39,17.81 3.39,22.21c0.44,0.96 0.9,1.58 1.37,1.86c0.33,0.18 1.16,0.45 2.47,0.79" fill="none" id="svg_133" stroke="rgb(255, 255, 255)" stroke-linejoin="round" stroke-opacity="1" stroke-width="30"/>
   <path d="m41.78,127.2c-1.52,1.99 -2.31,5.22 -2.36,9.01c-0.02,3.96 2.37,12.98 4.45,17.38c1.21,2.52 4.43,7.62 6.15,9.33c0.84,0.81 2.75,2.12 3.66,2.42c0.41,0.12 1.43,0.37 3.04,0.74" fill="none" id="svg_134" stroke="rgb(255, 255, 255)" stroke-linejoin="round" stroke-opacity="1" stroke-width="30"/>
   <path d="m39.6,132.3c-0.51,1.68 -0.6,6.41 -0.03,9.18c0.77,3.64 3.92,10.13 6.14,13.11c1.85,2.43 7.4,7.8 9.54,9.33c2.49,1.75 7.05,3.33 10.27,3.7c1.37,0.16 4.28,0.38 5.65,0.49c1.66,0.11 2.98,0.32 4.91,0.72" fill="none" id="svg_135" stroke="rgb(255, 255, 255)" stroke-linejoin="round" stroke-opacity="1" stroke-width="30"/>
   <path d="m56.78,164.55c1.02,2.13 6.54,5.81 10.03,6.85c2.31,0.65 13.28,1.49 14.73,1.71c2.08,0.32 6.11,1.83 7.59,2.23c0.39,0.11 0.88,0.2 1.44,0.27" fill="none" id="svg_136" stroke="rgb(255, 255, 255)" stroke-linejoin="round" stroke-opacity="1" stroke-width="30"/>
   <path d="m81.64,169.52c0.77,1.26 5.21,3.15 8.15,3.75c2.6,0.49 8.06,0.44 11.58,0.05c3.06,-0.34 6.54,0.19 6.7,-0.05c0.14,-0.25 0.88,-1.28 1.53,-1.47c0.56,-0.15 4.12,-0.81 5.01,-1.33c-2.4,-0.5 -27.09,-2.28 -30.31,-2.65c-1.76,-0.2 -7.87,-1.42 -9.06,-2.48c-0.72,-0.71 -1.19,-2.8 -0.88,-4.05c0.66,-2.4 3.67,-6.46 5.2,-7.83c1.84,-1.6 6.25,-4.11 8.71,-4.99c2.01,-0.7 7.43,-1.79 10.14,-1.63c1.5,0.09 2.43,0.69 2.8,1.45c-0.69,1.69 -5.23,4.53 -8.22,5.72c-2.85,1.09 -8.86,2.5 -11.79,2.77c-2.59,0.22 -7.69,-0.16 -9.77,-0.69c-2.47,-0.68 -7.54,-3.76 -8.94,-6.6c-1.34,-2.84 -0.66,-8.86 0.32,-11.38c0.96,-2.35 4,-6.95 5.96,-8.89c2.11,-2.03 6.81,-4.78 9.46,-5.57c2.81,-0.78 8.37,-0.68 9.52,0.05c1.18,0.82 2.13,3.2 2.07,5.1c-0.11,2.04 -1.58,6.54 -2.94,8.64c-1.39,2.09 -5.24,5.71 -7.37,6.93c-2.25,1.24 -6.74,2.08 -8.87,1.58c-2.2,-0.56 -5.98,-3.67 -7.4,-6.14c-1.42,-2.57 -2.95,-9.14 -2.97,-12.87c0.02,-3.72 1.52,-11.45 2.93,-15.29c1.42,-3.78 4.93,-10.14 7.2,-13.34c2.08,-2.89 6.56,-6.95 8.51,-8.07c2.04,-1.13 6.04,-1.58 7.83,-0.9c1.52,0.63 4.63,3.78 5.66,5.61c1.73,3.13 5.82,15.72 5.56,16.37c0,0 -1.34,-1.67 -1.34,-1.67" fill="none" id="svg_137" stroke="rgb(255, 255, 255)" stroke-linejoin="round" stroke-opacity="1" stroke-width="30"/>
   <path d="m86.88,82.29c1.2,0.59 8.24,1.7 9.25,1.86c4.11,0.65 22.32,6.16 22.71,6.25c0.36,0.09 1.27,0.29 2.75,0.61" fill="none" id="svg_138" stroke="rgb(255, 255, 255)" stroke-linejoin="round" stroke-opacity="1" stroke-width="30"/>
   <path d="m76.19,102.08c-0.66,0.96 -1.07,2.82 -0.64,4.47c0.59,2.23 3.44,6.73 3.57,6.91c0.2,0.27 0.63,0.8 1.29,1.61" fill="none" id="svg_139" stroke="rgb(255, 255, 255)" stroke-linejoin="round" stroke-opacity="1" stroke-width="30"/>
   <path d="m97.73,84.1c3.36,0.72 10.33,2.22 13.95,3c6.39,1.44 18.79,5.4 24.55,7.9c1.44,0.62 3.33,1.56 4.43,2.17c0.23,0.13 0.42,0.25 0.56,0.35" fill="none" id="svg_140" stroke="rgb(255, 255, 255)" stroke-linejoin="round" stroke-opacity="1" stroke-width="30"/>
   <path d="m129.06,88.44c2.49,0.39 4.12,0.8 5.75,1.58c3.06,1.46 9.24,4.91 12.17,6.55c1.13,0.66 2.27,1.31 3.4,1.97c0.31,0.18 0.62,0.36 0.93,0.53" fill="none" id="svg_141" stroke="rgb(255, 255, 255)" stroke-linejoin="round" stroke-opacity="1" stroke-width="30"/>
   <path d="m141.41,98.87c0,0 -8.77,16.2 -8.77,16.2c2.46,-5.8 8.52,-13.91 8.83,-13.22c0,0 -11.03,18.74 -11.03,18.74c0,0 4.01,-11.39 4.01,-11.39c-0.52,5.27 -10.9,34.97 -12.44,37.87c-0.67,-1.47 2.56,-18.42 4.93,-26.96c0.61,-2.13 1.44,-4.77 1.98,-6.26c0.13,-0.38 0.33,-0.89 0.59,-1.54" fill="none" id="svg_142" stroke="rgb(255, 255, 255)" stroke-linejoin="round" stroke-opacity="1" stroke-width="30"/>
   <path d="m129.47,97.07c-2.6,2.55 -7.38,11.99 -9.96,19.38c-4.12,11.84 -5.43,14.94 -6.32,15.82c-1.35,-0.79 -2.12,-2.12 -2.5,-4.58c-0.66,-4.37 -0.16,-15.45 0.93,-20.15c1.86,-7.65 4.54,-9.45 5.59,-9.71c1.87,0.66 3.94,4.81 4.48,7.58c0.45,2.49 0.39,7.59 -0.11,10.34c-0.48,2.51 -2.2,7.8 -3.29,10.18c-3.56,7.57 -7.35,9.63 -8.69,9.94c-2.13,-0.83 -4.34,-5.27 -4.91,-7.98c-0.44,-2.29 -0.45,-7.15 -0.11,-9.05c0.81,-4.27 2.11,-6.12 2.96,-6.86c0,0 1.34,0.05 1.34,0.05c1.85,2.07 3.29,6.25 3.91,9.38c1.24,6.44 1.82,30.14 1.36,32.94c-1.2,0.29 -6.22,-3.45 -7.95,-4.73c-0.96,-0.69 -2.07,-1.49 -2.03,-1.47c1.73,2.08 12.57,15.85 16.87,19.84c2.7,2.48 7.5,6.2 9.82,7.64c1.78,1.1 2.78,1.56 3.13,1.51" fill="none" id="svg_143" stroke="rgb(255, 255, 255)" stroke-linejoin="round" stroke-opacity="1" stroke-width="30"/>
   <path d="m114.21,165.82c0.82,2 1.57,3.17 2.86,4.15c4.11,3.12 23.53,14.94 24.21,15.22c0.4,0.15 0.93,0.2 1.61,0.14" fill="none" id="svg_144" stroke="rgb(255, 255, 255)" stroke-linejoin="round" stroke-opacity="1" stroke-width="30"/>
   <path d="m116.85,172.01c0.37,1.92 2.95,4.5 6.13,7.22c1.7,1.44 6.85,4.97 7.71,5.44c3.73,1.97 8.51,2.9 11.08,2.99c0.3,0.01 0.82,0.01 1.55,-0.02" fill="none" id="svg_145" stroke="rgb(255, 255, 255)" stroke-linejoin="round" stroke-opacity="1" stroke-width="30"/>
   <path d="m137.49,133.88c1.79,11.56 3.36,19.69 5.99,29.4c1.24,4.23 2.27,7.23 3.1,9.23" fill="none" id="svg_146" stroke="rgb(255, 255, 255)" stroke-linejoin="round" stroke-opacity="1" stroke-width="30"/>
   <path d="m138.11,153.53c-2.05,8.9 -2.79,10.14 -4.26,12.17c0,0 -3.23,-14.5 -3.23,-14.5c2.23,3.14 6.04,6.11 8.9,7.41c4.73,2.11 13.77,3.55 16.21,3.86c1.24,0.25 1.75,1.07 1.7,2.57c-0.23,4.75 2.36,13.15 2.75,14.32c0.19,0.58 0.38,1.16 0.57,1.74" fill="none" id="svg_147" stroke="rgb(255, 255, 255)" stroke-linejoin="round" stroke-opacity="1" stroke-width="30"/>
   <path d="m153.63,162.88c1.77,3.01 15.46,22.95 15.94,23.54c0.8,0.99 2.13,2 2.51,2.12" fill="none" id="svg_148" stroke="rgb(255, 255, 255)" stroke-linejoin="round" stroke-opacity="1" stroke-width="30"/>
   <path d="m165.16,173.72c2.29,3.14 6.58,7.39 9.94,10.38c0.45,0.39 1.28,1.11 2.51,2.16" fill="none" id="svg_149" stroke="rgb(255, 255, 255)" stroke-linejoin="round" stroke-opacity="1" stroke-width="30"/>
   <path d="m178.13,184.7c0,0 3.26,3.33 3.26,3.33" fill="none" id="svg_150" stroke="rgb(255, 255, 255)" stroke-linejoin="round" stroke-opacity="1" stroke-width="30"/>
   <path d="m179.61,189.44c-2.89,1.51 -9.74,2.45 -13.45,2.16c-7.23,-0.62 -11.55,-3.28 -11.76,-3.7c0.47,-1.18 1.07,-1.81 2.18,-2.03c7.75,-1.47 9.53,-0.23 10.11,0.32c0.09,1.06 -2.18,3.15 -5.36,3.93c-1.79,0.42 -5.28,0.47 -6.9,0.11c-2.45,-0.6 -5.07,-2.87 -5.36,-3.49c-0.13,-0.31 -0.38,-1.07 -0.75,-2.29" fill="none" id="svg_151" stroke="rgb(255, 255, 255)" stroke-linejoin="round" stroke-opacity="1" stroke-width="30"/>
   <path d="m298.31,83.95c1.05,-0.2 1.84,-0.26 3.34,-0.22c2.27,0.04 6.13,-0.1 8.32,-0.77c0.24,-0.08 0.45,-0.14 0.64,-0.19" fill="none" id="svg_152" stroke="rgb(255, 255, 255)" stroke-linejoin="round" stroke-opacity="1" stroke-width="30"/>
   <path d="m301.04,84.94c1.89,-0.45 8.08,-3.42 8.98,-3.88c2.69,-1.33 7.75,-2.95 11.58,-3.21c8.82,-0.61 13.04,-1.59 13.71,-1.82c0.27,-0.09 0.75,-0.28 1.45,-0.56" fill="none" id="svg_153" stroke="rgb(255, 255, 255)" stroke-linejoin="round" stroke-opacity="1" stroke-width="30"/>
   <path d="m320.73,75.41c2.85,-1.94 13.18,-3.85 17.43,-3.57c0.28,0.03 3.46,0.37 4.17,0.51c3.37,0.66 8.38,2.47 9.72,2.95" fill="none" id="svg_154" stroke="rgb(255, 255, 255)" stroke-linejoin="round" stroke-opacity="1" stroke-width="30"/>
   <path d="m344.82,72.52c2.54,-1.63 8.11,-2.89 10.2,-3c2.16,-0.09 9.01,0.01 10.83,0.21c4.86,0.56 10.89,2.2 13.35,3.71c1.36,0.85 4.46,4.74 4.86,5.19c0.16,0.18 0.33,0.32 0.5,0.41" fill="none" id="svg_155" stroke="rgb(255, 255, 255)" stroke-linejoin="round" stroke-opacity="1" stroke-width="30"/>
   <path d="m376.45,70.17c2.11,0.94 17.07,3.1 22.23,5.24c5.43,2.29 19.04,11.67 19.67,12.03c0.43,0.24 1.06,0.5 1.88,0.78" fill="none" id="svg_156" stroke="rgb(255, 255, 255)" stroke-linejoin="round" stroke-opacity="1" stroke-width="30"/>
   <path d="m312.39,88.37c0.51,1.78 2.83,5.95 3.76,8.39c1.82,4.81 3.79,16.17 3.89,23.38c0.04,3.25 -0.35,8.21 -0.86,12.86" fill="none" id="svg_157" stroke="rgb(255, 255, 255)" stroke-linejoin="round" stroke-opacity="1" stroke-width="30"/>
   <path d="m320.41,97.95c-0.7,3.15 -3.31,20.65 -4.48,28.5c-1.15,7.17 -4.39,23.58 -5.59,28.19c-0.32,1.24 -1.22,4.46 -1.59,5.74" fill="none" id="svg_158" stroke="rgb(255, 255, 255)" stroke-linejoin="round" stroke-opacity="1" stroke-width="30"/>
   <path d="m317.27,129.84c-6.19,6.64 -15.06,25.15 -16.2,27.91c-0.58,1.45 -1.1,3.11 -1.88,5.93" fill="none" id="svg_159" stroke="rgb(255, 255, 255)" stroke-linejoin="round" stroke-opacity="1" stroke-width="30"/>
   <path d="m306.63,149.04c-2.04,0.84 -4.01,3.48 -7.23,8.22c-2.11,3.19 -4.55,7.94 -4.64,8c-2.37,1.58 -5.61,5.71 -5.6,5.7c25.76,6.51 27.71,6.86 30.32,7.22c0.38,0.05 0.78,0.11 1.21,0.18" fill="none" id="svg_160" stroke="rgb(255, 255, 255)" stroke-linejoin="round" stroke-opacity="1" stroke-width="30"/>
   <path d="m306.12,177.68c0.53,0.74 3.43,1.93 6.19,2.38c8.3,1.3 19.29,0.39 20.59,-0.48c0.18,-0.12 0.59,-0.46 1.23,-1" fill="none" id="svg_161" stroke="rgb(255, 255, 255)" stroke-linejoin="round" stroke-opacity="1" stroke-width="30"/>
   <path d="m327.68,178.27c1.6,0.5 3.01,0.11 6.92,-1.9c10.37,-5.3 14.32,-7.55 15.4,-8.61c1.96,-1.97 3.38,-4.07 4.24,-6.27c0.13,-0.34 0.21,-0.63 0.24,-0.87" fill="none" id="svg_162" stroke="rgb(255, 255, 255)" stroke-linejoin="round" stroke-opacity="1" stroke-width="30"/>
   <path d="m337.78,176.87c0,0 -0.52,3.55 -0.52,3.55c1.2,0.76 4.28,-1.43 8.13,-4.95c1.29,-1.18 4.11,-3.75 5.64,-5.15c1.8,-1.63 3.76,-3.65 4.48,-4.65c0.24,-0.35 0.49,-0.84 0.76,-1.49" fill="none" id="svg_163" stroke="rgb(255, 255, 255)" stroke-linejoin="round" stroke-opacity="1" stroke-width="30"/>
   <path d="m352.57,168.06c2.26,-3.52 4.71,-8.49 6.12,-11.3c2.68,-5.24 9.48,-13.47 9.92,-13.99c0.87,-0.99 1.74,-1.99 2.61,-2.99" fill="none" id="svg_164" stroke="rgb(255, 255, 255)" stroke-linejoin="round" stroke-opacity="1" stroke-width="30"/>
   <path d="m366.33,158.16c1.72,-2.24 3.93,-4.33 6.49,-6.24c4.06,-2.98 8.14,-6.18 9.4,-7.42c0.18,-0.18 0.46,-0.48 0.83,-0.9" fill="none" id="svg_165" stroke="rgb(255, 255, 255)" stroke-linejoin="round" stroke-opacity="1" stroke-width="30"/>
   <path d="m376.4,151.61c1.33,0.57 6.5,3.39 8.96,4.01c2.03,0.48 6.95,0.65 12.56,0.65c0.77,0 1.54,0 2.31,0" fill="none" id="svg_166" stroke="rgb(255, 255, 255)" stroke-linejoin="round" stroke-opacity="1" stroke-width="30"/>
   <path d="m380.14,156.49c2.53,1.19 9.91,2.09 13.13,1.85c3,-0.25 6.66,-1.45 7.51,-1.8c0.22,-0.09 0.6,-0.27 1.17,-0.53" fill="none" id="svg_167" stroke="rgb(255, 255, 255)" stroke-linejoin="round" stroke-opacity="1" stroke-width="30"/>
   <path d="m381.8,158.3c3.64,-0.16 12.87,-0.18 14.4,-0.3c5.6,-0.47 11.23,-3.82 13.01,-5.09c0.37,-0.26 1.05,-0.76 2.03,-1.49" fill="none" id="svg_168" stroke="rgb(255, 255, 255)" stroke-linejoin="round" stroke-opacity="1" stroke-width="30"/>
   <path d="m387.16,157.76c3.42,-0.38 6.77,-0.87 10.35,-1.87c3.95,-1.16 12.3,-3.62 13.18,-4.64c0.33,-0.4 0.64,-1.05 0.92,-1.96c0.06,-0.21 0.1,-0.44 0.1,-0.67" fill="none" id="svg_169" stroke="rgb(255, 255, 255)" stroke-linejoin="round" stroke-opacity="1" stroke-width="30"/>
   <path d="m401.49,155.14c0,1.81 0.58,2.81 2.14,2.85c1.25,0.02 4.44,-0.51 6.56,-1.04c2.07,-0.57 4.56,-1.96 5.67,-3.32c0.85,-1.08 4.14,-7.64 4.53,-8.31c0.17,-0.29 0.44,-0.68 0.8,-1.18" fill="none" id="svg_170" stroke="rgb(255, 255, 255)" stroke-linejoin="round" stroke-opacity="1" stroke-width="30"/>
   <path d="m417.69,149.99c0.18,-2.63 4.37,-17.16 4.93,-21.88c0.17,-1.43 0.32,-3.59 0.36,-4.88c0.03,-1.03 0,-2.8 -0.02,-3.81" fill="none" id="svg_171" stroke="rgb(255, 255, 255)" stroke-linejoin="round" stroke-opacity="1" stroke-width="30"/>
   <path d="m422.25,146.51c-0.29,-2.22 1.16,-7.91 2.28,-11.45c1.31,-4.11 2.47,-9.2 2.5,-11.82c0,-2.61 -1.1,-7.68 -2.12,-11.61c-0.39,-1.47 -0.65,-3.97 -0.68,-6.02c0,-0.36 0.03,-0.52 0.1,-0.46" fill="none" id="svg_172" stroke="rgb(255, 255, 255)" stroke-linejoin="round" stroke-opacity="1" stroke-width="30"/>
   <path d="m413.98,98.85c0.27,1.38 3.14,7.39 3.35,7.95c1.33,3.67 1.62,8.18 1.63,9.86c0,3.15 0.41,5.53 0.59,5.5c0.3,-2.15 -1.05,-6.2 -1.81,-9.15c-1.94,-7.71 -1.39,-12.57 -1.07,-12.69c0.82,-0.05 1.52,0.2 2.08,0.98c1.39,2.01 2.85,8.27 2.97,11.61c0.08,3.07 -0.1,4.89 -0.16,4.91c0,0 -1.9,-13.52 -1.9,-13.52c0,0 -0.1,11.84 -0.1,11.84c0,0 -3.51,-3.68 -3.51,-3.68c-1.57,0.48 -3.53,4 -4.69,7.68c-1.72,5.39 -3.77,11.28 -5.23,14.22c-1.76,3.46 -5.05,7.2 -6.53,7.6c-1.49,0.33 -3.87,-0.64 -4.89,-2.03c-0.99,-1.43 -2.54,-5.8 -2.93,-8.87c-0.36,-3.03 -0.29,-9.59 0.14,-13.02c0.46,-3.48 2.08,-9.68 3.19,-12.28c1.16,-2.65 4.3,-7.02 6.06,-7.54c0.74,-0.19 2.45,1.38 3.12,3.03c0.76,2 1.29,6.79 1.1,9.81c-0.19,2.6 -1.76,9.06 -2.82,11.92c-2.41,6.42 -7.35,11.72 -8.91,12.47c-1.92,0.86 -5.07,1.27 -6.53,0.62c-2.39,-1.09 -5.04,-5.56 -5.66,-7.51c-0.76,-2.52 -1.37,-8.46 -1.1,-12.41c0.48,-6.41 4.73,-19.67 6.71,-23.29c2.03,-3.64 5.8,-8.74 7.34,-9.84c1.5,-1.05 3.33,-1.82 3.83,-1.58c1,0.58 1.87,3.3 1.94,6.09c0.05,3.33 -0.87,9.83 -1.9,13.46c-1.02,3.5 -4.05,10.53 -5.92,13.83c-1.91,3.34 -6.13,8.88 -8.36,10.95c-1.95,1.77 -6.69,4.67 -10.09,5.15c-1.34,0.16 -4.26,-1.59 -5.19,-3.25c-0.93,-1.76 -1.84,-6.89 -1.72,-10.04c0.17,-3.4 1.77,-10.52 3.16,-14.46c1.25,-3.49 4.9,-10.46 6.77,-13.15c1.98,-2.8 5.67,-6.15 6.47,-5.93c0.91,0.1 1.12,4.84 0.33,8.46c-1.34,5.87 -5.83,15.99 -11.34,26.57c-4.59,8.58 -11.02,18.21 -14.36,21.6c-2.36,2.37 -6.79,4.87 -8.56,4.81c-1.77,-0.12 -4.32,-3.01 -5.03,-5.72c-0.66,-2.62 -0.79,-9.32 -0.37,-12.98c0.73,-6.16 4.65,-18.58 7.8,-24.56c1.34,-2.53 4.75,-7.41 6.78,-9.4c1.92,-1.85 5.6,-3.66 6.81,-3.39c1.2,0.32 2.55,3.48 2.56,5.95c-0.05,5.63 -3.51,17.39 -5.92,23.46c-6.97,16.85 -15.89,32.18 -19.6,36.8c-1.96,2.39 -6.46,6.28 -8.63,7.08c-2.06,0.7 -5.59,-0.35 -7.06,-2.04c-1.43,-1.74 -3.47,-7.01 -4.05,-10.77c-0.88,-6 0.3,-16.98 1.39,-21.28c1.7,-6.61 6.71,-18.43 10.06,-23.36c1.99,-2.87 5.89,-6.92 8.52,-8.14c0.56,-0.25 1.49,0.04 1.99,0.29c1.01,0.68 1.84,6.36 1.56,10.82c-0.25,3.53 -3.28,17.58 -5.03,23.79c-2.83,9.49 -5.77,17.68 -8.24,21.4c-1.58,2.34 -4.82,4.38 -6.28,3.98c-1.48,-0.48 -3.9,-4.18 -4.91,-7.62c-1.27,-4.44 -1.89,-18.26 -0.84,-25.57c1.11,-7.46 5.55,-20.92 8.98,-27.44c1.67,-3.14 4.68,-7.56 7.05,-10.11c2.23,-2.36 6.5,-4.93 8.01,-5.09c1.59,-0.12 4.19,1.59 5.1,3.28c3.18,6.12 4.37,22.28 4.41,23.22c0,0.13 0,0.27 0.01,0.44" fill="none" id="svg_173" stroke="rgb(255, 255, 255)" stroke-linejoin="round" stroke-opacity="1" stroke-width="30"/>
  </g>
  <g id="Layer_2" stroke-linecap="round">
   <path d="m197.27,81.62c1.51,0.06 2.5,0.26 4.11,0.89c5.97,2.32 12.22,3.76 14.84,4.31" fill="none" id="svg_177" stroke="rgb(49, 49, 49)" stroke-linejoin="round" stroke-opacity="1" stroke-width="6"/>
   <path d="m200.28,81.09c1.23,1.05 2.12,1.57 3.25,1.7c7.84,0.85 18.14,2.6 19.89,2.65c3.47,0.08 4.74,-1.57 4.91,-2.03c-0.5,0.21 -2.32,1.27 -2.44,1.32c-1.83,0.71 -5.47,-0.16 -9.47,-1.58c0,0 14.84,0.87 14.84,0.87c-0.48,-0.01 -5.09,0.87 -7.49,0.99c-1.4,0.06 -2.76,-0.12 -4.75,-0.56c3.39,0.65 13.39,-1.23 20.32,-2.29c1.52,-0.21 3.75,-0.48 4.6,-0.58c0,0 -11.58,1.77 -11.58,1.77c0,0 9.86,-0.28 9.86,-0.28c0,0 -11.26,1.38 -11.26,1.38c2.69,0.14 11.04,-2.22 11.25,-2.24c1.08,-0.06 4.2,-0.08 6.96,-0.63c0,0 -5.95,1.01 -5.95,1.01c0,0 7.91,-1.8 7.91,-1.8c0,0 1.5,0.62 1.5,0.62c0.1,-0.29 -13.56,-1.75 -12.26,-6.03c0,0 9.56,2.99 9.56,2.99c0,0 -11.02,-2.78 -11.02,-2.78c-0.01,-0.07 10.85,1.85 11.64,2.59c0.24,0.24 3.35,3.25 3.82,3.55c-0.32,-0.08 -11.59,-6.59 -13.7,-7.24c-2.58,-0.79 -4.59,-0.68 -4.96,-0.56c0,0 6.36,-0.15 6.36,-0.15c-0.11,1.11 -10.61,-0.25 -11.79,-0.81c0,0 5.11,-0.48 5.11,-0.48c0,0 -14.15,2.78 -14.15,2.78c0,0 7.07,-3.25 7.07,-3.25c0,0 -10.47,2.95 -10.47,2.95c0,0 5.49,-1.92 5.49,-1.92c0,0 -10.34,3.75 -10.34,3.75c0,0 6.93,-3.1 6.93,-3.1c0,0 -11.29,4.37 -11.29,4.37c0,0 4.8,-3.49 4.8,-3.49c0,0 -9.72,5.62 -9.72,5.62c0,0 1.1,-0.26 1.1,-0.26c0,0 -2.46,1 -2.46,1c0,0 8.16,-2.12 8.16,-2.12c0,0 -9.03,1.34 -9.03,1.34c0,0 8.79,-3.32 8.79,-3.32c0,0 -9.42,3.3 -9.42,3.3c-0.02,0.01 3.28,-1.19 7.06,-1.7c5.8,-0.76 14.01,-0.66 14.78,-1.02c0,0 -11.41,1.68 -11.41,1.68c0.6,-0.31 5,-0.64 10.75,-0.88c4.76,-0.17 5.9,0.01 7.39,0.47c-0.64,1.06 -1.6,1.62 -3.82,2.08c-4.64,0.92 -8.66,1.36 -10.56,0.99c-1.3,-0.26 -2.73,-0.87 -3.66,-1.45c0.05,-0.96 5.15,-2.45 8.55,-2.97c2.78,-0.39 9,-0.54 11.19,0.02c1.27,0.35 1.79,0.96 1.97,1.34c-0.64,0.94 -13.78,1.76 -17.4,0.96c-0.82,-0.19 -1.6,-0.54 -1.66,-0.66c5.52,-2.5 22.85,-0.84 24.18,-0.05c-0.78,0.52 -6.96,1.48 -11.05,1.78c-6.97,0.48 -10.03,-1.5 -10.27,-2.19c0.36,-0.68 3.54,-1.71 7.67,-1.96c4.13,-0.24 14.02,1.16 17.7,2.05c0,0 -11.56,1.16 -11.56,1.16c0,0 15.55,2.2 15.55,2.2c-0.77,0.39 -5.35,0.64 -7.94,-0.32c-1.87,-0.7 -3.23,-1.57 -3.33,-1.98c0.81,-0.11 1.38,-0.11 2.05,0.06c0.61,0.15 1.1,0.28 1.24,0.33" fill="none" id="svg_178" stroke="rgb(49, 49, 49)" stroke-linejoin="round" stroke-opacity="1" stroke-width="6"/>
  </g>
  <g id="Layer_3_Copy" stroke-linecap="round" transform="translate(-436.00, -110.00)">
   <path d="m674.32,200.3c0.36,0 4.78,1.88 -0.12,2.62c-2.75,0.22 -1.04,-2.45 -0.62,-2.82c0.86,0.39 1.15,0.56 1.09,0.91c-0.07,0.45 -0.15,0.9 -0.23,1.35" fill="none" id="svg_206" stroke="rgb(49, 49, 49)" stroke-linejoin="round" stroke-opacity="1" stroke-width="6"/>
   <path d="m655.55,201.46c0,0 -1.74,2.53 -1.74,2.53c0,0 -0.21,-2.92 -0.21,-2.92c0.93,0.46 1.35,0.86 1.25,1.39c-0.02,0.12 -0.11,0.44 -0.26,0.95" fill="none" id="svg_207" stroke="rgb(49, 49, 49)" stroke-linejoin="round" stroke-opacity="1" stroke-width="6"/>
   <path d="m686.98,207.09c-4.92,0.32 -14.23,-1.69 -15.06,-1.9c-0.32,-0.09 -0.64,-0.19 -0.95,-0.32" fill="none" id="svg_208" stroke="rgb(49, 49, 49)" stroke-linejoin="round" stroke-opacity="1" stroke-width="6"/>
   <path d="m658.38,205.83c-2.89,0.93 -8.83,2.82 -11.87,3.78c-2.08,0.63 -6.34,1.58 -7.46,1.82c-0.24,0.05 -0.47,0.11 -0.71,0.17" fill="none" id="svg_209" stroke="rgb(49, 49, 49)" stroke-linejoin="round" stroke-opacity="1" stroke-width="6"/>
  </g>
  <g id="Layer_7" stroke-linecap="round" transform="translate(-436.00, -110.00)">
   <path d="m623.9,202.96c0.12,0.33 0.82,1.19 1.11,1.55c2.61,3.19 5.64,5.59 9.82,7.81c2.21,1.48 5.21,3.39 10.05,4.97c3.24,1.04 3.77,1.19 6.53,1.81c0.52,0.12 1.44,0.34 2.73,0.66" fill="none" id="svg_210" stroke="rgb(0, 0, 0)" stroke-linejoin="round" stroke-opacity="1" stroke-width="4"/>
   <path d="m649.76,217.82c1.11,0.39 21.4,1.78 26.06,0.94c2.1,-0.4 9.15,-1.9 9.78,-2.07c0.5,-0.14 1.19,-0.38 2.09,-0.73" fill="none" id="svg_211" stroke="rgb(0, 0, 0)" stroke-linejoin="round" stroke-opacity="1" stroke-width="4"/>
   <path d="m683.88,216.59c3.75,-1.69 10.05,-5.26 18.52,-10.69c0.72,-0.48 6.6,-4.97 7.22,-5.25c0.24,-0.11 1.14,-0.5 2.7,-1.16" fill="none" id="svg_212" stroke="rgb(0, 0, 0)" stroke-linejoin="round" stroke-opacity="1" stroke-width="4"/>
   <path d="m708.67,202.11c2.25,-1.02 9.01,-3.49 10.26,-3.67c3.72,-0.47 14.05,3.38 14.18,3.4c0.33,0.05 1.01,0.08 2.03,0.08" fill="none" id="svg_213" stroke="rgb(0, 0, 0)" stroke-linejoin="round" stroke-opacity="1" stroke-width="4"/>
   <path d="m732.83,201.47c1.63,2.05 3.25,4.45 3.5,5.98c0.1,0.65 1.67,6.04 2.14,8.31c1.07,4.19 1.48,9.98 1.1,14.07c-0.67,6.65 -2.76,14.84 -5.5,18.87c-0.27,0.39 -0.74,1.04 -1.43,1.94" fill="none" id="svg_214" stroke="rgb(0, 0, 0)" stroke-linejoin="round" stroke-opacity="1" stroke-width="4"/>
   <path d="m734.54,247.84c-2.46,2.97 -4.74,5.56 -5.7,6.86c-6.47,8.77 -11.39,16.94 -13.73,19.63c-0.33,0.38 -8.53,8.61 -9,9.05c-0.39,0.36 -1.25,1.12 -2.59,2.28" fill="none" id="svg_215" stroke="rgb(0, 0, 0)" stroke-linejoin="round" stroke-opacity="1" stroke-width="4"/>
   <path d="m707.95,281.81c-1.06,1.12 -1.94,1.94 -3.59,3.25c-5.54,4.37 -7.74,5.92 -10.22,6.86c-1.3,0.58 -5.32,2.89 -6.34,3.34c-0.52,0.23 -4.02,1.05 -5.41,1.42c-0.38,0.1 -0.82,0.24 -1.3,0.4" fill="none" id="svg_216" stroke="rgb(0, 0, 0)" stroke-linejoin="round" stroke-opacity="1" stroke-width="4"/>
   <path d="m686.88,295.44c-1.08,1.02 -3.35,0.32 -5.49,0.33c-1.33,0.12 -3.5,0.24 -6.82,-0.7c-2.57,-0.71 -4.66,-0.13 -5.67,0.35c-0.24,0.13 -0.71,0.38 -1.4,0.76" fill="none" id="svg_217" stroke="rgb(0, 0, 0)" stroke-linejoin="round" stroke-opacity="1" stroke-width="4"/>
   <path d="m670.25,294.65c-1.64,0.82 -2.6,0.83 -3.53,1.38c-9.81,5.7 -11.51,6.43 -12.49,6.68c-0.39,0.1 -1.55,0.37 -3.5,0.83" fill="none" id="svg_218" stroke="rgb(0, 0, 0)" stroke-linejoin="round" stroke-opacity="1" stroke-width="4"/>
   <path d="m655.14,302.12c-0.32,0.03 -2.6,-0.16 -4.86,0.98c-1.05,0.51 -5.57,0.35 -8.16,-0.4c-1.92,-0.57 -6.8,-2.86 -9.93,-5.54c-0.35,-0.31 -0.87,-0.77 -1.55,-1.39" fill="none" id="svg_219" stroke="rgb(0, 0, 0)" stroke-linejoin="round" stroke-opacity="1" stroke-width="4"/>
   <path d="m633.39,297.45c-0.63,-0.79 -2.64,-1.59 -5.5,-4.39c-3.45,-3.4 -10.55,-9.03 -11.39,-10.45c-0.4,-0.69 -0.79,-1.38 -1.19,-2.07" fill="none" id="svg_220" stroke="rgb(0, 0, 0)" stroke-linejoin="round" stroke-opacity="1" stroke-width="4"/>
   <path d="m618.87,285.06c-0.29,-0.48 -2.36,-2.23 -3.41,-4.43c-1.71,-3.11 -2.52,-7.02 -3.01,-10.6c-0.17,-1.29 -0.72,-5.48 -1.53,-8.31c-0.15,-0.53 -0.4,-1.44 -0.73,-2.72" fill="none" id="svg_221" stroke="rgb(0, 0, 0)" stroke-linejoin="round" stroke-opacity="1" stroke-width="4"/>
   <path d="m612.18,262.58c-3.11,-3.55 -4.05,-4.57 -6.5,-5.91c-2.78,-1.57 -6.48,-3.58 -6.93,-3.8c-0.31,-0.15 -1.01,-0.51 -2.1,-1.08" fill="none" id="svg_222" stroke="rgb(0, 0, 0)" stroke-linejoin="round" stroke-opacity="1" stroke-width="4"/>
   <path d="m601.05,253.18c-1.92,-1.43 -5.27,-2.99 -5.84,-3.49c-1.15,-1.15 -5.36,-4.42 -6.75,-6.1c-0.69,-0.85 -2.17,-2.96 -2.65,-3.85c-1.1,-2.1 -0.99,-7.5 -0.81,-8.43c0.07,-0.3 0.29,-1.28 0.69,-2.96" fill="none" id="svg_223" stroke="rgb(0, 0, 0)" stroke-linejoin="round" stroke-opacity="1" stroke-width="4"/>
   <path d="m584.91,232.27c-0.22,-0.72 1.37,-6.49 2.54,-8.67c1.35,-2.45 9.81,-11.56 11.94,-14.46c0.29,-0.39 0.79,-1.02 1.47,-1.88" fill="none" id="svg_224" stroke="rgb(0, 0, 0)" stroke-linejoin="round" stroke-opacity="1" stroke-width="4"/>
   <path d="m600.85,206.92c3.05,-2.97 4.98,-4.3 8.67,-6.2c1.36,-0.67 3.17,-0.86 3.8,-0.95c0.22,-0.03 0.44,-0.11 0.68,-0.26" fill="none" id="svg_225" stroke="rgb(0, 0, 0)" stroke-linejoin="round" stroke-opacity="1" stroke-width="4"/>
   <path d="m612.15,198.89c1.48,-0.76 6.23,1.07 9.49,2.23c0.2,0.07 0.44,0.21 0.74,0.4c0.17,0.11 0.48,0.31 0.91,0.59" fill="none" id="svg_226" stroke="rgb(0, 0, 0)" stroke-linejoin="round" stroke-opacity="1" stroke-width="4"/>
   <path d="m617.16,198.07c4.04,-2.33 13.61,-7.84 21.81,-11.2c9.13,-3.72 11.45,-4.2 13.57,-4.41c0.23,-0.02 0.39,-0.06 0.5,-0.11" fill="none" id="svg_227" stroke="rgb(0, 0, 0)" stroke-linejoin="round" stroke-opacity="1" stroke-width="4"/>
   <path d="m650.64,181.98c1.62,-1.22 13.34,-2.14 19.83,-1.51c5.36,0.48 17.05,4.83 21,7.15c17.24,10.18 20.47,12.07 20.71,12.2" fill="none" id="svg_228" stroke="rgb(0, 0, 0)" stroke-linejoin="round" stroke-opacity="1" stroke-width="4"/>
   <path d="m601.73,205.73c-0.1,-0.02 -1.99,-2.54 -2.6,-2.96c-1.38,-0.91 -12.89,-8.06 -18.46,-10.32c-6.04,-2.35 -25.67,-6.03 -43.76,-10.2c-2.82,-0.58 -7.9,-1.61 -12.67,-2.24c-3.99,-0.51 -7.63,-0.34 -12.8,0.24c-8.72,1.07 -15.29,3.54 -16.14,3.74c-0.21,0.05 -0.48,0.12 -0.81,0.2" fill="none" id="svg_229" stroke="rgb(0, 0, 0)" stroke-linejoin="round" stroke-opacity="1" stroke-width="4"/>
   <path d="m499.26,182.06c-1.65,0.33 -5.59,3.23 -7.55,4.49c-2.21,1.43 -14.27,13.4 -15.81,15.23c-2.6,3.11 -8.2,12.32 -9.99,16.68c-1.74,4.27 -3.29,10.55 -4.88,21.16c-0.73,5.48 -0.19,14.82 1.61,20.1c1.02,2.95 3.11,7.75 5.2,12.22c0.35,0.79 0.71,1.58 1.06,2.37" fill="none" id="svg_230" stroke="rgb(0, 0, 0)" stroke-linejoin="round" stroke-opacity="1" stroke-width="4"/>
   <path d="m466.79,270.05c0.17,0.9 3.87,6.92 4.88,8.3c2.04,2.75 5.54,5.73 8.01,7.11c5.24,2.88 13.31,5.92 19.53,6.79c0.62,0.08 1.24,0.16 1.86,0.24" fill="none" id="svg_231" stroke="rgb(0, 0, 0)" stroke-linejoin="round" stroke-opacity="1" stroke-width="4"/>
   <path d="m500.09,291.48c-0.14,0.21 2.17,2.68 10.65,2.57c9.2,-0.16 15.01,0.7 21.66,0.31c3.86,-0.23 7.02,-0.55 7.78,-0.63c0.41,-0.04 0.82,-0.08 1.23,-0.12" fill="none" id="svg_232" stroke="rgb(0, 0, 0)" stroke-linejoin="round" stroke-opacity="1" stroke-width="4"/>
   <path d="m526.98,264.23c0.29,4.77 1.11,7.18 3.03,11.73c1.57,3.59 4,7.44 5.91,9.6c2.99,3.3 8.87,7.07 18.92,13.21c1.54,0.92 6.75,3.65 8.31,4.45c0.82,0.42 1.65,0.84 2.48,1.25" fill="none" id="svg_233" stroke="rgb(0, 0, 0)" stroke-linejoin="round" stroke-opacity="1" stroke-width="4"/>
   <path d="m563.23,301.19c1.32,1.18 5.82,3.22 8.21,4.31c0.55,0.24 24.96,6.96 33.59,8.74c0.53,0.11 1.06,0.23 1.6,0.35" fill="none" id="svg_234" stroke="rgb(0, 0, 0)" stroke-linejoin="round" stroke-opacity="1" stroke-width="4"/>
   <path d="m598.55,311.9c0.9,0.69 1.42,0.79 3.71,0.68c0.83,-0.04 4.47,0.11 4.95,0.05c0.57,-0.06 6.66,-1.57 10.28,-2.8c3.65,-1.18 7.68,-3.35 9.47,-4.59c1.71,-1.2 6.22,-5.11 7.52,-6.03c0.18,-0.13 0.33,-0.23 0.45,-0.3" fill="none" id="svg_235" stroke="rgb(0, 0, 0)" stroke-linejoin="round" stroke-opacity="1" stroke-width="4"/>
   <path d="m709.4,283.49c1.81,2.08 3.17,3.52 3.93,3.99c1,0.61 14.6,6.88 17.03,8.21c2.71,1.44 9.09,3.42 13.32,4.03c10.06,1.3 20.24,2.16 25.99,1.88c3.09,-0.16 10.42,-1.07 13.98,-1.53c1.78,-0.21 4.56,-0.53 5.56,-0.64" fill="none" id="svg_236" stroke="rgb(0, 0, 0)" stroke-linejoin="round" stroke-opacity="1" stroke-width="4"/>
   <path d="m783.54,298.73c0.63,0.19 1.36,0.28 1.98,0.17c0.07,-0.01 7.82,-4.8 9.06,-5.71c1.69,-1.25 10.77,-10.52 13.15,-14.22c1.29,-2.04 3.85,-7.56 4.14,-8.09c0.24,-0.46 0.76,-1.3 1.54,-2.54" fill="none" id="svg_237" stroke="rgb(0, 0, 0)" stroke-linejoin="round" stroke-opacity="1" stroke-width="4"/>
   <path d="m809.68,276.36c1.56,0.62 5.66,2.77 8.84,3.17c6.33,0.76 18.04,1.61 21.37,1.47c3.89,-0.2 16.33,-4.35 19.78,-6.84c1.67,-1.23 4.25,-4.23 5.59,-6.13c1.27,-1.8 3.1,-5.39 4.2,-8.58c0.1,-0.28 0.19,-0.55 0.28,-0.82" fill="none" id="svg_238" stroke="rgb(0, 0, 0)" stroke-linejoin="round" stroke-opacity="1" stroke-width="4"/>
   <path d="m867.94,261.43c0.13,-0.46 1.95,-4.12 2.78,-7.37c1.28,-5.35 4.91,-20.23 4.81,-24.88c-0.11,-3.17 -1.36,-10.54 -2.71,-13.8c-0.94,-2.23 -12.6,-19.8 -13.07,-20.5c-1.8,-2.65 -9.12,-9.64 -10.67,-10.93c-5.09,-4.19 -15.88,-8.94 -17.86,-10c-0.2,-0.11 -0.52,-0.29 -0.97,-0.55" fill="none" id="svg_239" stroke="rgb(0, 0, 0)" stroke-linejoin="round" stroke-opacity="1" stroke-width="4"/>
   <path d="m834.79,174.74c-0.49,-0.46 -1.49,-0.76 -1.87,-0.88c-0.69,-0.21 -14.86,-3.33 -21.31,-4.82c-4.12,-0.89 -13.49,-1.57 -20.4,-1.16c-1.93,0.12 -19.17,1.73 -25.37,3.49c-5.3,1.53 -17.16,6.22 -21.76,8.69c-11.59,6.27 -20.72,15.93 -21.65,16.98" fill="none" id="svg_240" stroke="rgb(0, 0, 0)" stroke-linejoin="round" stroke-opacity="1" stroke-width="4"/>
  </g>
 </g>
</svg>