<?xml version="1.0" encoding="UTF-8" standalone="no"?>
<!DOCTYPE svg PUBLIC "-//W3C//DTD SVG 1.1//EN" "http://www.w3.org/Graphics/SVG/1.1/DTD/svg11.dtd">
<svg width="100.80" height="36.00" viewBox="0.00 0.00 420.00 150.00" xmlns="http://www.w3.org/2000/svg" xmlns:xlink="http://www.w3.org/1999/xlink">
<g stroke-linecap="round" transform="translate(-458.00, -166.00)" id="Layer_2_2">
<path d="M602.64,233.90 C601.15,233.36 600.65,233.00 600.64,232.22 C600.66,229.96 602.35,224.54 604.20,221.79 C605.98,219.21 610.50,216.35 613.05,215.83 C615.14,215.43 618.35,215.83 619.00,216.50 C619.19,216.72 619.71,217.91 619.53,218.47 C618.62,221.04 615.12,224.85 613.04,226.43 C610.84,228.07 609.44,228.22 608.67,228.04 C607.84,227.05 608.40,223.84 609.76,221.50 C611.06,219.33 614.27,216.13 615.51,215.06 C615.86,214.76 616.52,214.22 617.49,213.43" fill="none" stroke="rgb(255, 255, 255)" stroke-width="30.00" stroke-opacity="1.00" stroke-linejoin="round"/>
<path d="M611.49,218.83 C611.49,218.83 610.52,217.86 610.52,217.86 C610.33,217.11 612.63,212.58 614.14,210.60 C615.76,208.54 620.31,204.77 623.51,203.84 C625.06,203.41 628.63,203.13 630.44,203.23 C630.99,203.27 632.18,203.38 633.99,203.57" fill="none" stroke="rgb(255, 255, 255)" stroke-width="30.00" stroke-opacity="1.00" stroke-linejoin="round"/>
<path d="M631.13,207.95 C632.35,207.45 641.67,199.79 645.40,197.70 C651.00,194.61 658.67,193.30 661.72,193.28 C662.05,193.28 662.62,193.29 663.42,193.31" fill="none" stroke="rgb(255, 255, 255)" stroke-width="30.00" stroke-opacity="1.00" stroke-linejoin="round"/>
<path d="M655.35,194.93 C655.89,194.08 656.54,193.48 657.41,193.31 C659.43,192.94 665.54,193.10 670.47,193.75 C679.27,194.95 685.80,196.37 686.96,196.70 C687.24,196.78 687.64,196.91 688.15,197.09" fill="none" stroke="rgb(255, 255, 255)" stroke-width="30.00" stroke-opacity="1.00" stroke-linejoin="round"/>
<path d="M681.18,197.64 C683.66,199.18 689.63,202.86 692.25,204.31 C694.58,205.59 705.72,210.84 707.75,212.54 C707.98,212.73 710.03,214.86 710.76,215.52" fill="none" stroke="rgb(255, 255, 255)" stroke-width="30.00" stroke-opacity="1.00" stroke-linejoin="round"/>
<path d="M702.10,206.72 C703.72,207.96 719.79,213.66 723.22,215.56 C724.69,216.39 726.55,218.93 726.48,219.17 C726.48,219.17 725.28,219.85 725.28,219.85 C723.78,219.25 722.21,215.47 722.99,213.69 C723.37,212.91 725.96,212.53 728.62,214.02 C729.86,214.73 731.47,216.36 731.76,217.17 C731.97,217.92 731.71,219.69 731.21,220.61 C730.04,222.68 720.74,230.79 720.10,231.80 C720.10,231.80 724.81,228.44 724.81,228.44 C725.68,229.31 725.91,230.07 725.38,231.15 C724.10,233.73 713.37,249.98 713.18,249.94 C714.28,247.98 718.79,242.87 721.46,240.53 C724.10,238.24 726.67,237.14 726.91,237.24 C726.91,237.24 707.90,261.91 707.90,261.91 C707.90,261.91 715.30,249.23 715.30,249.23 C710.10,255.56 703.07,263.46 699.47,268.10 C695.87,272.96 689.87,280.93 689.05,281.28 C689.38,279.42 692.66,274.58 694.91,271.72 C696.46,269.77 699.59,266.92 699.67,267.12 C693.87,276.68 681.61,284.95 681.26,284.43 C680.33,283.09 688.56,275.11 689.81,274.73 C690.10,275.56 686.13,279.17 682.50,281.06 C678.79,282.94 672.34,284.29 670.16,283.51 C669.83,283.39 669.25,283.08 668.42,282.60 C668.42,282.60 668.14,281.39 668.14,281.39 C668.14,281.39 671.33,279.57 671.33,279.57 C670.65,280.95 665.67,283.42 662.39,284.53 C659.17,285.59 657.65,285.52 657.47,285.32 C657.47,285.32 665.26,280.99 665.26,280.99 C664.23,283.11 660.33,285.60 658.11,286.77 C655.34,288.22 653.49,288.69 653.24,288.52 C653.24,288.52 658.40,284.05 658.40,284.05 C657.78,285.79 651.85,289.44 649.39,289.51 C648.46,289.51 647.29,289.07 647.06,288.70 C646.61,287.71 647.48,285.08 648.82,283.40 C650.33,281.57 653.22,279.84 654.38,280.23 C654.93,281.30 653.59,284.55 651.80,286.46 C649.89,288.45 645.43,291.03 643.70,291.16 C642.70,291.18 640.94,290.32 640.18,289.31 C638.72,287.30 637.22,282.27 636.97,280.43 C636.70,278.26 636.89,274.31 637.33,271.97 C637.85,269.44 640.15,264.22 641.66,263.26 C642.36,262.85 644.08,262.67 644.91,262.91 C645.84,263.23 647.32,264.58 647.83,265.63 C648.83,267.88 648.09,273.96 646.59,277.55 C645.07,281.08 641.10,286.64 638.95,287.38 C636.72,288.07 632.52,285.21 630.80,283.19 C627.97,279.75 622.59,269.11 621.08,263.79 C620.35,261.15 619.52,255.97 619.44,253.64 C619.38,251.08 620.22,245.43 621.30,243.80 C621.92,242.95 623.62,242.26 624.71,242.46 C625.98,242.76 628.42,244.66 629.15,246.10 C630.47,248.82 630.12,254.21 629.57,256.00 C628.88,258.13 626.45,261.97 624.86,263.47 C623.50,264.71 619.07,267.06 615.89,267.30 C614.22,267.40 610.41,266.55 608.99,265.76 C606.33,264.24 603.20,260.10 602.39,258.36 C601.45,256.28 600.41,251.64 600.37,249.32 C600.35,247.00 601.27,242.71 602.19,240.78 C603.12,238.88 605.81,235.63 607.49,234.40 C609.26,233.14 613.39,231.68 615.53,231.58 C617.58,231.51 622.62,232.97 624.35,234.17 C626.26,235.55 628.61,239.14 628.88,241.12 C629.09,243.04 627.80,246.93 626.40,248.79 C625.03,250.56 621.30,253.58 618.95,254.85 C616.26,256.26 611.83,257.69 609.50,258.01 C607.52,258.26 602.88,257.93 599.98,256.22 C598.79,255.50 596.84,251.83 596.62,249.67 C596.42,247.42 597.45,242.08 598.65,239.26 C599.91,236.36 603.69,230.77 606.01,228.44 C608.49,226.00 614.04,222.67 617.05,221.90 C620.15,221.16 626.71,221.71 630.04,222.93 C632.96,224.03 639.44,227.64 642.71,230.12 C645.67,232.39 650.07,236.68 651.47,238.71 C652.86,240.79 654.01,244.83 653.87,247.02 C653.71,249.01 652.00,253.77 651.00,254.99 C649.68,256.55 647.65,258.27 646.75,258.54 C644.91,259.03 641.99,258.13 640.65,256.57 C639.23,254.85 637.49,249.92 637.02,246.56 C636.35,241.30 637.89,231.59 639.44,227.56 C641.06,223.38 647.11,214.25 651.60,211.04 C654.12,209.29 659.42,207.61 662.00,207.75 C664.56,207.93 669.63,210.16 672.01,212.19 C674.46,214.31 678.30,219.49 679.70,221.94 C681.15,224.54 683.82,231.45 684.40,234.07 C685.10,237.35 684.98,243.23 684.23,245.67 C683.46,248.01 680.80,251.30 679.09,252.06 C677.37,252.77 673.60,252.22 671.66,251.02 C669.77,249.80 666.15,245.73 664.68,243.19 C663.16,240.50 661.23,234.45 660.92,231.18 C660.64,227.77 661.59,220.63 662.78,217.21 C663.99,213.84 667.57,208.10 669.71,206.05 C671.81,204.10 676.36,202.02 678.64,201.93 C680.88,201.89 685.20,203.66 687.07,205.41 C688.95,207.24 691.98,212.58 693.05,215.92 C694.08,219.28 695.01,226.54 694.85,230.07 C694.66,233.58 693.03,240.01 691.65,242.85 C690.26,245.63 686.53,250.21 684.29,251.86 C682.04,253.47 677.04,255.29 674.49,255.45 C671.97,255.57 667.25,254.33 665.40,253.01 C663.49,251.58 661.09,247.26 660.78,244.53 C660.50,241.71 661.93,235.39 663.57,232.27 C665.26,229.12 670.19,223.57 673.21,221.42 C676.26,219.30 683.01,216.71 686.42,216.30 C689.83,215.95 695.92,217.13 698.27,218.60 C700.55,220.11 703.30,224.63 703.66,227.40 C703.97,230.11 702.69,236.13 701.22,239.26 C699.76,242.26 695.42,248.29 692.88,250.89 C690.41,253.38 684.75,257.93 681.35,259.97 C678.06,261.92 672.37,264.28 669.93,264.88 C667.29,265.48 663.01,264.96 661.52,263.72 C660.00,262.36 658.69,257.65 659.07,254.56 C659.71,249.79 664.86,240.45 667.86,236.63 C670.24,233.61 677.66,226.13 683.49,221.94 C686.37,219.88 691.49,216.95 693.66,215.97 C695.03,215.34 697.38,214.40 698.77,213.87" fill="none" stroke="rgb(255, 255, 255)" stroke-width="30.00" stroke-opacity="1.00" stroke-linejoin="round"/>
<path d="M727.93,206.00 C729.74,203.68 740.44,196.39 745.40,193.86 C752.46,190.30 763.81,185.76 773.70,182.59 C780.03,180.59 785.63,180.23 786.41,180.25" fill="none" stroke="rgb(255, 255, 255)" stroke-width="16.00" stroke-opacity="1.00" stroke-linejoin="round"/>
<path d="M733.77,197.75 C733.77,197.75 733.73,196.43 733.73,196.43 C736.80,194.16 748.72,188.47 753.92,186.46 C759.78,184.21 771.33,180.66 776.60,179.50 C779.13,178.95 784.19,178.41 786.57,178.75 C787.72,178.93 789.46,179.75 790.66,180.52 C790.84,180.64 790.99,180.76 791.11,180.87" fill="none" stroke="rgb(255, 255, 255)" stroke-width="16.00" stroke-opacity="1.00" stroke-linejoin="round"/>
<path d="M738.39,194.46 C738.39,194.46 736.43,194.46 736.43,194.46 C736.43,194.46 736.09,193.82 736.09,193.82 C737.11,192.49 746.65,187.37 754.67,184.15 C761.35,181.51 775.84,177.26 778.40,176.90 C785.37,176.06 789.72,177.14 790.79,177.66 C791.04,177.79 791.42,178.02 791.94,178.36" fill="none" stroke="rgb(255, 255, 255)" stroke-width="16.00" stroke-opacity="1.00" stroke-linejoin="round"/>
<path d="M792.11,178.61 C792.11,178.61 789.21,178.46 789.21,178.46 C794.51,177.01 804.08,176.08 810.03,176.35 C814.83,176.59 821.28,177.82 823.11,178.65 C824.57,179.34 826.30,180.78 828.00,182.63 C828.28,182.95 828.56,183.26 828.84,183.58" fill="none" stroke="rgb(255, 255, 255)" stroke-width="16.00" stroke-opacity="1.00" stroke-linejoin="round"/>
<path d="M829.63,182.59 C832.06,182.64 834.19,182.86 835.86,183.37 C838.92,184.33 842.55,187.00 843.57,188.94 C843.93,189.64 845.69,193.67 846.19,194.44 C847.97,197.17 850.78,199.42 851.74,200.02 C851.90,200.12 852.07,200.21 852.25,200.29" fill="none" stroke="rgb(255, 255, 255)" stroke-width="16.00" stroke-opacity="1.00" stroke-linejoin="round"/>
<path d="M852.43,195.28 C853.29,195.70 856.73,200.11 858.07,202.89 C859.21,205.37 861.76,211.83 862.57,214.43 C863.44,217.21 865.21,220.28 866.24,220.93 C866.35,220.99 866.54,221.07 866.79,221.15" fill="none" stroke="rgb(255, 255, 255)" stroke-width="16.00" stroke-opacity="1.00" stroke-linejoin="round"/>
<path d="M868.16,217.62 C867.25,224.84 865.18,240.97 864.40,245.01 C864.35,245.24 864.28,245.65 864.19,246.24" fill="none" stroke="rgb(255, 255, 255)" stroke-width="16.00" stroke-opacity="1.00" stroke-linejoin="round"/>
<path d="M734.48,203.17 C732.11,203.72 727.11,203.96 724.72,204.40 C718.18,205.63 712.58,208.72 711.39,209.57" fill="none" stroke="rgb(255, 255, 255)" stroke-width="16.00" stroke-opacity="1.00" stroke-linejoin="round"/>
<path d="M600.96,211.09 C598.45,210.60 591.71,207.70 590.98,207.44 C586.82,205.94 581.74,203.30 578.92,202.88 C578.56,202.83 561.84,195.08 559.22,194.35 C557.23,193.80 552.65,193.01 551.25,192.39" fill="none" stroke="rgb(255, 255, 255)" stroke-width="16.00" stroke-opacity="1.00" stroke-linejoin="round"/>
<path d="M578.85,201.61 C574.70,201.37 568.24,200.77 566.94,200.44 C565.13,199.95 559.11,196.11 557.82,195.51 C554.26,193.89 540.00,191.56 536.85,190.13 C533.98,188.80 530.21,187.25 527.56,186.95 C522.37,186.60 509.25,185.72 507.56,185.88 C506.21,186.03 501.00,188.37 500.60,188.22" fill="none" stroke="rgb(255, 255, 255)" stroke-width="16.00" stroke-opacity="1.00" stroke-linejoin="round"/>
<path d="M506.57,186.16 C504.14,187.31 501.91,188.22 501.20,188.57 C496.58,190.82 487.44,196.92 486.08,198.48 C483.45,201.56 474.10,215.90 473.24,217.76" fill="none" stroke="rgb(255, 255, 255)" stroke-width="16.00" stroke-opacity="1.00" stroke-linejoin="round"/>
<path d="M476.00,219.43 C474.51,220.63 473.13,226.32 472.84,230.60 C472.75,231.99 472.32,251.72 473.66,258.36 C474.44,262.14 475.67,265.28 476.44,265.67" fill="none" stroke="rgb(255, 255, 255)" stroke-width="16.00" stroke-opacity="1.00" stroke-linejoin="round"/>
<path d="M472.54,225.71 C471.46,226.44 471.07,226.83 470.95,227.56 C469.36,237.50 471.28,255.54 472.49,259.61 C473.81,263.93 475.88,267.39 477.26,267.43 C477.37,267.43 477.65,267.40 478.09,267.33" fill="none" stroke="rgb(255, 255, 255)" stroke-width="16.00" stroke-opacity="1.00" stroke-linejoin="round"/>
<path d="M471.67,251.95 C470.64,254.86 473.27,263.01 474.43,267.27 C475.11,269.53 480.55,275.02 482.15,276.30 C483.62,277.46 490.27,280.60 491.43,281.44 C491.71,281.64 493.20,283.05 493.60,283.37" fill="none" stroke="rgb(255, 255, 255)" stroke-width="16.00" stroke-opacity="1.00" stroke-linejoin="round"/>
<path d="M489.09,281.11 C493.38,282.53 499.81,283.35 500.69,283.55 C501.78,283.81 507.53,286.48 509.97,287.00 C511.42,287.29 515.34,286.60 518.53,286.47 C522.56,286.18 528.03,286.50 531.10,286.20 C531.83,286.12 536.01,285.36 536.90,285.09 C536.94,285.08 537.06,285.08 537.03,285.09" fill="none" stroke="rgb(255, 255, 255)" stroke-width="16.00" stroke-opacity="1.00" stroke-linejoin="round"/>
<path d="M542.25,282.14 C543.33,282.75 545.82,284.15 546.54,284.44 C547.12,284.67 567.87,291.13 568.83,291.38 C568.22,290.93 567.80,290.63 567.55,290.47 C567.31,290.31 566.91,290.07 566.34,289.75" fill="none" stroke="rgb(255, 255, 255)" stroke-width="16.00" stroke-opacity="1.00" stroke-linejoin="round"/>
<path d="M555.09,287.39 C561.32,293.66 580.89,299.99 584.95,300.91 C587.44,301.48 595.26,303.70 596.52,303.84 C604.86,304.72 607.89,304.71 610.14,304.93 C610.63,304.96 616.89,301.84 617.82,301.25 C618.82,300.62 623.52,299.09 624.93,298.19" fill="none" stroke="rgb(255, 255, 255)" stroke-width="16.00" stroke-opacity="1.00" stroke-linejoin="round"/>
<path d="M616.21,295.81 C615.71,295.00 611.28,281.15 608.62,273.90 C606.00,267.08 601.29,257.59 597.47,252.05 C596.61,250.81 595.24,247.27 594.96,246.90" fill="none" stroke="rgb(255, 255, 255)" stroke-width="16.00" stroke-opacity="1.00" stroke-linejoin="round"/>
<path d="M600.03,257.29 C596.79,255.84 586.03,244.44 582.98,239.26 C581.54,236.80 579.47,232.05 578.25,228.71 C577.10,225.42 577.18,214.85 576.56,212.24 C576.76,212.91 577.41,215.77 577.53,216.08 C577.66,216.43 577.93,216.82 578.34,217.25" fill="none" stroke="rgb(255, 255, 255)" stroke-width="16.00" stroke-opacity="1.00" stroke-linejoin="round"/>
<path d="M585.26,215.03 C584.22,216.88 583.64,221.15 583.36,224.44 C583.21,226.46 583.38,229.94 583.78,234.60 C583.95,236.50 584.20,238.73 584.41,240.25 C584.45,240.56 584.48,240.75 584.51,240.82" fill="none" stroke="rgb(255, 255, 255)" stroke-width="16.00" stroke-opacity="1.00" stroke-linejoin="round"/>
<path d="M742.06,201.44 C742.26,203.44 742.52,206.90 742.55,207.13 C743.24,210.41 744.25,215.73 744.39,220.30 C744.49,224.48 742.82,236.90 742.30,239.71 C741.77,242.34 737.69,250.94 733.24,259.39 C732.75,260.31 718.83,278.80 717.69,280.29 C717.69,280.29 717.18,281.48 717.18,281.48" fill="none" stroke="rgb(255, 255, 255)" stroke-width="16.00" stroke-opacity="1.00" stroke-linejoin="round"/>
<path d="M718.03,281.52 C719.06,281.65 721.76,283.42 722.88,283.94 C723.63,284.29 726.47,284.58 727.49,284.68" fill="none" stroke="rgb(255, 255, 255)" stroke-width="16.00" stroke-opacity="1.00" stroke-linejoin="round"/>
<path d="M708.60,271.42 C708.97,269.98 709.55,268.54 710.72,266.32 C711.90,264.11 713.36,261.61 714.41,259.98 C715.27,258.65 716.26,257.30 717.63,255.53 C717.81,255.29 717.99,255.06 718.17,254.83" fill="none" stroke="rgb(255, 255, 255)" stroke-width="16.00" stroke-opacity="1.00" stroke-linejoin="round"/>
<path d="M716.80,264.81 C716.80,264.81 712.05,271.21 712.05,271.21 C712.05,271.21 713.39,270.25 713.39,270.25" fill="none" stroke="rgb(255, 255, 255)" stroke-width="16.00" stroke-opacity="1.00" stroke-linejoin="round"/>
<path d="M722.77,278.36 C722.77,278.36 722.66,279.57 722.66,279.57 C723.12,279.83 724.13,280.04 724.48,280.21 C725.08,280.50 728.26,283.82 730.85,284.49 C733.17,285.07 737.65,286.97 739.72,287.87 C741.93,288.80 747.43,291.55 749.70,291.31 C749.95,291.28 750.14,291.21 750.25,291.09" fill="none" stroke="rgb(255, 255, 255)" stroke-width="16.00" stroke-opacity="1.00" stroke-linejoin="round"/>
<path d="M735.53,286.45 C735.53,286.45 735.78,287.60 735.78,287.60 C736.89,288.23 740.62,289.21 744.23,290.25 C749.34,291.68 762.79,291.92 764.34,291.95 C769.35,292.01 779.29,288.80 781.69,287.76 C782.01,287.62 782.17,287.51 782.16,287.43" fill="none" stroke="rgb(255, 255, 255)" stroke-width="16.00" stroke-opacity="1.00" stroke-linejoin="round"/>
<path d="M771.62,291.58 C772.90,292.12 780.06,292.27 780.78,292.18 C784.02,291.69 786.90,289.38 791.03,285.83 C792.60,284.49 794.57,282.89 795.73,282.01 C796.76,281.24 797.31,280.90 797.58,280.84" fill="none" stroke="rgb(255, 255, 255)" stroke-width="16.00" stroke-opacity="1.00" stroke-linejoin="round"/>
<path d="M794.88,281.23 C797.49,276.88 806.30,267.26 810.28,262.99 C813.60,259.24 814.75,257.99 815.68,256.98 C815.87,256.78 816.00,256.63 816.06,256.55" fill="none" stroke="rgb(255, 255, 255)" stroke-width="16.00" stroke-opacity="1.00" stroke-linejoin="round"/>
<path d="M814.36,266.65 C814.67,267.42 818.37,269.00 820.24,269.88 C824.09,271.42 832.72,271.56 833.02,271.48 C833.43,271.37 837.77,270.28 838.01,270.10 C838.01,270.10 836.87,269.43 836.87,269.43" fill="none" stroke="rgb(255, 255, 255)" stroke-width="16.00" stroke-opacity="1.00" stroke-linejoin="round"/>
<path d="M814.11,269.36 C814.11,269.36 812.79,270.10 812.79,270.10 C813.65,270.39 815.35,270.94 816.07,271.08 C818.09,271.47 835.71,271.34 839.47,270.16 C841.80,269.42 844.17,268.14 848.83,266.65 C850.65,266.06 853.80,263.50 854.49,262.12 C854.56,261.96 854.67,261.75 854.82,261.48" fill="none" stroke="rgb(255, 255, 255)" stroke-width="16.00" stroke-opacity="1.00" stroke-linejoin="round"/>
<path d="M840.65,271.83 C841.17,272.05 844.49,272.51 847.80,270.99 C850.06,269.93 854.70,265.88 857.00,263.05 C859.36,260.10 860.22,256.48 860.62,254.46 C860.89,253.53 861.87,251.59 862.33,251.07 C862.49,250.89 862.79,250.65 863.24,250.35" fill="none" stroke="rgb(255, 255, 255)" stroke-width="16.00" stroke-opacity="1.00" stroke-linejoin="round"/>
<path d="M859.25,260.62 C859.12,258.82 861.13,250.85 861.50,248.83 C862.01,246.04 862.51,239.26 862.67,236.90 C862.69,236.61 862.74,236.10 862.81,235.36" fill="none" stroke="rgb(255, 255, 255)" stroke-width="16.00" stroke-opacity="1.00" stroke-linejoin="round"/>
<path d="M613.66,293.76 C612.49,294.45 611.23,294.91 610.22,294.76 C606.79,294.27 596.04,289.48 589.93,287.07 C585.38,285.30 569.59,280.98 569.54,280.97 C561.63,279.97 560.31,279.86 559.98,279.28 C559.93,279.19 559.86,278.96 559.75,278.60" fill="none" stroke="rgb(255, 255, 255)" stroke-width="16.00" stroke-opacity="1.00" stroke-linejoin="round"/>
<path d="M574.98,286.16 C570.79,285.06 559.96,278.91 554.17,278.26 C550.72,277.93 547.98,277.38 544.10,275.97 C535.16,272.38 528.94,271.23 523.23,269.61 C529.67,271.83 537.92,274.63 550.34,277.66 C555.79,279.00 592.70,292.12 596.57,293.05 C597.90,293.36 599.37,293.73 599.61,293.80 C597.26,294.14 564.59,281.49 563.20,281.01 C560.16,279.95 539.20,274.63 538.89,274.58 C536.00,274.14 529.12,274.13 525.73,274.17 C521.69,274.15 507.58,271.01 503.67,271.25 C504.99,270.69 518.52,272.45 525.51,273.31 C535.60,274.82 537.39,275.54 537.57,275.75 C533.50,275.89 524.14,274.25 513.61,271.66 C504.85,269.59 497.92,266.44 493.13,263.49 C496.43,266.35 501.17,268.96 503.99,269.88 C506.58,270.71 508.07,271.45 508.25,271.64 C507.54,272.11 505.19,271.44 500.35,269.52 C496.64,268.03 490.08,265.33 488.01,264.13 C485.62,262.68 483.59,259.13 483.27,257.64 C484.38,257.29 485.59,257.52 487.47,258.56 C489.98,259.99 495.40,262.98 498.24,263.94 C502.90,265.48 512.91,266.21 513.57,266.43 C513.57,266.43 499.45,261.38 493.08,258.95 C489.87,257.73 483.17,255.19 480.83,253.47 C479.84,252.73 478.34,251.35 478.16,251.11 C481.54,250.76 488.37,251.84 492.43,252.48 C503.51,254.39 514.28,257.26 521.67,259.27 C525.63,260.30 530.47,260.61 531.19,260.10 C531.14,259.58 511.83,249.64 510.00,248.85 C505.61,246.98 497.66,246.55 495.42,247.44 C495.60,248.11 502.79,252.43 503.60,252.84 C505.28,253.68 522.53,260.92 529.63,264.14 C533.01,265.57 571.86,279.19 572.83,279.34 C572.21,277.48 567.86,274.10 565.93,272.83 C563.73,271.39 552.90,265.05 552.55,264.85 C556.13,265.16 595.18,277.60 601.60,278.87 C604.14,279.34 608.87,280.17 611.07,280.53 C611.07,280.53 591.54,272.90 591.54,272.90 C593.23,273.91 596.74,277.06 598.80,278.57 C602.58,281.32 609.92,283.94 612.04,284.89 C599.89,277.34 584.15,264.03 580.61,261.81 C574.11,257.78 567.48,256.56 564.55,256.10 C575.57,257.64 581.54,258.11 585.91,258.42 C588.94,258.74 603.03,262.40 604.31,263.16 C603.37,263.62 591.57,261.60 581.85,258.87 C574.88,256.89 564.81,254.07 555.89,252.62 C552.39,252.08 542.32,250.52 541.77,250.21 C542.47,249.62 556.48,254.97 563.25,256.02 C567.84,256.72 569.33,256.99 572.85,258.06 C576.57,259.21 577.85,260.57 577.87,261.09 C577.29,262.04 572.87,261.77 568.75,260.84 C565.43,260.06 546.36,252.74 544.28,252.14 C541.82,251.44 532.52,249.67 532.21,249.18 C535.25,248.63 544.40,250.78 555.11,254.38 C564.59,257.52 576.97,260.59 576.96,260.82 C576.36,262.86 546.87,250.66 544.74,249.96 C542.52,249.24 536.96,248.20 534.88,248.34 C533.54,248.43 526.61,249.36 525.81,249.14 C525.81,247.82 526.76,246.65 528.88,245.61 C530.92,244.61 536.06,243.63 538.75,243.94 C544.01,244.62 551.37,248.20 563.72,254.90 C566.01,256.12 566.37,256.44 566.70,256.86 C566.21,258.36 560.59,261.25 558.05,261.64 C555.58,261.96 551.78,261.88 549.35,261.39 C544.62,260.41 530.78,255.12 528.50,253.72 C527.95,253.38 527.62,252.87 527.34,252.20 C527.41,250.82 531.43,249.20 534.04,249.24 C538.03,249.38 550.48,254.30 556.09,256.57 C559.42,257.99 564.04,259.96 564.54,260.23 C559.22,260.69 539.45,252.91 518.34,243.80 C515.69,242.64 507.48,239.30 507.08,238.91 C508.55,237.81 513.44,238.36 518.13,239.14 C521.68,239.74 537.41,240.79 541.00,242.12 C542.72,242.77 543.12,244.31 542.73,245.03 C542.23,245.79 538.44,246.45 535.05,246.31 C532.33,246.15 514.24,242.10 507.63,241.42 C505.59,241.21 495.21,240.50 494.29,240.35 C492.94,240.12 490.63,239.40 490.13,239.02 C489.68,238.62 489.33,236.77 489.53,235.55 C489.88,233.80 491.61,230.33 492.88,228.98 C495.03,226.75 498.92,225.47 500.39,225.53 C502.31,225.65 507.38,228.28 509.30,230.23 C510.55,231.53 511.68,233.33 511.63,234.01 C511.37,235.53 506.43,238.72 503.60,239.58 C500.91,240.35 497.73,240.79 493.61,240.80 C489.41,240.79 483.03,239.76 482.09,239.28 C481.56,238.99 480.31,237.72 480.04,237.11 C479.66,236.14 480.00,233.68 480.80,232.08 C481.63,230.52 484.24,227.49 485.80,226.29 C487.49,225.04 490.99,223.54 492.98,223.25 C494.94,223.00 498.89,223.49 500.64,224.17 C502.76,225.04 508.42,229.15 509.27,230.74 C509.43,231.07 508.62,232.74 505.25,234.62 C503.32,235.68 489.41,238.79 484.39,239.22 C486.28,237.86 491.45,235.97 493.38,235.59 C497.95,234.74 512.45,235.27 521.24,236.17 C526.57,236.79 538.42,239.67 545.60,242.38 C553.24,245.42 568.83,251.70 568.95,251.99 C568.14,252.13 550.67,251.90 548.70,251.42 C547.41,251.08 541.99,248.34 539.81,246.58 C537.57,244.72 534.68,241.04 533.75,238.87 C533.33,237.81 532.88,235.17 532.96,233.80 C533.07,232.42 534.40,230.11 535.64,229.14 C538.37,227.09 543.16,226.12 545.41,226.39 C550.18,227.04 557.94,232.16 566.93,239.07 C577.43,247.11 587.77,251.87 587.81,251.95 C586.83,251.92 580.12,249.65 577.49,248.03 C575.43,246.73 574.04,244.00 574.45,242.34 C575.06,241.71 577.53,240.97 581.41,241.97 C584.18,242.72 593.04,249.17 593.26,250.00 C592.51,250.47 591.87,250.50 590.99,249.92 C589.42,248.85 584.66,243.13 584.04,242.38 C583.44,241.66 582.84,240.93 582.24,240.21" fill="none" stroke="rgb(255, 255, 255)" stroke-width="16.00" stroke-opacity="1.00" stroke-linejoin="round"/>
<path d="M567.05,240.45 C565.98,240.58 551.52,237.11 545.36,236.39 C542.98,236.12 539.12,235.95 534.37,235.85 C530.83,235.77 527.63,235.25 526.95,234.54 C527.28,233.63 527.69,233.18 528.56,233.04 C532.80,232.41 544.73,234.44 550.87,235.53 C558.80,236.77 576.24,239.43 579.71,239.77 C585.55,240.30 586.66,239.03 586.83,238.61 C585.17,236.90 569.52,232.20 563.30,230.96 C558.96,230.11 538.71,228.26 537.91,227.56 C545.11,228.18 550.35,228.23 559.72,227.00 C563.57,226.52 570.23,226.02 573.45,225.79 C584.09,224.89 585.05,223.25 585.20,222.94 C583.86,221.54 562.35,215.61 560.62,214.87 C552.38,211.26 548.52,210.23 548.01,210.07 C548.39,209.27 553.27,208.51 555.40,208.42 C560.36,208.29 570.98,211.58 572.38,211.07 C572.36,209.84 571.52,208.68 569.59,207.48 C567.88,206.42 563.92,204.88 561.18,204.23 C561.07,204.21 545.95,202.91 540.16,201.44 C548.47,202.40 564.87,205.97 565.15,205.98 C565.64,206.00 566.52,205.97 567.81,205.90 C564.33,205.84 558.82,206.96 557.02,208.34 C555.62,209.48 553.54,212.29 553.23,213.68 C553.07,214.41 553.46,218.10 553.48,218.96 C553.49,219.87 553.00,221.26 552.48,221.67 C551.81,222.13 549.64,222.29 548.15,221.97 C543.93,221.00 537.12,212.97 537.48,212.94 C537.78,212.88 557.10,211.94 559.66,212.34 C560.78,212.52 562.05,213.02 562.22,213.23 C561.94,214.98 531.29,212.85 528.69,212.16 C526.32,211.50 524.19,209.69 523.94,208.16 C523.74,206.42 526.15,202.99 528.54,201.38 C530.91,199.85 535.49,198.35 537.33,198.53 C541.18,198.96 546.19,202.33 546.43,203.37 C546.66,204.68 545.33,206.59 544.33,207.19 C541.00,209.13 533.84,210.31 531.15,209.86 C530.09,209.66 527.45,208.61 526.71,208.11 C525.86,207.50 524.35,205.36 523.92,204.07 C523.49,202.65 523.61,200.31 524.07,199.12 C524.79,197.49 528.61,194.39 531.93,193.78 C534.36,193.37 536.84,194.34 537.18,194.69 C536.84,195.82 536.18,196.60 534.78,197.03 C531.84,197.91 524.53,198.47 521.04,198.57 C517.58,198.62 510.50,198.74 508.24,197.83 C507.93,197.70 507.80,197.50 507.87,197.25 C508.08,196.19 511.48,194.68 515.22,194.44 C516.64,194.35 519.69,194.34 520.93,194.36 C520.93,194.36 493.83,204.25 493.83,204.25 C499.17,202.01 507.20,199.94 512.72,199.81 C514.58,199.77 515.24,199.84 515.68,200.07 C515.94,201.30 515.41,202.31 513.72,203.45 C505.73,208.84 488.90,212.34 487.45,212.24 C489.07,210.03 498.85,203.60 502.89,202.45 C505.29,201.81 510.33,201.91 511.04,203.06 C511.40,203.77 511.67,205.59 511.35,206.35 C510.06,209.21 502.70,213.25 493.68,217.17 C490.47,218.50 485.89,219.43 485.16,219.08 C484.28,218.59 483.76,216.42 484.06,214.97 C484.45,213.31 487.48,210.01 491.15,208.01 C495.21,205.85 505.84,203.72 512.54,203.78 C515.54,203.83 520.80,204.48 522.33,205.01 C525.84,206.27 529.39,209.12 530.00,210.60 C530.36,211.56 530.58,213.44 530.29,214.23 C529.55,216.11 523.75,219.32 521.54,219.88 C517.89,220.75 510.51,220.82 509.38,220.27 C508.50,219.79 508.39,217.77 509.10,216.84 C510.03,215.70 513.83,213.24 516.23,212.36 C518.62,211.52 523.68,211.12 526.22,211.32 C528.53,211.52 533.68,212.95 535.66,213.88 C538.07,215.08 542.02,218.83 542.47,221.65 C542.63,222.86 542.15,225.23 541.61,225.81 C540.36,227.03 535.34,227.79 532.93,227.52 C530.63,227.24 524.39,225.05 522.15,223.96 C516.51,221.18 510.68,215.57 510.64,214.36 C511.26,213.68 517.06,213.48 519.46,213.98 C521.59,214.46 526.02,216.13 528.67,218.40 C529.73,219.34 530.67,222.71 530.33,224.34 C529.96,225.90 527.81,228.96 526.35,229.98 C524.75,231.06 520.96,231.75 519.18,231.46 C517.46,231.14 514.53,228.83 513.41,226.96 C512.25,224.95 510.98,220.09 510.91,217.17 C510.88,214.01 512.15,208.31 513.48,205.77 C514.74,203.47 517.90,200.33 519.72,199.47 C520.58,199.08 522.18,198.83 523.78,198.75 C524.04,198.74 524.21,198.75 524.31,198.77" fill="none" stroke="rgb(255, 255, 255)" stroke-width="16.00" stroke-opacity="1.00" stroke-linejoin="round"/>
<path d="M749.33,203.74 C757.57,199.67 763.83,197.20 768.03,196.74 C770.34,196.51 774.42,196.63 776.60,197.12 C778.71,197.65 783.08,198.72 785.08,198.78 C787.81,198.84 796.15,196.80 797.12,196.33 C796.31,196.17 778.69,198.74 774.71,199.02 C770.55,199.28 769.21,198.91 767.94,198.26 C767.81,197.20 768.26,196.43 769.66,195.61 C773.53,193.36 784.64,189.22 790.11,188.22 C795.41,187.27 804.83,187.59 804.95,188.49 C804.95,188.49 771.52,196.86 771.52,196.86 C770.79,195.88 784.74,189.89 790.40,188.79 C795.45,187.84 807.25,187.54 811.35,188.14 C813.03,188.38 824.87,190.61 825.39,191.05 C824.85,191.97 823.75,192.51 821.48,192.71 C816.99,193.11 810.28,192.73 808.36,191.83 C805.67,190.52 804.86,189.17 804.62,188.55 C804.97,187.70 809.75,186.39 812.83,186.03 C815.64,185.73 819.42,185.72 821.80,186.08 C826.49,186.88 838.63,194.20 843.33,195.86 C843.33,195.86 821.50,194.99 821.50,194.99 C822.07,195.31 839.16,197.05 844.73,198.90 C851.31,201.11 852.52,202.58 852.83,203.21 C852.76,204.05 849.48,205.89 846.61,206.96 C839.44,209.62 826.85,213.10 824.18,213.56 C825.24,213.32 826.01,213.16 826.50,213.08 C826.98,213.01 827.87,212.90 829.15,212.78" fill="none" stroke="rgb(255, 255, 255)" stroke-width="16.00" stroke-opacity="1.00" stroke-linejoin="round"/>
<path d="M855.50,212.82 C848.36,213.40 831.17,218.75 830.55,218.83 C831.50,218.24 837.40,216.09 839.47,215.73 C846.07,214.66 855.19,215.34 855.35,215.67 C855.25,216.35 841.15,222.83 833.70,225.03 C826.54,227.13 818.46,228.44 817.57,228.01 C820.03,226.27 831.25,221.99 837.72,220.56 C843.79,219.24 853.89,218.78 855.41,219.39 C855.77,219.92 855.04,220.51 852.96,221.24 C852.63,221.35 799.68,233.34 798.72,233.53 C797.49,233.78 795.49,234.08 794.38,234.21 C795.47,232.51 799.67,230.16 802.43,228.87 C814.91,223.07 832.28,219.42 834.95,219.51 C831.96,221.95 794.03,230.48 779.59,233.78 C767.86,236.61 759.82,237.80 758.85,237.15 C759.28,235.82 760.53,234.81 763.41,233.55 C766.48,232.22 781.40,227.95 788.60,226.73 C797.48,225.26 799.55,225.77 799.85,225.98 C799.40,226.87 794.34,228.34 791.18,228.98 C773.66,232.46 746.72,238.25 743.68,237.58 C744.25,236.67 744.71,236.09 745.06,235.83 C745.50,235.51 747.89,234.72 748.17,234.58" fill="none" stroke="rgb(255, 255, 255)" stroke-width="16.00" stroke-opacity="1.00" stroke-linejoin="round"/>
<path d="M858.73,229.98 C857.57,229.77 855.67,230.62 852.27,231.48 C840.23,234.46 824.11,238.41 823.70,238.11 C825.17,236.33 835.78,230.93 842.17,228.68 C855.66,223.97 863.70,223.95 864.18,224.07 C864.63,224.75 852.99,229.14 845.05,231.14 C831.32,234.36 790.29,244.37 789.82,244.29 C792.49,241.41 797.69,238.75 800.34,237.56 C812.02,232.39 822.88,231.53 823.80,231.46 C819.22,233.92 806.08,237.63 799.74,239.25 C793.29,240.78 779.50,243.91 772.18,245.52 C765.18,247.01 757.09,247.80 756.46,247.09 C756.44,246.00 758.16,244.45 760.24,243.34 C764.52,241.09 775.37,238.51 782.49,237.63 C792.43,236.51 801.30,236.25 801.96,236.45 C801.94,236.82 788.71,241.80 777.33,246.59 C758.39,254.61 753.26,254.48 752.52,254.13 C751.99,252.68 752.55,249.26 754.43,246.20 C755.95,243.77 760.73,239.22 762.72,237.74 C768.30,233.72 772.19,233.56 773.02,233.74 C773.75,234.95 773.02,237.79 771.62,239.92 C770.45,241.67 766.58,246.29 763.65,248.73 C758.51,252.98 749.42,259.67 745.55,261.50 C741.92,263.19 740.12,263.38 739.43,263.31 C739.17,261.28 739.34,260.10 740.24,258.94 C743.91,254.23 751.55,247.31 755.67,244.75 C757.90,243.39 761.74,242.10 762.93,242.32 C763.75,243.06 762.28,246.85 760.44,249.69 C757.73,253.82 748.83,263.42 745.08,266.63 C740.18,270.79 737.08,271.25 736.40,270.95 C736.27,270.17 737.95,268.26 741.25,267.06 C744.77,265.81 750.48,264.16 754.61,264.01 C754.61,264.01 755.65,265.32 755.65,265.32 C754.45,267.24 750.82,270.15 749.50,270.94 C747.18,272.27 740.61,274.24 736.72,274.73 C731.26,275.36 728.07,275.60 728.07,275.48 C731.87,273.61 744.27,270.92 749.00,271.17 C750.78,271.27 754.37,271.97 755.30,272.10 C756.02,272.20 757.09,272.00 758.22,271.70" fill="none" stroke="rgb(255, 255, 255)" stroke-width="16.00" stroke-opacity="1.00" stroke-linejoin="round"/>
<path d="M743.74,280.04 C748.04,276.81 762.17,270.29 768.71,268.69 C771.84,267.94 777.77,267.37 779.99,267.54 C783.93,267.85 787.17,269.05 787.50,269.84 C787.35,270.98 783.81,273.05 781.07,274.11 C768.62,278.75 757.47,276.63 756.80,276.30 C756.39,275.32 757.14,273.62 758.69,272.00 C760.69,269.96 765.34,266.58 768.13,265.07 C770.78,263.65 776.90,261.12 779.86,260.30 C782.84,259.48 787.90,258.86 790.49,258.87 C793.41,258.92 795.40,259.90 795.87,260.58 C796.00,261.91 794.29,265.56 792.57,267.32 C789.01,270.88 781.53,276.22 777.21,278.23 C775.38,279.07 770.62,280.53 767.84,280.78 C765.31,281.00 763.70,280.60 762.94,279.77 C762.82,278.66 764.72,276.47 767.05,274.65 C769.30,272.91 773.69,270.04 775.84,268.95 C781.06,266.32 786.08,265.93 787.14,266.06 C787.53,267.62 786.93,269.19 784.97,271.34 C781.75,274.84 773.67,280.41 769.43,281.79 C764.64,283.30 756.79,282.92 755.39,282.03 C754.78,281.61 754.46,280.37 754.49,279.06 C754.57,277.77 758.17,273.31 760.47,271.56 C764.29,268.76 774.09,264.30 780.12,263.08 C794.43,260.27 801.85,263.27 802.43,263.76 C802.58,265.11 801.39,267.13 799.67,268.85 C797.64,270.84 793.78,273.59 791.47,274.80 C787.12,277.03 777.01,279.44 769.03,280.31 C766.11,280.60 760.29,279.85 759.47,278.83 C758.60,277.67 759.44,273.23 760.57,271.09 C761.67,269.04 766.10,263.71 768.18,261.76 C772.69,257.57 784.71,250.15 790.20,248.22 C792.49,247.43 798.61,246.06 801.60,246.12 C803.18,246.16 804.39,246.76 804.99,247.48 C805.21,248.54 804.34,251.19 802.91,252.84 C800.10,256.00 787.98,262.93 781.46,265.45 C775.03,267.91 768.38,268.88 765.95,268.60 C765.95,268.60 765.47,267.62 765.47,267.62 C766.11,265.17 774.28,257.59 780.07,253.59 C791.64,245.62 804.40,240.02 806.43,239.45 C808.88,238.77 810.88,238.45 811.96,238.50" fill="none" stroke="rgb(255, 255, 255)" stroke-width="16.00" stroke-opacity="1.00" stroke-linejoin="round"/>
<path d="M808.10,260.54 C806.88,260.43 806.08,260.35 805.71,260.31 C804.13,260.12 803.41,259.75 803.24,259.22 C803.32,258.27 804.82,256.00 806.81,254.05 C810.54,250.42 823.08,243.22 828.32,241.04 C831.68,239.65 837.65,237.59 840.35,236.98 C843.40,236.32 848.31,235.96 849.34,236.68 C849.59,238.60 848.27,241.88 847.01,243.86 C844.89,247.12 836.20,254.08 831.96,256.22 C829.43,257.47 823.83,259.29 821.11,259.49 C819.54,259.58 818.51,258.19 818.83,257.19 C819.77,254.56 828.30,247.55 834.02,244.29 C848.50,236.12 856.18,237.00 856.67,237.44 C856.51,239.08 853.92,242.53 851.78,244.78 C847.88,248.85 835.69,259.09 831.29,261.91 C828.55,263.62 823.56,264.65 822.16,263.82 C821.69,262.09 822.61,259.25 823.93,257.40 C825.54,255.21 829.11,251.94 831.69,250.09 C834.22,248.30 840.16,245.01 843.20,243.68 C846.35,242.32 851.67,240.79 854.29,240.48 C857.29,240.16 859.21,240.94 859.54,241.56 C858.83,244.61 853.21,251.44 846.25,258.98 C842.06,263.48 837.18,267.29 835.21,268.17 C834.48,266.09 834.34,264.80 834.87,263.46 C835.79,261.15 838.04,257.25 839.60,255.33 C848.11,245.06 858.47,241.21 859.58,240.99 C859.99,242.38 859.93,243.30 859.15,244.46 C852.10,254.93 841.73,262.66 841.45,262.51 C843.01,259.96 846.41,254.33 847.85,251.27 C848.34,250.22 848.84,248.93 848.91,248.67" fill="none" stroke="rgb(255, 255, 255)" stroke-width="16.00" stroke-opacity="1.00" stroke-linejoin="round"/>
<path d="M827.43,231.13 C818.02,229.98 813.75,228.96 811.30,227.29 C810.34,226.61 809.82,223.28 810.55,221.63 C812.01,218.48 822.57,208.87 827.93,205.11 C830.00,203.67 835.99,200.00 836.52,199.92 C835.69,201.49 832.24,204.30 830.16,205.68 C825.94,208.46 818.57,210.90 806.44,214.31 C796.58,216.98 791.09,217.74 789.98,217.27 C789.89,216.54 791.29,214.60 793.76,212.65 C802.16,206.11 820.80,200.55 822.91,200.17 C812.10,205.05 776.50,222.43 773.66,223.04 C773.32,223.11 772.64,223.20 771.64,223.31 C771.51,222.16 774.85,218.24 776.53,216.73 C780.23,213.43 790.18,206.68 795.62,203.74 C802.49,200.14 812.76,195.74 814.44,195.94 C814.69,196.62 777.19,219.12 770.21,222.26 C763.08,225.43 757.50,226.44 754.88,226.02 C754.27,224.40 755.55,221.09 756.99,218.97 C759.52,215.32 769.72,206.25 774.91,202.96 C781.49,198.83 787.79,196.90 788.33,197.27 C788.61,197.90 787.78,199.83 785.94,201.71 C782.30,205.37 771.87,212.27 766.31,215.14 C763.95,216.33 758.48,219.03 756.54,219.78 C752.66,221.23 747.80,222.05 747.59,221.21 C747.65,219.94 749.99,216.35 752.48,213.84 C755.28,211.04 765.65,203.49 771.31,200.17 C774.72,198.18 779.86,195.90 781.79,195.32 C782.60,195.08 784.89,194.51 784.94,194.50" fill="none" stroke="rgb(255, 255, 255)" stroke-width="16.00" stroke-opacity="1.00" stroke-linejoin="round"/>
<path d="M764.85,290.88 C764.85,290.88 764.01,292.94 764.01,292.94 C764.01,292.94 768.05,292.94 768.05,292.94 C767.05,292.37 766.25,292.04 765.78,292.05 C765.53,292.06 765.37,292.47 765.14,293.33 C766.44,293.45 768.43,291.33 769.14,290.96 C769.39,290.84 769.65,290.70 769.92,290.55" fill="none" stroke="rgb(255, 255, 255)" stroke-width="16.00" stroke-opacity="1.00" stroke-linejoin="round"/>
<path d="M790.04,177.17 C790.04,177.17 794.08,173.33 794.08,173.33 C794.08,173.33 794.19,175.22 794.19,175.22" fill="none" stroke="rgb(255, 255, 255)" stroke-width="16.00" stroke-opacity="1.00" stroke-linejoin="round"/>
</g>
<g stroke-linecap="round" transform="translate(-458.00, -166.00)" id="Layer_10"/>
<g stroke-linecap="round" transform="translate(-458.00, -166.00)" id="Layer_2_Copy">
<path d="M633.27,191.62 C634.78,191.68 635.77,191.88 637.38,192.51 C643.35,194.83 649.60,196.27 652.22,196.82" fill="none" stroke="rgb(49, 49, 49)" stroke-width="6.00" stroke-opacity="1.00" stroke-linejoin="round"/>
<path d="M636.28,191.09 C637.51,192.14 638.40,192.66 639.53,192.79 C647.37,193.64 657.67,195.39 659.42,195.44 C662.89,195.52 664.16,193.87 664.33,193.41 C663.83,193.62 662.01,194.68 661.89,194.73 C660.06,195.44 656.42,194.57 652.42,193.15 C652.42,193.15 667.26,194.02 667.26,194.02 C666.78,194.01 662.17,194.89 659.77,195.01 C658.37,195.07 657.01,194.89 655.02,194.45 C658.41,195.10 668.41,193.22 675.34,192.16 C676.86,191.95 679.09,191.68 679.94,191.58 C679.94,191.58 668.36,193.35 668.36,193.35 C668.36,193.35 678.22,193.07 678.22,193.07 C678.22,193.07 666.96,194.45 666.96,194.45 C669.65,194.59 678.00,192.23 678.21,192.21 C679.29,192.15 682.41,192.13 685.17,191.58 C685.17,191.58 679.22,192.59 679.22,192.59 C679.22,192.59 687.13,190.79 687.13,190.79 C687.13,190.79 688.63,191.41 688.63,191.41 C688.73,191.12 675.07,189.66 676.37,185.38 C676.37,185.38 685.93,188.37 685.93,188.37 C685.93,188.37 674.91,185.59 674.91,185.59 C674.90,185.52 685.76,187.44 686.55,188.18 C686.79,188.42 689.90,191.43 690.37,191.73 C690.05,191.65 678.78,185.14 676.67,184.49 C674.09,183.70 672.08,183.81 671.71,183.93 C671.71,183.93 678.07,183.78 678.07,183.78 C677.96,184.89 667.46,183.53 666.28,182.97 C666.28,182.97 671.39,182.49 671.39,182.49 C671.39,182.49 657.24,185.27 657.24,185.27 C657.24,185.27 664.31,182.02 664.31,182.02 C664.31,182.02 653.84,184.97 653.84,184.97 C653.84,184.97 659.33,183.05 659.33,183.05 C659.33,183.05 648.99,186.80 648.99,186.80 C648.99,186.80 655.92,183.70 655.92,183.70 C655.92,183.70 644.63,188.07 644.63,188.07 C644.63,188.07 649.43,184.58 649.43,184.58 C649.43,184.58 639.71,190.20 639.71,190.20 C639.71,190.20 640.81,189.94 640.81,189.94 C640.81,189.94 638.35,190.94 638.35,190.94 C638.35,190.94 646.51,188.82 646.51,188.82 C646.51,188.82 637.48,190.16 637.48,190.16 C637.48,190.16 646.27,186.84 646.27,186.84 C646.27,186.84 636.85,190.14 636.85,190.14 C636.83,190.15 640.13,188.95 643.91,188.44 C649.71,187.68 657.92,187.78 658.69,187.42 C658.69,187.42 647.28,189.10 647.28,189.10 C647.88,188.79 652.28,188.46 658.03,188.22 C662.79,188.05 663.93,188.23 665.42,188.69 C664.78,189.75 663.82,190.31 661.60,190.77 C656.96,191.69 652.94,192.13 651.04,191.76 C649.74,191.50 648.31,190.89 647.38,190.31 C647.43,189.35 652.53,187.86 655.93,187.34 C658.71,186.95 664.93,186.80 667.12,187.36 C668.39,187.71 668.91,188.32 669.09,188.70 C668.45,189.64 655.31,190.46 651.69,189.66 C650.87,189.47 650.09,189.12 650.03,189.00 C655.55,186.50 672.88,188.16 674.21,188.95 C673.43,189.47 667.25,190.43 663.16,190.73 C656.19,191.21 653.13,189.23 652.89,188.54 C653.25,187.86 656.43,186.83 660.56,186.58 C664.69,186.34 674.58,187.74 678.26,188.63 C678.26,188.63 666.70,189.79 666.70,189.79 C666.70,189.79 682.25,191.99 682.25,191.99 C681.48,192.38 676.90,192.63 674.31,191.67 C672.44,190.97 671.08,190.10 670.98,189.69 C671.79,189.58 672.36,189.58 673.03,189.75 C673.64,189.90 674.13,190.03 674.27,190.08" fill="none" stroke="rgb(49, 49, 49)" stroke-width="6.00" stroke-opacity="1.00" stroke-linejoin="round"/>
</g>
<g stroke-linecap="round" transform="translate(-458.00, -166.00)" id="Layer_3_Copy">
<path d="M674.32,200.30 C674.68,200.30 679.10,202.18 674.20,202.92 C671.45,203.14 673.16,200.47 673.58,200.10 C674.44,200.49 674.73,200.66 674.67,201.01 C674.60,201.46 674.52,201.91 674.44,202.36" fill="none" stroke="rgb(49, 49, 49)" stroke-width="6.00" stroke-opacity="1.00" stroke-linejoin="round"/>
<path d="M655.55,201.46 C655.55,201.46 653.81,203.99 653.81,203.99 C653.81,203.99 653.60,201.07 653.60,201.07 C654.53,201.53 654.95,201.93 654.85,202.46 C654.83,202.58 654.74,202.90 654.59,203.41" fill="none" stroke="rgb(49, 49, 49)" stroke-width="6.00" stroke-opacity="1.00" stroke-linejoin="round"/>
<path d="M686.98,207.09 C682.06,207.41 672.75,205.40 671.92,205.19 C671.60,205.10 671.28,205.00 670.97,204.87" fill="none" stroke="rgb(49, 49, 49)" stroke-width="6.00" stroke-opacity="1.00" stroke-linejoin="round"/>
<path d="M658.38,205.83 C655.49,206.76 649.55,208.65 646.51,209.61 C644.43,210.24 640.17,211.19 639.05,211.43 C638.81,211.48 638.58,211.54 638.34,211.60" fill="none" stroke="rgb(49, 49, 49)" stroke-width="6.00" stroke-opacity="1.00" stroke-linejoin="round"/>
</g>
<g stroke-linecap="round" transform="translate(-458.00, -166.00)" id="Layer_7">
<path d="M623.90,202.96 C624.02,203.29 624.72,204.15 625.01,204.51 C627.62,207.70 630.65,210.10 634.83,212.32 C637.04,213.80 640.04,215.71 644.88,217.29 C648.12,218.33 648.65,218.48 651.41,219.10 C651.93,219.22 652.85,219.44 654.14,219.76" fill="none" stroke="rgb(0, 0, 0)" stroke-width="4.00" stroke-opacity="1.00" stroke-linejoin="round"/>
<path d="M649.76,217.82 C650.87,218.21 671.16,219.60 675.82,218.76 C677.92,218.36 684.97,216.86 685.60,216.69 C686.10,216.55 686.79,216.31 687.69,215.96" fill="none" stroke="rgb(0, 0, 0)" stroke-width="4.00" stroke-opacity="1.00" stroke-linejoin="round"/>
<path d="M683.88,216.59 C687.63,214.90 693.93,211.33 702.40,205.90 C703.12,205.42 709.00,200.93 709.62,200.65 C709.86,200.54 710.76,200.15 712.32,199.49" fill="none" stroke="rgb(0, 0, 0)" stroke-width="4.00" stroke-opacity="1.00" stroke-linejoin="round"/>
<path d="M708.67,202.11 C710.92,201.09 717.68,198.62 718.93,198.44 C722.65,197.97 732.98,201.82 733.11,201.84 C733.44,201.89 734.12,201.92 735.14,201.92" fill="none" stroke="rgb(0, 0, 0)" stroke-width="4.00" stroke-opacity="1.00" stroke-linejoin="round"/>
<path d="M732.83,201.47 C734.46,203.52 736.08,205.92 736.33,207.45 C736.43,208.10 738.00,213.49 738.47,215.76 C739.54,219.95 739.95,225.74 739.57,229.83 C738.90,236.48 736.81,244.67 734.07,248.70 C733.80,249.09 733.33,249.74 732.64,250.64" fill="none" stroke="rgb(0, 0, 0)" stroke-width="4.00" stroke-opacity="1.00" stroke-linejoin="round"/>
<path d="M734.54,247.84 C732.08,250.81 729.80,253.40 728.84,254.70 C722.37,263.47 717.45,271.64 715.11,274.33 C714.78,274.71 706.58,282.94 706.11,283.38 C705.72,283.74 704.86,284.50 703.52,285.66" fill="none" stroke="rgb(0, 0, 0)" stroke-width="4.00" stroke-opacity="1.00" stroke-linejoin="round"/>
<path d="M707.95,281.81 C706.89,282.93 706.01,283.75 704.36,285.06 C698.82,289.43 696.62,290.98 694.14,291.92 C692.84,292.50 688.82,294.81 687.80,295.26 C687.28,295.49 683.78,296.31 682.39,296.68 C682.01,296.78 681.57,296.92 681.09,297.08" fill="none" stroke="rgb(0, 0, 0)" stroke-width="4.00" stroke-opacity="1.00" stroke-linejoin="round"/>
<path d="M686.88,295.44 C685.80,296.46 683.53,295.76 681.39,295.77 C680.06,295.89 677.89,296.01 674.57,295.07 C672.00,294.36 669.91,294.94 668.90,295.42 C668.66,295.55 668.19,295.80 667.50,296.18" fill="none" stroke="rgb(0, 0, 0)" stroke-width="4.00" stroke-opacity="1.00" stroke-linejoin="round"/>
<path d="M670.25,294.65 C668.61,295.47 667.65,295.48 666.72,296.03 C656.91,301.73 655.21,302.46 654.23,302.71 C653.84,302.81 652.68,303.08 650.73,303.54" fill="none" stroke="rgb(0, 0, 0)" stroke-width="4.00" stroke-opacity="1.00" stroke-linejoin="round"/>
<path d="M655.14,302.12 C654.82,302.15 652.54,301.96 650.28,303.10 C649.23,303.61 644.71,303.45 642.12,302.70 C640.20,302.13 635.32,299.84 632.19,297.16 C631.84,296.85 631.32,296.39 630.64,295.77" fill="none" stroke="rgb(0, 0, 0)" stroke-width="4.00" stroke-opacity="1.00" stroke-linejoin="round"/>
<path d="M633.39,297.45 C632.76,296.66 630.75,295.86 627.89,293.06 C624.44,289.66 617.34,284.03 616.50,282.61 C616.10,281.92 615.71,281.23 615.31,280.54" fill="none" stroke="rgb(0, 0, 0)" stroke-width="4.00" stroke-opacity="1.00" stroke-linejoin="round"/>
<path d="M618.87,285.06 C618.58,284.58 616.51,282.83 615.46,280.63 C613.75,277.52 612.94,273.61 612.45,270.03 C612.28,268.74 611.73,264.55 610.92,261.72 C610.77,261.19 610.52,260.28 610.19,259.00" fill="none" stroke="rgb(0, 0, 0)" stroke-width="4.00" stroke-opacity="1.00" stroke-linejoin="round"/>
<path d="M612.18,262.58 C609.07,259.03 608.13,258.01 605.68,256.67 C602.90,255.10 599.20,253.09 598.75,252.87 C598.44,252.72 597.74,252.36 596.65,251.79" fill="none" stroke="rgb(0, 0, 0)" stroke-width="4.00" stroke-opacity="1.00" stroke-linejoin="round"/>
<path d="M601.05,253.18 C599.13,251.75 595.78,250.19 595.21,249.69 C594.06,248.54 589.85,245.27 588.46,243.59 C587.77,242.74 586.29,240.63 585.81,239.74 C584.71,237.64 584.82,232.24 585.00,231.31 C585.07,231.01 585.29,230.03 585.69,228.35" fill="none" stroke="rgb(0, 0, 0)" stroke-width="4.00" stroke-opacity="1.00" stroke-linejoin="round"/>
<path d="M584.91,232.27 C584.69,231.55 586.28,225.78 587.45,223.60 C588.80,221.15 597.26,212.04 599.39,209.14 C599.68,208.75 600.18,208.12 600.86,207.26" fill="none" stroke="rgb(0, 0, 0)" stroke-width="4.00" stroke-opacity="1.00" stroke-linejoin="round"/>
<path d="M600.85,206.92 C603.90,203.95 605.83,202.62 609.52,200.72 C610.88,200.05 612.69,199.86 613.32,199.77 C613.54,199.74 613.76,199.66 614.00,199.51" fill="none" stroke="rgb(0, 0, 0)" stroke-width="4.00" stroke-opacity="1.00" stroke-linejoin="round"/>
<path d="M612.15,198.89 C613.63,198.13 618.38,199.96 621.64,201.12 C621.84,201.19 622.08,201.33 622.38,201.52 C622.55,201.63 622.86,201.83 623.29,202.11" fill="none" stroke="rgb(0, 0, 0)" stroke-width="4.00" stroke-opacity="1.00" stroke-linejoin="round"/>
<path d="M617.16,198.07 C621.20,195.74 630.77,190.23 638.97,186.87 C648.10,183.15 650.42,182.67 652.54,182.46 C652.77,182.44 652.93,182.40 653.04,182.35" fill="none" stroke="rgb(0, 0, 0)" stroke-width="4.00" stroke-opacity="1.00" stroke-linejoin="round"/>
<path d="M650.64,181.98 C652.26,180.76 663.98,179.84 670.47,180.47 C675.83,180.95 687.52,185.30 691.47,187.62 C708.71,197.80 711.94,199.69 712.18,199.82" fill="none" stroke="rgb(0, 0, 0)" stroke-width="4.00" stroke-opacity="1.00" stroke-linejoin="round"/>
<path d="M601.73,205.73 C601.63,205.71 599.74,203.19 599.13,202.77 C597.75,201.86 586.24,194.71 580.67,192.45 C574.63,190.10 555.00,186.42 536.91,182.25 C534.09,181.67 529.01,180.64 524.24,180.01 C520.25,179.50 516.61,179.67 511.44,180.25 C502.72,181.32 496.15,183.79 495.30,183.99 C495.09,184.04 494.82,184.11 494.49,184.19" fill="none" stroke="rgb(0, 0, 0)" stroke-width="4.00" stroke-opacity="1.00" stroke-linejoin="round"/>
<path d="M499.26,182.06 C497.61,182.39 493.67,185.29 491.71,186.55 C489.50,187.98 477.44,199.95 475.90,201.78 C473.30,204.89 467.70,214.10 465.91,218.46 C464.17,222.73 462.62,229.01 461.03,239.62 C460.30,245.10 460.84,254.44 462.64,259.72 C463.66,262.67 465.75,267.47 467.84,271.94 C468.19,272.73 468.55,273.52 468.90,274.31" fill="none" stroke="rgb(0, 0, 0)" stroke-width="4.00" stroke-opacity="1.00" stroke-linejoin="round"/>
<path d="M466.79,270.05 C466.96,270.95 470.66,276.97 471.67,278.35 C473.71,281.10 477.21,284.08 479.68,285.46 C484.92,288.34 492.99,291.38 499.21,292.25 C499.83,292.33 500.45,292.41 501.07,292.49" fill="none" stroke="rgb(0, 0, 0)" stroke-width="4.00" stroke-opacity="1.00" stroke-linejoin="round"/>
<path d="M500.09,291.48 C499.95,291.69 502.26,294.16 510.74,294.05 C519.94,293.89 525.75,294.75 532.40,294.36 C536.26,294.13 539.42,293.81 540.18,293.73 C540.59,293.69 541.00,293.65 541.41,293.61" fill="none" stroke="rgb(0, 0, 0)" stroke-width="4.00" stroke-opacity="1.00" stroke-linejoin="round"/>
<path d="M526.98,264.23 C527.27,269.00 528.09,271.41 530.01,275.96 C531.58,279.55 534.01,283.40 535.92,285.56 C538.91,288.86 544.79,292.63 554.84,298.77 C556.38,299.69 561.59,302.42 563.15,303.22 C563.97,303.64 564.80,304.06 565.63,304.47" fill="none" stroke="rgb(0, 0, 0)" stroke-width="4.00" stroke-opacity="1.00" stroke-linejoin="round"/>
<path d="M563.23,301.19 C564.55,302.37 569.05,304.41 571.44,305.50 C571.99,305.74 596.40,312.46 605.03,314.24 C605.56,314.35 606.09,314.47 606.63,314.59" fill="none" stroke="rgb(0, 0, 0)" stroke-width="4.00" stroke-opacity="1.00" stroke-linejoin="round"/>
<path d="M598.55,311.90 C599.45,312.59 599.97,312.69 602.26,312.58 C603.09,312.54 606.73,312.69 607.21,312.63 C607.78,312.57 613.87,311.06 617.49,309.83 C621.14,308.65 625.17,306.48 626.96,305.24 C628.67,304.04 633.18,300.13 634.48,299.21 C634.66,299.08 634.81,298.98 634.93,298.91" fill="none" stroke="rgb(0, 0, 0)" stroke-width="4.00" stroke-opacity="1.00" stroke-linejoin="round"/>
<path d="M709.40,283.49 C711.21,285.57 712.57,287.01 713.33,287.48 C714.33,288.09 727.93,294.36 730.36,295.69 C733.07,297.13 739.45,299.11 743.68,299.72 C753.74,301.02 763.92,301.88 769.67,301.60 C772.76,301.44 780.09,300.53 783.65,300.07 C785.43,299.86 788.21,299.54 789.21,299.43" fill="none" stroke="rgb(0, 0, 0)" stroke-width="4.00" stroke-opacity="1.00" stroke-linejoin="round"/>
<path d="M783.54,298.73 C784.17,298.92 784.90,299.01 785.52,298.90 C785.59,298.89 793.34,294.10 794.58,293.19 C796.27,291.94 805.35,282.67 807.73,278.97 C809.02,276.93 811.58,271.41 811.87,270.88 C812.11,270.42 812.63,269.58 813.41,268.34" fill="none" stroke="rgb(0, 0, 0)" stroke-width="4.00" stroke-opacity="1.00" stroke-linejoin="round"/>
<path d="M809.68,276.36 C811.24,276.98 815.34,279.13 818.52,279.53 C824.85,280.29 836.56,281.14 839.89,281.00 C843.78,280.80 856.22,276.65 859.67,274.16 C861.34,272.93 863.92,269.93 865.26,268.03 C866.53,266.23 868.36,262.64 869.46,259.45 C869.56,259.17 869.65,258.90 869.74,258.63" fill="none" stroke="rgb(0, 0, 0)" stroke-width="4.00" stroke-opacity="1.00" stroke-linejoin="round"/>
<path d="M867.94,261.43 C868.07,260.97 869.89,257.31 870.72,254.06 C872.00,248.71 875.63,233.83 875.53,229.18 C875.42,226.01 874.17,218.64 872.82,215.38 C871.88,213.15 860.22,195.58 859.75,194.88 C857.95,192.23 850.63,185.24 849.08,183.95 C843.99,179.76 833.20,175.01 831.22,173.95 C831.02,173.84 830.70,173.66 830.25,173.40" fill="none" stroke="rgb(0, 0, 0)" stroke-width="4.00" stroke-opacity="1.00" stroke-linejoin="round"/>
<path d="M834.79,174.74 C834.30,174.28 833.30,173.98 832.92,173.86 C832.23,173.65 818.06,170.53 811.61,169.04 C807.49,168.15 798.12,167.47 791.21,167.88 C789.28,168.00 772.04,169.61 765.84,171.37 C760.54,172.90 748.68,177.59 744.08,180.06 C732.49,186.33 723.36,195.99 722.43,197.04" fill="none" stroke="rgb(0, 0, 0)" stroke-width="4.00" stroke-opacity="1.00" stroke-linejoin="round"/>
<path d="M633.71,192.37 C638.65,194.06 651.85,195.40 657.41,195.21 C665.22,194.96 687.44,191.22 690.97,190.63" fill="none" stroke="rgb(0, 0, 0)" stroke-width="4.00" stroke-opacity="1.00" stroke-linejoin="round"/>
</g>
</svg>
