<?xml version="1.0" encoding="UTF-8" standalone="no"?>
<!DOCTYPE svg PUBLIC "-//W3C//DTD SVG 1.1//EN" "http://www.w3.org/Graphics/SVG/1.1/DTD/svg11.dtd">
<svg width="95.28" height="35.28" viewBox="0.00 0.00 397.00 147.00" xmlns="http://www.w3.org/2000/svg" xmlns:xlink="http://www.w3.org/1999/xlink">
<g stroke-linecap="round" transform="translate(-477.00, -169.00)" id="Layer_66">
<path d="M515.90,239.65 C515.90,239.65 513.81,239.09 513.81,239.09 C513.13,236.81 512.90,235.57 512.96,233.96 C513.05,232.47 513.69,230.52 514.70,229.05 C516.73,226.17 521.92,222.75 524.46,221.89 C527.00,221.07 532.41,220.99 534.64,222.26 C535.46,222.74 537.54,225.32 538.01,226.32 C538.61,227.71 538.58,230.51 537.86,231.78 C536.55,233.96 530.94,237.98 528.16,239.39 C522.84,242.05 510.12,245.22 505.62,244.95 C504.47,244.86 502.03,243.86 501.06,243.12 C499.94,242.19 498.89,239.99 498.99,238.57 C499.23,236.01 502.01,231.56 503.75,229.73 C505.98,227.42 511.52,223.47 514.43,222.17 C517.05,221.04 522.19,220.17 523.79,221.21 C524.65,221.83 525.33,223.64 525.13,224.87 C524.72,227.07 520.93,231.63 519.09,233.16 C516.90,234.92 511.47,238.13 509.50,238.87 C507.88,239.45 505.46,239.86 504.25,239.69 C502.76,239.43 500.74,238.29 500.12,237.23 C499.61,236.28 499.25,232.99 499.48,231.59 C500.06,228.56 504.87,221.80 507.60,219.90 C509.01,218.96 511.79,218.02 512.97,218.07 C514.15,218.18 515.50,219.41 515.90,220.69 C516.22,221.85 516.15,224.69 515.75,226.03 C515.31,227.42 513.66,230.14 512.59,231.25 C511.44,232.40 509.33,233.59 507.94,233.90 C505.53,234.38 501.78,233.36 500.01,231.89 C499.18,231.15 498.38,228.44 498.41,226.55 C498.46,225.10 501.28,220.69 503.38,219.57 C504.62,218.94 507.09,218.41 508.37,218.52 C509.56,218.65 511.49,219.58 512.06,220.28 C512.54,220.93 512.84,222.91 512.61,223.97 C512.01,226.38 507.85,231.44 505.05,233.07 C502.09,234.75 497.39,235.54 495.85,235.14 C495.07,234.88 494.50,232.38 494.66,230.24 C494.80,228.70 498.38,221.92 499.93,220.46 C501.66,218.90 505.71,217.79 506.90,218.78 C507.56,219.39 508.17,221.32 508.14,222.74 C508.03,225.64 505.18,230.97 502.81,232.71 C501.58,233.58 499.16,234.52 497.88,234.65 C496.76,234.71 494.79,234.16 494.13,233.38 C493.09,232.07 492.03,229.63 492.05,228.52 C492.15,226.50 494.41,221.28 495.94,219.72 C496.87,218.81 498.87,217.68 500.04,217.45 C501.75,217.17 504.43,217.58 507.15,218.51 C508.83,219.13 510.96,219.92 511.01,219.87" fill="none" stroke="rgb(255, 255, 255)" stroke-width="26.00" stroke-opacity="1.00" stroke-linejoin="round"/>
<path d="M504.90,220.76 C504.90,220.76 502.36,220.28 502.36,220.28 C504.42,217.04 515.07,207.68 521.14,204.70 C526.70,202.02 535.87,200.25 538.40,200.70 C539.38,200.88 540.40,201.21 540.65,201.35" fill="none" stroke="rgb(255, 255, 255)" stroke-width="26.00" stroke-opacity="1.00" stroke-linejoin="round"/>
<path d="M511.01,214.12 C510.31,211.70 510.36,210.38 511.50,209.11 C513.66,206.73 517.06,204.44 519.95,203.17 C523.99,201.43 529.31,199.94 533.42,199.54 C538.68,199.07 544.57,199.19 546.81,199.78 C547.06,199.85 547.52,200.00 548.18,200.23" fill="none" stroke="rgb(255, 255, 255)" stroke-width="26.00" stroke-opacity="1.00" stroke-linejoin="round"/>
<path d="M517.07,208.52 C517.59,207.19 520.52,203.61 522.72,202.02 C525.16,200.30 530.64,197.34 534.10,196.16 C540.76,193.94 552.65,192.77 554.61,192.76 C555.08,192.76 556.04,192.80 557.47,192.87" fill="none" stroke="rgb(255, 255, 255)" stroke-width="26.00" stroke-opacity="1.00" stroke-linejoin="round"/>
<path d="M554.55,193.81 C558.16,194.18 564.62,195.75 567.85,196.23 C571.00,196.69 578.03,197.12 579.50,197.58 C579.78,197.67 579.92,197.82 579.90,198.03" fill="none" stroke="rgb(255, 255, 255)" stroke-width="26.00" stroke-opacity="1.00" stroke-linejoin="round"/>
<path d="M570.93,197.69 C570.43,199.85 568.36,205.86 566.34,208.70 C564.96,210.59 561.05,213.97 557.51,216.21 C553.43,218.73 540.78,222.93 538.04,223.15 C536.93,223.21 535.51,222.46 535.00,221.58 C534.42,220.47 534.76,218.13 535.68,216.39 C536.65,214.67 541.73,210.80 545.32,209.38 C548.97,207.97 556.68,207.00 560.50,207.40 C564.19,207.82 570.45,209.92 572.10,211.09 C573.55,212.18 574.90,214.15 575.15,215.76 C575.42,217.78 574.71,220.46 573.40,222.70 C572.33,224.46 568.12,228.42 565.47,229.95 C562.62,231.55 557.29,233.05 555.83,232.86 C554.55,232.64 552.84,231.40 551.97,230.06 C550.97,228.43 550.11,222.56 550.56,220.24 C550.97,218.29 552.11,215.87 553.25,214.68 C554.77,213.18 557.61,211.31 559.22,210.94 C560.56,210.66 563.57,210.93 564.21,211.28 C565.81,212.30 567.44,216.06 567.77,219.69 C568.07,223.48 567.27,229.53 566.56,231.75 C564.42,238.23 559.85,244.42 558.33,245.14 C557.28,245.58 556.05,245.46 555.38,244.73 C554.13,243.26 553.10,236.64 553.89,233.53 C554.34,231.90 555.87,228.85 556.81,227.74 C558.95,225.32 561.13,225.33 562.03,225.76 C562.94,228.33 561.99,233.93 560.45,237.17 C557.97,242.18 555.65,245.75 552.85,247.68 C550.17,249.47 543.02,251.05 539.22,251.46 C532.76,252.08 531.74,252.01 530.78,251.64 C530.93,249.74 533.02,248.38 533.74,248.09 C534.03,251.57 532.78,258.86 531.01,261.16 C529.20,263.41 522.69,265.77 522.16,266.16 C522.16,266.16 525.32,265.19 525.32,265.19 C529.32,270.34 530.68,270.81 531.31,270.79 C531.31,270.79 531.31,270.79 531.31,270.79" fill="none" stroke="rgb(255, 255, 255)" stroke-width="26.00" stroke-opacity="1.00" stroke-linejoin="round"/>
<path d="M532.29,270.79 C528.12,272.06 523.93,271.43 519.95,269.93 C516.59,268.55 511.58,265.64 509.93,263.88 C508.25,262.03 507.37,258.64 508.48,257.31 C509.63,256.03 514.44,254.14 516.79,254.44 C518.89,254.75 522.73,257.98 523.40,259.63 C523.96,261.08 524.33,263.50 524.04,264.03 C523.32,265.16 519.50,266.41 516.75,266.23 C514.01,266.01 507.72,262.96 505.77,260.89 C503.85,258.79 502.27,253.86 502.61,252.05 C503.09,249.90 504.95,247.48 506.96,246.86 C508.95,246.26 511.57,246.64 512.83,247.38 C512.83,247.38 512.89,248.72 512.89,248.72 C511.46,250.02 509.33,250.92 507.28,250.78 C505.55,250.65 500.80,247.46 498.95,246.52 C498.95,246.52 506.51,239.73 506.51,239.73 C507.80,241.55 507.99,246.22 507.51,249.06 C507.24,250.63 506.65,252.44 505.64,255.11 C505.64,255.11 504.02,255.44 504.02,255.44 C501.91,253.20 498.18,245.32 498.07,242.94 C498.02,240.89 499.01,237.83 500.23,236.22 C501.21,235.01 504.11,232.72 505.13,232.48 C505.59,232.39 506.49,232.40 507.84,232.52" fill="none" stroke="rgb(255, 255, 255)" stroke-width="26.00" stroke-opacity="1.00" stroke-linejoin="round"/>
<path d="M500.61,242.86 C498.67,242.76 496.01,241.86 494.62,240.62 C493.94,239.99 493.69,236.66 493.87,235.02 C494.28,232.01 497.43,226.65 497.88,226.14 C498.22,225.76 498.94,225.11 500.05,224.20" fill="none" stroke="rgb(255, 255, 255)" stroke-width="26.00" stroke-opacity="1.00" stroke-linejoin="round"/>
<path d="M547.20,266.16 C549.92,268.62 554.14,270.55 556.23,271.84 C558.98,273.50 564.54,274.87 564.89,275.38 C565.00,275.56 565.18,275.97 565.43,276.61 C564.60,276.85 560.81,275.27 557.47,273.03 C550.37,268.13 548.06,267.65 546.98,267.65 C547.53,270.59 553.47,276.65 560.22,284.16 C561.59,285.70 562.45,286.55 563.97,287.89 C563.74,286.57 562.99,285.51 560.95,283.89 C559.59,282.81 557.07,280.82 555.90,279.90 C559.78,283.62 567.84,287.79 570.27,289.86 C571.95,291.28 572.62,291.56 573.89,291.43 C576.01,291.19 578.96,292.78 581.56,295.35 C583.85,297.63 587.70,299.51 588.94,299.61 C590.24,299.70 594.17,299.72 595.64,299.76 C595.64,299.76 597.83,301.10 597.83,301.10 C596.42,300.44 591.18,298.18 587.41,297.63 C583.67,297.10 575.30,295.64 572.02,294.71 C568.48,293.67 563.68,291.00 562.44,289.38 C561.54,288.12 560.69,285.82 560.91,284.71 C561.00,284.30 561.33,283.44 561.89,282.14" fill="none" stroke="rgb(255, 255, 255)" stroke-width="26.00" stroke-opacity="1.00" stroke-linejoin="round"/>
<path d="M756.21,290.80 C757.36,290.18 766.58,289.72 767.14,289.68 C768.35,289.62 770.81,289.43 771.86,288.89 C775.21,286.91 777.87,285.86 778.00,285.68 C778.00,285.68 758.66,292.70 758.66,292.70 C758.66,292.70 773.24,288.93 773.24,288.93 C773.24,288.93 761.73,292.70 761.73,292.70 C763.91,293.67 764.79,294.18 764.97,294.16 C770.14,293.39 774.31,291.90 778.42,289.75 C780.71,288.51 785.70,282.28 786.87,281.13 C787.85,280.17 790.08,278.48 791.53,277.47 C791.53,277.47 782.26,287.96 782.26,287.96 C782.26,287.96 791.39,279.64 791.39,279.64 C791.39,279.64 786.29,289.60 786.29,289.60 C786.27,288.75 792.89,277.34 794.09,274.37 C794.21,274.07 794.39,273.54 794.63,272.80" fill="none" stroke="rgb(255, 255, 255)" stroke-width="26.00" stroke-opacity="1.00" stroke-linejoin="round"/>
<path d="M776.48,267.95 C776.48,267.95 774.22,267.76 774.22,267.76 C772.98,266.44 772.79,262.27 773.31,259.51 C773.81,257.03 776.04,250.39 777.31,248.24 C777.80,247.43 780.75,243.16 781.30,242.60 C781.99,241.94 784.81,240.81 785.63,240.96 C786.76,241.21 788.44,242.90 789.10,244.25 C790.32,247.00 791.49,253.23 791.41,256.28 C791.30,259.13 789.93,263.80 788.75,266.32 C787.53,268.80 784.65,272.03 782.49,272.13 C781.29,272.14 779.52,270.69 778.66,269.15 C777.90,267.68 777.06,261.21 777.27,257.57 C777.51,253.99 779.19,247.41 780.60,244.21 C781.92,241.29 785.59,235.20 786.99,234.65 C787.58,234.45 789.46,234.20 789.77,234.50 C790.84,235.61 791.88,237.65 792.19,239.36 C792.73,242.49 792.68,249.33 792.29,251.70 C791.89,254.03 789.70,261.64 789.11,262.95 C787.83,265.74 786.49,266.63 785.57,266.98 C784.56,266.05 784.58,262.12 784.75,260.37 C784.78,260.02 784.84,259.66 784.91,259.29" fill="none" stroke="rgb(255, 255, 255)" stroke-width="26.00" stroke-opacity="1.00" stroke-linejoin="round"/>
<path d="M791.32,235.77 C789.41,232.62 784.51,219.71 784.41,213.72 C784.40,211.06 785.81,205.87 785.67,203.74 C785.43,200.77 785.70,197.83 785.54,196.72 C785.30,195.23 783.93,192.79 783.26,192.58 C781.37,192.05 776.51,187.73 771.69,187.39 C772.87,187.37 774.05,187.36 775.23,187.35 C775.36,187.35 775.74,187.33 775.61,187.31" fill="none" stroke="rgb(255, 255, 255)" stroke-width="26.00" stroke-opacity="1.00" stroke-linejoin="round"/>
<path d="M778.55,190.30 C780.48,188.54 782.00,187.53 784.28,186.63 C788.10,185.13 792.35,183.74 795.55,182.96 C798.86,182.19 803.25,182.16 806.65,183.73 C815.14,188.11 819.43,189.41 820.26,189.55 C820.52,189.59 820.64,189.56 820.64,189.44" fill="none" stroke="rgb(255, 255, 255)" stroke-width="26.00" stroke-opacity="1.00" stroke-linejoin="round"/>
<path d="M812.86,187.09 C814.56,187.72 820.47,188.44 823.60,189.85 C823.67,189.88 829.66,193.60 833.83,195.92 C840.12,199.48 848.09,207.03 849.93,207.77 C849.93,207.77 850.72,206.09 850.72,206.09" fill="none" stroke="rgb(255, 255, 255)" stroke-width="26.00" stroke-opacity="1.00" stroke-linejoin="round"/>
<path d="M845.41,204.26 C847.33,207.46 852.15,212.34 853.34,213.78 C856.44,217.58 858.73,222.86 859.08,224.98 C859.45,227.48 857.48,236.22 855.83,239.53 C854.49,242.18 851.70,246.41 850.64,248.91 C850.64,248.91 846.50,254.44 846.50,254.44 C846.50,254.44 850.04,251.34 850.04,251.34 C847.66,254.32 844.28,258.00 840.75,259.85 C840.75,259.85 845.90,254.96 845.90,254.96 C844.58,256.87 841.15,259.92 837.23,261.72 C835.59,262.46 830.29,264.13 829.29,264.44 C829.29,264.44 839.83,260.19 839.83,260.19 C838.20,261.83 834.70,262.91 828.94,263.88 C826.90,264.21 825.30,264.52 822.77,265.04 C829.50,261.00 833.38,260.52 835.58,260.45 C835.04,262.29 833.79,263.63 831.45,264.59 C829.70,265.30 824.06,266.47 820.79,266.72 C817.30,266.96 813.12,266.62 810.06,266.05 C810.06,266.05 824.86,262.16 824.86,262.16 C822.57,263.55 802.75,267.35 799.79,266.91 C799.49,266.86 799.08,266.69 798.57,266.42 C798.18,265.22 800.17,262.22 804.28,258.32 C805.93,256.76 823.93,241.54 828.18,239.45 C830.74,238.24 832.15,238.34 832.79,238.68 C833.18,239.67 833.22,241.17 832.64,242.53 C831.48,245.13 825.84,251.19 822.51,253.13 C818.96,255.13 816.67,255.00 815.80,254.55 C815.30,252.79 818.35,247.37 820.96,244.24 C823.41,241.37 828.48,237.23 831.26,235.88 C836.38,233.49 845.45,233.26 846.59,233.60 C847.86,234.03 849.17,235.39 849.23,236.59 C849.26,237.94 848.62,240.03 847.93,240.94 C846.40,242.82 841.72,246.38 838.48,247.95 C835.24,249.48 830.00,250.57 827.27,250.67 C826.13,250.69 823.97,250.44 823.01,250.11 C821.81,249.65 819.69,247.18 818.85,245.33 C818.03,243.40 817.84,235.55 818.66,232.63 C819.43,230.08 822.77,225.72 824.82,224.31 C826.98,222.88 832.01,221.41 834.82,221.32 C837.77,221.28 843.60,222.81 844.33,224.72 C844.81,226.10 844.64,228.66 843.94,229.76 C842.59,231.77 837.10,236.43 835.78,237.34 C833.86,238.65 828.13,241.50 824.90,242.49 C821.40,243.53 814.36,243.81 811.38,242.96 C808.57,242.10 804.60,239.26 803.25,237.01 C801.90,234.67 800.31,228.28 800.35,225.07 C800.43,221.77 802.42,216.24 804.18,214.17 C805.89,212.22 810.67,209.62 813.29,209.14 C816.01,208.69 821.26,209.78 823.70,211.51 C825.02,212.49 827.19,214.71 828.15,216.11 C829.21,217.72 830.14,220.19 830.58,222.44 C830.90,224.34 830.83,226.89 830.38,228.42 C829.47,231.27 825.44,236.04 823.03,237.94 C820.73,239.69 815.38,240.74 812.99,239.99 C810.94,239.29 806.24,234.98 804.74,232.55 C803.15,229.90 800.62,223.14 800.03,219.68 C799.55,216.70 799.69,210.20 800.90,207.70 C801.36,206.81 803.39,205.47 804.31,205.38 C805.54,205.32 807.42,206.13 808.30,207.04 C811.33,210.35 817.70,220.99 817.80,222.37 C817.83,223.37 816.15,225.33 814.92,225.91 C813.70,226.45 808.59,225.60 807.02,224.72 C804.32,223.15 800.33,219.43 799.36,217.90 C797.99,215.63 797.03,208.71 797.65,205.06 C798.24,201.85 801.52,196.00 803.84,194.11 C804.90,193.28 807.60,193.01 809.08,193.36 C810.69,193.81 813.51,197.43 815.22,200.71 C816.57,203.37 818.70,209.88 819.10,212.06 C819.36,213.53 819.52,215.61 819.53,216.73" fill="none" stroke="rgb(255, 255, 255)" stroke-width="26.00" stroke-opacity="1.00" stroke-linejoin="round"/>
<path d="M653.35,213.74 C653.35,213.74 672.35,212.10 672.35,212.10 C668.93,214.27 665.02,215.83 661.71,215.91 C658.37,215.92 653.53,214.55 652.86,213.22 C653.18,212.01 654.16,210.67 655.46,210.31 C658.42,209.49 661.79,210.52 662.09,210.98 C661.67,211.53 659.87,212.11 657.55,212.32 C655.89,212.47 651.37,210.37 649.32,208.55 C647.81,207.18 648.21,206.12 648.81,205.05 C648.81,205.05 650.05,206.65 650.05,206.65 C650.05,206.65 647.41,205.75 647.41,205.75 C647.41,205.75 648.41,204.34 648.41,204.34 C648.41,204.34 648.15,203.29 648.15,203.29 C646.97,203.49 646.39,203.64 646.42,203.74 C646.53,204.09 649.52,204.41 651.23,204.31 C652.83,204.20 654.21,204.17 655.98,204.19" fill="none" stroke="rgb(255, 255, 255)" stroke-width="26.00" stroke-opacity="1.00" stroke-linejoin="round"/>
<path d="M660.05,204.26 C662.46,205.38 663.94,205.85 665.52,205.85 C667.10,205.86 669.59,205.78 671.01,205.70 C673.27,205.58 674.27,205.54 676.44,205.49" fill="none" stroke="rgb(255, 255, 255)" stroke-width="26.00" stroke-opacity="1.00" stroke-linejoin="round"/>
<path d="M672.48,205.46 C675.76,204.99 681.39,204.20 681.92,204.11 C682.28,204.05 682.84,203.94 683.59,203.78" fill="none" stroke="rgb(255, 255, 255)" stroke-width="26.00" stroke-opacity="1.00" stroke-linejoin="round"/>
<path d="M685.59,201.57 C685.32,204.46 684.96,205.59 683.71,206.99 C682.01,208.89 679.20,212.98 678.02,214.86 C678.02,214.86 683.42,209.64 683.42,209.64 C684.10,211.07 677.88,218.11 677.28,218.52 C677.28,218.52 677.87,216.73 677.87,216.73" fill="none" stroke="rgb(255, 255, 255)" stroke-width="26.00" stroke-opacity="1.00" stroke-linejoin="round"/>
<path d="M680.28,214.12 C678.89,215.03 676.63,216.32 675.48,216.69 C674.44,217.02 667.83,217.85 664.59,218.93 C664.45,218.98 664.39,218.98 664.42,218.93 C664.42,218.93 671.82,216.58 671.82,216.58 C671.82,216.58 662.78,215.65 662.78,215.65 C662.78,215.65 675.34,215.61 675.34,215.61 C673.89,217.36 672.82,218.27 671.42,218.74 C669.28,219.44 663.43,220.07 661.97,219.75 C660.32,219.36 654.75,215.56 654.55,215.42 C653.16,214.49 649.30,213.38 648.11,212.85 C647.56,212.60 647.35,210.84 647.02,210.31 C646.21,208.97 643.78,207.18 642.69,207.25 C642.69,207.25 646.19,207.58 646.19,207.58" fill="none" stroke="rgb(255, 255, 255)" stroke-width="26.00" stroke-opacity="1.00" stroke-linejoin="round"/>
</g>
<g stroke-linecap="round" transform="translate(-477.00, -169.00)" id="Layer_67">
<path d="M620.50,221.58 C620.23,223.55 620.33,224.71 621.00,225.94 C623.73,231.09 634.37,245.92 635.02,246.71 C637.01,249.06 639.93,250.80 643.55,252.08 C646.32,253.08 650.97,255.57 651.92,256.60 C652.71,257.49 653.55,258.90 653.46,259.03" fill="none" stroke="rgb(72, 72, 72)" stroke-width="26.00" stroke-opacity="1.00" stroke-linejoin="round"/>
<path d="M633.57,236.82 C635.16,237.57 638.65,238.81 644.49,240.62 C651.95,242.86 664.81,243.96 672.50,243.44 C681.60,242.84 689.25,243.27 691.80,243.79 C693.96,244.24 696.10,245.60 696.25,245.85" fill="none" stroke="rgb(72, 72, 72)" stroke-width="26.00" stroke-opacity="1.00" stroke-linejoin="round"/>
<path d="M692.18,244.73 C697.07,241.32 700.54,238.50 703.07,235.58 C705.91,232.23 710.51,223.41 711.28,222.18" fill="none" stroke="rgb(72, 72, 72)" stroke-width="26.00" stroke-opacity="1.00" stroke-linejoin="round"/>
<path d="M709.24,226.21 C708.77,224.51 709.94,218.34 710.19,217.10 C710.72,214.42 711.12,206.29 711.39,205.19" fill="none" stroke="rgb(72, 72, 72)" stroke-width="26.00" stroke-opacity="1.00" stroke-linejoin="round"/>
<path d="M714.63,201.95 C716.71,207.81 717.81,211.13 718.55,214.30 C719.33,217.84 718.21,234.06 718.21,237.15" fill="none" stroke="rgb(72, 72, 72)" stroke-width="26.00" stroke-opacity="1.00" stroke-linejoin="round"/>
<path d="M719.90,220.61 C720.05,223.97 720.30,229.83 719.87,232.11 C719.60,233.44 717.39,242.02 716.63,243.68 C716.12,244.76 709.65,253.67 705.33,257.80 C704.92,260.74 704.57,267.33 704.61,267.54 C704.72,268.02 705.33,269.42 705.63,271.16 C705.63,271.16 705.74,272.51 705.74,272.51 C705.74,272.51 707.02,270.19 707.02,270.19" fill="none" stroke="rgb(72, 72, 72)" stroke-width="26.00" stroke-opacity="1.00" stroke-linejoin="round"/>
<path d="M707.74,269.89 C707.53,270.05 706.76,272.13 706.38,272.95 C705.72,274.35 704.18,276.72 703.65,277.10 C702.91,277.58 695.95,279.73 695.68,279.67" fill="none" stroke="rgb(72, 72, 72)" stroke-width="26.00" stroke-opacity="1.00" stroke-linejoin="round"/>
<path d="M701.11,276.61 C698.08,279.00 692.21,280.86 690.68,281.39 C689.37,281.83 688.83,282.12 688.53,282.44 C688.53,282.44 692.26,281.99 692.26,281.99 C690.86,282.78 686.10,283.39 685.16,283.56 C683.33,283.73 673.64,283.13 672.24,283.14 C669.99,283.18 662.60,283.87 662.16,284.04 C661.79,284.18 654.08,290.62 652.46,291.25 C652.46,291.25 654.02,289.68 654.02,289.68" fill="none" stroke="rgb(72, 72, 72)" stroke-width="26.00" stroke-opacity="1.00" stroke-linejoin="round"/>
<path d="M661.52,286.24 C661.52,286.24 654.70,292.81 654.70,292.81 C654.70,292.81 657.08,291.02 657.08,291.02 C653.80,292.90 650.35,293.43 647.47,293.83 C645.93,294.16 644.59,294.23 642.20,294.16 C642.20,294.16 643.59,293.71 643.59,293.71 C641.58,292.81 637.03,287.04 635.92,285.72 C635.01,284.64 631.23,281.07 631.09,280.53" fill="none" stroke="rgb(72, 72, 72)" stroke-width="26.00" stroke-opacity="1.00" stroke-linejoin="round"/>
<path d="M636.89,288.18 C635.18,287.65 633.70,286.53 632.35,284.60 C629.50,280.51 628.11,275.12 628.22,274.15 C628.27,273.77 628.52,273.28 628.98,272.69" fill="none" stroke="rgb(72, 72, 72)" stroke-width="26.00" stroke-opacity="1.00" stroke-linejoin="round"/>
<path d="M636.32,283.11 C634.36,281.72 633.35,280.79 632.69,279.64 C631.55,277.62 629.23,272.53 628.42,270.28 C627.50,267.73 626.68,261.27 627.45,258.47 C627.81,257.20 628.81,256.38 629.65,256.15 C629.65,256.15 630.60,257.05 630.60,257.05 C630.60,257.05 621.97,246.48 621.97,246.48 C621.97,246.48 623.48,247.79 623.48,247.79" fill="none" stroke="rgb(72, 72, 72)" stroke-width="26.00" stroke-opacity="1.00" stroke-linejoin="round"/>
<path d="M625.44,251.08 C620.40,247.50 617.69,245.19 616.27,242.97 C613.21,237.98 613.94,232.79 614.55,232.00" fill="none" stroke="rgb(72, 72, 72)" stroke-width="26.00" stroke-opacity="1.00" stroke-linejoin="round"/>
<path d="M617.26,244.13 C617.26,244.13 615.15,244.73 615.15,244.73 C614.51,243.74 610.99,231.92 610.92,231.59 C610.20,228.17 612.11,225.50 613.42,224.27" fill="none" stroke="rgb(72, 72, 72)" stroke-width="26.00" stroke-opacity="1.00" stroke-linejoin="round"/>
<path d="M611.61,231.51 C612.15,227.17 614.72,221.37 616.49,217.93 C618.20,214.61 620.60,210.66 620.97,210.08 C621.09,209.91 621.23,209.71 621.41,209.49" fill="none" stroke="rgb(72, 72, 72)" stroke-width="26.00" stroke-opacity="1.00" stroke-linejoin="round"/>
<path d="M642.10,274.40 C641.93,273.47 645.42,269.94 648.10,268.30 C652.10,265.91 676.98,256.69 682.34,255.76 C687.18,254.97 695.21,256.36 696.54,256.84 C696.68,257.74 696.69,258.00 696.15,258.42 C691.97,261.62 678.46,267.52 672.18,270.25 C668.07,271.98 666.81,272.06 666.39,271.94 C666.18,271.04 666.34,270.37 667.32,269.42 C669.53,267.28 673.18,264.24 675.11,262.85 C680.99,258.79 685.78,259.53 686.00,259.69 C686.07,260.98 683.19,264.55 680.42,266.81 C677.31,269.32 672.71,272.47 671.23,273.16 C667.83,274.70 665.92,274.45 665.31,274.14 C664.87,273.40 664.49,272.01 664.51,270.74 C664.53,269.93 664.85,268.06 665.05,267.11" fill="none" stroke="rgb(72, 72, 72)" stroke-width="26.00" stroke-opacity="1.00" stroke-linejoin="round"/>
<path d="M628.00,195.26 C625.29,197.18 621.80,203.32 621.11,205.23 C621.06,205.39 620.99,205.61 620.90,205.90" fill="none" stroke="rgb(72, 72, 72)" stroke-width="16.00" stroke-opacity="1.00" stroke-linejoin="round"/>
<path d="M629.80,195.97 C629.67,196.12 629.55,196.27 629.43,196.42 C629.14,196.78 628.85,197.14 628.56,197.50 C628.33,197.76 628.11,198.03 627.89,198.29" fill="none" stroke="rgb(72, 72, 72)" stroke-width="16.00" stroke-opacity="1.00" stroke-linejoin="round"/>
<path d="M630.53,194.98 C630.00,195.54 629.64,195.93 629.45,196.15 C629.26,196.36 628.98,196.71 628.60,197.20" fill="none" stroke="rgb(72, 72, 72)" stroke-width="16.00" stroke-opacity="1.00" stroke-linejoin="round"/>
<path d="M621.39,201.90 C617.76,206.31 611.74,217.03 611.12,220.82 C611.06,221.20 611.01,221.89 610.97,222.90" fill="none" stroke="rgb(72, 72, 72)" stroke-width="16.00" stroke-opacity="1.00" stroke-linejoin="round"/>
<path d="M618.92,205.34 C616.47,207.15 613.20,211.62 611.77,214.40 C610.49,216.94 608.65,221.61 608.00,224.03 C607.42,226.21 606.81,230.92 607.32,233.89 C607.44,234.52 608.50,236.20 608.83,236.66 C608.94,236.82 609.04,236.92 609.10,236.96" fill="none" stroke="rgb(72, 72, 72)" stroke-width="16.00" stroke-opacity="1.00" stroke-linejoin="round"/>
<path d="M617.10,209.99 C616.37,210.52 615.86,210.90 615.58,211.14 C613.30,213.05 609.83,218.00 608.52,220.66 C607.15,223.57 605.73,229.52 606.21,232.02 C606.30,232.47 606.46,232.87 606.67,233.22 C606.74,233.32 606.87,233.48 607.08,233.68" fill="none" stroke="rgb(72, 72, 72)" stroke-width="16.00" stroke-opacity="1.00" stroke-linejoin="round"/>
<path d="M614.73,211.24 C612.99,212.09 608.96,216.37 607.29,219.27 C605.56,222.31 604.07,226.47 603.66,228.66 C602.83,233.30 604.42,236.72 605.06,237.56 C605.24,237.81 605.53,238.07 605.92,238.36" fill="none" stroke="rgb(72, 72, 72)" stroke-width="16.00" stroke-opacity="1.00" stroke-linejoin="round"/>
<path d="M614.85,207.42 C611.76,209.34 608.86,212.05 606.71,215.55 C605.86,216.96 604.06,221.43 603.55,223.49 C602.97,225.99 602.63,231.74 603.48,234.53 C603.70,235.21 604.30,236.67 604.39,236.85" fill="none" stroke="rgb(72, 72, 72)" stroke-width="16.00" stroke-opacity="1.00" stroke-linejoin="round"/>
<path d="M606.26,225.84 C605.43,227.51 604.34,231.78 604.52,234.58 C604.75,237.65 606.81,241.54 608.72,243.18 C610.21,244.42 612.32,245.45 612.73,245.57" fill="none" stroke="rgb(72, 72, 72)" stroke-width="16.00" stroke-opacity="1.00" stroke-linejoin="round"/>
<path d="M604.57,231.47 C603.77,232.89 604.33,237.26 605.06,239.91 C605.98,243.16 608.33,247.41 610.14,249.03 C611.52,250.20 613.66,250.49 614.93,250.46" fill="none" stroke="rgb(72, 72, 72)" stroke-width="16.00" stroke-opacity="1.00" stroke-linejoin="round"/>
<path d="M605.49,232.37 C604.87,233.66 604.87,236.58 605.83,239.13 C606.77,241.57 610.59,246.54 612.82,248.52 C613.36,249.00 620.17,255.47 620.55,255.75 C620.67,255.84 620.85,255.91 621.08,255.98" fill="none" stroke="rgb(72, 72, 72)" stroke-width="16.00" stroke-opacity="1.00" stroke-linejoin="round"/>
<path d="M609.97,240.10 C609.57,242.33 610.18,246.02 611.49,248.71 C612.81,251.35 617.01,256.83 618.82,258.37 C620.24,259.58 621.63,260.30 622.56,260.46 C622.56,260.46 622.95,259.48 622.95,259.48" fill="none" stroke="rgb(72, 72, 72)" stroke-width="16.00" stroke-opacity="1.00" stroke-linejoin="round"/>
<path d="M609.78,244.26 C608.28,244.46 606.80,244.33 605.90,243.68 C604.19,242.41 602.72,238.45 602.55,236.42 C602.44,234.71 603.25,230.79 604.11,229.00 C604.93,227.33 606.18,226.12 607.40,225.58" fill="none" stroke="rgb(72, 72, 72)" stroke-width="16.00" stroke-opacity="1.00" stroke-linejoin="round"/>
<path d="M606.55,239.31 C606.22,238.58 605.79,237.25 605.64,236.22 C605.32,233.92 606.16,229.14 608.11,225.07 C608.18,224.92 608.38,224.47 608.34,224.64" fill="none" stroke="rgb(72, 72, 72)" stroke-width="16.00" stroke-opacity="1.00" stroke-linejoin="round"/>
<path d="M627.82,214.50 C629.31,216.94 632.55,221.19 634.53,223.08 C636.40,224.79 640.44,228.53 641.47,230.18 C641.73,230.61 642.16,231.46 642.78,232.73" fill="none" stroke="rgb(72, 72, 72)" stroke-width="16.00" stroke-opacity="1.00" stroke-linejoin="round"/>
<path d="M652.71,235.10 C652.58,235.07 659.85,235.00 662.87,235.22 C665.72,235.43 673.99,236.30 676.42,236.33 C679.02,236.34 685.15,235.39 686.84,235.23 C688.04,235.12 689.15,235.07 690.16,235.08" fill="none" stroke="rgb(72, 72, 72)" stroke-width="16.00" stroke-opacity="1.00" stroke-linejoin="round"/>
<path d="M662.76,236.03 C664.17,236.26 668.36,235.85 673.26,234.98 C677.36,234.25 687.43,233.02 689.28,232.88 C692.94,232.60 701.39,232.57 702.09,232.49 C703.13,232.37 704.15,232.19 705.13,231.95 C705.44,231.87 705.61,231.78 705.66,231.69" fill="none" stroke="rgb(72, 72, 72)" stroke-width="16.00" stroke-opacity="1.00" stroke-linejoin="round"/>
<path d="M694.47,235.68 C694.55,233.41 701.53,217.21 703.71,213.76 C704.44,212.61 706.36,210.17 707.92,208.28 C708.16,208.00 708.29,207.84 708.31,207.83" fill="none" stroke="rgb(72, 72, 72)" stroke-width="16.00" stroke-opacity="1.00" stroke-linejoin="round"/>
<path d="M709.70,199.49 C708.02,198.34 705.62,196.89 704.82,196.31 C703.80,195.55 701.77,193.32 701.29,192.77 C700.96,192.38 700.64,192.20 700.23,192.05" fill="none" stroke="rgb(72, 72, 72)" stroke-width="16.00" stroke-opacity="1.00" stroke-linejoin="round"/>
<path d="M698.11,193.26 C699.21,192.72 701.43,193.11 705.13,194.37 C706.84,194.96 708.19,195.32 709.28,195.46 C709.51,195.49 709.87,195.52 710.37,195.56" fill="none" stroke="rgb(72, 72, 72)" stroke-width="16.00" stroke-opacity="1.00" stroke-linejoin="round"/>
<path d="M709.44,194.22 C711.13,195.81 715.07,198.93 716.81,200.12 C717.15,200.35 717.49,200.59 717.83,200.82" fill="none" stroke="rgb(72, 72, 72)" stroke-width="16.00" stroke-opacity="1.00" stroke-linejoin="round"/>
<path d="M714.68,196.10 C716.10,196.50 718.93,197.78 720.28,198.84 C720.95,199.39 722.74,201.52 723.31,202.53 C723.54,202.93 724.21,204.91 724.42,205.38" fill="none" stroke="rgb(72, 72, 72)" stroke-width="16.00" stroke-opacity="1.00" stroke-linejoin="round"/>
<path d="M711.25,194.00 C712.01,194.27 712.50,194.57 713.86,195.63 C714.54,196.15 715.23,196.66 715.91,197.18 C716.16,197.38 716.43,197.59 716.72,197.83" fill="none" stroke="rgb(72, 72, 72)" stroke-width="16.00" stroke-opacity="1.00" stroke-linejoin="round"/>
<path d="M723.60,206.08 C724.14,206.70 726.60,211.80 727.18,214.84 C728.08,219.88 727.49,227.28 727.03,229.58" fill="none" stroke="rgb(72, 72, 72)" stroke-width="16.00" stroke-opacity="1.00" stroke-linejoin="round"/>
<path d="M729.09,225.59 C728.81,227.30 727.96,232.31 727.85,232.70 C727.40,234.08 720.93,243.37 718.27,249.86 C717.31,252.15 715.68,256.08 715.39,258.20 C715.04,260.93 717.23,262.70 717.89,262.99 C718.76,263.74 717.22,271.12 716.96,271.62 C716.04,273.17 714.92,275.08 714.02,276.86 C714.02,276.86 716.09,273.77 716.09,273.77 C714.14,275.63 708.95,280.63 707.68,281.65 C706.67,282.44 705.34,283.28 704.76,283.56 C704.76,283.56 710.85,277.93 710.85,277.93 C710.85,277.93 699.82,286.87 699.82,286.87 C699.82,286.87 707.08,282.11 707.08,282.11 C707.08,282.11 697.09,288.83 697.09,288.83 C697.09,288.83 703.13,285.42 703.13,285.42 C703.13,285.42 693.66,290.88 693.66,290.88 C693.66,290.88 696.95,289.86 696.95,289.86 C696.69,289.89 693.46,290.89 691.94,290.76 C689.08,290.39 686.63,290.50 685.38,290.99 C685.38,290.99 688.27,289.79 688.27,289.79 C687.89,290.24 685.61,291.19 684.18,291.16 C684.06,291.15 683.58,291.05 683.60,290.87 C683.62,290.72 683.74,290.27 683.95,289.52" fill="none" stroke="rgb(72, 72, 72)" stroke-width="16.00" stroke-opacity="1.00" stroke-linejoin="round"/>
<path d="M683.08,286.73 C680.75,287.95 677.25,288.50 675.20,288.76 C674.01,288.98 672.78,289.40 672.56,289.60 C672.56,289.60 676.24,287.90 676.24,287.90 C676.24,287.90 668.51,292.19 668.51,292.19 C668.51,292.19 670.91,290.28 670.91,290.28 C670.91,290.28 663.89,295.26 663.89,295.26 C663.89,295.26 666.94,292.74 666.94,292.74 C666.94,292.74 659.00,298.47 659.00,298.47 C659.00,298.47 663.46,294.45 663.46,294.45 C663.46,294.45 652.97,300.78 652.97,300.78 C652.97,300.78 656.41,297.61 656.41,297.61 C656.41,297.61 650.93,300.72 650.93,300.72 C650.93,300.72 655.52,297.62 655.52,297.62 C655.57,298.65 654.02,300.08 653.05,300.35 C650.54,301.00 648.61,298.95 648.50,297.85 C648.49,297.66 648.47,297.21 648.46,296.51" fill="none" stroke="rgb(72, 72, 72)" stroke-width="16.00" stroke-opacity="1.00" stroke-linejoin="round"/>
<path d="M640.51,296.84 C639.27,297.80 636.78,297.86 635.25,296.76 C632.18,294.48 626.07,286.40 626.24,285.32 C627.25,284.64 629.68,285.97 630.78,287.06 C633.60,289.87 634.88,292.62 634.88,293.70 C634.85,294.80 633.48,295.79 631.86,295.35 C630.48,294.93 626.45,291.14 624.82,288.89 C623.23,286.63 621.57,282.30 621.51,280.18 C621.49,278.51 622.34,276.58 623.16,276.04 C624.15,275.44 626.20,276.30 627.17,277.63 C628.01,278.83 628.04,281.11 627.00,281.90 C625.70,282.85 623.10,282.99 622.27,282.01 C621.13,280.58 620.47,275.33 620.80,272.64 C621.02,271.07 623.27,264.30 623.83,263.58 C623.83,263.58 624.30,275.48 624.30,275.48 C623.14,275.33 621.62,272.25 621.47,269.77 C621.31,266.57 624.07,250.45 624.92,249.04 C624.92,249.04 624.50,254.48 624.50,254.48" fill="none" stroke="rgb(72, 72, 72)" stroke-width="16.00" stroke-opacity="1.00" stroke-linejoin="round"/>
<path d="M590.97,196.06 C589.70,197.15 588.86,197.92 588.46,198.38 C587.76,199.18 582.62,205.84 582.52,206.55 C582.52,206.55 583.59,205.54 583.59,205.54" fill="none" stroke="rgb(126, 126, 126)" stroke-width="16.00" stroke-opacity="1.00" stroke-linejoin="round"/>
<path d="M594.38,199.79 C594.87,199.95 598.12,200.80 599.94,202.00 C600.84,202.60 601.41,202.62 602.08,202.73 C601.11,204.25 596.16,208.09 594.49,210.26 C592.07,213.45 589.00,220.71 589.03,220.60 C589.03,220.60 594.62,209.70 594.62,209.70 C594.70,210.07 590.70,223.95 588.57,227.79 C587.88,229.01 587.19,230.01 587.19,229.86 C587.12,229.04 589.05,222.70 590.65,219.86 C592.26,217.06 596.02,212.81 596.66,212.72 C596.54,217.99 586.40,235.02 585.61,235.86 C585.61,235.86 591.62,215.76 591.62,215.76 C590.14,216.93 583.30,240.64 582.24,242.63 C583.00,231.50 587.89,213.67 588.35,212.17 C588.35,212.17 577.90,230.44 577.90,230.44 C577.90,230.44 583.11,212.95 583.11,212.95 C583.11,212.95 576.05,223.69 576.05,223.69" fill="none" stroke="rgb(126, 126, 126)" stroke-width="16.00" stroke-opacity="1.00" stroke-linejoin="round"/>
<path d="M582.09,207.10 C580.83,207.65 577.99,210.93 575.96,214.23 C575.41,215.15 572.64,220.15 571.66,221.86 C571.66,221.86 576.79,213.39 576.79,213.39 C576.79,213.39 571.99,221.97 571.99,221.97 C571.99,221.97 576.99,212.91 576.99,212.91 C576.99,212.91 568.73,224.73 568.73,224.73 C568.53,224.70 569.13,225.82 571.44,227.24 C573.56,228.55 579.39,234.26 580.28,234.43 C580.25,234.26 576.16,230.36 574.87,228.16 C574.73,227.92 574.56,227.60 574.34,227.17 C574.34,227.17 579.46,236.83 579.46,236.83 C579.46,236.83 577.35,229.43 577.35,229.43 C577.04,230.25 575.57,240.86 575.09,244.29 C575.07,244.51 575.03,244.82 574.99,245.22" fill="none" stroke="rgb(126, 126, 126)" stroke-width="16.00" stroke-opacity="1.00" stroke-linejoin="round"/>
<path d="M577.39,233.72 C576.04,233.85 574.32,235.99 573.29,238.20 C571.03,243.13 570.09,252.09 570.18,254.11 C570.21,254.71 570.51,255.01 571.21,255.39" fill="none" stroke="rgb(126, 126, 126)" stroke-width="16.00" stroke-opacity="1.00" stroke-linejoin="round"/>
<path d="M574.25,237.82 C572.69,238.43 570.65,241.69 569.84,244.85 C568.69,249.55 568.74,258.59 569.12,258.96 C569.82,259.57 570.71,259.87 571.16,259.71" fill="none" stroke="rgb(126, 126, 126)" stroke-width="16.00" stroke-opacity="1.00" stroke-linejoin="round"/>
<path d="M569.17,247.49 C567.99,246.99 566.83,247.76 566.31,249.12 C565.61,251.00 565.26,255.29 565.60,257.81 C566.01,260.67 567.82,265.79 568.79,266.54 C568.79,266.54 569.60,265.31 569.60,265.31" fill="none" stroke="rgb(126, 126, 126)" stroke-width="16.00" stroke-opacity="1.00" stroke-linejoin="round"/>
<path d="M565.41,252.77 C565.32,254.02 567.08,258.39 567.99,260.17 C569.34,262.76 572.04,266.03 574.85,268.46 C577.33,270.59 581.03,274.20 584.11,276.17 C584.11,276.17 573.96,265.78 573.96,265.78 C576.16,271.79 587.13,280.34 587.21,280.85 C587.43,282.49 588.40,286.65 588.46,286.81 C588.46,286.81 582.91,278.47 582.91,278.47 C582.83,278.47 587.32,294.11 590.77,292.54 C590.89,292.48 591.20,292.14 591.68,291.55" fill="none" stroke="rgb(126, 126, 126)" stroke-width="16.00" stroke-opacity="1.00" stroke-linejoin="round"/>
<path d="M589.80,287.72 C590.15,288.73 594.80,292.82 597.19,294.36 C599.97,296.13 606.28,298.95 606.48,299.32 C606.48,299.32 594.28,293.76 594.28,293.76 C598.53,294.80 610.10,297.12 610.82,297.31 C611.98,297.63 615.57,300.63 616.08,300.62 C616.08,300.62 616.72,299.88 616.72,299.88" fill="none" stroke="rgb(126, 126, 126)" stroke-width="16.00" stroke-opacity="1.00" stroke-linejoin="round"/>
<path d="M618.05,300.70 C618.05,300.70 616.90,299.28 616.90,299.28" fill="none" stroke="rgb(126, 126, 126)" stroke-width="16.00" stroke-opacity="1.00" stroke-linejoin="round"/>
<path d="M617.25,299.80 C615.33,299.55 607.56,292.90 604.63,289.35 C603.07,287.43 599.98,282.68 599.38,280.60 C599.11,279.65 598.97,278.14 598.95,277.10" fill="none" stroke="rgb(126, 126, 126)" stroke-width="16.00" stroke-opacity="1.00" stroke-linejoin="round"/>
<path d="M613.46,296.99 C611.81,295.01 604.85,280.86 603.07,276.34 C601.74,272.91 599.98,266.33 600.12,264.71 C600.15,264.49 600.23,264.26 600.37,264.03" fill="none" stroke="rgb(126, 126, 126)" stroke-width="16.00" stroke-opacity="1.00" stroke-linejoin="round"/>
<path d="M604.67,275.50 C605.24,274.33 604.84,270.66 604.17,268.34 C602.81,263.75 599.62,259.37 599.03,258.49" fill="none" stroke="rgb(126, 126, 126)" stroke-width="16.00" stroke-opacity="1.00" stroke-linejoin="round"/>
<path d="M607.40,270.48 C606.56,269.16 606.38,264.56 605.75,263.37 C605.40,262.73 604.74,261.99 604.40,261.73" fill="none" stroke="rgb(126, 126, 126)" stroke-width="16.00" stroke-opacity="1.00" stroke-linejoin="round"/>
<path d="M605.53,268.04 C604.88,267.84 604.23,267.32 603.65,266.38 C599.30,259.38 593.11,250.75 591.45,246.63 C589.93,242.78 589.56,239.18 590.62,237.42 C590.81,237.11 591.23,236.52 591.89,235.63" fill="none" stroke="rgb(126, 126, 126)" stroke-width="16.00" stroke-opacity="1.00" stroke-linejoin="round"/>
<path d="M593.38,223.96 C591.14,227.74 587.91,239.81 587.62,245.64 C587.39,250.83 589.58,261.80 591.47,266.59 C592.69,269.67 593.70,271.81 594.55,273.50 C594.51,273.36 590.54,269.27 588.70,266.92 C586.60,264.21 582.69,257.08 581.89,254.58 C580.97,251.59 580.91,245.30 581.75,242.71 C582.46,240.61 583.85,239.63 584.53,239.70 C585.22,239.83 587.14,241.95 588.74,245.02 C589.79,247.06 591.94,252.96 592.63,255.66 C593.25,258.16 593.66,262.55 593.43,264.05 C593.18,265.54 591.82,268.51 591.04,269.51 C590.24,270.49 588.44,271.47 587.50,271.45 C586.54,271.39 585.05,270.21 584.18,268.81 C583.35,267.41 581.81,261.83 581.64,259.54 C581.49,257.11 581.67,253.91 582.14,252.26 C582.55,250.84 583.78,248.77 585.18,246.84 C585.37,246.57 585.47,246.46 585.47,246.48" fill="none" stroke="rgb(126, 126, 126)" stroke-width="16.00" stroke-opacity="1.00" stroke-linejoin="round"/>
<path d="M722.03,285.84 C722.03,285.84 742.10,292.74 742.10,292.74 C742.10,292.74 740.35,291.14 740.35,291.14" fill="none" stroke="rgb(126, 126, 126)" stroke-width="16.00" stroke-opacity="1.00" stroke-linejoin="round"/>
<path d="M730.95,289.85 C731.47,290.99 736.14,293.25 738.22,293.94 C739.48,294.35 743.49,294.62 743.82,294.79 C743.92,294.85 746.10,296.02 746.62,296.25 C746.62,296.25 746.24,294.99 746.24,294.99" fill="none" stroke="rgb(126, 126, 126)" stroke-width="16.00" stroke-opacity="1.00" stroke-linejoin="round"/>
<path d="M726.15,283.24 C728.40,277.11 731.85,267.67 733.87,259.02 C734.28,257.23 735.15,253.43 735.29,252.86 C735.69,251.23 736.05,250.16 736.34,249.61" fill="none" stroke="rgb(126, 126, 126)" stroke-width="16.00" stroke-opacity="1.00" stroke-linejoin="round"/>
<path d="M729.66,264.49 C729.40,263.22 730.27,257.73 731.07,253.98 C731.28,252.99 731.62,252.30 732.05,251.65" fill="none" stroke="rgb(126, 126, 126)" stroke-width="16.00" stroke-opacity="1.00" stroke-linejoin="round"/>
<path d="M734.03,250.91 C733.40,248.95 734.95,244.20 736.02,242.01 C736.62,240.81 746.51,222.04 747.59,219.66 C748.17,218.38 749.16,216.00 749.37,215.37 C749.43,215.18 749.52,214.90 749.61,214.53" fill="none" stroke="rgb(126, 126, 126)" stroke-width="16.00" stroke-opacity="1.00" stroke-linejoin="round"/>
<path d="M743.73,229.51 C742.72,228.93 741.96,224.38 741.68,220.12 C741.41,215.84 741.31,209.12 741.28,206.02 C741.28,203.23 741.52,201.82 741.71,201.44" fill="none" stroke="rgb(126, 126, 126)" stroke-width="16.00" stroke-opacity="1.00" stroke-linejoin="round"/>
<path d="M741.92,208.22 C741.92,208.22 738.57,199.57 738.57,199.57 C738.57,199.57 737.20,197.88 737.20,197.88 C737.20,197.88 736.68,198.87 736.68,198.87 C736.68,198.87 734.63,197.04 734.63,197.04 C735.16,197.03 737.15,199.21 737.46,200.10 C737.63,200.58 739.23,206.87 740.70,209.86 C741.17,210.78 741.46,211.93 741.62,213.22 C741.62,213.22 737.43,204.60 737.43,204.60 C737.30,204.76 739.41,210.67 740.00,211.65 C740.15,211.89 740.45,212.27 740.90,212.78" fill="none" stroke="rgb(126, 126, 126)" stroke-width="16.00" stroke-opacity="1.00" stroke-linejoin="round"/>
<path d="M739.70,195.24 C740.65,194.60 742.79,193.14 743.99,192.32 C746.81,190.40 750.36,188.38 752.34,187.55 C752.63,187.42 752.93,187.30 753.23,187.18" fill="none" stroke="rgb(126, 126, 126)" stroke-width="16.00" stroke-opacity="1.00" stroke-linejoin="round"/>
<path d="M751.88,188.73 C752.53,188.26 754.01,187.36 754.86,187.04 C755.21,186.91 755.83,186.73 756.72,186.52" fill="none" stroke="rgb(126, 126, 126)" stroke-width="16.00" stroke-opacity="1.00" stroke-linejoin="round"/>
<path d="M755.50,187.83 C757.64,190.55 760.30,194.66 761.57,197.04 C762.92,199.64 763.69,203.94 763.12,206.73 C762.91,207.61 762.64,208.76 762.63,208.96" fill="none" stroke="rgb(126, 126, 126)" stroke-width="16.00" stroke-opacity="1.00" stroke-linejoin="round"/>
<path d="M763.69,197.12 C765.88,200.54 766.41,208.05 766.19,211.31 C766.17,211.70 766.10,212.38 766.00,213.37" fill="none" stroke="rgb(126, 126, 126)" stroke-width="16.00" stroke-opacity="1.00" stroke-linejoin="round"/>
<path d="M765.41,209.91 C764.79,212.80 764.15,220.43 764.10,221.12 C763.58,228.62 765.13,234.37 765.12,234.99" fill="none" stroke="rgb(126, 126, 126)" stroke-width="16.00" stroke-opacity="1.00" stroke-linejoin="round"/>
<path d="M765.00,222.87 C765.93,223.29 767.05,228.13 767.30,231.08 C767.66,235.59 767.53,238.78 766.90,239.95 C765.65,242.01 762.87,243.97 762.37,244.58 C760.94,246.33 760.04,247.33 759.58,247.68 C759.68,247.68 759.95,247.50 760.31,247.00 C760.50,246.74 760.98,246.04 761.75,244.91 C761.75,244.91 752.33,260.99 752.33,260.99 C752.33,260.99 753.16,259.49 753.16,259.49" fill="none" stroke="rgb(126, 126, 126)" stroke-width="16.00" stroke-opacity="1.00" stroke-linejoin="round"/>
<path d="M758.58,250.83 C758.40,251.58 758.27,253.52 758.22,254.28 C757.93,258.03 756.04,265.02 755.94,266.32 C755.80,268.31 756.58,271.96 756.56,274.14" fill="none" stroke="rgb(126, 126, 126)" stroke-width="16.00" stroke-opacity="1.00" stroke-linejoin="round"/>
<path d="M758.98,265.61 C758.94,266.24 760.37,273.22 760.31,273.24 C759.81,273.39 756.41,276.26 753.92,279.75 C753.92,279.75 757.11,276.73 757.11,276.73 C757.11,276.73 751.30,285.48 751.30,285.48 C751.30,285.48 755.47,280.89 755.47,280.89 C755.47,280.89 750.23,290.26 750.23,290.26 C750.52,289.93 751.79,287.83 752.70,286.30 C752.91,285.96 753.05,285.76 753.13,285.70" fill="none" stroke="rgb(126, 126, 126)" stroke-width="16.00" stroke-opacity="1.00" stroke-linejoin="round"/>
<path d="M749.31,279.93 C749.31,279.93 747.84,280.51 747.84,280.51 C747.81,277.83 752.41,264.46 753.67,264.30 C753.71,264.56 747.00,279.38 744.43,281.72 C743.15,282.85 741.35,283.34 740.87,283.14 C740.28,282.86 739.41,281.04 739.27,279.63 C738.92,275.72 740.45,269.59 741.70,267.01 C742.64,265.16 745.28,261.06 747.43,259.15 C749.74,257.12 751.87,256.95 752.44,257.13 C752.99,258.37 752.78,260.99 752.19,262.81 C751.44,265.02 744.68,277.33 742.27,280.92 C739.76,284.59 738.06,285.62 737.30,285.81 C736.24,285.43 734.84,280.71 734.79,277.22 C734.78,271.84 738.35,258.84 741.71,251.92 C743.21,248.86 746.46,243.65 748.07,241.60 C750.83,238.15 752.94,236.81 753.74,236.52 C754.42,237.29 754.68,237.73 754.59,238.65 C754.12,243.38 750.43,253.59 748.58,257.41 C747.42,259.77 744.96,263.22 743.93,263.78 C743.25,264.11 742.11,263.99 741.84,263.56 C741.42,262.77 741.00,257.83 741.69,254.31 C742.66,249.49 747.68,237.95 750.85,232.76 C755.56,225.12 757.59,223.86 757.93,223.81 C758.42,224.93 757.53,228.55 756.32,233.04 C755.82,234.90 752.35,247.77 751.85,247.98 C750.92,247.33 750.23,238.28 750.44,233.55 C750.62,229.68 752.36,215.34 752.41,215.28 C752.76,214.89 753.83,214.76 754.33,215.41 C755.02,216.41 754.56,220.29 753.21,222.55 C752.30,224.01 750.48,224.29 749.78,223.61 C749.12,222.92 747.44,219.66 747.08,216.66 C746.77,213.84 747.68,207.34 748.24,205.23 C750.41,197.18 752.94,194.21 753.20,194.19 C753.99,196.39 753.40,203.91 752.90,207.15 C752.54,209.49 752.05,210.91 751.65,211.17 C751.15,210.10 751.72,207.47 752.50,206.92 C752.62,206.84 752.88,206.74 753.27,206.63" fill="none" stroke="rgb(126, 126, 126)" stroke-width="16.00" stroke-opacity="1.00" stroke-linejoin="round"/>
</g>
<g stroke-linecap="round" transform="translate(-477.00, -169.00)" id="Layer_68">
<path d="M645.57,186.46 C645.85,186.46 646.13,186.46 646.41,186.46 C646.78,186.46 647.01,186.47 647.75,186.51" fill="none" stroke="rgb(104, 104, 104)" stroke-width="16.00" stroke-opacity="1.00" stroke-linejoin="round"/>
<path d="M649.06,186.95 C649.86,187.11 650.72,187.12 652.07,186.90 C654.07,186.58 655.49,186.46 657.06,186.49 C658.10,186.52 660.13,186.59 660.44,186.49 C660.59,186.44 660.82,186.28 661.12,186.02" fill="none" stroke="rgb(104, 104, 104)" stroke-width="16.00" stroke-opacity="1.00" stroke-linejoin="round"/>
<path d="M661.48,186.38 C662.84,186.92 665.97,186.96 670.04,186.69 C670.46,186.67 670.80,186.66 671.07,186.68" fill="none" stroke="rgb(104, 104, 104)" stroke-width="16.00" stroke-opacity="1.00" stroke-linejoin="round"/>
<path d="M672.13,187.33 C672.68,187.43 674.10,187.34 677.09,187.01 C678.67,186.83 679.48,186.74 679.54,186.73 C679.76,186.71 679.96,186.70 680.14,186.71" fill="none" stroke="rgb(104, 104, 104)" stroke-width="16.00" stroke-opacity="1.00" stroke-linejoin="round"/>
<path d="M680.51,187.42 C680.51,187.42 681.57,187.63 681.57,187.63" fill="none" stroke="rgb(104, 104, 104)" stroke-width="16.00" stroke-opacity="1.00" stroke-linejoin="round"/>
<path d="M665.43,185.12" fill="none" stroke="rgb(104, 104, 104)" stroke-width="16.00" stroke-opacity="1.00" stroke-linejoin="round"/>
<path d="M664.52,184.38 C665.16,184.50 665.79,184.54 667.03,184.52 C667.60,184.51 668.17,184.50 668.74,184.49" fill="none" stroke="rgb(104, 104, 104)" stroke-width="16.00" stroke-opacity="1.00" stroke-linejoin="round"/>
<path d="M665.27,183.92 C665.71,184.24 666.81,184.46 669.07,184.64 C670.40,184.75 671.60,184.79 672.68,184.81" fill="none" stroke="rgb(104, 104, 104)" stroke-width="16.00" stroke-opacity="1.00" stroke-linejoin="round"/>
<path d="M663.30,189.71 C664.21,189.69 664.82,189.66 665.14,189.63 C665.18,189.63 665.69,189.53 666.67,189.36 C666.84,189.33 667.02,189.31 667.19,189.30" fill="none" stroke="rgb(104, 104, 104)" stroke-width="16.00" stroke-opacity="1.00" stroke-linejoin="round"/>
<path d="M661.37,189.08 C663.40,189.19 669.58,189.06 671.50,189.01 C671.88,189.00 672.19,188.99 672.42,188.97" fill="none" stroke="rgb(104, 104, 104)" stroke-width="16.00" stroke-opacity="1.00" stroke-linejoin="round"/>
<path d="M683.69,188.45 C683.69,188.45 687.25,188.37 687.25,188.37 C687.25,188.37 685.84,189.25 685.84,189.25 C685.84,189.25 686.82,187.93 686.82,187.93 C686.82,187.93 686.14,189.66 686.14,189.66 C686.14,189.66 685.60,186.69 685.60,186.69 C686.88,187.60 686.46,188.74 686.14,189.15 C684.38,188.40 684.39,186.91 684.53,186.06 C686.40,186.47 686.72,188.05 686.66,188.95 C686.66,188.95 685.98,189.81 685.98,189.81 C685.19,189.38 684.72,189.07 684.58,188.86 C684.44,188.66 684.44,188.28 684.56,187.73" fill="none" stroke="rgb(104, 104, 104)" stroke-width="6.00" stroke-opacity="1.00" stroke-linejoin="round"/>
<path d="M642.21,188.32 C642.21,188.32 640.51,187.77 640.51,187.77 C640.51,187.77 641.10,187.43 641.10,187.43" fill="none" stroke="rgb(104, 104, 104)" stroke-width="6.00" stroke-opacity="1.00" stroke-linejoin="round"/>
</g>
<g stroke-linecap="round" transform="translate(-477.00, -169.00)" id="Layer_60_Copy">
<path d="M663.70,177.26 C663.69,177.42 663.69,177.52 663.70,177.57 C663.70,177.64 663.66,177.69 663.58,177.74 C662.99,178.08 660.85,178.67 660.10,178.88 C654.25,180.48 643.18,182.51 642.38,182.68 C640.91,183.05 639.93,183.96 638.43,186.27 C637.40,187.83 635.96,190.03 634.99,191.59 C634.74,192.00 634.48,192.41 634.23,192.83" fill="none" stroke="rgb(0, 0, 0)" stroke-width="6.00" stroke-opacity="1.00" stroke-linejoin="round"/>
<path d="M665.70,178.01 C670.31,178.76 674.13,179.55 676.96,180.32 C680.19,181.20 684.60,182.20 686.52,183.61 C687.01,183.97 689.48,185.83 690.71,188.19 C691.04,188.82 692.51,192.44 692.93,193.30 C693.18,193.81 693.72,194.84 694.56,196.40" fill="none" stroke="rgb(0, 0, 0)" stroke-width="6.00" stroke-opacity="1.00" stroke-linejoin="round"/>
<path d="M638.36,186.63 C638.43,187.19 635.04,194.91 634.47,196.26 C633.50,198.45 631.71,201.68 629.38,205.65" fill="none" stroke="rgb(0, 0, 0)" stroke-width="6.00" stroke-opacity="1.00" stroke-linejoin="round"/>
<path d="M638.50,186.91 C637.17,189.54 634.68,194.99 632.19,200.71 C629.67,206.54 629.32,207.42 628.86,208.70 C628.86,208.70 629.42,208.42 629.42,208.42" fill="none" stroke="rgb(0, 0, 0)" stroke-width="6.00" stroke-opacity="1.00" stroke-linejoin="round"/>
<path d="M631.17,209.69 C632.57,211.99 638.08,217.91 641.34,222.20 C642.60,223.86 644.22,225.45 645.26,226.08 C645.49,226.21 645.65,226.20 645.73,226.06" fill="none" stroke="rgb(0, 0, 0)" stroke-width="6.00" stroke-opacity="1.00" stroke-linejoin="round"/>
<path d="M689.05,184.60 C689.97,186.11 691.92,188.95 695.33,193.72 C697.45,196.78 699.47,200.19 701.46,203.72 C701.49,203.78 701.58,203.95 701.56,203.89" fill="none" stroke="rgb(0, 0, 0)" stroke-width="6.00" stroke-opacity="1.00" stroke-linejoin="round"/>
<path d="M701.74,201.71 C700.54,204.00 697.53,209.69 695.71,213.10 C689.67,224.24 689.07,225.27 688.45,226.24 C688.45,226.24 688.68,225.83 688.68,225.83" fill="none" stroke="rgb(0, 0, 0)" stroke-width="6.00" stroke-opacity="1.00" stroke-linejoin="round"/>
<path d="M630.46,224.99 C630.85,225.05 638.30,226.60 639.48,226.83 C649.18,228.66 657.38,229.42 663.38,229.45 C666.92,229.46 684.68,227.57 690.65,226.80 C692.59,226.63 698.11,226.60 699.59,226.55" fill="none" stroke="rgb(0, 0, 0)" stroke-width="6.00" stroke-opacity="1.00" stroke-linejoin="round"/>
<path d="M638.33,189.42 C638.33,189.42 639.78,189.80 639.78,189.80" fill="none" stroke="rgb(0, 0, 0)" stroke-width="6.00" stroke-opacity="1.00" stroke-linejoin="round"/>
<path d="M690.69,190.44 C691.25,190.26 691.69,190.10 692.02,189.96 C692.34,189.81 693.00,189.50 693.99,189.00" fill="none" stroke="rgb(0, 0, 0)" stroke-width="6.00" stroke-opacity="1.00" stroke-linejoin="round"/>
<path d="M695.61,211.61 C695.61,211.61 696.20,211.97 696.20,211.97 C696.41,211.99 696.70,211.72 696.66,211.57 C696.63,211.47 696.53,211.28 696.34,210.99" fill="none" stroke="rgb(0, 0, 0)" stroke-width="6.00" stroke-opacity="1.00" stroke-linejoin="round"/>
<path d="M636.21,190.93 C636.21,190.93 625.86,189.25 625.86,189.25" fill="none" stroke="rgb(0, 0, 0)" stroke-width="6.00" stroke-opacity="1.00" stroke-linejoin="round"/>
<path d="M695.01,190.32 C696.87,189.55 699.05,188.83 701.36,188.28 C702.12,188.10 704.91,187.53 705.91,187.33" fill="none" stroke="rgb(0, 0, 0)" stroke-width="6.00" stroke-opacity="1.00" stroke-linejoin="round"/>
<path d="M625.32,189.42 C622.29,192.13 619.26,194.55 618.22,195.60 C614.40,199.82 605.94,208.71 603.72,211.99 C600.98,216.10 596.89,227.75 596.29,232.76 C596.03,235.09 596.45,240.21 597.20,242.53 C599.05,248.05 605.13,253.80 609.05,256.79 C609.46,257.11 610.18,257.68 611.21,258.50" fill="none" stroke="rgb(0, 0, 0)" stroke-width="6.00" stroke-opacity="1.00" stroke-linejoin="round"/>
<path d="M606.61,255.39 C606.61,255.39 606.84,255.39 606.84,255.39 C607.42,256.16 609.76,257.47 611.40,259.99 C612.92,262.40 614.41,266.56 614.06,270.23 C614.00,270.78 612.11,278.10 612.07,279.81 C612.05,280.83 612.36,282.90 612.63,284.22" fill="none" stroke="rgb(0, 0, 0)" stroke-width="6.00" stroke-opacity="1.00" stroke-linejoin="round"/>
<path d="M614.56,275.97 C613.82,277.80 613.98,283.47 614.79,285.39 C616.01,288.13 623.95,297.04 628.98,300.23 C633.31,302.93 644.52,306.73 646.00,307.02 C646.46,307.10 647.50,307.27 649.13,307.50" fill="none" stroke="rgb(0, 0, 0)" stroke-width="6.00" stroke-opacity="1.00" stroke-linejoin="round"/>
<path d="M646.74,305.28 C647.94,306.77 651.21,307.82 653.76,307.49 C655.86,307.19 659.41,304.99 662.81,302.96 C665.11,301.59 671.26,296.96 671.65,296.74 C672.78,296.11 676.56,295.73 678.23,295.94 C679.79,296.16 682.33,297.00 683.97,297.71 C684.41,297.91 685.02,298.17 685.81,298.51" fill="none" stroke="rgb(0, 0, 0)" stroke-width="6.00" stroke-opacity="1.00" stroke-linejoin="round"/>
<path d="M684.18,295.47 C684.18,295.47 684.52,295.57 684.52,295.57" fill="none" stroke="rgb(0, 0, 0)" stroke-width="6.00" stroke-opacity="1.00" stroke-linejoin="round"/>
<path d="M695.15,189.60 C695.15,189.60 705.83,187.67 705.83,187.67" fill="none" stroke="rgb(0, 0, 0)" stroke-width="6.00" stroke-opacity="1.00" stroke-linejoin="round"/>
<path d="M720.59,192.67 C723.01,194.70 725.44,196.93 726.60,198.60 C727.75,200.30 729.44,203.61 730.76,207.39 C732.19,211.57 733.48,218.67 733.72,221.94 C733.93,225.26 733.06,233.43 732.38,235.82 C731.33,239.35 726.59,249.44 725.20,252.39 C724.69,253.51 724.19,254.62 723.68,255.74" fill="none" stroke="rgb(0, 0, 0)" stroke-width="6.00" stroke-opacity="1.00" stroke-linejoin="round"/>
<path d="M702.92,187.83 C703.67,188.14 704.97,188.60 705.62,188.58 C706.52,188.57 710.07,187.91 711.26,188.08 C713.01,188.35 718.80,191.67 720.96,192.61 C722.77,193.40 724.85,195.89 724.96,196.21 C724.99,196.33 725.11,196.63 725.34,197.12" fill="none" stroke="rgb(0, 0, 0)" stroke-width="6.00" stroke-opacity="1.00" stroke-linejoin="round"/>
<path d="M727.31,248.12 C726.43,250.07 724.75,252.36 724.20,253.22 C723.16,254.87 722.72,257.11 722.85,259.80 C722.91,261.06 723.27,266.48 723.25,266.90 C723.22,267.71 721.36,276.46 720.20,278.30 C716.32,284.35 709.07,289.48 705.76,291.16 C703.40,292.34 701.38,293.24 699.73,293.82 C699.39,293.94 698.78,294.14 697.90,294.43" fill="none" stroke="rgb(0, 0, 0)" stroke-width="6.00" stroke-opacity="1.00" stroke-linejoin="round"/>
<path d="M703.91,291.98 C702.56,293.42 698.92,295.20 697.26,295.55 C697.05,295.60 689.92,296.70 687.96,296.75" fill="none" stroke="rgb(0, 0, 0)" stroke-width="6.00" stroke-opacity="1.00" stroke-linejoin="round"/>
<path d="M642.30,189.90 C645.59,190.75 652.76,192.57 656.64,193.54 C661.53,194.72 666.25,195.72 667.07,195.82 C667.36,195.86 667.88,195.90 668.62,195.93" fill="none" stroke="rgb(0, 0, 0)" stroke-width="6.00" stroke-opacity="1.00" stroke-linejoin="round"/>
<path d="M665.78,194.86 C669.01,194.58 674.05,193.58 678.13,193.07 C682.17,192.56 687.58,191.44 690.73,190.44" fill="none" stroke="rgb(0, 0, 0)" stroke-width="6.00" stroke-opacity="1.00" stroke-linejoin="round"/>
<path d="M650.37,204.96 C648.99,203.74 648.34,201.94 648.94,200.25 C649.22,199.49 651.18,197.91 652.00,197.54 C653.10,197.10 655.01,197.20 655.77,197.77 C656.44,198.32 657.31,200.24 657.37,201.20 C657.40,202.11 656.77,203.65 656.15,204.20 C655.48,204.74 653.91,205.08 652.96,204.88 C652.01,204.63 650.09,202.83 649.82,201.59 C649.71,201.06 649.73,199.95 649.90,198.28" fill="none" stroke="rgb(0, 0, 0)" stroke-width="6.00" stroke-opacity="1.00" stroke-linejoin="round"/>
<path d="M673.92,203.73 C672.49,203.43 671.36,202.30 671.07,200.58 C670.91,199.51 671.61,198.42 672.57,198.05 C674.80,197.29 678.86,197.59 679.87,198.79 C680.78,199.96 680.58,203.40 679.52,204.15 C678.43,204.86 674.63,203.48 674.19,202.50 C674.08,202.24 673.92,201.58 673.71,200.52" fill="none" stroke="rgb(0, 0, 0)" stroke-width="6.00" stroke-opacity="1.00" stroke-linejoin="round"/>
<path d="M637.96,208.86 C639.27,209.23 645.09,206.67 648.65,205.64 C652.04,204.68 658.63,203.67 660.22,203.28 C661.64,202.93 662.52,201.58 662.50,201.14 C662.49,201.00 662.42,200.71 662.30,200.28" fill="none" stroke="rgb(0, 0, 0)" stroke-width="6.00" stroke-opacity="1.00" stroke-linejoin="round"/>
<path d="M669.10,203.02 C672.95,204.39 678.50,205.66 681.79,206.43 C685.26,207.26 690.40,209.06 694.61,211.60" fill="none" stroke="rgb(0, 0, 0)" stroke-width="6.00" stroke-opacity="1.00" stroke-linejoin="round"/>
<path d="M644.23,191.80 C642.73,191.07 641.12,190.31 640.45,190.07 C639.94,189.89 639.41,189.75 638.89,189.59 C638.74,189.55 638.60,189.49 638.50,189.44" fill="none" stroke="rgb(0, 0, 0)" stroke-width="7.00" stroke-opacity="0.90" stroke-linejoin="round"/>
<path d="M642.48,191.52 C642.04,191.68 641.61,191.87 641.30,191.76 C640.64,191.53 640.01,191.23 639.35,190.97 C639.10,190.87 638.88,190.80 638.68,190.76" fill="none" stroke="rgb(0, 0, 0)" stroke-width="7.00" stroke-opacity="0.90" stroke-linejoin="round"/>
<path d="M641.87,191.05 C641.10,190.64 640.31,190.43 639.37,190.48 C638.63,190.54 637.60,190.62 637.15,190.59 C637.15,190.59 636.94,190.42 636.94,190.42" fill="none" stroke="rgb(0, 0, 0)" stroke-width="7.00" stroke-opacity="0.90" stroke-linejoin="round"/>
<path d="M607.23,203.50 C607.23,203.50 607.27,203.05 607.27,203.05 C605.87,202.50 601.80,197.85 601.12,197.11 C599.37,195.21 594.75,191.71 591.09,190.03 C585.51,187.52 570.17,182.41 563.68,181.06 C560.09,180.33 551.75,179.39 548.89,179.32 C546.24,179.27 538.47,180.09 534.96,180.89 C530.86,181.85 524.09,184.55 521.42,186.05 C517.09,188.53 510.06,194.58 508.82,195.80" fill="none" stroke="rgb(0, 0, 0)" stroke-width="7.00" stroke-opacity="0.90" stroke-linejoin="round"/>
<path d="M627.26,298.76 C625.02,301.38 621.85,305.43 621.01,306.02 C620.68,306.26 612.19,309.87 610.39,310.27 C609.01,310.56 599.05,311.68 595.58,312.07 C592.75,312.36 587.64,312.40 584.73,311.73 C576.44,309.74 550.48,295.09 547.30,292.54 C544.07,289.88 541.03,286.04 539.85,283.43 C538.89,281.20 538.24,273.09 538.14,271.90" fill="none" stroke="rgb(0, 0, 0)" stroke-width="7.00" stroke-opacity="0.90" stroke-linejoin="round"/>
<path d="M538.44,282.51 C538.12,280.86 537.45,277.44 537.11,275.66 C537.03,275.25 536.95,274.78 536.86,274.26" fill="none" stroke="rgb(0, 0, 0)" stroke-width="7.00" stroke-opacity="0.90" stroke-linejoin="round"/>
<path d="M539.39,281.55 C536.06,282.38 531.22,282.41 527.79,282.52 C522.34,282.70 519.01,282.56 516.16,281.45 C514.31,280.71 508.42,277.63 503.06,274.67 C499.13,272.48 495.28,270.00 492.94,267.55 C490.43,264.85 488.56,261.29 487.03,257.33 C483.28,247.29 479.79,235.94 479.77,231.99 C479.79,229.44 481.16,223.54 482.89,219.42 C484.00,216.80 487.29,210.70 489.59,207.48 C493.87,201.58 501.84,195.52 502.85,194.75" fill="none" stroke="rgb(0, 0, 0)" stroke-width="7.00" stroke-opacity="0.90" stroke-linejoin="round"/>
<path d="M508.98,191.21 C508.98,191.21 515.59,187.63 515.59,187.63" fill="none" stroke="rgb(0, 0, 0)" stroke-width="7.00" stroke-opacity="0.90" stroke-linejoin="round"/>
<path d="M508.71,193.94 C511.84,192.35 522.55,187.89 522.98,187.70 C523.30,187.56 523.86,187.30 524.67,186.92" fill="none" stroke="rgb(0, 0, 0)" stroke-width="7.00" stroke-opacity="0.90" stroke-linejoin="round"/>
<path d="M728.73,193.82 C732.44,190.57 734.07,189.42 737.08,188.43 C739.64,187.60 750.19,182.31 750.22,182.30 C757.99,179.33 767.72,176.15 772.96,174.55 C779.52,172.31 791.22,170.97 798.52,171.36 C805.70,171.76 817.65,174.28 823.76,177.08 C825.36,177.83 827.99,179.42 829.03,180.05 C830.89,181.15 831.87,181.39 833.03,181.10 C833.29,181.02 833.74,180.93 834.38,180.83" fill="none" stroke="rgb(0, 0, 0)" stroke-width="7.00" stroke-opacity="0.90" stroke-linejoin="round"/>
<path d="M717.17,286.84 C717.97,288.29 719.01,289.81 720.10,290.92 C722.08,292.93 726.40,295.68 730.65,297.65 C733.46,299.01 739.50,301.82 743.43,302.96 C753.58,305.84 764.40,307.54 769.97,306.97 C772.97,306.65 778.89,305.52 781.71,304.65 C785.10,303.59 789.82,301.25 792.46,299.33 C795.78,296.85 807.39,283.14 809.68,278.98 C810.60,277.31 811.99,274.31 812.78,272.46" fill="none" stroke="rgb(0, 0, 0)" stroke-width="7.00" stroke-opacity="0.90" stroke-linejoin="round"/>
<path d="M807.24,282.85 C809.11,279.90 812.58,273.58 813.03,273.05 C813.53,272.45 814.22,271.86 815.08,271.26 C815.29,271.12 815.43,271.08 815.51,271.14" fill="none" stroke="rgb(0, 0, 0)" stroke-width="7.00" stroke-opacity="0.90" stroke-linejoin="round"/>
<path d="M810.46,279.40 C813.37,278.53 814.97,278.25 816.77,278.39 C821.84,278.73 828.52,278.92 830.02,278.67 C831.15,278.47 839.76,276.43 842.83,274.85 C845.85,273.27 852.35,269.16 854.87,266.75 C859.09,262.65 866.35,252.28 868.23,246.96 C869.41,243.54 870.54,235.99 870.60,232.07 C870.65,228.36 870.17,220.95 869.47,218.09 C867.81,211.60 862.68,204.92 861.38,203.30" fill="none" stroke="rgb(0, 0, 0)" stroke-width="7.00" stroke-opacity="0.90" stroke-linejoin="round"/>
<path d="M863.67,205.98 C862.80,203.96 858.52,200.16 856.43,198.13 C855.40,197.27 848.89,193.03 847.42,191.71 C846.56,190.93 842.19,186.15 838.84,184.64 C836.97,183.81 830.97,180.84 829.74,180.43 C829.51,180.35 829.30,180.31 829.11,180.30" fill="none" stroke="rgb(0, 0, 0)" stroke-width="7.00" stroke-opacity="0.90" stroke-linejoin="round"/>
<path d="M503.57,196.26 C507.77,192.93 511.90,190.30 514.61,189.61 C515.62,189.38 518.03,189.04 518.78,189.07 C519.13,189.09 519.88,189.16 521.04,189.30" fill="none" stroke="rgb(0, 0, 0)" stroke-width="7.00" stroke-opacity="0.90" stroke-linejoin="round"/>
<path d="M593.40,191.19 C595.14,192.78 606.57,198.13 607.16,198.48 C607.57,198.71 608.36,199.22 609.55,200.00" fill="none" stroke="rgb(0, 0, 0)" stroke-width="7.00" stroke-opacity="0.90" stroke-linejoin="round"/>
<path d="M603.95,197.15 C604.75,198.60 606.01,199.38 609.11,200.34 C609.48,200.46 609.66,200.54 609.62,200.59 C609.62,200.59 609.81,201.01 609.81,201.01" fill="none" stroke="rgb(0, 0, 0)" stroke-width="7.00" stroke-opacity="0.90" stroke-linejoin="round"/>
<path d="M539.02,281.62 C536.94,282.56 530.50,283.48 528.31,283.69 C526.37,283.85 522.22,283.68 521.28,283.59 C521.17,283.57 521.01,283.55 520.78,283.52" fill="none" stroke="rgb(0, 0, 0)" stroke-width="7.00" stroke-opacity="0.90" stroke-linejoin="round"/>
<path d="M537.72,276.62 C537.72,276.62 537.74,276.48 537.74,276.48 C538.90,278.54 540.38,281.39 540.93,282.37 C541.28,282.98 543.01,285.53 543.40,285.87 C543.66,286.08 544.20,286.39 545.04,286.82" fill="none" stroke="rgb(0, 0, 0)" stroke-width="7.00" stroke-opacity="0.90" stroke-linejoin="round"/>
<path d="M623.76,305.27 C625.18,304.61 626.75,303.65 627.64,302.65 C628.09,302.14 628.78,301.23 629.73,299.91 C629.92,299.63 630.02,299.47 630.04,299.42" fill="none" stroke="rgb(0, 0, 0)" stroke-width="7.00" stroke-opacity="0.90" stroke-linejoin="round"/>
<path d="M712.30,286.96 C713.24,287.77 716.59,290.65 719.41,291.76 C723.83,293.47 726.78,295.09 727.96,296.46 C728.13,296.68 728.29,296.86 728.42,297.01" fill="none" stroke="rgb(0, 0, 0)" stroke-width="7.00" stroke-opacity="0.90" stroke-linejoin="round"/>
<path d="M811.94,278.02 C811.94,278.02 813.02,279.79 813.02,279.79 C814.50,280.12 822.12,278.10 823.46,277.82 C826.45,277.19 829.45,277.55 830.89,277.95 C831.27,278.06 831.80,278.25 832.48,278.53" fill="none" stroke="rgb(0, 0, 0)" stroke-width="7.00" stroke-opacity="0.90" stroke-linejoin="round"/>
<path d="M727.17,194.84 C730.08,193.45 740.97,187.47 747.24,184.12 C753.66,180.80 768.93,173.13 773.95,172.07 C774.93,171.87 775.70,171.75 776.28,171.73 C776.58,171.72 777.08,171.74 777.79,171.81" fill="none" stroke="rgb(0, 0, 0)" stroke-width="7.00" stroke-opacity="0.90" stroke-linejoin="round"/>
<path d="M587.99,189.76 C583.69,193.50 579.95,197.10 577.27,200.51 C573.35,205.55 563.76,220.04 562.37,223.38 C561.51,225.60 561.26,227.82 562.09,228.67 C562.50,229.09 566.46,231.19 567.17,231.82 C568.21,232.75 568.53,234.93 567.86,236.20 C567.31,237.18 561.47,242.75 560.20,245.40 C559.28,247.39 557.97,254.55 558.37,257.10 C558.47,257.67 559.94,262.45 561.35,264.68 C562.04,265.75 568.06,274.39 568.96,274.95 C570.21,275.71 573.20,276.78 573.64,277.01 C574.90,277.68 575.51,278.85 576.46,282.28 C577.15,284.81 579.35,289.55 580.69,291.21 C583.95,295.17 591.22,300.58 596.96,302.92 C603.39,305.50 613.51,307.46 613.67,307.37 C613.92,307.23 614.30,306.71 614.82,305.79" fill="none" stroke="rgb(0, 0, 0)" stroke-width="7.00" stroke-opacity="0.90" stroke-linejoin="round"/>
<path d="M741.81,302.14 C743.76,302.11 745.41,301.82 746.67,301.05 C748.74,299.77 752.98,295.75 755.34,292.62 C757.45,289.81 766.36,276.15 767.42,273.67 C767.83,272.63 767.79,270.09 767.33,268.94 C767.23,268.72 764.92,265.27 764.59,264.34 C764.40,263.76 764.52,261.40 764.68,259.89 C764.96,257.57 765.43,255.32 766.02,253.56 C766.14,253.19 766.38,252.54 766.72,251.61" fill="none" stroke="rgb(0, 0, 0)" stroke-width="7.00" stroke-opacity="0.90" stroke-linejoin="round"/>
<path d="M764.89,255.92 C765.23,253.66 769.62,247.52 769.94,247.04 C771.16,245.15 773.48,239.15 773.42,235.59 C773.34,232.31 772.42,223.97 771.78,221.97 C770.72,218.54 770.58,217.58 771.01,215.85 C771.72,213.13 772.61,208.71 772.75,205.99 C772.89,202.99 772.03,199.31 770.92,196.45 C769.15,192.09 761.96,184.79 759.51,182.71 C759.27,182.49 758.82,182.08 758.17,181.47" fill="none" stroke="rgb(0, 0, 0)" stroke-width="7.00" stroke-opacity="0.90" stroke-linejoin="round"/>
<path d="M589.12,189.17 C582.03,195.09 574.39,202.70 572.43,205.35 C570.42,208.08 566.69,212.83 565.64,214.62 C564.57,216.47 560.94,224.65 560.91,225.74 C560.93,226.91 561.72,228.76 562.64,229.62 C563.08,230.02 565.95,231.91 567.04,232.67 C567.44,232.95 568.16,233.46 569.21,234.21" fill="none" stroke="rgb(0, 0, 0)" stroke-width="7.00" stroke-opacity="0.90" stroke-linejoin="round"/>
<path d="M569.20,234.39 C567.53,235.44 559.77,248.00 558.90,250.77 C558.47,252.21 559.17,257.94 560.46,261.11 C561.17,262.82 564.52,268.95 566.03,270.59 C567.03,271.64 571.91,274.94 574.08,276.60 C574.90,277.24 580.54,291.59 583.19,295.28 C584.58,297.16 587.86,299.18 591.74,301.09 C600.68,305.45 606.94,307.96 610.02,308.13 C610.74,308.17 613.18,307.64 614.44,307.41" fill="none" stroke="rgb(0, 0, 0)" stroke-width="7.00" stroke-opacity="0.90" stroke-linejoin="round"/>
<path d="M758.39,180.45 C760.56,183.51 764.39,186.85 766.19,188.93 C769.32,192.59 773.71,200.95 773.88,202.42 C773.95,203.08 772.59,209.50 771.62,213.14 C770.67,216.88 770.57,218.50 771.39,222.92 C772.61,229.62 773.23,234.37 773.09,236.64 C772.90,238.93 771.38,244.03 769.61,247.43 C768.84,248.90 765.36,254.03 765.05,254.58 C764.86,254.93 764.49,255.68 763.94,256.82" fill="none" stroke="rgb(0, 0, 0)" stroke-width="7.00" stroke-opacity="0.90" stroke-linejoin="round"/>
<path d="M768.09,248.73 C766.71,250.34 764.56,255.67 764.53,258.47 C764.57,260.38 764.88,263.24 765.32,264.44 C765.68,265.46 767.57,268.72 767.85,270.09 C768.29,272.39 766.70,275.96 763.53,281.95 C760.02,288.38 755.00,294.63 749.32,299.72 C748.35,300.61 747.75,301.20 747.53,301.51 C747.38,301.72 747.34,301.95 747.43,302.19" fill="none" stroke="rgb(0, 0, 0)" stroke-width="7.00" stroke-opacity="0.90" stroke-linejoin="round"/>
<path d="M728.22,195.34 C731.77,192.23 740.96,186.50 748.22,183.63 C750.10,182.89 765.09,177.17 769.44,175.30 C770.17,174.99 770.91,174.68 771.64,174.37" fill="none" stroke="rgb(0, 0, 0)" stroke-width="7.00" stroke-opacity="0.90" stroke-linejoin="round"/>
<path d="M775.44,173.81 C776.74,173.24 790.55,171.12 792.82,171.18 C793.81,171.22 804.05,172.54 805.36,172.75 C808.03,173.20 811.33,174.62 811.70,174.64 C812.03,174.65 812.85,174.58 814.17,174.42" fill="none" stroke="rgb(0, 0, 0)" stroke-width="7.00" stroke-opacity="0.90" stroke-linejoin="round"/>
<path d="M868.89,238.32 C868.73,239.57 867.92,245.00 866.91,247.17 C863.24,254.91 860.08,260.15 858.93,261.85 C858.72,262.16 858.54,262.40 858.39,262.56" fill="none" stroke="rgb(0, 0, 0)" stroke-width="7.00" stroke-opacity="0.90" stroke-linejoin="round"/>
<path d="M811.05,277.57 C814.27,277.97 821.71,278.55 822.94,278.34 C823.34,278.27 824.07,278.05 825.15,277.69" fill="none" stroke="rgb(0, 0, 0)" stroke-width="7.00" stroke-opacity="0.90" stroke-linejoin="round"/>
<path d="M795.05,297.84 C793.17,299.58 786.63,302.87 784.60,303.54 C784.11,303.70 775.58,305.54 774.94,305.73 C774.51,305.85 773.72,306.13 772.58,306.56" fill="none" stroke="rgb(0, 0, 0)" stroke-width="7.00" stroke-opacity="0.90" stroke-linejoin="round"/>
<path d="M761.76,284.32 C763.45,281.46 767.98,274.63 768.28,274.13 C768.75,273.33 769.13,272.55 769.41,271.82 C769.53,271.50 769.68,270.94 769.89,270.14" fill="none" stroke="rgb(0, 0, 0)" stroke-width="7.00" stroke-opacity="0.90" stroke-linejoin="round"/>
<path d="M714.58,289.11 C716.07,289.01 716.86,289.22 717.93,290.12 C720.38,292.17 735.92,300.18 736.30,300.39 C736.62,300.57 737.10,300.87 737.76,301.28" fill="none" stroke="rgb(0, 0, 0)" stroke-width="7.00" stroke-opacity="0.90" stroke-linejoin="round"/>
<path d="M622.19,304.35 C622.19,304.35 629.37,299.30 629.37,299.30" fill="none" stroke="rgb(0, 0, 0)" stroke-width="7.00" stroke-opacity="0.90" stroke-linejoin="round"/>
<path d="M614.17,309.64 C611.29,310.28 606.72,312.18 604.79,312.35 C604.03,312.42 599.98,312.34 598.78,312.35 C597.19,312.37 594.05,313.60 592.86,313.92 C591.07,314.41 583.60,313.68 583.40,313.65 C583.03,313.59 582.52,313.47 581.89,313.29" fill="none" stroke="rgb(0, 0, 0)" stroke-width="7.00" stroke-opacity="0.90" stroke-linejoin="round"/>
<path d="M536.91,280.64 C534.81,281.72 530.82,281.91 527.60,282.47 C525.03,282.91 521.67,282.20 520.57,281.90 C520.56,281.90 520.54,281.87 520.55,281.88 C520.55,281.88 520.61,281.87 520.61,281.87" fill="none" stroke="rgb(0, 0, 0)" stroke-width="7.00" stroke-opacity="0.90" stroke-linejoin="round"/>
<path d="M490.41,263.27 C488.12,260.79 485.27,255.21 483.49,250.97 C481.83,246.93 479.70,239.60 479.27,236.27 C478.93,233.37 479.20,230.20 479.44,229.06 C479.51,228.73 479.68,228.04 479.95,226.99" fill="none" stroke="rgb(0, 0, 0)" stroke-width="7.00" stroke-opacity="0.90" stroke-linejoin="round"/>
<path d="M487.69,211.74 C489.23,208.60 491.38,205.60 494.07,202.88 C496.73,200.22 500.21,197.47 502.40,196.04 C506.27,193.56 513.00,191.50 513.90,191.20 C514.26,191.09 514.76,190.91 515.41,190.66" fill="none" stroke="rgb(0, 0, 0)" stroke-width="7.00" stroke-opacity="0.90" stroke-linejoin="round"/>
<path d="M598.16,194.14 C600.09,196.55 603.65,198.84 606.33,200.55 C608.35,201.85 612.77,204.68 613.22,204.99 C613.53,205.21 613.89,205.50 614.32,205.87" fill="none" stroke="rgb(0, 0, 0)" stroke-width="7.00" stroke-opacity="0.90" stroke-linejoin="round"/>
</g>
</svg>
