<?xml version="1.0"?>
<svg width="392" height="241" xmlns="http://www.w3.org/2000/svg" xmlns:svg="http://www.w3.org/2000/svg">
 <g class="layer">
  <title>Layer 1</title>
  <g id="Layer_2_2" stroke-linecap="round">
   <path d="m59.39,127.95c0.05,-1.44 0.47,-2.41 1.8,-3.77c1.39,-1.43 2.5,-2.13 4.28,-2.84c0.27,1.09 -1.62,4.62 -3.5,5.91c-1.96,1.29 -3.5,1.05 -4.05,0.69c-0.25,-1.3 2.77,-3.48 4.71,-3.63c0.4,1.11 0.01,2.1 -1.52,3.19c-2.39,1.69 -4.12,2.2 -4.83,2.26c0,0 0.62,-1.57 0.62,-1.57c0,0 1.15,0.7 1.15,0.7c-0.18,0.76 -0.52,1.58 -0.99,1.88c-1.01,0.62 -2.36,0.51 -3.46,-0.16c0,0 -0.8,2.15 -0.8,2.15" fill="none" id="svg_1" stroke="rgb(255, 255, 255)" stroke-linejoin="round" stroke-opacity="1" stroke-width="30"/>
   <path d="m65.34,121.46c1.42,-2.17 11.77,-9.07 15.46,-10.64c4.11,-1.71 12.43,-2.94 16.58,-2.65c2.22,0.16 14.05,1.67 14.8,1.78c0.3,0.05 0.65,0.11 1.06,0.19" fill="none" id="svg_2" stroke="rgb(255, 255, 255)" stroke-linejoin="round" stroke-opacity="1" stroke-width="30"/>
   <path d="m76.95,114.56c9.33,-6.19 16.31,-9.84 22.56,-11.3c5.8,-1.3 19.24,-1.73 26.28,-1.91c9.54,-0.12 18.04,-1.03 21.15,-2.15c0.5,-0.18 1.74,-0.66 3.71,-1.44" fill="none" id="svg_3" stroke="rgb(255, 255, 255)" stroke-linejoin="round" stroke-opacity="1" stroke-width="30"/>
   <path d="m142.63,100.68c2.83,1.22 24.73,7.81 26.48,8.24c1.03,0.25 4.16,0.94 4.77,1.05c0.27,0.05 0.67,0.11 1.21,0.18" fill="none" id="svg_4" stroke="rgb(255, 255, 255)" stroke-linejoin="round" stroke-opacity="1" stroke-width="30"/>
   <path d="m157.56,101.01c3.83,-4.41 9.83,-9.06 13.54,-10.45c3.9,-1.44 14.48,-2.81 19.95,-3c1.16,-0.03 2.32,-0.06 3.48,-0.09" fill="none" id="svg_5" stroke="rgb(255, 255, 255)" stroke-linejoin="round" stroke-opacity="1" stroke-width="30"/>
   <path d="m181.8,86.72c1.09,-1.38 5.84,-3.54 9.23,-4.09c5.97,-0.92 13.43,-0.05 14.99,0.23c0.47,0.09 1.2,0.25 2.2,0.48" fill="none" id="svg_6" stroke="rgb(255, 255, 255)" stroke-linejoin="round" stroke-opacity="1" stroke-width="30"/>
   <path d="m197.03,83.1c2.16,-0.59 7.34,0.27 10.45,2.13c3.15,1.93 13.05,10.91 19.75,17.59c4.63,4.8 10.88,12.3 11.69,13.13c0.24,0.25 0.45,0.41 0.61,0.46" fill="none" id="svg_7" stroke="rgb(255, 255, 255)" stroke-linejoin="round" stroke-opacity="1" stroke-width="30"/>
   <path d="m223.59,87.46c1.06,0.4 3.99,1.51 5.21,2.01c6.24,2.54 12.7,6.38 22.1,12.56c4.27,2.79 9.47,5.38 10.91,5.41c0.35,0 1.12,-0.08 2.3,-0.26" fill="none" id="svg_8" stroke="rgb(255, 255, 255)" stroke-linejoin="round" stroke-opacity="1" stroke-width="30"/>
   <path d="m254.7,94.27c0.61,0.09 7.2,-1.8 9.44,-2.13c2.84,-0.41 11.16,-0.43 13.86,-0.12c2.42,0.29 8.07,1.57 9.31,2.05c0.25,0.1 0.66,0.28 1.25,0.56" fill="none" id="svg_9" stroke="rgb(255, 255, 255)" stroke-linejoin="round" stroke-opacity="1" stroke-width="30"/>
   <path d="m278.24,92.18c1.66,-1.2 5.39,-1.41 8.44,-0.76c3.55,0.79 13.21,3.14 13.88,3.34c2.16,0.69 4.23,1.88 5.72,3.28c2.01,1.94 2.58,2.4 3.69,3.02" fill="none" id="svg_10" stroke="rgb(255, 255, 255)" stroke-linejoin="round" stroke-opacity="1" stroke-width="30"/>
   <path d="m309.99,94.11c2.97,2.95 5.28,4.71 8.81,6.53c3.74,1.94 8.47,5.66 11.3,8.01c0.38,0.28 0.97,0.62 1.75,1.02" fill="none" id="svg_11" stroke="rgb(255, 255, 255)" stroke-linejoin="round" stroke-opacity="1" stroke-width="30"/>
   <path d="m335.62,113.57c1.19,-0.56 2.13,-0.61 3.18,0.02c3.15,1.96 4.79,2.61 6.31,2.92" fill="none" id="svg_12" stroke="rgb(255, 255, 255)" stroke-linejoin="round" stroke-opacity="1" stroke-width="30"/>
   <path d="m344.63,112.38c1.22,1.23 2.46,3.08 2.98,4.7c0.63,2.03 -1.08,6.38 -2.38,8.84c-1.1,2.02 -5.8,7.95 -7.65,9.83" fill="none" id="svg_13" stroke="rgb(255, 255, 255)" stroke-linejoin="round" stroke-opacity="1" stroke-width="30"/>
   <path d="m342.17,130.99c0,0 -4.93,9.81 -4.93,9.81c0,0 3.57,-3.96 3.57,-3.96c0,0 0.76,0.81 0.76,0.81c0,0 2.02,-2.45 2.02,-2.45c-3.98,2.64 -16.54,8.89 -21.75,10.59c-2.7,0.86 -3.75,0.8 -4.21,0.6c0.15,-0.88 3.52,-3.55 6.25,-5.12c2.87,-1.63 6.14,-2.25 6.29,-1.96c-0.73,1.43 -4.43,3.62 -7.74,5.06c-1.03,0.44 -11.76,4.55 -13.16,5.3c0,0 15.21,-7.49 15.21,-7.49c-1.86,1.6 -6.4,3.12 -10.63,4.41c-4.7,1.44 -14.65,5.38 -15.32,5.16c0.2,-1.61 5.37,-5.65 8.64,-6.99c0,0 -17.24,14.01 -17.24,14.01c2.87,-4.29 8.44,-6.06 8.55,-5.95c0,0 -7.82,10.87 -7.82,10.87c0,0 8.93,-8.39 8.93,-8.39c0.19,0.51 -2.05,4.81 -3.92,7.46c-1.02,1.42 -3.93,4.36 -3.89,4.33c0,0 4.33,-5.09 4.33,-5.09c0,0 -8.85,11.69 -8.85,11.69c0,0 4.37,-5.4 4.37,-5.4c0.05,1.05 -4.72,5.48 -7.56,6.51c-2.5,0.87 -5.63,0.39 -6.1,-0.34c-0.51,-0.89 0.51,-3.79 1.83,-5.08c1.31,-1.24 4.48,-2.45 7.22,-2.34c0.19,1.09 -0.12,1.76 -1.42,2.48c-3.24,1.77 -8.31,3.92 -11.76,4.79c-8,1.96 -9.31,0.9 -9.74,0.42c0.03,-1.13 2.14,-3.31 4.7,-4.4c2.55,-1.07 7.36,-1.88 8.66,-1.67c1.27,0.24 1.78,0.92 1.93,1.41c-0.23,1.04 -2.29,3.07 -4.11,3.91c-2.14,0.94 -7,1.66 -8.31,1.28c-1.5,-0.46 -2.51,-1.27 -2.88,-2.15c0.25,-1.06 2.55,-2.83 5.18,-3.5c2.78,-0.68 6.87,-0.59 7.14,0.07c-0.36,1.23 -3.84,3.17 -6.53,4.1c-3.25,1.11 -7.05,1.38 -8.29,0.7c-1.35,-0.8 -3.07,-3.71 -2.96,-5.19c0.16,-1.52 2.52,-3.92 4.53,-4.55c4.47,-1.34 6.34,0.47 6.64,1.07c-0.09,1.18 -2.09,2.98 -4.67,3.77c-1.25,0.37 -4.26,0.87 -5.29,0.87c-2.01,-0.07 -5.24,-3.29 -6.62,-5.66c-0.49,-0.85 -1.46,-3.22 -1.68,-3.94c-0.06,-0.19 -0.12,-0.46 -0.18,-0.8" fill="none" id="svg_14" stroke="rgb(255, 255, 255)" stroke-linejoin="round" stroke-opacity="1" stroke-width="30"/>
   <path d="m252.93,139.31c-0.34,-1.83 2.09,-7.52 3.84,-9.63c1.13,-1.31 3.76,-3.34 5.33,-4.1c1.62,-0.75 4.95,-1.53 6.72,-1.57c1.87,0.01 5.5,0.86 7.07,1.72c1.57,0.91 3.86,3.55 4.37,5.05c0.84,2.72 -1.45,7.88 -3.11,9.94c-1.48,1.77 -5.21,4.95 -7.32,6.21c-2.07,1.22 -6.81,2.97 -8.82,3.2c-2.29,0.25 -5.95,-0.28 -7.47,-1.24c-1.5,-0.98 -3.43,-4.34 -3.78,-6.6c-0.31,-2.33 0.43,-7.74 1.46,-10.56c1.06,-2.78 4.4,-8.3 6.49,-10.76c2.16,-2.5 7.11,-6.47 9.78,-7.77c2.75,-1.3 8.51,-2.35 11.43,-2.11c2.81,0.26 7.97,2.09 10.02,3.5c1.97,1.4 4.4,4.79 4.79,6.66c0.36,1.92 -0.54,5.89 -1.69,8.28c-1.01,2.05 -4.68,6.88 -6.73,8.94c-2.31,2.29 -6.78,5.31 -8.87,6.18c-2.19,0.87 -6.2,0.83 -7.77,-0.12c-1.57,-1.02 -3.67,-4.96 -4.08,-7.63c-0.39,-2.74 0.29,-8.76 1.33,-11.69c1.03,-2.82 4.27,-7.9 6.24,-9.91c1.98,-1.96 6.42,-4.63 8.84,-5.3c2.44,-0.64 7.54,-0.53 9.96,0.24c2.41,0.81 6.63,3.71 8.38,5.68c1.6,1.84 3.83,5.87 4.35,7.76c0.46,1.78 0.3,5.06 -0.26,6.47c-0.6,1.4 -2.62,3.58 -3.95,4.24c-1.39,0.66 -4.1,0.65 -5.23,-0.13c-1.16,-0.85 -2.78,-4.35 -3.08,-6.63c-0.28,-2.45 0.49,-7.36 1.6,-9.49c1.13,-2.1 4.59,-5.18 6.83,-6.15c2.16,-0.9 7.2,-1.62 9.89,-1.43c2.64,0.2 7.55,1.56 9.58,2.64c2.23,1.25 5.66,5 6,7.5c0.24,2.05 -1.19,4.91 -2.18,5.18c-1.09,0.21 -4.72,-2.74 -7.68,-5.86c-2.59,-2.76 -3.5,-4.51 -3.97,-5.89c1.12,-0.05 5.05,4.3 6.81,7.33c0.86,1.52 1.73,3.95 1.71,4.82c-0.06,0.8 -1.13,2.31 -2.15,3.03c-2.38,1.62 -8.31,2.92 -10.85,2.98c-4.22,0.07 -15.63,-2.03 -20.32,-3.36c-2.11,-0.62 -7.05,-3.55 -9.61,-5.12c-2.03,-1.21 -7.3,-3.48 -11.16,-4.03c-0.84,-0.12 -6.04,-0.32 -8.48,-0.02c-0.97,0.12 -11.89,1.79 -13.76,1.97c-6.74,0.64 -15.31,-1.25 -17.17,-2.36c-3.26,-2.03 -4.34,-4.92 -4.38,-5.9c0,0 0.95,-0.31 0.95,-0.31c-1.14,0.96 -2.67,1.55 -4.24,1.45c-1.57,-0.11 -7.39,-2.09 -10.95,-4.28c-1.58,-1 -6.48,-5.16 -8.57,-7.58c-2.05,-2.42 -3.21,-6.36 -2.44,-7.69c0.48,-0.71 2.19,-1.04 3.39,-0.57c1.17,0.49 3.77,2.55 4.78,3.75c0.92,1.15 1.81,3.32 1.8,4.46c-0.06,1.16 -1.08,3.65 -1.99,4.82c-2,2.44 -7.89,5.61 -10.97,6.67c-3.02,0.97 -9.33,2.05 -11.84,1.59c-1.08,-0.23 -2.44,-1.1 -2.86,-1.81c-0.39,-0.74 -0.49,-2.62 -0.12,-3.57c0.49,-1.12 2.6,-3.32 4.14,-4.25c3.15,-1.84 8.95,-1.91 11.38,-1.18c2.25,0.75 7.67,4.08 8.94,6.39c0.65,1.26 0.61,3.76 -0.06,5.02c-1.27,2.2 -6.51,5.52 -9.03,6.62c-3.95,1.69 -14.27,4.28 -17.52,4.37c-2.21,0.02 -4.99,-0.5 -6.04,-1.3c-1.01,-0.85 -2.04,-3.63 -1.94,-5.3c0.24,-2.94 2.68,-7.54 3.79,-8.87c1.37,-1.59 4.45,-3.82 6.58,-4.72c2.47,-0.97 9.03,-0.8 11.35,0.7c0.9,0.65 1.63,2.41 1.4,3.6c-0.54,2.43 -3.67,6.65 -5.23,8.08c-3.55,3.18 -13.48,7.71 -18.88,9.02c-1.37,0.3 -4.51,0.66 -5.8,0.55c-1.52,-0.15 -3.53,-1.61 -4.01,-2.81c-0.39,-1.12 -0.34,-4.03 0.07,-5.3c0.14,-0.43 0.5,-1.29 1.07,-2.59" fill="none" id="svg_15" stroke="rgb(255, 255, 255)" stroke-linejoin="round" stroke-opacity="1" stroke-width="30"/>
   <path d="m165.68,141.75c-1.65,0.63 -3.57,1 -4.69,0.69c-1.42,-0.41 -5.79,-4.92 -7.2,-6.99c-1.65,-2.48 -3.06,-6.63 -2.68,-9.05c0.42,-2.33 3.22,-7.1 4.77,-8c0.85,-0.45 2.68,-0.54 3.5,-0.08c0.98,0.62 2.34,3.09 2.55,4.77c0.34,3.1 -2.16,8.27 -3.79,10.43c-1.31,1.68 -4.5,5.06 -6.16,6.51c-2.13,1.8 -7.32,4.95 -10.15,5.44c-1.31,0.19 -3.42,-0.12 -4.13,-0.62c-1.42,-1.11 -3.17,-6.99 -2.86,-9.75c0.3,-2.36 2.8,-7.32 4.51,-9.03c4.61,-4.49 7.47,-4.54 7.92,-4.32c0.09,1.32 -3.38,5.57 -5.79,7.45c-3.8,2.91 -11.12,5.75 -14.09,5.85c-1.78,0.02 -4.84,-1.16 -5.97,-2.26c-1.05,-1.09 -2.32,-4.1 -2.48,-5.78c-0.11,-1.61 0.54,-4.89 1.24,-6.3c0.74,-1.39 2.9,-3.6 4.25,-4.35c1.38,-0.72 4.34,-1.29 5.94,-1.17c1.47,0.14 4.04,1.14 4.93,1.92c0.87,0.82 1.89,3.14 2.01,4.53c0.15,3.05 -2.94,8.36 -5.03,10.33c-3.3,3.01 -11.38,7.27 -15.84,8.35c-2.4,0.55 -6.78,-0.27 -8.05,-1.63c-0.99,-1.15 -1.91,-4.75 -1.79,-6.86c0.13,-2.02 1.25,-6.37 2.31,-8.42c1.23,-2.27 5.12,-6.31 7.94,-6.87c1.3,-0.23 3.8,0.19 4.57,0.74c0.77,0.62 1.43,2.64 1.26,3.93c-0.4,2.64 -4,6.73 -6.16,8.31c-3.57,2.54 -12.88,6.33 -17.02,6.84c-2.63,0.28 -8.34,-0.68 -10.89,-2.92c-2.3,-2.07 -4.72,-7.48 -4.95,-9.22c-0.12,-1.21 0.79,-2.45 1.86,-2.41c1.26,0.09 4.34,1.73 5.34,3.12c1.05,1.54 1.11,4.96 0.16,6.26c-0.86,1.08 -4.04,1.89 -5.92,1.28c-1.67,-0.57 -7.79,-3.99 -8.67,-4.05c-0.22,-0.02 -0.54,0.05 -0.95,0.2c0,0 0.3,4.53 0.3,4.53c0,0 -1.78,-0.94 -1.78,-0.94c-0.6,1.58 6.77,3.44 10.99,5.04c1.09,1.63 5.83,7.21 7.02,8.97c1.29,1.95 3.14,6.65 2.83,7.94c-0.26,0.82 -2.54,1.38 -4.79,0.2c-0.88,-0.47 -2.26,-1.62 -2.72,-2.11c0,0 -1.17,9.78 -1.17,9.78c0.42,0.19 0.51,2.58 2.04,3.7c0.8,0.57 15.32,7.14 15.88,7.3c0.34,0.1 0.78,0.13 1.34,0.09" fill="none" id="svg_16" stroke="rgb(255, 255, 255)" stroke-linejoin="round" stroke-opacity="1" stroke-width="30"/>
   <path d="m96.32,168.52c2.14,1.88 6.48,3.94 9.28,4.95c4.3,1.54 19.42,3.57 24.35,5.05c5.07,1.54 8.01,2.17 9,1.81c0,0 -29.49,-6.53 -29.49,-6.53c0,0 25.16,7.34 25.16,7.34c-0.79,-0.36 -4.79,-1.54 -7.42,-2.11c-2.69,-0.56 -5.07,-0.09 -5.79,0.26c0.61,2.27 16.36,4.79 18.91,5.55c2.11,0.6 7.22,1.42 8.52,1.4c2.57,-0.05 13.39,-3.55 14.51,-3.91c0.35,-0.11 0.58,-0.22 0.67,-0.31" fill="none" id="svg_17" stroke="rgb(255, 255, 255)" stroke-linejoin="round" stroke-opacity="1" stroke-width="30"/>
   <path d="m154.64,176.53c-6.28,-1.47 -16.82,-6.03 -24.28,-10.11c-7.4,-4.17 -14.39,-9.18 -14.7,-11.3c-0.1,-1.49 3.19,-3.93 5.92,-4.71c4.87,-1.3 15.27,-0.81 21.03,0.53c3.5,0.86 6.83,2.82 6.61,4.03c-0.33,1.13 -2.11,3.2 -3.97,4.43c-3.91,2.54 -16.15,5.91 -21.64,6.2c-2.94,0.12 -7.16,-0.75 -8.6,-1.89c-1.45,-1.23 -2.56,-5.15 -2.19,-7.7c0.42,-2.6 3,-7.98 5.01,-10.3c2.09,-2.35 7.3,-5.66 10.31,-6.54c5.45,-1.51 13.72,-0.05 14.92,0.3c0.53,0.15 1.78,0.54 3.77,1.18" fill="none" id="svg_18" stroke="rgb(255, 255, 255)" stroke-linejoin="round" stroke-opacity="1" stroke-width="30"/>
   <path d="m175.48,155.22c-5.46,4.2 -8.88,7.55 -9.59,10.45c-0.06,0.26 -0.03,0.51 0.07,0.75c0.14,0.45 7.7,1.75 8.38,1.94c1.54,0.45 3.79,1.49 4.77,2.22c0.96,0.79 0.42,8.18 0.5,8.42c0.06,0.16 2.76,2.34 3.42,3.04" fill="none" id="svg_19" stroke="rgb(255, 255, 255)" stroke-linejoin="round" stroke-opacity="1" stroke-width="30"/>
   <path d="m184.95,181.13c0.88,-2.1 3.68,-4.35 6.93,-6.29c6.6,-3.8 16.4,-7.81 17.2,-8.48c0.23,-0.19 0.52,-0.52 0.88,-0.99" fill="none" id="svg_20" stroke="rgb(255, 255, 255)" stroke-linejoin="round" stroke-opacity="1" stroke-width="30"/>
   <path d="m195.66,175.91c1.76,-0.21 9.41,-3.24 11.69,-4.38c0.89,-0.45 1.69,-0.9 2.42,-1.34c0.23,-0.15 0.48,-0.33 0.74,-0.54" fill="none" id="svg_21" stroke="rgb(255, 255, 255)" stroke-linejoin="round" stroke-opacity="1" stroke-width="30"/>
   <path d="m207.86,171.97c0,0 10.28,0.24 10.28,0.24" fill="none" id="svg_22" stroke="rgb(255, 255, 255)" stroke-linejoin="round" stroke-opacity="1" stroke-width="30"/>
   <path d="m222.74,171.27c0,0 -1.05,0.9 -1.05,0.9c6.22,-6.74 11.97,-12.01 17.74,-16.3c5.13,-3.69 13.24,-9.44 16.22,-11.49c0.74,-0.5 1.48,-0.99 2.23,-1.49" fill="none" id="svg_23" stroke="rgb(255, 255, 255)" stroke-linejoin="round" stroke-opacity="1" stroke-width="30"/>
   <path d="m229.86,155.5c-2.22,0.88 -5.32,1.87 -6.61,1.85c-1.14,-0.03 -3.34,-0.92 -3.55,-1.5c-0.95,-3.2 -0.43,-8.11 0.62,-10.91c0.96,-2.48 3.82,-7.51 5.63,-9.84c1.88,-2.39 6.13,-6.36 8.24,-7.6c2.32,-1.33 6.66,-2.76 8.65,-2.72c1.87,0.08 4.43,1.59 4.92,2.87c0.52,1.61 -0.97,6.13 -2.68,8.34c-3.29,4.16 -13.49,13.53 -19.02,17.28c-2.65,1.79 -8.9,5.01 -11.04,5.62c-2.47,0.66 -6.16,0.12 -7.38,-1.14c-1.19,-1.31 -2.17,-5.71 -1.92,-8.57c0.28,-2.87 2.19,-9.19 3.73,-12.39c1.53,-3.1 5.37,-8.72 7.41,-10.84c2.01,-2.06 6.05,-4.62 7.7,-4.93c1.64,-0.26 3.75,1.23 3.95,2.85c0.16,1.72 -1.54,6.39 -3.28,8.88c-2.9,4.05 -12.37,12.25 -16.77,15.2c-5,3.32 -16.62,8.91 -21.54,9.73c-2.84,0.44 -6.82,-0.65 -7.93,-2.29c-1.11,-1.74 -1.35,-7.57 -0.42,-10.96c1.34,-4.77 6.2,-12.85 9.09,-16.05c1.14,-1.25 4.78,-4.65 7.28,-6.46c1.96,-1.4 4.71,-2.89 6.44,-3.73" fill="none" id="svg_24" stroke="rgb(255, 255, 255)" stroke-linejoin="round" stroke-opacity="1" stroke-width="30"/>
   <path d="m198.81,143.59c-6.28,2.13 -11.22,2.81 -12.22,1.94c-0.37,-0.37 -0.26,-3.38 0.46,-5.39c0.85,-2.34 3.94,-7.46 6.03,-10.06c1.75,-2.15 7.23,-7.23 9.62,-8.94c1.08,-0.76 4.37,-2.89 5.58,-3.66" fill="none" id="svg_25" stroke="rgb(255, 255, 255)" stroke-linejoin="round" stroke-opacity="1" stroke-width="30"/>
  </g>
  <g id="Layer_3_2" stroke-linecap="round">
   <path d="m144.34,128.32c-1.66,-0.9 -2.32,-1.51 -2.49,-2.62c-0.42,-2.88 -0.27,-7.05 0.18,-8.11c0.5,-1.11 1.29,-1.48 1.84,-1.56c1.15,0.47 3.41,4.23 4.25,6.51c0.76,2.13 0.99,4.89 0.56,6.5c-0.37,1.28 -3.01,3.19 -4.41,3.05c-1.52,-0.21 -3.95,-2.94 -4.63,-5.03c-0.59,-1.9 -0.39,-5.04 0.43,-5.9c0.9,-0.88 4.05,-1.12 5.53,-0.4c1.43,0.74 2.7,3.43 2.42,4.94c-0.32,1.53 -2.59,3.26 -4.2,3.37c-1.76,0.08 -4.93,-0.24 -5.98,-0.71c-0.96,-0.46 -1.81,-2.37 -1.77,-3.71c0.14,-2.51 1.82,-4.99 2.6,-5.75c1.11,1.11 1.63,2.45 1.2,3.78c-0.33,0.99 -1.61,2.25 -2.43,2.5c-0.77,0.17 -2.13,-0.45 -2.49,-1.28c-0.79,-2.01 0.69,-7.97 1.88,-8.87c0.51,-0.35 2.22,-0.86 2.91,-0.75c0.27,0.05 1.34,0.27 3.2,0.65" fill="none" id="svg_72" stroke="rgb(72, 72, 72)" stroke-linejoin="round" stroke-opacity="1" stroke-width="30"/>
   <path d="m144.15,110.04c-0.05,-0.7 0.14,-2.54 0.51,-3.94c0.45,-1.67 1.46,-3.58 2.21,-4.35c0.13,-0.13 0.3,-0.26 0.51,-0.38" fill="none" id="svg_73" stroke="rgb(72, 72, 72)" stroke-linejoin="round" stroke-opacity="1" stroke-width="30"/>
   <path d="m148.21,102.04c0.21,-0.74 0.62,-1.4 1.29,-1.99c0.11,-0.1 0.24,-0.2 0.39,-0.29" fill="none" id="svg_74" stroke="rgb(72, 72, 72)" stroke-linejoin="round" stroke-opacity="1" stroke-width="30"/>
   <path d="m149.6,98.18" fill="none" id="svg_75" stroke="rgb(72, 72, 72)" stroke-linejoin="round" stroke-opacity="1" stroke-width="30"/>
   <path d="m147.74,96.82c1.31,4.78 6.28,12.78 9.23,16.06c3.69,4.01 10.14,6.83 10.73,7.07c0.2,0.08 0.46,0.17 0.77,0.27" fill="none" id="svg_76" stroke="rgb(72, 72, 72)" stroke-linejoin="round" stroke-opacity="1" stroke-width="30"/>
   <path d="m156.29,103.35c2.02,3.73 9.71,11.61 14.07,14.89c1.04,0.77 7.75,5.5 10.26,7.25c1.31,0.91 1.68,1.17 1.94,1.39" fill="none" id="svg_77" stroke="rgb(72, 72, 72)" stroke-linejoin="round" stroke-opacity="1" stroke-width="30"/>
   <path d="m170.63,114.77c3.52,2.15 8.85,4 11.27,4.44c1.04,0.19 19.94,2.91 24.87,4.28c1.2,0.33 4.28,1.31 5.11,1.61c0.3,0.11 0.82,0.3 1.56,0.59" fill="none" id="svg_78" stroke="rgb(72, 72, 72)" stroke-linejoin="round" stroke-opacity="1" stroke-width="30"/>
   <path d="m194.02,117.76c3.12,0.45 9.64,-0.19 13.48,-0.9c3.11,-0.59 12.89,-3.32 14.25,-3.6c2.92,-0.61 6.58,-0.8 7.67,-0.74c0.34,0.02 0.98,0.09 1.95,0.19" fill="none" id="svg_79" stroke="rgb(72, 72, 72)" stroke-linejoin="round" stroke-opacity="1" stroke-width="30"/>
   <path d="m234.37,111.56c2.2,0.61 6.69,-0.65 10.28,-2.75c1.2,-0.71 7.55,-4.3 8.67,-4.27c0.29,0.01 0.72,0.03 1.27,0.04" fill="none" id="svg_80" stroke="rgb(72, 72, 72)" stroke-linejoin="round" stroke-opacity="1" stroke-width="30"/>
   <path d="m237.36,109.88c0.77,-1.33 5.61,-3.87 7.67,-4.89c3.35,-1.71 8.01,-4.1 9.31,-4.77c0.62,-0.34 1.25,-0.67 1.87,-1" fill="none" id="svg_81" stroke="rgb(72, 72, 72)" stroke-linejoin="round" stroke-opacity="1" stroke-width="30"/>
   <path d="m251.38,100.27c1.02,-1.48 1.86,-2.31 2.71,-2.47c0.81,-0.15 1.88,0.29 3.38,1.24c-0.01,-0.02 5.12,4.97 4.98,6.2c-0.2,1.21 -4.54,7.73 -6.33,10.42c0,0 6.26,-5.43 6.26,-5.43c0.78,0.95 0.98,1.78 0.58,3.17c-1.16,3.95 -5.33,12.86 -6.23,13.99c-0.11,-0.93 1.45,-6.33 3.01,-9.6c1.65,-3.39 4.75,-6.4 6.31,-6.66c0,0 0.83,0.68 0.83,0.68c0.26,2.04 -1.29,7.71 -2.56,10.49c-3.24,6.96 -5.02,8.55 -5.46,8.7c-1.02,-1.87 2.26,-9.57 2.48,-10.02c0.18,-0.35 0.54,-1 1.09,-1.96" fill="none" id="svg_82" stroke="rgb(72, 72, 72)" stroke-linejoin="round" stroke-opacity="1" stroke-width="30"/>
   <path d="m261.31,96.86c1.58,-1.1 3.04,-1.99 4.2,-2.43c5.22,-1.96 13.15,-1.44 14.59,-1.1c0.49,0.12 1.24,0.38 2.26,0.78" fill="none" id="svg_83" stroke="rgb(72, 72, 72)" stroke-linejoin="round" stroke-opacity="1" stroke-width="30"/>
   <path d="m265.95,94.52c1.4,0.12 7.65,-2.06 10.09,-2.65c4.02,-0.95 9.4,-1.24 12.59,-1.03c2.3,0.17 10.59,0.83 12.95,0.6" fill="none" id="svg_84" stroke="rgb(72, 72, 72)" stroke-linejoin="round" stroke-opacity="1" stroke-width="30"/>
   <path d="m300.58,91.97c2.56,1.45 6.97,3.15 9.39,4.22c5.15,2.32 15.45,10.7 20.46,14.83c2.72,2.26 10.17,10.3 10.68,11.41c0,0 -3.91,-3.69 -3.91,-3.69" fill="none" id="svg_85" stroke="rgb(72, 72, 72)" stroke-linejoin="round" stroke-opacity="1" stroke-width="30"/>
   <path d="m328.1,107.17c1.83,2.21 9.54,5.53 12.11,7.75c1.88,1.56 3.5,2.56 4.35,2.65c1.14,0.06 3.29,-1.78 3.6,-1.63c1.92,1.02 2.53,1.15 2.5,1.1c0,0 -10.02,17.18 -10.02,17.18c0,0 4.16,-4.44 4.16,-4.44c0.86,2.35 -4.11,8.84 -4.34,8.86c0,0 3.07,-3.57 3.07,-3.57c0,0 -0.48,3.4 -0.48,3.4c0,0 1.89,-3.07 1.89,-3.07c-0.35,4.24 -3.92,6.02 -4.4,6.18c0,0 -0.45,-1.09 -0.45,-1.09c-1.47,0.4 -6.84,3.54 -9.3,3.84c-0.3,0.04 -0.53,-0.02 -0.67,-0.16c-0.41,-1.32 3.07,-4.98 4.78,-5.6c-1.09,2.09 -4.17,4.23 -6.53,5.67c-3.19,1.91 -5.66,2.64 -6.37,2.5c-0.21,-2.22 9.73,-6.96 10.99,-7.2c0.32,0.78 -15.28,9.41 -16.45,8.9c1.49,-2.24 14.04,-11.98 16.38,-12.54c0.22,-0.04 0.38,0 0.49,0.14c0.08,5.48 -14.47,13.16 -16.4,13.67c-0.99,-1.15 7.49,-7.65 8.96,-7.74c-0.19,2.04 -1.18,3.85 -3.19,5.14c-1.96,1.27 -7.21,3.62 -7.93,3.85c-0.85,-2.22 8.47,-7.58 9.86,-7.85c0,0 -24.38,12.86 -24.38,12.86c0,0 8.43,-6.85 8.43,-6.85c0,0 -15.68,9.73 -15.68,9.73c0,0 1.01,-1.94 1.01,-1.94c0,0 -7.57,10.77 -7.57,10.77c0,0 4.46,-5.72 4.46,-5.72c0.83,1.01 1.15,1.66 0.98,2.71c-0.58,3.61 -1.94,6.2 -2.27,6.65c0,0 2.46,-5.99 2.46,-5.99c0,0 -1.92,5.54 -1.92,5.54c0,0 1.32,-3.59 1.32,-3.59c0.1,1.15 -2.84,4.67 -4.5,5.59c-1.83,0.97 -2.56,0.72 -2.93,0.48c-0.61,-2.17 5.02,-6.77 6.57,-7.22c0.4,0.76 -4.3,5.3 -7.52,6.82c-1.21,0.56 -2.4,0.56 -3.36,0.26c-0.14,-1.59 1.86,-3.89 3.15,-4.75c1.66,-1.07 4.27,-1.53 4.94,-1.03c0.65,0.55 0.37,2.76 -0.86,4.46c-1.33,1.79 -5.26,5.04 -7.02,5.6c-1.93,0.56 -4.39,-0.99 -4.89,-2.47c-0.15,-0.58 0.13,-2.1 0.63,-2.8c0.62,-0.83 3.14,-2.32 4.38,-2.65c1.19,-0.31 2.28,0.03 3.02,0.68c0.23,1 0.12,2.04 -0.55,2.78c-1.61,1.68 -9.27,2.68 -11.86,2.25c-1.38,-0.25 -2.44,-0.88 -2.67,-1.41c-0.04,-1.18 1.86,-3.37 3.8,-4.2c2.04,-0.83 5.49,-0.87 6.48,-0.12c0.46,1.11 -0.68,4.06 -2.44,5.6c-1.88,1.57 -7.24,3.18 -9.13,2.87c-1.39,-0.28 -3.55,-2.4 -3.74,-3.57c-0.16,-1.21 1.45,-3.88 3.26,-4.99c1.92,-1.15 6.02,-2.17 7.65,-2.02c1.55,0.17 2.87,1.4 2.68,2.47c-0.27,1.2 -2.99,3.92 -5.7,5.2c-2.91,1.34 -8.13,2.05 -9.75,1.51c-1.54,-0.56 -4.39,-3.75 -5.15,-6.36c-0.63,-2.25 -0.55,-6.66 0.57,-8.1c0.63,-0.76 2.51,-1.4 3.41,-1.18c0.88,0.23 1.58,1.17 1.75,1.96c-0.63,1.15 -4.63,1.83 -7.26,1.57c-6.33,-0.7 -12.57,-4.84 -12.88,-5.59c0.24,-1.01 4.19,-1.42 6.76,-1.15c1.64,0.18 2.23,0.33 2.53,0.6c-1.67,1.31 -22.14,-0.09 -23.36,-0.05c4.61,-1.43 9.49,-1.51 10.09,-0.86c1.71,2.61 -3.79,5.47 -5.26,5.83c0,0 8.9,-2.06 8.9,-2.06c0,0 2.55,4.18 2.55,4.18c0,0 0.91,0.45 0.91,0.45" fill="none" id="svg_86" stroke="rgb(72, 72, 72)" stroke-linejoin="round" stroke-opacity="1" stroke-width="30"/>
   <path d="m226.25,159.4c0,0 -12.32,10.68 -12.32,10.68c1.26,-2.19 4.19,-4.8 6.24,-6.3c2.38,-1.72 5.35,-2.88 5.65,-2.79c1.46,1.8 -4.48,9.11 -6.59,11.17c0,0 10.39,-9.51 10.39,-9.51c0,0 -4.73,8.02 -4.73,8.02c0,0 1.13,-2.29 1.13,-2.29" fill="none" id="svg_87" stroke="rgb(72, 72, 72)" stroke-linejoin="round" stroke-opacity="1" stroke-width="30"/>
   <path d="m224.43,169.14c-4,3.68 -8.27,4.1 -9.07,3.92c0,0 5.79,-4.98 5.79,-4.98c-0.62,1.31 -5.53,3.38 -8.7,3.52c-1.51,0.05 -2.77,-0.15 -3.79,-0.52c0,0 -0.58,-0.81 -0.58,-0.81c0,0 5.2,-3.39 5.2,-3.39c0,0 -14.31,5.49 -14.31,5.49c0,0 6.53,-3.15 6.53,-3.15c0,0 -6.96,5.77 -6.96,5.77c1.12,-0.8 2.53,-1.67 3.64,-2.16c0.9,-0.41 4.54,-0.84 3.84,-0.69c-0.81,0.21 -3.08,0.27 -3.58,0.37" fill="none" id="svg_88" stroke="rgb(72, 72, 72)" stroke-linejoin="round" stroke-opacity="1" stroke-width="30"/>
   <path d="m208.4,172.83c0,0 -5.52,2.53 -5.52,2.53c0.58,-0.59 2.17,-1.33 3.12,-1.29c1.26,0.05 0.52,0.99 -0.46,0.68c-0.22,-0.06 -0.46,-0.3 -0.71,-0.7" fill="none" id="svg_89" stroke="rgb(72, 72, 72)" stroke-linejoin="round" stroke-opacity="1" stroke-width="30"/>
   <path d="m200.77,170.7c-0.65,0.6 -4.88,2.66 -6.1,3.93c-0.5,0.52 -3,3.87 -3.35,4.18c-0.51,0.46 -0.74,-0.23 -0.15,-0.92c2.1,-2.47 3.45,-3.21 3.97,-3.39c-0.25,1.34 -0.86,2.49 -2.01,3.51c-1.41,1.23 -5.99,2.93 -6.64,2.81c0,0 2.12,-1.54 2.12,-1.54c-0.97,1.31 -7,2.91 -8.44,2.32c0.02,-1.21 2.82,-1.38 3.76,-1.33c-0.62,-0.03 -1.05,-0.1 -1.3,-0.21c-0.25,-0.1 -0.68,-0.37 -1.28,-0.82" fill="none" id="svg_90" stroke="rgb(72, 72, 72)" stroke-linejoin="round" stroke-opacity="1" stroke-width="30"/>
   <path d="m184.49,181.83c-1.22,0.29 -5.5,-0.81 -7.59,-1.31c-2.57,-0.77 -4.27,-2.07 -5.56,-3.37c0,0 1.6,0.52 1.6,0.52c-1.5,1.26 -2.99,1.91 -5.7,2.3c-2.69,0.38 -9.8,1.12 -11.09,1.81c0,0 9.12,-3.5 9.12,-3.5c0,0 -14.05,7.34 -14.05,7.34c0,0 7.12,-3.2 7.12,-3.2c-0.46,1.24 -5.35,3.56 -6.07,3.36c-0.48,-0.2 2.64,-1.93 3.72,-2.54c0.52,-0.29 1.18,-0.71 1.99,-1.28" fill="none" id="svg_91" stroke="rgb(72, 72, 72)" stroke-linejoin="round" stroke-opacity="1" stroke-width="30"/>
   <path d="m156.73,174.96c0,0 4.68,1.64 4.68,1.64c0,0 -1.31,3.4 -1.31,3.4c1.53,-0.15 2.14,0.43 2.05,2c0,0 1.01,-0.56 1.01,-0.56" fill="none" id="svg_92" stroke="rgb(72, 72, 72)" stroke-linejoin="round" stroke-opacity="1" stroke-width="30"/>
   <path d="m151.05,180.55c-1.66,1.73 -2.65,2.4 -3.93,2.39c-3.99,-0.05 -7.76,-0.46 -11.16,-1.4c-6.06,-1.72 -11.89,-4.44 -13.32,-5.72" fill="none" id="svg_93" stroke="rgb(72, 72, 72)" stroke-linejoin="round" stroke-opacity="1" stroke-width="30"/>
   <path d="m145.63,186.99c-0.18,0.18 -0.45,0.24 -0.79,0.18c-7.98,-1.88 -20.97,-3.07 -24.84,-4.77c-1.09,-0.49 -2,-1.2 -3.13,-2.3" fill="none" id="svg_94" stroke="rgb(72, 72, 72)" stroke-linejoin="round" stroke-opacity="1" stroke-width="30"/>
   <path d="m117.78,181.29c-3.35,-0.48 -9.76,-2.09 -13.68,-3.31c-3.65,-1.16 -8.53,-4.06 -11.03,-6.56c-1.92,-1.94 -5.28,-6.06 -7.57,-9.18c-0.18,-0.24 -0.44,-0.58 -0.8,-1.02" fill="none" id="svg_95" stroke="rgb(72, 72, 72)" stroke-linejoin="round" stroke-opacity="1" stroke-width="30"/>
   <path d="m89.88,167.86c-1.49,-0.17 -2.69,-0.92 -3.61,-2.5c-0.41,-0.71 -0.74,-1.39 -0.98,-2.05c-0.08,-0.26 -0.18,-0.66 -0.28,-1.19" fill="none" id="svg_96" stroke="rgb(72, 72, 72)" stroke-linejoin="round" stroke-opacity="1" stroke-width="30"/>
   <path d="m86.15,160.18c1.37,-2.97 2.41,-16.68 2.99,-24.3c0.1,-1.4 0.34,-4.28 0.46,-5.76c0.02,-0.29 0.03,-0.48 0.02,-0.57" fill="none" id="svg_97" stroke="rgb(72, 72, 72)" stroke-linejoin="round" stroke-opacity="1" stroke-width="30"/>
   <path d="m84.59,141.42c-0.82,-0.6 -10.99,-12.54 -15.98,-17.22c-0.26,-0.25 -0.78,-0.71 -1.53,-1.39" fill="none" id="svg_98" stroke="rgb(72, 72, 72)" stroke-linejoin="round" stroke-opacity="1" stroke-width="30"/>
   <path d="m74.16,135.38c-2.67,-2.02 -6.52,-3.59 -9.31,-4.2c-3.42,-0.68 -6.7,-0.03 -8.84,0.85c-0.37,0.16 -0.63,0.32 -0.8,0.48" fill="none" id="svg_99" stroke="rgb(72, 72, 72)" stroke-linejoin="round" stroke-opacity="1" stroke-width="30"/>
   <path d="m56.36,133.49c-1.31,0.42 -4.34,1.04 -5.4,1.45c-0.11,0.05 -0.3,0.13 -0.58,0.24" fill="none" id="svg_100" stroke="rgb(72, 72, 72)" stroke-linejoin="round" stroke-opacity="1" stroke-width="30"/>
   <path d="m54.8,125.94c2.3,-2.16 6.08,-4.36 10.06,-6.45c3.53,-1.84 6.84,-3.92 11.72,-7.11c0.34,-0.21 0.62,-0.4 0.85,-0.54" fill="none" id="svg_101" stroke="rgb(72, 72, 72)" stroke-linejoin="round" stroke-opacity="1" stroke-width="30"/>
   <path d="m66.74,116.74c0,0 -1.23,0.8 -1.23,0.8c3.2,-2.2 6.96,-4.59 9.73,-5.66c3.8,-1.43 11.98,-2.35 13.01,-2.46c0.27,-0.04 0.68,-0.1 1.23,-0.18" fill="none" id="svg_102" stroke="rgb(72, 72, 72)" stroke-linejoin="round" stroke-opacity="1" stroke-width="30"/>
   <path d="m76,111.11c1.4,-1.09 6.65,-3.92 9.62,-5.04c3.33,-1.23 9.44,-2.34 12.88,-2.48c1.86,-0.07 7.22,-0.05 8.4,-0.05c0.47,0.01 0.94,0.01 1.42,0.01" fill="none" id="svg_103" stroke="rgb(72, 72, 72)" stroke-linejoin="round" stroke-opacity="1" stroke-width="30"/>
   <path d="m108,100.31c0.86,0.02 6.28,-1.26 9.08,-1.94c3.11,-0.71 10.63,-0.93 13.26,-0.08c0.23,0.08 4.7,2.48 5.35,2.62c0,0 0.82,-1.06 0.82,-1.06" fill="none" id="svg_104" stroke="rgb(72, 72, 72)" stroke-linejoin="round" stroke-opacity="1" stroke-width="30"/>
   <path d="m128.39,129.88c-0.17,1.1 -1.19,2.17 -2.26,2.15c-0.62,-0.03 -2.45,-4.78 -2.41,-7.65c0.09,-3.1 1.93,-7.04 2.93,-7.53c1.04,-0.43 3.48,-0.12 4.99,0.64c1.35,0.7 4.91,3.88 6.43,6.91c1.46,2.93 1.57,8.88 1.1,11.32c-0.43,2.08 -1.94,6.24 -3.05,8.26c-1.26,2.26 -4.28,5.62 -5.9,6.76c-1.78,1.2 -5.82,2.2 -7.95,1.9c-1.88,-0.29 -6.63,-2.64 -8.51,-4.11c-1.93,-1.55 -5.82,-5.66 -7.38,-7.84c-1.53,-2.16 -3.47,-6.1 -4.19,-8.5c-0.33,-1.21 -0.66,-4.24 -0.57,-5.88c0.13,-1.78 1.37,-5.19 2.34,-6.47c1.05,-1.29 3.91,-2.94 5.52,-3.11c2.92,-0.25 7.88,1.74 9.37,2.8c1.47,1.06 4.97,5.23 5.42,8.16c0.4,2.79 -1.48,8.41 -2.43,10.08c-1.23,2.1 -4.64,5.7 -6.77,7.15c-2.08,1.38 -6.74,3.33 -9.03,3.8c-2.34,0.46 -6.67,0.19 -8.58,-0.57c-1.93,-0.8 -5.03,-3.64 -6.13,-5.58c-1.04,-1.92 -2.15,-6.43 -2.21,-8.89c-0.05,-2.4 0.73,-7.37 1.44,-9.56c0.68,-2.05 3.24,-6.58 4.56,-7.91c1.61,-1.57 5.55,-3.22 7.92,-3.2c2.48,0.06 7.61,1.84 10.73,3.54c5.09,2.81 15.78,12.36 18.07,16.18c1.36,2.37 2.42,7.45 2.06,9.77c-0.44,2.56 -1.75,6.05 -3.32,8.29c-1.45,2.02 -5,4.62 -7.13,5.11c-2.26,0.48 -6.95,-0.69 -9.16,-2.31c-2.24,-1.7 -5.7,-6.7 -6.69,-9.69c-0.94,-2.93 -1.14,-9 -0.49,-12.03c0.65,-2.87 3.21,-8.29 4.94,-10.49c1.83,-2.26 6.26,-5.29 8.65,-5.83c2.49,-0.5 7.37,0.75 9.57,2.46c2.13,1.71 5.43,6.73 6.41,9.68c0.91,2.88 1.38,9 0.99,12.26c-0.42,3.18 -2.37,9.79 -3.81,12.86c-1.52,3.16 -5.38,8.49 -7.61,10.48c-2.27,1.97 -7.18,4.27 -9.53,4.43c-2.4,0.11 -6.62,-1.72 -8.25,-3.58c-1.55,-1.83 -3.44,-6.73 -3.72,-9.42c-0.23,-2.54 0.47,-7.43 1.31,-9.53c0.83,-2.01 3.33,-5.3 4.93,-6.54c1.65,-1.24 5.69,-2.88 8.02,-3.2c2.46,-0.31 7.9,0.24 10.77,1.09c2.82,0.86 8.24,3.52 10.5,5.13c2.2,1.6 5.37,5.11 6.38,7.07c0.98,1.96 1.87,6.13 1.94,8.51c0.05,2.21 -1.05,7.05 -1.84,8.33c-1.2,1.83 -3.67,3.96 -5.55,4.6c-1.71,0.53 -5.4,0.47 -7.08,-0.13c-1.89,-0.72 -4.32,-3.02 -5.44,-4.92c-0.79,-1.44 -0.98,-5.74 -0.26,-7.73c0.78,-2 3.91,-5.72 6.17,-7.26c2.35,-1.57 8.28,-3.81 11.71,-4.43c3.39,-0.59 10.15,-0.69 13.63,-0.26c3.83,0.51 8.11,1.75 10.44,2.88c1.06,0.56 2.95,2.29 3.6,3.46c0.64,1.24 0.68,4.51 0.12,5.98c-0.62,1.48 -2.83,3.75 -4.36,4.51c-1.46,0.67 -4.8,1.15 -6.46,0.93c-1.7,-0.27 -4.86,-1.8 -5.98,-2.97c-2.12,-2.3 -3.13,-6.96 -2.93,-8.69c0.27,-2.04 2.28,-6.1 4.04,-8.21c1.81,-2.12 6.74,-6.22 9.65,-7.94c3.12,-1.81 9.95,-4.38 13.47,-5.03c3.51,-0.61 9.96,-0.41 12.66,0.36c2.58,0.77 6.47,3.44 7.73,5.23c1.14,1.69 2.29,5.8 2.3,7.95c-0.02,2.14 -1.16,6.27 -2.27,8.08c-1.15,1.81 -4.37,4.77 -6.56,6.06c-2.52,1.44 -7.01,3.06 -9.5,3.52c-2.61,0.46 -6.93,0.31 -9.31,-0.51c-2.06,-0.75 -4.79,-3.22 -5.54,-5c-0.72,-1.78 -0.67,-5.96 0.06,-8.35c0.76,-2.41 3.62,-7.46 5.61,-9.82c2.19,-2.53 7.61,-6.74 10.73,-8.21c3.21,-1.48 10.02,-2.84 13.36,-2.68c3.22,0.2 9.02,2.06 11.34,3.57c2.15,1.44 5.16,5.08 6.05,7.16c0.8,1.96 1.3,6.12 1.02,8.21c-0.31,2.08 -1.95,5.88 -3.23,7.46c-1.3,1.54 -4.54,3.69 -6.35,4.24c-1.84,0.52 -5.44,0.29 -7.08,-0.48c-1.67,-0.83 -4.08,-3.6 -4.56,-5.27c-0.51,-2.08 0.99,-6.72 2.74,-8.87c3.59,-4.31 13.57,-12.06 19.19,-14.71c3.58,-1.67 9.99,-3.36 12.57,-3.65c3.36,-0.34 8.85,0.62 10.58,1.77c1.62,1.14 2.77,4.46 2.39,6.64c-0.4,2.09 -2.64,6.87 -4.44,9.47c-2.12,3.02 -6.19,7.18 -8.67,8.88c-2.46,1.65 -7.69,3.68 -10.35,4.08c-2.18,0.31 -6.98,0.12 -9.03,-0.97c-0.79,-0.45 -0.97,-3.19 -0.27,-5.09c0.85,-2.18 3.6,-6.72 6.01,-9.75c3.76,-4.65 15.48,-13.95 21.07,-16.4c3.52,-1.5 9.22,-2.7 11.7,-2.5c2.37,0.23 5.77,2.13 6.74,3.67c0.91,1.54 1.28,5.11 0.96,7.41c-0.28,1.92 -2.06,6.8 -3.2,8.98c-1.24,2.31 -4.54,6.76 -6.25,8.26c-2.01,1.73 -5.87,3.77 -7.85,3.98c-1.92,0.17 -5.01,-1.23 -5.89,-2.63c-0.86,-1.45 -0.74,-5.03 0.27,-6.85c1.07,-1.83 4.93,-5.11 7.61,-6.44c2.46,-1.18 9.77,-3.19 13.07,-3.61c3.5,-0.42 10.84,-0.46 14.14,-0.11c2.63,0.3 8.3,1.62 10.15,2.69c0.87,0.53 1.77,2.06 1.8,2.91c-0.02,1.02 -1.07,3.04 -2.2,4.1c-2.31,2.09 -9.98,5.28 -12.54,5.37c-1.26,0.02 -2.84,-0.44 -3.23,-0.89c-0.79,-1.07 -1.07,-4.31 -0.46,-6.52c1.45,-5.01 7.4,-13.42 10.41,-16.55c3.18,-3.29 10.74,-8.91 14.24,-10.54c3.27,-1.49 9.37,-2.99 11.49,-2.9c2.5,0.15 5.61,2.46 6.14,4.41c0.45,1.93 -0.41,6.56 -1.54,9.42c-0.96,2.37 -4.51,8.24 -6.4,10.7c-2.09,2.68 -6.51,7.07 -9.05,8.95c-2.56,1.87 -7.38,4.18 -9.46,4.73c-2.22,0.54 -5.84,-0.12 -7.17,-1.44c-1.35,-1.44 -2.8,-6.32 -2.72,-9.39c0.12,-3.19 2.13,-9.93 3.93,-13.13c1.84,-3.17 6.75,-8.6 9.53,-10.54c2.8,-1.89 8.58,-3.83 11.18,-3.78c2.52,0.1 6.26,2.16 7.26,3.92c0.93,1.75 0.93,6.11 0.06,8.53c-0.91,2.39 -4.19,6.91 -6.3,8.65c-2.2,1.77 -6.98,3.61 -9.23,3.48c-2.31,-0.19 -6.19,-2.86 -7.59,-5.32c-1.43,-2.61 -2.59,-9.28 -2.12,-12.72c0.54,-3.5 3.65,-9.47 6.05,-11.67c2.33,-2.07 7.82,-4.22 10.72,-4.26c2.76,0.01 8.27,1.79 10.83,3.38c2.36,1.5 6.19,5.22 7.31,7.05c1.09,1.85 1.42,5.19 0.66,6.69c-0.8,1.49 -4.03,3.73 -6.09,4.22c-2.16,0.46 -6.54,-0.33 -8.3,-1.58c-1.8,-1.34 -3.69,-5.41 -3.48,-7.64c0.27,-2.31 3.18,-6.15 5.61,-7.36c2.41,-1.14 8.29,-1.71 11.37,-1.17c2.94,0.56 7.96,2.84 10.15,4.55c4.48,3.6 6.21,8.26 6.54,9.91" fill="none" id="svg_105" stroke="rgb(72, 72, 72)" stroke-linejoin="round" stroke-opacity="1" stroke-width="30"/>
   <path d="m320.8,125.48c0,0 -0.59,-1.28 -0.59,-1.28c0,0 2.41,-0.88 2.41,-0.88" fill="none" id="svg_106" stroke="rgb(72, 72, 72)" stroke-linejoin="round" stroke-opacity="1" stroke-width="30"/>
  </g>
  <g id="Layer_2" stroke-linecap="round">
   <path d="m167.81,80.9c0,0 0.08,0.17 0.08,0.17c0.72,0 8.71,-0.34 13.66,-0.34c1.51,0.09 3.9,0.34 4.61,0.34c0,0 8.63,0.34 8.63,0.34" fill="none" id="svg_174" stroke="rgb(49, 49, 49)" stroke-linejoin="round" stroke-opacity="1" stroke-width="6"/>
   <path d="m169.12,81.72c1.63,-0.36 13.66,0.15 18.73,-0.65c1.09,-0.17 1.36,-0.96 1.38,-1.25c-0.36,-0.43 -2.64,-0.69 -4.46,-0.38c-6.5,1.14 -8.31,2.68 -8.49,2.98c0,0 15.02,-0.18 15.02,-0.18c-5.44,-1.26 -13.23,-0.58 -14.21,0.11c0.13,0.12 8.18,0.69 10.89,0.68c2.4,-0.02 7.01,-0.62 7.41,-0.56c0,0 -5.42,0.54 -5.42,0.54c1.33,-0.04 7.06,-0.94 8.02,-0.96c0.65,0 4.2,0.32 4.28,0.19c-2.29,-0.91 -7,0.36 -7.6,0.55c0,0 15.42,-2.17 15.42,-2.17c0,0 -5.9,1.78 -5.9,1.78c0,0 9.79,-2.69 9.79,-2.69c-4.05,0.18 -9.52,2.89 -9.78,3.15c0.44,-0.04 6.32,-1.89 10.02,-2.2c1.42,-0.15 5.01,0.25 6.28,-0.23c0.23,-0.09 2.34,-0.84 2.57,-0.8c0,0 1.12,-0.28 1.12,-0.28c0,0 -12.39,-3.51 -12.39,-3.51c0,0 8.15,1.53 8.15,1.53c0,0 -12.27,-2.44 -12.27,-2.44c4.84,-0.33 8.07,1.6 8.29,1.97c-0.39,0.46 -4.56,0.88 -5.63,0.86c-5.64,-0.13 -6.61,-2.16 -6.65,-2.5c0.3,-0.6 2.88,-1.43 4.91,-1.33c1.57,0.1 3.8,1.02 4.09,1.54c0.33,0.71 -0.5,2.1 -2.19,3.05c-2.76,1.51 -7.42,1.3 -7.89,0.34c-0.2,-0.49 1.02,-1.85 2.7,-2.43c3.5,-1.17 4.94,-0.26 5.1,-0.06c-0.63,1.17 -5.7,2.81 -8.54,3.18c-1.54,0.2 -2.51,-0.01 -3.04,-0.49c-0.25,-0.75 0.45,-2.38 1.88,-3.42c1.78,-1.26 4.78,-1.89 5.84,-1.69c0.29,0.87 0.35,1.19 0.14,1.52c-1.13,1.64 -3.85,3.48 -5.75,4.2c-1.61,0.59 -4.3,0.84 -4.86,0.61c-0.62,-0.3 -0.95,-1.66 -0.36,-2.56c1.82,-2.58 7.92,-3.5 8.39,-3.12c0.12,0.45 -0.42,1.26 -2,2.13c-2.28,1.22 -7.3,2.5 -8.89,2.24c-0.29,-0.78 2.01,-2.9 3.87,-3.93c3.75,-2.06 6.56,-1.68 6.81,-1.58c0.03,0.77 -3,2.3 -5.09,2.91c-4.21,1.19 -6.2,0.69 -6.5,0.52c-0.27,-0.56 0.44,-2.1 2.17,-3.1c1.94,-1.06 6.73,-1.44 8.21,-1.25c0.02,2.59 -15.31,6.72 -15.85,6.53c-0.36,-0.79 0.85,-3.55 2.43,-4.7c2.59,-1.81 7.88,-2.09 8.25,-1.88c-0.03,0.12 -12.48,5.87 -13.12,5.19c-0.02,-0.05 -0.09,-0.13 -0.19,-0.24c-0.02,-0.54 2.4,-2.68 4.12,-3.24c1.21,-0.4 4.57,-1.22 6.09,-1.68c-3.73,1.5 -7.44,2.88 -10.25,3.92c-1.52,0.58 -5.02,2.8 -5.07,2.8c0.43,-1.48 7.73,-5.7 8.34,-4.97c0,0 -11.2,4 -11.2,4c0,0 2.82,-1.1 2.82,-1.1c0,0 -1,0.84 -1,0.84c2.48,-1.39 6.82,-1.52 7.67,-1.49c0.17,0.01 0.42,0.02 0.74,0.05" fill="none" id="svg_175" stroke="rgb(49, 49, 49)" stroke-linejoin="round" stroke-opacity="1" stroke-width="6"/>
   <path d="m182.47,77.82c-1.52,0.17 -3.03,0.42 -4.07,0.69c-2.09,0.58 -5.35,1.03 -5.39,1.13c0.36,0.05 10.74,-1.45 13.44,-1.61c0.13,-0.01 0.54,-0.03 0.4,-0.03" fill="none" id="svg_176" stroke="rgb(49, 49, 49)" stroke-linejoin="round" stroke-opacity="1" stroke-width="6"/>
  </g>
  <g id="Layer_6" stroke-linecap="round" transform="translate(-47.00, -110.00)">
   <path d="m192.16,199.07c-0.53,-0.09 -2.53,-0.71 -5.37,-0.34c-5.83,0.39 -14.57,1.18 -24.59,2.13c-1.96,0.21 -15.27,2.28 -22.78,4.28c-8.91,2.46 -18.19,5.75 -25.31,9.27c-3.17,1.59 -7.04,3.84 -10.51,6.1c-2.45,1.61 -6.03,4.43 -8.39,7.35c-2.48,3.11 -7.58,14.26 -7.52,16.39c0.05,1.06 1.21,3.79 1.76,4.43c0.19,0.21 0.52,0.44 0.99,0.69" fill="none" id="svg_179" stroke="rgb(0, 0, 0)" stroke-linejoin="round" stroke-opacity="1" stroke-width="4"/>
   <path d="m88.28,246.92c1.26,2.66 1.94,3.96 2.47,4.34c2.3,1.6 6.99,2.14 10.42,1.48c2.4,-0.49 11.45,-0.67 12.59,-0.67c1.76,0.03 3.86,0.74 4.84,1.63c0.68,0.67 2.8,3.63 3.27,4.6c0.68,1.5 0.8,3.93 0.43,5.92c-0.17,0.8 -2.13,4.92 -2.28,5.28c-0.65,1.58 -0.46,5.04 0.28,7.12c0.1,0.26 0.26,0.68 0.48,1.26" fill="none" id="svg_180" stroke="rgb(0, 0, 0)" stroke-linejoin="round" stroke-opacity="1" stroke-width="4"/>
   <path d="m119.74,274.01c-0.02,1.23 1.35,4.85 3.35,7.08c2.16,2.36 18.83,13.33 22.52,14.61c4.75,1.61 34.31,9.63 39.47,10.55c6.72,1.14 13.73,0.32 20.23,-0.65c0.69,-0.09 1.38,-0.18 2.07,-0.27" fill="none" id="svg_181" stroke="rgb(0, 0, 0)" stroke-linejoin="round" stroke-opacity="1" stroke-width="4"/>
   <path d="m205.82,305.03c2.32,-0.77 6.32,-0.75 7.1,-1.29c1.82,-1.26 3.23,-1.32 4.32,-0.89" fill="none" id="svg_182" stroke="rgb(0, 0, 0)" stroke-linejoin="round" stroke-opacity="1" stroke-width="4"/>
   <path d="m188.53,199.31c0.06,0.29 -0.49,1.27 -6.26,7.94c-7.05,8.17 -15.45,22.01 -15.78,24.05c-0.49,3.3 1.54,9.34 2.96,11.15c2.09,2.59 5.81,5.2 8.13,6.42c2.67,1.37 10.76,5.49 11.36,5.84c2.5,1.48 5.8,5.54 6.69,8.44c0.57,1.92 1.23,8.5 1.9,11.7c0.66,3.05 3.16,8.38 5.54,11.23c2.3,2.71 9.77,8.68 10.35,9.29c0.51,0.53 3.16,4.41 3.84,5.17" fill="none" id="svg_183" stroke="rgb(0, 0, 0)" stroke-linejoin="round" stroke-opacity="1" stroke-width="4"/>
   <path d="m192.09,198.12c0.58,0.21 4.89,0.84 6.31,0.9c0.23,0.01 0.42,0.03 0.59,0.05" fill="none" id="svg_184" stroke="rgb(0, 0, 0)" stroke-linejoin="round" stroke-opacity="1" stroke-width="4"/>
   <path d="m200.8,197.41c1.01,-1.23 14.89,-8.06 18.01,-9.27c12.45,-4.8 24.89,-6.65 29.02,-7.11c0.67,-0.07 1.34,-0.15 2.01,-0.22" fill="none" id="svg_185" stroke="rgb(0, 0, 0)" stroke-linejoin="round" stroke-opacity="1" stroke-width="4"/>
   <path d="m248.31,181.66c0.79,-0.58 5.44,0.07 7.94,1.12c0.56,0.24 7.34,1.62 11.25,3.12c5.54,2.32 17.89,7.12 21.22,8.93c3.14,1.74 5.39,3.33 5.77,3.79" fill="none" id="svg_186" stroke="rgb(0, 0, 0)" stroke-linejoin="round" stroke-opacity="1" stroke-width="4"/>
   <path d="m213.15,191.47c0.97,1.11 10.01,3.01 19.3,3.73c2.29,0.13 12.25,-0.19 12.55,-0.21c2.25,-0.18 28.06,-4.54 28.48,-4.57c0.2,-0.02 0.48,-0.02 0.86,0" fill="none" id="svg_187" stroke="rgb(0, 0, 0)" stroke-linejoin="round" stroke-opacity="1" stroke-width="4"/>
   <path d="m201.08,198.87c1.57,2.93 5.81,7.67 7.95,9.2c0.86,0.6 6.51,3.62 10.09,6.04c2.25,1.54 5.8,2.83 8.78,3.28c3.84,0.55 20.2,0.47 24.74,-0.02c2.28,-0.26 14.29,-2.14 16.94,-3.17c0.61,-0.25 1.22,-0.49 1.83,-0.74" fill="none" id="svg_188" stroke="rgb(0, 0, 0)" stroke-linejoin="round" stroke-opacity="1" stroke-width="4"/>
   <path d="m268.11,214.31c1.81,0.4 9.06,-2.97 10.36,-3.34c2.71,-0.79 13.73,-9.7 16.52,-11.05c0.52,-0.25 1.36,-0.61 2.51,-1.09" fill="none" id="svg_189" stroke="rgb(0, 0, 0)" stroke-linejoin="round" stroke-opacity="1" stroke-width="4"/>
   <path d="m214.28,297.63c1.08,0.61 3.29,2.54 4.17,3.2c0.3,0.22 7.43,1.95 9.69,2.18c5.18,0.47 12.83,-2.82 19.01,-6.07c0.69,-0.36 1.38,-0.72 2.07,-1.08" fill="none" id="svg_190" stroke="rgb(0, 0, 0)" stroke-linejoin="round" stroke-opacity="1" stroke-width="4"/>
   <path d="m245.56,296.92c0.97,-0.37 2.97,-1.71 3.8,-2.06c0.67,-0.28 8.52,-1.68 12.44,-1.19c0.47,0.06 0.99,0.1 1.56,0.12" fill="none" id="svg_191" stroke="rgb(0, 0, 0)" stroke-linejoin="round" stroke-opacity="1" stroke-width="4"/>
   <path d="m262.15,293.93c1.4,0.52 5.15,-0.08 8.29,-1.03c3.67,-1.15 8.76,-3.97 9.72,-4.52c2.32,-1.36 11.18,-10.83 12.67,-12.66c0.32,-0.4 1.67,-2.26 2.38,-3.22c0.16,-0.22 0.32,-0.44 0.48,-0.66" fill="none" id="svg_192" stroke="rgb(0, 0, 0)" stroke-linejoin="round" stroke-opacity="1" stroke-width="4"/>
   <path d="m295.16,274.72c0.38,-0.95 3.35,-3.86 4.76,-5.52c0.99,-1.16 5.13,-4.84 7.7,-8.46c3.29,-4.63 7.17,-11.76 10.3,-19.2c1.93,-4.54 3.39,-7.92 3.77,-9.53c0.56,-2.45 0.32,-7.93 0.08,-11.64c-0.04,-0.55 -0.07,-1.1 -0.11,-1.65" fill="none" id="svg_193" stroke="rgb(0, 0, 0)" stroke-linejoin="round" stroke-opacity="1" stroke-width="4"/>
   <path d="m322.38,221.37c0.09,-1.22 -0.1,-2.86 -0.61,-4.26c-0.35,-0.96 -4.26,-9.15 -5.03,-10.05c-1.5,-1.68 -5.31,-4.35 -8.24,-5.22c-2.14,-0.55 -6.53,-1.79 -6.79,-1.84c-0.82,-0.15 -3.13,-0.14 -5.69,-0.04c-0.06,0.01 -0.26,0.03 -0.2,0.03" fill="none" id="svg_194" stroke="rgb(0, 0, 0)" stroke-linejoin="round" stroke-opacity="1" stroke-width="4"/>
   <path d="m299.01,197.34c1.41,-0.43 3.29,-1.05 4.78,-1.61c5.77,-2.15 25.53,-6.88 34.41,-6.41c1.72,0.09 10.84,0.55 11.68,0.63" fill="none" id="svg_195" stroke="rgb(0, 0, 0)" stroke-linejoin="round" stroke-opacity="1" stroke-width="4"/>
   <path d="m351.25,189.88c0.72,0.38 4.54,1.74 7.76,2.28c2.26,0.4 6.78,2.21 9.17,4.04c2.6,1.99 14.65,10.25 14.79,10.41" fill="none" id="svg_196" stroke="rgb(0, 0, 0)" stroke-linejoin="round" stroke-opacity="1" stroke-width="4"/>
   <path d="m381.46,205.72c0.52,0.12 1.39,0.78 1.77,0.98c2.34,1.03 5.21,3.04 7.86,4.17c2.02,0.85 7.23,2.56 9.03,3.71c0.56,0.33 3.74,1.8 4.33,2.19c1.42,0.95 3.2,2.94 3.67,4.11c0.54,1.46 0.52,5.45 0.18,8.79c-0.62,5.91 -3.41,12.09 -3.42,12.38c-0.19,4.67 -0.65,6.26 -2.5,10.41c-1.64,3.59 -3.59,5.45 -6.88,7.17c-1.57,0.79 -5.87,2.94 -6.58,3.31c-0.34,0.18 -0.57,0.32 -0.68,0.41" fill="none" id="svg_197" stroke="rgb(0, 0, 0)" stroke-linejoin="round" stroke-opacity="1" stroke-width="4"/>
   <path d="m392.01,261.04c-0.18,0.56 -6.41,4.05 -9.68,4.49c-3.18,0.44 -6.26,1.39 -7.89,2.46c-0.62,0.4 -2.94,2.13 -3.43,2.4c-2.55,1.39 -13.85,2.65 -14.17,3.34" fill="none" id="svg_198" stroke="rgb(0, 0, 0)" stroke-linejoin="round" stroke-opacity="1" stroke-width="4"/>
   <path d="m358.74,273.4c0,0 0.07,-0.21 0.07,-0.21c-1.69,0.64 -3.66,2.91 -6.41,6.41c-0.66,0.88 -6.74,10.79 -10.19,13.53c-2.24,1.74 -5.22,3.22 -6,3.53c-0.17,0.07 -0.36,0.14 -0.56,0.22" fill="none" id="svg_199" stroke="rgb(0, 0, 0)" stroke-linejoin="round" stroke-opacity="1" stroke-width="4"/>
   <path d="m338.47,295.15c-1.08,0.68 -3.38,1.88 -5.69,2.62c-1.54,0.48 -10.29,2.26 -12.4,2.32c-4.98,0.17 -7.37,-0.05 -8.89,-0.52c-0.22,-0.07 -0.5,-0.18 -0.84,-0.31" fill="none" id="svg_200" stroke="rgb(0, 0, 0)" stroke-linejoin="round" stroke-opacity="1" stroke-width="4"/>
   <path d="m313,300.34c-0.63,-0.26 -3.24,-1.06 -4.63,-1.7c-1.95,-0.78 -11.57,-7.41 -11.94,-7.63c-0.47,-0.26 -4.25,-4.02 -7.36,-5.29c-0.72,-0.29 -1.63,-0.43 -2.47,-0.51" fill="none" id="svg_201" stroke="rgb(0, 0, 0)" stroke-linejoin="round" stroke-opacity="1" stroke-width="4"/>
  </g>
  <g id="Layer_3" stroke-linecap="round" transform="translate(-47.00, -110.00)">
   <path d="m255.32,198.3c0.36,0 4.78,1.88 -0.12,2.62c-2.75,0.22 -1.04,-2.45 -0.62,-2.82c0.86,0.39 1.15,0.56 1.09,0.91c-0.07,0.45 -0.15,0.9 -0.23,1.35" fill="none" id="svg_202" stroke="rgb(49, 49, 49)" stroke-linejoin="round" stroke-opacity="1" stroke-width="6"/>
   <path d="m236.55,199.46c0,0 -1.74,2.53 -1.74,2.53c0,0 -0.21,-2.92 -0.21,-2.92c0.93,0.46 1.35,0.86 1.25,1.39c-0.02,0.12 -0.11,0.44 -0.26,0.95" fill="none" id="svg_203" stroke="rgb(49, 49, 49)" stroke-linejoin="round" stroke-opacity="1" stroke-width="6"/>
   <path d="m267.98,205.09c-4.92,0.32 -14.23,-1.69 -15.06,-1.9c-0.32,-0.09 -0.64,-0.19 -0.95,-0.32" fill="none" id="svg_204" stroke="rgb(49, 49, 49)" stroke-linejoin="round" stroke-opacity="1" stroke-width="6"/>
   <path d="m239.38,203.83c-2.89,0.93 -8.83,2.82 -11.87,3.78c-2.08,0.63 -6.34,1.58 -7.46,1.82c-0.24,0.05 -0.47,0.11 -0.71,0.17" fill="none" id="svg_205" stroke="rgb(49, 49, 49)" stroke-linejoin="round" stroke-opacity="1" stroke-width="6"/>
  </g>
  <g id="Layer_3_Copy" stroke-linecap="round"/>
 </g>
</svg>