<?xml version="1.0" encoding="UTF-8" standalone="no"?>
<!DOCTYPE svg PUBLIC "-//W3C//DTD SVG 1.1//EN" "http://www.w3.org/Graphics/SVG/1.1/DTD/svg11.dtd">
<svg width="21.36" height="19.20" viewBox="0.00 0.00 89.00 80.00" xmlns="http://www.w3.org/2000/svg" xmlns:xlink="http://www.w3.org/1999/xlink">
<g stroke-linecap="round" transform="translate(-1883.00, -448.00)" id="Layer_23">
<path d="M1906.74,493.83 C1905.03,493.85 1903.14,492.17 1902.95,490.61 C1902.81,489.01 1904.64,485.83 1906.32,484.40 C1908.26,482.79 1909.93,482.57 1910.90,482.70 C1912.08,483.66 1912.38,487.32 1911.73,488.77 C1910.95,490.42 1908.75,493.03 1907.67,493.51 C1906.52,493.98 1904.82,493.14 1904.64,491.76 C1904.49,490.32 1905.83,486.69 1906.99,485.24 C1908.08,483.92 1910.09,483.18 1911.22,483.70 C1912.08,484.84 1910.80,489.17 1909.35,490.88 C1908.03,492.39 1906.20,493.96 1905.33,494.26 C1904.50,494.51 1903.20,494.40 1902.57,494.00 C1901.17,493.03 1899.21,487.88 1899.58,485.01 C1899.95,482.53 1902.81,476.87 1904.32,475.00 C1905.23,473.89 1907.00,473.07 1907.73,473.43 C1908.20,474.27 1907.98,476.58 1907.33,477.78 C1906.72,478.85 1904.68,480.41 1903.48,480.68 C1902.13,480.95 1901.20,480.59 1900.81,480.27 C1900.53,479.32 1901.93,476.64 1904.40,475.33 C1905.15,474.94 1906.41,474.59 1906.58,474.60 C1906.58,474.60 1903.75,476.79 1903.75,476.79 C1903.34,475.99 1904.47,473.85 1906.05,473.33 C1907.16,472.98 1909.55,472.86 1910.01,472.91 C1910.01,472.91 1910.79,471.84 1910.79,471.84 C1910.79,471.84 1910.22,470.65 1910.22,470.65 C1909.48,470.89 1907.21,470.57 1906.25,471.01 C1904.34,471.97 1901.46,473.45 1901.22,474.40 C1901.02,475.22 1900.68,477.28 1900.63,477.24 C1900.63,477.24 1902.03,473.43 1902.03,473.43 C1901.32,473.15 1898.88,475.55 1897.41,477.82 C1895.89,480.26 1894.06,485.16 1894.13,487.52 C1894.19,488.62 1895.19,492.21 1895.77,493.25 C1896.26,494.10 1897.75,494.97 1898.21,495.02 C1898.30,495.02 1898.53,495.01 1898.90,494.99" fill="none" stroke="rgb(174, 65, 57)" stroke-width="16.00" stroke-opacity="1.00" stroke-linejoin="round"/>
<path d="M1899.21,479.03 C1898.06,480.01 1896.59,482.09 1896.01,484.91 C1895.52,487.45 1895.78,490.47 1896.48,494.66 C1897.31,498.98 1898.62,503.81 1900.06,505.25 C1900.87,506.02 1902.59,506.43 1903.23,506.22 C1903.23,506.22 1903.66,505.06 1903.66,505.06" fill="none" stroke="rgb(174, 65, 57)" stroke-width="16.00" stroke-opacity="1.00" stroke-linejoin="round"/>
<path d="M1916.00,477.35 C1917.21,478.88 1921.39,481.33 1923.69,482.24 C1925.90,483.10 1929.87,483.88 1932.58,483.82 C1936.95,483.68 1938.45,483.55 1940.06,483.34 C1940.06,483.34 1939.29,483.11 1939.29,483.11" fill="none" stroke="rgb(174, 65, 57)" stroke-width="16.00" stroke-opacity="1.00" stroke-linejoin="round"/>
<path d="M1928.31,479.51 C1928.64,478.35 1932.06,475.57 1936.02,472.46 C1939.46,469.76 1942.92,468.01 1944.80,468.11 C1945.62,468.18 1947.65,469.11 1948.39,469.46 C1948.66,469.59 1948.89,469.68 1949.10,469.73" fill="none" stroke="rgb(174, 65, 57)" stroke-width="16.00" stroke-opacity="1.00" stroke-linejoin="round"/>
<path d="M1946.61,467.87 C1946.61,467.87 1947.79,467.87 1947.79,467.87 C1949.44,469.28 1952.38,473.43 1953.37,475.05 C1953.75,475.68 1954.86,480.45 1954.44,483.77 C1954.04,486.60 1953.27,489.73 1951.68,495.15" fill="none" stroke="rgb(174, 65, 57)" stroke-width="16.00" stroke-opacity="1.00" stroke-linejoin="round"/>
<path d="M1954.10,476.90 C1954.79,478.41 1955.18,482.67 1955.35,483.87 C1955.74,486.73 1955.57,488.63 1954.70,493.17 C1953.95,496.77 1953.08,500.36 1952.76,500.43 C1952.76,500.43 1953.02,499.33 1953.02,499.33" fill="none" stroke="rgb(174, 65, 57)" stroke-width="16.00" stroke-opacity="1.00" stroke-linejoin="round"/>
<path d="M1955.33,473.60 C1955.33,473.60 1956.33,473.64 1956.33,473.64 C1957.33,474.91 1957.70,480.41 1957.53,482.72 C1957.11,486.42 1956.60,493.20 1955.70,496.39 C1953.30,504.64 1945.94,513.62 1945.36,514.36 C1945.36,514.36 1949.52,510.60 1949.52,510.60 C1947.08,513.91 1941.10,516.41 1937.37,517.21 C1937.37,517.21 1943.55,514.33 1943.55,514.33 C1940.65,517.05 1932.02,517.83 1930.68,517.59 C1931.36,514.44 1938.91,514.68 1939.07,514.79 C1937.25,516.37 1933.42,517.24 1930.54,517.39 C1927.78,517.51 1923.73,516.32 1921.38,514.35 C1920.40,513.50 1919.90,511.59 1920.70,510.95 C1921.60,510.32 1926.66,510.10 1928.47,510.72 C1929.46,511.07 1931.13,512.83 1931.17,513.79 C1931.18,514.70 1929.62,516.38 1928.54,516.67 C1927.06,517.03 1922.18,516.48 1919.75,515.23 C1917.45,513.99 1914.48,511.27 1914.25,510.26 C1915.00,509.44 1915.92,509.02 1917.58,508.97 C1920.96,508.87 1925.36,510.28 1926.34,511.04 C1927.30,511.84 1927.85,513.96 1927.04,514.94 C1926.33,515.74 1922.49,516.93 1919.36,516.23 C1916.03,515.45 1914.00,512.52 1913.94,511.65 C1914.62,510.84 1917.27,510.10 1919.92,510.61 C1921.58,510.97 1924.18,514.12 1924.35,515.55 C1924.39,516.14 1924.20,516.73 1923.82,517.27 C1923.21,517.94 1917.36,517.17 1914.69,515.81 C1913.90,515.38 1913.67,513.62 1914.31,512.80 C1915.17,511.79 1917.85,510.98 1919.99,511.28 C1923.49,511.82 1923.67,514.11 1923.59,514.57 C1923.05,515.21 1920.55,515.56 1917.64,515.18 C1915.10,514.83 1909.58,513.07 1908.03,512.11 C1905.46,510.46 1904.05,507.68 1904.33,506.54 C1904.76,505.15 1909.09,501.99 1911.81,501.52 C1914.24,501.13 1918.14,503.00 1918.76,504.13 C1919.49,505.65 1918.72,508.63 1916.73,510.00 C1915.47,510.83 1912.51,511.82 1911.21,511.82 C1909.40,511.78 1905.97,509.66 1905.29,508.26 C1904.75,507.03 1904.45,504.49 1904.76,503.11 C1905.31,500.90 1909.38,495.55 1912.71,493.12 C1914.54,491.83 1919.89,489.44 1923.31,489.45 C1924.75,489.48 1927.55,490.86 1928.39,491.95 C1929.17,493.01 1929.62,495.66 1929.34,497.21 C1928.96,498.96 1925.29,503.99 1922.52,505.49 C1921.32,506.11 1919.04,506.56 1918.04,506.47 C1916.91,506.33 1915.65,504.39 1915.58,503.06 C1915.56,501.14 1917.25,496.82 1920.22,493.56 C1921.66,492.01 1925.53,488.96 1927.22,487.98 C1929.19,486.86 1933.03,485.92 1934.79,486.06 C1936.44,486.22 1939.02,487.69 1939.86,488.93 C1940.71,490.25 1941.35,493.65 1941.15,495.65 C1940.94,497.58 1939.32,501.30 1938.19,502.76 C1937.08,504.14 1934.22,506.07 1932.86,506.42 C1931.47,506.75 1929.14,506.10 1928.48,505.08 C1927.88,504.08 1927.66,500.76 1928.02,498.89 C1928.45,496.80 1930.24,492.74 1931.25,491.40 C1933.21,488.84 1939.60,484.01 1942.09,482.92 C1944.89,481.73 1947.97,482.38 1948.76,483.36 C1949.44,484.34 1949.32,490.04 1948.27,492.69 C1947.50,494.55 1944.80,498.69 1943.31,500.36 C1941.06,502.79 1938.41,504.07 1937.09,504.18 C1936.13,503.74 1935.26,500.51 1935.33,498.06 C1935.41,495.75 1935.96,492.17 1936.61,489.36 C1937.35,486.36 1940.26,481.38 1942.62,480.09 C1943.55,479.60 1944.59,479.53 1945.37,479.73 C1946.82,481.28 1948.01,484.53 1948.14,486.75 C1948.25,489.21 1947.36,493.28 1946.25,495.82 C1943.09,502.69 1938.56,504.06 1937.94,504.03" fill="none" stroke="rgb(174, 65, 57)" stroke-width="16.00" stroke-opacity="1.00" stroke-linejoin="round"/>
<path d="M1899.96,502.62 C1898.28,503.14 1896.45,502.45 1895.76,501.18 C1895.47,500.59 1895.05,498.92 1895.04,498.09 C1895.02,496.61 1895.19,495.11 1895.35,494.90" fill="none" stroke="rgb(174, 65, 57)" stroke-width="16.00" stroke-opacity="1.00" stroke-linejoin="round"/>
<path d="M1898.76,502.11 C1897.41,501.57 1895.10,499.24 1895.03,497.95 C1894.99,494.94 1898.14,493.85 1899.02,493.76 C1900.42,494.60 1903.30,501.21 1904.14,502.52 C1904.32,502.79 1904.52,503.06 1904.76,503.33 C1904.87,503.45 1904.98,503.58 1905.09,503.71" fill="none" stroke="rgb(174, 65, 57)" stroke-width="16.00" stroke-opacity="1.00" stroke-linejoin="round"/>
<path d="M1931.88,491.36 C1931.88,491.36 1932.13,491.36 1932.13,491.36 C1932.13,491.36 1929.63,492.86 1929.63,492.86 C1929.63,492.86 1927.12,493.86 1927.12,493.86 C1930.01,493.87 1939.90,493.88 1940.40,493.86 C1941.76,493.83 1943.33,494.44 1943.65,494.37 C1943.90,494.81 1942.31,494.78 1941.65,494.87 C1941.13,494.93 1937.89,495.36 1932.09,495.36 C1928.28,495.36 1923.30,495.37 1922.11,495.37 C1923.60,493.77 1925.87,493.86 1928.13,493.86 C1928.13,493.86 1933.13,493.36 1933.13,493.36 C1933.13,493.36 1935.64,492.86 1935.64,492.86 C1935.64,492.86 1934.14,492.86 1934.14,492.86 C1934.14,492.86 1933.89,493.36 1933.89,493.36" fill="none" stroke="rgb(211, 65, 54)" stroke-width="16.00" stroke-opacity="1.00" stroke-linejoin="round"/>
<path d="M1920.10,491.09 C1920.10,491.09 1917.10,495.66 1917.10,495.66 C1917.20,494.42 1920.97,489.40 1923.23,487.48 C1924.88,486.11 1926.45,485.84 1926.76,486.25 C1927.10,486.81 1927.04,488.94 1926.46,490.51 C1925.78,492.24 1923.51,494.99 1922.35,495.57 C1921.12,496.13 1918.82,496.03 1917.40,495.07 C1916.02,494.10 1914.59,491.97 1914.53,490.71 C1914.51,489.55 1916.07,487.27 1917.37,486.40 C1919.12,485.28 1920.55,485.46 1921.27,485.85 C1922.00,486.99 1921.81,489.18 1921.07,489.84 C1920.25,490.51 1918.03,490.35 1916.63,489.29 C1915.91,488.72 1911.27,483.12 1910.92,482.45 C1909.85,480.07 1916.06,479.70 1916.43,480.11 C1916.43,480.11 1916.41,481.11 1916.41,481.11 C1916.41,481.11 1911.03,474.46 1911.03,474.46 C1911.03,474.46 1911.68,472.92 1911.68,472.92 C1911.68,472.92 1912.56,475.50 1912.56,475.50 C1913.68,475.16 1910.74,471.49 1910.84,471.44 C1910.84,471.44 1909.93,469.39 1909.93,469.39 C1909.93,469.39 1902.24,474.57 1902.24,474.57 C1903.71,474.53 1905.11,471.35 1905.36,469.91 C1901.25,472.19 1899.98,476.93 1900.21,477.24 C1900.21,477.24 1903.04,473.06 1903.04,473.06 C1901.91,473.60 1899.77,476.49 1898.87,478.92 C1897.79,481.89 1897.20,488.04 1897.69,489.75 C1898.10,491.13 1898.88,492.00 1899.61,492.17" fill="none" stroke="rgb(211, 65, 54)" stroke-width="16.00" stroke-opacity="1.00" stroke-linejoin="round"/>
<path d="M1900.25,478.32 C1898.78,478.84 1898.05,479.24 1897.61,479.96 C1896.26,482.26 1895.19,487.90 1895.75,491.70 C1896.30,495.13 1898.31,500.51 1899.22,501.74 C1899.96,502.68 1901.05,502.87 1901.66,502.79" fill="none" stroke="rgb(211, 65, 54)" stroke-width="16.00" stroke-opacity="1.00" stroke-linejoin="round"/>
<path d="M1898.26,486.77 C1897.30,487.24 1896.75,487.73 1896.49,488.58 C1895.87,490.73 1895.94,496.41 1896.70,498.87 C1898.04,502.95 1903.76,508.42 1904.29,508.37 C1904.75,507.39 1904.53,506.27 1903.35,504.78 C1902.95,504.27 1900.76,501.79 1899.97,500.90 C1899.97,500.90 1907.75,510.15 1907.75,510.15 C1907.69,509.12 1905.02,502.20 1904.49,500.24 C1903.54,496.63 1903.79,491.14 1904.73,489.30 C1905.39,488.14 1907.38,487.22 1908.26,487.44 C1909.34,487.75 1911.57,489.65 1912.87,491.46 C1914.17,493.31 1916.26,497.74 1916.84,500.58 C1917.13,502.08 1916.99,504.46 1916.67,505.50 C1916.43,506.16 1915.58,507.10 1914.93,507.35 C1913.80,507.74 1911.63,507.59 1910.39,506.98 C1908.50,506.01 1904.98,501.34 1904.61,499.02 C1904.32,496.90 1905.44,493.94 1906.49,493.02 C1907.10,492.52 1909.19,492.13 1910.39,492.54 C1911.49,492.95 1914.44,495.51 1915.74,498.19 C1916.96,500.78 1916.99,506.30 1916.26,508.28 C1915.72,509.62 1913.53,510.83 1911.40,510.35 C1909.38,509.84 1907.34,506.52 1907.07,504.81 C1906.95,503.86 1907.95,501.69 1909.28,501.55 C1910.40,501.47 1912.77,502.18 1913.91,503.00 C1915.97,504.56 1917.35,509.28 1916.95,511.50 C1916.61,513.13 1915.12,514.92 1914.04,514.91 C1912.85,514.84 1909.23,511.39 1908.80,510.27 C1909.40,510.00 1913.54,512.26 1915.61,513.80 C1918.25,515.79 1919.39,518.45 1919.40,518.46 C1919.19,516.72 1918.92,514.47 1918.86,513.82 C1918.84,513.63 1918.82,513.44 1918.81,513.25" fill="none" stroke="rgb(211, 65, 54)" stroke-width="16.00" stroke-opacity="1.00" stroke-linejoin="round"/>
<path d="M1929.44,484.06 C1929.44,484.06 1928.74,482.93 1928.74,482.93 C1929.25,481.52 1932.12,477.07 1933.86,475.34 C1935.41,473.82 1938.68,471.98 1940.66,471.84 C1941.66,471.79 1942.93,473.16 1943.09,473.24 C1943.09,473.24 1945.31,472.61 1945.31,472.61 C1945.31,472.61 1946.09,471.66 1946.09,471.66 C1946.09,471.66 1943.28,471.93 1943.28,471.93 C1942.78,470.98 1942.66,470.58 1942.99,470.34 C1944.19,469.52 1946.65,469.12 1947.62,469.48 C1948.38,469.80 1950.60,472.83 1950.92,472.94 C1951.04,472.97 1952.77,473.42 1953.64,474.77 C1955.10,477.12 1956.08,480.86 1955.41,481.76 C1955.41,481.76 1954.72,479.52 1954.72,479.52 C1955.59,482.31 1954.15,491.03 1952.46,494.24 C1952.91,490.84 1956.30,485.72 1956.38,485.66 C1955.17,489.15 1951.05,502.29 1949.20,505.38 C1947.42,508.29 1946.94,508.30 1946.81,508.32 C1946.66,506.72 1952.68,496.77 1954.48,495.77 C1954.05,497.89 1947.71,509.22 1944.91,511.47 C1944.66,511.68 1944.22,511.96 1943.59,512.31 C1942.69,511.19 1945.45,508.29 1946.00,507.86 C1946.41,508.57 1946.26,509.49 1945.31,510.76 C1943.34,513.37 1939.55,515.61 1938.61,515.39 C1939.03,510.69 1945.50,510.56 1945.76,510.78 C1946.05,511.44 1945.49,512.81 1944.53,513.71 C1943.47,514.66 1939.82,516.36 1937.51,516.96 C1936.13,517.31 1933.80,516.91 1932.42,516.08 C1931.04,515.22 1930.16,513.57 1930.68,512.55 C1931.53,511.09 1935.81,508.91 1938.30,508.70 C1939.54,508.62 1940.23,509.12 1940.64,509.59 C1940.78,510.54 1939.28,512.84 1937.65,514.00 C1935.51,515.48 1931.35,516.79 1930.07,516.66 C1929.01,516.49 1926.75,514.03 1926.65,512.46 C1926.61,510.71 1929.84,506.06 1932.58,504.34 C1933.81,503.61 1936.76,503.00 1938.06,503.19 C1939.23,503.38 1940.57,504.44 1940.77,505.32 C1941.03,506.67 1940.90,508.82 1940.39,510.13 C1939.46,512.38 1936.16,515.34 1933.32,516.71 C1930.08,518.23 1926.70,518.69 1926.33,518.46 C1924.93,517.14 1923.85,511.93 1924.84,508.73 C1925.81,505.77 1929.71,500.75 1932.28,499.55 C1935.06,498.33 1940.72,498.87 1943.58,500.32 C1945.47,501.32 1946.36,502.35 1946.23,503.37 C1945.03,504.66 1939.60,506.02 1937.30,505.50 C1936.18,505.21 1934.39,503.99 1933.78,503.06 C1932.38,500.78 1932.69,494.95 1933.63,492.17 C1934.44,489.94 1936.08,486.82 1937.39,484.95 C1938.73,483.09 1942.54,479.59 1944.26,478.81 C1945.79,478.17 1948.44,478.19 1949.50,478.95 C1950.55,479.76 1951.77,482.69 1951.91,484.72 C1952.03,486.88 1951.31,490.72 1950.37,492.98 C1949.30,495.41 1946.21,498.24 1944.35,498.25 C1943.41,497.80 1942.85,494.20 1943.27,492.76 C1944.15,489.92 1946.87,487.09 1947.79,486.36 C1948.07,486.14 1948.66,485.71 1949.56,485.08" fill="none" stroke="rgb(211, 65, 54)" stroke-width="16.00" stroke-opacity="1.00" stroke-linejoin="round"/>
</g>
<g stroke-linecap="round" transform="translate(-1883.00, -448.00)" id="Layer_25">
<path d="M1890.59,456.50 C1891.34,457.23 1896.68,457.05 1898.36,457.22 C1900.00,457.39 1904.92,457.52 1909.32,458.86 C1909.54,458.93 1910.31,459.10 1910.38,459.16 C1910.38,459.16 1900.13,456.61 1900.13,456.61 C1902.13,456.42 1915.17,457.23 1916.19,457.54 C1916.43,457.62 1916.69,457.78 1916.96,458.03 C1916.96,458.03 1906.55,456.39 1906.55,456.39 C1906.55,456.39 1914.95,457.66 1914.95,457.66" fill="none" stroke="rgb(88, 129, 76)" stroke-width="6.00" stroke-opacity="1.00" stroke-linejoin="round"/>
<path d="M1911.77,459.68 C1911.77,459.68 1911.05,459.33 1911.05,459.33 C1911.45,459.39 1916.68,463.49 1917.41,463.95 C1919.41,465.20 1921.68,466.25 1921.82,466.33 C1921.03,466.54 1915.57,464.07 1914.48,462.25 C1914.39,462.11 1914.27,461.84 1914.11,461.46 C1914.93,461.34 1917.47,462.48 1919.40,464.34 C1920.74,465.65 1922.67,469.81 1922.72,470.02 C1922.78,470.28 1923.61,470.73 1923.63,470.79 C1923.63,470.79 1919.28,466.38 1919.28,466.38 C1920.63,466.31 1922.54,470.91 1922.51,471.01 C1922.51,471.01 1918.98,466.18 1918.98,466.18 C1918.98,466.18 1924.04,471.18 1924.04,471.18 C1923.89,470.39 1923.79,469.89 1923.75,469.69 C1923.71,469.49 1923.67,469.31 1923.62,469.15" fill="none" stroke="rgb(88, 129, 76)" stroke-width="6.00" stroke-opacity="1.00" stroke-linejoin="round"/>
<path d="M1926.29,470.56 C1926.49,469.13 1929.27,465.81 1931.26,464.26 C1932.99,462.95 1938.46,460.05 1939.12,459.62 C1939.12,459.62 1929.44,467.18 1929.44,467.18 C1931.12,464.23 1937.78,461.11 1942.21,459.83 C1942.37,459.78 1942.48,459.74 1942.56,459.71" fill="none" stroke="rgb(88, 129, 76)" stroke-width="6.00" stroke-opacity="1.00" stroke-linejoin="round"/>
<path d="M1936.89,462.02 C1937.69,462.43 1941.75,460.77 1942.51,460.50 C1944.72,459.72 1949.55,458.74 1949.57,458.62 C1947.56,456.67 1940.20,460.01 1940.18,460.29 C1940.18,460.29 1954.58,457.54 1954.58,457.54 C1954.58,457.54 1954.30,457.18 1954.30,457.18" fill="none" stroke="rgb(88, 129, 76)" stroke-width="6.00" stroke-opacity="1.00" stroke-linejoin="round"/>
<path d="M1951.46,457.25 C1951.46,457.25 1959.98,457.30 1959.98,457.30 C1957.34,456.10 1948.74,456.47 1941.33,457.12 C1941.33,457.12 1952.31,456.33 1952.31,456.33 C1950.46,456.71 1939.55,457.36 1935.42,458.45 C1935.24,458.50 1935.06,458.56 1934.90,458.64 C1934.90,458.64 1945.11,457.20 1945.11,457.20 C1945.11,457.20 1927.65,460.28 1927.65,460.28 C1931.98,458.19 1935.28,458.58 1936.11,458.86 C1935.53,461.77 1925.44,459.39 1925.25,458.75 C1925.25,458.75 1931.56,459.63 1931.56,459.63 C1926.83,457.23 1925.62,454.70 1925.66,454.64 C1925.66,454.64 1928.36,455.43 1928.36,455.43 C1928.36,455.43 1925.72,455.56 1925.72,455.56 C1925.72,455.56 1925.38,453.97 1925.38,453.97 C1925.38,453.97 1926.26,453.44 1926.26,453.44 C1926.26,453.44 1920.52,457.25 1920.52,457.25 C1920.52,457.25 1923.10,454.36 1923.10,454.36 C1923.94,455.11 1918.95,459.13 1918.47,459.38 C1918.45,458.71 1920.62,455.89 1921.83,455.41 C1922.98,455.00 1924.29,456.21 1924.27,457.52 C1924.23,458.62 1923.00,461.28 1922.22,462.13 C1921.40,462.98 1919.84,463.70 1919.05,463.46 C1918.39,462.71 1918.24,459.57 1918.71,458.50 C1919.50,456.77 1921.30,456.04 1922.27,456.51 C1923.38,457.09 1925.48,459.68 1925.86,460.90 C1926.20,462.07 1925.93,464.34 1925.24,465.12 C1924.58,465.83 1922.95,465.66 1922.33,464.71 C1921.61,463.55 1921.15,460.22 1921.40,459.46 C1921.81,458.36 1922.50,457.94 1923.01,457.84 C1924.06,458.16 1925.87,461.16 1926.09,463.22 C1926.25,464.82 1926.01,466.26 1925.60,466.84 C1924.76,466.79 1924.24,463.71 1924.28,461.95 C1924.40,458.27 1925.94,458.13 1926.46,458.21 C1927.42,459.15 1928.47,462.38 1928.26,463.85 C1928.17,464.39 1927.30,464.81 1926.23,464.13 C1925.10,463.38 1925.24,462.32 1925.79,461.88 C1926.51,461.33 1928.18,461.45 1928.83,462.18 C1929.47,462.93 1929.30,464.63 1928.56,465.43 C1927.76,466.25 1926.27,466.12 1926.09,465.84 C1925.66,464.30 1928.65,461.02 1929.75,460.92 C1930.14,462.88 1927.10,465.08 1926.43,465.25 C1925.76,463.68 1930.15,460.92 1931.58,460.12 C1931.92,459.93 1932.26,459.74 1932.59,459.56" fill="none" stroke="rgb(88, 129, 76)" stroke-width="6.00" stroke-opacity="1.00" stroke-linejoin="round"/>
<path d="M1891.36,455.91 C1891.36,455.91 1902.61,456.59 1902.61,456.59 C1902.61,456.59 1903.75,456.82 1903.75,456.82 C1903.75,456.82 1904.55,457.05 1904.55,457.05" fill="none" stroke="rgb(88, 129, 76)" stroke-width="6.00" stroke-opacity="1.00" stroke-linejoin="round"/>
</g>
<g stroke-linecap="round" transform="translate(-1883.00, -448.00)" id="Layer_21">
<path d="M1917.62,457.53 C1919.07,453.71 1920.85,451.11 1923.73,450.33 C1925.05,450.01 1927.06,450.49 1928.03,451.32 C1929.52,452.67 1931.14,455.50 1932.12,457.60 C1932.12,457.60 1933.18,455.13 1933.18,455.13" fill="none" stroke="rgb(0, 0, 0)" stroke-width="6.00" stroke-opacity="1.00" stroke-linejoin="round"/>
<path d="M1918.63,454.91 C1918.30,454.83 1896.38,453.09 1893.99,453.16 C1891.88,453.27 1886.43,456.33 1885.68,457.97 C1886.28,458.17 1893.87,458.05 1897.00,458.64 C1898.93,459.01 1907.96,461.20 1909.62,462.10 C1910.58,462.62 1912.27,463.99 1913.28,464.92" fill="none" stroke="rgb(0, 0, 0)" stroke-width="6.00" stroke-opacity="1.00" stroke-linejoin="round"/>
<path d="M1933.67,455.55 C1936.48,455.15 1943.17,454.22 1947.04,453.70 C1951.46,453.14 1955.24,453.31 1958.45,454.28 C1959.77,454.70 1961.27,455.34 1962.63,456.03 C1963.67,456.55 1967.15,456.45 1968.19,456.70 C1957.11,459.28 1949.63,461.53 1947.52,462.34 C1946.14,462.87 1944.37,463.67 1943.45,464.13" fill="none" stroke="rgb(0, 0, 0)" stroke-width="6.00" stroke-opacity="1.00" stroke-linejoin="round"/>
<path d="M1914.02,464.22 C1917.28,468.83 1920.10,472.48 1922.58,473.94 C1923.86,474.66 1925.71,474.88 1926.20,474.32 C1926.48,473.96 1927.68,471.16 1928.11,470.49 C1929.74,467.99 1934.93,465.15 1937.17,465.28 C1937.58,465.30 1938.49,465.43 1939.92,465.65" fill="none" stroke="rgb(0, 0, 0)" stroke-width="6.00" stroke-opacity="1.00" stroke-linejoin="round"/>
<path d="M1915.12,464.22 C1914.13,463.90 1911.45,463.05 1910.46,462.76 C1909.45,462.46 1906.25,461.58 1906.16,461.55 C1905.99,461.49 1905.83,461.43 1905.69,461.35" fill="none" stroke="rgb(0, 0, 0)" stroke-width="6.00" stroke-opacity="1.00" stroke-linejoin="round"/>
<path d="M1933.80,465.75 C1937.50,464.95 1942.21,462.68 1944.36,462.30 C1945.05,462.18 1945.64,462.12 1946.12,462.11 C1946.38,462.10 1946.90,462.13 1947.67,462.18" fill="none" stroke="rgb(0, 0, 0)" stroke-width="6.00" stroke-opacity="1.00" stroke-linejoin="round"/>
<path d="M1909.01,460.88 C1905.32,461.84 1902.21,463.10 1898.32,465.40 C1895.80,466.94 1892.85,470.80 1890.92,474.32 C1889.06,477.79 1887.11,483.45 1886.38,488.06 C1885.79,491.98 1885.86,495.66 1886.74,498.69 C1887.62,501.56 1890.44,506.78 1892.23,509.13 C1893.95,511.35 1897.88,515.15 1900.04,516.78 C1902.18,518.36 1906.94,521.04 1909.90,522.24 C1913.30,523.58 1917.61,524.52 1921.50,524.80 C1926.29,525.12 1932.22,524.97 1936.43,524.41 C1939.86,523.92 1943.29,522.49 1946.11,520.49 C1948.52,518.75 1952.52,514.71 1954.44,512.06 C1956.63,509.00 1958.73,505.15 1960.02,501.65 C1961.54,497.44 1963.23,492.05 1963.80,489.46 C1964.24,487.34 1964.43,478.85 1963.72,476.17 C1962.93,473.33 1959.46,468.56 1955.68,465.12 C1954.76,464.29 1952.60,462.39 1951.92,462.30 C1951.50,462.26 1950.52,462.39 1948.98,462.70" fill="none" stroke="rgb(0, 0, 0)" stroke-width="6.00" stroke-opacity="1.00" stroke-linejoin="round"/>
</g>
</svg>
