<?xml version="1.0" encoding="UTF-8" standalone="no"?>
<!DOCTYPE svg PUBLIC "-//W3C//DTD SVG 1.1//EN" "http://www.w3.org/Graphics/SVG/1.1/DTD/svg11.dtd">
<svg width="21.12" height="18.24" viewBox="0.00 0.00 88.00 76.00" xmlns="http://www.w3.org/2000/svg" xmlns:xlink="http://www.w3.org/1999/xlink">
<g stroke-linecap="round" transform="translate(-1744.00, -442.00)" id="Layer_22">
<path d="M1759.50,485.58 C1760.71,485.33 1765.74,483.95 1766.99,484.62 C1767.12,484.69 1767.30,484.84 1767.51,485.06 C1764.91,486.46 1762.93,486.03 1762.00,485.50 C1762.00,485.50 1761.78,484.40 1761.78,484.40 C1761.93,484.00 1762.75,483.35 1763.65,483.16 C1764.27,483.02 1772.88,482.09 1772.85,482.09 C1772.85,482.09 1765.82,480.71 1765.82,480.71 C1765.75,480.75 1772.20,479.27 1773.23,479.07 C1775.59,478.62 1779.13,478.53 1779.85,478.52 C1780.09,478.52 1780.32,478.51 1780.54,478.49" fill="none" stroke="rgb(217, 76, 66)" stroke-width="16.00" stroke-opacity="1.00" stroke-linejoin="round"/>
<path d="M1778.84,478.32 C1779.94,478.23 1784.46,476.95 1786.85,476.44 C1791.93,475.41 1794.11,477.34 1794.24,477.51" fill="none" stroke="rgb(217, 76, 66)" stroke-width="16.00" stroke-opacity="1.00" stroke-linejoin="round"/>
<path d="M1796.82,480.02 C1798.00,480.42 1811.20,480.44 1813.80,479.24 C1814.26,479.02 1814.80,478.55 1814.98,478.32" fill="none" stroke="rgb(217, 76, 66)" stroke-width="16.00" stroke-opacity="1.00" stroke-linejoin="round"/>
<path d="M1806.89,480.53 C1806.89,480.53 1818.51,480.75 1818.51,480.75 C1819.17,479.78 1820.70,479.39 1820.97,478.92 C1821.17,478.56 1821.89,475.91 1821.62,475.08 C1821.21,473.87 1819.80,468.63 1818.36,466.34 C1816.79,464.01 1814.64,460.29 1814.16,459.86 C1813.76,459.52 1811.03,458.19 1809.87,456.60 C1809.23,455.72 1806.62,455.12 1806.08,454.50 C1805.20,453.43 1802.67,452.40 1800.70,451.61 C1797.96,450.47 1791.41,449.69 1790.32,449.71 C1787.11,449.81 1782.54,450.57 1780.89,451.19 C1775.71,453.15 1769.84,457.15 1769.33,458.38" fill="none" stroke="rgb(217, 76, 66)" stroke-width="16.00" stroke-opacity="1.00" stroke-linejoin="round"/>
<path d="M1774.46,452.36 C1772.96,452.29 1769.84,454.49 1768.28,456.28 C1764.26,460.96 1761.03,469.50 1761.16,471.33 C1761.20,471.86 1761.50,472.41 1761.68,472.64" fill="none" stroke="rgb(217, 76, 66)" stroke-width="16.00" stroke-opacity="1.00" stroke-linejoin="round"/>
<path d="M1770.42,458.60 C1768.99,458.98 1765.83,462.62 1764.05,465.43 C1760.99,470.42 1761.18,477.73 1761.64,478.08" fill="none" stroke="rgb(217, 76, 66)" stroke-width="16.00" stroke-opacity="1.00" stroke-linejoin="round"/>
<path d="M1765.42,463.90 C1765.42,463.90 1765.42,462.91 1765.42,462.91 C1764.31,464.10 1761.79,469.20 1761.27,471.94 C1761.09,473.00 1760.92,476.49 1761.00,477.59 C1761.19,479.73 1761.68,481.35 1762.24,482.04" fill="none" stroke="rgb(217, 76, 66)" stroke-width="16.00" stroke-opacity="1.00" stroke-linejoin="round"/>
<path d="M1763.57,463.22 C1762.41,463.54 1760.31,466.04 1759.60,467.38 C1757.74,470.94 1756.29,477.09 1756.63,480.29 C1756.79,481.62 1757.67,484.56 1758.20,485.62 C1758.92,487.03 1759.97,488.38 1760.82,489.15" fill="none" stroke="rgb(217, 76, 66)" stroke-width="16.00" stroke-opacity="1.00" stroke-linejoin="round"/>
<path d="M1761.23,467.05 C1759.82,468.45 1757.44,472.84 1756.95,475.86 C1756.51,478.84 1757.74,484.90 1759.10,487.96 C1760.62,491.25 1763.85,495.30 1767.31,498.72 C1769.84,501.26 1770.53,501.66 1770.69,501.60 C1771.19,501.41 1770.00,497.82 1768.22,495.95 C1763.29,490.87 1759.22,487.49 1758.84,487.67 C1758.09,488.71 1766.82,499.03 1772.33,503.81 C1773.55,504.86 1774.64,505.42 1775.51,505.61 C1775.51,505.61 1775.81,504.30 1775.81,504.30 C1775.81,504.30 1768.26,499.58 1768.26,499.58 C1768.70,500.80 1770.76,503.03 1772.84,503.88 C1777.34,505.67 1781.86,506.12 1782.07,506.05 C1782.07,506.05 1781.52,504.84 1781.52,504.84" fill="none" stroke="rgb(217, 76, 66)" stroke-width="16.00" stroke-opacity="1.00" stroke-linejoin="round"/>
<path d="M1779.00,507.24 C1779.86,508.07 1780.47,508.35 1781.51,508.26 C1783.10,508.10 1788.35,506.92 1789.19,506.74 C1789.59,506.66 1790.13,506.56 1790.80,506.44" fill="none" stroke="rgb(217, 76, 66)" stroke-width="16.00" stroke-opacity="1.00" stroke-linejoin="round"/>
<path d="M1792.32,507.85 C1792.16,508.95 1792.23,509.28 1793.10,508.90 C1803.76,504.24 1805.75,502.91 1806.10,501.94 C1806.10,501.94 1804.88,501.23 1804.88,501.23 C1804.88,501.23 1804.21,503.64 1804.21,503.64 C1804.21,503.64 1814.43,491.27 1814.43,491.27 C1814.43,491.27 1808.17,502.59 1808.17,502.59 C1808.17,502.59 1819.37,483.55 1819.37,483.55 C1819.37,483.55 1813.45,493.32 1813.45,493.32 C1813.45,493.32 1818.74,483.46 1818.74,483.46 C1818.66,483.30 1812.91,488.89 1810.20,490.83 C1807.16,492.97 1800.51,495.77 1797.22,496.21 C1795.91,496.36 1793.35,496.36 1792.70,496.21 C1792.16,496.04 1791.42,494.98 1791.29,494.12 C1791.11,492.59 1791.61,489.64 1792.40,487.99 C1793.78,485.26 1799.45,480.05 1802.14,479.37 C1804.39,478.85 1806.08,480.00 1806.24,480.85 C1806.42,482.05 1805.55,485.06 1804.51,486.40 C1801.22,490.56 1793.12,496.66 1788.87,498.74 C1786.28,499.96 1782.30,500.70 1781.80,500.11 C1781.32,499.36 1780.98,496.18 1781.32,494.36 C1781.66,492.64 1783.30,488.72 1784.59,486.70 C1785.97,484.61 1789.84,480.04 1792.02,478.81 C1793.23,478.14 1794.77,477.85 1795.84,477.91 C1797.09,478.56 1797.10,482.02 1796.00,484.06 C1794.90,485.94 1789.17,490.79 1785.80,491.64 C1783.10,492.27 1778.93,491.36 1778.20,490.25 C1777.75,489.47 1777.54,485.75 1778.06,483.67 C1779.17,479.41 1785.40,469.72 1788.30,467.12 C1791.69,464.13 1794.25,463.61 1795.19,463.69 C1795.64,464.18 1795.49,466.34 1794.57,468.41 C1793.56,470.63 1790.44,474.70 1788.42,476.76 C1786.65,478.55 1782.55,481.48 1781.00,482.14 C1777.44,483.62 1772.70,483.88 1771.53,483.09 C1770.63,481.60 1771.14,476.47 1772.19,473.65 C1773.02,471.53 1775.80,466.78 1777.37,464.71 C1779.08,462.51 1782.93,458.90 1784.46,458.06 C1786.53,456.95 1789.34,456.19 1791.11,456.26 C1792.38,456.34 1794.65,458.21 1795.19,459.69 C1795.71,461.23 1795.57,465.23 1794.78,467.44 C1793.98,469.62 1791.27,473.79 1789.50,475.61 C1787.72,477.40 1784.12,479.70 1781.97,480.44 C1779.46,481.25 1775.19,480.90 1774.61,479.88 C1774.14,478.87 1774.13,475.35 1774.81,473.45 C1775.54,471.52 1779.07,466.45 1781.05,464.30 C1783.20,462.02 1787.82,458.43 1790.22,457.19 C1792.69,455.96 1797.12,455.13 1799.21,455.46 C1801.27,455.84 1804.27,458.11 1805.31,460.01 C1806.26,461.84 1806.95,466.04 1806.85,468.26 C1806.69,470.56 1804.87,475.43 1802.99,477.63 C1801.78,479.02 1800.04,479.47 1799.59,479.10 C1798.96,478.52 1798.73,475.21 1799.31,473.30 C1799.92,471.40 1802.69,467.52 1804.12,466.27 C1805.95,464.72 1808.85,462.89 1810.18,462.56 C1811.16,462.33 1812.64,462.56 1813.10,462.90 C1814.01,463.73 1815.25,468.37 1815.25,471.13 C1815.15,476.95 1813.34,480.83 1812.84,480.99 C1811.46,478.42 1812.49,472.97 1812.86,472.60 C1813.06,472.42 1813.64,471.95 1814.63,471.19" fill="none" stroke="rgb(217, 76, 66)" stroke-width="16.00" stroke-opacity="1.00" stroke-linejoin="round"/>
</g>
<g stroke-linecap="round" transform="translate(-1744.00, -442.00)" id="Layer_24">
<path d="M1768.28,470.48 C1770.01,469.35 1770.67,468.95 1771.25,468.88 C1776.71,468.20 1780.41,466.98 1782.32,466.55 C1782.32,466.55 1768.01,468.13 1768.01,468.13 C1768.01,468.13 1776.56,467.96 1776.56,467.96 C1776.56,467.96 1765.75,468.32 1765.75,468.32 C1766.36,467.83 1766.71,467.62 1767.30,467.41 C1767.43,467.36 1767.64,467.28 1767.92,467.17" fill="none" stroke="rgb(78, 110, 69)" stroke-width="6.00" stroke-opacity="1.00" stroke-linejoin="round"/>
<path d="M1767.80,469.89 C1769.05,470.69 1772.83,469.65 1775.21,468.98 C1778.73,468.10 1780.70,468.17 1781.36,468.15 C1781.20,467.76 1781.01,467.52 1780.71,467.54 C1780.42,467.55 1776.24,468.55 1776.09,468.52 C1776.09,468.52 1785.98,465.80 1785.98,465.80 C1785.71,466.68 1782.74,467.48 1780.80,467.66 C1778.75,467.84 1776.33,467.11 1775.73,466.53 C1776.38,466.34 1783.11,465.00 1784.60,465.26 C1784.97,465.33 1786.56,465.92 1787.13,466.11 C1787.13,466.11 1787.26,465.59 1787.26,465.59" fill="none" stroke="rgb(78, 110, 69)" stroke-width="6.00" stroke-opacity="1.00" stroke-linejoin="round"/>
<path d="M1787.84,466.64 C1788.29,465.49 1792.75,464.35 1793.41,464.87 C1794.01,465.40 1794.25,466.59 1793.98,467.09 C1792.65,468.48 1790.05,466.65 1789.95,466.50 C1789.88,466.25 1792.03,465.05 1793.15,464.98 C1794.32,464.97 1795.80,466.46 1795.66,467.58 C1793.20,466.82 1792.40,464.92 1792.32,464.17 C1793.28,463.71 1795.58,464.75 1795.78,465.38 C1795.91,465.98 1795.19,466.69 1794.42,466.67 C1793.48,466.60 1791.32,464.73 1791.00,463.90 C1790.89,463.61 1790.74,463.15 1790.71,463.05" fill="none" stroke="rgb(78, 110, 69)" stroke-width="6.00" stroke-opacity="1.00" stroke-linejoin="round"/>
<path d="M1792.28,462.43 C1792.28,462.43 1782.72,455.97 1782.72,455.97 C1782.72,455.97 1789.48,460.12 1789.48,460.12 C1785.09,459.48 1781.13,455.21 1781.00,454.52 C1781.59,454.64 1783.43,456.65 1785.84,457.48 C1786.45,457.69 1792.65,459.70 1793.77,460.99 C1795.01,462.43 1795.67,463.37 1796.03,464.13 C1796.03,464.13 1791.01,459.26 1791.01,459.26 C1791.77,458.88 1792.98,459.05 1793.99,459.94 C1795.66,461.41 1796.37,464.54 1796.24,465.07 C1795.23,466.33 1789.45,462.93 1789.05,462.57 C1789.26,461.78 1793.15,461.84 1795.69,463.34 C1797.51,464.43 1799.25,466.09 1800.85,468.10 C1800.85,468.10 1796.63,469.02 1796.63,469.02 C1798.50,469.36 1803.71,469.60 1804.52,470.24 C1804.61,470.32 1804.77,470.49 1805.02,470.76 C1805.02,470.76 1799.04,469.57 1799.04,469.57 C1801.02,469.36 1807.17,469.40 1808.86,469.78 C1809.19,469.86 1815.64,471.50 1815.88,471.52 C1815.88,471.52 1799.41,465.04 1799.41,465.04 C1799.41,465.04 1808.96,466.72 1808.96,466.72 C1808.90,467.75 1807.67,468.29 1805.15,468.21 C1803.08,468.14 1800.17,466.79 1799.80,466.50 C1799.80,466.50 1811.38,469.79 1811.38,469.79 C1811.38,469.79 1803.64,469.08 1803.64,469.08 C1803.64,469.08 1809.79,469.50 1809.79,469.50 C1809.84,470.28 1809.66,470.45 1808.37,470.62 C1807.74,470.70 1805.15,471.16 1805.19,471.13 C1805.19,471.13 1811.58,473.62 1811.58,473.62 C1811.58,473.62 1810.10,472.12 1810.10,472.12" fill="none" stroke="rgb(78, 110, 69)" stroke-width="6.00" stroke-opacity="1.00" stroke-linejoin="round"/>
</g>
<g stroke-linecap="round" transform="translate(-1744.00, -442.00)" id="Layer_20">
<path d="M1764.94,451.21 C1760.82,453.29 1757.94,455.20 1756.10,457.27 C1754.41,459.23 1752.30,462.53 1751.27,464.77 C1750.24,467.06 1748.50,472.33 1748.02,475.01 C1747.52,477.92 1747.64,483.74 1748.28,486.41 C1749.04,489.43 1752.02,495.34 1753.83,497.69 C1755.80,500.19 1759.27,503.73 1761.53,505.54 C1763.62,507.17 1768.78,509.68 1769.63,509.89 C1769.97,509.98 1770.47,510.01 1771.15,510.00" fill="none" stroke="rgb(0, 0, 0)" stroke-width="6.00" stroke-opacity="1.00" stroke-linejoin="round"/>
<path d="M1765.72,507.76 C1765.69,509.32 1766.31,510.81 1767.75,511.96 C1769.77,513.54 1773.96,514.16 1780.43,514.72 C1785.65,515.15 1794.20,515.44 1797.37,514.84 C1798.83,514.56 1805.39,511.78 1806.92,510.91 C1808.78,509.84 1812.35,506.79 1814.13,504.74 C1817.16,501.22 1824.09,489.16 1826.22,483.39 C1827.09,480.98 1827.82,475.71 1827.83,475.36 C1827.90,472.08 1826.13,465.06 1825.41,463.75 C1824.51,462.15 1822.07,459.03 1820.72,457.77 C1820.30,457.38 1819.35,456.56 1817.88,455.30" fill="none" stroke="rgb(0, 0, 0)" stroke-width="6.00" stroke-opacity="1.00" stroke-linejoin="round"/>
<path d="M1822.96,460.33 C1822.23,457.60 1821.33,455.73 1819.93,454.22 C1818.87,453.10 1815.00,450.93 1809.97,448.56 C1806.62,447.02 1801.92,445.72 1801.10,445.00 C1800.90,444.83 1800.22,444.23 1799.03,444.14 C1798.41,444.09 1787.25,443.70 1783.12,443.72 C1777.06,443.79 1773.95,443.94 1769.90,445.42 C1768.59,445.91 1766.22,446.77 1765.17,447.16" fill="none" stroke="rgb(0, 0, 0)" stroke-width="6.00" stroke-opacity="1.00" stroke-linejoin="round"/>
<path d="M1776.66,443.98 C1774.41,444.61 1770.85,446.41 1766.04,449.42 C1762.86,451.34 1755.85,454.19 1755.22,454.60 C1753.86,455.49 1752.89,456.27 1752.31,456.95 C1752.06,457.26 1752.01,457.61 1752.18,457.99" fill="none" stroke="rgb(0, 0, 0)" stroke-width="6.00" stroke-opacity="1.00" stroke-linejoin="round"/>
<path d="M1789.37,461.33 C1785.96,463.61 1782.56,466.69 1783.26,467.43 C1784.30,467.96 1789.05,468.70 1792.15,469.53 C1794.26,470.09 1796.04,469.87 1797.14,468.97 C1797.94,468.23 1795.86,464.57 1794.29,463.20 C1793.88,462.85 1792.89,462.09 1791.32,460.92" fill="none" stroke="rgb(0, 0, 0)" stroke-width="6.00" stroke-opacity="1.00" stroke-linejoin="round"/>
<path d="M1787.09,462.95 C1784.63,461.16 1783.15,459.85 1781.97,458.32 C1780.76,456.77 1778.38,453.25 1777.82,452.82 C1777.34,452.45 1776.39,452.10 1774.95,451.77 C1775.57,451.22 1776.95,449.84 1777.20,449.75 C1777.79,449.55 1782.78,451.72 1787.02,453.80 C1790.41,455.52 1795.07,457.92 1796.35,458.59" fill="none" stroke="rgb(0, 0, 0)" stroke-width="6.00" stroke-opacity="1.00" stroke-linejoin="round"/>
<path d="M1793.11,454.91 C1795.27,458.99 1797.45,462.87 1798.49,463.48 C1798.60,463.54 1798.74,463.57 1798.89,463.58" fill="none" stroke="rgb(0, 0, 0)" stroke-width="6.00" stroke-opacity="1.00" stroke-linejoin="round"/>
<path d="M1781.81,463.22 C1780.04,462.81 1775.87,463.35 1770.53,464.78 C1766.49,465.91 1763.92,466.73 1761.31,468.09 C1761.18,469.01 1762.28,470.26 1764.31,471.27 C1765.69,471.94 1771.82,473.01 1775.06,472.45 C1776.50,472.19 1783.95,470.04 1784.73,469.84 C1785.18,469.72 1786.06,469.50 1787.38,469.18" fill="none" stroke="rgb(0, 0, 0)" stroke-width="6.00" stroke-opacity="1.00" stroke-linejoin="round"/>
<path d="M1793.75,471.08 C1796.64,472.49 1800.51,472.87 1804.54,473.13 C1807.93,473.34 1817.08,474.09 1817.41,474.07 C1817.86,474.05 1818.37,473.85 1818.95,473.48 C1819.02,472.43 1818.61,471.36 1817.42,470.23 C1813.79,466.83 1803.95,462.95 1798.43,461.25 C1797.89,461.08 1797.35,460.91 1796.80,460.75" fill="none" stroke="rgb(0, 0, 0)" stroke-width="6.00" stroke-opacity="1.00" stroke-linejoin="round"/>
</g>
</svg>
